<svg xmlns:xlink="http://www.w3.org/1999/xlink" xmlns="http://www.w3.org/2000/svg" width="241.179" height="206.73" viewBox="0 0 241.179 206.73">
    <defs>
        <style>
            .cls-1,.cls-2{fill:#00365b;fill-rule:evenodd}.cls-2{fill:#e93739}.cls-3{fill:#5f7887}
        </style>
    </defs>
    <g id="part_logo" data-name="part logo" transform="translate(-57.434 -58.894)">
        <g id="Group_1" data-name="Group 1" transform="translate(114.902 58.894)">
            <path id="Path_1" d="M317.749 221.133c-1.066 4.4-2.22 8.437-3.265 11.464 1.878-15.9-10.107-39.49-20.987-45.362 26.936 23.086 16.248 76.654-23.117 76.654-19.06 0-36.071-17.564-33.636-42.563 6.359 16.941 18.479 23.623 29.493 23.121 31.725-1.446 30.205-49.635-.821-52.631a34.987 34.987 0 0 0-27.624 9.949c-22.917 23-14.112 81.418.073 106.928a84.976 84.976 0 0 1-2.57-15.609 19.435 19.435 0 0 1 .063-2.357 62.771 62.771 0 0 0 82.391-69.593z" class="cls-1" data-name="Path 1" transform="translate(-192.993 -169.732)"/>
            <path id="Path_2" d="M223.559 153.683c11.663.955 20.323 3.919 26.779 8.357-5.115-6.893-36.908-26.116-67.852-6.723a62.887 62.887 0 0 0-27.434 69.5 68.387 68.387 0 0 1 2.917-8.97c-.216 9.919.532 22.414 5.606 44.243.046-41.665 4.988-105.615 59.984-106.407z" class="cls-2" data-name="Path 2" transform="translate(-152.9 -146.894)"/>
        </g>
        <g id="Group_6" data-name="Group 6" transform="translate(57.434 209.051)">
            <g id="Group_2" data-name="Group 2" transform="translate(138.759 7.145)">
                <path id="Path_3" d="M387.05 525.553l-10.741.017h-.538v-9.195a.145.145 0 0 0-.148-.146h-1.718a1.941 1.941 0 0 0-1.733 2.043v8.538c0 2.27-2.174 5.327-4.746 5.327a1.934 1.934 0 0 0-1.7 2.085v1.491a.13.13 0 0 0 .148.146h.97a8.157 8.157 0 0 0 5.678-2.335 9.2 9.2 0 0 0 2.729-4.232h1.653l11.765-.017a.13.13 0 0 0 .148-.146v-1.9a1.632 1.632 0 0 0-1.767-1.676z" class="cls-1" data-name="Path 3" transform="translate(-349.716 -515.767)"/>
                <path id="Path_4" d="M394.382 527.128a2.688 2.688 0 1 0-2.709-2.688 2.7 2.7 0 0 0 2.709 2.688z" class="cls-1" data-name="Path 4" transform="translate(-362.634 -518.516)"/>
                <path id="Path_5" d="M346.522 515.306a6.753 6.753 0 1 1 .063 13.506h-6.35q-2.654 0-2.655 2.189v4.233a.13.13 0 0 1-.147.146h-1.76q-1.844-.2-1.843-1.824v-3.868c0-2.612 2.552-4.6 5.078-4.6h1.53a6.679 6.679 0 0 1-.723-3.032 6.78 6.78 0 0 1 6.806-6.754zm-.006 3.722a3.042 3.042 0 1 0 3.042 3.042 3.042 3.042 0 0 0-3.042-3.043z" class="cls-1" data-name="Path 5" transform="translate(-333.83 -515.306)"/>
            </g>
            <g id="Group_3" data-name="Group 3" transform="translate(182.265 .002)">
                <path id="Path_6" d="M510.109 504.623l6.261-2.193c-.213-.691-.456-1.6-1.342-1.286l-6.21 2.227c.182.655.488 1.529 1.291 1.252z" class="cls-1" data-name="Path 6" transform="translate(-464.474 -501.078)"/>
                <path id="Path_7" d="M499.325 508.887l10.242-3.77c-.3-2.1-1-3.629-3.212-2.832l-9.831 3.55c-1.329.48-2.7 1.648-1.545 3.022l5.473 6.435c.918 1.079 1.4 2.964-.579 3.209l-8.77.018v-9.195a.138.138 0 0 0-.148-.146h-1.871a1.942 1.942 0 0 0-1.733 2.043v8.538c0 2.61-2.021 5.395-4.593 5.395a1.8 1.8 0 0 0-1.7 1.944v1.564a.13.13 0 0 0 .148.146h.97a8.155 8.155 0 0 0 5.677-2.335 9.189 9.189 0 0 0 2.729-4.232l9.361-.018c3.79 0 6.533-5.09 3.21-8.919z" class="cls-1" data-name="Path 7" transform="translate(-450.653 -501.572)"/>
                <path id="Path_8" d="M427.291 515.29a6.8 6.8 0 1 1-6.8 6.8 6.8 6.8 0 0 1 6.8-6.8zm0 3.759a3.042 3.042 0 1 0 3.042 3.042 3.042 3.042 0 0 0-3.042-3.042z" class="cls-1" data-name="Path 8" transform="translate(-420.49 -508.155)"/>
                <path id="Path_9" d="M458.865 515.31a6.782 6.782 0 0 1 6.807 6.69 24.847 24.847 0 0 1-.408 6.245 9.291 9.291 0 0 1-8.441 6.77h-6.046a.129.129 0 0 1-.147-.146v-1.634a1.821 1.821 0 0 1 1.7-1.942h1.622c3.626 0 5.985-.973 7.079-2.773.011-.021-1.775.294-2.162.294a6.754 6.754 0 1 1 0-13.507zm-.006 3.722a3.042 3.042 0 1 0 3.042 3.042 3.042 3.042 0 0 0-3.041-3.042z" class="cls-1" data-name="Path 9" transform="translate(-435.499 -508.165)"/>
            </g>
            <g id="Group_4" data-name="Group 4" transform="translate(0 .086)">
                <path id="Path_10" d="M154.89 518.1h-13.805l-.442-.073a2.019 2.019 0 0 1-1.4-2.189v-14.447c0-.085-.049-.134-.147-.146h-1.761q-1.64 0-1.843 1.824v14.3a4.165 4.165 0 0 0 .737 2.189 4.637 4.637 0 0 0 3.835 2.263h16.6a.13.13 0 0 0 .148-.146v-1.165q-.004-2.41-1.922-2.41z" class="cls-2" data-name="Path 10" transform="translate(-96.304 -501.245)"/>
                <path id="Path_11" d="M145.647 549.963a2.688 2.688 0 1 0-2.709-2.688 2.7 2.7 0 0 0 2.709 2.688z" class="cls-2" data-name="Path 11" transform="translate(-100.013 -522.829)"/>
                <path id="Path_12" d="M76.743 527.137a2.688 2.688 0 1 0-2.709-2.688 2.7 2.7 0 0 0 2.709 2.688z" class="cls-2" data-name="Path 12" transform="translate(-65.7 -511.462)"/>
                <path id="Path_13" d="M157.762 549.963a2.688 2.688 0 1 0-2.709-2.688 2.7 2.7 0 0 0 2.709 2.688z" class="cls-2" data-name="Path 13" transform="translate(-106.045 -522.829)"/>
                <path id="Path_14" d="M88.858 527.137a2.688 2.688 0 1 0-2.708-2.688 2.7 2.7 0 0 0 2.708 2.688z" class="cls-2" data-name="Path 14" transform="translate(-71.734 -511.462)"/>
                <path id="Path_15" d="M169.876 549.963a2.688 2.688 0 1 0-2.709-2.688 2.7 2.7 0 0 0 2.709 2.688z" class="cls-2" data-name="Path 15" transform="translate(-112.078 -522.829)"/>
                <path id="Path_16" d="M119.639 526.786v-10.412a.143.143 0 0 0-.148-.146h-1.87a1.941 1.941 0 0 0-1.733 2.043v8.539c0 2.27-2.022 5.254-4.593 5.254a1.933 1.933 0 0 0-1.7 2.085v1.563a.13.13 0 0 0 .148.146h.97c5.727-.001 8.926-4.181 8.926-9.072z" class="cls-2" data-name="Path 16" transform="translate(-83.411 -508.706)"/>
                <path id="Path_17" d="M86.952 527.02v-2.92a.144.144 0 0 0-.148-.146h-2.027A1.941 1.941 0 0 0 83.044 526v1.15a2.02 2.02 0 0 1-1.4 2.189l-.443.073h-21.85q-1.917 0-1.917 2.408v1.168a.13.13 0 0 0 .148.146h24.8a4.637 4.637 0 0 0 3.834-2.263 4.165 4.165 0 0 0 .737-2.189z" class="cls-2" data-name="Path 17" transform="translate(-57.434 -512.554)"/>
            </g>
            <g id="Group_5" data-name="Group 5" transform="translate(65.041)">
                <path id="Path_18" d="M258.9 521.726h1.908a1.808 1.808 0 0 0 1.7-1.991V501.22c0-.085-.05-.134-.148-.146h-1.76q-1.641 0-1.843 1.824v18.682a.129.129 0 0 0 .143.146z" class="cls-1" data-name="Path 18" transform="translate(-222.728 -501.074)"/>
                <path id="Path_19" d="M317.679 521.726h1.908a1.808 1.808 0 0 0 1.7-1.991V501.22q0-.127-.148-.146h-1.76q-1.64 0-1.843 1.824v18.682a.13.13 0 0 0 .143.146z" class="cls-1" data-name="Path 19" transform="translate(-251.996 -501.074)"/>
                <path id="Path_20" d="M200.4 521.518s.008-1.852 2.811-1.721h7.005a.129.129 0 0 0 .147-.146v-1.9a1.8 1.8 0 0 0-1.857-1.679h-5.591c-3.244 0-6.267 3.1-6.267 5.3v1.736q.3 2.117 1.77 2.117c3.691 0 6.932-.4 6.932 2.554 0 3.845-4.69 4.306-7.607 4.306-4.049 0-6.992-.841-6.992-5.591v-9.034c0-.085-.049-.134-.147-.146h-1.844a1.6 1.6 0 0 0-1.77 1.678v7.5c0 4.963 3.529 9.268 8.332 9.268h4.939c5.213 0 8.839-2.973 8.839-8.932 0-4.683-4.758-5.31-8.7-5.31z" class="cls-1" data-name="Path 20" transform="translate(-186.99 -508.544)"/>
                <path id="Path_21" d="M273.387 508.541a2.688 2.688 0 1 0-2.709-2.687 2.7 2.7 0 0 0 2.709 2.687z" class="cls-1" data-name="Path 21" transform="translate(-228.664 -502.115)"/>
                <path id="Path_22" d="M295.549 507.612a2.688 2.688 0 1 0-2.709-2.688 2.7 2.7 0 0 0 2.709 2.688z" class="cls-1" data-name="Path 22" transform="translate(-239.7 -501.653)"/>
                <path id="Path_23" d="M278.822 528.819h-9.7a9.193 9.193 0 0 1-2.727 4.233 8.155 8.155 0 0 1-5.678 2.335h-.97a.129.129 0 0 1-.147-.146v-1.491a2.059 2.059 0 0 1 1.852-2.085c2.572 0 4.436-3.056 4.436-5.327V517.8c0-.958.513-2.043 1.575-2.043h2.028a.157.157 0 0 1 .147.146v9.197h3.188a6.71 6.71 0 0 1-.7-3.007 6.8 6.8 0 1 1 6.781 6.727zm.1-9.768a3.042 3.042 0 1 0 3.042 3.042 3.042 3.042 0 0 0-3.043-3.042z" class="cls-1" data-name="Path 23" transform="translate(-223.145 -508.154)"/>
                <path id="Path_24" d="M242.905 526.786v-10.412a.136.136 0 0 0-.148-.146h-1.871a1.941 1.941 0 0 0-1.732 2.043v8.539c0 2.27-2 5.325-4.574 5.325a1.933 1.933 0 0 0-1.7 2.085l-.019 1.493a.129.129 0 0 0 .147.146h.97c5.728-.002 8.927-4.182 8.927-9.073z" class="cls-1" data-name="Path 24" transform="translate(-209.834 -508.62)"/>
            </g>
        </g>
        <path id="Union_1" d="M230.256 17.831V7.925q0-3.962 3.962-3.963h.99q3.963 0 3.963 3.963v1.981q0 3.963-3.963 3.963h-2.971v3.962zm1.981-9.906v3.963h2.971a1.751 1.751 0 0 0 1.982-1.981V7.925a1.751 1.751 0 0 0-1.982-1.981h-.99a1.751 1.751 0 0 0-1.98 1.981zm-11.958 5.944q-3.963 0-3.962-3.963V3.963h1.983v5.943a1.751 1.751 0 0 0 1.981 1.981h.99a1.751 1.751 0 0 0 1.982-1.981V3.963h1.981v5.943q0 3.963-3.962 3.963zm-14 0q-3.963 0-3.963-3.963V7.925q0-3.962 3.963-3.963h.99q3.963 0 3.962 3.963v1.981q0 3.963-3.962 3.963zM204.3 7.925v1.981a1.751 1.751 0 0 0 1.982 1.981h.99a1.752 1.752 0 0 0 1.982-1.981V7.925a1.752 1.752 0 0 0-1.982-1.981h-.99a1.751 1.751 0 0 0-1.982 1.981zm-12.642 5.944V7.925q0-3.962 3.963-3.963h2.972v1.982h-2.973a1.751 1.751 0 0 0-1.981 1.981v5.944zm-10.76 0q-4.953 0-4.952-3.963V3.963Q175.945 0 180.9 0h.991q4.953 0 4.953 3.963h-1.984q0-1.98-2.972-1.981h-.988q-2.972 0-2.972 1.981v5.943q0 1.981 2.972 1.981h.991q2.972 0 2.972-1.981V7.925H180.9V5.944h5.944v3.962q0 3.963-4.953 3.963zm-23.005 0q-3.962 0-3.963-3.963V7.925q0-3.962 3.963-3.963h.991q3.962 0 3.962 2.972t-3.962 2.972h-2.972a1.751 1.751 0 0 0 1.981 1.981h3.962v1.981zm-1.981-5.944h2.972q1.981 0 1.981-.991t-1.981-.99h-.991a1.751 1.751 0 0 0-1.982 1.981zm-12.642 5.944V7.925q0-3.962 3.962-3.963h2.968v1.982h-2.972a1.752 1.752 0 0 0-1.982 1.981v5.944zm-10.036 0q-3.963 0-3.963-2.972t3.963-2.972h2.966a1.751 1.751 0 0 0-1.981-1.981h-3.963V3.963h3.963q3.962 0 3.962 3.963v1.98q0 3.963-3.962 3.963zm-1.983-2.969q0 .99 1.982.991h.99a1.751 1.751 0 0 0 1.977-1.985h-2.971q-1.978 0-1.978.994zm-13.325 1.981a4.036 4.036 0 0 1-2.972.991q-3.962 0-3.963-3.963V3.963h1.981v5.943a1.981 1.981 0 1 0 3.963 0V3.963h1.981v5.943a1.981 1.981 0 1 0 3.963 0V3.963h1.981v5.943q0 3.963-3.963 3.963a4.035 4.035 0 0 1-2.97-.991zm-13.454.991q-3.962 0-3.963-3.963V5.944h-.99V3.963h.99V0h1.981v3.963h3.962v1.981h-3.962v3.962a1.751 1.751 0 0 0 1.981 1.981h1.981v1.981zm-15.1 0V6.934h-.991V4.953h.991v-.99Q89.374 0 93.336 0h1.982v1.981h-1.982a1.751 1.751 0 0 0-1.981 1.981v.991h3.963v1.981h-3.963v6.935zm-10.235 0q-3.962 0-3.963-3.963V7.925q0-3.962 3.963-3.963h.991q3.962 0 3.963 3.963v1.981q0 3.963-3.963 3.963zm-1.979-5.947v1.981a1.751 1.751 0 0 0 1.981 1.981h.991a1.751 1.751 0 0 0 1.981-1.981V7.925a1.751 1.751 0 0 0-1.981-1.981h-.991a1.751 1.751 0 0 0-1.981 1.981zm-12.5 5.944q-4.953 0-4.953-3.963h1.982q0 1.981 2.972 1.981h.991q2.971 0 2.972-1.981 0-1.486-4.458-2.229T59.7 3.963Q59.7 0 64.655 0h.991Q70.6 0 70.6 3.963h-1.983q0-1.98-2.972-1.981h-.991q-2.972 0-2.972 1.981 0 1.486 4.457 2.229T70.6 9.906q0 3.963-4.953 3.963zm-20.034 0q-3.962 0-3.962-3.963V5.944h-.991V3.963h.991V0h1.978v3.963h3.96v1.981h-3.96v3.962a1.751 1.751 0 0 0 1.981 1.981H46.6v1.981zm-16.148 0V7.925q0-3.962 3.963-3.963h2.971v1.982h-2.974a1.751 1.751 0 0 0-1.982 1.981v5.944zm-10.037 0q-3.962 0-3.963-2.972t3.963-2.972h2.972a1.751 1.751 0 0 0-1.981-1.981h-3.965V3.963h3.962q3.962 0 3.963 3.963v1.98q0 3.963-3.963 3.963zM16.456 10.9q0 .99 1.981.991h.991a1.751 1.751 0 0 0 1.981-1.981h-2.973q-1.981-.004-1.98.99zM0 13.869V0h5.943Q10.9 0 10.9 3.963T5.943 7.925H1.981v5.944zm1.981-7.925h3.962q2.972 0 2.972-1.981T5.943 1.981H1.981z" class="cls-3" data-name="Union 1" transform="translate(58.425 247.793)"/>
    </g>
</svg>