<?xml version="1.0" standalone="no"?>
<!DOCTYPE svg PUBLIC "-//W3C//DTD SVG 1.1//EN" "http://www.w3.org/Graphics/SVG/1.1/DTD/svg11.dtd" >
<svg>
<metadata>
Created by FontForge 20090914 at Sun Sep  4 14:07:01 2022
 By www-data
Copyright (c) 2003 by Bitstream, Inc. All Rights Reserved.
DejaVu changes are in public domain
Changes by Saber Rastikerdar are in public domain.
Non-Arabic(Latin) glyphs and data in extended version are imported from Roboto font under the Apache License, Version 2.0.
</metadata>
<defs>
<font id="Vazir-Medium" horiz-adv-x="0" >
  <font-face 
    font-family="Vazir"
    font-weight="500"
    font-stretch="normal"
    units-per-em="2048"
    panose-1="2 11 6 3 3 8 4 2 2 4"
    ascent="1638"
    descent="-410"
    x-height="1082"
    cap-height="1456"
    bbox="-1038 -970.357 3294 2364"
    underline-thickness="100"
    underline-position="-500"
    unicode-range="U+0002-U+FFFD"
  />
<missing-glyph horiz-adv-x="507" 
 />
    <glyph glyph-name="uni0622" unicode="&#x627;&#x653;" horiz-adv-x="683" 
d="M249 1293.01h173h20v-17.9824v-1256.14v-17.9834h-20h-173h-20v17.9834v1256.14v17.9824h20zM252 1489c-74 10 -141.667 -21.332 -203 -93.999l-101 126c78.667 113.333 174.667 161 288 143l149 -24c66 -10.667 139 4.66602 219 45.999l66 -157
c-86 -53.333 -178.333 -73.333 -277 -60z" />
    <glyph glyph-name="uni0623" unicode="&#x627;&#x654;" horiz-adv-x="487" 
d="M166 1230.32h173h20v-17.084v-1193.3v-17.083h-20h-173h-20v17.083v1193.3v17.084h20zM102 1459c-41.333 38.667 -61.999 90.333 -61.999 155c0 61.333 20.333 113.666 61 156.999c48.667 50.667 110.334 76 185.001 76c52 0 100.667 -14.667 146 -44l5 -3v-5l1 -132v-19
l-16 11c-10 6.66699 -20 12.334 -30 17.001s-20.333 8.66699 -31 12c-10 3.33301 -20 6 -30 8c-10.667 1.33301 -21 2 -31 2c-20 0 -37.333 -2.66699 -52 -8c-15.333 -5.33301 -28 -13 -38 -23c-2.66699 -2.66699 -5.16699 -5.66699 -7.5 -9l-6.5 -9
c-2 -3.33301 -3.66699 -6.66602 -5 -9.99902c-1.33301 -4 -2.33301 -7.66699 -3 -11s-1.33398 -7 -2.00098 -11s-1 -8 -1 -12c0.666992 -17.333 8 -33 22 -47c14.667 -14 36.667 -26.667 66 -38c7.33301 -2.66699 13.666 -3.33398 18.999 -2.00098l140 27l12 3v-12v-126v-8
l-8 -2l-406 -98l-13 -3v13v123v8l8 2z" />
    <glyph glyph-name="afii57412" unicode="&#x648;&#x654;" horiz-adv-x="900" 
d="M310 986c-41.333 38.667 -61.999 90.333 -61.999 155c0 61.333 20.333 113.666 61 156.999c48.667 50.667 110.334 76 185.001 76c52 0 100.667 -14.667 146 -44l5 -3v-5l1 -132v-19l-16 11c-10 6.66699 -20 12.334 -30 17.001s-20.333 8.66699 -31 12
c-10 3.33301 -20 6 -30 8c-10.667 1.33301 -21 2 -31 2c-20 0 -37.333 -2.66699 -52 -8c-15.333 -5.33301 -28 -13 -38 -23c-2.66699 -2.66699 -5.16699 -5.66699 -7.5 -9l-6.5 -9c-2 -3.33301 -3.66699 -6.66602 -5 -9.99902c-1.33301 -4 -2.33301 -7.66699 -3 -11
s-1.33398 -7 -2.00098 -11s-1 -8 -1 -12c0.666992 -17.333 8 -33 22 -47c14.667 -14 36.667 -26.667 66 -38c7.33301 -2.66699 13.666 -3.33398 18.999 -2.00098l140 27l12 3v-12v-126v-8l-8 -2l-406 -98l-13 -3v13v123v8l8 2zM610.001 235.999
c-16 199.333 -73.668 298.999 -173.001 298.999c-54.667 0 -94 -35.667 -118 -107c-5.33301 -16.667 -9.5 -33 -12.5 -49s-4.5 -31.333 -4.5 -46c0 -40 13.833 -69.5 41.5 -88.5s72.834 -28.5 135.501 -28.5c42 0.666992 85.667 7.33398 131 20.001zM478 -2.00195
c-125.333 0 -220.831 27.001 -286.498 81.001s-98.5 133.667 -98.5 239c0 84 18 163.333 54 238c66 138.667 166.667 208 302 208c145.333 0 249 -80.667 311 -242c41.333 -107.333 61.666 -228 60.999 -362c-1.33301 -192 -61.333 -342.333 -180 -451s-294 -175 -526 -199
l-17 -2l-4 17l-43 170l-5 23l23 2c288.667 29.333 464.667 125.666 528 288.999c-21.333 -2.66699 -39.5 -4.66699 -54.5 -6l-38.5 -3.5c-10.667 -1 -19.334 -1.5 -26.001 -1.5z" />
    <glyph glyph-name="uni0625" unicode="&#x627;&#x655;" horiz-adv-x="487" 
d="M107 -505c-41.333 38.667 -61.999 90.333 -61.999 155c0 61.333 20.333 113.666 61 156.999c48.667 50.667 110.334 76 185.001 76c52 0 100.667 -14.667 146 -44l5 -3v-5l1 -132v-19l-16 11c-10 6.66699 -20 12.334 -30 17.001s-20.333 8.66699 -31 12
c-10 3.33301 -20 6 -30 8c-10.667 1.33301 -21 2 -31 2c-20 0 -37.333 -2.66699 -52 -8c-15.333 -5.33301 -28 -13 -38 -23c-2.66699 -2.66699 -5.16699 -5.66699 -7.5 -9l-6.5 -9c-2 -3.33301 -3.66699 -6.66602 -5 -9.99902c-1.33301 -4 -2.33301 -7.66699 -3 -11
s-1.33398 -7 -2.00098 -11s-1 -8 -1 -12c0.666992 -17.333 8 -33 22 -47c14.667 -14 36.667 -26.667 66 -38c7.33301 -2.66699 13.666 -3.33398 18.999 -2.00098l140 27l12 3v-12v-126v-8l-8 -2l-406 -98l-13 -3v13v123v8l8 2zM161.001 1438h173h20v-20v-1397v-20h-20h-173
h-20v20v1397v20h20z" />
    <glyph glyph-name="afii57414" unicode="&#x64a;&#x654;" horiz-adv-x="1524" 
d="M362 782c-41.333 38.667 -61.999 90.333 -61.999 155c0 61.333 20.333 113.666 61 156.999c48.667 50.667 110.334 76 185.001 76c52 0 100.667 -14.667 146 -44l5 -3v-5l1 -132v-19l-16 11c-10 6.66699 -20 12.334 -30 17.001s-20.333 8.66699 -31 12
c-10 3.33301 -20 6 -30 8c-10.667 1.33301 -21 2 -31 2c-20 0 -37.333 -2.66699 -52 -8c-15.333 -5.33301 -28 -13 -38 -23c-2.66699 -2.66699 -5.16699 -5.66699 -7.5 -9l-6.5 -9c-2 -3.33301 -3.66699 -6.66602 -5 -9.99902c-1.33301 -4 -2.33301 -7.66699 -3 -11
s-1.33398 -7 -2.00098 -11s-1 -8 -1 -12c0.666992 -17.333 8 -33 22 -47c14.667 -14 36.667 -26.667 66 -38c7.33301 -2.66699 13.666 -3.33398 18.999 -2.00098l140 27l12 3v-12v-126v-8l-8 -2l-406 -98l-13 -3v13v123v8l8 2zM298.001 60.999
c0 -76.667 16.167 -140.332 48.5 -190.999s82 -88.834 149 -114.501s152.167 -38.834 255.5 -39.501c116 0 219.333 21 310 63c46 22 86.667 50.667 122 86c32.667 34 49 72.333 49 115c0 12.667 -4.16699 22 -12.5 28s-23.833 9 -46.5 9l-113 1
c-86.667 0 -153.167 18.5 -199.5 55.5s-69.5 91.5 -69.5 163.5c0 131.333 41.667 242.666 125 333.999c107.333 116.667 257.666 175 450.999 175h21h20v-20v-193v-20h-20h-22c-51.333 0 -98.166 -5.83301 -140.499 -17.5s-79.833 -29.167 -112.5 -52.5
c-66 -46 -99.667 -101.667 -101 -167c0 -14 3 -23 9 -27c7.33301 -6.66699 21 -10 41 -10h119c41.333 0.666992 78 -3.66602 110 -12.999s58.833 -23.166 80.5 -41.499s38.167 -41.333 49.5 -69s17 -59.5 17 -95.5c0 -202 -100 -348.667 -300 -440
c-115.333 -52.667 -246 -79 -392 -79c-218 0 -383 46.667 -495 140s-168 232.333 -168 417c0 146 47 325 141 537l8 18l18 -7l159 -66l19 -7l-9 -19c-80.667 -183.333 -121 -334.333 -121 -453z" />
    <glyph glyph-name="uni06C0" unicode="&#x647;&#x654;" horiz-adv-x="942" 
d="M184 1274c40 -8.66699 77.665 -13.002 112.998 -13.002c51.333 0 95 4 131 12s63.667 20 83 36c28.667 23.333 43 47.333 43 72c0 10 -9 15.333 -27 16l-100 2c-41.333 1.33301 -72.833 13 -94.5 35s-32.5 54 -32.5 96c0 84.667 43.333 154.667 130 210
c60.667 38.667 144.667 58.334 252 59.001h11l-1 -11l-9 -126l-1 -9h-9c-37.333 -0.666992 -70.166 -3.66699 -98.499 -9s-52 -12.833 -71 -22.5s-33.667 -21.167 -44 -34.5s-16.5 -28.666 -18.5 -45.999l100 -3c83.333 -2 132.333 -38.333 147 -109
c13.333 -68.667 -10 -136 -70 -202c-67.333 -73.333 -176.666 -110 -327.999 -110c-40.667 0 -83.667 3.66699 -129 11l-10 2l2 10l19 125l1 11zM461.998 637.998c-22.667 -20.667 -43.334 -40.9971 -62.001 -60.9971s-34.667 -39.167 -48 -57.5
s-24.5 -36.166 -33.5 -53.499s-15.667 -33.833 -20 -49.5s-6.5 -30.834 -6.5 -45.501c0 -50 14.667 -87 44 -111s75.666 -36 138.999 -36c64.667 0 111.834 12 141.501 36s44.167 61.333 43.5 112c0 8 -1 16.5 -3 25.5s-5 18.333 -9 28s-9 19.667 -15 30
s-13 21.166 -21 32.499s-17.167 23 -27.5 35s-21.666 24.167 -33.999 36.5s-25.833 25.166 -40.5 38.499s-30.667 26.666 -48 39.999zM403.998 992.001c311.333 -226.667 467 -435.333 467 -626c0 -133.333 -58 -236 -174 -308c-19.333 -12 -40.333 -22 -63 -30
s-47.167 -14 -73.5 -18s-54.5 -6 -84.5 -6c-84 0 -155.667 15 -215 45c-120 60 -180 165.667 -180 317c0 138 76 283.333 228 436l-29 25l-14 12l11 15l100 133l11 16z" />
    <glyph glyph-name="fi" unicode="fi" horiz-adv-x="1214" 
d="M202 0l0.00195312 19.9971v879h-151h-20v20v143v20h20h151v74c0 64 9.66699 120.667 29 170c19.333 50 48 92.333 86 127c13.333 11.333 27.5 21.833 42.5 31.5s30.833 18.334 47.5 26.001s34.334 14.5 53.001 20.5s38 10.833 58 14.5s40.667 6.5 62 8.5s43.333 3 66 3
c27.333 0 54.166 -1.5 80.499 -4.5s52.166 -7.5 77.499 -13.5c46.667 -12 94.667 -26.667 144 -44l16 -6l-3 -17l-31 -156l-5 -24l-22 9c-6 2.66699 -12.167 5.16699 -18.5 7.5s-12.833 4.5 -19.5 6.5s-13.5 4.16699 -20.5 6.5l-22 7c-7.66699 2.33301 -15.5 4.5 -23.5 6.5
c-42 10 -88 15 -138 15c-40.667 0 -75.167 -4 -103.5 -12s-50.5 -20 -66.5 -36c-16.667 -15.333 -29.334 -35.166 -38.001 -59.499s-13 -53.166 -13 -86.499v-74h218h21v-20v-143v-20h-21h-218v-879v-20h-21h-197h-20zM1053 -0.00292969h-20h-186h-20v20v1042v20h20h186h20
v-20v-1042v-20z" />
    <glyph glyph-name="uniFBA5.fina" unicode="&#xfeea;&#x654;" horiz-adv-x="1063" arabic-form="final" 
d="M338 1205c40 -8.66699 77.665 -13.002 112.998 -13.002c51.333 0 95 4 131 12s63.667 20 83 36c28.667 23.333 43 47.333 43 72c0 10 -9 15.333 -27 16l-100 2c-41.333 1.33301 -72.833 13 -94.5 35s-32.5 54 -32.5 96c0 84.667 43.333 154.667 130 210
c60.667 38.667 144.667 58.334 252 59.001h11l-1 -11l-9 -126l-1 -9h-9c-37.333 -0.666992 -70.166 -3.66699 -98.499 -9s-52 -12.833 -71 -22.5s-33.667 -21.167 -44 -34.5s-16.5 -28.666 -18.5 -45.999l100 -3c83.333 -2 132.333 -38.333 147 -109
c13.333 -68.667 -10 -136 -70 -202c-67.333 -73.333 -176.666 -110 -327.999 -110c-40.667 0 -83.667 3.66699 -129 11l-10 2l2 10l19 125l1 11zM90.998 425.998c0 202.667 172.001 358.334 516.001 467.001l-5 28l-4 20l19 4l163 33l20 4l3 -21l83 -591
c4.66699 -33.333 13.667 -60.833 27 -82.5s31.5 -37.667 54.5 -48s51.167 -15.5 84.5 -15.5h20c9.33301 0 17 -2.66699 23 -8s10 -13.333 12 -24s3.33301 -19.834 4 -27.501s1 -18.5 1 -32.5v-24v-5c0 -16 -0.333008 -28.333 -1 -37s-2 -19 -4 -31s-6 -20.833 -12 -26.5
s-13.667 -8.5 -23 -8.5h-24c-180 0 -291.667 70.333 -335 211c-38.667 -29.333 -79.334 -51.5 -122.001 -66.5s-87.667 -22.5 -135 -22.5c-156 0 -265.333 51.667 -328 155c-24.667 41.333 -37 91 -37 149zM637.999 686.998c-110.667 -42 -193.167 -84.1699 -247.5 -126.503
s-81.5 -83.166 -81.5 -122.499c0 -17.333 2.5 -32.166 7.5 -44.499s13.167 -22.833 24.5 -31.5s26 -15.167 44 -19.5s39.333 -6.5 64 -6.5c48 0 96 14.667 144 44c56.667 34.667 79 91.334 67 170.001l-21 133z" />
    <glyph glyph-name="uniFDF2" unicode="&#x627;&#xfedf;&#xfee0;&#xfeea;" horiz-adv-x="2779" arabic-form="isolated" 
d="M1332 1723v402v10h10h88h10v-10v-402v-10h-10h-88h-10v10zM1433 1621c0.666992 -14 1.16992 -27.8301 1.50293 -41.4971s0.833008 -27.5 1.5 -41.5c-0.666992 -29.333 3.66602 -50.333 12.999 -63s23.666 -19 42.999 -19c20 0 35 7.33301 45 22s15.333 37.667 16 69
c0 3.33301 -0.166992 6.66602 -0.5 9.99902s-0.666016 7 -0.999023 11l-1 12.5c-0.333008 4.33301 -0.833008 9 -1.5 14s-1.5 10 -2.5 15s-2 10.333 -3 16s-2.16699 11.667 -3.5 18l-4 19.5l-2 10l11 2l88 14l8 1l3 -8c12 -42.667 18 -84.334 18 -125.001
c0 -69.333 -13.167 -122.166 -39.5 -158.499s-65.5 -54.5 -117.5 -54.5c-39.333 -0.666992 -73.333 13.666 -102 42.999c-24.667 -71.333 -76.667 -107 -156 -107c-48 0 -84.333 15.167 -109 45.5s-37.667 74.5 -39 132.5c-0.666992 40.667 3.66602 78 12.999 112l3 9l9 -1
l78 -13l10 -2l-2 -10c-6.66699 -30.667 -9.66699 -57.667 -9 -81c0 -26 4.66699 -44.833 14 -56.5s24 -17.5 44 -17.5c24 0 42.333 8.16699 55 24.5s19.667 42.833 21 79.5c1.33301 33.333 1.66602 72.666 0.999023 117.999v10h10h77h10v-9zM91.0029 426.003
c0 202.667 172.001 358.334 516.001 467.001l-5 28l-4 20l19 4l163 33l20 4l3 -21l83 -591c4.66699 -33.333 13.667 -60.833 27 -82.5s31.5 -37.667 54.5 -48s51.167 -15.5 84.5 -15.5h20c9.33301 0 17 -2.66699 23 -8s10 -13.333 12 -24s3.33301 -19.834 4 -27.501
s1 -18.5 1 -32.5v-24v-5c0 -16 -0.333008 -28.333 -1 -37s-2 -19 -4 -31s-6 -20.833 -12 -26.5s-13.667 -8.5 -23 -8.5h-24c-180 0 -291.667 70.333 -335 211c-38.667 -29.333 -79.334 -51.5 -122.001 -66.5s-87.667 -22.5 -135 -22.5c-156 0 -265.333 51.667 -328 155
c-24.667 41.333 -37 91 -37 149zM638.004 687.003c-110.667 -42 -193.167 -84.1699 -247.5 -126.503s-81.5 -83.166 -81.5 -122.499c0 -17.333 2.5 -32.166 7.5 -44.499s13.167 -22.833 24.5 -31.5s26 -15.167 44 -19.5s39.333 -6.5 64 -6.5c48 0 96 14.667 144 44
c56.667 34.667 79 91.334 67 170.001l-21 133zM1084 0h-29c-31.333 0 -55.333 9.66699 -72 29c-17.333 19.333 -26 45.666 -26 78.999v19c0 20.667 4 38 12 52c7.33301 14.667 18.5 25.834 33.5 33.501s32.5 11.5 52.5 11.5h31c72 0 125 18.333 159 55
c34.667 36.667 52 94 52 172v713v20h20h174h20v-20v-713c0 -78 15 -135.333 45 -172s76 -55 138 -55h11c34 0 51 -32.333 51 -97v-19c0 -18 -0.666992 -32.667 -2 -44c-2 -12.667 -4.66699 -23 -8 -31c-2.66699 -6 -5.66699 -11.333 -9 -16s-8 -8.66699 -14 -12
c-5.33301 -3.33301 -11.333 -5 -18 -5h-8c-130.667 -0 -231.667 43.333 -303 130c-70.667 -86.667 -174 -130 -310 -130zM1696 0c-31.333 0 -55.333 9.66699 -72 29c-17.333 19.333 -26 45.666 -26 78.999v19c0 20.667 4 38 12 52c7.33301 14.667 18.5 25.834 33.5 33.501
s32.5 11.5 52.5 11.5h58c30 0 56 3.66699 78 11s40.333 19 55 35c14.667 15.333 25.667 35 33 59c6.66699 24.667 10 53.334 10 86.001v912v20h20h174h20v-20v-918c0 -134.667 -33.333 -236.334 -100 -305.001c-67.333 -69.333 -166 -104 -296 -104h-52zM2444 1438h173h20
v-20v-1397v-20h-20h-173h-20v20v1397v20h20z" />
    <glyph glyph-name="uniFE70" unicode="&#x20;&#x64b;" horiz-adv-x="791" arabic-form="isolated" 
d="M36 1076v104v7l6 2l455 187l14 5v-15v-103v-7l-6 -3l-456 -186l-13 -5v14zM36 1288v104v7l6 2l455 187l14 5v-15v-103v-7l-6 -3l-456 -186l-13 -5v14z" />
    <glyph glyph-name="uniFE72" unicode="&#x20;&#x64c;" horiz-adv-x="791" arabic-form="isolated" 
d="M314 1711c-2.66699 -3.33301 -5.16797 -6.83301 -7.50098 -10.5s-4.16602 -7.5 -5.49902 -11.5s-2.33301 -8 -3 -12s-1 -8.33301 -1 -13c0 -16.667 4.83301 -31.167 14.5 -43.5s24.5 -22.833 44.5 -31.5c4 -1.33301 8.16699 -2.83301 12.5 -4.5l14.5 -5.5
c5.33301 -2 11.333 -4 18 -6l21 -6c14.667 26.667 22 54 22 82c0 30.667 -5.66699 53 -17 67s-29.333 20.667 -54 20c-6 0 -11.833 -0.5 -17.5 -1.5s-11 -2.5 -16 -4.5s-9.5 -4.66699 -13.5 -8s-8 -7 -12 -11zM47.999 1515c1.33301 -74 12.3311 -128.499 32.998 -163.499
s50.667 -52.5 90 -52.5c45.333 0.666992 92.666 24.667 141.999 72c26 26.667 51.333 62.667 76 108l-17 4c-22.667 4.66699 -43 10.5 -61 17.5s-33.833 15.167 -47.5 24.5s-25.167 19.666 -34.5 30.999c-11.333 15.333 -19.833 31.166 -25.5 47.499s-8.5 33.5 -8.5 51.5
c0 35.333 6 65 18 89c31.333 60.667 83.333 91 156 91c50.667 0.666992 91.334 -14 122.001 -44c11.333 -10.667 20.833 -23.167 28.5 -37.5s13.334 -30 17.001 -47s5.5 -35.833 5.5 -56.5c0.666992 -24.667 -5.33301 -58 -18 -100h17c19.333 -1.33301 39 -2 59 -2l9 -1v-9
v-79v-10h-10c-26.667 0.666992 -43.667 1.33398 -51 2.00098l-69 7c-31.333 -73.333 -75.666 -134.666 -132.999 -183.999c-55.333 -48.667 -113 -73 -173 -73c-130.667 -0.666992 -197.667 103.666 -201 312.999v10h10h56h10v-9z" />
    <glyph glyph-name="uniFE74" unicode="&#x20;&#x64d;" horiz-adv-x="791" arabic-form="isolated" 
d="M41 -446v104v6l6 3l456 186l14 6v-15v-104v-6l-7 -3l-455 -186l-14 -6v15zM41 -234v104v6l6 3l456 186l14 6v-15v-104v-6l-7 -3l-455 -186l-14 -6v15z" />
    <glyph glyph-name="uniFE76" unicode="&#x20;&#x64e;" horiz-adv-x="791" arabic-form="isolated" 
d="M5 1349v104v6l6 3l456 186l14 6v-15v-104v-6l-7 -3l-455 -186l-14 -6v15z" />
    <glyph glyph-name="uniFE78" unicode="&#x20;&#x64f;" horiz-adv-x="791" arabic-form="isolated" 
d="M532 1454c-40.667 0 -73.999 1.66406 -99.999 4.99707l-26 3c-85.333 -118 -208 -181 -368 -189l-10 -1v11v78v10h9c115.333 4.66699 202.333 44.667 261 120c-25.333 6.66699 -51 17.334 -77 32.001c-61.333 34 -92 81.667 -92 143c0.666992 22 4.16699 42.5 10.5 61.5
s15.5 36.167 27.5 51.5c32.667 39.333 77.667 59 135 59c14 0 27.667 -1.33301 41 -4s25.833 -7 37.5 -13s22.834 -13 33.501 -21c7.33301 -6 14.166 -12.667 20.499 -20s12 -15.166 17 -23.499s9.16699 -16.833 12.5 -25.5c7.33301 -20 11 -42 11 -66
c-0.666992 -12 -1.83398 -24.167 -3.50098 -36.5s-4 -24.666 -7 -36.999s-6.83301 -24.5 -11.5 -36.5l6 -1c13.333 -0.666992 26 -1.16699 38 -1.5s23.333 -0.5 34 -0.5l11 1v-11v-78v-10h-10zM353.001 1572l2.99902 5.99902c13.333 30.667 20 59.334 20 86.001
c0 24 -7 42 -21 54c-3.33301 2.66699 -6.5 5 -9.5 7s-6.16699 3.83301 -9.5 5.5s-6.66602 3 -9.99902 4s-6.66602 1.66699 -9.99902 2s-6.66602 0.5 -9.99902 0.5c-26.667 0.666992 -47.334 -8.33301 -62.001 -27c-10 -13.333 -15 -29.333 -15 -48c0 -27.333 20 -50 60 -68
c13.333 -6.66699 34.666 -14 63.999 -22z" />
    <glyph glyph-name="uniFE7A" unicode="&#x20;&#x650;" horiz-adv-x="791" arabic-form="isolated" 
d="M52 -346v104v7l6 2l456 187l13 5v-15v-103v-7l-6 -3l-455 -186l-14 -5v14z" />
    <glyph glyph-name="uniFE7C" unicode="&#x20;&#x651;" horiz-adv-x="791" arabic-form="isolated" 
d="M337 1769c0.666992 -14 1.16992 -27.8301 1.50293 -41.4971s0.833008 -27.5 1.5 -41.5c-0.666992 -29.333 3.66602 -50.333 12.999 -63s23.666 -19 42.999 -19c20 0 35 7.33301 45 22s15.333 37.667 16 69c0 3.33301 -0.166992 6.66602 -0.5 9.99902
s-0.666016 7 -0.999023 11l-1 12.5c-0.333008 4.33301 -0.833008 9 -1.5 14s-1.5 10 -2.5 15s-2 10.333 -3 16s-2.16699 11.667 -3.5 18l-4 19.5l-2 10l11 2l88 14l8 1l3 -8c12 -42.667 18 -84.334 18 -125.001c0 -69.333 -13.167 -122.166 -39.5 -158.499
s-65.5 -54.5 -117.5 -54.5c-39.333 -0.666992 -73.333 13.666 -102 42.999c-24.667 -71.333 -76.667 -107 -156 -107c-48 0 -84.333 15.167 -109 45.5s-37.667 74.5 -39 132.5c-0.666992 40.667 3.66602 78 12.999 112l3 9l9 -1l78 -13l10 -2l-2 -10
c-6.66699 -30.667 -9.66699 -57.667 -9 -81c0 -26 4.66699 -44.833 14 -56.5s24 -17.5 44 -17.5c24 0 42.333 8.16699 55 24.5s19.667 42.833 21 79.5c1.33301 33.333 1.66602 72.666 0.999023 117.999v10h10h77h10v-9z" />
    <glyph glyph-name="uniFE7E" unicode="&#x20;&#x652;" horiz-adv-x="791" arabic-form="isolated" 
d="M107 1462c0 57.333 19.833 105.833 59.5 145.5s88.167 59.5 145.5 59.5s106 -20 146 -60c20 -19.333 35 -41.333 45 -66s15 -51 15 -79c0 -57.333 -20 -106 -60 -146c-20 -20 -42.167 -35 -66.5 -45s-50.833 -15 -79.5 -15c-57.333 0 -105.833 20 -145.5 60
s-59.5 88.667 -59.5 146zM214 1461c-0.666992 -28.667 9.00098 -52.667 29.001 -72c19.333 -20 43.333 -30 72 -30c28 0 52 10 72 30c6.66699 6 12.167 12.833 16.5 20.5s7.66602 15.667 9.99902 24s3.5 17.5 3.5 27.5c-0.666992 28 -10.667 52 -30 72
c-20 19.333 -44 29 -72 29c-28.667 0 -52.667 -9.66699 -72 -29c-20 -20 -29.667 -44 -29 -72z" />
    <glyph glyph-name="uniFEF5" unicode="&#xfedf;&#xfe82;" horiz-adv-x="1219" arabic-form="isolated" 
d="M213 1522c-74 10 -141.667 -21.332 -203 -93.999l-101 126c78.667 113.333 174.667 161 288 143l149 -24c66 -10.667 139 4.66602 219 45.999l66 -157c-86 -53.333 -178.333 -73.333 -277 -60zM279 1366c194.667 -471.333 327.334 -836.999 398.001 -1097
c130.667 51.333 196 181.666 196 390.999v758v20h20h173h20v-20v-759c0 -216.667 -58 -380.334 -174 -491.001c-116 -110 -288 -165 -516 -165c-93.333 0 -169 5.33301 -227 16l-16 3v17v181v23l23 -3c103.333 -13.333 202.666 -17.666 297.999 -12.999
c-68.667 234 -201 577 -397 1029l-7 16l15 9l165 94l20 12z" />
    <glyph glyph-name="uniFEF6" unicode="&#xfee0;&#xfe82;" horiz-adv-x="1293" arabic-form="final" 
d="M677 269c130.667 51.333 195.998 181.667 195.998 391v758v20h20h173h20v-20v-849c0 -80 7.5 -145.667 22.5 -197s36.5 -89 64.5 -113c27.333 -23.333 62 -35 104 -35h25c6.66699 0 12.334 -1.33301 17.001 -4s8.66699 -6.66699 12 -12c2.66699 -6 4.66699 -11.333 6 -16
c2 -4.66699 3.33301 -11.667 4 -21s1 -16.5 1 -21.5v-22.5v-19v-6c0 -16 -0.166992 -28.333 -0.5 -37s-1.83301 -19 -4.5 -31c-2 -12 -6 -20.667 -12 -26s-13.667 -8 -23 -8h-39c-78 -0 -143.667 17.333 -197 52s-92.666 85.667 -117.999 153
c-114.667 -134.667 -298.667 -202 -552 -202c-93.333 0 -169 5.33301 -227 16l-16 3v17v181v23l23 -3c101.333 -13.333 200.666 -17.666 297.999 -12.999c-70.667 237.333 -203 580.333 -397 1029l-7 16l15 9l165 94l20 12l9 -21
c194.667 -470.667 327.334 -836.334 398.001 -1097zM212.998 1522c-74 10 -141.667 -21.332 -203 -93.999l-101 126c78.667 113.333 174.667 161 288 143l149 -24c66 -10.667 139 4.66602 219 45.999l66 -157c-86 -53.333 -178.333 -73.333 -277 -60z" />
    <glyph glyph-name="uniFEF7" unicode="&#xfedf;&#xfe84;" horiz-adv-x="1219" arabic-form="isolated" 
d="M55 1535c-41.333 38.667 -61.999 90.333 -61.999 155c0 61.333 20.333 113.666 61 156.999c48.667 50.667 110.334 76 185.001 76c52 0 100.667 -14.667 146 -44l5 -3v-5l1 -132v-19l-16 11c-10 6.66699 -20 12.334 -30 17.001s-20.333 8.66699 -31 12
c-10 3.33301 -20 6 -30 8c-10.667 1.33301 -21 2 -31 2c-20 0 -37.333 -2.66699 -52 -8c-15.333 -5.33301 -28 -13 -38 -23c-2.66699 -2.66699 -5.16699 -5.66699 -7.5 -9l-6.5 -9c-2 -3.33301 -3.66699 -6.66602 -5 -9.99902c-1.33301 -4 -2.33301 -7.66699 -3 -11
s-1.33398 -7 -2.00098 -11s-1 -8 -1 -12c0.666992 -17.333 8 -33 22 -47c14.667 -14 36.667 -26.667 66 -38c7.33301 -2.66699 13.666 -3.33398 18.999 -2.00098l140 27l12 3v-12v-126v-8l-8 -2l-406 -98l-13 -3v13v123v8l8 2zM279.001 1366
c194.667 -471.333 327.334 -836.999 398.001 -1097c130.667 51.333 196 181.666 196 390.999v758v20h20h173h20v-20v-759c0 -216.667 -58 -380.334 -174 -491.001c-116 -110 -288 -165 -516 -165c-93.333 0 -169 5.33301 -227 16l-16 3v17v181v23l23 -3
c103.333 -13.333 202.666 -17.666 297.999 -12.999c-68.667 234 -201 577 -397 1029l-7 16l15 9l165 94l20 12z" />
    <glyph glyph-name="uniFEF8" unicode="&#xfee0;&#xfe84;" horiz-adv-x="1293" arabic-form="final" 
d="M677 269c130.667 51.333 195.998 181.667 195.998 391v758v20h20h173h20v-20v-849c0 -80 7.5 -145.667 22.5 -197s36.5 -89 64.5 -113c27.333 -23.333 62 -35 104 -35h25c6.66699 0 12.334 -1.33301 17.001 -4s8.66699 -6.66699 12 -12c2.66699 -6 4.66699 -11.333 6 -16
c2 -4.66699 3.33301 -11.667 4 -21s1 -16.5 1 -21.5v-22.5v-19v-6c0 -16 -0.166992 -28.333 -0.5 -37s-1.83301 -19 -4.5 -31c-2 -12 -6 -20.667 -12 -26s-13.667 -8 -23 -8h-39c-78 -0 -143.667 17.333 -197 52s-92.666 85.667 -117.999 153
c-114.667 -134.667 -298.667 -202 -552 -202c-93.333 0 -169 5.33301 -227 16l-16 3v17v181v23l23 -3c101.333 -13.333 200.666 -17.666 297.999 -12.999c-70.667 237.333 -203 580.333 -397 1029l-7 16l15 9l165 94l20 12l9 -21
c194.667 -470.667 327.334 -836.334 398.001 -1097zM54.998 1535c-41.333 38.667 -61.999 90.333 -61.999 155c0 61.333 20.333 113.666 61 156.999c48.667 50.667 110.334 76 185.001 76c52 0 100.667 -14.667 146 -44l5 -3v-5l1 -132v-19l-16 11
c-10 6.66699 -20 12.334 -30 17.001s-20.333 8.66699 -31 12c-10 3.33301 -20 6 -30 8c-10.667 1.33301 -21 2 -31 2c-20 0 -37.333 -2.66699 -52 -8c-15.333 -5.33301 -28 -13 -38 -23c-2.66699 -2.66699 -5.16699 -5.66699 -7.5 -9l-6.5 -9
c-2 -3.33301 -3.66699 -6.66602 -5 -9.99902c-1.33301 -4 -2.33301 -7.66699 -3 -11s-1.33398 -7 -2.00098 -11s-1 -8 -1 -12c0.666992 -17.333 8 -33 22 -47c14.667 -14 36.667 -26.667 66 -38c7.33301 -2.66699 13.666 -3.33398 18.999 -2.00098l140 27l12 3v-12v-126v-8
l-8 -2l-406 -98l-13 -3v13v123v8l8 2z" />
    <glyph glyph-name="uniFEF9" unicode="&#xfedf;&#xfe88;" horiz-adv-x="1219" arabic-form="isolated" 
d="M147 -497c-41.333 38.667 -61.999 90.333 -61.999 155c0 61.333 20.333 113.666 61 156.999c48.667 50.667 110.334 76 185.001 76c52 0 100.667 -14.667 146 -44l5 -3v-5l1 -132v-19l-16 11c-10 6.66699 -20 12.334 -30 17.001s-20.333 8.66699 -31 12
c-10 3.33301 -20 6 -30 8c-10.667 1.33301 -21 2 -31 2c-20 0 -37.333 -2.66699 -52 -8c-15.333 -5.33301 -28 -13 -38 -23c-2.66699 -2.66699 -5.16699 -5.66699 -7.5 -9l-6.5 -9c-2 -3.33301 -3.66699 -6.66602 -5 -9.99902c-1.33301 -4 -2.33301 -7.66699 -3 -11
s-1.33398 -7 -2.00098 -11s-1 -8 -1 -12c0.666992 -17.333 8 -33 22 -47c14.667 -14 36.667 -26.667 66 -38c7.33301 -2.66699 13.666 -3.33398 18.999 -2.00098l140 27l12 3v-12v-126v-8l-8 -2l-406 -98l-13 -3v13v123v8l8 2zM279.001 1366
c194.667 -471.333 327.334 -836.999 398.001 -1097c130.667 51.333 196 181.666 196 390.999v758v20h20h173h20v-20v-759c0 -216.667 -58 -380.334 -174 -491.001c-116 -110 -288 -165 -516 -165c-93.333 0 -169 5.33301 -227 16l-16 3v17v181v23l23 -3
c103.333 -13.333 202.666 -17.666 297.999 -12.999c-68.667 234 -201 577 -397 1029l-7 16l15 9l165 94l20 12z" />
    <glyph glyph-name="uniFEFA" unicode="&#xfee0;&#xfe88;" horiz-adv-x="1293" arabic-form="final" 
d="M147 -497c-41.333 38.667 -61.999 90.333 -61.999 155c0 61.333 20.333 113.666 61 156.999c48.667 50.667 110.334 76 185.001 76c52 0 100.667 -14.667 146 -44l5 -3v-5l1 -132v-19l-16 11c-10 6.66699 -20 12.334 -30 17.001s-20.333 8.66699 -31 12
c-10 3.33301 -20 6 -30 8c-10.667 1.33301 -21 2 -31 2c-20 0 -37.333 -2.66699 -52 -8c-15.333 -5.33301 -28 -13 -38 -23c-2.66699 -2.66699 -5.16699 -5.66699 -7.5 -9l-6.5 -9c-2 -3.33301 -3.66699 -6.66602 -5 -9.99902c-1.33301 -4 -2.33301 -7.66699 -3 -11
s-1.33398 -7 -2.00098 -11s-1 -8 -1 -12c0.666992 -17.333 8 -33 22 -47c14.667 -14 36.667 -26.667 66 -38c7.33301 -2.66699 13.666 -3.33398 18.999 -2.00098l140 27l12 3v-12v-126v-8l-8 -2l-406 -98l-13 -3v13v123v8l8 2zM677.001 268.999
c130.667 51.333 195.998 181.667 195.998 391v758v20h20h173h20v-20v-849c0 -80 7.5 -145.667 22.5 -197s36.5 -89 64.5 -113c27.333 -23.333 62 -35 104 -35h25c6.66699 0 12.334 -1.33301 17.001 -4s8.66699 -6.66699 12 -12c2.66699 -6 4.66699 -11.333 6 -16
c2 -4.66699 3.33301 -11.667 4 -21s1 -16.5 1 -21.5v-22.5v-19v-6c0 -16 -0.166992 -28.333 -0.5 -37s-1.83301 -19 -4.5 -31c-2 -12 -6 -20.667 -12 -26s-13.667 -8 -23 -8h-39c-78 0 -143.667 17.333 -197 52s-92.666 85.667 -117.999 153
c-114.667 -134.667 -298.667 -202 -552 -202c-93.333 0 -169 5.33301 -227 16l-16 3v17v181v23l23 -3c101.333 -13.333 200.666 -17.666 297.999 -12.999c-70.667 237.333 -203 580.333 -397 1029l-7 16l15 9l165 94l20 12l9 -21
c194.667 -470.667 327.334 -836.334 398.001 -1097z" />
    <glyph glyph-name="uniFEFB" unicode="&#xfedf;&#xfe8e;" horiz-adv-x="1219" arabic-form="isolated" 
d="M279 1366c194.667 -471.333 327.334 -836.999 398.001 -1097c130.667 51.333 196 181.666 196 390.999v758v20h20h173h20v-20v-759c0 -216.667 -58 -380.334 -174 -491.001c-116 -110 -288 -165 -516 -165c-93.333 0 -169 5.33301 -227 16l-16 3v17v181v23l23 -3
c103.333 -13.333 202.666 -17.666 297.999 -12.999c-68.667 234 -201 577 -397 1029l-7 16l15 9l165 94l20 12z" />
    <glyph glyph-name="uniFEFC" unicode="&#xfee0;&#xfe8e;" horiz-adv-x="1293" arabic-form="final" 
d="M677 269c130.667 51.333 195.998 181.667 195.998 391v758v20h20h173h20v-20v-849c0 -80 7.5 -145.667 22.5 -197s36.5 -89 64.5 -113c27.333 -23.333 62 -35 104 -35h25c6.66699 0 12.334 -1.33301 17.001 -4s8.66699 -6.66699 12 -12c2.66699 -6 4.66699 -11.333 6 -16
c2 -4.66699 3.33301 -11.667 4 -21s1 -16.5 1 -21.5v-22.5v-19v-6c0 -16 -0.166992 -28.333 -0.5 -37s-1.83301 -19 -4.5 -31c-2 -12 -6 -20.667 -12 -26s-13.667 -8 -23 -8h-39c-78 -0 -143.667 17.333 -197 52s-92.666 85.667 -117.999 153
c-114.667 -134.667 -298.667 -202 -552 -202c-93.333 0 -169 5.33301 -227 16l-16 3v17v181v23l23 -3c101.333 -13.333 200.666 -17.666 297.999 -12.999c-70.667 237.333 -203 580.333 -397 1029l-7 16l15 9l165 94l20 12l9 -21
c194.667 -470.667 327.334 -836.334 398.001 -1097z" />
    <glyph glyph-name="uni0651064B" unicode="&#x64b;&#x651;" 
d="M324 1258v104v7l6 2l455 187l14 5v-15v-103v-7l-6 -3l-456 -186l-13 -5v14zM324 1470v104v7l6 2l455 187l14 5v-15v-103v-7l-6 -3l-456 -186l-13 -5v14zM625 1228c0.666992 -14 1.16992 -27.8301 1.50293 -41.4971s0.833008 -27.5 1.5 -41.5
c-0.666992 -29.333 3.66602 -50.333 12.999 -63s23.666 -19 42.999 -19c20 0 35 7.33301 45 22s15.333 37.667 16 69c0 3.33301 -0.166992 6.66602 -0.5 9.99902s-0.666016 7 -0.999023 11l-1 12.5c-0.333008 4.33301 -0.833008 9 -1.5 14s-1.5 10 -2.5 15s-2 10.333 -3 16
s-2.16699 11.667 -3.5 18l-4 19.5l-2 10l11 2l88 14l8 1l3 -8c12 -42.667 18 -84.334 18 -125.001c0 -69.333 -13.167 -122.166 -39.5 -158.499s-65.5 -54.5 -117.5 -54.5c-39.333 -0.666992 -73.333 13.666 -102 42.999c-24.667 -71.333 -76.667 -107 -156 -107
c-48 0 -84.333 15.167 -109 45.5s-37.667 74.5 -39 132.5c-0.666992 40.667 3.66602 78 12.999 112l3 9l9 -1l78 -13l10 -2l-2 -10c-6.66699 -30.667 -9.66699 -57.667 -9 -81c0 -26 4.66699 -44.833 14 -56.5s24 -17.5 44 -17.5c24 0 42.333 8.16699 55 24.5
s19.667 42.833 21 79.5c1.33301 33.333 1.66602 72.666 0.999023 117.999v10h10h77h10v-9z" />
    <glyph glyph-name="uni0651064C" unicode="&#x64c;&#x651;" 
d="M589 1783c-2.66699 -3.33301 -5.16797 -6.83301 -7.50098 -10.5s-4.16602 -7.5 -5.49902 -11.5s-2.33301 -8 -3 -12s-1 -8.33301 -1 -13c0 -16.667 4.83301 -31.167 14.5 -43.5s24.5 -22.833 44.5 -31.5c4 -1.33301 8.16699 -2.83301 12.5 -4.5l14.5 -5.5
c5.33301 -2 11.333 -4 18 -6l21 -6c14.667 26.667 22 54 22 82c0 30.667 -5.66699 53 -17 67s-29.333 20.667 -54 20c-6 0 -11.833 -0.5 -17.5 -1.5s-11 -2.5 -16 -4.5s-9.5 -4.66699 -13.5 -8s-8 -7 -12 -11zM322.999 1587c1.33301 -74 12.3311 -128.499 32.998 -163.499
s50.667 -52.5 90 -52.5c45.333 0.666992 92.666 24.667 141.999 72c26 26.667 51.333 62.667 76 108l-17 4c-22.667 4.66699 -43 10.5 -61 17.5s-33.833 15.167 -47.5 24.5s-25.167 19.666 -34.5 30.999c-11.333 15.333 -19.833 31.166 -25.5 47.499s-8.5 33.5 -8.5 51.5
c0 35.333 6 65 18 89c31.333 60.667 83.333 91 156 91c50.667 0.666992 91.334 -14 122.001 -44c11.333 -10.667 20.833 -23.167 28.5 -37.5s13.334 -30 17.001 -47s5.5 -35.833 5.5 -56.5c0.666992 -24.667 -5.33301 -58 -18 -100h17c19.333 -1.33301 39 -2 59 -2l9 -1v-9
v-79v-10h-10c-26.667 0.666992 -43.667 1.33398 -51 2.00098l-69 7c-31.333 -73.333 -75.666 -134.666 -132.999 -183.999c-55.333 -48.667 -113 -73 -173 -73c-130.667 -0.666992 -197.667 103.666 -201 312.999v10h10h56h10v-9zM641.997 1222
c0.666992 -14 1.16992 -27.8301 1.50293 -41.4971s0.833008 -27.5 1.5 -41.5c-0.666992 -29.333 3.66602 -50.333 12.999 -63s23.666 -19 42.999 -19c20 0 35 7.33301 45 22s15.333 37.667 16 69c0 3.33301 -0.166992 6.66602 -0.5 9.99902s-0.666016 7 -0.999023 11
l-1 12.5c-0.333008 4.33301 -0.833008 9 -1.5 14s-1.5 10 -2.5 15s-2 10.333 -3 16s-2.16699 11.667 -3.5 18l-4 19.5l-2 10l11 2l88 14l8 1l3 -8c12 -42.667 18 -84.334 18 -125.001c0 -69.333 -13.167 -122.166 -39.5 -158.499s-65.5 -54.5 -117.5 -54.5
c-39.333 -0.666992 -73.333 13.666 -102 42.999c-24.667 -71.333 -76.667 -107 -156 -107c-48 0 -84.333 15.167 -109 45.5s-37.667 74.5 -39 132.5c-0.666992 40.667 3.66602 78 12.999 112l3 9l9 -1l78 -13l10 -2l-2 -10c-6.66699 -30.667 -9.66699 -57.667 -9 -81
c0 -26 4.66699 -44.833 14 -56.5s24 -17.5 44 -17.5c24 0 42.333 8.16699 55 24.5s19.667 42.833 21 79.5c1.33301 33.333 1.66602 72.666 0.999023 117.999v10h10h77h10v-9z" />
    <glyph glyph-name="uni064B0651" unicode="&#x64d;&#x651;" 
d="M523 1754c0.666992 -14 1.16992 -27.8301 1.50293 -41.4971s0.833008 -27.5 1.5 -41.5c-0.666992 -29.333 3.66602 -50.333 12.999 -63s23.666 -19 42.999 -19c20 0 35 7.33301 45 22s15.333 37.667 16 69c0 3.33301 -0.166992 6.66602 -0.5 9.99902
s-0.666016 7 -0.999023 11l-1 12.5c-0.333008 4.33301 -0.833008 9 -1.5 14s-1.5 10 -2.5 15s-2 10.333 -3 16s-2.16699 11.667 -3.5 18l-4 19.5l-2 10l11 2l88 14l8 1l3 -8c12 -42.667 18 -84.334 18 -125.001c0 -69.333 -13.167 -122.166 -39.5 -158.499
s-65.5 -54.5 -117.5 -54.5c-39.333 -0.666992 -73.333 13.666 -102 42.999c-24.667 -71.333 -76.667 -107 -156 -107c-48 0 -84.333 15.167 -109 45.5s-37.667 74.5 -39 132.5c-0.666992 40.667 3.66602 78 12.999 112l3 9l9 -1l78 -13l10 -2l-2 -10
c-6.66699 -30.667 -9.66699 -57.667 -9 -81c0 -26 4.66699 -44.833 14 -56.5s24 -17.5 44 -17.5c24 0 42.333 8.16699 55 24.5s19.667 42.833 21 79.5c1.33301 33.333 1.66602 72.666 0.999023 117.999v10h10h77h10v-9zM273.003 869.003v104v7l6 2l455 187l14 5v-15v-103v-7
l-6 -3l-456 -186l-13 -5v14zM273.003 1081v104v7l6 2l455 187l14 5v-15v-103v-7l-6 -3l-456 -186l-13 -5v14z" />
    <glyph glyph-name="uni0651064E" unicode="&#x64e;&#x651;" 
d="M308 1457v104v6l6 3l456 186l14 6v-15v-104v-6l-7 -3l-455 -186l-14 -6v15zM630 1436c0.666992 -14 1.16992 -27.8301 1.50293 -41.4971s0.833008 -27.5 1.5 -41.5c-0.666992 -29.333 3.66602 -50.333 12.999 -63s23.666 -19 42.999 -19c20 0 35 7.33301 45 22
s15.333 37.667 16 69c0 3.33301 -0.166992 6.66602 -0.5 9.99902s-0.666016 7 -0.999023 11l-1 12.5c-0.333008 4.33301 -0.833008 9 -1.5 14s-1.5 10 -2.5 15s-2 10.333 -3 16s-2.16699 11.667 -3.5 18l-4 19.5l-2 10l11 2l88 14l8 1l3 -8
c12 -42.667 18 -84.334 18 -125.001c0 -69.333 -13.167 -122.166 -39.5 -158.499s-65.5 -54.5 -117.5 -54.5c-39.333 -0.666992 -73.333 13.666 -102 42.999c-24.667 -71.333 -76.667 -107 -156 -107c-48 0 -84.333 15.167 -109 45.5s-37.667 74.5 -39 132.5
c-0.666992 40.667 3.66602 78 12.999 112l3 9l9 -1l78 -13l10 -2l-2 -10c-6.66699 -30.667 -9.66699 -57.667 -9 -81c0 -26 4.66699 -44.833 14 -56.5s24 -17.5 44 -17.5c24 0 42.333 8.16699 55 24.5s19.667 42.833 21 79.5
c1.33301 33.333 1.66602 72.666 0.999023 117.999v10h10h77h10v-9z" />
    <glyph glyph-name="uni0651064F" unicode="&#x64f;&#x651;" 
d="M809 1441c-40.667 0 -73.999 1.66406 -99.999 4.99707l-26 3c-85.333 -118 -208 -181 -368 -189l-10 -1v11v78v10h9c115.333 4.66699 202.333 44.667 261 120c-25.333 6.66699 -51 17.334 -77 32.001c-61.333 34 -92 81.667 -92 143c0.666992 22 4.16699 42.5 10.5 61.5
s15.5 36.167 27.5 51.5c32.667 39.333 77.667 59 135 59c14 0 27.667 -1.33301 41 -4s25.833 -7 37.5 -13s22.834 -13 33.501 -21c7.33301 -6 14.166 -12.667 20.499 -20s12 -15.166 17 -23.499s9.16699 -16.833 12.5 -25.5c7.33301 -20 11 -42 11 -66
c-0.666992 -12 -1.83398 -24.167 -3.50098 -36.5s-4 -24.666 -7 -36.999s-6.83301 -24.5 -11.5 -36.5l6 -1c13.333 -0.666992 26 -1.16699 38 -1.5s23.333 -0.5 34 -0.5l11 1v-11v-78v-10h-10zM630.001 1559l2.99902 5.99902c13.333 30.667 20 59.334 20 86.001
c0 24 -7 42 -21 54c-3.33301 2.66699 -6.5 5 -9.5 7s-6.16699 3.83301 -9.5 5.5s-6.66602 3 -9.99902 4s-6.66602 1.66699 -9.99902 2s-6.66602 0.5 -9.99902 0.5c-26.667 0.666992 -47.334 -8.33301 -62.001 -27c-10 -13.333 -15 -29.333 -15 -48c0 -27.333 20 -50 60 -68
c13.333 -6.66699 34.666 -14 63.999 -22zM627 1229c0.666992 -14 1.16992 -27.8301 1.50293 -41.4971s0.833008 -27.5 1.5 -41.5c-0.666992 -29.333 3.66602 -50.333 12.999 -63s23.666 -19 42.999 -19c20 0 35 7.33301 45 22s15.333 37.667 16 69
c0 3.33301 -0.166992 6.66602 -0.5 9.99902s-0.666016 7 -0.999023 11l-1 12.5c-0.333008 4.33301 -0.833008 9 -1.5 14s-1.5 10 -2.5 15s-2 10.333 -3 16s-2.16699 11.667 -3.5 18l-4 19.5l-2 10l11 2l88 14l8 1l3 -8c12 -42.667 18 -84.334 18 -125.001
c0 -69.333 -13.167 -122.166 -39.5 -158.499s-65.5 -54.5 -117.5 -54.5c-39.333 -0.666992 -73.333 13.666 -102 42.999c-24.667 -71.333 -76.667 -107 -156 -107c-48 0 -84.333 15.167 -109 45.5s-37.667 74.5 -39 132.5c-0.666992 40.667 3.66602 78 12.999 112l3 9l9 -1
l78 -13l10 -2l-2 -10c-6.66699 -30.667 -9.66699 -57.667 -9 -81c0 -26 4.66699 -44.833 14 -56.5s24 -17.5 44 -17.5c24 0 42.333 8.16699 55 24.5s19.667 42.833 21 79.5c1.33301 33.333 1.66602 72.666 0.999023 117.999v10h10h77h10v-9z" />
    <glyph glyph-name="uni064E0651" unicode="&#x650;&#x651;" 
d="M615 1641c0.666992 -14 1.16992 -27.8301 1.50293 -41.4971s0.833008 -27.5 1.5 -41.5c-0.666992 -29.333 3.66602 -50.333 12.999 -63s23.666 -19 42.999 -19c20 0 35 7.33301 45 22s15.333 37.667 16 69c0 3.33301 -0.166992 6.66602 -0.5 9.99902
s-0.666016 7 -0.999023 11l-1 12.5c-0.333008 4.33301 -0.833008 9 -1.5 14s-1.5 10 -2.5 15s-2 10.333 -3 16s-2.16699 11.667 -3.5 18l-4 19.5l-2 10l11 2l88 14l8 1l3 -8c12 -42.667 18 -84.334 18 -125.001c0 -69.333 -13.167 -122.166 -39.5 -158.499
s-65.5 -54.5 -117.5 -54.5c-39.333 -0.666992 -73.333 13.666 -102 42.999c-24.667 -71.333 -76.667 -107 -156 -107c-48 0 -84.333 15.167 -109 45.5s-37.667 74.5 -39 132.5c-0.666992 40.667 3.66602 78 12.999 112l3 9l9 -1l78 -13l10 -2l-2 -10
c-6.66699 -30.667 -9.66699 -57.667 -9 -81c0 -26 4.66699 -44.833 14 -56.5s24 -17.5 44 -17.5c24 0 42.333 8.16699 55 24.5s19.667 42.833 21 79.5c1.33301 33.333 1.66602 72.666 0.999023 117.999v10h10h77h10v-9zM344.003 999.003v104v6l6 3l456 186l14 6v-15v-104v-6
l-7 -3l-455 -186l-14 -6v15z" />
    <glyph glyph-name="uni0654064E" unicode="&#x64e;&#x654;" 
d="M314 1725v104v6l6 3l456 186l14 6v-15v-104v-6l-7 -3l-455 -186l-14 -6v15zM428 1325c-41.333 38.667 -61.999 90.333 -61.999 155c0 61.333 20.333 113.666 61 156.999c48.667 50.667 110.334 76 185.001 76c52 0 100.667 -14.667 146 -44l5 -3v-5l1 -132v-19l-16 11
c-10 6.66699 -20 12.334 -30 17.001s-20.333 8.66699 -31 12c-10 3.33301 -20 6 -30 8c-10.667 1.33301 -21 2 -31 2c-20 0 -37.333 -2.66699 -52 -8c-15.333 -5.33301 -28 -13 -38 -23c-2.66699 -2.66699 -5.16699 -5.66699 -7.5 -9l-6.5 -9
c-2 -3.33301 -3.66699 -6.66602 -5 -9.99902c-1.33301 -4 -2.33301 -7.66699 -3 -11s-1.33398 -7 -2.00098 -11s-1 -8 -1 -12c0.666992 -17.333 8 -33 22 -47c14.667 -14 36.667 -26.667 66 -38c7.33301 -2.66699 13.666 -3.33398 18.999 -2.00098l140 27l12 3v-12v-126v-8
l-8 -2l-406 -98l-13 -3v13v123v8l8 2z" />
    <glyph glyph-name="uni0654064F" unicode="&#x64f;&#x654;" 
d="M787 1665c-40.667 0 -73.999 1.66406 -99.999 4.99707l-26 3c-85.333 -118 -208 -181 -368 -189l-10 -1v11v78v10h9c115.333 4.66699 202.333 44.667 261 120c-25.333 6.66699 -51 17.334 -77 32.001c-61.333 34 -92 81.667 -92 143c0.666992 22 4.16699 42.5 10.5 61.5
s15.5 36.167 27.5 51.5c32.667 39.333 77.667 59 135 59c14 0 27.667 -1.33301 41 -4s25.833 -7 37.5 -13s22.834 -13 33.501 -21c7.33301 -6 14.166 -12.667 20.499 -20s12 -15.166 17 -23.499s9.16699 -16.833 12.5 -25.5c7.33301 -20 11 -42 11 -66
c-0.666992 -12 -1.83398 -24.167 -3.50098 -36.5s-4 -24.666 -7 -36.999s-6.83301 -24.5 -11.5 -36.5l6 -1c13.333 -0.666992 26 -1.16699 38 -1.5s23.333 -0.5 34 -0.5l11 1v-11v-78v-10h-10zM608.001 1783l2.99902 5.99902c13.333 30.667 20 59.334 20 86.001
c0 24 -7 42 -21 54c-3.33301 2.66699 -6.5 5 -9.5 7s-6.16699 3.83301 -9.5 5.5s-6.66602 3 -9.99902 4s-6.66602 1.66699 -9.99902 2s-6.66602 0.5 -9.99902 0.5c-26.667 0.666992 -47.334 -8.33301 -62.001 -27c-10 -13.333 -15 -29.333 -15 -48c0 -27.333 20 -50 60 -68
c13.333 -6.66699 34.666 -14 63.999 -22zM421 1107c-41.333 38.667 -61.999 90.333 -61.999 155c0 61.333 20.333 113.666 61 156.999c48.667 50.667 110.334 76 185.001 76c52 0 100.667 -14.667 146 -44l5 -3v-5l1 -132v-19l-16 11c-10 6.66699 -20 12.334 -30 17.001
s-20.333 8.66699 -31 12c-10 3.33301 -20 6 -30 8c-10.667 1.33301 -21 2 -31 2c-20 0 -37.333 -2.66699 -52 -8c-15.333 -5.33301 -28 -13 -38 -23c-2.66699 -2.66699 -5.16699 -5.66699 -7.5 -9l-6.5 -9c-2 -3.33301 -3.66699 -6.66602 -5 -9.99902
c-1.33301 -4 -2.33301 -7.66699 -3 -11s-1.33398 -7 -2.00098 -11s-1 -8 -1 -12c0.666992 -17.333 8 -33 22 -47c14.667 -14 36.667 -26.667 66 -38c7.33301 -2.66699 13.666 -3.33398 18.999 -2.00098l140 27l12 3v-12v-126v-8l-8 -2l-406 -98l-13 -3v13v123v8l8 2z" />
    <glyph glyph-name="uni066E.fina" unicode="&#x66e;" horiz-adv-x="1931" 
d="M890 0c-266.667 0 -468.501 41.999 -605.501 125.999s-205.5 210.667 -205.5 380c0 92.667 18.667 181 56 265l9 18l18 -8l157 -68l18 -8l-7 -18c-21.333 -54 -32 -105.333 -32 -154c0 -206 195.667 -309 587 -309c85.333 0 163.166 2.83301 233.499 8.5
s131.5 13.834 183.5 24.501s95.667 23.5 131 38.5s62 32.5 80 52.5c9.33301 9.33301 16.5 23 21.5 41s7.5 40.333 7.5 67v21c0 6.66699 -0.166992 12.834 -0.5 18.501s-0.5 10.834 -0.5 15.501l-6 82l-1 19l19 2l164 20l21 2l2 -21l16 -215c4 -52 19 -95 45 -129
c25.333 -31.333 67 -47 125 -47h13c6.66699 0 12.334 -1.33301 17.001 -4s8.5 -6.83398 11.5 -12.501s5.33301 -10.834 7 -15.501s2.83398 -11.667 3.50098 -21s1 -16.5 1 -21.5v-22.5v-19v-6c0 -16 -0.166992 -28.333 -0.5 -37s-1.66602 -19 -3.99902 -31
s-6.5 -20.667 -12.5 -26s-13.667 -8 -23 -8h-13c-138.667 0 -240.334 54.667 -305.001 164c-122.667 -109.333 -365 -164 -727 -164h-4z" />
    <glyph glyph-name="uni066F.fina" unicode="&#x66f;" horiz-adv-x="1526" 
d="M738 -307c100.667 0 185.664 11.6699 254.997 35.0029s123 57.666 161 102.999s61.667 102 71 170h-126c-126 0 -221.833 26.833 -287.5 80.5s-98.5 132.834 -98.5 237.501c0 84 17.667 163.333 53 238c33.333 68.667 75.333 120.5 126 155.5s109.667 52.5 177 52.5
c106 0 189.5 -46 250.5 -138s99.833 -226.333 116.5 -403h98c6.66699 0 12.334 -1.33301 17.001 -4s8.5 -6.83398 11.5 -12.501s5.33301 -10.834 7 -15.501s2.83398 -11.667 3.50098 -21s1 -16.5 1 -21.5v-22.5v-19v-6c0 -16 -0.166992 -28.333 -0.5 -37
s-1.66602 -19 -3.99902 -31s-6.5 -20.667 -12.5 -26s-13.667 -8 -23 -8l-100 1c-22.667 -174 -92.5 -304.833 -209.5 -392.5s-278.833 -131.834 -485.5 -132.501c-28.667 0 -56.167 0.833008 -82.5 2.5s-51.833 4.16699 -76.5 7.5s-48.334 7.66602 -71.001 12.999
s-44.667 11.333 -66 18s-41.666 14.334 -60.999 23.001c-99.333 44 -174 111 -224 201c-49.333 88.667 -74.333 198 -75 328c-0.666992 156 33.333 307.667 102 455l8 17l17 -7l159 -65l18 -8l-7 -18c-28 -70.667 -48.667 -136 -62 -196
c-13.333 -60.667 -20 -117.334 -20 -170.001c1.33301 -129.333 38 -225.666 110 -288.999s182 -95 330 -95zM1229 225.003c-16.667 206.667 -74 310.334 -172 311.001c-54 0.666992 -93.333 -35 -118 -107c-5.33301 -16.667 -9.5 -32.834 -12.5 -48.501
s-4.5 -31.167 -4.5 -46.5c0 -36.667 13 -64 39 -82s68.667 -27 128 -27h140z" />
    <glyph glyph-name="uni06A1.init" unicode="&#x6a1;" horiz-adv-x="914" 
d="M446 372c-112.667 0 -198.669 24.498 -258.002 73.498s-89.666 121.5 -90.999 217.5c0 30 2.66699 59 8 87c20.667 109.333 60.334 194 119.001 254c60 61.333 134 92 222 92c60 0 112.667 -14.667 158 -44c116.667 -75.333 187 -219.666 211 -432.999
c4.66699 -44 7 -85.667 7 -125c0 -96.667 -11.833 -178.5 -35.5 -245.5s-59.5 -118.5 -107.5 -154.5c-83.333 -62.667 -228 -94 -434 -94h-252c-26 0 -45.5 9.83301 -58.5 29.5s-19.5 45.834 -19.5 78.501v19c0 29.333 6.66699 52.833 20 70.5s32.666 26.5 57.999 26.5h263
c235.333 0 358.333 56.667 369 170c-19.333 -5.33301 -38.666 -9.5 -57.999 -12.5s-39 -5.33301 -59 -7s-40.667 -2.5 -62 -2.5zM301.998 689.998c0 -35.333 12.332 -61.6689 36.999 -79.002s64.667 -25.666 120 -24.999c48.667 0 98 6.66699 148 20
c-9.33301 68.667 -25 126.334 -47 173.001c-29.333 64.667 -69.666 97 -120.999 97c-59.333 0 -101.333 -40 -126 -120c-7.33301 -23.333 -11 -45.333 -11 -66z" />
    <glyph glyph-name="uni06A1.medi" unicode="&#x6a1;" horiz-adv-x="1052" 
d="M465 647c-36 -35.333 -53.999 -69.665 -53.999 -102.998c0 -36 19.667 -76.667 59 -122c22.667 -26 42.5 -45.5 59.5 -58.5s29.5 -19.5 37.5 -19.5c3.33301 0 7.83301 1.5 13.5 4.5s12.5 7.5 20.5 13.5s17.5 14.167 28.5 24.5s22.5 22.166 34.5 35.499
c39.333 45.333 59 85.666 59 120.999c0 4 -0.333008 8 -1 12s-1.5 8.16699 -2.5 12.5s-2.33301 8.5 -4 12.5s-3.5 8.16699 -5.5 12.5s-4.33301 8.66602 -7 12.999s-5.66699 8.66602 -9 12.999l-10.5 13.5c-3.66699 4.66699 -7.83398 9.33398 -12.501 14.001
s-9.66699 9.33398 -15 14.001l-16 14c-30.667 24.667 -57 37 -79 37c-6 0 -13.333 -2 -22 -6s-19.5 -11 -32.5 -21s-26.833 -22.333 -41.5 -37zM563.001 125.001c-120.667 -83.333 -297.001 -124.998 -529.001 -124.998h-41c-26 0 -45.5 9.83301 -58.5 29.5
s-19.5 45.834 -19.5 78.501v19c0 29.333 6.66699 52.833 20 70.5s32.666 26.5 57.999 26.5h41c140 0.666992 240.333 8 301 22c-92.667 88 -139 191 -139 309c0 123.333 68.667 232.666 206 327.999c50.667 35.333 105.667 53 165 53c58 0 108.333 -13 151 -39
c147.333 -89.333 221 -207.333 221 -354c0 -111.333 -46.667 -210.333 -140 -297c57.333 -14.667 133.666 -22 228.999 -22h32c6.66699 0 12.5 -1.33301 17.5 -4s8.83301 -6.83398 11.5 -12.501s4.83398 -10.834 6.50098 -15.501s2.83398 -11.667 3.50098 -21
s1 -16.5 1 -21.5v-22.5v-19v-7c0 -16 -0.166992 -28.167 -0.5 -36.5s-1.66602 -18.5 -3.99902 -30.5s-6.33301 -20.667 -12 -26s-13.5 -8 -23.5 -8h-30c-194 0 -349.667 41.667 -467 125z" />
    <glyph glyph-name="uni06A1.fina" unicode="&#x6a1;" horiz-adv-x="2025" 
d="M1438 647c-36 -35.333 -53.998 -69.666 -53.998 -102.999c0 -11.333 2 -23.333 6 -36s10.5 -26.167 19.5 -40.5s20.167 -29.5 33.5 -45.5c15.333 -18 29.833 -33 43.5 -45s24.667 -20.5 33 -25.5s15.166 -7.5 20.499 -7.5c3.33301 0 7.83301 1.5 13.5 4.5
s12.5 7.5 20.5 13.5s17.5 14.167 28.5 24.5s22.5 22.166 34.5 35.499c39.333 45.333 58.666 85.666 57.999 120.999c0.666992 20.667 -5.83301 41.834 -19.5 63.501s-34.5 44.167 -62.5 67.5c-30.667 24.667 -57 37 -79 37c-21.333 0 -53.333 -21.333 -96 -64zM1535 125
c-129.333 -83.333 -343.002 -124.994 -641.002 -124.994h-34c-256.667 0 -451 42.167 -583 126.5s-198 210.833 -198 379.5c0 92.667 18.667 181 56 265l9 18l18 -8l157 -68l18 -8l-7 -18c-21.333 -54 -32 -105.333 -32 -154c0 -206 191 -309 573 -309
c207.333 0 352.333 8 435 24c-91.333 87.333 -137 189.666 -137 306.999c0 123.333 68.667 232.666 206 327.999c50.667 35.333 105.667 53 165 53c14 0 27.833 -0.833008 41.5 -2.5s26.834 -4.16699 39.501 -7.5s24.834 -7.33301 36.501 -12s22.834 -10.334 33.501 -17.001
c147.333 -89.333 221 -207.333 221 -354c0 -56 -11.833 -108.833 -35.5 -158.5s-58.5 -95.834 -104.5 -138.501c57.333 -14.667 133.666 -22 228.999 -22h32c6.66699 0 12.5 -1.33301 17.5 -4s8.83301 -6.83398 11.5 -12.501s4.83398 -10.834 6.5 -15.501
c1.66699 -4.66699 2.83398 -11.667 3.5 -21c0.666992 -9.33301 1 -16.5 1 -21.5v-22.5v-19v-7c0 -16 -0.166992 -28.167 -0.5 -36.5s-1.66602 -18.5 -4 -30.5c-2.33301 -12 -6.33301 -20.667 -12 -26s-13.5 -8 -23.5 -8h-30c-96.667 -0 -184 10.333 -262 31
s-146.667 52 -206 94z" />
    <glyph glyph-name="uni06CA.fina" unicode="&#x6ca;" horiz-adv-x="893" 
d="M419 1043l136 136l7 7l7 -7l137 -137l7 -7l-7 -7l-136 -136l-7 -7l-7 7l-137 137l-7 7zM115 1043l136 136l7 7l7 -7l137 -137l7 -7l-7 -7l-136 -136l-7 -7l-7 7l-137 137l-7 7zM609 224c-16.667 206.667 -74.001 310.334 -172.001 311.001
c-53.333 0.666992 -92.666 -35 -117.999 -107c-11.333 -32.667 -17 -64.334 -17 -95.001c0 -36.667 13.167 -64 39.5 -82s68.833 -27 127.5 -27h140zM815.999 223l84.9971 -0.000976562c24.667 0 38 -24 40 -72v-33v-10v-6c0 -16 -0.166992 -28.333 -0.5 -37
s-1.66602 -19 -3.99902 -31s-6.5 -20.667 -12.5 -26s-13.667 -8 -23 -8l-96 1c-57.333 -287.333 -287 -451 -689 -491l-17 -2l-4 17l-43 171l-5 23l23 2c291.333 32 467 125 527 279h-118c-126 0 -221.833 26.833 -287.5 80.5s-98.5 132.834 -98.5 237.501
c0 84 18 163.333 54 238c66 138.667 166.667 208 302 208c106.667 0 190.334 -46 251.001 -138s99.334 -226.333 116.001 -403z" />
    <glyph glyph-name="uni06D5.fina" unicode="&#x6d5;" horiz-adv-x="1063" 
d="M91 426c0 202.667 172.001 358.334 516.001 467.001l-5 28l-4 20l19 4l163 33l20 4l3 -21l83 -591c4.66699 -33.333 13.667 -60.833 27 -82.5s31.5 -37.667 54.5 -48s51.167 -15.5 84.5 -15.5h20c9.33301 0 17 -2.66699 23 -8s10 -13.333 12 -24
s3.33301 -19.834 4 -27.501s1 -18.5 1 -32.5v-24v-5c0 -16 -0.333008 -28.333 -1 -37s-2 -19 -4 -31s-6 -20.833 -12 -26.5s-13.667 -8.5 -23 -8.5h-24c-180 -0 -291.667 70.333 -335 211c-38.667 -29.333 -79.334 -51.5 -122.001 -66.5s-87.667 -22.5 -135 -22.5
c-156 0 -265.333 51.667 -328 155c-24.667 41.333 -37 91 -37 149zM638.001 687c-110.667 -42 -193.167 -84.1699 -247.5 -126.503s-81.5 -83.166 -81.5 -122.499c0 -17.333 2.5 -32.166 7.5 -44.499s13.167 -22.833 24.5 -31.5s26 -15.167 44 -19.5s39.333 -6.5 64 -6.5
c48 0 96 14.667 144 44c56.667 34.667 79 91.334 67 170.001l-21 133z" />
    <glyph glyph-name="uniFB56" unicode="&#x67e;" horiz-adv-x="1837" arabic-form="isolated" 
d="M891 0c-266.667 0 -468.501 42.002 -605.501 126.002s-205.5 210.667 -205.5 380c0 92.667 18.667 181 56 265l9 18l18 -8l157 -68l18 -8l-7 -18c-21.333 -53.333 -32 -104 -32 -152c0 -102.667 46.833 -180.167 140.5 -232.5s237.834 -78.5 432.501 -78.5
c329.333 0 536 30.667 620 92c37.333 27.333 56 77 56 149c0 58.667 -12 139 -36 241l-4 19l19 5l163 41l18 5l6 -18c34 -102.667 51 -195.334 51 -278.001c0 -164.667 -49 -281.334 -147 -350.001c-124 -86.667 -365.333 -130 -724 -130h-3zM778.112 -561.881
l143.373 142.303l7.49023 7.48926l7.48926 -7.48926l142.303 -141.233l7.48926 -8.55957l-7.48926 -7.48926l-143.373 -142.303l-7.48926 -7.49023l-7.48926 7.49023l-142.304 142.303l-7.48926 7.48926zM942.885 -293.324l143.372 142.303l7.49023 7.48926
l7.48926 -7.48926l142.303 -141.233l7.49023 -7.48926l-7.49023 -7.49023l-143.372 -143.372l-7.49023 -7.49023l-7.48926 7.49023l-142.303 142.303l-7.49023 7.48926zM617.621 -293.324l143.372 142.303l7.49023 7.48926l7.48926 -7.48926l142.303 -141.233
l7.49023 -7.48926l-7.49023 -7.49023l-143.372 -143.372l-7.49023 -7.49023l-7.48926 7.49023l-142.303 142.303l-7.49023 7.48926z" />
    <glyph glyph-name="uniFB57" unicode="&#x67e;" horiz-adv-x="1931" arabic-form="final" 
d="M780.113 -561.883l143.373 142.303l7.49023 7.48926l7.48926 -7.48926l142.303 -141.233l7.48926 -8.55957l-7.48926 -7.48926l-143.373 -142.303l-7.48926 -7.49023l-7.48926 7.49023l-142.304 142.303l-7.48926 7.48926zM944.886 -293.326l143.372 142.303
l7.49023 7.48926l7.48926 -7.48926l142.303 -141.233l7.49023 -7.48926l-7.49023 -7.49023l-143.372 -143.372l-7.49023 -7.49023l-7.48926 7.49023l-142.303 142.303l-7.49023 7.48926zM619.622 -293.326l143.372 142.303l7.49023 7.48926l7.48926 -7.48926
l142.303 -141.233l7.49023 -7.48926l-7.49023 -7.49023l-143.372 -143.372l-7.49023 -7.49023l-7.48926 7.49023l-142.303 142.303l-7.49023 7.48926zM890 0c-266.667 0 -468.501 41.999 -605.501 125.999s-205.5 210.667 -205.5 380c0 92.667 18.667 181 56 265l9 18l18 -8
l157 -68l18 -8l-7 -18c-21.333 -54 -32 -105.333 -32 -154c0 -206 195.667 -309 587 -309c85.333 0 163.166 2.83301 233.499 8.5s131.5 13.834 183.5 24.501s95.667 23.5 131 38.5s62 32.5 80 52.5c9.33301 9.33301 16.5 23 21.5 41s7.5 40.333 7.5 67v21
c0 6.66699 -0.166992 12.834 -0.5 18.501s-0.5 10.834 -0.5 15.501l-6 82l-1 19l19 2l164 20l21 2l2 -21l16 -215c4 -52 19 -95 45 -129c25.333 -31.333 67 -47 125 -47h13c6.66699 0 12.334 -1.33301 17.001 -4s8.5 -6.83398 11.5 -12.501s5.33301 -10.834 7 -15.501
s2.83398 -11.667 3.50098 -21s1 -16.5 1 -21.5v-22.5v-19v-6c0 -16 -0.166992 -28.333 -0.5 -37s-1.66602 -19 -3.99902 -31s-6.5 -20.667 -12.5 -26s-13.667 -8 -23 -8h-13c-138.667 0 -240.334 54.667 -305.001 164c-122.667 -109.333 -365 -164 -727 -164h-4z" />
    <glyph glyph-name="uniFB58" unicode="&#x67e;" horiz-adv-x="673" arabic-form="initial" 
d="M69 0l-76 -0.000976562c-26 0 -45.5 9.83301 -58.5 29.5s-19.5 45.834 -19.5 78.501v19c0 29.333 6.66699 52.833 20 70.5s32.666 26.5 57.999 26.5h76c51.333 0 94.5 2.66699 129.5 8s60.833 12.333 77.5 21c50 29.333 75 93.333 75 192c0 78 -12 164.667 -36 260l-5 19
l19 5l164 41l18 5l6 -18c32.667 -106 49 -209 49 -309c0 -170 -49.333 -292.333 -148 -367c-71.333 -54 -187.666 -81 -348.999 -81zM127.113 -561.884l143.373 142.303l7.49023 7.48926l7.48926 -7.48926l142.303 -141.233l7.48926 -8.55957l-7.48926 -7.48926
l-143.373 -142.303l-7.48926 -7.49023l-7.48926 7.49023l-142.304 142.303l-7.48926 7.48926zM291.886 -293.327l143.372 142.303l7.49023 7.48926l7.48926 -7.48926l142.303 -141.233l7.49023 -7.48926l-7.49023 -7.49023l-143.372 -143.372l-7.49023 -7.49023
l-7.48926 7.49023l-142.303 142.303l-7.49023 7.48926zM-33.3779 -293.327l143.372 142.303l7.49023 7.48926l7.48926 -7.48926l142.303 -141.233l7.49023 -7.48926l-7.49023 -7.49023l-143.372 -143.372l-7.49023 -7.49023l-7.48926 7.49023l-142.303 142.303
l-7.49023 7.48926z" />
    <glyph glyph-name="uniFB59" unicode="&#x67e;" horiz-adv-x="717" arabic-form="medial" 
d="M127.113 -561.883l143.373 142.303l7.49023 7.48926l7.48926 -7.48926l142.303 -141.233l7.48926 -8.55957l-7.48926 -7.48926l-143.373 -142.303l-7.48926 -7.49023l-7.48926 7.49023l-142.304 142.303l-7.48926 7.48926zM291.886 -293.326l143.372 142.303
l7.49023 7.48926l7.48926 -7.48926l142.303 -141.233l7.49023 -7.48926l-7.49023 -7.49023l-143.372 -143.372l-7.49023 -7.49023l-7.48926 7.49023l-142.303 142.303l-7.49023 7.48926zM-33.3779 -293.326l143.372 142.303l7.49023 7.48926l7.48926 -7.48926
l142.303 -141.233l7.49023 -7.48926l-7.49023 -7.49023l-143.372 -143.372l-7.49023 -7.49023l-7.48926 7.49023l-142.303 142.303l-7.49023 7.48926zM765 108l-0.000976562 -5.99902c0 -16 -0.333008 -28.333 -1 -37s-2 -18.834 -4 -30.501s-6 -20.334 -12 -26.001
s-13.667 -8.5 -23 -8.5h-10c-127.333 0 -219 42 -275 126c-72 -84 -186.667 -126 -344 -126h-104c-26 0 -45.333 9.83301 -58 29.5s-19 45.834 -19 78.501v19c0 29.333 6.5 52.833 19.5 70.5s32.167 26.5 57.5 26.5h99c142.667 0 221.334 38.667 236.001 116
c4 22 6 48.333 6 79c0 32.667 -1 63.667 -3 93l-5 82l-2 19l19 2l165 20l21 2l1 -21l16 -231c2.66699 -37.333 10.667 -67.833 24 -91.5s32 -41.167 56 -52.5s54.667 -17 92 -17h8c9.33301 0 17 -2.66699 23 -8s10 -14 12 -26s3.33301 -22.167 4 -30.5s1 -20.5 1 -36.5v-5
v-10z" />
    <glyph glyph-name="uniFB7A" unicode="&#x686;" horiz-adv-x="1366" arabic-form="isolated" 
d="M105 -125c0 192 57.002 350.666 171.002 475.999s283.333 216.666 508 273.999c-8 3.33301 -16.5 6.66602 -25.5 9.99902s-18.833 7.33301 -29.5 12c-127.333 51.333 -213.666 77 -258.999 77c-23.333 0 -45.166 -3.16699 -65.499 -9.5s-39.166 -15.833 -56.499 -28.5
s-33.666 -28.667 -48.999 -48l-28 -36l-10 -13l-14 7l-154 76l-20 10l12 18l16 28c43.333 71.333 96.166 125.333 158.499 162s132.833 55.334 211.5 56.001c30 0 61.5 -3.33301 94.5 -10s67.5 -16.5 103.5 -29.5s74.333 -29.167 115 -48.5
c205.333 -100 363.666 -152.333 474.999 -157l20 -1l-1 -21l-13 -174l-1 -17l-18 -1c-16.667 -1.33301 -32.834 -2.5 -48.501 -3.5s-31 -2.33301 -46 -4l-44 -5l-41.5 -5c-13.333 -1.66699 -26.333 -3.5 -39 -5.5s-24.834 -4.16699 -36.501 -6.5
s-22.834 -4.83301 -33.501 -7.5c-428 -99.333 -642 -285.666 -642 -558.999c0 -116.667 41.833 -204 125.5 -262s212.167 -87 385.5 -87c141.333 0 277.666 31.333 408.999 94l23 11l5 -25l36 -179l3 -15l-14 -7c-135.333 -66 -294 -99 -476 -99
c-87.333 0 -166.5 7 -237.5 21s-134.667 35.333 -191 64s-104.5 64.334 -144.5 107.001c-89.333 96.667 -134 217 -134 361zM673.115 -187.884l143.373 142.303l7.49023 7.48926l7.48926 -7.48926l142.303 -141.233l7.48926 -8.55957l-7.48926 -7.48926l-143.373 -142.303
l-7.48926 -7.49023l-7.48926 7.49023l-142.304 142.303l-7.48926 7.48926zM837.888 80.6729l143.372 142.303l7.49023 7.48926l7.48926 -7.48926l142.303 -141.233l7.49023 -7.48926l-7.49023 -7.49023l-143.372 -143.372l-7.49023 -7.49023l-7.48926 7.49023
l-142.303 142.303l-7.49023 7.48926zM512.624 80.6729l143.372 142.303l7.49023 7.48926l7.48926 -7.48926l142.303 -141.233l7.49023 -7.48926l-7.49023 -7.49023l-143.372 -143.372l-7.49023 -7.49023l-7.48926 7.49023l-142.303 142.303l-7.49023 7.48926z" />
    <glyph glyph-name="uniFB7B" unicode="&#x686;" horiz-adv-x="1386" arabic-form="final" 
d="M553.152 -238.598l127.244 126.295l6.64648 6.64746l6.64746 -6.64746l126.295 -125.345l6.64746 -7.59668l-6.64746 -6.64746l-127.244 -126.295l-6.64746 -6.64648l-6.64746 6.64648l-126.294 126.295l-6.64746 6.64746zM699.388 -0.251953l127.245 126.295
l6.64648 6.64746l6.64746 -6.64746l126.295 -125.345l6.64648 -6.64746l-6.64648 -6.64648l-127.245 -127.245l-6.64648 -6.64648l-6.64746 6.64648l-126.295 126.295l-6.64648 6.64746zM410.714 -0.251953l127.245 126.295l6.64648 6.64746l6.64746 -6.64746
l126.295 -125.345l6.64648 -6.64746l-6.64648 -6.64648l-127.245 -127.245l-6.64648 -6.64648l-6.64746 6.64648l-126.295 126.295l-6.64648 6.64746zM1278 679l-13.0039 -173.998l-1 -17l-18 -1c-61.333 -4.66699 -120 -10.667 -176 -18c1.33301 -56 11.5 -102 30.5 -138
s47.5 -62.833 85.5 -80.5s86.333 -26.5 145 -26.5h63c9.33301 0 17 -2.66699 23 -8s10 -13.333 12 -24s3.33301 -19.834 4 -27.501s1 -18.5 1 -32.5v-24v-5c0 -16.667 -0.166992 -29.167 -0.5 -37.5s-1.66602 -18.5 -3.99902 -30.5s-6.5 -20.833 -12.5 -26.5
s-13.667 -8.5 -23 -8.5h-63c-146.667 0 -258.334 36.333 -335.001 109s-116.667 179.667 -120 321c-189.333 -50.667 -330.166 -120.834 -422.499 -210.501s-138.5 -199.167 -138.5 -328.5c0 -116.667 41.833 -204 125.5 -262s212.167 -87 385.5 -87
c141.333 0 277.666 31.333 408.999 94l23 11l5 -25l36 -179l3 -15l-14 -7c-135.333 -66 -294 -99 -476 -99c-87.333 0 -166.5 7 -237.5 21s-134.667 35.333 -191 64s-104.5 64.334 -144.5 107.001c-89.333 96.667 -134 217 -134 361c0 192.667 57 351.5 171 476.5
s283.333 216.167 508 273.5c-8 3.33301 -16.5 6.66602 -25.5 9.99902s-18.833 7.33301 -29.5 12c-127.333 51.333 -213.666 77 -258.999 77c-23.333 0 -45.166 -3.16699 -65.499 -9.5s-39.166 -15.833 -56.499 -28.5s-33.666 -28.667 -48.999 -48l-28 -36l-10 -13l-14 7
l-154 76l-20 10l12 18l16 28c88.667 145.333 212.334 218 371.001 218c87.333 0 191.333 -29.333 312 -88c205.333 -100 363.666 -152.333 474.999 -157l20 -1z" />
    <glyph glyph-name="uniFB7C" unicode="&#x686;" horiz-adv-x="1337" arabic-form="initial" 
d="M-7 0c-26 0 -45.498 9.83203 -58.498 29.499s-19.5 45.834 -19.5 78.501v19c0 29.333 6.66699 52.833 20 70.5s32.666 26.5 57.999 26.5h60c216.667 0 485.667 83 807 249l33 17c-19.333 6.66699 -43.166 15.667 -71.499 27l-102.5 42c-128 51.333 -214.333 77 -259 77
c-69.333 0 -126.333 -28.667 -171 -86l-28 -36l-10 -13l-14 7l-154 76l-20 10l12 18l16 28c43.333 72 96.166 126.167 158.499 162.5s132.833 54.833 211.5 55.5c88 0 192.333 -29.333 313 -88c205.333 -100 363.666 -152.333 474.999 -157l19 -1v-20l-2 -173v-18l-18 -2
c-74 -6.66699 -213 -63.667 -417 -171c-288.667 -152 -552 -228 -790 -228h-48zM541.115 -561.884l143.373 142.303l7.49023 7.48926l7.48926 -7.48926l142.303 -141.233l7.48926 -8.55957l-7.48926 -7.48926l-143.373 -142.303l-7.48926 -7.49023l-7.48926 7.49023
l-142.304 142.303l-7.48926 7.48926zM705.888 -293.327l143.372 142.303l7.49023 7.48926l7.48926 -7.48926l142.303 -141.233l7.49023 -7.48926l-7.49023 -7.49023l-143.372 -143.372l-7.49023 -7.49023l-7.48926 7.49023l-142.303 142.303l-7.49023 7.48926z
M380.624 -293.327l143.372 142.303l7.49023 7.48926l7.48926 -7.48926l142.303 -141.233l7.49023 -7.48926l-7.49023 -7.49023l-143.372 -143.372l-7.49023 -7.49023l-7.48926 7.49023l-142.303 142.303l-7.49023 7.48926z" />
    <glyph glyph-name="uniFB7D" unicode="&#x686;" horiz-adv-x="1351" arabic-form="medial" 
d="M541.113 -561.883l143.373 142.303l7.49023 7.48926l7.48926 -7.48926l142.303 -141.233l7.48926 -8.55957l-7.48926 -7.48926l-143.373 -142.303l-7.48926 -7.49023l-7.48926 7.49023l-142.304 142.303l-7.48926 7.48926zM705.886 -293.326l143.372 142.303
l7.49023 7.48926l7.48926 -7.48926l142.303 -141.233l7.49023 -7.48926l-7.49023 -7.49023l-143.372 -143.372l-7.49023 -7.49023l-7.48926 7.49023l-142.303 142.303l-7.49023 7.48926zM380.622 -293.326l143.372 142.303l7.49023 7.48926l7.48926 -7.48926
l142.303 -141.233l7.49023 -7.48926l-7.49023 -7.49023l-143.372 -143.372l-7.49023 -7.49023l-7.48926 7.49023l-142.303 142.303l-7.49023 7.48926zM893 490c-18.667 6.66699 -42.3291 15.666 -70.9961 26.999l-103 42c-128 51.333 -214.333 77 -259 77
c-69.333 0 -126.333 -28.667 -171 -86l-28 -36l-10 -13l-14 7l-154 76l-20 10l12 18l16 28c43.333 72 96.166 126.167 158.499 162.5s132.833 54.833 211.5 55.5c88 0 192.333 -29.333 313 -88c205.333 -100 363.666 -152.333 474.999 -157l19 -1v-20l-2 -173v-19l-18 -1
c-24 -2 -52 -8.16699 -84 -18.5s-66.667 -24.5 -104 -42.5c10 -76 95.667 -114 257 -114h44c9.33301 0 16.833 -2.66699 22.5 -8s9.66699 -13.333 12 -24s3.83301 -19.834 4.5 -27.501s1 -18.5 1 -32.5v-24c0 -8 -0.166992 -16.167 -0.5 -24.5l-1 -24.5
c-0.333008 -8 -1.33301 -15.667 -3 -23s-3.83398 -13.666 -6.50098 -18.999s-6.5 -9.5 -11.5 -12.5s-11.167 -4.5 -18.5 -4.5h-59c-118.667 0 -213 21.5 -283 64.5s-113.333 107.5 -130 193.5l-28 -14.5l-29 -15.5c-288.667 -152 -552 -228 -790 -228h-48
c-26 0 -45.5 9.83301 -58.5 29.5s-19.5 45.834 -19.5 78.501v19c0 29.333 6.66699 52.833 20 70.5s32.666 26.5 57.999 26.5h60c216.667 0 485.667 83 807 249z" />
    <glyph glyph-name="uniFB8A" unicode="&#x698;" horiz-adv-x="890" arabic-form="isolated" 
d="M663 560c57.333 -130 86.0029 -255.332 86.0029 -375.999c0 -198.667 -60.333 -354.334 -181 -467.001s-299.334 -181.667 -536.001 -207l-18 -2l-4 17l-43 170l-5 23l23 2c185.333 18.667 323.166 65.5 413.499 140.5s135.166 178.833 134.499 311.5
c0 99.333 -25.333 203.333 -76 312l-9 20l20 7l171 59l17 7zM353.116 1132.92l142.304 142.303l7.48926 7.48926l7.48926 -7.48926l143.373 -143.373l7.48926 -7.48926l-7.48926 -7.49023l-142.303 -142.303l-7.48926 -7.48926l-7.49023 7.48926l-143.373 143.373
l-7.48926 7.48926zM517.889 864.366l142.303 142.303l7.48926 7.48926l7.49023 -7.48926l143.372 -143.373l7.49023 -7.48926l-7.49023 -7.48926l-142.303 -142.304l-7.48926 -7.48926l-7.49023 7.48926l-143.372 143.373l-7.49023 7.48926zM192.625 864.366
l142.303 142.303l7.48926 7.48926l7.49023 -7.48926l143.372 -143.373l7.49023 -7.48926l-7.49023 -7.48926l-142.303 -142.304l-7.48926 -7.48926l-7.49023 7.48926l-143.372 143.373l-7.49023 7.48926z" />
    <glyph glyph-name="uniFB8B" unicode="&#x698;" horiz-adv-x="910" arabic-form="final" 
d="M353.113 1132.92l142.304 142.303l7.48926 7.48926l7.48926 -7.48926l143.373 -143.373l7.48926 -7.48926l-7.48926 -7.49023l-142.303 -142.303l-7.48926 -7.48926l-7.49023 7.48926l-143.373 143.373l-7.48926 7.48926zM517.886 864.365l142.303 142.303
l7.48926 7.48926l7.49023 -7.48926l143.372 -143.373l7.49023 -7.48926l-7.49023 -7.48926l-142.303 -142.304l-7.48926 -7.48926l-7.49023 7.48926l-143.372 143.373l-7.49023 7.48926zM192.622 864.365l142.303 142.303l7.48926 7.48926l7.49023 -7.48926
l143.372 -143.373l7.49023 -7.48926l-7.49023 -7.48926l-142.303 -142.304l-7.48926 -7.48926l-7.49023 7.48926l-143.372 143.373l-7.49023 7.48926zM663 557l57.002 -192.998c14 -48 35 -83.333 63 -106s64 -34 108 -34h28c9.33301 0 16.833 -2.66699 22.5 -8
s9.66699 -13.333 12 -24s3.83301 -19.834 4.5 -27.501s1 -18.5 1 -32.5v-24v-5c0 -16 -0.333008 -28.333 -1 -37s-2 -19 -4 -31s-6 -20.833 -12 -26.5s-13.667 -8.5 -23 -8.5h-17c-75.333 0 -131 11.333 -167 34c-52.667 -304.667 -287 -479.334 -703 -524.001l-18 -2l-4 17
l-43 170l-5 23l23 2c185.333 18.667 323.166 65.667 413.499 141s135.166 179.333 134.499 312c0 97.333 -25.667 201 -77 311l-9 20l20 7l171 59l19 7z" />
    <glyph glyph-name="uniFB8E" unicode="&#x6a9;" horiz-adv-x="1878" arabic-form="isolated" 
d="M1544 693c90 -97.333 134.336 -204.999 133.003 -322.999c-2 -83.333 -27.667 -152.5 -77 -207.5s-120.333 -95.833 -213 -122.5s-207 -40 -343 -40h-181c-258 0 -453.167 42.167 -585.5 126.5s-198.5 210.833 -198.5 379.5c0 92.667 18.667 181 56 265l9 18l18 -8
l157 -68l18 -8l-7 -18c-10.667 -27.333 -18.667 -54 -24 -80s-8 -51.333 -8 -76c1.33301 -204.667 189.666 -307 564.999 -307h180c276.667 0 414.667 57 414 171c0 59.333 -32.333 119.666 -97 180.999c-102 94.667 -192.667 173 -272 235
c-26.667 20.667 -48.834 41.834 -66.501 63.501s-31.334 44.334 -41.001 68.001s-14.5 47.5 -14.5 71.5c0 95.333 51.333 162.666 154 201.999l693 263l27 10v-29v-181v-13l-13 -5l-641 -239l212.5 -186c59.667 -54.667 108.167 -102.334 145.5 -143.001z" />
    <glyph glyph-name="uniFB8F" unicode="&#x6a9;" horiz-adv-x="1954" arabic-form="final" 
d="M861 0c-257.333 0 -452.003 42.1689 -584.003 126.502s-198 210.833 -198 379.5c0 92.667 18.667 181 56 265l9 18l18 -8l157 -68l18 -8l-7 -18c-10.667 -27.333 -18.667 -54 -24 -80s-8 -51.333 -8 -76c0.666992 -101.333 47 -177.833 139 -229.5
s233.333 -77.5 424 -77.5h182c275.333 0 413.333 57 414 171c0 29.333 -8 59 -24 89s-40.667 60.667 -74 92l-100 91.5l-91 78.5l-80 65c-81.333 63.333 -122 131 -122 203c0 47.333 13 88 39 122s64 60.667 114 80l693 263l27 10v-29v-181v-13l-13 -5l-640 -239
c161.333 -136 280.333 -245.667 357 -329c55.333 -59.333 100 -136.333 134 -231c56 -158.667 145.667 -238 269 -238h16c6.66699 0 12.334 -1.33301 17.001 -4s8.5 -6.83398 11.5 -12.501s5.33301 -10.834 7 -15.501s2.83398 -11.667 3.50098 -21s1 -16.5 1 -21.5v-22.5
v-19v-6c0 -16 -0.166992 -28.333 -0.5 -37s-1.66602 -19 -3.99902 -31s-6.5 -20.667 -12.5 -26s-13.667 -8 -23 -8h-16c-142 0 -258 54.667 -348 164c-88 -109.333 -273 -164 -555 -164h-182z" />
    <glyph glyph-name="uniFB90" unicode="&#x6a9;" horiz-adv-x="950" arabic-form="initial" 
d="M615 693c90.667 -97.333 135.001 -204.999 133.001 -322.999c-2 -124 -55 -216.667 -159 -278s-255 -92 -453 -92h-143c-26 0 -45.5 9.83301 -58.5 29.5s-19.5 45.834 -19.5 78.501v19c0 29.333 6.66699 52.833 20 70.5s32.666 26.5 57.999 26.5h142
c262 0 393.333 57 394 171c0 59.333 -32.333 119.666 -97 180.999c-102 94.667 -192.667 173 -272 235c-40 31.333 -70.333 64 -91 98s-31 69 -31 105c0 95.333 51 162.666 153 201.999l693 263l27 10v-29v-181v-13l-13 -5l-640 -239l147.5 -127.5
c44.333 -39 84 -75.333 119 -109s65.167 -64.5 90.5 -92.5z" />
    <glyph glyph-name="uniFB91" unicode="&#x6a9;" horiz-adv-x="1027" arabic-form="medial" 
d="M258 1022c161.333 -136 280.331 -245.664 356.998 -328.997c28.667 -30 54 -64.333 76 -103s41.333 -81.667 58 -129c55.333 -158 145 -237 269 -237h16c6.66699 0 12.5 -1.33301 17.5 -4s8.83301 -6.83398 11.5 -12.501s4.83398 -10.834 6.50098 -15.501
s2.83398 -11.667 3.50098 -21s1 -16.5 1 -21.5v-22.5v-19v-6c0 -16 -0.166992 -28.333 -0.5 -37s-1.66602 -19 -3.99902 -31s-6.5 -20.667 -12.5 -26s-13.667 -8 -23 -8h-16c-142 0 -258 54.667 -348 164c-87.333 -109.333 -265.333 -164 -534 -164h-143
c-26 0 -45.5 9.83301 -58.5 29.5s-19.5 45.834 -19.5 78.501v19c0 29.333 6.66699 52.833 20 70.5s32.666 26.5 57.999 26.5h142c262 0 393.333 57 394 171c0 59.333 -32.333 119.666 -97 180.999c-102 94.667 -192.667 173 -272 235c-40 31.333 -70.333 64 -91 98
s-31 69 -31 105c0 95.333 51 162.666 153 201.999l693 263l27 10v-29v-181v-13l-13 -5z" />
    <glyph glyph-name="uniFB92" unicode="&#x6af;" horiz-adv-x="1878" arabic-form="isolated" 
d="M1544 693c90 -97.333 134.336 -204.999 133.003 -322.999c-2 -83.333 -27.667 -152.5 -77 -207.5s-120.333 -95.833 -213 -122.5s-207 -40 -343 -40h-181c-258 0 -453.167 42.167 -585.5 126.5s-198.5 210.833 -198.5 379.5c0 92.667 18.667 181 56 265l9 18l18 -8
l157 -68l18 -8l-7 -18c-10.667 -27.333 -18.667 -54 -24 -80s-8 -51.333 -8 -76c1.33301 -204.667 189.666 -307 564.999 -307h180c276.667 0 414.667 57 414 171c0 59.333 -32.333 119.666 -97 180.999c-102 94.667 -192.667 173 -272 235
c-26.667 20.667 -48.834 41.834 -66.501 63.501s-31.334 44.334 -41.001 68.001s-14.5 47.5 -14.5 71.5c0 95.333 51.333 162.666 154 201.999l693 263l27 10v-29v-181v-13l-13 -5l-641 -239l212.5 -186c59.667 -54.667 108.167 -102.334 145.5 -143.001zM1817.83 1582.96
l-782.131 -300.654l-14.9785 -5.35059v14.9795v128.394v7.49023l7.48926 3.20898l781.061 299.586l14.9795 6.41895v-16.0488v-128.394v-7.49023z" />
    <glyph glyph-name="uniFB93" unicode="&#x6af;" horiz-adv-x="1954" arabic-form="final" 
d="M1817.83 1582.96l-782.131 -300.654l-14.9785 -5.35059v14.9795v128.394v7.49023l7.48926 3.20898l781.061 299.586l14.9795 6.41895v-16.0488v-128.394v-7.49023zM861 0c-257.333 0 -452.003 42.1689 -584.003 126.502s-198 210.833 -198 379.5
c0 92.667 18.667 181 56 265l9 18l18 -8l157 -68l18 -8l-7 -18c-10.667 -27.333 -18.667 -54 -24 -80s-8 -51.333 -8 -76c0.666992 -101.333 47 -177.833 139 -229.5s233.333 -77.5 424 -77.5h182c275.333 0 413.333 57 414 171c0 29.333 -8 59 -24 89
s-40.667 60.667 -74 92l-100 91.5l-91 78.5l-80 65c-81.333 63.333 -122 131 -122 203c0 47.333 13 88 39 122s64 60.667 114 80l693 263l27 10v-29v-181v-13l-13 -5l-640 -239c161.333 -136 280.333 -245.667 357 -329c55.333 -59.333 100 -136.333 134 -231
c56 -158.667 145.667 -238 269 -238h16c6.66699 0 12.334 -1.33301 17.001 -4s8.5 -6.83398 11.5 -12.501s5.33301 -10.834 7 -15.501s2.83398 -11.667 3.50098 -21s1 -16.5 1 -21.5v-22.5v-19v-6c0 -16 -0.166992 -28.333 -0.5 -37s-1.66602 -19 -3.99902 -31
s-6.5 -20.667 -12.5 -26s-13.667 -8 -23 -8h-16c-142 0 -258 54.667 -348 164c-88 -109.333 -273 -164 -555 -164h-182z" />
    <glyph glyph-name="uniFB94" unicode="&#x6af;" horiz-adv-x="950" arabic-form="initial" 
d="M615 693c90.667 -97.333 135.001 -204.999 133.001 -322.999c-2 -124 -55 -216.667 -159 -278s-255 -92 -453 -92h-143c-26 0 -45.5 9.83301 -58.5 29.5s-19.5 45.834 -19.5 78.501v19c0 29.333 6.66699 52.833 20 70.5s32.666 26.5 57.999 26.5h142
c262 0 393.333 57 394 171c0 59.333 -32.333 119.666 -97 180.999c-102 94.667 -192.667 173 -272 235c-40 31.333 -70.333 64 -91 98s-31 69 -31 105c0 95.333 51 162.666 153 201.999l693 263l27 10v-29v-181v-13l-13 -5l-640 -239l147.5 -127.5
c44.333 -39 84 -75.333 119 -109s65.167 -64.5 90.5 -92.5zM887.831 1585.96l-782.131 -300.654l-14.9785 -5.35059v14.9795v128.394v7.49023l7.48926 3.20898l781.061 299.586l14.9795 6.41895v-16.0488v-128.394v-7.49023z" />
    <glyph glyph-name="uniFB95" unicode="&#x6af;" horiz-adv-x="1027" arabic-form="medial" 
d="M887.83 1585.96l-782.131 -300.654l-14.9785 -5.35059v14.9795v128.394v7.49023l7.48926 3.20898l781.061 299.586l14.9795 6.41895v-16.0488v-128.394v-7.49023zM258 1022c161.333 -136 280.331 -245.664 356.998 -328.997c28.667 -30 54 -64.333 76 -103
s41.333 -81.667 58 -129c55.333 -158 145 -237 269 -237h16c6.66699 0 12.5 -1.33301 17.5 -4s8.83301 -6.83398 11.5 -12.501s4.83398 -10.834 6.50098 -15.501s2.83398 -11.667 3.50098 -21s1 -16.5 1 -21.5v-22.5v-19v-6c0 -16 -0.166992 -28.333 -0.5 -37
s-1.66602 -19 -3.99902 -31s-6.5 -20.667 -12.5 -26s-13.667 -8 -23 -8h-16c-142 0 -258 54.667 -348 164c-87.333 -109.333 -265.333 -164 -534 -164h-143c-26 0 -45.5 9.83301 -58.5 29.5s-19.5 45.834 -19.5 78.501v19c0 29.333 6.66699 52.833 20 70.5
s32.666 26.5 57.999 26.5h142c262 0 393.333 57 394 171c0 59.333 -32.333 119.666 -97 180.999c-102 94.667 -192.667 173 -272 235c-40 31.333 -70.333 64 -91 98s-31 69 -31 105c0 95.333 51 162.666 153 201.999l693 263l27 10v-29v-181v-13l-13 -5z" />
    <glyph glyph-name="uniFB9E" unicode="&#x6ba;" horiz-adv-x="1475" arabic-form="isolated" 
d="M716 -240c154.667 0.666992 269.331 35.833 343.998 105.5s111.667 175.5 111 317.5c0 124.667 -29.333 247.334 -88 368.001l-10 21l21 7l174 60l18 7l7 -18c66 -164.667 99 -313.334 99 -446.001c-0.666992 -63.333 -6.66699 -122.5 -18 -177.5
s-28.666 -105.833 -51.999 -152.5c-103.333 -206 -308.333 -308.667 -615 -308c-205.333 0 -360.5 48.167 -465.5 144.5s-157.833 239.166 -158.5 428.499c0 144.667 34 299.334 102 464.001l8 19l18 -8l159 -65l18 -8l-7 -18c-55.333 -139.333 -82.666 -268 -81.999 -386
c0.666992 -120 35.167 -209.167 103.5 -267.5s172.833 -87.5 313.5 -87.5z" />
    <glyph glyph-name="uniFB9F" unicode="&#x6ba;" horiz-adv-x="1549" arabic-form="final" 
d="M1388 37c-5.33301 -82 -27.332 -162.997 -65.999 -242.997c-103.333 -209.333 -308.333 -314 -615 -314c-206 0 -361.667 48.833 -467 146.5s-158 242.5 -158 434.5c0 139.333 34.333 291.666 103 456.999l7 18l19 -7l158 -66l18 -7l-7 -19
c-54.667 -138.667 -82 -263.334 -82 -374.001c0 -123.333 34 -215.166 102 -275.499s172.667 -90.5 314 -90.5c154 0 268.5 35 343.5 105s112.833 176.667 113.5 320c0 119.333 -29.667 239.666 -89 360.999l-9 20l21 8l172 60l20 7l6 -20l73 -228
c12 -35.333 32 -61.833 60 -79.5s66 -26.5 114 -26.5h19c9.33301 0 17 -2.66699 23 -8s10.167 -13.333 12.5 -24s3.66602 -19.834 3.99902 -27.501s0.5 -18.5 0.5 -32.5v-24v-6c0 -16 -0.166992 -28.333 -0.5 -37s-1.66602 -19 -3.99902 -31s-6.5 -20.667 -12.5 -26
s-13.667 -8 -23 -8h-15c-62.667 -0 -114.334 12.333 -155.001 37z" />
    <glyph glyph-name="uniFBAC" unicode="&#x6be;" horiz-adv-x="1395" arabic-form="initial" 
d="M95 0l-101.999 0.00390625c-26 0 -45.5 9.83301 -58.5 29.5s-19.5 45.834 -19.5 78.501v19c0 29.333 6.66699 52.833 20 70.5s32.666 26.5 57.999 26.5h258c-2.66699 2 -5.16699 4.16699 -7.5 6.5l-6.5 6.5c-2 2 -4 4.16699 -6 6.5s-4 4.5 -6 6.5
c-54.667 63.333 -81.667 133.666 -81 210.999c0 86 30 163.667 90 233c73.333 85.333 167 128 281 128c104.667 0 192 -33 262 -99c60.667 -56.667 91.334 -129.334 92.001 -218.001c0 -110 -41.667 -198.333 -125 -265c78 -10.667 129.667 -16 155 -16
c21.333 0 40.333 1.16699 57 3.5s30 5.5 40 9.5c64.667 25.333 97.334 71.666 98.001 138.999c0.666992 74 -45.333 153 -138 237s-233.334 171.333 -422.001 262l-19 9l11 19l87 153l9 16l17 -8c453.333 -220.667 678 -450.334 674 -689.001
c-1.33301 -104 -33.333 -190 -96 -258c-68.667 -77.333 -174.667 -116 -318 -116c-104.667 -0.666992 -232.334 22.666 -383.001 69.999c-162 -47.333 -302.333 -71 -421 -71zM607.001 367.004c41.333 39.333 63 82.9951 65 130.995c0 10 -1 19.333 -3 28
s-4.66699 16.334 -8 23.001s-7.66602 13 -12.999 19c-32.667 34.667 -74 52 -124 52c-60.667 0 -106.334 -25.667 -137.001 -77c-14 -24 -21.333 -52.667 -22 -86c0 -36 18.333 -70.333 55 -103c27.333 -24.667 59.333 -42 96 -52c0.666992 0.666992 1.66699 1.16699 3 1.5
s2.5 0.833008 3.5 1.5s2.16699 1.33398 3.5 2.00098s2.5 1.33398 3.5 2.00098s2.16699 1.33398 3.5 2.00098s2.33301 1.33398 3 2.00098c14 8.66699 26.833 17.5 38.5 26.5s22.5 18.167 32.5 27.5z" />
    <glyph glyph-name="uniFBAD" unicode="&#x6be;" horiz-adv-x="992" arabic-form="medial" 
d="M554 -287c5.33301 168 43.5 295.166 114.5 381.499s174.167 129.5 309.5 129.5h22c6.66699 0 12.334 -1.33301 17.001 -4s8.5 -6.83398 11.5 -12.501s5.33301 -10.834 7 -15.501s2.83398 -11.667 3.50098 -21s1 -16.5 1 -21.5v-22.5v-19v-5
c0 -16.667 -0.166992 -29.167 -0.5 -37.5s-1.66602 -18.5 -3.99902 -30.5s-6.5 -20.833 -12.5 -26.5s-13.667 -8.5 -23 -8.5h-24c-10 0 -19.333 -0.333008 -28 -1c-78 -7.33301 -133.833 -45.666 -167.5 -114.999s-44.167 -174 -31.5 -314l1 -9l-7 -7l-123 -118l-10 -10
l-12 6c-224.667 106.667 -361.334 296 -410.001 568h-195c-26 0 -45.5 9.83301 -58.5 29.5s-19.5 45.834 -19.5 78.501v19c0 29.333 6.66699 52.833 20 70.5s32.666 26.5 57.999 26.5h180c15.333 280.667 71 472.667 167 576c58.667 63.333 131.334 95 218.001 95
c29.333 0 56.5 -3.5 81.5 -10.5s48.167 -17.5 69.5 -31.5s40.666 -31.333 57.999 -52c25.333 -30.667 44.166 -67.167 56.499 -109.5s18.5 -90.166 18.5 -143.499c-2 -137.333 -51 -262.333 -147 -375c-87.333 -103.333 -188.333 -161 -303 -173
c25.333 -126 79.333 -221.667 162 -287zM380 223.999c64 7.33301 121.667 38.666 173 93.999c57.333 61.333 86 140 86 236c0 39.333 -6.5 67.833 -19.5 85.5s-33.167 26.834 -60.5 27.501c-49.333 2 -89.5 -33.167 -120.5 -105.5s-50.5 -184.833 -58.5 -337.5z" />
    <glyph glyph-name="uniFBE8" unicode="&#x649;" horiz-adv-x="646" arabic-form="initial" 
d="M69 0l-76 -0.000976562c-26 0 -45.5 9.83301 -58.5 29.5s-19.5 45.834 -19.5 78.501v19c0 29.333 6.66699 52.833 20 70.5s32.666 26.5 57.999 26.5h76c51.333 0 94.5 2.66699 129.5 8s60.833 12.333 77.5 21c50 29.333 75 93.333 75 192c0 78 -12 164.667 -36 260l-5 19
l19 5l164 41l18 5l6 -18c32.667 -106 49 -209 49 -309c0 -170 -49.333 -292.333 -148 -367c-71.333 -54 -187.666 -81 -348.999 -81z" />
    <glyph glyph-name="uniFBE9" unicode="&#x649;" horiz-adv-x="717" arabic-form="medial" 
d="M765 108l-0.000976562 -5.99902c0 -16 -0.333008 -28.333 -1 -37s-2 -18.834 -4 -30.501s-6 -20.334 -12 -26.001s-13.667 -8.5 -23 -8.5h-10c-127.333 0 -219 42 -275 126c-72 -84 -186.667 -126 -344 -126h-104c-26 0 -45.333 9.83301 -58 29.5s-19 45.834 -19 78.501
v19c0 29.333 6.5 52.833 19.5 70.5s32.167 26.5 57.5 26.5h99c142.667 0 221.334 38.667 236.001 116c4 22 6 48.333 6 79c0 32.667 -1 63.667 -3 93l-5 82l-2 19l19 2l165 20l21 2l1 -21l16 -231c2.66699 -37.333 10.667 -67.833 24 -91.5s32 -41.167 56 -52.5
s54.667 -17 92 -17h8c9.33301 0 17 -2.66699 23 -8s10 -14 12 -26s3.33301 -22.167 4 -30.5s1 -20.5 1 -36.5v-5v-10z" />
    <glyph glyph-name="uniFBFC" unicode="&#x6cc;" horiz-adv-x="1524" arabic-form="isolated" 
d="M298 61c0 -76.667 16.167 -140.332 48.5 -190.999s82 -88.834 149 -114.501s152.167 -38.834 255.5 -39.501c116 0 219.333 21 310 63c46 22 86.667 50.667 122 86c32.667 34 49 72.333 49 115c0 12.667 -4.16699 22 -12.5 28s-23.833 9 -46.5 9l-113 1
c-86.667 0 -153.167 18.5 -199.5 55.5s-69.5 91.5 -69.5 163.5c0 131.333 41.667 242.666 125 333.999c107.333 116.667 257.666 175 450.999 175h21h20v-20v-193v-20h-20h-22c-51.333 0 -98.166 -5.83301 -140.499 -17.5s-79.833 -29.167 -112.5 -52.5
c-66 -46 -99.667 -101.667 -101 -167c0 -14 3 -23 9 -27c7.33301 -6.66699 21 -10 41 -10h119c41.333 0.666992 78 -3.66602 110 -12.999s58.833 -23.166 80.5 -41.499s38.167 -41.333 49.5 -69s17 -59.5 17 -95.5c0 -202 -100 -348.667 -300 -440
c-115.333 -52.667 -246 -79 -392 -79c-218 0 -383 46.667 -495 140s-168 232.333 -168 417c0 146 47 325 141 537l8 18l18 -7l159 -66l19 -7l-9 -19c-80.667 -183.333 -121 -334.333 -121 -453z" />
    <glyph glyph-name="uniFBFD" unicode="&#x6cc;" horiz-adv-x="1523" arabic-form="final" 
d="M1529 224c6.66699 0 12.4971 -1.33008 17.4971 -3.99707s8.83301 -6.83398 11.5 -12.501s4.83398 -10.834 6.50098 -15.501s2.83398 -11.667 3.50098 -21l1.5 -21.5c0.333008 -5 0.5 -12.5 0.5 -22.5v-19v-4c0 -6 -0.166992 -12.167 -0.5 -18.5s-0.5 -12.5 -0.5 -18.5
s-0.333008 -11.833 -1 -17.5s-1.66699 -11 -3 -16s-3 -9.5 -5 -13.5s-4.33301 -7.5 -7 -10.5s-6 -5.33301 -10 -7s-8.66699 -2.5 -14 -2.5h-119c19.333 -26.667 29 -57.667 29 -93c0 -109.333 -63.333 -205 -190 -287c-35.333 -22.667 -72.5 -42.667 -111.5 -60
s-79.333 -31.833 -121 -43.5s-85 -20.334 -130 -26.001s-91.833 -8.5 -140.5 -8.5c-218 0 -383 45 -495 135s-168 224.333 -168 403c0 144.667 34.333 292 103 442l8 17l18 -7l159 -66l18 -7l-7 -19c-56 -140.667 -84 -256.667 -84 -348c0 -112 36.5 -195.667 109.5 -251
s185.5 -83 337.5 -83c114.667 0 217.334 21 308.001 63c36.667 16 68 34 94 54s46.333 41.333 61 64c13.333 20 20 38.667 20 56c0 34.667 -21.667 55.334 -65 62.001c-13.333 2.66699 -29 4 -47 4h-153h-1h-1c-48 5.33301 -80.333 41.666 -97 108.999
c-3.33301 15.333 -5.83301 28.333 -7.5 39s-2.5 20 -2.5 28c0 24.667 8 40 24 46l3 1h4h644z" />
    <glyph glyph-name="uniFBFE" unicode="&#x6cc;" horiz-adv-x="682" arabic-form="initial" 
d="M69 0l-76 -0.000976562c-26 0 -45.5 9.83301 -58.5 29.5s-19.5 45.834 -19.5 78.501v19c0 29.333 6.66699 52.833 20 70.5s32.666 26.5 57.999 26.5h76c51.333 0 94.5 2.66699 129.5 8s60.833 12.333 77.5 21c50 29.333 75 93.333 75 192c0 78 -12 164.667 -36 260l-5 19
l19 5l164 41l18 5l6 -18c32.667 -106 49 -209 49 -309c0 -170 -49.333 -292.333 -148 -367c-71.333 -54 -187.666 -81 -348.999 -81zM295.676 -309.307l145.513 145.513l7.48926 7.48926l7.49023 -7.48926l146.582 -146.583l7.49023 -7.48926l-7.49023 -7.49023
l-145.513 -145.513l-7.48926 -7.48926l-7.49023 7.48926l-146.582 146.583l-7.49023 7.48926zM-29.5879 -309.307l145.513 145.513l7.48926 7.48926l7.49023 -7.48926l146.582 -146.583l7.49023 -7.48926l-7.49023 -7.49023l-145.513 -145.513l-7.48926 -7.48926
l-7.49023 7.48926l-146.582 146.583l-7.49023 7.48926z" />
    <glyph glyph-name="uniFBFF" unicode="&#x6cc;" horiz-adv-x="717" arabic-form="medial" 
d="M295.676 -309.306l145.513 145.513l7.48926 7.48926l7.49023 -7.48926l146.582 -146.583l7.49023 -7.48926l-7.49023 -7.49023l-145.513 -145.513l-7.48926 -7.48926l-7.49023 7.48926l-146.582 146.583l-7.49023 7.48926zM-29.5879 -309.306l145.513 145.513
l7.48926 7.48926l7.49023 -7.48926l146.582 -146.583l7.49023 -7.48926l-7.49023 -7.49023l-145.513 -145.513l-7.48926 -7.48926l-7.49023 7.48926l-146.582 146.583l-7.49023 7.48926zM765 108l-0.000976562 -5.99902c0 -16 -0.333008 -28.333 -1 -37
s-2 -18.834 -4 -30.501s-6 -20.334 -12 -26.001s-13.667 -8.5 -23 -8.5h-10c-127.333 0 -219 42 -275 126c-72 -84 -186.667 -126 -344 -126h-104c-26 0 -45.333 9.83301 -58 29.5s-19 45.834 -19 78.501v19c0 29.333 6.5 52.833 19.5 70.5s32.167 26.5 57.5 26.5h99
c142.667 0 221.334 38.667 236.001 116c4 22 6 48.333 6 79c0 32.667 -1 63.667 -3 93l-5 82l-2 19l19 2l165 20l21 2l1 -21l16 -231c2.66699 -37.333 10.667 -67.833 24 -91.5s32 -41.167 56 -52.5s54.667 -17 92 -17h8c9.33301 0 17 -2.66699 23 -8s10 -14 12 -26
s3.33301 -22.167 4 -30.5s1 -20.5 1 -36.5v-5v-10z" />
    <glyph glyph-name="uniFDFC" unicode="&#xfdfc;" horiz-adv-x="3546" arabic-form="isolated" 
d="M1093 120l2.99902 1298v20h20h172h20v-20l-1 -1099c0 -96 -3 -186.667 -9 -272c-9.33301 -124.667 -38.666 -229 -87.999 -313c-49.333 -84.667 -118.333 -148 -207 -190c-88 -42.667 -195.333 -64 -322 -64c-198 0 -347.333 49 -448 147
c-100.667 97.333 -150.667 242 -150 434c0 68.667 7 136.667 21 204c14.667 71.333 36 141 64 209l7 19l19 -8l158 -65l19 -8l-8 -18c-43.333 -111.333 -65 -223.333 -65 -336c0 -122 31.333 -212.667 94 -272c63.333 -59.333 160 -89 290 -89
c138.667 0 241.667 34.667 309 104s101.333 175.666 102 318.999zM3208 501.001c57.333 -130 86.001 -255.332 86.001 -375.999c0 -198.667 -60.333 -354.334 -181 -467.001s-299.334 -181.667 -536 -207l-18 -2l-4 17l-43 170l-5 23l23 2
c185.333 18.667 323.166 65.5 413.5 140.5c90.333 75 135.166 178.833 134.499 311.5c0 99.333 -25.333 203.333 -76 312l-9 20l20 7l171 59l17 7zM2093 0.00195312l-75.999 -0.000976562c-26 0 -45.5 9.83301 -58.5 29.5s-19.5 45.834 -19.5 78.501v19
c0 29.333 6.66699 52.833 20 70.5s32.666 26.5 57.999 26.5h76c51.333 0 94.5 2.66699 129.5 8s60.833 12.333 77.5 21c50 29.333 75 93.333 75 192c0 78 -12 164.667 -36 260l-5 19l19 5l164 41l18 5l6 -18c32.667 -106 49 -209 49 -309c0 -170 -49.333 -292.333 -148 -367
c-71.333 -54 -187.666 -81 -349 -81zM2161.68 -274.305l145.513 145.513l7.48926 7.48926l7.49023 -7.48926l146.582 -146.583l7.49023 -7.48926l-7.49023 -7.49023l-145.513 -145.513l-7.48926 -7.48926l-7.49023 7.48926l-146.582 146.583l-7.49023 7.48926z
M1836.41 -274.305l145.513 145.513l7.48926 7.48926l7.49023 -7.48926l146.582 -146.583l7.49023 -7.48926l-7.49023 -7.49023l-145.513 -145.513l-7.48926 -7.48926l-7.49023 7.48926l-146.582 146.583l-7.49023 7.48926zM2052 108.001
c0.666992 -12 0.666992 -24.3311 0 -36.998s-2 -24.334 -4 -35.001s-6 -19.334 -12 -26.001s-14 -10 -24 -10h-21c-134.667 0 -236.334 38.5 -305.001 115.5s-103 189.833 -103 338.5v964v20h20h174h20v-20v-962c0 -79.333 16 -138 48 -176c32 -37.333 81.667 -56 149 -56
h18c6 0 11.667 -1.33301 17 -4c4.66699 -2.66699 8.33398 -6.66699 11.001 -12l7 -16c1.33301 -4.66699 2.33301 -11.667 3 -21s1 -16.333 1 -21c0.666992 -2 1 -9.66699 1 -23v-19z" />
    <glyph glyph-name="uniFE71" unicode="&#xfe71;" horiz-adv-x="791" arabic-form="medial" 
d="M499 0c-19.333 0 -35.6699 4.66895 -49.0029 14.002s-23.166 22 -29.499 38s-9.5 34.667 -9.5 56v19c0 30 7.66699 53.667 23 71s37 26 65 26h302c6 0 11.5 -1.33301 16.5 -4s8.83301 -6.83398 11.5 -12.501s4.83398 -10.834 6.50098 -15.501
s2.83398 -11.667 3.50098 -21l1.5 -21.5c0.333008 -5 0.5 -12.5 0.5 -22.5v-19v-5c0 -16 -0.333008 -28.333 -1 -37s-2 -19 -4 -31s-6 -20.833 -12 -26.5s-13.667 -8.5 -23 -8.5h-302zM240.996 0.00195312c-19.333 0 -35.6699 4.66895 -49.0029 14.002
s-23.166 22 -29.499 38s-9.5 34.667 -9.5 56v19c0 30 7.66699 53.667 23 71s37 26 65 26h302c6 0 11.5 -1.33301 16.5 -4s8.83301 -6.83398 11.5 -12.501s4.83398 -10.834 6.50098 -15.501s2.83398 -11.667 3.50098 -21l1.5 -21.5c0.333008 -5 0.5 -12.5 0.5 -22.5v-19v-5
c0 -16 -0.333008 -28.333 -1 -37s-2 -19 -4 -31s-6 -20.833 -12 -26.5s-13.667 -8.5 -23 -8.5h-302zM-7.00781 0.00390625c-19.333 0 -35.6699 4.66895 -49.0029 14.002s-23.166 22 -29.499 38s-9.5 34.667 -9.5 56v19c0 30 7.66699 53.667 23 71s37 26 65 26h302
c6 0 11.5 -1.33301 16.5 -4s8.83301 -6.83398 11.5 -12.501s4.83398 -10.834 6.50098 -15.501s2.83398 -11.667 3.50098 -21l1.5 -21.5c0.333008 -5 0.5 -12.5 0.5 -22.5v-19v-5c0 -16 -0.333008 -28.333 -1 -37s-2 -19 -4 -31s-6 -20.833 -12 -26.5s-13.667 -8.5 -23 -8.5
h-302zM35.9883 1076.01v104v7l6 2l455 187l14 5v-15v-103v-7l-6 -3l-456 -186l-13 -5v14zM35.9883 1288.01v104v7l6 2l455 187l14 5v-15v-103v-7l-6 -3l-456 -186l-13 -5v14z" />
    <glyph glyph-name="uniFE77" unicode="&#xfe77;" horiz-adv-x="791" arabic-form="medial" 
d="M499 0c-19.333 0 -35.6699 4.66895 -49.0029 14.002s-23.166 22 -29.499 38s-9.5 34.667 -9.5 56v19c0 30 7.66699 53.667 23 71s37 26 65 26h302c6 0 11.5 -1.33301 16.5 -4s8.83301 -6.83398 11.5 -12.501s4.83398 -10.834 6.50098 -15.501
s2.83398 -11.667 3.50098 -21l1.5 -21.5c0.333008 -5 0.5 -12.5 0.5 -22.5v-19v-5c0 -16 -0.333008 -28.333 -1 -37s-2 -19 -4 -31s-6 -20.833 -12 -26.5s-13.667 -8.5 -23 -8.5h-302zM240.996 0.00195312c-19.333 0 -35.6699 4.66895 -49.0029 14.002
s-23.166 22 -29.499 38s-9.5 34.667 -9.5 56v19c0 30 7.66699 53.667 23 71s37 26 65 26h302c6 0 11.5 -1.33301 16.5 -4s8.83301 -6.83398 11.5 -12.501s4.83398 -10.834 6.50098 -15.501s2.83398 -11.667 3.50098 -21l1.5 -21.5c0.333008 -5 0.5 -12.5 0.5 -22.5v-19v-5
c0 -16 -0.333008 -28.333 -1 -37s-2 -19 -4 -31s-6 -20.833 -12 -26.5s-13.667 -8.5 -23 -8.5h-302zM-7.00781 0.00390625c-19.333 0 -35.6699 4.66895 -49.0029 14.002s-23.166 22 -29.499 38s-9.5 34.667 -9.5 56v19c0 30 7.66699 53.667 23 71s37 26 65 26h302
c6 0 11.5 -1.33301 16.5 -4s8.83301 -6.83398 11.5 -12.501s4.83398 -10.834 6.50098 -15.501s2.83398 -11.667 3.50098 -21l1.5 -21.5c0.333008 -5 0.5 -12.5 0.5 -22.5v-19v-5c0 -16 -0.333008 -28.333 -1 -37s-2 -19 -4 -31s-6 -20.833 -12 -26.5s-13.667 -8.5 -23 -8.5
h-302zM4.98828 1349.01v104v6l6 3l456 186l14 6v-15v-104v-6l-7 -3l-455 -186l-14 -6v15z" />
    <glyph glyph-name="uniFE79" unicode="&#xfe79;" horiz-adv-x="791" arabic-form="medial" 
d="M499 0c-19.333 0 -35.6699 4.66895 -49.0029 14.002s-23.166 22 -29.499 38s-9.5 34.667 -9.5 56v19c0 30 7.66699 53.667 23 71s37 26 65 26h302c6 0 11.5 -1.33301 16.5 -4s8.83301 -6.83398 11.5 -12.501s4.83398 -10.834 6.50098 -15.501
s2.83398 -11.667 3.50098 -21l1.5 -21.5c0.333008 -5 0.5 -12.5 0.5 -22.5v-19v-5c0 -16 -0.333008 -28.333 -1 -37s-2 -19 -4 -31s-6 -20.833 -12 -26.5s-13.667 -8.5 -23 -8.5h-302zM240.996 0.00195312c-19.333 0 -35.6699 4.66895 -49.0029 14.002
s-23.166 22 -29.499 38s-9.5 34.667 -9.5 56v19c0 30 7.66699 53.667 23 71s37 26 65 26h302c6 0 11.5 -1.33301 16.5 -4s8.83301 -6.83398 11.5 -12.501s4.83398 -10.834 6.50098 -15.501s2.83398 -11.667 3.50098 -21l1.5 -21.5c0.333008 -5 0.5 -12.5 0.5 -22.5v-19v-5
c0 -16 -0.333008 -28.333 -1 -37s-2 -19 -4 -31s-6 -20.833 -12 -26.5s-13.667 -8.5 -23 -8.5h-302zM-7.00781 0.00390625c-19.333 0 -35.6699 4.66895 -49.0029 14.002s-23.166 22 -29.499 38s-9.5 34.667 -9.5 56v19c0 30 7.66699 53.667 23 71s37 26 65 26h302
c6 0 11.5 -1.33301 16.5 -4s8.83301 -6.83398 11.5 -12.501s4.83398 -10.834 6.50098 -15.501s2.83398 -11.667 3.50098 -21l1.5 -21.5c0.333008 -5 0.5 -12.5 0.5 -22.5v-19v-5c0 -16 -0.333008 -28.333 -1 -37s-2 -19 -4 -31s-6 -20.833 -12 -26.5s-13.667 -8.5 -23 -8.5
h-302zM531.988 1454.01c-40.667 0 -73.999 1.66406 -99.999 4.99707l-26 3c-85.333 -118 -208 -181 -368 -189l-10 -1v11v78v10h9c115.333 4.66699 202.333 44.667 261 120c-25.333 6.66699 -51 17.334 -77 32.001c-61.333 34 -92 81.667 -92 143
c0.666992 22 4.16699 42.5 10.5 61.5s15.5 36.167 27.5 51.5c32.667 39.333 77.667 59 135 59c14 0 27.667 -1.33301 41 -4s25.833 -7 37.5 -13s22.834 -13 33.501 -21c7.33301 -6 14.166 -12.667 20.499 -20s12 -15.166 17 -23.499s9.16699 -16.833 12.5 -25.5
c7.33301 -20 11 -42 11 -66c-0.666992 -12 -1.83398 -24.167 -3.50098 -36.5s-4 -24.666 -7 -36.999s-6.83301 -24.5 -11.5 -36.5l6 -1c13.333 -0.666992 26 -1.16699 38 -1.5s23.333 -0.5 34 -0.5l11 1v-11v-78v-10h-10zM352.989 1572l2.99902 5.99902
c13.333 30.667 20 59.334 20 86.001c0 24 -7 42 -21 54c-3.33301 2.66699 -6.5 5 -9.5 7s-6.16699 3.83301 -9.5 5.5s-6.66602 3 -9.99902 4s-6.66602 1.66699 -9.99902 2s-6.66602 0.5 -9.99902 0.5c-26.667 0.666992 -47.334 -8.33301 -62.001 -27
c-10 -13.333 -15 -29.333 -15 -48c0 -27.333 20 -50 60 -68c13.333 -6.66699 34.666 -14 63.999 -22z" />
    <glyph glyph-name="uniFE7B" unicode="&#xfe7b;" horiz-adv-x="791" arabic-form="medial" 
d="M499 0c-19.333 0 -35.6699 4.66895 -49.0029 14.002s-23.166 22 -29.499 38s-9.5 34.667 -9.5 56v19c0 30 7.66699 53.667 23 71s37 26 65 26h302c6 0 11.5 -1.33301 16.5 -4s8.83301 -6.83398 11.5 -12.501s4.83398 -10.834 6.50098 -15.501
s2.83398 -11.667 3.50098 -21l1.5 -21.5c0.333008 -5 0.5 -12.5 0.5 -22.5v-19v-5c0 -16 -0.333008 -28.333 -1 -37s-2 -19 -4 -31s-6 -20.833 -12 -26.5s-13.667 -8.5 -23 -8.5h-302zM240.996 0.00195312c-19.333 0 -35.6699 4.66895 -49.0029 14.002
s-23.166 22 -29.499 38s-9.5 34.667 -9.5 56v19c0 30 7.66699 53.667 23 71s37 26 65 26h302c6 0 11.5 -1.33301 16.5 -4s8.83301 -6.83398 11.5 -12.501s4.83398 -10.834 6.50098 -15.501s2.83398 -11.667 3.50098 -21l1.5 -21.5c0.333008 -5 0.5 -12.5 0.5 -22.5v-19v-5
c0 -16 -0.333008 -28.333 -1 -37s-2 -19 -4 -31s-6 -20.833 -12 -26.5s-13.667 -8.5 -23 -8.5h-302zM-7.00781 0.00390625c-19.333 0 -35.6699 4.66895 -49.0029 14.002s-23.166 22 -29.499 38s-9.5 34.667 -9.5 56v19c0 30 7.66699 53.667 23 71s37 26 65 26h302
c6 0 11.5 -1.33301 16.5 -4s8.83301 -6.83398 11.5 -12.501s4.83398 -10.834 6.50098 -15.501s2.83398 -11.667 3.50098 -21l1.5 -21.5c0.333008 -5 0.5 -12.5 0.5 -22.5v-19v-5c0 -16 -0.333008 -28.333 -1 -37s-2 -19 -4 -31s-6 -20.833 -12 -26.5s-13.667 -8.5 -23 -8.5
h-302zM51.9883 -451.994v104v7l6 2l456 187l13 5v-15v-103v-7l-6 -3l-455 -186l-14 -5v14z" />
    <glyph glyph-name="uniFE7D" unicode="&#xfe7d;" horiz-adv-x="791" arabic-form="medial" 
d="M499 0c-19.333 0 -35.6699 4.66895 -49.0029 14.002s-23.166 22 -29.499 38s-9.5 34.667 -9.5 56v19c0 30 7.66699 53.667 23 71s37 26 65 26h302c6 0 11.5 -1.33301 16.5 -4s8.83301 -6.83398 11.5 -12.501s4.83398 -10.834 6.50098 -15.501
s2.83398 -11.667 3.50098 -21l1.5 -21.5c0.333008 -5 0.5 -12.5 0.5 -22.5v-19v-5c0 -16 -0.333008 -28.333 -1 -37s-2 -19 -4 -31s-6 -20.833 -12 -26.5s-13.667 -8.5 -23 -8.5h-302zM240.996 0.00195312c-19.333 0 -35.6699 4.66895 -49.0029 14.002
s-23.166 22 -29.499 38s-9.5 34.667 -9.5 56v19c0 30 7.66699 53.667 23 71s37 26 65 26h302c6 0 11.5 -1.33301 16.5 -4s8.83301 -6.83398 11.5 -12.501s4.83398 -10.834 6.50098 -15.501s2.83398 -11.667 3.50098 -21l1.5 -21.5c0.333008 -5 0.5 -12.5 0.5 -22.5v-19v-5
c0 -16 -0.333008 -28.333 -1 -37s-2 -19 -4 -31s-6 -20.833 -12 -26.5s-13.667 -8.5 -23 -8.5h-302zM-7.00781 0.00390625c-19.333 0 -35.6699 4.66895 -49.0029 14.002s-23.166 22 -29.499 38s-9.5 34.667 -9.5 56v19c0 30 7.66699 53.667 23 71s37 26 65 26h302
c6 0 11.5 -1.33301 16.5 -4s8.83301 -6.83398 11.5 -12.501s4.83398 -10.834 6.50098 -15.501s2.83398 -11.667 3.50098 -21l1.5 -21.5c0.333008 -5 0.5 -12.5 0.5 -22.5v-19v-5c0 -16 -0.333008 -28.333 -1 -37s-2 -19 -4 -31s-6 -20.833 -12 -26.5s-13.667 -8.5 -23 -8.5
h-302zM336.988 1769.01c0.666992 -14 1.16992 -27.8301 1.50293 -41.4971s0.833008 -27.5 1.5 -41.5c-0.666992 -29.333 3.66602 -50.333 12.999 -63s23.666 -19 42.999 -19c20 0 35 7.33301 45 22s15.333 37.667 16 69c0 3.33301 -0.166992 6.66602 -0.5 9.99902
s-0.666016 7 -0.999023 11l-1 12.5c-0.333008 4.33301 -0.833008 9 -1.5 14s-1.5 10 -2.5 15s-2 10.333 -3 16s-2.16699 11.667 -3.5 18l-4 19.5l-2 10l11 2l88 14l8 1l3 -8c12 -42.667 18 -84.334 18 -125.001c0 -69.333 -13.167 -122.166 -39.5 -158.499
s-65.5 -54.5 -117.5 -54.5c-39.333 -0.666992 -73.333 13.666 -102 42.999c-24.667 -71.333 -76.667 -107 -156 -107c-48 0 -84.333 15.167 -109 45.5s-37.667 74.5 -39 132.5c-0.666992 40.667 3.66602 78 12.999 112l3 9l9 -1l78 -13l10 -2l-2 -10
c-6.66699 -30.667 -9.66699 -57.667 -9 -81c0 -26 4.66699 -44.833 14 -56.5s24 -17.5 44 -17.5c24 0 42.333 8.16699 55 24.5s19.667 42.833 21 79.5c1.33301 33.333 1.66602 72.666 0.999023 117.999v10h10h77h10v-9z" />
    <glyph glyph-name="uniFE7F" unicode="&#xfe7f;" horiz-adv-x="791" arabic-form="medial" 
d="M499 0c-19.333 0 -35.6699 4.66895 -49.0029 14.002s-23.166 22 -29.499 38s-9.5 34.667 -9.5 56v19c0 30 7.66699 53.667 23 71s37 26 65 26h302c6 0 11.5 -1.33301 16.5 -4s8.83301 -6.83398 11.5 -12.501s4.83398 -10.834 6.50098 -15.501
s2.83398 -11.667 3.50098 -21l1.5 -21.5c0.333008 -5 0.5 -12.5 0.5 -22.5v-19v-5c0 -16 -0.333008 -28.333 -1 -37s-2 -19 -4 -31s-6 -20.833 -12 -26.5s-13.667 -8.5 -23 -8.5h-302zM240.996 0.00195312c-19.333 0 -35.6699 4.66895 -49.0029 14.002
s-23.166 22 -29.499 38s-9.5 34.667 -9.5 56v19c0 30 7.66699 53.667 23 71s37 26 65 26h302c6 0 11.5 -1.33301 16.5 -4s8.83301 -6.83398 11.5 -12.501s4.83398 -10.834 6.50098 -15.501s2.83398 -11.667 3.50098 -21l1.5 -21.5c0.333008 -5 0.5 -12.5 0.5 -22.5v-19v-5
c0 -16 -0.333008 -28.333 -1 -37s-2 -19 -4 -31s-6 -20.833 -12 -26.5s-13.667 -8.5 -23 -8.5h-302zM-7.00781 0.00390625c-19.333 0 -35.6699 4.66895 -49.0029 14.002s-23.166 22 -29.499 38s-9.5 34.667 -9.5 56v19c0 30 7.66699 53.667 23 71s37 26 65 26h302
c6 0 11.5 -1.33301 16.5 -4s8.83301 -6.83398 11.5 -12.501s4.83398 -10.834 6.50098 -15.501s2.83398 -11.667 3.50098 -21l1.5 -21.5c0.333008 -5 0.5 -12.5 0.5 -22.5v-19v-5c0 -16 -0.333008 -28.333 -1 -37s-2 -19 -4 -31s-6 -20.833 -12 -26.5s-13.667 -8.5 -23 -8.5
h-302zM106.988 1462.01c0 57.333 19.833 105.833 59.5 145.5s88.167 59.5 145.5 59.5s106 -20 146 -60c20 -19.333 35 -41.333 45 -66s15 -51 15 -79c0 -57.333 -20 -106 -60 -146c-20 -20 -42.167 -35 -66.5 -45s-50.833 -15 -79.5 -15c-57.333 0 -105.833 20 -145.5 60
s-59.5 88.667 -59.5 146zM213.988 1461.01c-0.666992 -28.667 9.00098 -52.667 29.001 -72c19.333 -20 43.333 -30 72 -30c28 0 52 10 72 30c6.66699 6 12.167 12.833 16.5 20.5s7.66602 15.667 9.99902 24s3.5 17.5 3.5 27.5c-0.666992 28 -10.667 52 -30 72
c-20 19.333 -44 29 -72 29c-28.667 0 -52.667 -9.66699 -72 -29c-20 -20 -29.667 -44 -29 -72z" />
    <glyph glyph-name="uniFE80" unicode="&#x621;" horiz-adv-x="868" arabic-form="isolated" 
d="M98 32l-0.000976562 177.999v11l9 6c58 37.333 112 65.666 162 84.999c-100.667 64 -151 147 -151 249c0.666992 94.667 26.334 171.334 77.001 230.001c72 83.333 165.333 125 280 125c117.333 0 208 -32 272 -96l9 -10l-5 -12l-56 -138l-10 -23l-21 15
c-48.667 35.333 -107.667 53 -177 53c-26.667 -0.666992 -50.167 -4.66699 -70.5 -12s-37.833 -18 -52.5 -32c-26.667 -25.333 -40 -58.666 -40 -99.999c0 -24 12.667 -48.667 38 -74s64.333 -50.333 117 -75l246 56l21 5l3 -21l28 -173l3 -20l-21 -3
c-165.333 -19.333 -376 -100 -632 -242l-29 -16v34z" />
    <glyph glyph-name="uniFE81" unicode="&#x622;" horiz-adv-x="683" arabic-form="isolated" 
d="M249 1293.01h173h20v-17.9824v-1256.14v-17.9834h-20h-173h-20v17.9834v1256.14v17.9824h20zM252 1489c-74 10 -141.667 -21.332 -203 -93.999l-101 126c78.667 113.333 174.667 161 288 143l149 -24c66 -10.667 139 4.66602 219 45.999l66 -157
c-86 -53.333 -178.333 -73.333 -277 -60z" />
    <glyph glyph-name="uniFE82" unicode="&#x622;" horiz-adv-x="571" arabic-form="final" 
d="M252 1489c-74 10 -141.667 -21.332 -203 -93.999l-101 126c78.667 113.333 174.667 161 288 143l149 -24c66 -10.667 139 4.66602 219 45.999l66 -157c-86 -53.333 -178.333 -73.333 -277 -60zM609 108.001c0.666992 -12 0.666992 -24.3311 0 -36.998
s-2 -24.334 -4 -35.001s-6 -19.334 -12 -26.001s-14 -10 -24 -10h-21c-134.667 0 -236.334 38.5 -305.001 115.5s-103 189.833 -103 338.5v754v20h20h174h20v-20v-752c0 -79.333 16 -138 48 -176c32 -37.333 81.667 -56 149 -56h18c6 0 11.667 -1.33301 17 -4
c4.66699 -2.66699 8.33398 -6.66699 11.001 -12l7 -16c1.33301 -4.66699 2.33301 -11.667 3 -21s1 -16.333 1 -21c0.666992 -2 1 -9.66699 1 -23v-19z" />
    <glyph glyph-name="uniFE83" unicode="&#x623;" horiz-adv-x="487" arabic-form="isolated" 
d="M166 1230.32h173h20v-17.084v-1193.3v-17.083h-20h-173h-20v17.083v1193.3v17.084h20zM102 1459c-41.333 38.667 -61.999 90.333 -61.999 155c0 61.333 20.333 113.666 61 156.999c48.667 50.667 110.334 76 185.001 76c52 0 100.667 -14.667 146 -44l5 -3v-5l1 -132v-19
l-16 11c-10 6.66699 -20 12.334 -30 17.001s-20.333 8.66699 -31 12c-10 3.33301 -20 6 -30 8c-10.667 1.33301 -21 2 -31 2c-20 0 -37.333 -2.66699 -52 -8c-15.333 -5.33301 -28 -13 -38 -23c-2.66699 -2.66699 -5.16699 -5.66699 -7.5 -9l-6.5 -9
c-2 -3.33301 -3.66699 -6.66602 -5 -9.99902c-1.33301 -4 -2.33301 -7.66699 -3 -11s-1.33398 -7 -2.00098 -11s-1 -8 -1 -12c0.666992 -17.333 8 -33 22 -47c14.667 -14 36.667 -26.667 66 -38c7.33301 -2.66699 13.666 -3.33398 18.999 -2.00098l140 27l12 3v-12v-126v-8
l-8 -2l-406 -98l-13 -3v13v123v8l8 2z" />
    <glyph glyph-name="uniFE84" unicode="&#x623;" horiz-adv-x="571" arabic-form="final" 
d="M112 1459c-41.333 38.667 -61.999 90.333 -61.999 155c0 61.333 20.333 113.666 61 156.999c48.667 50.667 110.334 76 185.001 76c52 0 100.667 -14.667 146 -44l5 -3v-5l1 -132v-19l-16 11c-10 6.66699 -20 12.334 -30 17.001s-20.333 8.66699 -31 12
c-10 3.33301 -20 6 -30 8c-10.667 1.33301 -21 2 -31 2c-20 0 -37.333 -2.66699 -52 -8c-15.333 -5.33301 -28 -13 -38 -23c-2.66699 -2.66699 -5.16699 -5.66699 -7.5 -9l-6.5 -9c-2 -3.33301 -3.66699 -6.66602 -5 -9.99902c-1.33301 -4 -2.33301 -7.66699 -3 -11
s-1.33398 -7 -2.00098 -11s-1 -8 -1 -12c0.666992 -17.333 8 -33 22 -47c14.667 -14 36.667 -26.667 66 -38c7.33301 -2.66699 13.666 -3.33398 18.999 -2.00098l140 27l12 3v-12v-126v-8l-8 -2l-406 -98l-13 -3v13v123v8l8 2zM609.001 107.999
c0.666992 -12 0.666992 -24.3311 0 -36.998s-2 -24.334 -4 -35.001s-6 -19.334 -12 -26.001s-14 -10 -24 -10h-21c-134.667 0 -236.334 38.5 -305.001 115.5s-103 189.833 -103 338.5v754v20h20h174h20v-20v-752c0 -79.333 16 -138 48 -176c32 -37.333 81.667 -56 149 -56
h18c6 0 11.667 -1.33301 17 -4c4.66699 -2.66699 8.33398 -6.66699 11.001 -12l7 -16c1.33301 -4.66699 2.33301 -11.667 3 -21s1 -16.333 1 -21c0.666992 -2 1 -9.66699 1 -23v-19z" />
    <glyph glyph-name="uniFE85" unicode="&#x624;" horiz-adv-x="900" arabic-form="isolated" 
d="M310 986c-41.333 38.667 -61.999 90.333 -61.999 155c0 61.333 20.333 113.666 61 156.999c48.667 50.667 110.334 76 185.001 76c52 0 100.667 -14.667 146 -44l5 -3v-5l1 -132v-19l-16 11c-10 6.66699 -20 12.334 -30 17.001s-20.333 8.66699 -31 12
c-10 3.33301 -20 6 -30 8c-10.667 1.33301 -21 2 -31 2c-20 0 -37.333 -2.66699 -52 -8c-15.333 -5.33301 -28 -13 -38 -23c-2.66699 -2.66699 -5.16699 -5.66699 -7.5 -9l-6.5 -9c-2 -3.33301 -3.66699 -6.66602 -5 -9.99902c-1.33301 -4 -2.33301 -7.66699 -3 -11
s-1.33398 -7 -2.00098 -11s-1 -8 -1 -12c0.666992 -17.333 8 -33 22 -47c14.667 -14 36.667 -26.667 66 -38c7.33301 -2.66699 13.666 -3.33398 18.999 -2.00098l140 27l12 3v-12v-126v-8l-8 -2l-406 -98l-13 -3v13v123v8l8 2zM610.001 235.999
c-16 199.333 -73.668 298.999 -173.001 298.999c-54.667 0 -94 -35.667 -118 -107c-5.33301 -16.667 -9.5 -33 -12.5 -49s-4.5 -31.333 -4.5 -46c0 -40 13.833 -69.5 41.5 -88.5s72.834 -28.5 135.501 -28.5c42 0.666992 85.667 7.33398 131 20.001zM478 -2.00195
c-125.333 0 -220.831 27.001 -286.498 81.001s-98.5 133.667 -98.5 239c0 84 18 163.333 54 238c66 138.667 166.667 208 302 208c145.333 0 249 -80.667 311 -242c41.333 -107.333 61.666 -228 60.999 -362c-1.33301 -192 -61.333 -342.333 -180 -451s-294 -175 -526 -199
l-17 -2l-4 17l-43 170l-5 23l23 2c288.667 29.333 464.667 125.666 528 288.999c-21.333 -2.66699 -39.5 -4.66699 -54.5 -6l-38.5 -3.5c-10.667 -1 -19.334 -1.5 -26.001 -1.5z" />
    <glyph glyph-name="uniFE86" unicode="&#x624;" horiz-adv-x="893" arabic-form="final" 
d="M609 224c-16.667 206.667 -74.001 310.334 -172.001 311.001c-53.333 0.666992 -92.666 -35 -117.999 -107c-11.333 -32.667 -17 -64.334 -17 -95.001c0 -36.667 13.167 -64 39.5 -82s68.833 -27 127.5 -27h140zM815.999 223l84.9971 -0.000976562
c24.667 0 38 -24 40 -72v-33v-10v-6c0 -16 -0.166992 -28.333 -0.5 -37s-1.66602 -19 -3.99902 -31s-6.5 -20.667 -12.5 -26s-13.667 -8 -23 -8l-96 1c-57.333 -287.333 -287 -451 -689 -491l-17 -2l-4 17l-43 171l-5 23l23 2c291.333 32 467 125 527 279h-118
c-126 0 -221.833 26.833 -287.5 80.5s-98.5 132.834 -98.5 237.501c0 84 18 163.333 54 238c66 138.667 166.667 208 302 208c106.667 0 190.334 -46 251.001 -138s99.334 -226.333 116.001 -403zM309.996 985.999c-41.333 38.667 -61.999 90.333 -61.999 155
c0 61.333 20.333 113.666 61 156.999c48.667 50.667 110.334 76 185.001 76c52 0 100.667 -14.667 146 -44l5 -3v-5l1 -132v-19l-16 11c-10 6.66699 -20 12.334 -30 17.001s-20.333 8.66699 -31 12c-10 3.33301 -20 6 -30 8c-10.667 1.33301 -21 2 -31 2
c-20 0 -37.333 -2.66699 -52 -8c-15.333 -5.33301 -28 -13 -38 -23c-2.66699 -2.66699 -5.16699 -5.66699 -7.5 -9l-6.5 -9c-2 -3.33301 -3.66699 -6.66602 -5 -9.99902c-1.33301 -4 -2.33301 -7.66699 -3 -11s-1.33398 -7 -2.00098 -11s-1 -8 -1 -12
c0.666992 -17.333 8 -33 22 -47c14.667 -14 36.667 -26.667 66 -38c7.33301 -2.66699 13.666 -3.33398 18.999 -2.00098l140 27l12 3v-12v-126v-8l-8 -2l-406 -98l-13 -3v13v123v8l8 2z" />
    <glyph glyph-name="uniFE87" unicode="&#x625;" horiz-adv-x="487" arabic-form="isolated" 
d="M107 -505c-41.333 38.667 -61.999 90.333 -61.999 155c0 61.333 20.333 113.666 61 156.999c48.667 50.667 110.334 76 185.001 76c52 0 100.667 -14.667 146 -44l5 -3v-5l1 -132v-19l-16 11c-10 6.66699 -20 12.334 -30 17.001s-20.333 8.66699 -31 12
c-10 3.33301 -20 6 -30 8c-10.667 1.33301 -21 2 -31 2c-20 0 -37.333 -2.66699 -52 -8c-15.333 -5.33301 -28 -13 -38 -23c-2.66699 -2.66699 -5.16699 -5.66699 -7.5 -9l-6.5 -9c-2 -3.33301 -3.66699 -6.66602 -5 -9.99902c-1.33301 -4 -2.33301 -7.66699 -3 -11
s-1.33398 -7 -2.00098 -11s-1 -8 -1 -12c0.666992 -17.333 8 -33 22 -47c14.667 -14 36.667 -26.667 66 -38c7.33301 -2.66699 13.666 -3.33398 18.999 -2.00098l140 27l12 3v-12v-126v-8l-8 -2l-406 -98l-13 -3v13v123v8l8 2zM161.001 1438h173h20v-20v-1397v-20h-20h-173
h-20v20v1397v20h20z" />
    <glyph glyph-name="uniFE88" unicode="&#x625;" horiz-adv-x="561" arabic-form="final" 
d="M609 108c0.666992 -12 0.666992 -24.3311 0 -36.998s-2 -24.334 -4 -35.001s-6 -19.334 -12 -26.001s-14 -10 -24 -10h-21c-134.667 0 -236.334 38.5 -305.001 115.5s-103 189.833 -103 338.5v964v20h20h174h20v-20v-962c0 -79.333 16 -138 48 -176
c32 -37.333 81.667 -56 149 -56h18c6 0 11.667 -1.33301 17 -4c4.66699 -2.66699 8.33398 -6.66699 11.001 -12l7 -16c1.33301 -4.66699 2.33301 -11.667 3 -21s1 -16.333 1 -21c0.666992 -2 1 -9.66699 1 -23v-19zM176 -498.998c-41.333 38.667 -61.999 90.333 -61.999 155
c0 61.333 20.333 113.666 61 156.999c48.667 50.667 110.334 76 185.001 76c52 0 100.667 -14.667 146 -44l5 -3v-5l1 -132v-19l-16 11c-10 6.66699 -20 12.334 -30 17.001s-20.333 8.66699 -31 12c-10 3.33301 -20 6 -30 8c-10.667 1.33301 -21 2 -31 2
c-20 0 -37.333 -2.66699 -52 -8c-15.333 -5.33301 -28 -13 -38 -23c-2.66699 -2.66699 -5.16699 -5.66699 -7.5 -9l-6.5 -9c-2 -3.33301 -3.66699 -6.66602 -5 -9.99902c-1.33301 -4 -2.33301 -7.66699 -3 -11s-1.33398 -7 -2.00098 -11s-1 -8 -1 -12
c0.666992 -17.333 8 -33 22 -47c14.667 -14 36.667 -26.667 66 -38c7.33301 -2.66699 13.666 -3.33398 18.999 -2.00098l140 27l12 3v-12v-126v-8l-8 -2l-406 -98l-13 -3v13v123v8l8 2z" />
    <glyph glyph-name="uniFE89" unicode="&#x626;" horiz-adv-x="1524" arabic-form="isolated" 
d="M362 782c-41.333 38.667 -61.999 90.333 -61.999 155c0 61.333 20.333 113.666 61 156.999c48.667 50.667 110.334 76 185.001 76c52 0 100.667 -14.667 146 -44l5 -3v-5l1 -132v-19l-16 11c-10 6.66699 -20 12.334 -30 17.001s-20.333 8.66699 -31 12
c-10 3.33301 -20 6 -30 8c-10.667 1.33301 -21 2 -31 2c-20 0 -37.333 -2.66699 -52 -8c-15.333 -5.33301 -28 -13 -38 -23c-2.66699 -2.66699 -5.16699 -5.66699 -7.5 -9l-6.5 -9c-2 -3.33301 -3.66699 -6.66602 -5 -9.99902c-1.33301 -4 -2.33301 -7.66699 -3 -11
s-1.33398 -7 -2.00098 -11s-1 -8 -1 -12c0.666992 -17.333 8 -33 22 -47c14.667 -14 36.667 -26.667 66 -38c7.33301 -2.66699 13.666 -3.33398 18.999 -2.00098l140 27l12 3v-12v-126v-8l-8 -2l-406 -98l-13 -3v13v123v8l8 2zM298.001 60.999
c0 -76.667 16.167 -140.332 48.5 -190.999s82 -88.834 149 -114.501s152.167 -38.834 255.5 -39.501c116 0 219.333 21 310 63c46 22 86.667 50.667 122 86c32.667 34 49 72.333 49 115c0 12.667 -4.16699 22 -12.5 28s-23.833 9 -46.5 9l-113 1
c-86.667 0 -153.167 18.5 -199.5 55.5s-69.5 91.5 -69.5 163.5c0 131.333 41.667 242.666 125 333.999c107.333 116.667 257.666 175 450.999 175h21h20v-20v-193v-20h-20h-22c-51.333 0 -98.166 -5.83301 -140.499 -17.5s-79.833 -29.167 -112.5 -52.5
c-66 -46 -99.667 -101.667 -101 -167c0 -14 3 -23 9 -27c7.33301 -6.66699 21 -10 41 -10h119c41.333 0.666992 78 -3.66602 110 -12.999s58.833 -23.166 80.5 -41.499s38.167 -41.333 49.5 -69s17 -59.5 17 -95.5c0 -202 -100 -348.667 -300 -440
c-115.333 -52.667 -246 -79 -392 -79c-218 0 -383 46.667 -495 140s-168 232.333 -168 417c0 146 47 325 141 537l8 18l18 -7l159 -66l19 -7l-9 -19c-80.667 -183.333 -121 -334.333 -121 -453z" />
    <glyph glyph-name="uniFE8A" unicode="&#x626;" horiz-adv-x="1523" arabic-form="final" 
d="M1529 224c6.66699 0 12.4971 -1.33008 17.4971 -3.99707s8.83301 -6.83398 11.5 -12.501s4.83398 -10.834 6.50098 -15.501s2.83398 -11.667 3.50098 -21l1.5 -21.5c0.333008 -5 0.5 -12.5 0.5 -22.5v-19v-4c0 -6 -0.166992 -12.167 -0.5 -18.5s-0.5 -12.5 -0.5 -18.5
s-0.333008 -11.833 -1 -17.5s-1.66699 -11 -3 -16s-3 -9.5 -5 -13.5s-4.33301 -7.5 -7 -10.5s-6 -5.33301 -10 -7s-8.66699 -2.5 -14 -2.5h-119c19.333 -26.667 29 -57.667 29 -93c0 -109.333 -63.333 -205 -190 -287c-35.333 -22.667 -72.5 -42.667 -111.5 -60
s-79.333 -31.833 -121 -43.5s-85 -20.334 -130 -26.001s-91.833 -8.5 -140.5 -8.5c-218 0 -383 45 -495 135s-168 224.333 -168 403c0 144.667 34.333 292 103 442l8 17l18 -7l159 -66l18 -7l-7 -19c-56 -140.667 -84 -256.667 -84 -348c0 -112 36.5 -195.667 109.5 -251
s185.5 -83 337.5 -83c114.667 0 217.334 21 308.001 63c36.667 16 68 34 94 54s46.333 41.333 61 64c13.333 20 20 38.667 20 56c0 34.667 -21.667 55.334 -65 62.001c-13.333 2.66699 -29 4 -47 4h-153h-1h-1c-48 5.33301 -80.333 41.666 -97 108.999
c-3.33301 15.333 -5.83301 28.333 -7.5 39s-2.5 20 -2.5 28c0 24.667 8 40 24 46l3 1h4h644zM482.997 601.003c-41.333 38.667 -61.999 90.333 -61.999 155c0 61.333 20.333 113.666 61 156.999c48.667 50.667 110.334 76 185.001 76c52 0 100.667 -14.667 146 -44l5 -3v-5
l1 -132v-19l-16 11c-10 6.66699 -20 12.334 -30 17.001s-20.333 8.66699 -31 12c-10 3.33301 -20 6 -30 8c-10.667 1.33301 -21 2 -31 2c-20 0 -37.333 -2.66699 -52 -8c-15.333 -5.33301 -28 -13 -38 -23c-2.66699 -2.66699 -5.16699 -5.66699 -7.5 -9l-6.5 -9
c-2 -3.33301 -3.66699 -6.66602 -5 -9.99902c-1.33301 -4 -2.33301 -7.66699 -3 -11s-1.33398 -7 -2.00098 -11s-1 -8 -1 -12c0.666992 -17.333 8 -33 22 -47c14.667 -14 36.667 -26.667 66 -38c7.33301 -2.66699 13.666 -3.33398 18.999 -2.00098l140 27l12 3v-12v-126v-8
l-8 -2l-406 -98l-13 -3v13v123v8l8 2z" />
    <glyph glyph-name="uniFE8B" unicode="&#x626;" horiz-adv-x="646" arabic-form="initial" 
d="M69 0l-76 -0.000976562c-26 0 -45.5 9.83301 -58.5 29.5s-19.5 45.834 -19.5 78.501v19c0 29.333 6.66699 52.833 20 70.5s32.666 26.5 57.999 26.5h76c51.333 0 94.5 2.66699 129.5 8s60.833 12.333 77.5 21c50 29.333 75 93.333 75 192c0 78 -12 164.667 -36 260l-5 19
l19 5l164 41l18 5l6 -18c32.667 -106 49 -209 49 -309c0 -170 -49.333 -292.333 -148 -367c-71.333 -54 -187.666 -81 -348.999 -81zM161 987.999c-41.333 38.667 -61.999 90.333 -61.999 155c0 61.333 20.333 113.666 61 156.999c48.667 50.667 110.334 76 185.001 76
c52 0 100.667 -14.667 146 -44l5 -3v-5l1 -132v-19l-16 11c-10 6.66699 -20 12.334 -30 17.001s-20.333 8.66699 -31 12c-10 3.33301 -20 6 -30 8c-10.667 1.33301 -21 2 -31 2c-20 0 -37.333 -2.66699 -52 -8c-15.333 -5.33301 -28 -13 -38 -23
c-2.66699 -2.66699 -5.16699 -5.66699 -7.5 -9l-6.5 -9c-2 -3.33301 -3.66699 -6.66602 -5 -9.99902c-1.33301 -4 -2.33301 -7.66699 -3 -11s-1.33398 -7 -2.00098 -11s-1 -8 -1 -12c0.666992 -17.333 8 -33 22 -47c14.667 -14 36.667 -26.667 66 -38
c7.33301 -2.66699 13.666 -3.33398 18.999 -2.00098l140 27l12 3v-12v-126v-8l-8 -2l-406 -98l-13 -3v13v123v8l8 2z" />
    <glyph glyph-name="uniFE8C" unicode="&#x626;" horiz-adv-x="717" arabic-form="medial" 
d="M765 108l-0.000976562 -5.99902c0 -16 -0.333008 -28.333 -1 -37s-2 -18.834 -4 -30.501s-6 -20.334 -12 -26.001s-13.667 -8.5 -23 -8.5h-10c-127.333 0 -219 42 -275 126c-72 -84 -186.667 -126 -344 -126h-104c-26 0 -45.333 9.83301 -58 29.5s-19 45.834 -19 78.501
v19c0 29.333 6.5 52.833 19.5 70.5s32.167 26.5 57.5 26.5h99c142.667 0 221.334 38.667 236.001 116c4 22 6 48.333 6 79c0 32.667 -1 63.667 -3 93l-5 82l-2 19l19 2l165 20l21 2l1 -21l16 -231c2.66699 -37.333 10.667 -67.833 24 -91.5s32 -41.167 56 -52.5
s54.667 -17 92 -17h8c9.33301 0 17 -2.66699 23 -8s10 -14 12 -26s3.33301 -22.167 4 -30.5s1 -20.5 1 -36.5v-5v-10zM187.999 882.001c-41.333 38.667 -61.999 90.333 -61.999 155c0 61.333 20.333 113.666 61 156.999c48.667 50.667 110.334 76 185.001 76
c52 0 100.667 -14.667 146 -44l5 -3v-5l1 -132v-19l-16 11c-10 6.66699 -20 12.334 -30 17.001s-20.333 8.66699 -31 12c-10 3.33301 -20 6 -30 8c-10.667 1.33301 -21 2 -31 2c-20 0 -37.333 -2.66699 -52 -8c-15.333 -5.33301 -28 -13 -38 -23
c-2.66699 -2.66699 -5.16699 -5.66699 -7.5 -9l-6.5 -9c-2 -3.33301 -3.66699 -6.66602 -5 -9.99902c-1.33301 -4 -2.33301 -7.66699 -3 -11s-1.33398 -7 -2.00098 -11s-1 -8 -1 -12c0.666992 -17.333 8 -33 22 -47c14.667 -14 36.667 -26.667 66 -38
c7.33301 -2.66699 13.666 -3.33398 18.999 -2.00098l140 27l12 3v-12v-126v-8l-8 -2l-406 -98l-13 -3v13v123v8l8 2z" />
    <glyph glyph-name="uniFE8D" unicode="&#x627;" horiz-adv-x="487" arabic-form="isolated" 
d="M161 1438h173h20v-20v-1397v-20h-20h-173h-20v20v1397v20h20z" />
    <glyph glyph-name="uniFE8E" unicode="&#x627;" horiz-adv-x="561" arabic-form="final" 
d="M609 108c0.666992 -12 0.666992 -24.3311 0 -36.998s-2 -24.334 -4 -35.001s-6 -19.334 -12 -26.001s-14 -10 -24 -10h-21c-134.667 0 -236.334 38.5 -305.001 115.5s-103 189.833 -103 338.5v964v20h20h174h20v-20v-962c0 -79.333 16 -138 48 -176
c32 -37.333 81.667 -56 149 -56h18c6 0 11.667 -1.33301 17 -4c4.66699 -2.66699 8.33398 -6.66699 11.001 -12l7 -16c1.33301 -4.66699 2.33301 -11.667 3 -21s1 -16.333 1 -21c0.666992 -2 1 -9.66699 1 -23v-19z" />
    <glyph glyph-name="uniFE8F" unicode="&#x628;" horiz-adv-x="1837" arabic-form="isolated" 
d="M891 0c-266.667 0 -468.501 42.002 -605.501 126.002s-205.5 210.667 -205.5 380c0 92.667 18.667 181 56 265l9 18l18 -8l157 -68l18 -8l-7 -18c-21.333 -53.333 -32 -104 -32 -152c0 -102.667 46.833 -180.167 140.5 -232.5s237.834 -78.5 432.501 -78.5
c329.333 0 536 30.667 620 92c37.333 27.333 56 77 56 149c0 58.667 -12 139 -36 241l-4 19l19 5l163 41l18 5l6 -18c34 -102.667 51 -195.334 51 -278.001c0 -164.667 -49 -281.334 -147 -350.001c-124 -86.667 -365.333 -130 -724 -130h-3zM784.712 -309.304
l145.513 145.513l7.48926 7.48926l7.48926 -7.48926l146.583 -146.583l7.48926 -7.48926l-7.48926 -7.49023l-145.513 -145.513l-7.48926 -7.48926l-7.49023 7.48926l-146.582 146.583l-7.49023 7.48926z" />
    <glyph glyph-name="uniFE90" unicode="&#x628;" horiz-adv-x="1931" arabic-form="final" 
d="M890 0c-266.667 0 -468.501 41.999 -605.501 125.999s-205.5 210.667 -205.5 380c0 92.667 18.667 181 56 265l9 18l18 -8l157 -68l18 -8l-7 -18c-21.333 -54 -32 -105.333 -32 -154c0 -206 195.667 -309 587 -309c85.333 0 163.166 2.83301 233.499 8.5
s131.5 13.834 183.5 24.501s95.667 23.5 131 38.5s62 32.5 80 52.5c9.33301 9.33301 16.5 23 21.5 41s7.5 40.333 7.5 67v21c0 6.66699 -0.166992 12.834 -0.5 18.501s-0.5 10.834 -0.5 15.501l-6 82l-1 19l19 2l164 20l21 2l2 -21l16 -215c4 -52 19 -95 45 -129
c25.333 -31.333 67 -47 125 -47h13c6.66699 0 12.334 -1.33301 17.001 -4s8.5 -6.83398 11.5 -12.501s5.33301 -10.834 7 -15.501s2.83398 -11.667 3.50098 -21s1 -16.5 1 -21.5v-22.5v-19v-6c0 -16 -0.166992 -28.333 -0.5 -37s-1.66602 -19 -3.99902 -31
s-6.5 -20.667 -12.5 -26s-13.667 -8 -23 -8h-13c-138.667 0 -240.334 54.667 -305.001 164c-122.667 -109.333 -365 -164 -727 -164h-4zM754.712 -309.307l145.513 145.513l7.48926 7.48926l7.48926 -7.48926l146.583 -146.583l7.48926 -7.48926l-7.48926 -7.49023
l-145.513 -145.513l-7.48926 -7.48926l-7.49023 7.48926l-146.582 146.583l-7.49023 7.48926z" />
    <glyph glyph-name="uniFE91" unicode="&#x628;" horiz-adv-x="646" arabic-form="initial" 
d="M69 0l-76 -0.000976562c-26 0 -45.5 9.83301 -58.5 29.5s-19.5 45.834 -19.5 78.501v19c0 29.333 6.66699 52.833 20 70.5s32.666 26.5 57.999 26.5h76c51.333 0 94.5 2.66699 129.5 8s60.833 12.333 77.5 21c50 29.333 75 93.333 75 192c0 78 -12 164.667 -36 260l-5 19
l19 5l164 41l18 5l6 -18c32.667 -106 49 -209 49 -309c0 -170 -49.333 -292.333 -148 -367c-71.333 -54 -187.666 -81 -348.999 -81zM114.713 -309.307l145.513 145.513l7.48926 7.48926l7.48926 -7.48926l146.583 -146.583l7.48926 -7.48926l-7.48926 -7.49023
l-145.513 -145.513l-7.48926 -7.48926l-7.49023 7.48926l-146.582 146.583l-7.49023 7.48926z" />
    <glyph glyph-name="uniFE92" unicode="&#x628;" horiz-adv-x="717" arabic-form="medial" 
d="M765 108l-0.000976562 -5.99902c0 -16 -0.333008 -28.333 -1 -37s-2 -18.834 -4 -30.501s-6 -20.334 -12 -26.001s-13.667 -8.5 -23 -8.5h-10c-127.333 0 -219 42 -275 126c-72 -84 -186.667 -126 -344 -126h-104c-26 0 -45.333 9.83301 -58 29.5s-19 45.834 -19 78.501
v19c0 29.333 6.5 52.833 19.5 70.5s32.167 26.5 57.5 26.5h99c142.667 0 221.334 38.667 236.001 116c4 22 6 48.333 6 79c0 32.667 -1 63.667 -3 93l-5 82l-2 19l19 2l165 20l21 2l1 -21l16 -231c2.66699 -37.333 10.667 -67.833 24 -91.5s32 -41.167 56 -52.5
s54.667 -17 92 -17h8c9.33301 0 17 -2.66699 23 -8s10 -14 12 -26s3.33301 -22.167 4 -30.5s1 -20.5 1 -36.5v-5v-10zM153.712 -309.305l145.513 145.513l7.48926 7.48926l7.48926 -7.48926l146.583 -146.583l7.48926 -7.48926l-7.48926 -7.49023l-145.513 -145.513
l-7.48926 -7.48926l-7.49023 7.48926l-146.582 146.583l-7.49023 7.48926z" />
    <glyph glyph-name="uniFE93" unicode="&#x629;" horiz-adv-x="942" arabic-form="isolated" 
d="M462 638c-22.667 -20.667 -43.334 -40.9971 -62.001 -60.9971s-34.667 -39.167 -48 -57.5s-24.5 -36.166 -33.5 -53.499s-15.667 -33.833 -20 -49.5s-6.5 -30.834 -6.5 -45.501c0 -50 14.667 -87 44 -111s75.666 -36 138.999 -36c64.667 0 111.834 12 141.501 36
s44.167 61.333 43.5 112c0 8 -1 16.5 -3 25.5s-5 18.333 -9 28s-9 19.667 -15 30s-13 21.166 -21 32.499s-17.167 23 -27.5 35s-21.666 24.167 -33.999 36.5s-25.833 25.166 -40.5 38.499s-30.667 26.666 -48 39.999zM404 992.003c311.333 -226.667 467 -435.333 467 -626
c0 -133.333 -58 -236 -174 -308c-19.333 -12 -40.333 -22 -63 -30s-47.167 -14 -73.5 -18s-54.5 -6 -84.5 -6c-84 0 -155.667 15 -215 45c-120 60 -180 165.667 -180 317c0 138 76 283.333 228 436l-29 25l-14 12l11 15l100 133l11 16zM474.676 1267.7l145.513 145.513
l7.48926 7.48926l7.49023 -7.48926l146.582 -146.583l7.49023 -7.48926l-7.49023 -7.49023l-145.513 -145.513l-7.48926 -7.48926l-7.49023 7.48926l-146.582 146.583l-7.49023 7.48926zM149.412 1267.7l145.513 145.513l7.48926 7.48926l7.49023 -7.48926l146.582 -146.583
l7.49023 -7.48926l-7.49023 -7.49023l-145.513 -145.513l-7.48926 -7.48926l-7.49023 7.48926l-146.582 146.583l-7.49023 7.48926z" />
    <glyph glyph-name="uniFE94" unicode="&#x629;" horiz-adv-x="1063" arabic-form="final" 
d="M91 426c0 202.667 172.001 358.334 516.001 467.001l-5 28l-4 20l19 4l163 33l20 4l3 -21l83 -591c4.66699 -33.333 13.667 -60.833 27 -82.5s31.5 -37.667 54.5 -48s51.167 -15.5 84.5 -15.5h20c9.33301 0 17 -2.66699 23 -8s10 -13.333 12 -24
s3.33301 -19.834 4 -27.501s1 -18.5 1 -32.5v-24v-5c0 -16 -0.333008 -28.333 -1 -37s-2 -19 -4 -31s-6 -20.833 -12 -26.5s-13.667 -8.5 -23 -8.5h-24c-180 -0 -291.667 70.333 -335 211c-38.667 -29.333 -79.334 -51.5 -122.001 -66.5s-87.667 -22.5 -135 -22.5
c-156 0 -265.333 51.667 -328 155c-24.667 41.333 -37 91 -37 149zM638.001 687c-110.667 -42 -193.167 -84.1699 -247.5 -126.503s-81.5 -83.166 -81.5 -122.499c0 -17.333 2.5 -32.166 7.5 -44.499s13.167 -22.833 24.5 -31.5s26 -15.167 44 -19.5s39.333 -6.5 64 -6.5
c48 0 96 14.667 144 44c56.667 34.667 79 91.334 67 170.001l-21 133zM603.677 1231.69l145.513 145.513l7.48926 7.48926l7.49023 -7.48926l146.582 -146.583l7.49023 -7.48926l-7.49023 -7.49023l-145.513 -145.513l-7.48926 -7.48926l-7.49023 7.48926l-146.582 146.583
l-7.49023 7.48926zM278.413 1231.69l145.513 145.513l7.48926 7.48926l7.49023 -7.48926l146.582 -146.583l7.49023 -7.48926l-7.49023 -7.49023l-145.513 -145.513l-7.48926 -7.48926l-7.49023 7.48926l-146.582 146.583l-7.49023 7.48926z" />
    <glyph glyph-name="uniFE95" unicode="&#x62a;" horiz-adv-x="1837" arabic-form="isolated" 
d="M891 0c-266.667 0 -468.501 42.002 -605.501 126.002s-205.5 210.667 -205.5 380c0 92.667 18.667 181 56 265l9 18l18 -8l157 -68l18 -8l-7 -18c-21.333 -53.333 -32 -104 -32 -152c0 -102.667 46.833 -180.167 140.5 -232.5s237.834 -78.5 432.501 -78.5
c329.333 0 536 30.667 620 92c37.333 27.333 56 77 56 149c0 58.667 -12 139 -36 241l-4 19l19 5l163 41l18 5l6 -18c34 -102.667 51 -195.334 51 -278.001c0 -164.667 -49 -281.334 -147 -350.001c-124 -86.667 -365.333 -130 -724 -130h-3zM929.675 949.696
l145.513 145.513l7.48926 7.48926l7.49023 -7.48926l146.582 -146.583l7.49023 -7.48926l-7.49023 -7.49023l-145.513 -145.513l-7.48926 -7.48926l-7.49023 7.48926l-146.582 146.583l-7.49023 7.48926zM604.411 949.696l145.513 145.513l7.48926 7.48926l7.49023 -7.48926
l146.582 -146.583l7.49023 -7.48926l-7.49023 -7.49023l-145.513 -145.513l-7.48926 -7.48926l-7.49023 7.48926l-146.582 146.583l-7.49023 7.48926z" />
    <glyph glyph-name="uniFE96" unicode="&#x62a;" horiz-adv-x="1931" arabic-form="final" 
d="M890 0c-266.667 0 -468.501 41.999 -605.501 125.999s-205.5 210.667 -205.5 380c0 92.667 18.667 181 56 265l9 18l18 -8l157 -68l18 -8l-7 -18c-21.333 -54 -32 -105.333 -32 -154c0 -206 195.667 -309 587 -309c85.333 0 163.166 2.83301 233.499 8.5
s131.5 13.834 183.5 24.501s95.667 23.5 131 38.5s62 32.5 80 52.5c9.33301 9.33301 16.5 23 21.5 41s7.5 40.333 7.5 67v21c0 6.66699 -0.166992 12.834 -0.5 18.501s-0.5 10.834 -0.5 15.501l-6 82l-1 19l19 2l164 20l21 2l2 -21l16 -215c4 -52 19 -95 45 -129
c25.333 -31.333 67 -47 125 -47h13c6.66699 0 12.334 -1.33301 17.001 -4s8.5 -6.83398 11.5 -12.501s5.33301 -10.834 7 -15.501s2.83398 -11.667 3.50098 -21s1 -16.5 1 -21.5v-22.5v-19v-6c0 -16 -0.166992 -28.333 -0.5 -37s-1.66602 -19 -3.99902 -31
s-6.5 -20.667 -12.5 -26s-13.667 -8 -23 -8h-13c-138.667 0 -240.334 54.667 -305.001 164c-122.667 -109.333 -365 -164 -727 -164h-4zM952.675 949.693l145.513 145.513l7.48926 7.48926l7.49023 -7.48926l146.582 -146.583l7.49023 -7.48926l-7.49023 -7.49023
l-145.513 -145.513l-7.48926 -7.48926l-7.49023 7.48926l-146.582 146.583l-7.49023 7.48926zM627.411 949.693l145.513 145.513l7.48926 7.48926l7.49023 -7.48926l146.582 -146.583l7.49023 -7.48926l-7.49023 -7.49023l-145.513 -145.513l-7.48926 -7.48926
l-7.49023 7.48926l-146.582 146.583l-7.49023 7.48926z" />
    <glyph glyph-name="uniFE97" unicode="&#x62a;" horiz-adv-x="709" arabic-form="initial" 
d="M69 0l-76 -0.000976562c-26 0 -45.5 9.83301 -58.5 29.5s-19.5 45.834 -19.5 78.501v19c0 29.333 6.66699 52.833 20 70.5s32.666 26.5 57.999 26.5h76c51.333 0 94.5 2.66699 129.5 8s60.833 12.333 77.5 21c50 29.333 75 93.333 75 192c0 78 -12 164.667 -36 260l-5 19
l19 5l164 41l18 5l6 -18c32.667 -106 49 -209 49 -309c0 -170 -49.333 -292.333 -148 -367c-71.333 -54 -187.666 -81 -348.999 -81zM311.676 1072.69l145.513 145.513l7.48926 7.48926l7.49023 -7.48926l146.582 -146.583l7.49023 -7.48926l-7.49023 -7.49023
l-145.513 -145.513l-7.48926 -7.48926l-7.49023 7.48926l-146.582 146.583l-7.49023 7.48926zM-13.5879 1072.69l145.513 145.513l7.48926 7.48926l7.49023 -7.48926l146.582 -146.583l7.49023 -7.48926l-7.49023 -7.49023l-145.513 -145.513l-7.48926 -7.48926
l-7.49023 7.48926l-146.582 146.583l-7.49023 7.48926z" />
    <glyph glyph-name="uniFE98" unicode="&#x62a;" horiz-adv-x="717" arabic-form="medial" 
d="M765 108l-0.000976562 -5.99902c0 -16 -0.333008 -28.333 -1 -37s-2 -18.834 -4 -30.501s-6 -20.334 -12 -26.001s-13.667 -8.5 -23 -8.5h-10c-127.333 0 -219 42 -275 126c-72 -84 -186.667 -126 -344 -126h-104c-26 0 -45.333 9.83301 -58 29.5s-19 45.834 -19 78.501
v19c0 29.333 6.5 52.833 19.5 70.5s32.167 26.5 57.5 26.5h99c142.667 0 221.334 38.667 236.001 116c4 22 6 48.333 6 79c0 32.667 -1 63.667 -3 93l-5 82l-2 19l19 2l165 20l21 2l1 -21l16 -231c2.66699 -37.333 10.667 -67.833 24 -91.5s32 -41.167 56 -52.5
s54.667 -17 92 -17h8c9.33301 0 17 -2.66699 23 -8s10 -14 12 -26s3.33301 -22.167 4 -30.5s1 -20.5 1 -36.5v-5v-10zM308.675 989.695l145.513 145.513l7.48926 7.48926l7.49023 -7.48926l146.582 -146.583l7.49023 -7.48926l-7.49023 -7.49023l-145.513 -145.513
l-7.48926 -7.48926l-7.49023 7.48926l-146.582 146.583l-7.49023 7.48926zM-16.5889 989.695l145.513 145.513l7.48926 7.48926l7.49023 -7.48926l146.582 -146.583l7.49023 -7.48926l-7.49023 -7.49023l-145.513 -145.513l-7.48926 -7.48926l-7.49023 7.48926
l-146.582 146.583l-7.49023 7.48926z" />
    <glyph glyph-name="uniFE99" unicode="&#x62b;" horiz-adv-x="1837" arabic-form="isolated" 
d="M891 0c-266.667 0 -468.501 42.002 -605.501 126.002s-205.5 210.667 -205.5 380c0 92.667 18.667 181 56 265l9 18l18 -8l157 -68l18 -8l-7 -18c-21.333 -53.333 -32 -104 -32 -152c0 -102.667 46.833 -180.167 140.5 -232.5s237.834 -78.5 432.501 -78.5
c329.333 0 536 30.667 620 92c37.333 27.333 56 77 56 149c0 58.667 -12 139 -36 241l-4 19l19 5l163 41l18 5l6 -18c34 -102.667 51 -195.334 51 -278.001c0 -164.667 -49 -281.334 -147 -350.001c-124 -86.667 -365.333 -130 -724 -130h-3zM768.112 1155.92
l142.304 142.303l7.48926 7.48926l7.48926 -7.48926l143.373 -143.373l7.48926 -7.48926l-7.48926 -7.49023l-142.303 -142.303l-7.48926 -7.48926l-7.49023 7.48926l-143.373 143.373l-7.48926 7.48926zM932.885 887.367l142.303 142.303l7.48926 7.48926l7.49023 -7.48926
l143.372 -143.373l7.49023 -7.48926l-7.49023 -7.48926l-142.303 -142.304l-7.48926 -7.48926l-7.49023 7.48926l-143.372 143.373l-7.49023 7.48926zM607.621 887.367l142.303 142.303l7.48926 7.48926l7.49023 -7.48926l143.372 -143.373l7.49023 -7.48926
l-7.49023 -7.48926l-142.303 -142.304l-7.48926 -7.48926l-7.49023 7.48926l-143.372 143.373l-7.49023 7.48926z" />
    <glyph glyph-name="uniFE9A" unicode="&#x62b;" horiz-adv-x="1931" arabic-form="final" 
d="M890 0c-266.667 0 -468.501 41.999 -605.501 125.999s-205.5 210.667 -205.5 380c0 92.667 18.667 181 56 265l9 18l18 -8l157 -68l18 -8l-7 -18c-21.333 -54 -32 -105.333 -32 -154c0 -206 195.667 -309 587 -309c85.333 0 163.166 2.83301 233.499 8.5
s131.5 13.834 183.5 24.501s95.667 23.5 131 38.5s62 32.5 80 52.5c9.33301 9.33301 16.5 23 21.5 41s7.5 40.333 7.5 67v21c0 6.66699 -0.166992 12.834 -0.5 18.501s-0.5 10.834 -0.5 15.501l-6 82l-1 19l19 2l164 20l21 2l2 -21l16 -215c4 -52 19 -95 45 -129
c25.333 -31.333 67 -47 125 -47h13c6.66699 0 12.334 -1.33301 17.001 -4s8.5 -6.83398 11.5 -12.501s5.33301 -10.834 7 -15.501s2.83398 -11.667 3.50098 -21s1 -16.5 1 -21.5v-22.5v-19v-6c0 -16 -0.166992 -28.333 -0.5 -37s-1.66602 -19 -3.99902 -31
s-6.5 -20.667 -12.5 -26s-13.667 -8 -23 -8h-13c-138.667 0 -240.334 54.667 -305.001 164c-122.667 -109.333 -365 -164 -727 -164h-4zM787.112 1153.92l142.304 142.303l7.48926 7.48926l7.48926 -7.48926l143.373 -143.373l7.48926 -7.48926l-7.48926 -7.49023
l-142.303 -142.303l-7.48926 -7.48926l-7.49023 7.48926l-143.373 143.373l-7.48926 7.48926zM951.885 885.364l142.303 142.303l7.48926 7.48926l7.49023 -7.48926l143.372 -143.373l7.49023 -7.48926l-7.49023 -7.48926l-142.303 -142.304l-7.48926 -7.48926
l-7.49023 7.48926l-143.372 143.373l-7.49023 7.48926zM626.621 885.364l142.303 142.303l7.48926 7.48926l7.49023 -7.48926l143.372 -143.373l7.49023 -7.48926l-7.49023 -7.48926l-142.303 -142.304l-7.48926 -7.48926l-7.49023 7.48926l-143.372 143.373
l-7.49023 7.48926z" />
    <glyph glyph-name="uniFE9B" unicode="&#x62b;" horiz-adv-x="708" arabic-form="initial" 
d="M69 0l-76 -0.000976562c-26 0 -45.5 9.83301 -58.5 29.5s-19.5 45.834 -19.5 78.501v19c0 29.333 6.66699 52.833 20 70.5s32.666 26.5 57.999 26.5h76c51.333 0 94.5 2.66699 129.5 8s60.833 12.333 77.5 21c50 29.333 75 93.333 75 192c0 78 -12 164.667 -36 260l-5 19
l19 5l164 41l18 5l6 -18c32.667 -106 49 -209 49 -309c0 -170 -49.333 -292.333 -148 -367c-71.333 -54 -187.666 -81 -348.999 -81zM132.113 1326.92l142.304 142.303l7.48926 7.48926l7.48926 -7.48926l143.373 -143.373l7.48926 -7.48926l-7.48926 -7.49023
l-142.303 -142.303l-7.48926 -7.48926l-7.49023 7.48926l-143.373 143.373l-7.48926 7.48926zM296.886 1058.36l142.303 142.303l7.48926 7.48926l7.49023 -7.48926l143.372 -143.373l7.49023 -7.48926l-7.49023 -7.48926l-142.303 -142.304l-7.48926 -7.48926
l-7.49023 7.48926l-143.372 143.373l-7.49023 7.48926zM-28.3779 1058.36l142.303 142.303l7.48926 7.48926l7.49023 -7.48926l143.372 -143.373l7.49023 -7.48926l-7.49023 -7.48926l-142.303 -142.304l-7.48926 -7.48926l-7.49023 7.48926l-143.372 143.373
l-7.49023 7.48926z" />
    <glyph glyph-name="uniFE9C" unicode="&#x62b;" horiz-adv-x="717" arabic-form="medial" 
d="M765 108l-0.000976562 -5.99902c0 -16 -0.333008 -28.333 -1 -37s-2 -18.834 -4 -30.501s-6 -20.334 -12 -26.001s-13.667 -8.5 -23 -8.5h-10c-127.333 0 -219 42 -275 126c-72 -84 -186.667 -126 -344 -126h-104c-26 0 -45.333 9.83301 -58 29.5s-19 45.834 -19 78.501
v19c0 29.333 6.5 52.833 19.5 70.5s32.167 26.5 57.5 26.5h99c142.667 0 221.334 38.667 236.001 116c4 22 6 48.333 6 79c0 32.667 -1 63.667 -3 93l-5 82l-2 19l19 2l165 20l21 2l1 -21l16 -231c2.66699 -37.333 10.667 -67.833 24 -91.5s32 -41.167 56 -52.5
s54.667 -17 92 -17h8c9.33301 0 17 -2.66699 23 -8s10 -14 12 -26s3.33301 -22.167 4 -30.5s1 -20.5 1 -36.5v-5v-10zM137.112 1229.92l142.304 142.303l7.48926 7.48926l7.48926 -7.48926l143.373 -143.373l7.48926 -7.48926l-7.48926 -7.49023l-142.303 -142.303
l-7.48926 -7.48926l-7.49023 7.48926l-143.373 143.373l-7.48926 7.48926zM301.885 961.366l142.303 142.303l7.48926 7.48926l7.49023 -7.48926l143.372 -143.373l7.49023 -7.48926l-7.49023 -7.48926l-142.303 -142.304l-7.48926 -7.48926l-7.49023 7.48926
l-143.372 143.373l-7.49023 7.48926zM-23.3789 961.366l142.303 142.303l7.48926 7.48926l7.49023 -7.48926l143.372 -143.373l7.49023 -7.48926l-7.49023 -7.48926l-142.303 -142.304l-7.48926 -7.48926l-7.49023 7.48926l-143.372 143.373l-7.49023 7.48926z" />
    <glyph glyph-name="uniFE9D" unicode="&#x62c;" horiz-adv-x="1366" arabic-form="isolated" 
d="M105 -125c0 192 57.002 350.666 171.002 475.999s283.333 216.666 508 273.999c-8 3.33301 -16.5 6.66602 -25.5 9.99902s-18.833 7.33301 -29.5 12c-127.333 51.333 -213.666 77 -258.999 77c-23.333 0 -45.166 -3.16699 -65.499 -9.5s-39.166 -15.833 -56.499 -28.5
s-33.666 -28.667 -48.999 -48l-28 -36l-10 -13l-14 7l-154 76l-20 10l12 18l16 28c43.333 71.333 96.166 125.333 158.499 162s132.833 55.334 211.5 56.001c30 0 61.5 -3.33301 94.5 -10s67.5 -16.5 103.5 -29.5s74.333 -29.167 115 -48.5
c205.333 -100 363.666 -152.333 474.999 -157l20 -1l-1 -21l-13 -174l-1 -17l-18 -1c-16.667 -1.33301 -32.834 -2.5 -48.501 -3.5s-31 -2.33301 -46 -4l-44 -5l-41.5 -5c-13.333 -1.66699 -26.333 -3.5 -39 -5.5s-24.834 -4.16699 -36.501 -6.5
s-22.834 -4.83301 -33.501 -7.5c-428 -99.333 -642 -285.666 -642 -558.999c0 -116.667 41.833 -204 125.5 -262s212.167 -87 385.5 -87c141.333 0 277.666 31.333 408.999 94l23 11l5 -25l36 -179l3 -15l-14 -7c-135.333 -66 -294 -99 -476 -99
c-87.333 0 -166.5 7 -237.5 21s-134.667 35.333 -191 64s-104.5 64.334 -144.5 107.001c-89.333 96.667 -134 217 -134 361zM651.715 -57.3066l145.513 145.513l7.48926 7.48926l7.48926 -7.48926l146.583 -146.583l7.48926 -7.48926l-7.48926 -7.49023l-145.513 -145.513
l-7.48926 -7.48926l-7.49023 7.48926l-146.582 146.583l-7.49023 7.48926z" />
    <glyph glyph-name="uniFE9E" unicode="&#x62c;" horiz-adv-x="1386" arabic-form="final" 
d="M1278 679l-13.0039 -173.998l-1 -17l-18 -1c-61.333 -4.66699 -120 -10.667 -176 -18c1.33301 -56 11.5 -102 30.5 -138s47.5 -62.833 85.5 -80.5s86.333 -26.5 145 -26.5h63c9.33301 0 17 -2.66699 23 -8s10 -13.333 12 -24s3.33301 -19.834 4 -27.501s1 -18.5 1 -32.5
v-24v-5c0 -16.667 -0.166992 -29.167 -0.5 -37.5s-1.66602 -18.5 -3.99902 -30.5s-6.5 -20.833 -12.5 -26.5s-13.667 -8.5 -23 -8.5h-63c-146.667 0 -258.334 36.333 -335.001 109s-116.667 179.667 -120 321c-189.333 -50.667 -330.166 -120.834 -422.499 -210.501
s-138.5 -199.167 -138.5 -328.5c0 -116.667 41.833 -204 125.5 -262s212.167 -87 385.5 -87c141.333 0 277.666 31.333 408.999 94l23 11l5 -25l36 -179l3 -15l-14 -7c-135.333 -66 -294 -99 -476 -99c-87.333 0 -166.5 7 -237.5 21s-134.667 35.333 -191 64
s-104.5 64.334 -144.5 107.001c-89.333 96.667 -134 217 -134 361c0 192.667 57 351.5 171 476.5s283.333 216.167 508 273.5c-8 3.33301 -16.5 6.66602 -25.5 9.99902s-18.833 7.33301 -29.5 12c-127.333 51.333 -213.666 77 -258.999 77
c-23.333 0 -45.166 -3.16699 -65.499 -9.5s-39.166 -15.833 -56.499 -28.5s-33.666 -28.667 -48.999 -48l-28 -36l-10 -13l-14 7l-154 76l-20 10l12 18l16 28c88.667 145.333 212.334 218 371.001 218c87.333 0 191.333 -29.333 312 -88
c205.333 -100 363.666 -152.333 474.999 -157l20 -1zM558.709 -77.3037l145.513 145.513l7.48926 7.48926l7.48926 -7.48926l146.583 -146.583l7.48926 -7.48926l-7.48926 -7.49023l-145.513 -145.513l-7.48926 -7.48926l-7.49023 7.48926l-146.582 146.583
l-7.49023 7.48926z" />
    <glyph glyph-name="uniFE9F" unicode="&#x62c;" horiz-adv-x="1337" arabic-form="initial" 
d="M553.713 -309.306l145.513 145.513l7.48926 7.48926l7.48926 -7.48926l146.583 -146.583l7.48926 -7.48926l-7.48926 -7.49023l-145.513 -145.513l-7.48926 -7.48926l-7.49023 7.48926l-146.582 146.583l-7.49023 7.48926zM-7 0c-26 0 -45.498 9.83203 -58.498 29.499
s-19.5 45.834 -19.5 78.501v19c0 29.333 6.66699 52.833 20 70.5s32.666 26.5 57.999 26.5h60c216.667 0 485.667 83 807 249l33 17c-19.333 6.66699 -43.166 15.667 -71.499 27l-102.5 42c-128 51.333 -214.333 77 -259 77c-69.333 0 -126.333 -28.667 -171 -86l-28 -36
l-10 -13l-14 7l-154 76l-20 10l12 18l16 28c43.333 72 96.166 126.167 158.499 162.5s132.833 54.833 211.5 55.5c88 0 192.333 -29.333 313 -88c205.333 -100 363.666 -152.333 474.999 -157l19 -1v-20l-2 -173v-18l-18 -2c-74 -6.66699 -213 -63.667 -417 -171
c-288.667 -152 -552 -228 -790 -228h-48z" />
    <glyph glyph-name="uniFEA0" unicode="&#x62c;" horiz-adv-x="1351" arabic-form="medial" 
d="M554.713 -309.306l145.513 145.513l7.48926 7.48926l7.48926 -7.48926l146.583 -146.583l7.48926 -7.48926l-7.48926 -7.49023l-145.513 -145.513l-7.48926 -7.48926l-7.49023 7.48926l-146.582 146.583l-7.49023 7.48926zM893 490
c-18.667 6.66699 -42.3291 15.666 -70.9961 26.999l-103 42c-128 51.333 -214.333 77 -259 77c-69.333 0 -126.333 -28.667 -171 -86l-28 -36l-10 -13l-14 7l-154 76l-20 10l12 18l16 28c43.333 72 96.166 126.167 158.499 162.5s132.833 54.833 211.5 55.5
c88 0 192.333 -29.333 313 -88c205.333 -100 363.666 -152.333 474.999 -157l19 -1v-20l-2 -173v-19l-18 -1c-24 -2 -52 -8.16699 -84 -18.5s-66.667 -24.5 -104 -42.5c10 -76 95.667 -114 257 -114h44c9.33301 0 16.833 -2.66699 22.5 -8s9.66699 -13.333 12 -24
s3.83301 -19.834 4.5 -27.501s1 -18.5 1 -32.5v-24c0 -8 -0.166992 -16.167 -0.5 -24.5l-1 -24.5c-0.333008 -8 -1.33301 -15.667 -3 -23s-3.83398 -13.666 -6.50098 -18.999s-6.5 -9.5 -11.5 -12.5s-11.167 -4.5 -18.5 -4.5h-59c-118.667 0 -213 21.5 -283 64.5
s-113.333 107.5 -130 193.5l-28 -14.5l-29 -15.5c-288.667 -152 -552 -228 -790 -228h-48c-26 0 -45.5 9.83301 -58.5 29.5s-19.5 45.834 -19.5 78.501v19c0 29.333 6.66699 52.833 20 70.5s32.666 26.5 57.999 26.5h60c216.667 0 485.667 83 807 249z" />
    <glyph glyph-name="uniFEA1" unicode="&#x62d;" horiz-adv-x="1386" arabic-form="isolated" 
d="M105 -125c0 192 57.002 350.666 171.002 475.999s283.333 216.666 508 273.999c-8 3.33301 -16.5 6.66602 -25.5 9.99902s-18.833 7.33301 -29.5 12c-127.333 51.333 -213.666 77 -258.999 77c-23.333 0 -45.166 -3.16699 -65.499 -9.5s-39.166 -15.833 -56.499 -28.5
s-33.666 -28.667 -48.999 -48l-28 -36l-10 -13l-14 7l-154 76l-20 10l12 18l16 28c43.333 71.333 96.166 125.333 158.499 162s132.833 55.334 211.5 56.001c30 0 61.5 -3.33301 94.5 -10s67.5 -16.5 103.5 -29.5s74.333 -29.167 115 -48.5
c205.333 -100 363.666 -152.333 474.999 -157l20 -1l-1 -21l-13 -174l-1 -17l-18 -1c-16.667 -1.33301 -32.834 -2.5 -48.501 -3.5s-31 -2.33301 -46 -4l-44 -5l-41.5 -5c-13.333 -1.66699 -26.333 -3.5 -39 -5.5s-24.834 -4.16699 -36.501 -6.5
s-22.834 -4.83301 -33.501 -7.5c-428 -99.333 -642 -285.666 -642 -558.999c0 -116.667 41.833 -204 125.5 -262s212.167 -87 385.5 -87c141.333 0 277.666 31.333 408.999 94l23 11l5 -25l36 -179l3 -15l-14 -7c-135.333 -66 -294 -99 -476 -99
c-87.333 0 -166.5 7 -237.5 21s-134.667 35.333 -191 64s-104.5 64.334 -144.5 107.001c-89.333 96.667 -134 217 -134 361z" />
    <glyph glyph-name="uniFEA2" unicode="&#x62d;" horiz-adv-x="1386" arabic-form="final" 
d="M1278 679l-13.0039 -173.998l-1 -17l-18 -1c-61.333 -4.66699 -120 -10.667 -176 -18c1.33301 -56 11.5 -102 30.5 -138s47.5 -62.833 85.5 -80.5s86.333 -26.5 145 -26.5h63c9.33301 0 17 -2.66699 23 -8s10 -13.333 12 -24s3.33301 -19.834 4 -27.501s1 -18.5 1 -32.5
v-24v-5c0 -16.667 -0.166992 -29.167 -0.5 -37.5s-1.66602 -18.5 -3.99902 -30.5s-6.5 -20.833 -12.5 -26.5s-13.667 -8.5 -23 -8.5h-63c-146.667 0 -258.334 36.333 -335.001 109s-116.667 179.667 -120 321c-189.333 -50.667 -330.166 -120.834 -422.499 -210.501
s-138.5 -199.167 -138.5 -328.5c0 -116.667 41.833 -204 125.5 -262s212.167 -87 385.5 -87c141.333 0 277.666 31.333 408.999 94l23 11l5 -25l36 -179l3 -15l-14 -7c-135.333 -66 -294 -99 -476 -99c-87.333 0 -166.5 7 -237.5 21s-134.667 35.333 -191 64
s-104.5 64.334 -144.5 107.001c-89.333 96.667 -134 217 -134 361c0 192.667 57 351.5 171 476.5s283.333 216.167 508 273.5c-8 3.33301 -16.5 6.66602 -25.5 9.99902s-18.833 7.33301 -29.5 12c-127.333 51.333 -213.666 77 -258.999 77
c-23.333 0 -45.166 -3.16699 -65.499 -9.5s-39.166 -15.833 -56.499 -28.5s-33.666 -28.667 -48.999 -48l-28 -36l-10 -13l-14 7l-154 76l-20 10l12 18l16 28c88.667 145.333 212.334 218 371.001 218c87.333 0 191.333 -29.333 312 -88
c205.333 -100 363.666 -152.333 474.999 -157l20 -1z" />
    <glyph glyph-name="uniFEA3" unicode="&#x62d;" horiz-adv-x="1337" arabic-form="initial" 
d="M-7 0c-26 0 -45.498 9.83203 -58.498 29.499s-19.5 45.834 -19.5 78.501v19c0 29.333 6.66699 52.833 20 70.5s32.666 26.5 57.999 26.5h60c216.667 0 485.667 83 807 249l33 17c-19.333 6.66699 -43.166 15.667 -71.499 27l-102.5 42c-128 51.333 -214.333 77 -259 77
c-69.333 0 -126.333 -28.667 -171 -86l-28 -36l-10 -13l-14 7l-154 76l-20 10l12 18l16 28c43.333 72 96.166 126.167 158.499 162.5s132.833 54.833 211.5 55.5c88 0 192.333 -29.333 313 -88c205.333 -100 363.666 -152.333 474.999 -157l19 -1v-20l-2 -173v-18l-18 -2
c-74 -6.66699 -213 -63.667 -417 -171c-288.667 -152 -552 -228 -790 -228h-48z" />
    <glyph glyph-name="uniFEA4" unicode="&#x62d;" horiz-adv-x="1351" arabic-form="medial" 
d="M893 490c-18.667 6.66699 -42.3291 15.666 -70.9961 26.999l-103 42c-128 51.333 -214.333 77 -259 77c-69.333 0 -126.333 -28.667 -171 -86l-28 -36l-10 -13l-14 7l-154 76l-20 10l12 18l16 28c43.333 72 96.166 126.167 158.499 162.5s132.833 54.833 211.5 55.5
c88 0 192.333 -29.333 313 -88c205.333 -100 363.666 -152.333 474.999 -157l19 -1v-20l-2 -173v-19l-18 -1c-24 -2 -52 -8.16699 -84 -18.5s-66.667 -24.5 -104 -42.5c10 -76 95.667 -114 257 -114h44c9.33301 0 16.833 -2.66699 22.5 -8s9.66699 -13.333 12 -24
s3.83301 -19.834 4.5 -27.501s1 -18.5 1 -32.5v-24c0 -8 -0.166992 -16.167 -0.5 -24.5l-1 -24.5c-0.333008 -8 -1.33301 -15.667 -3 -23s-3.83398 -13.666 -6.50098 -18.999s-6.5 -9.5 -11.5 -12.5s-11.167 -4.5 -18.5 -4.5h-59c-118.667 0 -213 21.5 -283 64.5
s-113.333 107.5 -130 193.5l-28 -14.5l-29 -15.5c-288.667 -152 -552 -228 -790 -228h-48c-26 0 -45.5 9.83301 -58.5 29.5s-19.5 45.834 -19.5 78.501v19c0 29.333 6.66699 52.833 20 70.5s32.666 26.5 57.999 26.5h60c216.667 0 485.667 83 807 249z" />
    <glyph glyph-name="uniFEA5" unicode="&#x62e;" horiz-adv-x="1386" arabic-form="isolated" 
d="M426.713 1265.69l145.513 145.513l7.48926 7.48926l7.48926 -7.48926l146.583 -146.583l7.48926 -7.48926l-7.48926 -7.49023l-145.513 -145.513l-7.48926 -7.48926l-7.49023 7.48926l-146.582 146.583l-7.49023 7.48926zM105 -125c0 192 57.002 350.666 171.002 475.999
s283.333 216.666 508 273.999c-8 3.33301 -16.5 6.66602 -25.5 9.99902s-18.833 7.33301 -29.5 12c-127.333 51.333 -213.666 77 -258.999 77c-23.333 0 -45.166 -3.16699 -65.499 -9.5s-39.166 -15.833 -56.499 -28.5s-33.666 -28.667 -48.999 -48l-28 -36l-10 -13l-14 7
l-154 76l-20 10l12 18l16 28c43.333 71.333 96.166 125.333 158.499 162s132.833 55.334 211.5 56.001c30 0 61.5 -3.33301 94.5 -10s67.5 -16.5 103.5 -29.5s74.333 -29.167 115 -48.5c205.333 -100 363.666 -152.333 474.999 -157l20 -1l-1 -21l-13 -174l-1 -17l-18 -1
c-16.667 -1.33301 -32.834 -2.5 -48.501 -3.5s-31 -2.33301 -46 -4l-44 -5l-41.5 -5c-13.333 -1.66699 -26.333 -3.5 -39 -5.5s-24.834 -4.16699 -36.501 -6.5s-22.834 -4.83301 -33.501 -7.5c-428 -99.333 -642 -285.666 -642 -558.999c0 -116.667 41.833 -204 125.5 -262
s212.167 -87 385.5 -87c141.333 0 277.666 31.333 408.999 94l23 11l5 -25l36 -179l3 -15l-14 -7c-135.333 -66 -294 -99 -476 -99c-87.333 0 -166.5 7 -237.5 21s-134.667 35.333 -191 64s-104.5 64.334 -144.5 107.001c-89.333 96.667 -134 217 -134 361z" />
    <glyph glyph-name="uniFEA6" unicode="&#x62e;" horiz-adv-x="1386" arabic-form="final" 
d="M426.713 1265.69l145.513 145.513l7.48926 7.48926l7.48926 -7.48926l146.583 -146.583l7.48926 -7.48926l-7.48926 -7.49023l-145.513 -145.513l-7.48926 -7.48926l-7.49023 7.48926l-146.582 146.583l-7.49023 7.48926zM1278 679l-13.0039 -173.998l-1 -17l-18 -1
c-61.333 -4.66699 -120 -10.667 -176 -18c1.33301 -56 11.5 -102 30.5 -138s47.5 -62.833 85.5 -80.5s86.333 -26.5 145 -26.5h63c9.33301 0 17 -2.66699 23 -8s10 -13.333 12 -24s3.33301 -19.834 4 -27.501s1 -18.5 1 -32.5v-24v-5
c0 -16.667 -0.166992 -29.167 -0.5 -37.5s-1.66602 -18.5 -3.99902 -30.5s-6.5 -20.833 -12.5 -26.5s-13.667 -8.5 -23 -8.5h-63c-146.667 0 -258.334 36.333 -335.001 109s-116.667 179.667 -120 321c-189.333 -50.667 -330.166 -120.834 -422.499 -210.501
s-138.5 -199.167 -138.5 -328.5c0 -116.667 41.833 -204 125.5 -262s212.167 -87 385.5 -87c141.333 0 277.666 31.333 408.999 94l23 11l5 -25l36 -179l3 -15l-14 -7c-135.333 -66 -294 -99 -476 -99c-87.333 0 -166.5 7 -237.5 21s-134.667 35.333 -191 64
s-104.5 64.334 -144.5 107.001c-89.333 96.667 -134 217 -134 361c0 192.667 57 351.5 171 476.5s283.333 216.167 508 273.5c-8 3.33301 -16.5 6.66602 -25.5 9.99902s-18.833 7.33301 -29.5 12c-127.333 51.333 -213.666 77 -258.999 77
c-23.333 0 -45.166 -3.16699 -65.499 -9.5s-39.166 -15.833 -56.499 -28.5s-33.666 -28.667 -48.999 -48l-28 -36l-10 -13l-14 7l-154 76l-20 10l12 18l16 28c88.667 145.333 212.334 218 371.001 218c87.333 0 191.333 -29.333 312 -88
c205.333 -100 363.666 -152.333 474.999 -157l20 -1z" />
    <glyph glyph-name="uniFEA7" unicode="&#x62e;" horiz-adv-x="1337" arabic-form="initial" 
d="M386.713 1212.69l145.513 145.513l7.48926 7.48926l7.48926 -7.48926l146.583 -146.583l7.48926 -7.48926l-7.48926 -7.49023l-145.513 -145.513l-7.48926 -7.48926l-7.49023 7.48926l-146.582 146.583l-7.49023 7.48926zM-7 0c-26 0 -45.498 9.83203 -58.498 29.499
s-19.5 45.834 -19.5 78.501v19c0 29.333 6.66699 52.833 20 70.5s32.666 26.5 57.999 26.5h60c216.667 0 485.667 83 807 249l33 17c-19.333 6.66699 -43.166 15.667 -71.499 27l-102.5 42c-128 51.333 -214.333 77 -259 77c-69.333 0 -126.333 -28.667 -171 -86l-28 -36
l-10 -13l-14 7l-154 76l-20 10l12 18l16 28c43.333 72 96.166 126.167 158.499 162.5s132.833 54.833 211.5 55.5c88 0 192.333 -29.333 313 -88c205.333 -100 363.666 -152.333 474.999 -157l19 -1v-20l-2 -173v-18l-18 -2c-74 -6.66699 -213 -63.667 -417 -171
c-288.667 -152 -552 -228 -790 -228h-48z" />
    <glyph glyph-name="uniFEA8" unicode="&#x62e;" horiz-adv-x="1351" arabic-form="medial" 
d="M386.713 1212.69l145.513 145.513l7.48926 7.48926l7.48926 -7.48926l146.583 -146.583l7.48926 -7.48926l-7.48926 -7.49023l-145.513 -145.513l-7.48926 -7.48926l-7.49023 7.48926l-146.582 146.583l-7.49023 7.48926zM893 490
c-18.667 6.66699 -42.3291 15.666 -70.9961 26.999l-103 42c-128 51.333 -214.333 77 -259 77c-69.333 0 -126.333 -28.667 -171 -86l-28 -36l-10 -13l-14 7l-154 76l-20 10l12 18l16 28c43.333 72 96.166 126.167 158.499 162.5s132.833 54.833 211.5 55.5
c88 0 192.333 -29.333 313 -88c205.333 -100 363.666 -152.333 474.999 -157l19 -1v-20l-2 -173v-19l-18 -1c-24 -2 -52 -8.16699 -84 -18.5s-66.667 -24.5 -104 -42.5c10 -76 95.667 -114 257 -114h44c9.33301 0 16.833 -2.66699 22.5 -8s9.66699 -13.333 12 -24
s3.83301 -19.834 4.5 -27.501s1 -18.5 1 -32.5v-24c0 -8 -0.166992 -16.167 -0.5 -24.5l-1 -24.5c-0.333008 -8 -1.33301 -15.667 -3 -23s-3.83398 -13.666 -6.50098 -18.999s-6.5 -9.5 -11.5 -12.5s-11.167 -4.5 -18.5 -4.5h-59c-118.667 0 -213 21.5 -283 64.5
s-113.333 107.5 -130 193.5l-28 -14.5l-29 -15.5c-288.667 -152 -552 -228 -790 -228h-48c-26 0 -45.5 9.83301 -58.5 29.5s-19.5 45.834 -19.5 78.501v19c0 29.333 6.66699 52.833 20 70.5s32.666 26.5 57.999 26.5h60c216.667 0 485.667 83 807 249z" />
    <glyph glyph-name="uniFEA9" unicode="&#x62f;" horiz-adv-x="994" arabic-form="isolated" 
d="M105 251c82.667 -17.333 161.667 -26 237 -26c233.333 0 350 53.667 350 161c0 132 -135.333 283 -406 453l-17 11l11 17l101 152l10 16l16 -10c336.667 -200.667 505 -412.667 505 -636c0 -128.667 -47.333 -225.167 -142 -289.5s-233 -96.833 -415 -97.5
c-99.333 0 -185.333 8 -258 24l-16 4v16v185v25z" />
    <glyph glyph-name="uniFEAA" unicode="&#x62f;" horiz-adv-x="1101" arabic-form="final" 
d="M388 1c-90.667 0 -187.336 9.66992 -290.003 29.0029l-16 3v17v184v25l24 -5c92 -19.333 187.667 -29 287 -29c196.667 0 295 41.333 295 124c0 18 -7.66699 50.333 -23 97s-37.666 105 -66.999 175l-126 300l-8 18l18 8l164 76l19 9l8 -20l198 -503
c38 -96 75.667 -167.5 113 -214.5s72.333 -70.5 105 -70.5h20c6 0 11.5 -1.33301 16.5 -4s8.83301 -6.83398 11.5 -12.501s4.83398 -10.834 6.50098 -15.501s2.83398 -11.667 3.50098 -21l1.5 -21.5c0.333008 -5 0.5 -12.5 0.5 -22.5v-19c0 -22.667 -1 -40.334 -3 -53.001
c-2.66699 -15.333 -5.66699 -27 -9 -35l-1 -1c-6.66699 -12.667 -15.667 -19 -27 -19h-20c-110.667 0 -199 49 -265 147c-94 -97.333 -239.333 -146 -436 -146z" />
    <glyph glyph-name="uniFEAB" unicode="&#x630;" horiz-adv-x="994" arabic-form="isolated" 
d="M105 251c82.667 -17.333 161.667 -26 237 -26c233.333 0 350 53.667 350 161c0 132 -135.333 283 -406 453l-17 11l11 17l101 152l10 16l16 -10c336.667 -200.667 505 -412.667 505 -636c0 -128.667 -47.333 -225.167 -142 -289.5s-233 -96.833 -415 -97.5
c-99.333 0 -185.333 8 -258 24l-16 4v16v185v25zM233.713 1333.69l145.513 145.513l7.48926 7.48926l7.48926 -7.48926l146.583 -146.583l7.48926 -7.48926l-7.48926 -7.49023l-145.513 -145.513l-7.48926 -7.48926l-7.49023 7.48926l-146.582 146.583l-7.49023 7.48926z
" />
    <glyph glyph-name="uniFEAC" unicode="&#x630;" horiz-adv-x="1101" arabic-form="final" 
d="M388 1c-90.667 0 -187.336 9.66992 -290.003 29.0029l-16 3v17v184v25l24 -5c92 -19.333 187.667 -29 287 -29c196.667 0 295 41.333 295 124c0 18 -7.66699 50.333 -23 97s-37.666 105 -66.999 175l-126 300l-8 18l18 8l164 76l19 9l8 -20l198 -503
c38 -96 75.667 -167.5 113 -214.5s72.333 -70.5 105 -70.5h20c6 0 11.5 -1.33301 16.5 -4s8.83301 -6.83398 11.5 -12.501s4.83398 -10.834 6.50098 -15.501s2.83398 -11.667 3.50098 -21l1.5 -21.5c0.333008 -5 0.5 -12.5 0.5 -22.5v-19c0 -22.667 -1 -40.334 -3 -53.001
c-2.66699 -15.333 -5.66699 -27 -9 -35l-1 -1c-6.66699 -12.667 -15.667 -19 -27 -19h-20c-110.667 0 -199 49 -265 147c-94 -97.333 -239.333 -146 -436 -146zM387.711 1326.7l145.513 145.513l7.48926 7.48926l7.48926 -7.48926l146.583 -146.583l7.48926 -7.48926
l-7.48926 -7.49023l-145.513 -145.513l-7.48926 -7.48926l-7.49023 7.48926l-146.582 146.583l-7.49023 7.48926z" />
    <glyph glyph-name="uniFEAD" unicode="&#x631;" horiz-adv-x="826" arabic-form="isolated" 
d="M663 560c57.333 -130 86.0029 -255.332 86.0029 -375.999c0 -198.667 -60.333 -354.334 -181 -467.001s-299.334 -181.667 -536.001 -207l-18 -2l-4 17l-43 170l-5 23l23 2c185.333 18.667 323.166 65.5 413.499 140.5s135.166 178.833 134.499 311.5
c0 99.333 -25.333 203.333 -76 312l-9 20l20 7l171 59l17 7z" />
    <glyph glyph-name="uniFEAE" unicode="&#x631;" horiz-adv-x="910" arabic-form="final" 
d="M663 557l57.002 -192.998c14 -48 35 -83.333 63 -106s64 -34 108 -34h28c9.33301 0 16.833 -2.66699 22.5 -8s9.66699 -13.333 12 -24s3.83301 -19.834 4.5 -27.501s1 -18.5 1 -32.5v-24v-5c0 -16 -0.333008 -28.333 -1 -37s-2 -19 -4 -31s-6 -20.833 -12 -26.5
s-13.667 -8.5 -23 -8.5h-17c-75.333 0 -131 11.333 -167 34c-52.667 -304.667 -287 -479.334 -703 -524.001l-18 -2l-4 17l-43 170l-5 23l23 2c185.333 18.667 323.166 65.667 413.499 141s135.166 179.333 134.499 312c0 97.333 -25.667 201 -77 311l-9 20l20 7l171 59
l19 7z" />
    <glyph glyph-name="uniFEAF" unicode="&#x632;" horiz-adv-x="826" arabic-form="isolated" 
d="M663 560c57.333 -130 86.0029 -255.332 86.0029 -375.999c0 -198.667 -60.333 -354.334 -181 -467.001s-299.334 -181.667 -536.001 -207l-18 -2l-4 17l-43 170l-5 23l23 2c185.333 18.667 323.166 65.5 413.499 140.5s135.166 178.833 134.499 311.5
c0 99.333 -25.333 203.333 -76 312l-9 20l20 7l171 59l17 7zM347.037 903.623l150.369 150.368l7.73926 7.74023l7.73926 -7.74023l151.475 -151.475l7.73926 -7.73926l-7.73926 -7.73926l-150.368 -150.369l-7.74023 -7.73926l-7.73926 7.73926l-151.475 151.475
l-7.73926 7.73926z" />
    <glyph glyph-name="uniFEB0" unicode="&#x632;" horiz-adv-x="910" arabic-form="final" 
d="M347.034 903.622l150.369 150.368l7.73926 7.74023l7.73926 -7.74023l151.475 -151.475l7.73926 -7.73926l-7.73926 -7.73926l-150.368 -150.369l-7.74023 -7.73926l-7.73926 7.73926l-151.475 151.475l-7.73926 7.73926zM664 557l57.002 -192.998
c14 -48 35 -83.333 63 -106s64 -34 108 -34h28c9.33301 0 16.833 -2.66699 22.5 -8s9.66699 -13.333 12 -24s3.83301 -19.834 4.5 -27.501s1 -18.5 1 -32.5v-24v-5c0 -16 -0.333008 -28.333 -1 -37s-2 -19 -4 -31s-6 -20.833 -12 -26.5s-13.667 -8.5 -23 -8.5h-17
c-75.333 0 -131 11.333 -167 34c-52.667 -304.667 -287 -479.334 -703 -524.001l-18 -2l-4 17l-43 170l-5 23l23 2c185.333 18.667 323.166 65.667 413.499 141s135.166 179.333 134.499 312c0 97.333 -25.667 201 -77 311l-9 20l20 7l171 59l19 7z" />
    <glyph glyph-name="uniFEB1" unicode="&#x633;" horiz-adv-x="2506" arabic-form="isolated" 
d="M1553 0c-64.667 0 -119.333 13.0039 -164 39.0039c-6 -80.667 -28.333 -162.334 -67 -245.001c-100.667 -209.333 -305.667 -314 -615 -314c-330 0 -529.667 123.333 -599 370c-17.333 63.333 -26 133.666 -26 210.999c0 139.333 34.333 291.666 103 456.999l7 18l19 -7
l158 -66l18 -7l-7 -19c-54.667 -138.667 -82 -263.334 -82 -374.001c0 -123.333 34 -215.166 102 -275.499s172.667 -90.5 314 -90.5c102.667 0 187.667 15.5 255 46.5s117.666 78 150.999 141s50.333 142.167 51 237.5c0 119.333 -29.667 239.666 -89 360.999l-9 20l21 8
l172 60l20 7l6 -20l60 -185c16 -49.333 40.5 -85.833 73.5 -109.5s75.833 -35.5 128.5 -35.5c60.667 0 105 13.667 133 41s41.667 70.666 41 129.999c0 18 -0.166992 34.333 -0.5 49s-0.666016 27.334 -0.999023 38.001s-0.833008 19.334 -1.5 26.001l-5 61l-2 19l19 2
l165 20l21 2l1 -21l17 -231c2.66699 -47.333 15.167 -81.833 37.5 -103.5s55.833 -32.5 100.5 -32.5c42.667 0.666992 74.667 16 96 46s31.833 78.333 31.5 145s-14.833 150 -43.5 250l-5 19l19 6l171 45l19 5l5 -18c34 -106.667 50.667 -208.667 50 -306
c0 -157.333 -42.667 -273.333 -128 -348c-54.667 -47.333 -125.667 -71 -213 -71c-58 0 -107.833 10.167 -149.5 30.5s-74.5 51.166 -98.5 92.499c-70 -82.667 -163.333 -124 -280 -124z" />
    <glyph glyph-name="uniFEB2" unicode="&#x633;" horiz-adv-x="2589" arabic-form="final" 
d="M1352 373c16.667 -50.667 41.499 -88.1729 74.499 -112.506s75.5 -36.5 127.5 -36.5c58 0 100.5 13 127.5 39s40.5 67 40.5 123c0 26 -0.166992 47.833 -0.5 65.5s-0.833008 30.834 -1.5 39.501l-5 82l-2 19l19 2l165 20l21 2l1 -21l16 -231
c3.33301 -48.667 16.166 -84 38.499 -106s55.5 -33 99.5 -33c43.333 0 75.833 14.333 97.5 43s32.834 75 33.5 139c0 42.667 -1.66699 84.334 -5 125.001l-6 61l-2 20l20 2l165 19l20 3l2 -21l16 -189c6 -70 22.667 -121.333 50 -154s65.666 -49 115 -49h18
c6.66699 0 12.5 -1.33301 17.5 -4s8.83301 -6.83398 11.5 -12.501s4.83398 -10.834 6.5 -15.501c1.66699 -4.66699 2.83398 -11.667 3.5 -21l1.5 -21.5c0.333008 -5 0.5 -12.5 0.5 -22.5v-19c-0.666992 -2 -1 -5 -1 -9c0 -16 -0.333008 -28.167 -1 -36.5
s-2.16699 -18.166 -4.5 -29.499s-6.33301 -19.666 -12 -24.999s-13.167 -8 -22.5 -8h-16c-40 0 -76.167 4.33301 -108.5 13s-60.5 21.834 -84.5 39.501s-43.667 39.834 -59 66.501c-26.667 -39.333 -60.667 -69 -102 -89s-89.666 -30 -144.999 -30
c-122 0 -206.667 41 -254 123c-16.667 -20 -35.167 -37.667 -55.5 -53s-42 -28.166 -65 -38.499s-47.333 -18 -73 -23s-52.834 -7.5 -81.501 -7.5c-65.333 0 -120 12.667 -164 38c-0.666992 -9.33301 -1.66699 -18.5 -3 -27.5l-4 -27c-1.33301 -9 -2.83301 -18 -4.5 -27
s-3.66699 -18 -6 -27s-4.83301 -18 -7.5 -27s-5.5 -18 -8.5 -27s-6.33301 -18.167 -10 -27.5s-7.5 -18.5 -11.5 -27.5l-12 -27.5c-100.667 -209.333 -305.667 -314 -615 -314c-40.667 0 -79.667 2 -117 6s-72.666 9.83301 -105.999 17.5s-64.5 17.5 -93.5 29.5
s-56 25.667 -81 41s-48 32.833 -69 52.5s-40 41 -57 64s-31.833 48.167 -44.5 75.5s-23.167 56.333 -31.5 87s-14.666 63.334 -18.999 98.001s-6.5 71.334 -6.5 110.001c0 139.333 34.333 291.666 103 456.999l7 18l19 -7l158 -66l18 -7l-7 -19
c-54.667 -138.667 -82 -263.334 -82 -374.001c0 -123.333 34 -215.166 102 -275.499s172.667 -90.5 314 -90.5c154 0 268.5 35.167 343.5 105.5s112.833 177.5 113.5 321.5c0 39.333 -3.33301 78.833 -10 118.5s-16.5 79.667 -29.5 120s-29.5 80.5 -49.5 120.5l-9 20l21 8
l172 60l20 7l6 -20z" />
    <glyph glyph-name="uniFEB3" unicode="&#x633;" horiz-adv-x="1599" arabic-form="initial" 
d="M818 355c3.33301 18 5.00391 39.9951 5.00391 65.9951c0 14.667 -0.333008 29.667 -1 45s-1.66699 30.666 -3 45.999l-6 61l-1 19l19 2l165 20l21 2l1 -21l16 -231c3.33301 -48 16.166 -83.167 38.499 -105.5s55.166 -33.5 98.499 -33.5c10.667 0 20.667 0.833008 30 2.5
s18 4.33398 26 8.00098s15.333 8.33398 22 14.001s12.667 12.5 18 20.5s10.166 17 14.499 27s7.83301 21.167 10.5 33.5s4.66699 25.833 6 40.5s2 30.667 2 48c0 22 -1.66699 45.833 -5 71.5s-8.16602 53.5 -14.499 83.5s-14.166 61.667 -23.499 95l-6 19l20 6l171 45l18 5
l6 -18c34 -107.333 50.667 -207.333 50 -300v-3v-3c-0.666992 -78 -11.5 -146.167 -32.5 -204.5s-52.833 -106.166 -95.5 -143.499c-54 -47.333 -125 -71 -213 -71c-58 0 -108 10.333 -150 31s-74.667 51.334 -98 92.001c-69.333 -82.667 -163 -124 -281 -124
c-134.667 0.666992 -226.667 41.334 -276 122.001c-62.667 -81.333 -169.667 -122 -321 -122h-56c-26 0 -45.5 9.83301 -58.5 29.5s-19.5 45.834 -19.5 78.501v19c0 29.333 6.66699 52.833 20 70.5s32.666 26.5 57.999 26.5h58c44 0 81 5 111 15s53.5 24.5 70.5 43.5
s28.5 43.167 34.5 72.5c2 8.66699 3.5 18.667 4.5 30s1.5 23.333 1.5 36c0 14 -0.333008 28.5 -1 43.5s-1.66699 30.833 -3 47.5l-6 61l-1 19l19 2l165 20l20 2l2 -21l16 -231c3.33301 -48 18.166 -83.333 44.499 -106s66.166 -34 119.499 -34
c33.333 0 61.5 4.83301 84.5 14.5s41.5 24 55.5 43s24 43.5 30 73.5z" />
    <glyph glyph-name="uniFEB4" unicode="&#x633;" horiz-adv-x="1688" arabic-form="medial" 
d="M1034 364c2.66699 -32.667 9.33301 -59.166 20 -79.499s25.834 -35.333 45.501 -45s44.167 -14.5 73.5 -14.5c44 0 76.667 14.167 98 42.5s31.666 73.833 30.999 136.5c0 52 -1.66699 94.667 -5 128l-5 61l-2 20l20 2l164 19l21 3l2 -21l16 -189
c4 -47.333 12.833 -86 26.5 -116s32 -52 55 -66s50.833 -21 83.5 -21h18c6.66699 0 12.5 -1.33301 17.5 -4s8.83301 -6.83398 11.5 -12.501s4.83398 -10.834 6.50098 -15.501s2.83398 -11.667 3.50098 -21s1 -16.5 1 -21.5v-22.5v-19v-7c0 -67.333 -13.333 -101 -40 -101
h-16c-124 0 -208 39.667 -252 119c-54 -79.333 -137 -119 -249 -119c-57.333 0 -107.166 10.5 -149.499 31.5s-76.166 52.167 -101.499 93.5c-70 -83.333 -164 -125 -282 -125c-134.667 0.666992 -226.667 41.334 -276 122.001c-62.667 -81.333 -169.667 -122 -321 -122h-56
c-26 -0 -45.5 9.83301 -58.5 29.5s-19.5 45.834 -19.5 78.501v19c0 29.333 6.66699 52.833 20 70.5s32.666 26.5 57.999 26.5h58c65.333 0 115.666 10.833 150.999 32.5s57.333 54.5 66 98.5c3.33301 14.667 5 36.667 5 66c0 28 -1.33301 58.333 -4 91l-6 61l-1 19l19 2
l165 20l20 2l2 -21l16 -231c3.33301 -48 18.166 -83.333 44.499 -106s66.166 -34 119.499 -34c25.333 0 47.5 2.66699 66.5 8s35.5 13.333 49.5 24s25.5 24.167 34.5 40.5s15.833 35.833 20.5 58.5c2.66699 14.667 4 36.667 4 66s-1.33301 59.666 -4 90.999l-6 61l-1 19
l19 2l165 20l21 2l1 -21z" />
    <glyph glyph-name="uniFEB5" unicode="&#x634;" horiz-adv-x="2506" arabic-form="isolated" 
d="M1623.11 1236.92l142.304 142.303l7.48926 7.48926l7.48926 -7.48926l143.373 -143.373l7.48926 -7.48926l-7.48926 -7.49023l-142.303 -142.303l-7.48926 -7.48926l-7.49023 7.48926l-143.373 143.373l-7.48926 7.48926zM1787.89 968.365l142.303 142.303
l7.48926 7.48926l7.49023 -7.48926l143.373 -143.373l7.48828 -7.48926l-7.48828 -7.48926l-142.304 -142.304l-7.48926 -7.48926l-7.49023 7.48926l-143.372 143.373l-7.49023 7.48926zM1462.62 968.365l142.303 142.303l7.48926 7.48926l7.49023 -7.48926
l143.372 -143.373l7.49023 -7.48926l-7.49023 -7.48926l-142.303 -142.304l-7.48926 -7.48926l-7.49023 7.48926l-143.372 143.373l-7.49023 7.48926zM1553 0c-64.667 0 -119.333 13.0039 -164 39.0039c-6 -80.667 -28.333 -162.334 -67 -245.001
c-100.667 -209.333 -305.667 -314 -615 -314c-330 0 -529.667 123.333 -599 370c-17.333 63.333 -26 133.666 -26 210.999c0 139.333 34.333 291.666 103 456.999l7 18l19 -7l158 -66l18 -7l-7 -19c-54.667 -138.667 -82 -263.334 -82 -374.001
c0 -123.333 34 -215.166 102 -275.499s172.667 -90.5 314 -90.5c102.667 0 187.667 15.5 255 46.5s117.666 78 150.999 141s50.333 142.167 51 237.5c0 119.333 -29.667 239.666 -89 360.999l-9 20l21 8l172 60l20 7l6 -20l60 -185c16 -49.333 40.5 -85.833 73.5 -109.5
s75.833 -35.5 128.5 -35.5c60.667 0 105 13.667 133 41s41.667 70.666 41 129.999c0 18 -0.166992 34.333 -0.5 49s-0.666016 27.334 -0.999023 38.001s-0.833008 19.334 -1.5 26.001l-5 61l-2 19l19 2l165 20l21 2l1 -21l17 -231
c2.66699 -47.333 15.167 -81.833 37.5 -103.5s55.833 -32.5 100.5 -32.5c42.667 0.666992 74.667 16 96 46s31.833 78.333 31.5 145s-14.833 150 -43.5 250l-5 19l19 6l171 45l19 5l5 -18c34 -106.667 50.667 -208.667 50 -306c0 -157.333 -42.667 -273.333 -128 -348
c-54.667 -47.333 -125.667 -71 -213 -71c-58 0 -107.833 10.167 -149.5 30.5s-74.5 51.166 -98.5 92.499c-70 -82.667 -163.333 -124 -280 -124z" />
    <glyph glyph-name="uniFEB6" unicode="&#x634;" horiz-adv-x="2589" arabic-form="final" 
d="M1624.11 1236.92l142.304 142.303l7.48926 7.48926l7.48926 -7.48926l143.373 -143.373l7.48926 -7.48926l-7.48926 -7.49023l-142.303 -142.303l-7.48926 -7.48926l-7.49023 7.48926l-143.373 143.373l-7.48926 7.48926zM1788.89 968.365l142.303 142.303
l7.48926 7.48926l7.49023 -7.48926l143.373 -143.373l7.48828 -7.48926l-7.48828 -7.48926l-142.304 -142.304l-7.48926 -7.48926l-7.49023 7.48926l-143.372 143.373l-7.49023 7.48926zM1463.62 968.365l142.303 142.303l7.48926 7.48926l7.49023 -7.48926
l143.372 -143.373l7.49023 -7.48926l-7.49023 -7.48926l-142.303 -142.304l-7.48926 -7.48926l-7.49023 7.48926l-143.372 143.373l-7.49023 7.48926zM1352 373c16.667 -50.667 41.499 -88.1729 74.499 -112.506s75.5 -36.5 127.5 -36.5c58 0 100.5 13 127.5 39
s40.5 67 40.5 123c0 26 -0.166992 47.833 -0.5 65.5s-0.833008 30.834 -1.5 39.501l-5 82l-2 19l19 2l165 20l21 2l1 -21l16 -231c3.33301 -48.667 16.166 -84 38.499 -106s55.5 -33 99.5 -33c43.333 0 75.833 14.333 97.5 43s32.834 75 33.5 139
c0 42.667 -1.66699 84.334 -5 125.001l-6 61l-2 20l20 2l165 19l20 3l2 -21l16 -189c6 -70 22.667 -121.333 50 -154s65.666 -49 115 -49h18c6.66699 0 12.5 -1.33301 17.5 -4s8.83301 -6.83398 11.5 -12.501s4.83398 -10.834 6.5 -15.501
c1.66699 -4.66699 2.83398 -11.667 3.5 -21l1.5 -21.5c0.333008 -5 0.5 -12.5 0.5 -22.5v-19c-0.666992 -2 -1 -5 -1 -9c0 -16 -0.333008 -28.167 -1 -36.5s-2.16699 -18.166 -4.5 -29.499s-6.33301 -19.666 -12 -24.999s-13.167 -8 -22.5 -8h-16
c-40 0 -76.167 4.33301 -108.5 13s-60.5 21.834 -84.5 39.501s-43.667 39.834 -59 66.501c-26.667 -39.333 -60.667 -69 -102 -89s-89.666 -30 -144.999 -30c-122 0 -206.667 41 -254 123c-16.667 -20 -35.167 -37.667 -55.5 -53s-42 -28.166 -65 -38.499
s-47.333 -18 -73 -23s-52.834 -7.5 -81.501 -7.5c-65.333 0 -120 12.667 -164 38c-0.666992 -9.33301 -1.66699 -18.5 -3 -27.5l-4 -27c-1.33301 -9 -2.83301 -18 -4.5 -27s-3.66699 -18 -6 -27s-4.83301 -18 -7.5 -27s-5.5 -18 -8.5 -27s-6.33301 -18.167 -10 -27.5
s-7.5 -18.5 -11.5 -27.5l-12 -27.5c-100.667 -209.333 -305.667 -314 -615 -314c-40.667 0 -79.667 2 -117 6s-72.666 9.83301 -105.999 17.5s-64.5 17.5 -93.5 29.5s-56 25.667 -81 41s-48 32.833 -69 52.5s-40 41 -57 64s-31.833 48.167 -44.5 75.5
s-23.167 56.333 -31.5 87s-14.666 63.334 -18.999 98.001s-6.5 71.334 -6.5 110.001c0 139.333 34.333 291.666 103 456.999l7 18l19 -7l158 -66l18 -7l-7 -19c-54.667 -138.667 -82 -263.334 -82 -374.001c0 -123.333 34 -215.166 102 -275.499s172.667 -90.5 314 -90.5
c154 0 268.5 35.167 343.5 105.5s112.833 177.5 113.5 321.5c0 39.333 -3.33301 78.833 -10 118.5s-16.5 79.667 -29.5 120s-29.5 80.5 -49.5 120.5l-9 20l21 8l172 60l20 7l6 -20z" />
    <glyph glyph-name="uniFEB7" unicode="&#x634;" horiz-adv-x="1599" arabic-form="initial" 
d="M744.113 1236.92l142.304 142.303l7.48926 7.48926l7.48926 -7.48926l143.373 -143.373l7.48926 -7.48926l-7.48926 -7.49023l-142.303 -142.303l-7.48926 -7.48926l-7.49023 7.48926l-143.373 143.373l-7.48926 7.48926zM908.886 968.365l142.303 142.303
l7.48926 7.48926l7.49023 -7.48926l143.372 -143.373l7.49023 -7.48926l-7.49023 -7.48926l-142.303 -142.304l-7.48926 -7.48926l-7.49023 7.48926l-143.372 143.373l-7.49023 7.48926zM583.622 968.365l142.303 142.303l7.48926 7.48926l7.49023 -7.48926
l143.372 -143.373l7.49023 -7.48926l-7.49023 -7.48926l-142.303 -142.304l-7.48926 -7.48926l-7.49023 7.48926l-143.372 143.373l-7.49023 7.48926zM818 355c3.33301 18 5.00391 39.9951 5.00391 65.9951c0 14.667 -0.333008 29.667 -1 45s-1.66699 30.666 -3 45.999
l-6 61l-1 19l19 2l165 20l21 2l1 -21l16 -231c3.33301 -48 16.166 -83.167 38.499 -105.5s55.166 -33.5 98.499 -33.5c10.667 0 20.667 0.833008 30 2.5s18 4.33398 26 8.00098s15.333 8.33398 22 14.001s12.667 12.5 18 20.5s10.166 17 14.499 27s7.83301 21.167 10.5 33.5
s4.66699 25.833 6 40.5s2 30.667 2 48c0 22 -1.66699 45.833 -5 71.5s-8.16602 53.5 -14.499 83.5s-14.166 61.667 -23.499 95l-6 19l20 6l171 45l18 5l6 -18c34 -107.333 50.667 -207.333 50 -300v-3v-3c-0.666992 -78 -11.5 -146.167 -32.5 -204.5
s-52.833 -106.166 -95.5 -143.499c-54 -47.333 -125 -71 -213 -71c-58 0 -108 10.333 -150 31s-74.667 51.334 -98 92.001c-69.333 -82.667 -163 -124 -281 -124c-134.667 0.666992 -226.667 41.334 -276 122.001c-62.667 -81.333 -169.667 -122 -321 -122h-56
c-26 0 -45.5 9.83301 -58.5 29.5s-19.5 45.834 -19.5 78.501v19c0 29.333 6.66699 52.833 20 70.5s32.666 26.5 57.999 26.5h58c44 0 81 5 111 15s53.5 24.5 70.5 43.5s28.5 43.167 34.5 72.5c2 8.66699 3.5 18.667 4.5 30s1.5 23.333 1.5 36c0 14 -0.333008 28.5 -1 43.5
s-1.66699 30.833 -3 47.5l-6 61l-1 19l19 2l165 20l20 2l2 -21l16 -231c3.33301 -48 18.166 -83.333 44.499 -106s66.166 -34 119.499 -34c33.333 0 61.5 4.83301 84.5 14.5s41.5 24 55.5 43s24 43.5 30 73.5z" />
    <glyph glyph-name="uniFEB8" unicode="&#x634;" horiz-adv-x="1688" arabic-form="medial" 
d="M744.113 1236.92l142.304 142.303l7.48926 7.48926l7.48926 -7.48926l143.373 -143.373l7.48926 -7.48926l-7.48926 -7.49023l-142.303 -142.303l-7.48926 -7.48926l-7.49023 7.48926l-143.373 143.373l-7.48926 7.48926zM908.886 968.365l142.303 142.303
l7.48926 7.48926l7.49023 -7.48926l143.372 -143.373l7.49023 -7.48926l-7.49023 -7.48926l-142.303 -142.304l-7.48926 -7.48926l-7.49023 7.48926l-143.372 143.373l-7.49023 7.48926zM583.622 968.365l142.303 142.303l7.48926 7.48926l7.49023 -7.48926
l143.372 -143.373l7.49023 -7.48926l-7.49023 -7.48926l-142.303 -142.304l-7.48926 -7.48926l-7.49023 7.48926l-143.372 143.373l-7.49023 7.48926zM1034 364c2.66699 -32.667 9.33301 -59.166 20 -79.499s25.834 -35.333 45.501 -45s44.167 -14.5 73.5 -14.5
c44 0 76.667 14.167 98 42.5s31.666 73.833 30.999 136.5c0 52 -1.66699 94.667 -5 128l-5 61l-2 20l20 2l164 19l21 3l2 -21l16 -189c4 -47.333 12.833 -86 26.5 -116s32 -52 55 -66s50.833 -21 83.5 -21h18c6.66699 0 12.5 -1.33301 17.5 -4
s8.83301 -6.83398 11.5 -12.501s4.83398 -10.834 6.50098 -15.501s2.83398 -11.667 3.50098 -21s1 -16.5 1 -21.5v-22.5v-19v-7c0 -67.333 -13.333 -101 -40 -101h-16c-124 0 -208 39.667 -252 119c-54 -79.333 -137 -119 -249 -119c-57.333 0 -107.166 10.5 -149.499 31.5
s-76.166 52.167 -101.499 93.5c-70 -83.333 -164 -125 -282 -125c-134.667 0.666992 -226.667 41.334 -276 122.001c-62.667 -81.333 -169.667 -122 -321 -122h-56c-26 -0 -45.5 9.83301 -58.5 29.5s-19.5 45.834 -19.5 78.501v19c0 29.333 6.66699 52.833 20 70.5
s32.666 26.5 57.999 26.5h58c65.333 0 115.666 10.833 150.999 32.5s57.333 54.5 66 98.5c3.33301 14.667 5 36.667 5 66c0 28 -1.33301 58.333 -4 91l-6 61l-1 19l19 2l165 20l20 2l2 -21l16 -231c3.33301 -48 18.166 -83.333 44.499 -106s66.166 -34 119.499 -34
c25.333 0 47.5 2.66699 66.5 8s35.5 13.333 49.5 24s25.5 24.167 34.5 40.5s15.833 35.833 20.5 58.5c2.66699 14.667 4 36.667 4 66s-1.33301 59.666 -4 90.999l-6 61l-1 19l19 2l165 20l21 2l1 -21z" />
    <glyph glyph-name="uniFEB9" unicode="&#x635;" horiz-adv-x="2607" arabic-form="isolated" 
d="M1661 224l118 0.00195312c182 0 312 17.333 390 52c14.667 6.66699 28.334 14 41 22c12.667 8 24 16.333 34 25s18.667 18 26 28s13.333 20.667 18 32s8.33398 23 11 35c2.66699 12 4 25 4 39c0 19.333 -2.5 37.166 -7.5 53.499s-12.833 31.166 -23.5 44.499
c-35.333 46 -85.333 69.333 -150 70c-64 -0.666992 -134.833 -34.167 -212.5 -100.5s-160.5 -166.5 -248.5 -300.5zM1722 0.00195312c-72 0 -135.831 3.83496 -191.498 11.502s-102.834 19.167 -141.501 34.5c-4.66699 -85.333 -27 -169.333 -67 -252
c-100.667 -209.333 -305.667 -314 -615 -314c-330 0 -529.667 123.333 -599 370c-17.333 63.333 -26 133.666 -26 210.999c0 139.333 34.333 291.666 103 456.999l7 18l19 -7l158 -66l18 -7l-7 -19c-54.667 -138.667 -82 -263.334 -82 -374.001
c0 -123.333 34 -215.166 102 -275.499s172.667 -90.5 314 -90.5c102.667 0 187.667 15.5 255 46.5s117.666 78 150.999 141s50.333 142.167 51 237.5c0 119.333 -29.667 239.666 -89 360.999l-9 20l21 8l172 60l20 7l6 -20l68 -211c16.667 -51.333 38 -81.666 64 -90.999
c239.333 400.667 471 600.667 695 600c36.667 0 71.167 -3.5 103.5 -10.5s62.666 -17.333 91 -31c28.333 -13.667 54.5 -31 78.5 -52s45.667 -45.5 65 -73.5c22.667 -33.333 39.834 -68.333 51.5 -105c11.667 -36.667 17.167 -75 16.5 -115
c0 -37.333 -4.66699 -77.333 -14 -120c-54 -232.667 -300 -349 -738 -349h-51z" />
    <glyph glyph-name="uniFEBA" unicode="&#x635;" horiz-adv-x="2636" arabic-form="final" 
d="M2644 224c6.66699 0 12.498 -1.33008 17.498 -3.99707s8.83301 -6.83398 11.5 -12.501s4.83398 -10.834 6.5 -15.501c1.66699 -4.66699 2.83398 -11.667 3.5 -21c0.666992 -9.33301 1 -16.5 1 -21.5v-22.5v-19v-7c0 -16 -0.166992 -28.167 -0.5 -36.5
s-1.66602 -18.5 -4 -30.5c-2.33301 -12 -6.33301 -20.667 -12 -26s-13.5 -8 -23.5 -8h-24c-164 0 -282.333 26 -355 78c-51.333 -26.667 -117.666 -46.334 -198.999 -59.001s-179 -19 -293 -19h-51c-72 -0 -135.833 3.83301 -191.5 11.5s-102.834 19.167 -141.501 34.5
c-4.66699 -85.333 -27 -169.333 -67 -252c-100.667 -209.333 -305.667 -314 -615 -314c-205.333 0.666992 -360.666 49.5 -465.999 146.5s-158.333 240.833 -159 431.5c-0.666992 140 33.666 293.333 102.999 460l7 18l19 -7l158 -66l18 -7l-7 -19
c-54.667 -139.333 -82 -264.333 -82 -375c0.666992 -124.667 35.667 -217 105 -277s176 -89.333 320 -88c150.667 1.33301 262.834 36.833 336.501 106.5s110.834 175.167 111.501 316.5c0 120 -29.667 241 -89 363l-9 20l21 8l172 60l20 7l6 -20l68 -215
c16 -50 37.333 -79.333 64 -88c238.667 400 470.667 600.333 696 601c72 0.666992 136.333 -13 193 -41s104.667 -69.667 144 -125c46.667 -67.333 70 -143.333 70 -228c0 -20 -1.5 -39.667 -4.5 -59s-7.66699 -38.5 -14 -57.5s-13.833 -37.667 -22.5 -56
s-19 -36.166 -31 -53.499c10 -2.66699 22.833 -4.83398 38.5 -6.50098s34.667 -3 57 -4s47.5 -1.5 75.5 -1.5h18zM1661 224.003l118.001 0.000976562c180.667 0 310.667 17.333 390.001 52c90 40 134.667 100.333 134 181c-0.666992 38.667 -11 71.334 -31 98.001
c-18 23.333 -39.333 40.666 -64 51.999s-53.334 17.333 -86.001 18c-42.667 -0.666992 -88.167 -15.334 -136.5 -44.001s-99.833 -73 -154.5 -133s-111.334 -134.667 -170.001 -224z" />
    <glyph glyph-name="uniFEBB" unicode="&#x635;" horiz-adv-x="1690" arabic-form="initial" 
d="M744 224l118.001 0.00292969c182 0 311.667 17.333 389 52c89.333 39.333 134.333 99.666 135 180.999c0 38 -10.333 70.667 -31 98c-18 23.333 -39.333 40.666 -64 51.999s-53.334 17.333 -86.001 18c-42.667 -0.666992 -88 -15.334 -136 -44.001s-99.5 -73 -154.5 -133
s-111.833 -134.667 -170.5 -224zM347.001 132.003c-75.333 -88 -187.666 -131.997 -336.999 -131.997h-17c-26 0 -45.5 9.83301 -58.5 29.5s-19.5 45.834 -19.5 78.501v19c0 19.333 2.83301 36.166 8.5 50.499s14.5 25.666 26.5 33.999s26.667 12.5 44 12.5h16
c138 0 213.667 38.667 227 116c7.33301 39.333 8.33301 96.666 3 171.999l-5 82l-2 19l19 2l165 20l21 2l1 -21l18 -232c5.33301 -68 22.333 -110 51 -126c239.333 399.333 470.666 598.666 693.999 597.999c147.333 0 260 -55.667 338 -167c46 -66.667 68.667 -140 68 -220
c0 -37.333 -4.66699 -77.333 -14 -120c-54 -232.667 -300 -349 -738 -349h-51c-234 0 -386.667 44 -458 132z" />
    <glyph glyph-name="uniFEBC" unicode="&#x635;" horiz-adv-x="1719" arabic-form="medial" 
d="M457 384c2.66699 -35.333 8.49609 -63.3291 17.4961 -83.9961s20.167 -34.667 33.5 -42c240 399.333 472 598.666 696 597.999c144.667 0 256.667 -55.333 336 -166c7.33301 -11.333 14.333 -22.833 21 -34.5s12.667 -23.667 18 -36s9.83301 -24.833 13.5 -37.5
s6.83398 -25.5 9.50098 -38.5s4.66699 -26.333 6 -40s2 -27.5 2 -41.5c0 -39.333 -6 -77.833 -18 -115.5s-30 -74.5 -54 -110.5c30.667 -8 87.667 -12 171 -12h18c6.66699 0 12.5 -1.33301 17.5 -4s8.83301 -6.83398 11.5 -12.501s4.83398 -10.834 6.50098 -15.501
s2.83398 -11.667 3.50098 -21s1 -16.5 1 -21.5v-22.5v-19v-7c0 -16 -0.166992 -28.167 -0.5 -36.5s-1.66602 -18.5 -3.99902 -30.5s-6.33301 -20.667 -12 -26s-13.5 -8 -23.5 -8h-24c-164 0 -282.333 26 -355 78c-51.333 -26.667 -117.666 -46.334 -198.999 -59.001
s-179 -19 -293 -19h-51c-232 0 -384.333 44 -457 132c-76 -88 -188.667 -132 -338 -132h-17c-26 -0 -45.5 9.83301 -58.5 29.5s-19.5 45.834 -19.5 78.501v19c0 29.333 6.66699 52.833 20 70.5s32.666 26.5 57.999 26.5h16c138.667 0 214.667 38.667 228 116
c7.33301 39.333 8.33301 96.666 3 171.999l-5 82l-2 19l19 2l165 20l21 2l1 -21zM743.996 224.004l118.001 0.00195312c180.667 0 310.667 17.333 390 52c30 13.333 55 29 75 47s34.667 38 44 60s14.333 46.667 15 74c0 38 -10.333 70.667 -31 98
c-18 23.333 -39.333 40.666 -64 51.999s-53.334 17.333 -86.001 18c-42.667 -0.666992 -88 -15.334 -136 -44.001s-99.5 -73 -154.5 -133s-111.833 -134.667 -170.5 -224z" />
    <glyph glyph-name="uniFEBD" unicode="&#x636;" horiz-adv-x="2607" arabic-form="isolated" 
d="M1928.71 1190.69l145.512 145.513l7.49023 7.48926l7.49023 -7.48926l146.582 -146.583l7.49023 -7.48926l-7.49023 -7.49023l-145.513 -145.513l-7.48926 -7.48926l-7.49023 7.48926l-146.582 146.583l-7.49023 7.48926zM1661 224l118 0.00195312
c182 0 312 17.333 390 52c14.667 6.66699 28.334 14 41 22c12.667 8 24 16.333 34 25s18.667 18 26 28s13.333 20.667 18 32s8.33398 23 11 35c2.66699 12 4 25 4 39c0 19.333 -2.5 37.166 -7.5 53.499s-12.833 31.166 -23.5 44.499c-35.333 46 -85.333 69.333 -150 70
c-64 -0.666992 -134.833 -34.167 -212.5 -100.5s-160.5 -166.5 -248.5 -300.5zM1722 0.00195312c-72 0 -135.831 3.83496 -191.498 11.502s-102.834 19.167 -141.501 34.5c-4.66699 -85.333 -27 -169.333 -67 -252c-100.667 -209.333 -305.667 -314 -615 -314
c-330 0 -529.667 123.333 -599 370c-17.333 63.333 -26 133.666 -26 210.999c0 139.333 34.333 291.666 103 456.999l7 18l19 -7l158 -66l18 -7l-7 -19c-54.667 -138.667 -82 -263.334 -82 -374.001c0 -123.333 34 -215.166 102 -275.499s172.667 -90.5 314 -90.5
c102.667 0 187.667 15.5 255 46.5s117.666 78 150.999 141s50.333 142.167 51 237.5c0 119.333 -29.667 239.666 -89 360.999l-9 20l21 8l172 60l20 7l6 -20l68 -211c16.667 -51.333 38 -81.666 64 -90.999c239.333 400.667 471 600.667 695 600
c36.667 0 71.167 -3.5 103.5 -10.5s62.666 -17.333 91 -31c28.333 -13.667 54.5 -31 78.5 -52s45.667 -45.5 65 -73.5c22.667 -33.333 39.834 -68.333 51.5 -105c11.667 -36.667 17.167 -75 16.5 -115c0 -37.333 -4.66699 -77.333 -14 -120
c-54 -232.667 -300 -349 -738 -349h-51z" />
    <glyph glyph-name="uniFEBE" unicode="&#x636;" horiz-adv-x="2636" arabic-form="final" 
d="M1928.71 1190.69l145.512 145.513l7.49023 7.48926l7.49023 -7.48926l146.582 -146.583l7.49023 -7.48926l-7.49023 -7.49023l-145.513 -145.513l-7.48926 -7.48926l-7.49023 7.48926l-146.582 146.583l-7.49023 7.48926zM2644 224
c6.66699 0 12.498 -1.33008 17.498 -3.99707s8.83301 -6.83398 11.5 -12.501s4.83398 -10.834 6.5 -15.501c1.66699 -4.66699 2.83398 -11.667 3.5 -21c0.666992 -9.33301 1 -16.5 1 -21.5v-22.5v-19v-7c0 -16 -0.166992 -28.167 -0.5 -36.5s-1.66602 -18.5 -4 -30.5
c-2.33301 -12 -6.33301 -20.667 -12 -26s-13.5 -8 -23.5 -8h-24c-164 0 -282.333 26 -355 78c-51.333 -26.667 -117.666 -46.334 -198.999 -59.001s-179 -19 -293 -19h-51c-72 -0 -135.833 3.83301 -191.5 11.5s-102.834 19.167 -141.501 34.5
c-4.66699 -85.333 -27 -169.333 -67 -252c-100.667 -209.333 -305.667 -314 -615 -314c-205.333 0.666992 -360.666 49.5 -465.999 146.5s-158.333 240.833 -159 431.5c-0.666992 140 33.666 293.333 102.999 460l7 18l19 -7l158 -66l18 -7l-7 -19
c-54.667 -139.333 -82 -264.333 -82 -375c0.666992 -124.667 35.667 -217 105 -277s176 -89.333 320 -88c150.667 1.33301 262.834 36.833 336.501 106.5s110.834 175.167 111.501 316.5c0 120 -29.667 241 -89 363l-9 20l21 8l172 60l20 7l6 -20l68 -215
c16 -50 37.333 -79.333 64 -88c238.667 400 470.667 600.333 696 601c72 0.666992 136.333 -13 193 -41s104.667 -69.667 144 -125c46.667 -67.333 70 -143.333 70 -228c0 -20 -1.5 -39.667 -4.5 -59s-7.66699 -38.5 -14 -57.5s-13.833 -37.667 -22.5 -56
s-19 -36.166 -31 -53.499c10 -2.66699 22.833 -4.83398 38.5 -6.50098s34.667 -3 57 -4s47.5 -1.5 75.5 -1.5h18zM1661 224.003l118.001 0.000976562c180.667 0 310.667 17.333 390.001 52c90 40 134.667 100.333 134 181c-0.666992 38.667 -11 71.334 -31 98.001
c-18 23.333 -39.333 40.666 -64 51.999s-53.334 17.333 -86.001 18c-42.667 -0.666992 -88.167 -15.334 -136.5 -44.001s-99.833 -73 -154.5 -133s-111.334 -134.667 -170.001 -224z" />
    <glyph glyph-name="uniFEBF" unicode="&#x636;" horiz-adv-x="1690" arabic-form="initial" 
d="M1008.71 1190.69l145.513 145.513l7.48926 7.48926l7.48926 -7.48926l146.583 -146.583l7.48926 -7.48926l-7.48926 -7.49023l-145.513 -145.513l-7.48926 -7.48926l-7.49023 7.48926l-146.582 146.583l-7.49023 7.48926zM744 224l118.001 0.00292969
c182 0 311.667 17.333 389 52c89.333 39.333 134.333 99.666 135 180.999c0 38 -10.333 70.667 -31 98c-18 23.333 -39.333 40.666 -64 51.999s-53.334 17.333 -86.001 18c-42.667 -0.666992 -88 -15.334 -136 -44.001s-99.5 -73 -154.5 -133s-111.833 -134.667 -170.5 -224
zM347.001 132.003c-75.333 -88 -187.666 -131.997 -336.999 -131.997h-17c-26 0 -45.5 9.83301 -58.5 29.5s-19.5 45.834 -19.5 78.501v19c0 19.333 2.83301 36.166 8.5 50.499s14.5 25.666 26.5 33.999s26.667 12.5 44 12.5h16c138 0 213.667 38.667 227 116
c7.33301 39.333 8.33301 96.666 3 171.999l-5 82l-2 19l19 2l165 20l21 2l1 -21l18 -232c5.33301 -68 22.333 -110 51 -126c239.333 399.333 470.666 598.666 693.999 597.999c147.333 0 260 -55.667 338 -167c46 -66.667 68.667 -140 68 -220
c0 -37.333 -4.66699 -77.333 -14 -120c-54 -232.667 -300 -349 -738 -349h-51c-234 0 -386.667 44 -458 132z" />
    <glyph glyph-name="uniFEC0" unicode="&#x636;" horiz-adv-x="1719" arabic-form="medial" 
d="M1008.71 1190.69l145.513 145.513l7.48926 7.48926l7.48926 -7.48926l146.583 -146.583l7.48926 -7.48926l-7.48926 -7.49023l-145.513 -145.513l-7.48926 -7.48926l-7.49023 7.48926l-146.582 146.583l-7.49023 7.48926zM457 384
c2.66699 -35.333 8.49609 -63.3291 17.4961 -83.9961s20.167 -34.667 33.5 -42c240 399.333 472 598.666 696 597.999c144.667 0 256.667 -55.333 336 -166c7.33301 -11.333 14.333 -22.833 21 -34.5s12.667 -23.667 18 -36s9.83301 -24.833 13.5 -37.5
s6.83398 -25.5 9.50098 -38.5s4.66699 -26.333 6 -40s2 -27.5 2 -41.5c0 -39.333 -6 -77.833 -18 -115.5s-30 -74.5 -54 -110.5c30.667 -8 87.667 -12 171 -12h18c6.66699 0 12.5 -1.33301 17.5 -4s8.83301 -6.83398 11.5 -12.501s4.83398 -10.834 6.50098 -15.501
s2.83398 -11.667 3.50098 -21s1 -16.5 1 -21.5v-22.5v-19v-7c0 -16 -0.166992 -28.167 -0.5 -36.5s-1.66602 -18.5 -3.99902 -30.5s-6.33301 -20.667 -12 -26s-13.5 -8 -23.5 -8h-24c-164 0 -282.333 26 -355 78c-51.333 -26.667 -117.666 -46.334 -198.999 -59.001
s-179 -19 -293 -19h-51c-232 0 -384.333 44 -457 132c-76 -88 -188.667 -132 -338 -132h-17c-26 -0 -45.5 9.83301 -58.5 29.5s-19.5 45.834 -19.5 78.501v19c0 29.333 6.66699 52.833 20 70.5s32.666 26.5 57.999 26.5h16c138.667 0 214.667 38.667 228 116
c7.33301 39.333 8.33301 96.666 3 171.999l-5 82l-2 19l19 2l165 20l21 2l1 -21zM743.996 224.004l118.001 0.00195312c180.667 0 310.667 17.333 390 52c30 13.333 55 29 75 47s34.667 38 44 60s14.333 46.667 15 74c0 38 -10.333 70.667 -31 98
c-18 23.333 -39.333 40.666 -64 51.999s-53.334 17.333 -86.001 18c-42.667 -0.666992 -88 -15.334 -136 -44.001s-99.5 -73 -154.5 -133s-111.833 -134.667 -170.5 -224z" />
    <glyph glyph-name="uniFEC1" unicode="&#x637;" horiz-adv-x="1490" arabic-form="isolated" 
d="M1008 856c148.667 0 261.333 -55.999 338 -167.999c42.667 -62 64 -133.333 64 -214c0 -158.667 -63.667 -277.334 -191 -356.001c-126.667 -78.667 -313.667 -118 -561 -118h-557h-20v20v184v20h20h212c14 20 35 53 63 99v1096v20h20h173h20v-20v-800
c138 158 277.667 237 419 237zM663.999 225.001c178 0 307.668 17.6689 389.001 53.002c46 20 80 44.667 102 74s33 63.666 33 102.999c0 50.667 -17.667 92 -53 124c-33.333 30.667 -76 46 -128 46c-32 0 -65.667 -8.16699 -101 -24.5s-72.333 -41 -111 -74
s-78.834 -74.833 -120.501 -125.5s-84.5 -109.334 -128.5 -176.001h118z" />
    <glyph glyph-name="uniFEC2" unicode="&#x637;" horiz-adv-x="1526" arabic-form="final" 
d="M546 225l118 -0.00195312c178.667 0 309 18.333 391 55c45.333 20 78.666 44.333 99.999 73s32.333 62.667 33 102c0 26 -4.33301 49 -13 69s-21.667 38 -39 54c-11.333 10.667 -23.666 19.334 -36.999 26.001s-27.833 11.834 -43.5 15.501s-32.5 5.5 -50.5 5.5
c-134.667 -2 -287.667 -135.333 -459 -400zM658 -0.00195312h-557.001h-20v20v184v20h20h211l24 38l39 62v1095v20h20h174h20v-20v-799c135.333 157.333 274.333 236 417 236c146.667 0.666992 260 -55 340 -167c10.667 -15.333 20 -31.333 28 -48s14.667 -34 20 -52
c10.667 -35.333 16 -73.333 16 -114c0 -47.333 -6.33301 -92.333 -19 -135c-4 -12 -8.5 -24 -13.5 -36s-10.167 -23.667 -15.5 -35c-6 -11.333 -12.333 -22.333 -19 -33c14 -4 35.667 -7 65 -9c28.667 -2 64.334 -3 107.001 -3h18c6.66699 0 12.334 -1.33301 17.001 -4
c5.33301 -2.66699 9.33301 -6.66699 12 -12l7 -16c1.33301 -4.66699 2.33301 -11.667 3 -21s1 -16.333 1 -21v-23v-19v-7c0 -16 -0.166992 -28.167 -0.5 -36.5s-1.83301 -18.5 -4.5 -30.5c-2 -12 -6 -20.667 -12 -26c-5.33301 -5.33301 -13 -8 -23 -8h-24
c-85.333 0 -158.333 6.33301 -219 19c-60.667 13.333 -109.334 33 -146.001 59c-36 -17.333 -78 -32 -126 -44c-48.667 -11.333 -102.667 -20 -162 -26c-59.333 -5.33301 -125.333 -8 -198 -8z" />
    <glyph glyph-name="uniFEC3" unicode="&#x637;" horiz-adv-x="1330" arabic-form="initial" 
d="M496 0l-502.999 -0.00195312c-26 0 -45.333 10 -58 30c-13.333 19.333 -20 45.333 -20 78v19c0 29.333 6.66699 52.833 20 70.5s32.666 26.5 57.999 26.5h156l64 100v1095v20h20h173h20v-20v-799c135.333 157.333 274.666 236 417.999 236
c147.333 0.666992 260.333 -55 339 -167c4 -5.33301 7.5 -10.666 10.5 -15.999s6.16699 -10.666 9.5 -15.999l8 -16c2.66699 -6 5.33398 -11.667 8.00098 -17c2 -6 4 -11.667 6 -17l6 -18c5.33301 -17.333 9.33301 -35.666 12 -54.999c2.66699 -18.667 4 -38.334 4 -59.001
c0 -158.667 -63.5 -277.5 -190.5 -356.5s-313.833 -118.5 -560.5 -118.5zM384.001 224.998l116.996 -0.00195312c178.667 0 309.334 18 392.001 54c88 38.667 132 97.334 132 176.001c0 50.667 -17.333 91.667 -52 123c-17.333 16 -36.666 27.667 -57.999 35
c-22 8 -46.333 12 -73 12c-65.333 -1.33301 -136.666 -35.166 -213.999 -101.499s-158.666 -165.833 -243.999 -298.5z" />
    <glyph glyph-name="uniFEC4" unicode="&#x637;" horiz-adv-x="1354" arabic-form="medial" 
d="M384 225l116.996 -0.000976562c176.667 0 307.334 18.333 392.001 55c88 38 132 96.333 132 175c0 50.667 -17.333 91.667 -52 123c-17.333 16 -36.666 27.667 -57.999 35c-22 8 -46.333 12 -73 12c-65.333 -1.33301 -136.666 -35.166 -213.999 -101.499
s-158.666 -165.833 -243.999 -298.5zM495.996 -0.000976562h-502.999c-26 0 -45.333 10 -58 30c-13.333 19.333 -20 45.333 -20 78v19c0 29.333 6.66699 52.833 20 70.5s32.666 26.5 57.999 26.5h157l19 30c6 9.33301 11.333 18 16 26l13 20l9 14c4 6 6 9.33301 6 10v1095
v20h20h173h20v-20v-799c135.333 157.333 274.666 236 417.999 236c150.667 0.666992 263.667 -55.333 339 -168c42.667 -62.667 64 -133.667 64 -213c0 -88 -22.333 -168 -67 -240c27.333 -7.33301 81.333 -11 162 -11h19c6 0 11.667 -1.33301 17 -4
c4.66699 -2.66699 8.33398 -6.66699 11.001 -12l7 -16c2 -4.66699 3 -11.667 3 -21c0.666992 -9.33301 1.33398 -16.333 2.00098 -21v-23v-19v-5c0 -16 -0.333008 -28.333 -1 -37s-2 -19 -4 -31s-6 -21 -12 -27c-6 -5.33301 -13.667 -8 -23 -8h-24
c-165.333 0 -284 26 -356 78c-112.667 -52 -274.334 -78 -485.001 -78z" />
    <glyph glyph-name="uniFEC5" unicode="&#x638;" horiz-adv-x="1490" arabic-form="isolated" 
d="M1008 856c148.667 0 261.333 -55.999 338 -167.999c42.667 -62 64 -133.333 64 -214c0 -158.667 -63.667 -277.334 -191 -356.001c-126.667 -78.667 -313.667 -118 -561 -118h-557h-20v20v184v20h20h212c14 20 35 53 63 99v1096v20h20h173h20v-20v-800
c138 158 277.667 237 419 237zM663.999 225.001c178 0 307.668 17.6689 389.001 53.002c46 20 80 44.667 102 74s33 63.666 33 102.999c0 50.667 -17.667 92 -53 124c-33.333 30.667 -76 46 -128 46c-32 0 -65.667 -8.16699 -101 -24.5s-72.333 -41 -111 -74
s-78.834 -74.833 -120.501 -125.5s-84.5 -109.334 -128.5 -176.001h118zM846.713 1190.7l145.513 145.513l7.48926 7.48926l7.48926 -7.48926l146.583 -146.583l7.48926 -7.48926l-7.48926 -7.49023l-145.513 -145.513l-7.48926 -7.48926l-7.49023 7.48926l-146.582 146.583
l-7.49023 7.48926z" />
    <glyph glyph-name="uniFEC6" unicode="&#x638;" horiz-adv-x="1526" arabic-form="final" 
d="M846.713 1190.69l145.513 145.513l7.48926 7.48926l7.48926 -7.48926l146.583 -146.583l7.48926 -7.48926l-7.48926 -7.49023l-145.513 -145.513l-7.48926 -7.48926l-7.49023 7.48926l-146.582 146.583l-7.49023 7.48926zM546 225l118 -0.00195312
c178.667 0 309 18.333 391 55c45.333 20 78.666 44.333 99.999 73s32.333 62.667 33 102c0 26 -4.33301 49 -13 69s-21.667 38 -39 54c-11.333 10.667 -23.666 19.334 -36.999 26.001s-27.833 11.834 -43.5 15.501s-32.5 5.5 -50.5 5.5
c-134.667 -2 -287.667 -135.333 -459 -400zM658 -0.00195312h-557.001h-20v20v184v20h20h211l24 38l39 62v1095v20h20h174h20v-20v-799c135.333 157.333 274.333 236 417 236c146.667 0.666992 260 -55 340 -167c10.667 -15.333 20 -31.333 28 -48s14.667 -34 20 -52
c10.667 -35.333 16 -73.333 16 -114c0 -47.333 -6.33301 -92.333 -19 -135c-4 -12 -8.5 -24 -13.5 -36s-10.167 -23.667 -15.5 -35c-6 -11.333 -12.333 -22.333 -19 -33c14 -4 35.667 -7 65 -9c28.667 -2 64.334 -3 107.001 -3h18c6.66699 0 12.334 -1.33301 17.001 -4
c5.33301 -2.66699 9.33301 -6.66699 12 -12l7 -16c1.33301 -4.66699 2.33301 -11.667 3 -21s1 -16.333 1 -21v-23v-19v-7c0 -16 -0.166992 -28.167 -0.5 -36.5s-1.83301 -18.5 -4.5 -30.5c-2 -12 -6 -20.667 -12 -26c-5.33301 -5.33301 -13 -8 -23 -8h-24
c-85.333 0 -158.333 6.33301 -219 19c-60.667 13.333 -109.334 33 -146.001 59c-36 -17.333 -78 -32 -126 -44c-48.667 -11.333 -102.667 -20 -162 -26c-59.333 -5.33301 -125.333 -8 -198 -8z" />
    <glyph glyph-name="uniFEC7" unicode="&#x638;" horiz-adv-x="1330" arabic-form="initial" 
d="M686.713 1190.69l145.513 145.513l7.48926 7.48926l7.48926 -7.48926l146.583 -146.583l7.48926 -7.48926l-7.48926 -7.49023l-145.513 -145.513l-7.48926 -7.48926l-7.49023 7.48926l-146.582 146.583l-7.49023 7.48926zM496 0l-502.999 -0.00195312
c-26 0 -45.333 10 -58 30c-13.333 19.333 -20 45.333 -20 78v19c0 29.333 6.66699 52.833 20 70.5s32.666 26.5 57.999 26.5h156l64 100v1095v20h20h173h20v-20v-799c135.333 157.333 274.666 236 417.999 236c147.333 0.666992 260.333 -55 339 -167
c4 -5.33301 7.5 -10.666 10.5 -15.999s6.16699 -10.666 9.5 -15.999l8 -16c2.66699 -6 5.33398 -11.667 8.00098 -17c2 -6 4 -11.667 6 -17l6 -18c5.33301 -17.333 9.33301 -35.666 12 -54.999c2.66699 -18.667 4 -38.334 4 -59.001c0 -158.667 -63.5 -277.5 -190.5 -356.5
s-313.833 -118.5 -560.5 -118.5zM384.001 224.998l116.996 -0.00195312c178.667 0 309.334 18 392.001 54c88 38.667 132 97.334 132 176.001c0 50.667 -17.333 91.667 -52 123c-17.333 16 -36.666 27.667 -57.999 35c-22 8 -46.333 12 -73 12
c-65.333 -1.33301 -136.666 -35.166 -213.999 -101.499s-158.666 -165.833 -243.999 -298.5z" />
    <glyph glyph-name="uniFEC8" unicode="&#x638;" horiz-adv-x="1354" arabic-form="medial" 
d="M686.713 1190.69l145.513 145.513l7.48926 7.48926l7.48926 -7.48926l146.583 -146.583l7.48926 -7.48926l-7.48926 -7.49023l-145.513 -145.513l-7.48926 -7.48926l-7.49023 7.48926l-146.582 146.583l-7.49023 7.48926zM384 225l116.996 -0.000976562
c176.667 0 307.334 18.333 392.001 55c88 38 132 96.333 132 175c0 50.667 -17.333 91.667 -52 123c-17.333 16 -36.666 27.667 -57.999 35c-22 8 -46.333 12 -73 12c-65.333 -1.33301 -136.666 -35.166 -213.999 -101.499s-158.666 -165.833 -243.999 -298.5z
M495.996 -0.000976562h-502.999c-26 0 -45.333 10 -58 30c-13.333 19.333 -20 45.333 -20 78v19c0 29.333 6.66699 52.833 20 70.5s32.666 26.5 57.999 26.5h157l19 30c6 9.33301 11.333 18 16 26l13 20l9 14c4 6 6 9.33301 6 10v1095v20h20h173h20v-20v-799
c135.333 157.333 274.666 236 417.999 236c150.667 0.666992 263.667 -55.333 339 -168c42.667 -62.667 64 -133.667 64 -213c0 -88 -22.333 -168 -67 -240c27.333 -7.33301 81.333 -11 162 -11h19c6 0 11.667 -1.33301 17 -4c4.66699 -2.66699 8.33398 -6.66699 11.001 -12
l7 -16c2 -4.66699 3 -11.667 3 -21c0.666992 -9.33301 1.33398 -16.333 2.00098 -21v-23v-19v-5c0 -16 -0.333008 -28.333 -1 -37s-2 -19 -4 -31s-6 -21 -12 -27c-6 -5.33301 -13.667 -8 -23 -8h-24c-165.333 0 -284 26 -356 78c-112.667 -52 -274.334 -78 -485.001 -78z
" />
    <glyph glyph-name="uniFEC9" unicode="&#x639;" horiz-adv-x="1330" arabic-form="isolated" 
d="M643 505c116 19.333 215.336 29.332 298.003 29.999c63.333 0 125 -3.33301 185 -10l20 -3l-2 -20l-23 -175l-2 -18l-18 1c-19.333 0.666992 -36.5 1.16699 -51.5 1.5s-27.833 0.5 -38.5 0.5h-25c-234 -6.66699 -407.667 -46.5 -521 -119.5s-170 -178.833 -170 -317.5
c0 -74 17.833 -135.5 53.5 -184.5s90.5 -86 164.5 -111s168 -37.5 282 -37.5c68 0 135.167 7.83301 201.5 23.5s132.5 38.834 198.5 69.501l23 11l5 -25l36 -179l3 -15l-14 -7c-16.667 -8 -33.834 -15.667 -51.501 -23s-35.5 -14 -53.5 -20s-36.5 -11.667 -55.5 -17
s-38.167 -10 -57.5 -14s-39 -7.66699 -59 -11s-40.333 -6 -61 -8s-41.5 -3.5 -62.5 -4.5s-42.5 -1.5 -64.5 -1.5c-384 0 -609.667 125.333 -677 376c-14 52 -21 109 -21 171c0 260.667 115.333 446.667 346 558c-24 30 -44.167 60.667 -60.5 92s-28.5 63.5 -36.5 96.5
s-12 66.5 -12 100.5c0 12 0.666992 24.167 2 36.5s3.16602 24.5 5.49902 36.5s5.33301 24.167 9 36.5s7.83398 24.5 12.501 36.5c9.33301 23.333 21 45.833 35 67.5s30.333 42.5 49 62.5c71.333 75.333 171 113 299 113c106 0 220.333 -42 343 -126l14 -9l-7 -16l-67 -149
l-10 -20l-19 11c-48.667 28.667 -93.334 50.167 -134.001 64.5s-77.334 21.5 -110.001 21.5c-78.667 0 -135.667 -29.667 -171 -89c-18 -29.333 -27 -59.333 -27 -90c0 -26.667 7 -54.667 21 -84c6.66699 -13.333 16.5 -29.5 29.5 -48.5s28.5 -40.5 46.5 -64.5z" />
    <glyph glyph-name="uniFECA" unicode="&#x639;" horiz-adv-x="1187" arabic-form="final" 
d="M585 202c-193.333 -109.333 -290.002 -235.333 -290.002 -378c0 -26 2.5 -49.833 7.5 -71.5s12.667 -41.834 23 -60.501s23.5 -35.334 39.5 -50.001s35 -27.667 57 -39s46.833 -20.666 74.5 -27.999s58.334 -13 92.001 -17s70.5 -6 110.5 -6
c108.667 0 220.667 23.667 336 71l23 10l5 -24l36 -179l3 -16l-15 -6c-56.667 -26 -118.334 -45.333 -185.001 -58s-138 -18.667 -214 -18c-86.667 0 -164 8.33301 -232 25s-126.667 41.667 -176 75c-64.667 44 -113.334 98.833 -146.001 164.5s-49.334 141.5 -50.001 227.5
c0 208 99.667 379.333 299 514c-180.667 110.667 -271 218.334 -271 323.001c0 78.667 58 143.334 174 194.001c75.333 32.667 178 49 308 49c44.667 0 85.834 -1.66699 123.501 -5s72.334 -8.5 104.001 -15.5s60.167 -15.833 85.5 -26.5c107.333 -46 161 -110 161 -192
c0 -50.667 -25.333 -103.834 -76 -159.501s-126 -115.5 -226 -179.5c99.333 -68 233 -102 401 -102h29c6 0 11.5 -1.16699 16.5 -3.5s8.83301 -6.5 11.5 -12.5s4.83398 -11.333 6.50098 -16s2.83398 -11.667 3.50098 -21s1 -16.333 1 -21v-23v-19v-7v-14v-14
c0 -6 -0.166992 -10.833 -0.5 -14.5s-0.833008 -8 -1.5 -13s-1.5 -9.16699 -2.5 -12.5s-2.16699 -7 -3.5 -11s-3 -7.16699 -5 -9.5s-4.33301 -4.5 -7 -6.5s-5.66699 -3.5 -9 -4.5s-7 -1.5 -11 -1.5h-28c-203.333 -0 -397.333 67.333 -582 202zM587.998 468
c56.667 30.667 105.33 59.666 145.997 86.999s69.334 48.5 86.001 63.5s25 25.833 25 32.5c-1.33301 2 -5.66602 4.5 -12.999 7.5s-18.166 5.83301 -32.499 8.5s-30.833 5.16699 -49.5 7.5s-41.667 4.16602 -69 5.49902s-56.666 2 -87.999 2
c-58.667 0 -108.334 -2.66699 -149.001 -8s-68 -11.166 -82 -17.499s-21 -12.166 -21 -17.499c1.33301 -5.33301 10.333 -15.166 27 -29.499s44.5 -34.333 83.5 -60s84.5 -52.834 136.5 -81.501z" />
    <glyph glyph-name="uniFECB" unicode="&#x639;" horiz-adv-x="1068" arabic-form="initial" 
d="M850 589c-40 32.667 -79.332 57.1621 -117.999 73.4951s-77.334 24.5 -116.001 24.5c-10 0 -19.667 -0.166992 -29 -0.5s-18.5 -1.33301 -27.5 -3s-17.667 -3.5 -26 -5.5s-16.5 -4.33301 -24.5 -7c-16 -6 -30.667 -13.167 -44 -21.5s-25.666 -17.833 -36.999 -28.5
c-21.333 -21.333 -37.666 -45.333 -48.999 -72c-2.66699 -6 -5 -12.5 -7 -19.5s-3.66699 -14.167 -5 -21.5s-2.33301 -14.833 -3 -22.5s-1 -15.5 -1 -23.5c0 -40.667 11.833 -77 35.5 -109s60.167 -60 109.5 -84c6.66699 -3.33301 12 -5.66602 16 -6.99902l432 109l25 7v-26
v-184v-14l-14 -5c-319.333 -99.333 -613.333 -149 -882 -149h-92c-26 0 -45.5 9.83301 -58.5 29.5s-19.5 45.834 -19.5 78.501v19c0 14.667 1.66699 27.834 5 39.501s8.16602 21.834 14.499 30.501s14.5 15.334 24.5 20.001s21.333 7 34 7h237l-11.5 16l-11.5 16
c-19.333 30 -34 63 -44 99s-14.667 75 -14 117c0.666992 114 31.667 209.667 93 287c33.333 42 74.666 76.333 123.999 103c64.667 34.667 140 51.667 226 51c142.667 -0.666992 260 -49 352 -145l10 -10l-6 -12l-67 -150l-11 -24z" />
    <glyph glyph-name="uniFECC" unicode="&#x639;" horiz-adv-x="1151" arabic-form="medial" 
d="M797 273c72.667 -32.667 185.333 -48.999 338 -48.999h23c6.66699 0 12.5 -1.33301 17.5 -4s8.83301 -6.83398 11.5 -12.501s4.83398 -10.834 6.50098 -15.501s2.83398 -11.667 3.50098 -21s1 -16.5 1 -21.5v-22.5v-19c0 -20 -0.666992 -37.333 -2 -52v-1
c-2.66699 -15.333 -5.66699 -27 -9 -35l-1 -1c-6.66699 -12.667 -16 -19 -28 -19h-23c-220 0 -392.333 46 -517 138c-116.667 -92 -317 -138 -601 -138h-24c-26 0 -45.5 9.83301 -58.5 29.5s-19.5 45.834 -19.5 78.501v19c0 29.333 6.66699 52.833 20 70.5
s32.666 26.5 57.999 26.5h27c98 0 181.167 4.16699 249.5 12.5s120.166 20.166 155.499 35.499c-191.333 113.333 -287 226.333 -287 339c0 78 56.667 142.333 170 193c75.333 34 179 51.333 311 52c128 0.666992 232.667 -16 314 -50
c107.333 -45.333 161 -108.666 161 -189.999c0 -21.333 -4.16699 -43 -12.5 -65s-20.5 -44 -36.5 -66s-36.167 -44.667 -60.5 -68s-52 -46.833 -83 -70.5s-65.833 -48.167 -104.5 -73.5zM859.999 590.001c0 5.33301 -7.00195 10.999 -21.002 16.999s-40.833 11.667 -80.5 17
s-87.834 8 -144.501 8c-57.333 0 -105.833 -2.83301 -145.5 -8.5s-66.5 -11.5 -80.5 -17.5s-21 -12 -21 -18c0 -1.33301 0.333008 -3 1 -5s1.5 -4.16699 2.5 -6.5s2.5 -5 4.5 -8s4.5 -6.33301 7.5 -10l9.5 -11.5c45.333 -47.333 119 -97.666 221 -150.999
c47.333 26 89.333 52.167 126 78.5s68.334 53.166 95.001 80.499c2.66699 2.66699 5.16699 5.33398 7.5 8.00098s4.33301 5.16699 6 7.5s3.33398 4.5 5.00098 6.5s2.83398 3.66699 3.50098 5l2 4l1.5 3z" />
    <glyph glyph-name="uniFECD" unicode="&#x63a;" horiz-adv-x="1330" arabic-form="isolated" 
d="M643 505c116 19.333 215.336 29.332 298.003 29.999c63.333 0 125 -3.33301 185 -10l20 -3l-2 -20l-23 -175l-2 -18l-18 1c-19.333 0.666992 -36.5 1.16699 -51.5 1.5s-27.833 0.5 -38.5 0.5h-25c-234 -6.66699 -407.667 -46.5 -521 -119.5s-170 -178.833 -170 -317.5
c0 -74 17.833 -135.5 53.5 -184.5s90.5 -86 164.5 -111s168 -37.5 282 -37.5c68 0 135.167 7.83301 201.5 23.5s132.5 38.834 198.5 69.501l23 11l5 -25l36 -179l3 -15l-14 -7c-16.667 -8 -33.834 -15.667 -51.501 -23s-35.5 -14 -53.5 -20s-36.5 -11.667 -55.5 -17
s-38.167 -10 -57.5 -14s-39 -7.66699 -59 -11s-40.333 -6 -61 -8s-41.5 -3.5 -62.5 -4.5s-42.5 -1.5 -64.5 -1.5c-384 0 -609.667 125.333 -677 376c-14 52 -21 109 -21 171c0 260.667 115.333 446.667 346 558c-24 30 -44.167 60.667 -60.5 92s-28.5 63.5 -36.5 96.5
s-12 66.5 -12 100.5c0 12 0.666992 24.167 2 36.5s3.16602 24.5 5.49902 36.5s5.33301 24.167 9 36.5s7.83398 24.5 12.501 36.5c9.33301 23.333 21 45.833 35 67.5s30.333 42.5 49 62.5c71.333 75.333 171 113 299 113c106 0 220.333 -42 343 -126l14 -9l-7 -16l-67 -149
l-10 -20l-19 11c-48.667 28.667 -93.334 50.167 -134.001 64.5s-77.334 21.5 -110.001 21.5c-78.667 0 -135.667 -29.667 -171 -89c-18 -29.333 -27 -59.333 -27 -90c0 -26.667 7 -54.667 21 -84c6.66699 -13.333 16.5 -29.5 29.5 -48.5s28.5 -40.5 46.5 -64.5z
M551.716 1394.69l145.513 145.513l7.48926 7.48926l7.48926 -7.48926l146.583 -146.583l7.48926 -7.48926l-7.48926 -7.49023l-145.513 -145.513l-7.48926 -7.48926l-7.49023 7.48926l-146.582 146.583l-7.49023 7.48926z" />
    <glyph glyph-name="uniFECE" unicode="&#x63a;" horiz-adv-x="1187" arabic-form="final" 
d="M585 202c-193.333 -109.333 -290.002 -235.333 -290.002 -378c0 -26 2.5 -49.833 7.5 -71.5s12.667 -41.834 23 -60.501s23.5 -35.334 39.5 -50.001s35 -27.667 57 -39s46.833 -20.666 74.5 -27.999s58.334 -13 92.001 -17s70.5 -6 110.5 -6
c108.667 0 220.667 23.667 336 71l23 10l5 -24l36 -179l3 -16l-15 -6c-56.667 -26 -118.334 -45.333 -185.001 -58s-138 -18.667 -214 -18c-86.667 0 -164 8.33301 -232 25s-126.667 41.667 -176 75c-64.667 44 -113.334 98.833 -146.001 164.5s-49.334 141.5 -50.001 227.5
c0 208 99.667 379.333 299 514c-180.667 110.667 -271 218.334 -271 323.001c0 78.667 58 143.334 174 194.001c75.333 32.667 178 49 308 49c44.667 0 85.834 -1.66699 123.501 -5s72.334 -8.5 104.001 -15.5s60.167 -15.833 85.5 -26.5c107.333 -46 161 -110 161 -192
c0 -50.667 -25.333 -103.834 -76 -159.501s-126 -115.5 -226 -179.5c99.333 -68 233 -102 401 -102h29c6 0 11.5 -1.16699 16.5 -3.5s8.83301 -6.5 11.5 -12.5s4.83398 -11.333 6.50098 -16s2.83398 -11.667 3.50098 -21s1 -16.333 1 -21v-23v-19v-7v-14v-14
c0 -6 -0.166992 -10.833 -0.5 -14.5s-0.833008 -8 -1.5 -13s-1.5 -9.16699 -2.5 -12.5s-2.16699 -7 -3.5 -11s-3 -7.16699 -5 -9.5s-4.33301 -4.5 -7 -6.5s-5.66699 -3.5 -9 -4.5s-7 -1.5 -11 -1.5h-28c-203.333 -0 -397.333 67.333 -582 202zM587.998 468
c56.667 30.667 105.33 59.666 145.997 86.999s69.334 48.5 86.001 63.5s25 25.833 25 32.5c-1.33301 2 -5.66602 4.5 -12.999 7.5s-18.166 5.83301 -32.499 8.5s-30.833 5.16699 -49.5 7.5s-41.667 4.16602 -69 5.49902s-56.666 2 -87.999 2
c-58.667 0 -108.334 -2.66699 -149.001 -8s-68 -11.166 -82 -17.499s-21 -12.166 -21 -17.499c1.33301 -5.33301 10.333 -15.166 27 -29.499s44.5 -34.333 83.5 -60s84.5 -52.834 136.5 -81.501zM424.707 1214.69l145.513 145.513l7.48926 7.48926l7.48926 -7.48926
l146.583 -146.583l7.48926 -7.48926l-7.48926 -7.49023l-145.513 -145.513l-7.48926 -7.48926l-7.49023 7.48926l-146.582 146.583l-7.49023 7.48926z" />
    <glyph glyph-name="uniFECF" unicode="&#x63a;" horiz-adv-x="1063" arabic-form="initial" 
d="M850 589c-40 32.667 -79.332 57.1621 -117.999 73.4951s-77.334 24.5 -116.001 24.5c-10 0 -19.667 -0.166992 -29 -0.5s-18.5 -1.33301 -27.5 -3s-17.667 -3.5 -26 -5.5s-16.5 -4.33301 -24.5 -7c-16 -6 -30.667 -13.167 -44 -21.5s-25.666 -17.833 -36.999 -28.5
c-21.333 -21.333 -37.666 -45.333 -48.999 -72c-2.66699 -6 -5 -12.5 -7 -19.5s-3.66699 -14.167 -5 -21.5s-2.33301 -14.833 -3 -22.5s-1 -15.5 -1 -23.5c0 -40.667 11.833 -77 35.5 -109s60.167 -60 109.5 -84c6.66699 -3.33301 12 -5.66602 16 -6.99902l432 109l25 7v-26
v-184v-14l-14 -5c-319.333 -99.333 -613.333 -149 -882 -149h-92c-26 0 -45.5 9.83301 -58.5 29.5s-19.5 45.834 -19.5 78.501v19c0 14.667 1.66699 27.834 5 39.501s8.16602 21.834 14.499 30.501s14.5 15.334 24.5 20.001s21.333 7 34 7h237l-11.5 16l-11.5 16
c-19.333 30 -34 63 -44 99s-14.667 75 -14 117c0.666992 114 31.667 209.667 93 287c33.333 42 74.666 76.333 123.999 103c64.667 34.667 140 51.667 226 51c142.667 -0.666992 260 -49 352 -145l10 -10l-6 -12l-67 -150l-11 -24zM415.714 1249.69l145.513 145.513
l7.48926 7.48926l7.48926 -7.48926l146.583 -146.583l7.48926 -7.48926l-7.48926 -7.49023l-145.513 -145.513l-7.48926 -7.48926l-7.49023 7.48926l-146.582 146.583l-7.49023 7.48926z" />
    <glyph glyph-name="uniFED0" unicode="&#x63a;" horiz-adv-x="1151" arabic-form="medial" 
d="M797 273c72.667 -32.667 185.333 -48.999 338 -48.999h23c6.66699 0 12.5 -1.33301 17.5 -4s8.83301 -6.83398 11.5 -12.501s4.83398 -10.834 6.50098 -15.501s2.83398 -11.667 3.50098 -21s1 -16.5 1 -21.5v-22.5v-19c0 -20 -0.666992 -37.333 -2 -52v-1
c-2.66699 -15.333 -5.66699 -27 -9 -35l-1 -1c-6.66699 -12.667 -16 -19 -28 -19h-23c-220 0 -392.333 46 -517 138c-116.667 -92 -317 -138 -601 -138h-24c-26 0 -45.5 9.83301 -58.5 29.5s-19.5 45.834 -19.5 78.501v19c0 29.333 6.66699 52.833 20 70.5
s32.666 26.5 57.999 26.5h27c98 0 181.167 4.16699 249.5 12.5s120.166 20.166 155.499 35.499c-191.333 113.333 -287 226.333 -287 339c0 78 56.667 142.333 170 193c75.333 34 179 51.333 311 52c128 0.666992 232.667 -16 314 -50
c107.333 -45.333 161 -108.666 161 -189.999c0 -21.333 -4.16699 -43 -12.5 -65s-20.5 -44 -36.5 -66s-36.167 -44.667 -60.5 -68s-52 -46.833 -83 -70.5s-65.833 -48.167 -104.5 -73.5zM859.999 590.001c0 5.33301 -7.00195 10.999 -21.002 16.999s-40.833 11.667 -80.5 17
s-87.834 8 -144.501 8c-57.333 0 -105.833 -2.83301 -145.5 -8.5s-66.5 -11.5 -80.5 -17.5s-21 -12 -21 -18c0 -1.33301 0.333008 -3 1 -5s1.5 -4.16699 2.5 -6.5s2.5 -5 4.5 -8s4.5 -6.33301 7.5 -10l9.5 -11.5c45.333 -47.333 119 -97.666 221 -150.999
c47.333 26 89.333 52.167 126 78.5s68.334 53.166 95.001 80.499c2.66699 2.66699 5.16699 5.33398 7.5 8.00098s4.33301 5.16699 6 7.5s3.33398 4.5 5.00098 6.5s2.83398 3.66699 3.50098 5l2 4l1.5 3zM458.71 1192.69l145.513 145.513l7.48926 7.48926l7.48926 -7.48926
l146.583 -146.583l7.48926 -7.48926l-7.48926 -7.49023l-145.513 -145.513l-7.48926 -7.48926l-7.49023 7.48926l-146.582 146.583l-7.49023 7.48926z" />
    <glyph glyph-name="uniFED1" unicode="&#x641;" horiz-adv-x="1851" arabic-form="isolated" 
d="M1219.71 1386.69l145.513 145.513l7.48926 7.48926l7.48926 -7.48926l146.583 -146.583l7.48926 -7.48926l-7.48926 -7.49023l-145.513 -145.513l-7.48926 -7.48926l-7.49023 7.48926l-146.582 146.583l-7.49023 7.48926zM1768 493
c-1.33301 -195.333 -49.3311 -328.334 -143.998 -399.001c-83.333 -62.667 -228 -94 -434 -94h-330c-256.667 0 -451 42.167 -583 126.5s-198 210.833 -198 379.5c0 92.667 18.667 181 56 265l9 18l18 -8l157 -68l18 -8l-7 -18c-21.333 -54.667 -32 -106.667 -32 -156
c0 -101.333 44.833 -177.833 134.5 -229.5s227.5 -77.5 413.5 -77.5h365c120 0 209.167 14.5 267.5 43.5s89.166 70.833 92.499 125.5c-56.667 -14.667 -116.667 -22 -180 -22c-111.333 0 -196.666 24.5 -255.999 73.5s-90 121.5 -92 217.5c0 10 0.166992 19.833 0.5 29.5
s1.16602 19.334 2.49902 29.001s3 19.167 5 28.5c6.66699 36 15.5 69.333 26.5 100s24.167 59 39.5 85s32.666 49 51.999 69c30 30.667 63.5 53.667 100.5 69s77.5 23 121.5 23c60 0 112.667 -14.667 158 -44c118 -76 188.333 -220.333 211 -433
c2.66699 -22 4.5 -43.333 5.5 -64s1.83301 -41 2.5 -61zM1247 688.999c0 -35.333 12.334 -61.6709 37.001 -79.0039s64.667 -25.666 120 -24.999c48.667 0 98 6.66699 148 20c-9.33301 68.667 -25 126.334 -47 173.001c-15.333 34 -32.833 58.667 -52.5 74
s-42.167 23 -67.5 23c-20 0 -37.667 -4 -53 -12s-29.333 -21 -42 -39s-23.334 -41 -32.001 -69c-1.33301 -3.33301 -2.33301 -6.66602 -3 -9.99902s-1.5 -6.66602 -2.5 -9.99902s-1.66699 -6.5 -2 -9.5s-0.833008 -6.16699 -1.5 -9.5s-1.16699 -6.5 -1.5 -9.5
s-0.5 -5.83301 -0.5 -8.5v-9z" />
    <glyph glyph-name="uniFED2" unicode="&#x641;" horiz-adv-x="2025" arabic-form="final" 
d="M1376.71 1259.69l145.513 145.513l7.48926 7.48926l7.48926 -7.48926l146.583 -146.583l7.48926 -7.48926l-7.48926 -7.49023l-145.513 -145.513l-7.48926 -7.48926l-7.49023 7.48926l-146.582 146.583l-7.49023 7.48926zM1438 647
c-36 -35.333 -53.998 -69.666 -53.998 -102.999c0 -11.333 2 -23.333 6 -36s10.5 -26.167 19.5 -40.5s20.167 -29.5 33.5 -45.5c15.333 -18 29.833 -33 43.5 -45s24.667 -20.5 33 -25.5s15.166 -7.5 20.499 -7.5c3.33301 0 7.83301 1.5 13.5 4.5s12.5 7.5 20.5 13.5
s17.5 14.167 28.5 24.5s22.5 22.166 34.5 35.499c39.333 45.333 58.666 85.666 57.999 120.999c0.666992 20.667 -5.83301 41.834 -19.5 63.501s-34.5 44.167 -62.5 67.5c-30.667 24.667 -57 37 -79 37c-21.333 0 -53.333 -21.333 -96 -64zM1535 125
c-129.333 -83.333 -343.002 -124.994 -641.002 -124.994h-34c-256.667 0 -451 42.167 -583 126.5s-198 210.833 -198 379.5c0 92.667 18.667 181 56 265l9 18l18 -8l157 -68l18 -8l-7 -18c-21.333 -54 -32 -105.333 -32 -154c0 -206 191 -309 573 -309
c207.333 0 352.333 8 435 24c-91.333 87.333 -137 189.666 -137 306.999c0 123.333 68.667 232.666 206 327.999c50.667 35.333 105.667 53 165 53c14 0 27.833 -0.833008 41.5 -2.5s26.834 -4.16699 39.501 -7.5s24.834 -7.33301 36.501 -12s22.834 -10.334 33.501 -17.001
c147.333 -89.333 221 -207.333 221 -354c0 -56 -11.833 -108.833 -35.5 -158.5s-58.5 -95.834 -104.5 -138.501c57.333 -14.667 133.666 -22 228.999 -22h32c6.66699 0 12.5 -1.33301 17.5 -4s8.83301 -6.83398 11.5 -12.501s4.83398 -10.834 6.5 -15.501
c1.66699 -4.66699 2.83398 -11.667 3.5 -21c0.666992 -9.33301 1 -16.5 1 -21.5v-22.5v-19v-7c0 -16 -0.166992 -28.167 -0.5 -36.5s-1.66602 -18.5 -4 -30.5c-2.33301 -12 -6.33301 -20.667 -12 -26s-13.5 -8 -23.5 -8h-30c-96.667 -0 -184 10.333 -262 31
s-146.667 52 -206 94z" />
    <glyph glyph-name="uniFED3" unicode="&#x641;" horiz-adv-x="904" arabic-form="initial" 
d="M446 372c-112.667 0 -198.669 24.498 -258.002 73.498s-89.666 121.5 -90.999 217.5c0 30 2.66699 59 8 87c20.667 109.333 60.334 194 119.001 254c60 61.333 134 92 222 92c60 0 112.667 -14.667 158 -44c116.667 -75.333 187 -219.666 211 -432.999
c4.66699 -44 7 -85.667 7 -125c0 -96.667 -11.833 -178.5 -35.5 -245.5s-59.5 -118.5 -107.5 -154.5c-83.333 -62.667 -228 -94 -434 -94h-252c-26 0 -45.5 9.83301 -58.5 29.5s-19.5 45.834 -19.5 78.501v19c0 29.333 6.66699 52.833 20 70.5s32.666 26.5 57.999 26.5h263
c235.333 0 358.333 56.667 369 170c-19.333 -5.33301 -38.666 -9.5 -57.999 -12.5s-39 -5.33301 -59 -7s-40.667 -2.5 -62 -2.5zM301.998 689.998c0 -35.333 12.332 -61.6689 36.999 -79.002s64.667 -25.666 120 -24.999c48.667 0 98 6.66699 148 20
c-9.33301 68.667 -25 126.334 -47 173.001c-29.333 64.667 -69.666 97 -120.999 97c-59.333 0 -101.333 -40 -126 -120c-7.33301 -23.333 -11 -45.333 -11 -66zM265.71 1386.69l145.513 145.513l7.48926 7.48926l7.48926 -7.48926l146.583 -146.583l7.48926 -7.48926
l-7.48926 -7.49023l-145.513 -145.513l-7.48926 -7.48926l-7.49023 7.48926l-146.582 146.583l-7.49023 7.48926z" />
    <glyph glyph-name="uniFED4" unicode="&#x641;" horiz-adv-x="1052" arabic-form="medial" 
d="M465 647c-36 -35.333 -53.999 -69.665 -53.999 -102.998c0 -36 19.667 -76.667 59 -122c22.667 -26 42.5 -45.5 59.5 -58.5s29.5 -19.5 37.5 -19.5c3.33301 0 7.83301 1.5 13.5 4.5s12.5 7.5 20.5 13.5s17.5 14.167 28.5 24.5s22.5 22.166 34.5 35.499
c39.333 45.333 59 85.666 59 120.999c0 4 -0.333008 8 -1 12s-1.5 8.16699 -2.5 12.5s-2.33301 8.5 -4 12.5s-3.5 8.16699 -5.5 12.5s-4.33301 8.66602 -7 12.999s-5.66699 8.66602 -9 12.999l-10.5 13.5c-3.66699 4.66699 -7.83398 9.33398 -12.501 14.001
s-9.66699 9.33398 -15 14.001l-16 14c-30.667 24.667 -57 37 -79 37c-6 0 -13.333 -2 -22 -6s-19.5 -11 -32.5 -21s-26.833 -22.333 -41.5 -37zM563.001 125.001c-120.667 -83.333 -297.001 -124.998 -529.001 -124.998h-41c-26 0 -45.5 9.83301 -58.5 29.5
s-19.5 45.834 -19.5 78.501v19c0 29.333 6.66699 52.833 20 70.5s32.666 26.5 57.999 26.5h41c140 0.666992 240.333 8 301 22c-92.667 88 -139 191 -139 309c0 123.333 68.667 232.666 206 327.999c50.667 35.333 105.667 53 165 53c58 0 108.333 -13 151 -39
c147.333 -89.333 221 -207.333 221 -354c0 -111.333 -46.667 -210.333 -140 -297c57.333 -14.667 133.666 -22 228.999 -22h32c6.66699 0 12.5 -1.33301 17.5 -4s8.83301 -6.83398 11.5 -12.501s4.83398 -10.834 6.50098 -15.501s2.83398 -11.667 3.50098 -21
s1 -16.5 1 -21.5v-22.5v-19v-7c0 -16 -0.166992 -28.167 -0.5 -36.5s-1.66602 -18.5 -3.99902 -30.5s-6.33301 -20.667 -12 -26s-13.5 -8 -23.5 -8h-30c-194 0 -349.667 41.667 -467 125zM408.713 1257.7l145.513 145.513l7.48926 7.48926l7.48926 -7.48926
l146.583 -146.583l7.48926 -7.48926l-7.48926 -7.49023l-145.513 -145.513l-7.48926 -7.48926l-7.49023 7.48926l-146.582 146.583l-7.49023 7.48926z" />
    <glyph glyph-name="uniFED5" unicode="&#x642;" horiz-adv-x="1511" arabic-form="isolated" 
d="M1416 37c-26 -164.667 -96.1641 -288.669 -210.497 -372.002s-270.5 -125 -468.5 -125c-142 0 -261 21.333 -357 64c-99.333 44 -174 111 -224 201c-49.333 88.667 -74.333 198 -75 328c-0.666992 156 33.333 307.667 102 455l8 17l18 -7l158 -66l19 -7l-8 -19
c-28 -70 -48.667 -135.333 -62 -196c-13.333 -60 -20 -116.333 -20 -169c1.33301 -130 38 -226.667 110 -290s182 -94.666 330 -93.999c149.333 0 263.666 28.667 342.999 86s126.333 143.333 141 258c-28 -7.33301 -56.5 -12.666 -85.5 -15.999s-59.167 -5.33301 -90.5 -6
c-112 -0.666992 -197.833 23.5 -257.5 72.5s-90.167 121.833 -91.5 218.5c0 30.667 2.66699 59.667 8 87c23.333 112 63 196.667 119 254c29.333 30.667 62.666 53.667 99.999 69s78 23 122 23c60 0.666992 112.667 -14 158 -44c119.333 -76 191.666 -223.333 216.999 -442
c11.333 -100 10.333 -193.333 -3 -280zM899.003 397.998c0.666992 -36 13.166 -62.668 37.499 -80.001s64.5 -25.666 120.5 -24.999c48.667 0.666992 98 7.66699 148 21c-4.66699 34.667 -11 66.334 -19 95.001s-17.333 54.667 -28 78
c-29.333 64.667 -69.666 97 -120.999 97c-59.333 0 -101.333 -40.333 -126 -121c-7.33301 -22.667 -11.333 -44.334 -12 -65.001zM1034.68 1099.69l145.513 145.513l7.48926 7.48926l7.49023 -7.48926l146.582 -146.583l7.49023 -7.48926l-7.49023 -7.49023
l-145.513 -145.513l-7.48926 -7.48926l-7.49023 7.48926l-146.582 146.583l-7.49023 7.48926zM709.414 1099.69l145.513 145.513l7.48926 7.48926l7.49023 -7.48926l146.582 -146.583l7.49023 -7.48926l-7.49023 -7.49023l-145.513 -145.513l-7.48926 -7.48926
l-7.49023 7.48926l-146.582 146.583l-7.49023 7.48926z" />
    <glyph glyph-name="uniFED6" unicode="&#x642;" horiz-adv-x="1526" arabic-form="final" 
d="M738 -307c100.667 0 185.664 11.6699 254.997 35.0029s123 57.666 161 102.999s61.667 102 71 170h-126c-126 0 -221.833 26.833 -287.5 80.5s-98.5 132.834 -98.5 237.501c0 84 17.667 163.333 53 238c33.333 68.667 75.333 120.5 126 155.5s109.667 52.5 177 52.5
c106 0 189.5 -46 250.5 -138s99.833 -226.333 116.5 -403h98c6.66699 0 12.334 -1.33301 17.001 -4s8.5 -6.83398 11.5 -12.501s5.33301 -10.834 7 -15.501s2.83398 -11.667 3.50098 -21s1 -16.5 1 -21.5v-22.5v-19v-6c0 -16 -0.166992 -28.333 -0.5 -37
s-1.66602 -19 -3.99902 -31s-6.5 -20.667 -12.5 -26s-13.667 -8 -23 -8l-100 1c-22.667 -174 -92.5 -304.833 -209.5 -392.5s-278.833 -131.834 -485.5 -132.501c-28.667 0 -56.167 0.833008 -82.5 2.5s-51.833 4.16699 -76.5 7.5s-48.334 7.66602 -71.001 12.999
s-44.667 11.333 -66 18s-41.666 14.334 -60.999 23.001c-99.333 44 -174 111 -224 201c-49.333 88.667 -74.333 198 -75 328c-0.666992 156 33.333 307.667 102 455l8 17l17 -7l159 -65l18 -8l-7 -18c-28 -70.667 -48.667 -136 -62 -196
c-13.333 -60.667 -20 -117.334 -20 -170.001c1.33301 -129.333 38 -225.666 110 -288.999s182 -95 330 -95zM1229 225.003c-16.667 206.667 -74 310.334 -172 311.001c-54 0.666992 -93.333 -35 -118 -107c-5.33301 -16.667 -9.5 -32.834 -12.5 -48.501
s-4.5 -31.167 -4.5 -46.5c0 -36.667 13 -64 39 -82s68.667 -27 128 -27h140zM1043.67 1052.7l145.513 145.513l7.48926 7.48926l7.49023 -7.48926l146.582 -146.583l7.49023 -7.48926l-7.49023 -7.49023l-145.513 -145.513l-7.48926 -7.48926l-7.49023 7.48926
l-146.582 146.583l-7.49023 7.48926zM718.409 1052.7l145.513 145.513l7.48926 7.48926l7.49023 -7.48926l146.582 -146.583l7.49023 -7.48926l-7.49023 -7.49023l-145.513 -145.513l-7.48926 -7.48926l-7.49023 7.48926l-146.582 146.583l-7.49023 7.48926z" />
    <glyph glyph-name="uniFED7" unicode="&#x642;" horiz-adv-x="907" arabic-form="initial" 
d="M446 372c-112.667 0 -198.669 24.498 -258.002 73.498s-89.666 121.5 -90.999 217.5c0 30 2.66699 59 8 87c20.667 109.333 60.334 194 119.001 254c60 61.333 134 92 222 92c60 0 112.667 -14.667 158 -44c116.667 -75.333 187 -219.666 211 -432.999
c4.66699 -44 7 -85.667 7 -125c0 -96.667 -11.833 -178.5 -35.5 -245.5s-59.5 -118.5 -107.5 -154.5c-83.333 -62.667 -228 -94 -434 -94h-252c-26 0 -45.5 9.83301 -58.5 29.5s-19.5 45.834 -19.5 78.501v19c0 29.333 6.66699 52.833 20 70.5s32.666 26.5 57.999 26.5h263
c235.333 0 358.333 56.667 369 170c-19.333 -5.33301 -38.666 -9.5 -57.999 -12.5s-39 -5.33301 -59 -7s-40.667 -2.5 -62 -2.5zM301.998 689.998c0 -35.333 12.332 -61.6689 36.999 -79.002s64.667 -25.666 120 -24.999c48.667 0 98 6.66699 148 20
c-9.33301 68.667 -25 126.334 -47 173.001c-29.333 64.667 -69.666 97 -120.999 97c-59.333 0 -101.333 -40 -126 -120c-7.33301 -23.333 -11 -45.333 -11 -66zM430.673 1383.69l145.513 145.513l7.48926 7.48926l7.49023 -7.48926l146.582 -146.583l7.49023 -7.48926
l-7.49023 -7.49023l-145.513 -145.513l-7.48926 -7.48926l-7.49023 7.48926l-146.582 146.583l-7.49023 7.48926zM105.409 1383.69l145.513 145.513l7.48926 7.48926l7.49023 -7.48926l146.582 -146.583l7.49023 -7.48926l-7.49023 -7.49023l-145.513 -145.513
l-7.48926 -7.48926l-7.49023 7.48926l-146.582 146.583l-7.49023 7.48926z" />
    <glyph glyph-name="uniFED8" unicode="&#x642;" horiz-adv-x="1052" arabic-form="medial" 
d="M465 647c-36 -35.333 -53.999 -69.665 -53.999 -102.998c0 -36 19.667 -76.667 59 -122c22.667 -26 42.5 -45.5 59.5 -58.5s29.5 -19.5 37.5 -19.5c3.33301 0 7.83301 1.5 13.5 4.5s12.5 7.5 20.5 13.5s17.5 14.167 28.5 24.5s22.5 22.166 34.5 35.499
c39.333 45.333 59 85.666 59 120.999c0 4 -0.333008 8 -1 12s-1.5 8.16699 -2.5 12.5s-2.33301 8.5 -4 12.5s-3.5 8.16699 -5.5 12.5s-4.33301 8.66602 -7 12.999s-5.66699 8.66602 -9 12.999l-10.5 13.5c-3.66699 4.66699 -7.83398 9.33398 -12.501 14.001
s-9.66699 9.33398 -15 14.001l-16 14c-30.667 24.667 -57 37 -79 37c-6 0 -13.333 -2 -22 -6s-19.5 -11 -32.5 -21s-26.833 -22.333 -41.5 -37zM563.001 125.001c-120.667 -83.333 -297.001 -124.998 -529.001 -124.998h-41c-26 0 -45.5 9.83301 -58.5 29.5
s-19.5 45.834 -19.5 78.501v19c0 29.333 6.66699 52.833 20 70.5s32.666 26.5 57.999 26.5h41c140 0.666992 240.333 8 301 22c-92.667 88 -139 191 -139 309c0 123.333 68.667 232.666 206 327.999c50.667 35.333 105.667 53 165 53c58 0 108.333 -13 151 -39
c147.333 -89.333 221 -207.333 221 -354c0 -111.333 -46.667 -210.333 -140 -297c57.333 -14.667 133.666 -22 228.999 -22h32c6.66699 0 12.5 -1.33301 17.5 -4s8.83301 -6.83398 11.5 -12.501s4.83398 -10.834 6.50098 -15.501s2.83398 -11.667 3.50098 -21
s1 -16.5 1 -21.5v-22.5v-19v-7c0 -16 -0.166992 -28.167 -0.5 -36.5s-1.66602 -18.5 -3.99902 -30.5s-6.33301 -20.667 -12 -26s-13.5 -8 -23.5 -8h-30c-194 0 -349.667 41.667 -467 125zM562.676 1248.7l145.513 145.513l7.48926 7.48926l7.49023 -7.48926
l146.582 -146.583l7.49023 -7.48926l-7.49023 -7.49023l-145.513 -145.513l-7.48926 -7.48926l-7.49023 7.48926l-146.582 146.583l-7.49023 7.48926zM237.412 1248.7l145.513 145.513l7.48926 7.48926l7.49023 -7.48926l146.582 -146.583l7.49023 -7.48926
l-7.49023 -7.49023l-145.513 -145.513l-7.48926 -7.48926l-7.49023 7.48926l-146.582 146.583l-7.49023 7.48926z" />
    </font>
</defs>
</svg>
