<?xml version="1.0" standalone="no"?>
<!DOCTYPE svg PUBLIC "-//W3C//DTD SVG 1.1//EN" "http://www.w3.org/Graphics/SVG/1.1/DTD/svg11.dtd" >
<svg>
<metadata>
Created by FontForge 20090914 at Sun Sep  4 14:08:33 2022
 By www-data
Copyright (c) 2003 by Bitstream, Inc. All Rights Reserved.
DejaVu changes are in public domain
Changes by Saber Rastikerdar are in public domain.
Non-Arabic(Latin) glyphs and data in extended version are imported from Roboto font under the Apache License, Version 2.0.
</metadata>
<defs>
<font id="Vazir-Bold" horiz-adv-x="0" >
  <font-face 
    font-family="Vazir"
    font-weight="700"
    font-stretch="normal"
    units-per-em="2048"
    panose-1="2 11 6 3 3 8 4 2 2 4"
    ascent="1638"
    descent="-410"
    x-height="1082"
    cap-height="1456"
    bbox="-1040 -985.337 3314 2374"
    underline-thickness="100"
    underline-position="-500"
    unicode-range="U+0002-U+FFFD"
  />
<missing-glyph horiz-adv-x="510" 
 />
    <glyph glyph-name="uni0622" unicode="&#x627;&#x653;" horiz-adv-x="683" 
d="M249 1293.01h173h40v-35.9668v-1220.17v-35.9668h-40h-173h-40v35.9668v1220.17v35.9668h40zM250 1469c-33.333 4.66699 -65.333 -0.166992 -96 -14.5s-60.667 -38.5 -90 -72.5l-14 -17l-15 16l-102 127l-11 11l9 14c84 120 186.667 170.333 308 151l149 -24
c60.667 -10 129.667 4.66699 207 44l18 9l9 -19l66 -156l7 -16l-15 -10c-89.333 -56 -186 -76.667 -290 -62z" />
    <glyph glyph-name="uni0623" unicode="&#x627;&#x654;" horiz-adv-x="487" 
d="M166 1230.32h173h40v-34.168v-1159.13v-34.167h-40h-173h-40v34.167v1159.13v34.168h40zM82 1464c-34.667 39.333 -51.998 89.3311 -51.998 149.998c0 64 21.333 118.667 64 164c50 52.667 114 79 192 79c54 0 104.667 -15.333 152 -46l9 -6v-10l1 -132v-37l-31 20
c-19.333 12.667 -39 22.334 -59 29.001c-19.333 6 -38.666 9 -57.999 9c-36.667 0 -64.334 -9.33301 -83.001 -28c-14.667 -15.333 -22 -33.666 -22 -54.999c1.33301 -30.667 28.666 -55.667 81.999 -75c5.33301 -2 9.66602 -2.66699 12.999 -2l140 27l24 5v-24v-126v-16
l-16 -3l-406 -98l-25 -6v25v113v26l16 4z" />
    <glyph glyph-name="afii57412" unicode="&#x648;&#x654;" horiz-adv-x="900" 
d="M290 991c-34.667 39.333 -51.998 89.3311 -51.998 149.998c0 64 21.333 118.667 64 164c50 52.667 114 79 192 79c54 0 104.667 -15.333 152 -46l9 -6v-10l1 -132v-37l-31 20c-19.333 12.667 -39 22.334 -59 29.001c-19.333 6 -38.666 9 -57.999 9
c-36.667 0 -64.334 -9.33301 -83.001 -28c-14.667 -15.333 -22 -33.666 -22 -54.999c1.33301 -30.667 28.666 -55.667 81.999 -75c5.33301 -2 9.66602 -2.66699 12.999 -2l140 27l24 5v-24v-126v-16l-16 -3l-406 -98l-25 -6v25v113v26l16 4zM588.002 270.998
c-4.66699 48.667 -11.6689 90.333 -21.002 125s-20.666 62 -33.999 82s-27.833 34.5 -43.5 43.5s-33.167 13.5 -52.5 13.5c-14.667 0 -27.667 -2.66699 -39 -8s-22.166 -15 -32.499 -29s-19.5 -32.667 -27.5 -56c-10.667 -32 -16 -61.667 -16 -89
c0 -33.333 11.333 -57.833 34 -73.5s63.667 -23.5 123 -23.5c34.667 0.666992 71 5.66699 109 15zM478 -2.00293c-129.333 0 -229.168 28.834 -299.501 86.501s-105.5 142.167 -105.5 253.5c0 86.667 18.667 169 56 247c34 71.333 78.167 125.666 132.5 162.999
s116.833 56 187.5 56c51.333 0 98 -10 140 -30s78.833 -48.833 110.5 -86.5s57.834 -83.834 78.501 -138.501c42.667 -110 63.667 -233 63 -369c-1.33301 -197.333 -63.5 -352.333 -186.5 -465s-302.167 -181 -537.5 -205l-34 -3l-8 33l-43 170l-11 45l46 5
c261.333 26.667 427.333 108.334 498 245.001c-23.333 -2.66699 -41.5 -4.5 -54.5 -5.5s-23.833 -1.5 -32.5 -1.5z" />
    <glyph glyph-name="uni0625" unicode="&#x627;&#x655;" horiz-adv-x="487" 
d="M87 -500c-34.667 39.333 -51.998 89.3311 -51.998 149.998c0 64 21.333 118.667 64 164c50 52.667 114 79 192 79c54 0 104.667 -15.333 152 -46l9 -6v-10l1 -132v-37l-31 20c-19.333 12.667 -39 22.334 -59 29.001c-19.333 6 -38.666 9 -57.999 9
c-36.667 0 -64.334 -9.33301 -83.001 -28c-14.667 -15.333 -22 -33.666 -22 -54.999c1.33301 -30.667 28.666 -55.667 81.999 -75c5.33301 -2 9.66602 -2.66699 12.999 -2l140 27l24 5v-24v-126v-16l-16 -3l-406 -98l-25 -6v25v113v26l16 4zM161.002 1438h173h40v-40v-1357
v-40h-40h-173h-40v40v1357v40h40z" />
    <glyph glyph-name="afii57414" unicode="&#x64a;&#x654;" horiz-adv-x="1524" 
d="M442 891c-34.667 39.333 -51.998 89.3311 -51.998 149.998c0 64 21.333 118.667 64 164c50 52.667 114 79 192 79c54 0 104.667 -15.333 152 -46l9 -6v-10l1 -132v-37l-31 20c-19.333 12.667 -39 22.334 -59 29.001c-19.333 6 -38.666 9 -57.999 9
c-36.667 0 -64.334 -9.33301 -83.001 -28c-14.667 -15.333 -22 -33.666 -22 -54.999c1.33301 -30.667 28.666 -55.667 81.999 -75c5.33301 -2 9.66602 -2.66699 12.999 -2l140 27l24 5v-24v-126v-16l-16 -3l-406 -98l-25 -6v25v113v26l16 4zM318.002 80.998
c0 -72.667 15.0039 -132.669 45.0039 -180.002c29.333 -47.333 76.166 -83.166 140.499 -107.499s146.833 -36.833 247.5 -37.5c112.667 0 213 20.333 301 61c44 20.667 82.667 48 116 82c28 28.667 42.667 62.334 44 101.001c0 4.66699 -0.333008 7.66699 -1 9
c-2 5.33301 -14.667 8 -38 8l-113 1c-91.333 0.666992 -162 21 -212 61c-51.333 41.333 -77 100.666 -77 177.999c0 136.667 43.667 252.334 131 347.001c110.667 121.333 265.667 182 465 182h21h40v-41v-192v-40h-40h-22c-98.667 0 -179.334 -22 -242.001 -66
c-57.333 -40 -88 -90.667 -92 -152c0 -6.66699 0.666992 -10.334 2 -11.001c3.33301 -3.33301 12.666 -5 27.999 -5h119c58 0.666992 107.333 -8 148 -26c41.333 -18 73.166 -45 95.499 -81s33.5 -80 33.5 -132c0 -104 -26.333 -194.667 -79 -272s-130 -139.333 -232 -186
c-59.333 -27.333 -122.333 -47.666 -189 -60.999c-67.333 -13.333 -138 -20 -212 -20c-222 0 -391.333 48.667 -508 146s-175 241 -175 431c0 148.667 47.667 330.667 143 546l16 35l36 -15l158 -65l38 -16l-16 -37c-80 -180.667 -120 -329 -120 -445z" />
    <glyph glyph-name="uni06C0" unicode="&#x647;&#x654;" horiz-adv-x="942" 
d="M186 1303c39.333 -8 76.334 -12.0039 111.001 -12.0039c25.333 0 49 1 71 3s41.5 5 58.5 9s32 8.83301 45 14.5s24.167 11.834 33.5 18.501c8.66699 8 16 15.833 22 23.5s10.333 14.834 13 21.501s4 13.334 4 20.001v2l-1.5 1c-1 0.666992 -3 1.16699 -6 1.5
s-6.5 0.833008 -10.5 1.5l-99 2c-29.333 0.666992 -54.166 6.66699 -74.499 18s-35.833 27.333 -46.5 48s-16 45.667 -16 75c0 88.667 45 161.667 135 219c62 39.333 147.667 59.333 257 60h22l-2 -22l-9 -125l-1 -19h-19
c-131.333 -2.66699 -204.666 -33.334 -219.999 -92.001l88 -3c17.333 0 33.166 -1.83301 47.499 -5.5s27.5 -8.66699 39.5 -15s22.667 -14.166 32 -23.499s17.166 -20.166 23.499 -32.499s11.166 -25.833 14.499 -40.5c14 -72 -10 -142 -72 -210
c-69.333 -76 -181.333 -114 -336 -114c-41.333 0 -85 3.66699 -131 11l-19 4l3 19l19 126l3 21zM463.001 631.996c-51.333 -48 -89.335 -92.3311 -114.002 -132.998s-37 -76.667 -37 -108c0 -22 2.66699 -40.833 8 -56.5s14.5 -28.834 27.5 -39.501s29.833 -18.5 50.5 -23.5
s46.334 -7.5 77.001 -7.5c60.667 0 103.5 10.167 128.5 30.5s37.167 52.833 36.5 97.5c0 27.333 -14.667 61.666 -44 102.999s-73.666 87 -132.999 137zM415.999 1028c156.667 -114 275.001 -224.168 355.001 -330.501s120 -210.166 120 -311.499
c0 -140.667 -61.333 -249 -184 -325c-58.667 -37.333 -135.667 -56.333 -231 -57c-86.667 0 -161.334 15.667 -224.001 47c-63.333 31.333 -111 75.5 -143 132.5s-48 124.5 -48 202.5c0 138.667 72.667 283.667 218 435l-12 11l-28 24l22 30l100 133l23 32z" />
    <glyph glyph-name="fi" unicode="fi" horiz-adv-x="1246" 
d="M181 0l-0.00292969 869.999h-161v212h161v45c0 69.333 10.667 130.833 32 184.5s52.333 98.667 93 135s90.334 63.833 149.001 82.5s125.334 28 200.001 28c56.667 0 111.334 -5.5 164.001 -16.5s107.334 -25.167 164.001 -42.5l-42 -239l-56 16
c-19.333 5.33301 -39.833 10.333 -61.5 15s-44.834 8.33398 -69.501 11.001s-51.667 4 -81 4c-67.333 0 -117.833 -15 -151.5 -45s-50.5 -74.333 -50.5 -133v-45h213v-212h-213v-870h-290zM1118 -0.000976562h-290v1082h290v-1082z" />
    <glyph glyph-name="uniFBA5.fina" unicode="&#xfeea;&#x654;" horiz-adv-x="1063" arabic-form="final" 
d="M340 1234c39.333 -8 76.334 -12.0039 111.001 -12.0039c25.333 0 49 1 71 3s41.5 5 58.5 9s32 8.83301 45 14.5s24.167 11.834 33.5 18.501c8.66699 8 16 15.833 22 23.5s10.333 14.834 13 21.501s4 13.334 4 20.001v2l-1.5 1c-1 0.666992 -3 1.16699 -6 1.5
s-6.5 0.833008 -10.5 1.5l-99 2c-29.333 0.666992 -54.166 6.66699 -74.499 18s-35.833 27.333 -46.5 48s-16 45.667 -16 75c0 88.667 45 161.667 135 219c62 39.333 147.667 59.333 257 60h22l-2 -22l-9 -125l-1 -19h-19
c-131.333 -2.66699 -204.666 -33.334 -219.999 -92.001l88 -3c17.333 0 33.166 -1.83301 47.499 -5.5s27.5 -8.66699 39.5 -15s22.667 -14.166 32 -23.499s17.166 -20.166 23.499 -32.499s11.166 -25.833 14.499 -40.5c14 -72 -10 -142 -72 -210
c-69.333 -76 -181.333 -114 -336 -114c-41.333 0 -85 3.66699 -131 11l-19 4l3 19l19 126l3 21zM71.001 445.996c0 208.667 170.997 369.004 512.997 481.004l-2 11l-7 38l38 8l163 34l41 8l6 -42l83 -591c6 -46 20.333 -79 43 -99s57 -30 103 -30h20
c6 0 11.833 -0.833008 17.5 -2.5s10.334 -3.66699 14.001 -6s7.16699 -5.66602 10.5 -9.99902s6 -8.33301 8 -12s3.66699 -8.33398 5 -14.001s2.33301 -10.334 3 -14.001s1.16699 -8.83398 1.5 -15.501s0.5 -11.334 0.5 -14.001v-13v-11v-24
c0 -1.33301 0.166992 -7.5 0.5 -18.5s0.333008 -19 0 -24s-1 -12.833 -2 -23.5s-2.83301 -18.834 -5.5 -24.501s-6.16699 -11.834 -10.5 -18.501s-10.166 -11.5 -17.499 -14.5s-15.666 -4.5 -24.999 -4.5h-24c-86 0 -158.5 16.667 -217.5 50s-101.5 83 -127.5 149
c-74.667 -51.333 -157 -77 -247 -77c-164 0 -279 55 -345 165c-13.333 22.667 -23.333 47.334 -30 74.001s-10 55 -10 85zM622.998 679c-52.667 -20 -98.333 -40.498 -137 -61.498s-69.167 -40.833 -91.5 -59.5s-38.833 -36.334 -49.5 -53.001s-16 -32.334 -16 -47.001
c0 -28.667 8.5 -49.5 25.5 -62.5s48.5 -19.5 94.5 -19.5c44.667 0 89.334 13.667 134.001 41c25.333 15.333 42.666 34.833 51.999 58.5s11 54.167 5 91.5z" />
    <glyph glyph-name="uniFDF2" unicode="&#x627;&#xfedf;&#xfee0;&#xfeea;" horiz-adv-x="2779" arabic-form="isolated" 
d="M1322 1723v402v20h20h88h20v-20v-402v-20h-20h-88h-20v20zM1443 1621c1.33301 -27.333 2.33398 -55 3.00098 -83c-0.666992 -27.333 2.83301 -46.166 10.5 -56.499s19.5 -15.5 35.5 -15.5c16.667 0 29.167 6 37.5 18s12.833 33 13.5 63c0 24 -5.33301 62 -16 114l-5 20
l21 4l88 14l17 2l5 -17c6.66699 -21.333 11.5 -42.666 14.5 -63.999s4.5 -42.333 4.5 -63c0 -70.667 -14 -125.5 -42 -164.5s-69.333 -58.5 -124 -58.5c-38 -0.666992 -71 11.333 -99 36c-28 -66.667 -81.333 -100 -160 -100c-50.667 0 -89.334 16.333 -116.001 49
s-40.667 79 -42 139c-0.666992 41.333 4 79.666 14 114.999l5 17l17 -3l79 -13l20 -3l-4 -21c-6.66699 -29.333 -9.66699 -55.333 -9 -78c0 -24 3.83301 -40.667 11.5 -50s19.834 -14 36.501 -14c21.333 0 37.333 7 48 21s16.667 38.333 18 73
c1.33301 33.333 1.66602 72.666 0.999023 117.999v20h20h77h20v-19zM71.001 446c0 208.667 170.997 369.004 512.997 481.004l-2 11l-7 38l38 8l163 34l41 8l6 -42l83 -591c6 -46 20.333 -79 43 -99s57 -30 103 -30h20c6 0 11.833 -0.833008 17.5 -2.5
s10.334 -3.66699 14.001 -6s7.16699 -5.66602 10.5 -9.99902s6 -8.33301 8 -12s3.66699 -8.33398 5 -14.001s2.33301 -10.334 3 -14.001s1.16699 -8.83398 1.5 -15.501s0.5 -11.334 0.5 -14.001v-13v-11v-24c0 -1.33301 0.166992 -7.5 0.5 -18.5s0.333008 -19 0 -24
s-1 -12.833 -2 -23.5s-2.83301 -18.834 -5.5 -24.501s-6.16699 -11.834 -10.5 -18.501s-10.166 -11.5 -17.499 -14.5s-15.666 -4.5 -24.999 -4.5h-24c-86 0 -158.5 16.667 -217.5 50s-101.5 83 -127.5 149c-74.667 -51.333 -157 -77 -247 -77c-164 0 -279 55 -345 165
c-13.333 22.667 -23.333 47.334 -30 74.001s-10 55 -10 85zM622.998 679.004c-52.667 -20 -98.333 -40.498 -137 -61.498s-69.167 -40.833 -91.5 -59.5s-38.833 -36.334 -49.5 -53.001s-16 -32.334 -16 -47.001c0 -28.667 8.5 -49.5 25.5 -62.5s48.5 -19.5 94.5 -19.5
c44.667 0 89.334 13.667 134.001 41c25.333 15.333 42.666 34.833 51.999 58.5s11 54.167 5 91.5zM1084 0.00585938l-29.002 -0.000976562c-36.667 0 -65.334 12 -86.001 36c-21.333 24 -32 54.667 -32 92v19c0 35.333 10.833 63.666 32.5 84.999s50.167 32 85.5 32h31
c66.667 0 115.334 16 146.001 48c30 32.667 45 85.667 45 159v673v40h40h174h40v-40v-673c0 -37.333 3.33301 -69.333 10 -96s16.667 -48 30 -64c14 -16.667 31 -28.667 51 -36s44 -11 72 -11h11c2.66699 0 5.33398 -0.333008 8.00098 -1
c2.66699 0 5.33398 -0.333008 8.00098 -1s5.16699 -1.66699 7.5 -3s4.83301 -2.66602 7.5 -3.99902s5 -2.66602 7 -3.99902c9.33301 -8 16.666 -18.167 21.999 -30.5s8.33301 -23.5 9 -33.5c1.33301 -8.66699 2 -22 2 -40v-19c0 -18 -1 -33.667 -3 -47
c-1.33301 -14 -4 -25.333 -8 -34c-3.33301 -8.66699 -6.33301 -14.667 -9 -18c-2 -4 -5.66699 -8.33301 -11 -13c-11.333 -10.667 -24.666 -16 -39.999 -16h-8c-127.333 0 -228.333 39.667 -303 119c-74 -79.333 -177.333 -119 -310 -119zM1696 0.00488281
c-36.667 0 -65.333 12.001 -86 36.001c-21.333 24 -32 54.667 -32 92v19c0 35.333 10.833 63.666 32.5 84.999s50.167 32 85.5 32h58c55.333 0 95.333 13 120 39c24 26.667 36 70.667 36 132v872v40h40h174h40v-40v-878c0 -138.667 -35.667 -245 -107 -319
c-70.667 -73.333 -173.667 -110 -309 -110h-52zM2444 1438.01h173h40v-40v-1357v-40h-40h-173h-40v40v1357v40h40z" />
    <glyph glyph-name="uniFE70" unicode="&#x20;&#x64b;" horiz-adv-x="791" arabic-form="isolated" 
d="M26 1076v104v13l12 5l456 187l27 11v-30v-103v-14l-12 -5l-456 -186l-27 -11v29zM26 1288v104v13l12 5l456 187l27 11v-30v-103v-14l-12 -5l-456 -186l-27 -11v29z" />
    <glyph glyph-name="uniFE72" unicode="&#x20;&#x64c;" horiz-adv-x="791" arabic-form="isolated" 
d="M322 1704c-10 -11.333 -15.001 -24.668 -15.001 -40.001c0 -28.667 17.667 -50.667 53 -66c12.667 -5.33301 31.667 -11.666 57 -18.999c11.333 23.333 17 46.666 17 69.999c0 28.667 -4.83301 48.834 -14.5 60.501s-25.167 17.167 -46.5 16.5
c-7.33301 0 -14.166 -0.833008 -20.499 -2.5s-12 -4 -17 -7s-9.5 -7.16699 -13.5 -12.5zM57.999 1515c0.666992 -37.333 3.66797 -69.1699 9.00098 -95.5029s13 -47.666 23 -63.999s21.667 -28.166 35 -35.499s28.666 -11 45.999 -11c42.667 0.666992 87.667 23.667 135 69
c23.333 23.333 46 54.666 68 93.999l-4 1c-35.333 7.33301 -65.333 17.333 -90 30s-44.334 28.334 -59.001 47.001c-24 32 -36 67 -36 105c0 4.66699 0.166992 9.16699 0.5 13.5l1 13l1 12.5c0.333008 4 1 8 2 12l3 11.5l3 11c1 3.66699 2.33301 7.16699 4 10.5
s3.16699 6.66602 4.5 9.99902c16.667 31.333 39 55.166 67 71.499s60.667 24.5 98 24.5c26 0.666992 50 -3 72 -11s41 -19.667 57 -35c36 -34.667 54 -84 54 -148c0.666992 -12.667 -0.333008 -26.5 -3 -41.5s-6.66699 -31.5 -12 -49.5h5
c19.333 -1.33301 38.666 -2 57.999 -2l19 -1v-19v-79v-20h-20c-6.66699 0 -12.667 0.166992 -18 0.5s-10.166 0.5 -14.499 0.5s-8.16602 0.166992 -11.499 0.5s-6 0.5 -8 0.5l-62 6c-16 -36 -35 -69 -57 -99s-47.333 -57.333 -76 -82c-14 -12 -28.167 -22.667 -42.5 -32
s-29 -17.166 -44 -23.499s-30.333 -11.166 -46 -14.499s-31.167 -5 -46.5 -5c-69.333 -0.666992 -121.333 26.833 -156 82.5s-53 135.834 -55 240.501v20h20h56h19z" />
    <glyph glyph-name="uniFE74" unicode="&#x20;&#x64d;" horiz-adv-x="791" arabic-form="isolated" 
d="M31 -446v104v13l13 5l455 186l28 12v-30v-104v-13l-13 -5l-455 -187l-28 -11v30zM31 -234v104v13l13 5l455 186l28 12v-30v-104v-13l-13 -5l-455 -187l-28 -11v30z" />
    <glyph glyph-name="uniFE76" unicode="&#x20;&#x64e;" horiz-adv-x="791" arabic-form="isolated" 
d="M-5 1349v104v13l13 5l455 186l28 12v-30v-104v-13l-13 -5l-455 -186l-28 -12v30z" />
    <glyph glyph-name="uniFE78" unicode="&#x20;&#x64f;" horiz-adv-x="791" arabic-form="isolated" 
d="M532 1444c-20.667 0 -39.5 0.499023 -56.5 1.49902s-32.167 2.16699 -45.5 3.5l-19 3c-29.333 -39.333 -62.833 -72.666 -100.5 -99.999s-79 -48.333 -124 -63s-94.167 -23.334 -147.5 -26.001l-21 -1v21v78v19l19 1c53.333 2 100.166 11.833 140.499 29.5
s74.5 42.834 102.5 75.501c-20.667 6.66699 -42 16 -64 28c-64.667 36 -97 86.667 -97 152c0.666992 47.333 14.334 87.333 41.001 120c34.667 41.333 82 62 142 62c14.667 0 29 -1.5 43 -4.5s27.333 -7.5 40 -13.5s24.334 -13.333 35.001 -22
c12 -10 22.5 -21.167 31.5 -33.5s16.167 -25.833 21.5 -40.5c8 -21.333 12 -44.333 12 -69c-0.666992 -16.667 -2.5 -33.5 -5.5 -50.5s-7.16699 -33.833 -12.5 -50.5c23.333 -2 44.666 -2.66699 63.999 -2l21 1v-21v-78v-20h-20zM348 1584
c12 28.667 18.001 55.332 18.001 79.999c0 20.667 -6 36 -18 46c-13.333 11.333 -27.333 17 -42 17c-23.333 0.666992 -41.333 -7 -54 -23c-4 -6 -7.16699 -12.5 -9.5 -19.5s-3.5 -14.5 -3.5 -22.5c0 -10.667 4.16699 -21 12.5 -31s22.166 -19.333 41.499 -28
c12 -5.33301 30.333 -11.666 55 -18.999z" />
    <glyph glyph-name="uniFE7A" unicode="&#x20;&#x650;" horiz-adv-x="791" arabic-form="isolated" 
d="M42 -346v104v13l12 5l456 187l27 11v-30v-103v-14l-12 -5l-456 -186l-27 -11v29z" />
    <glyph glyph-name="uniFE7C" unicode="&#x20;&#x651;" horiz-adv-x="791" arabic-form="isolated" 
d="M347 1769c1.33301 -27.333 2.33398 -55 3.00098 -83c-0.666992 -27.333 2.83301 -46.166 10.5 -56.499s19.5 -15.5 35.5 -15.5c16.667 0 29.167 6 37.5 18s12.833 33 13.5 63c0 24 -5.33301 62 -16 114l-5 20l21 4l88 14l17 2l5 -17
c6.66699 -21.333 11.5 -42.666 14.5 -63.999s4.5 -42.333 4.5 -63c0 -70.667 -14 -125.5 -42 -164.5s-69.333 -58.5 -124 -58.5c-38 -0.666992 -71 11.333 -99 36c-28 -66.667 -81.333 -100 -160 -100c-50.667 0 -89.334 16.333 -116.001 49s-40.667 79 -42 139
c-0.666992 41.333 4 79.666 14 114.999l5 17l17 -3l79 -13l20 -3l-4 -21c-6.66699 -29.333 -9.66699 -55.333 -9 -78c0 -24 3.83301 -40.667 11.5 -50s19.834 -14 36.501 -14c21.333 0 37.333 7 48 21s16.667 38.333 18 73c1.33301 33.333 1.66602 72.666 0.999023 117.999
v20h20h77h20v-19z" />
    <glyph glyph-name="uniFE7E" unicode="&#x20;&#x652;" horiz-adv-x="791" arabic-form="isolated" 
d="M97 1461.5c0 29.667 5.33203 57.3291 15.999 82.9961s26.334 48.834 47.001 69.501c41.333 42 92 63 152 63c30 0 57.833 -5.33301 83.5 -16s48.834 -26.334 69.501 -47.001c14 -13.333 25.667 -28 35 -44s16.333 -33.167 21 -51.5s7 -37.166 7 -56.499
c0 -60.667 -21 -111.667 -63 -153c-13.333 -14 -28.166 -25.667 -44.499 -35s-33.5 -16.333 -51.5 -21s-37 -7 -57 -7c-29.333 0 -56.833 5.33301 -82.5 16s-48.834 26.334 -69.501 47.001s-36.334 43.834 -47.001 69.501s-16 53.334 -16 83.001zM223.999 1461
c-0.666992 -26 8 -47.668 26 -65.001c17.333 -18 39 -27 65 -27c25.333 0 47 9 65 27c8.66699 8.66699 15.334 18.334 20.001 29.001s7 22.667 7 36c-0.666992 25.333 -9.66699 47 -27 65c-18 17.333 -39.667 26 -65 26c-13.333 0 -25.333 -2.16699 -36 -6.5
s-20.334 -10.833 -29.001 -19.5c-18 -18 -26.667 -39.667 -26 -65z" />
    <glyph glyph-name="uniFEF5" unicode="&#xfedf;&#xfe82;" horiz-adv-x="1219" arabic-form="isolated" 
d="M211 1502c-33.333 4.66699 -65.333 -0.166992 -96 -14.5s-60.667 -38.5 -90 -72.5l-14 -17l-15 16l-102 127l-11 11l9 14c84 120 186.667 170.333 308 151l149 -24c60.667 -10 129.667 4.66699 207 44l18 9l9 -19l66 -156l7 -16l-15 -10
c-89.333 -56 -186 -76.667 -290 -62zM297 1353c214.667 -517.333 345.668 -862.666 393.001 -1036c53.333 26 94 68.667 122 128c27.333 59.333 41 137.666 41 234.999v718v40h40h173h40v-40v-719c0 -222 -60.167 -390.167 -180.5 -504.5s-296.833 -171.5 -529.5 -171.5
c-94.667 0 -171.334 5.33301 -230.001 16l-33 6v34v181v45l45 -5c92.667 -12 182.667 -16.667 270 -14c-41.333 138 -171 458.667 -389 962l-15 33l32 17l164 95l40 22z" />
    <glyph glyph-name="uniFEF6" unicode="&#xfee0;&#xfe82;" horiz-adv-x="1293" arabic-form="final" 
d="M690 317c53.333 26 94.0029 68.667 122.003 128c27.333 59.333 41 137.666 41 234.999v718v40h40h173h40v-40v-809c0 -116 14.667 -199 44 -249c29.333 -50.667 71.666 -76 126.999 -76h25c8 0 15.333 -1.33301 22 -4s12 -5.66699 16 -9s7.66699 -8.66602 11 -15.999
c2.66699 -6.66699 5 -12 7 -16c1.33301 -4.66699 2.33301 -11.5 3 -20.5s1 -15.167 1 -18.5c0.666992 -3.33301 0.666992 -9.66602 0 -18.999v-14v-19c0 -40.667 -1 -66.334 -3 -77.001c-8.66699 -34 -27.667 -51 -57 -51h-39c-75.333 0 -140.666 16 -195.999 48
c-54.667 32 -96.334 78.667 -125.001 140c-120 -123.333 -302 -185 -546 -185c-94.667 0 -171.334 5.33301 -230.001 16l-33 6v34v181v45l45 -5c92 -12 182 -16.667 270 -14c-42.667 139.333 -172.334 460 -389.001 962l-14 33l31 17l164 95l40 22l17 -42
c214 -516 345 -861.333 393 -1036zM211.003 1502c-33.333 4.66699 -65.333 -0.166992 -96 -14.5s-60.667 -38.5 -90 -72.5l-14 -17l-15 16l-102 127l-11 11l9 14c84 120 186.667 170.333 308 151l149 -24c60.667 -10 129.667 4.66699 207 44l18 9l9 -19l66 -156l7 -16
l-15 -10c-89.333 -56 -186 -76.667 -290 -62z" />
    <glyph glyph-name="uniFEF7" unicode="&#xfedf;&#xfe84;" horiz-adv-x="1219" arabic-form="isolated" 
d="M35 1540c-34.667 39.333 -51.998 89.3311 -51.998 149.998c0 64 21.333 118.667 64 164c50 52.667 114 79 192 79c54 0 104.667 -15.333 152 -46l9 -6v-10l1 -132v-37l-31 20c-19.333 12.667 -39 22.334 -59 29.001c-19.333 6 -38.666 9 -57.999 9
c-36.667 0 -64.334 -9.33301 -83.001 -28c-14.667 -15.333 -22 -33.666 -22 -54.999c1.33301 -30.667 28.666 -55.667 81.999 -75c5.33301 -2 9.66602 -2.66699 12.999 -2l140 27l24 5v-24v-126v-16l-16 -3l-406 -98l-25 -6v25v113v26l16 4zM297.002 1353
c214.667 -517.333 345.668 -862.666 393.001 -1036c53.333 26 94 68.667 122 128c27.333 59.333 41 137.666 41 234.999v718v40h40h173h40v-40v-719c0 -222 -60.167 -390.167 -180.5 -504.5s-296.833 -171.5 -529.5 -171.5c-94.667 0 -171.334 5.33301 -230.001 16l-33 6v34
v181v45l45 -5c92.667 -12 182.667 -16.667 270 -14c-41.333 138 -171 458.667 -389 962l-15 33l32 17l164 95l40 22z" />
    <glyph glyph-name="uniFEF8" unicode="&#xfee0;&#xfe84;" horiz-adv-x="1293" arabic-form="final" 
d="M690 317c53.333 26 94.0029 68.667 122.003 128c27.333 59.333 41 137.666 41 234.999v718v40h40h173h40v-40v-809c0 -116 14.667 -199 44 -249c29.333 -50.667 71.666 -76 126.999 -76h25c8 0 15.333 -1.33301 22 -4s12 -5.66699 16 -9s7.66699 -8.66602 11 -15.999
c2.66699 -6.66699 5 -12 7 -16c1.33301 -4.66699 2.33301 -11.5 3 -20.5s1 -15.167 1 -18.5c0.666992 -3.33301 0.666992 -9.66602 0 -18.999v-14v-19c0 -40.667 -1 -66.334 -3 -77.001c-8.66699 -34 -27.667 -51 -57 -51h-39c-75.333 0 -140.666 16 -195.999 48
c-54.667 32 -96.334 78.667 -125.001 140c-120 -123.333 -302 -185 -546 -185c-94.667 0 -171.334 5.33301 -230.001 16l-33 6v34v181v45l45 -5c92 -12 182 -16.667 270 -14c-42.667 139.333 -172.334 460 -389.001 962l-14 33l31 17l164 95l40 22l17 -42
c214 -516 345 -861.333 393 -1036zM35.0029 1540c-34.667 39.333 -51.998 89.3311 -51.998 149.998c0 64 21.333 118.667 64 164c50 52.667 114 79 192 79c54 0 104.667 -15.333 152 -46l9 -6v-10l1 -132v-37l-31 20c-19.333 12.667 -39 22.334 -59 29.001
c-19.333 6 -38.666 9 -57.999 9c-36.667 0 -64.334 -9.33301 -83.001 -28c-14.667 -15.333 -22 -33.666 -22 -54.999c1.33301 -30.667 28.666 -55.667 81.999 -75c5.33301 -2 9.66602 -2.66699 12.999 -2l140 27l24 5v-24v-126v-16l-16 -3l-406 -98l-25 -6v25v113v26l16 4z
" />
    <glyph glyph-name="uniFEF9" unicode="&#xfedf;&#xfe88;" horiz-adv-x="1219" arabic-form="isolated" 
d="M127 -492c-34.667 39.333 -51.998 89.3311 -51.998 149.998c0 64 21.333 118.667 64 164c50 52.667 114 79 192 79c54 0 104.667 -15.333 152 -46l9 -6v-10l1 -132v-37l-31 20c-19.333 12.667 -39 22.334 -59 29.001c-19.333 6 -38.666 9 -57.999 9
c-36.667 0 -64.334 -9.33301 -83.001 -28c-14.667 -15.333 -22 -33.666 -22 -54.999c1.33301 -30.667 28.666 -55.667 81.999 -75c5.33301 -2 9.66602 -2.66699 12.999 -2l140 27l24 5v-24v-126v-16l-16 -3l-406 -98l-25 -6v25v113v26l16 4zM297.002 1353
c214.667 -517.333 345.668 -862.666 393.001 -1036c53.333 26 94 68.667 122 128c27.333 59.333 41 137.666 41 234.999v718v40h40h173h40v-40v-719c0 -222 -60.167 -390.167 -180.5 -504.5s-296.833 -171.5 -529.5 -171.5c-94.667 0 -171.334 5.33301 -230.001 16l-33 6v34
v181v45l45 -5c92.667 -12 182.667 -16.667 270 -14c-41.333 138 -171 458.667 -389 962l-15 33l32 17l164 95l40 22z" />
    <glyph glyph-name="uniFEFA" unicode="&#xfee0;&#xfe88;" horiz-adv-x="1293" arabic-form="final" 
d="M127 -492c-34.667 39.333 -51.998 89.3311 -51.998 149.998c0 64 21.333 118.667 64 164c50 52.667 114 79 192 79c54 0 104.667 -15.333 152 -46l9 -6v-10l1 -132v-37l-31 20c-19.333 12.667 -39 22.334 -59 29.001c-19.333 6 -38.666 9 -57.999 9
c-36.667 0 -64.334 -9.33301 -83.001 -28c-14.667 -15.333 -22 -33.666 -22 -54.999c1.33301 -30.667 28.666 -55.667 81.999 -75c5.33301 -2 9.66602 -2.66699 12.999 -2l140 27l24 5v-24v-126v-16l-16 -3l-406 -98l-25 -6v25v113v26l16 4zM690.002 316.998
c53.333 26 94.0029 68.667 122.003 128c27.333 59.333 41 137.666 41 234.999v718v40h40h173h40v-40v-809c0 -116 14.667 -199 44 -249c29.333 -50.667 71.666 -76 126.999 -76h25c8 0 15.333 -1.33301 22 -4s12 -5.66699 16 -9s7.66699 -8.66602 11 -15.999
c2.66699 -6.66699 5 -12 7 -16c1.33301 -4.66699 2.33301 -11.5 3 -20.5s1 -15.167 1 -18.5c0.666992 -3.33301 0.666992 -9.66602 0 -18.999v-14v-19c0 -40.667 -1 -66.334 -3 -77.001c-8.66699 -34 -27.667 -51 -57 -51h-39c-75.333 0 -140.666 16 -195.999 48
c-54.667 32 -96.334 78.667 -125.001 140c-120 -123.333 -302 -185 -546 -185c-94.667 0 -171.334 5.33301 -230.001 16l-33 6v34v181v45l45 -5c92 -12 182 -16.667 270 -14c-42.667 139.333 -172.334 460 -389.001 962l-14 33l31 17l164 95l40 22l17 -42
c214 -516 345 -861.333 393 -1036z" />
    <glyph glyph-name="uniFEFB" unicode="&#xfedf;&#xfe8e;" horiz-adv-x="1219" arabic-form="isolated" 
d="M297 1353c214.667 -517.333 345.668 -862.666 393.001 -1036c53.333 26 94 68.667 122 128c27.333 59.333 41 137.666 41 234.999v718v40h40h173h40v-40v-719c0 -222 -60.167 -390.167 -180.5 -504.5s-296.833 -171.5 -529.5 -171.5
c-94.667 0 -171.334 5.33301 -230.001 16l-33 6v34v181v45l45 -5c92.667 -12 182.667 -16.667 270 -14c-41.333 138 -171 458.667 -389 962l-15 33l32 17l164 95l40 22z" />
    <glyph glyph-name="uniFEFC" unicode="&#xfee0;&#xfe8e;" horiz-adv-x="1293" arabic-form="final" 
d="M690 317c53.333 26 94.0029 68.667 122.003 128c27.333 59.333 41 137.666 41 234.999v718v40h40h173h40v-40v-809c0 -116 14.667 -199 44 -249c29.333 -50.667 71.666 -76 126.999 -76h25c8 0 15.333 -1.33301 22 -4s12 -5.66699 16 -9s7.66699 -8.66602 11 -15.999
c2.66699 -6.66699 5 -12 7 -16c1.33301 -4.66699 2.33301 -11.5 3 -20.5s1 -15.167 1 -18.5c0.666992 -3.33301 0.666992 -9.66602 0 -18.999v-14v-19c0 -40.667 -1 -66.334 -3 -77.001c-8.66699 -34 -27.667 -51 -57 -51h-39c-75.333 0 -140.666 16 -195.999 48
c-54.667 32 -96.334 78.667 -125.001 140c-120 -123.333 -302 -185 -546 -185c-94.667 0 -171.334 5.33301 -230.001 16l-33 6v34v181v45l45 -5c92 -12 182 -16.667 270 -14c-42.667 139.333 -172.334 460 -389.001 962l-14 33l31 17l164 95l40 22l17 -42
c214 -516 345 -861.333 393 -1036z" />
    <glyph glyph-name="uni0651064B" unicode="&#x64b;&#x651;" 
d="M314 1258v104v13l12 5l456 187l27 11v-30v-103v-14l-12 -5l-456 -186l-27 -11v29zM314 1470v104v13l12 5l456 187l27 11v-30v-103v-14l-12 -5l-456 -186l-27 -11v29zM635 1228c1.33301 -27.333 2.33398 -55 3.00098 -83c-0.666992 -27.333 2.83301 -46.166 10.5 -56.499
s19.5 -15.5 35.5 -15.5c16.667 0 29.167 6 37.5 18s12.833 33 13.5 63c0 24 -5.33301 62 -16 114l-5 20l21 4l88 14l17 2l5 -17c6.66699 -21.333 11.5 -42.666 14.5 -63.999s4.5 -42.333 4.5 -63c0 -70.667 -14 -125.5 -42 -164.5s-69.333 -58.5 -124 -58.5
c-38 -0.666992 -71 11.333 -99 36c-28 -66.667 -81.333 -100 -160 -100c-50.667 0 -89.334 16.333 -116.001 49s-40.667 79 -42 139c-0.666992 41.333 4 79.666 14 114.999l5 17l17 -3l79 -13l20 -3l-4 -21c-6.66699 -29.333 -9.66699 -55.333 -9 -78
c0 -24 3.83301 -40.667 11.5 -50s19.834 -14 36.501 -14c21.333 0 37.333 7 48 21s16.667 38.333 18 73c1.33301 33.333 1.66602 72.666 0.999023 117.999v20h20h77h20v-19z" />
    <glyph glyph-name="uni0651064C" unicode="&#x64c;&#x651;" 
d="M597 1776c-10 -11.333 -15.001 -24.668 -15.001 -40.001c0 -28.667 17.667 -50.667 53 -66c12.667 -5.33301 31.667 -11.666 57 -18.999c11.333 23.333 17 46.666 17 69.999c0 28.667 -4.83301 48.834 -14.5 60.501s-25.167 17.167 -46.5 16.5
c-7.33301 0 -14.166 -0.833008 -20.499 -2.5s-12 -4 -17 -7s-9.5 -7.16699 -13.5 -12.5zM332.999 1587c0.666992 -37.333 3.66797 -69.1699 9.00098 -95.5029s13 -47.666 23 -63.999s21.667 -28.166 35 -35.499s28.666 -11 45.999 -11c42.667 0.666992 87.667 23.667 135 69
c23.333 23.333 46 54.666 68 93.999l-4 1c-35.333 7.33301 -65.333 17.333 -90 30s-44.334 28.334 -59.001 47.001c-24 32 -36 67 -36 105c0 4.66699 0.166992 9.16699 0.5 13.5l1 13l1 12.5c0.333008 4 1 8 2 12l3 11.5l3 11c1 3.66699 2.33301 7.16699 4 10.5
s3.16699 6.66602 4.5 9.99902c16.667 31.333 39 55.166 67 71.499s60.667 24.5 98 24.5c26 0.666992 50 -3 72 -11s41 -19.667 57 -35c36 -34.667 54 -84 54 -148c0.666992 -12.667 -0.333008 -26.5 -3 -41.5s-6.66699 -31.5 -12 -49.5h5
c19.333 -1.33301 38.666 -2 57.999 -2l19 -1v-19v-79v-20h-20c-6.66699 0 -12.667 0.166992 -18 0.5s-10.166 0.5 -14.499 0.5s-8.16602 0.166992 -11.499 0.5s-6 0.5 -8 0.5l-62 6c-16 -36 -35 -69 -57 -99s-47.333 -57.333 -76 -82c-14 -12 -28.167 -22.667 -42.5 -32
s-29 -17.166 -44 -23.499s-30.333 -11.166 -46 -14.499s-31.167 -5 -46.5 -5c-69.333 -0.666992 -121.333 26.833 -156 82.5s-53 135.834 -55 240.501v20h20h56h19zM652 1221.99c1.33301 -27.333 2.33398 -55 3.00098 -83c-0.666992 -27.333 2.83301 -46.166 10.5 -56.499
s19.5 -15.5 35.5 -15.5c16.667 0 29.167 6 37.5 18s12.833 33 13.5 63c0 24 -5.33301 62 -16 114l-5 20l21 4l88 14l17 2l5 -17c6.66699 -21.333 11.5 -42.666 14.5 -63.999s4.5 -42.333 4.5 -63c0 -70.667 -14 -125.5 -42 -164.5s-69.333 -58.5 -124 -58.5
c-38 -0.666992 -71 11.333 -99 36c-28 -66.667 -81.333 -100 -160 -100c-50.667 0 -89.334 16.333 -116.001 49s-40.667 79 -42 139c-0.666992 41.333 4 79.666 14 114.999l5 17l17 -3l79 -13l20 -3l-4 -21c-6.66699 -29.333 -9.66699 -55.333 -9 -78
c0 -24 3.83301 -40.667 11.5 -50s19.834 -14 36.501 -14c21.333 0 37.333 7 48 21s16.667 38.333 18 73c1.33301 33.333 1.66602 72.666 0.999023 117.999v20h20h77h20v-19z" />
    <glyph glyph-name="uni064B0651" unicode="&#x64d;&#x651;" 
d="M533 1754c1.33301 -27.333 2.33398 -55 3.00098 -83c-0.666992 -27.333 2.83301 -46.166 10.5 -56.499s19.5 -15.5 35.5 -15.5c16.667 0 29.167 6 37.5 18s12.833 33 13.5 63c0 24 -5.33301 62 -16 114l-5 20l21 4l88 14l17 2l5 -17
c6.66699 -21.333 11.5 -42.666 14.5 -63.999s4.5 -42.333 4.5 -63c0 -70.667 -14 -125.5 -42 -164.5s-69.333 -58.5 -124 -58.5c-38 -0.666992 -71 11.333 -99 36c-28 -66.667 -81.333 -100 -160 -100c-50.667 0 -89.334 16.333 -116.001 49s-40.667 79 -42 139
c-0.666992 41.333 4 79.666 14 114.999l5 17l17 -3l79 -13l20 -3l-4 -21c-6.66699 -29.333 -9.66699 -55.333 -9 -78c0 -24 3.83301 -40.667 11.5 -50s19.834 -14 36.501 -14c21.333 0 37.333 7 48 21s16.667 38.333 18 73c1.33301 33.333 1.66602 72.666 0.999023 117.999
v20h20h77h20v-19zM263.001 869v104v13l12 5l456 187l27 11v-30v-103v-14l-12 -5l-456 -186l-27 -11v29zM263.001 1081v104v13l12 5l456 187l27 11v-30v-103v-14l-12 -5l-456 -186l-27 -11v29z" />
    <glyph glyph-name="uni0651064E" unicode="&#x64e;&#x651;" 
d="M298 1457v104v13l13 5l455 186l28 12v-30v-104v-13l-13 -5l-455 -186l-28 -12v30zM640 1436c1.33301 -27.333 2.33398 -55 3.00098 -83c-0.666992 -27.333 2.83301 -46.166 10.5 -56.499s19.5 -15.5 35.5 -15.5c16.667 0 29.167 6 37.5 18s12.833 33 13.5 63
c0 24 -5.33301 62 -16 114l-5 20l21 4l88 14l17 2l5 -17c6.66699 -21.333 11.5 -42.666 14.5 -63.999s4.5 -42.333 4.5 -63c0 -70.667 -14 -125.5 -42 -164.5s-69.333 -58.5 -124 -58.5c-38 -0.666992 -71 11.333 -99 36c-28 -66.667 -81.333 -100 -160 -100
c-50.667 0 -89.334 16.333 -116.001 49s-40.667 79 -42 139c-0.666992 41.333 4 79.666 14 114.999l5 17l17 -3l79 -13l20 -3l-4 -21c-6.66699 -29.333 -9.66699 -55.333 -9 -78c0 -24 3.83301 -40.667 11.5 -50s19.834 -14 36.501 -14c21.333 0 37.333 7 48 21
s16.667 38.333 18 73c1.33301 33.333 1.66602 72.666 0.999023 117.999v20h20h77h20v-19z" />
    <glyph glyph-name="uni0651064F" unicode="&#x64f;&#x651;" 
d="M809 1431c-20.667 0 -39.5 0.499023 -56.5 1.49902s-32.167 2.16699 -45.5 3.5l-19 3c-29.333 -39.333 -62.833 -72.666 -100.5 -99.999s-79 -48.333 -124 -63s-94.167 -23.334 -147.5 -26.001l-21 -1v21v78v19l19 1c53.333 2 100.166 11.833 140.499 29.5
s74.5 42.834 102.5 75.501c-20.667 6.66699 -42 16 -64 28c-64.667 36 -97 86.667 -97 152c0.666992 47.333 14.334 87.333 41.001 120c34.667 41.333 82 62 142 62c14.667 0 29 -1.5 43 -4.5s27.333 -7.5 40 -13.5s24.334 -13.333 35.001 -22
c12 -10 22.5 -21.167 31.5 -33.5s16.167 -25.833 21.5 -40.5c8 -21.333 12 -44.333 12 -69c-0.666992 -16.667 -2.5 -33.5 -5.5 -50.5s-7.16699 -33.833 -12.5 -50.5c23.333 -2 44.666 -2.66699 63.999 -2l21 1v-21v-78v-20h-20zM625 1571
c12 28.667 18.001 55.332 18.001 79.999c0 20.667 -6 36 -18 46c-13.333 11.333 -27.333 17 -42 17c-23.333 0.666992 -41.333 -7 -54 -23c-4 -6 -7.16699 -12.5 -9.5 -19.5s-3.5 -14.5 -3.5 -22.5c0 -10.667 4.16699 -21 12.5 -31s22.166 -19.333 41.499 -28
c12 -5.33301 30.333 -11.666 55 -18.999zM637.001 1229c1.33301 -27.333 2.33398 -55 3.00098 -83c-0.666992 -27.333 2.83301 -46.166 10.5 -56.499s19.5 -15.5 35.5 -15.5c16.667 0 29.167 6 37.5 18s12.833 33 13.5 63c0 24 -5.33301 62 -16 114l-5 20l21 4l88 14l17 2
l5 -17c6.66699 -21.333 11.5 -42.666 14.5 -63.999s4.5 -42.333 4.5 -63c0 -70.667 -14 -125.5 -42 -164.5s-69.333 -58.5 -124 -58.5c-38 -0.666992 -71 11.333 -99 36c-28 -66.667 -81.333 -100 -160 -100c-50.667 0 -89.334 16.333 -116.001 49s-40.667 79 -42 139
c-0.666992 41.333 4 79.666 14 114.999l5 17l17 -3l79 -13l20 -3l-4 -21c-6.66699 -29.333 -9.66699 -55.333 -9 -78c0 -24 3.83301 -40.667 11.5 -50s19.834 -14 36.501 -14c21.333 0 37.333 7 48 21s16.667 38.333 18 73c1.33301 33.333 1.66602 72.666 0.999023 117.999
v20h20h77h20v-19z" />
    <glyph glyph-name="uni064E0651" unicode="&#x650;&#x651;" 
d="M625 1641c1.33301 -27.333 2.33398 -55 3.00098 -83c-0.666992 -27.333 2.83301 -46.166 10.5 -56.499s19.5 -15.5 35.5 -15.5c16.667 0 29.167 6 37.5 18s12.833 33 13.5 63c0 24 -5.33301 62 -16 114l-5 20l21 4l88 14l17 2l5 -17
c6.66699 -21.333 11.5 -42.666 14.5 -63.999s4.5 -42.333 4.5 -63c0 -70.667 -14 -125.5 -42 -164.5s-69.333 -58.5 -124 -58.5c-38 -0.666992 -71 11.333 -99 36c-28 -66.667 -81.333 -100 -160 -100c-50.667 0 -89.334 16.333 -116.001 49s-40.667 79 -42 139
c-0.666992 41.333 4 79.666 14 114.999l5 17l17 -3l79 -13l20 -3l-4 -21c-6.66699 -29.333 -9.66699 -55.333 -9 -78c0 -24 3.83301 -40.667 11.5 -50s19.834 -14 36.501 -14c21.333 0 37.333 7 48 21s16.667 38.333 18 73c1.33301 33.333 1.66602 72.666 0.999023 117.999
v20h20h77h20v-19zM334.001 999v104v13l13 5l455 186l28 12v-30v-104v-13l-13 -5l-455 -186l-28 -12v30z" />
    <glyph glyph-name="uni0654064E" unicode="&#x64e;&#x654;" 
d="M304 1725v104v13l13 5l455 186l28 12v-30v-104v-13l-13 -5l-455 -186l-28 -12v30zM408 1330c-34.667 39.333 -51.998 89.3311 -51.998 149.998c0 64 21.333 118.667 64 164c50 52.667 114 79 192 79c54 0 104.667 -15.333 152 -46l9 -6v-10l1 -132v-37l-31 20
c-19.333 12.667 -39 22.334 -59 29.001c-19.333 6 -38.666 9 -57.999 9c-36.667 0 -64.334 -9.33301 -83.001 -28c-14.667 -15.333 -22 -33.666 -22 -54.999c1.33301 -30.667 28.666 -55.667 81.999 -75c5.33301 -2 9.66602 -2.66699 12.999 -2l140 27l24 5v-24v-126v-16
l-16 -3l-406 -98l-25 -6v25v113v26l16 4z" />
    <glyph glyph-name="uni0654064F" unicode="&#x64f;&#x654;" 
d="M787 1655c-20.667 0 -39.5 0.499023 -56.5 1.49902s-32.167 2.16699 -45.5 3.5l-19 3c-29.333 -39.333 -62.833 -72.666 -100.5 -99.999s-79 -48.333 -124 -63s-94.167 -23.334 -147.5 -26.001l-21 -1v21v78v19l19 1c53.333 2 100.166 11.833 140.499 29.5
s74.5 42.834 102.5 75.501c-20.667 6.66699 -42 16 -64 28c-64.667 36 -97 86.667 -97 152c0.666992 47.333 14.334 87.333 41.001 120c34.667 41.333 82 62 142 62c14.667 0 29 -1.5 43 -4.5s27.333 -7.5 40 -13.5s24.334 -13.333 35.001 -22
c12 -10 22.5 -21.167 31.5 -33.5s16.167 -25.833 21.5 -40.5c8 -21.333 12 -44.333 12 -69c-0.666992 -16.667 -2.5 -33.5 -5.5 -50.5s-7.16699 -33.833 -12.5 -50.5c23.333 -2 44.666 -2.66699 63.999 -2l21 1v-21v-78v-20h-20zM603 1795
c12 28.667 18.001 55.332 18.001 79.999c0 20.667 -6 36 -18 46c-13.333 11.333 -27.333 17 -42 17c-23.333 0.666992 -41.333 -7 -54 -23c-4 -6 -7.16699 -12.5 -9.5 -19.5s-3.5 -14.5 -3.5 -22.5c0 -10.667 4.16699 -21 12.5 -31s22.166 -19.333 41.499 -28
c12 -5.33301 30.333 -11.666 55 -18.999zM401.001 1112c-34.667 39.333 -51.998 89.3311 -51.998 149.998c0 64 21.333 118.667 64 164c50 52.667 114 79 192 79c54 0 104.667 -15.333 152 -46l9 -6v-10l1 -132v-37l-31 20c-19.333 12.667 -39 22.334 -59 29.001
c-19.333 6 -38.666 9 -57.999 9c-36.667 0 -64.334 -9.33301 -83.001 -28c-14.667 -15.333 -22 -33.666 -22 -54.999c1.33301 -30.667 28.666 -55.667 81.999 -75c5.33301 -2 9.66602 -2.66699 12.999 -2l140 27l24 5v-24v-126v-16l-16 -3l-406 -98l-25 -6v25v113v26l16 4z
" />
    <glyph glyph-name="uni066E.fina" unicode="&#x66e;" horiz-adv-x="1931" 
d="M890 0c-270 0 -476.001 43.6641 -618.001 130.997s-213 219 -213 395c0 96 19.333 187 58 273l16 36l37 -16l157 -68l36 -16l-14 -36c-10.667 -25.333 -18.5 -50.166 -23.5 -74.499s-7.5 -48.166 -7.5 -71.499c0 -26 3.5 -50.333 10.5 -73s17.5 -44 31.5 -64
s31.833 -37.833 53.5 -53.5s47.834 -29.667 78.501 -42s65.167 -22.666 103.5 -30.999s81.833 -14.666 130.5 -18.999s101.667 -6.5 159 -6.5c167.333 0 303 10.5 407 31.5s173 49.5 207 85.5c6.66699 7.33301 12.167 18.833 16.5 34.5s6.5 35.834 6.5 60.501v21
c0 6.66699 -0.166992 12.667 -0.5 18s-0.5 10.333 -0.5 15l-6 82l-2 38l37 4l165 20l42 4l3 -41l16 -215c3.33301 -48.667 17 -88.334 41 -119.001c10 -12.667 23.833 -22.334 41.5 -29.001s40.167 -10 67.5 -10h13c8 0 15.333 -1.33301 22 -4s12 -5.66699 16 -9
s7.5 -8.5 10.5 -15.5s5.33301 -12.667 7 -17s2.83398 -11 3.50098 -20s1 -15.167 1 -18.5v-18.5v-14.5v-19c0 -1.33301 0.166992 -7.5 0.5 -18.5s0.333008 -19 0 -24s-1 -12.667 -2 -23s-2.83301 -18.5 -5.5 -24.5s-6.16699 -12.333 -10.5 -19s-10 -11.5 -17 -14.5
s-15.5 -4.5 -25.5 -4.5h-13c-67.333 0 -127.333 13 -180 39s-96 64.333 -130 115c-130.667 -102.667 -371.334 -154 -722.001 -154h-4z" />
    <glyph glyph-name="uni066F.fina" unicode="&#x66f;" horiz-adv-x="1526" 
d="M738 -267c142 0 250.498 22.502 325.498 67.502s121.167 111.833 138.5 200.5h-103c-130 0 -230.167 28.667 -300.5 86s-105.5 141.333 -105.5 252c0 43.333 4.66699 85.5 14 126.5s23 81.167 41 120.5c34.667 71.333 79 125.666 133 162.999s116.667 56 188 56
c111.333 0 198.833 -46.667 262.5 -140s104.5 -227 122.5 -401h80c8 0 15.333 -1.33301 22 -4s12 -5.66699 16 -9s7.5 -8.5 10.5 -15.5s5.33301 -12.667 7 -17s2.83398 -11 3.50098 -20s1 -15.167 1 -18.5v-18.5v-14.5v-19c0 -1.33301 0.166992 -3.66602 0.5 -6.99902
s0.333008 -9.33301 0 -18s-1 -17.167 -2 -25.5s-2.83301 -17.333 -5.5 -27s-6.16699 -18.167 -10.5 -25.5s-10.166 -13.333 -17.499 -18s-15.666 -7 -24.999 -7l-83 1c-12.667 -87.333 -37.667 -163.833 -75 -229.5s-86.166 -120.334 -146.499 -164.001
s-131.5 -76.334 -213.5 -98.001s-174.333 -32.834 -277 -33.501c-144.667 0 -266.334 22 -365.001 66c-51.333 22.667 -96.666 51.5 -135.999 86.5s-72 75.833 -98 122.5c-50.667 91.333 -76.334 204 -77.001 338c-0.666992 159.333 34 314 104 464l16 34l35 -14l159 -66
l36 -15l-14 -37c-28 -69.333 -48.333 -133.666 -61 -192.999c-13.333 -58.667 -20 -113.667 -20 -165c1.33301 -124 35.666 -215.667 102.999 -275s173 -89 317 -89zM1207 265.002c-18 180 -68.001 270.333 -150.001 271c-7.33301 0 -14.166 -0.666992 -20.499 -2
s-12.5 -3.33301 -18.5 -6s-11.667 -6.5 -17 -11.5s-10.5 -10.833 -15.5 -17.5s-9.83301 -14.667 -14.5 -24s-9 -20 -13 -32c-5.33301 -16 -9.33301 -31.333 -12 -46s-4 -29 -4 -43c0 -30 10.5 -52.333 31.5 -67s59.5 -22 115.5 -22h118z" />
    <glyph glyph-name="uni06A1.init" unicode="&#x6a1;" horiz-adv-x="914" 
d="M446 372c-116.667 0 -206.998 26.499 -270.998 79.499s-96.667 130.167 -98 231.5c0 10 0.333008 20.167 1 30.5s1.66699 20.5 3 30.5s3 20 5 30c10.667 55.333 26.167 105.166 46.5 149.499s46.166 82.5 77.499 114.5c63.333 65.333 142 98 236 98
c31.333 0 61.166 -4 89.499 -12s54.833 -19.667 79.5 -35c122 -79.333 195.333 -228.333 220 -447c2 -22.667 3.66699 -44.5 5 -65.5s2 -41.833 2 -62.5c0 -202 -50.333 -340.667 -151 -416c-87.333 -65.333 -236 -98 -446 -98h-252c-32.667 0 -57.167 12.333 -73.5 37
s-24.5 55 -24.5 91v19c0 32.667 8.5 60.334 25.5 83.001s41.167 34 72.5 34h263c105.333 0 185.833 11 241.5 33s89.5 52 101.5 90c-16 -3.33301 -32.5 -6.16602 -49.5 -8.49902s-34 -4 -51 -5s-34.5 -1.5 -52.5 -1.5zM322.002 709.999
c0 -28.667 9.83301 -50.0029 29.5 -64.0029s55.5 -20.667 107.5 -20c20.667 0 41.5 1.33301 62.5 4s42.167 6.33398 63.5 11.001c-5.33301 30 -11.5 57.333 -18.5 82s-15.167 47.334 -24.5 68.001c-7.33301 16 -15 29.5 -23 40.5s-16.167 19.833 -24.5 26.5
s-17 11.334 -26 14.001s-18.833 4 -29.5 4c-24.667 0 -45.667 -8 -63 -24s-32 -43.333 -44 -82c-2.66699 -7.33301 -4.66699 -14.5 -6 -21.5s-2.33301 -13.667 -3 -20s-1 -12.5 -1 -18.5z" />
    <glyph glyph-name="uni06A1.medi" unicode="&#x6a1;" horiz-adv-x="1052" 
d="M479 653c-16.667 -16.667 -28.8311 -32.499 -36.498 -47.499s-11.5 -28.833 -11.5 -41.5c0 -30.667 18 -67 54 -109l21.5 -23c7 -7.33301 13.333 -13.5 19 -18.5s10.834 -9.33301 15.501 -13s8.83398 -6.66699 12.501 -9l8.5 -5.5c2 -1.33301 3.66699 -2 5 -2
c0.666992 0.666992 2.16699 1.5 4.5 2.5s5.16602 2.66699 8.49902 5s7.5 5.5 12.5 9.5s10.333 8.5 16 13.5s12 11 19 18l21.5 22.5c36 42 54 78 54 108c0 11.333 -2.33301 22.666 -7 33.999s-12.834 24 -24.501 38s-26.5 28.333 -44.5 43c-26.667 22 -48.667 33 -66 33
c-1.33301 0 -3 -0.5 -5 -1.5s-4.83301 -2.33301 -8.5 -4s-7.83398 -4 -12.501 -7s-9.83398 -6.5 -15.501 -10.5s-12 -9 -19 -15s-14.167 -12.667 -21.5 -20zM562.003 120.001c-122 -80 -298 -119.999 -528 -119.999h-41c-32.667 0 -57.167 12.333 -73.5 37
s-24.5 55 -24.5 91v19c0 32.667 8.5 60.334 25.5 83.001s41.167 34 72.5 34h41c112.667 0.666992 199.667 5.66699 261 15c-79.333 85.333 -119 184 -119 296c0 66 18.333 127.833 55 185.5s90 110.834 160 159.501c53.333 37.333 112 56 176 56
c15.333 0 30 -0.833008 44 -2.5s27.833 -4.33398 41.5 -8.00098s26.834 -8 39.501 -13s25 -11.167 37 -18.5c153.333 -92.667 230 -216.334 230 -371.001c0 -106 -40 -201 -120 -285c51.333 -9.33301 114.333 -14 189 -14h32c8.66699 0 16.167 -1.33301 22.5 -4
s11.666 -5.66699 15.999 -9s8 -8.5 11 -15.5s5.16699 -12.667 6.5 -17s2.5 -11 3.5 -20s1.5 -15.167 1.5 -18.5s-0.166992 -9.5 -0.5 -18.5s-0.5 -13.833 -0.5 -14.5v-19c0 -2.66699 0.166992 -8 0.5 -16s0.5 -14.667 0.5 -20s-0.333008 -12.333 -1 -21
s-1.66699 -15.834 -3 -21.501s-3.5 -12 -6.5 -19s-6.66699 -12.5 -11 -16.5s-9.83301 -7.33301 -16.5 -10s-14.334 -4 -23.001 -4h-30c-95.333 0 -182.166 10 -260.499 30s-147.5 50 -207.5 90z" />
    <glyph glyph-name="uni06A1.fina" unicode="&#x6a1;" horiz-adv-x="2025" 
d="M1452 653c-17.333 -16.667 -29.665 -32.502 -36.998 -47.502s-11 -28.833 -11 -41.5c0 -30.667 18 -67 54 -109c8.66699 -10 17.167 -19 25.5 -27l21.5 -20c6 -5.33301 11.5 -9.83301 16.5 -13.5s9 -6.16699 12 -7.5s5.16699 -2.33301 6.5 -3c2 0.666992 6.33301 3 13 7
s16.334 11.833 29.001 23.5s26 25.167 40 40.5c36 42 53.667 78 53 108c0.666992 6.66699 0.166992 13.334 -1.5 20.001s-4.33398 13.667 -8.00098 21s-8.33398 15 -14.001 23s-12.834 16.333 -21.501 25s-18.667 17.334 -30 26.001c-26.667 22 -48.667 33 -66 33
c-2.66699 0 -7.16699 -1.5 -13.5 -4.5s-15.833 -9.33301 -28.5 -19s-26 -21.167 -40 -34.5zM1535 120.998c-68.667 -41.333 -156 -71.8359 -262 -91.5029s-232.333 -29.5 -379 -29.5h-34c-260 0 -458.5 43.667 -595.5 131s-205.5 219 -205.5 395c0 96 19.333 187 58 273
l16 36l37 -16l157 -68l36 -16l-14 -36c-10.667 -25.333 -18.5 -50.166 -23.5 -74.499s-7.5 -48.166 -7.5 -71.499c0 -62.667 18.5 -115 55.5 -157s96.833 -74.5 179.5 -97.5s188.667 -34.5 318 -34.5c176.667 0 308 5.66699 394 17c-38.667 42.667 -67.667 88.5 -87 137.5
s-29 101.167 -29 156.5c0 130.667 71.667 245.667 215 345c53.333 37.333 112 56 176 56c20 0 39.333 -1.5 58 -4.5s36.667 -7.66699 54 -14s34 -14.166 50 -23.499c153.333 -92.667 230 -216.334 230 -371.001c0 -106 -40 -201 -120 -285
c51.333 -9.33301 114.333 -14 189 -14h32c7.33301 0 14 -0.833008 20 -2.5s11 -4.5 15 -8.5s7.66699 -7.83301 11 -11.5s5.83301 -8.66699 7.5 -15s3 -11.833 4 -16.5s1.83301 -10.667 2.5 -18s1 -12.833 1 -16.5s-0.166992 -9 -0.5 -16s-0.5 -11.167 -0.5 -12.5v-19
c0 -41.333 -1 -66.666 -3 -75.999c-8 -34 -27 -51.333 -57 -52h-30c-192.667 0 -348.667 40.333 -468 121z" />
    <glyph glyph-name="uni06CA.fina" unicode="&#x6ca;" horiz-adv-x="893" 
d="M108 1090l136 136l14 14l14 -14l137 -137l1 -1l2 2l136 136l14 14l14 -14l137 -137l14 -14l-14 -14l-136 -136l-14 -14l-14 14l-137 137l-1 1l-2 -2l-136 -136l-14 -14l-14 14l-137 137l-14 14zM587 264c-18 180 -68 270.332 -150 270.999c-22 0 -41 -7 -57 -21
s-30 -38 -42 -72c-10.667 -31.333 -16 -61 -16 -89c0 -20 4 -36.167 12 -48.5s23 -22.166 45 -29.499s52 -11 90 -11h118zM834 262.999l67.0049 0.000976562c9.33301 0 17.666 -1.5 24.999 -4.5s13.166 -7.83301 17.499 -14.5s7.83301 -12.667 10.5 -18s4.5 -13.333 5.5 -24
s1.66699 -18.334 2 -23.001s0.333008 -12.5 0 -23.5s-0.5 -16.833 -0.5 -17.5v-10c0 -3.33301 0.166992 -7.83301 0.5 -13.5s-0.166992 -16 -1.5 -31s-3.83301 -28.167 -7.5 -39.5s-10 -21.5 -19 -30.5s-19.833 -13.5 -32.5 -13.5l-79 1
c-32.667 -144 -108.5 -256.833 -227.5 -338.5s-277.833 -132.5 -476.5 -152.5l-34 -3l-8 33l-43 172l-11 44l45 5c265.333 28.667 431.666 108.334 498.999 239.001h-87c-130 0 -230.167 28.667 -300.5 86s-105.5 141.333 -105.5 252c0 86.667 18.667 169 56 247
c22.667 47.333 49.667 87.166 81 119.499s67.166 57 107.499 74s84.166 25.5 131.499 25.5c111.333 0 198.833 -46.667 262.5 -140s104.5 -227 122.5 -401z" />
    <glyph glyph-name="uni06D5.fina" unicode="&#x6d5;" horiz-adv-x="1063" 
d="M71 446c0 208.667 170.997 369.004 512.997 481.004l-2 11l-7 38l38 8l163 34l41 8l6 -42l83 -591c6 -46 20.333 -79 43 -99s57 -30 103 -30h20c6 0 11.833 -0.833008 17.5 -2.5s10.334 -3.66699 14.001 -6s7.16699 -5.66602 10.5 -9.99902s6 -8.33301 8 -12
s3.66699 -8.33398 5 -14.001s2.33301 -10.334 3 -14.001s1.16699 -8.83398 1.5 -15.501s0.5 -11.334 0.5 -14.001v-13v-11v-24c0 -1.33301 0.166992 -7.5 0.5 -18.5s0.333008 -19 0 -24s-1 -12.833 -2 -23.5s-2.83301 -18.834 -5.5 -24.501s-6.16699 -11.834 -10.5 -18.501
s-10.166 -11.5 -17.499 -14.5s-15.666 -4.5 -24.999 -4.5h-24c-86 0 -158.5 16.667 -217.5 50s-101.5 83 -127.5 149c-74.667 -51.333 -157 -77 -247 -77c-164 0 -279 55 -345 165c-13.333 22.667 -23.333 47.334 -30 74.001s-10 55 -10 85zM622.997 679.004
c-52.667 -20 -98.333 -40.498 -137 -61.498s-69.167 -40.833 -91.5 -59.5s-38.833 -36.334 -49.5 -53.001s-16 -32.334 -16 -47.001c0 -28.667 8.5 -49.5 25.5 -62.5s48.5 -19.5 94.5 -19.5c44.667 0 89.334 13.667 134.001 41c25.333 15.333 42.666 34.833 51.999 58.5
s11 54.167 5 91.5z" />
    <glyph glyph-name="uniFB56" unicode="&#x67e;" horiz-adv-x="1837" arabic-form="isolated" 
d="M891 0c-270 0 -476.001 43.668 -618.001 131.001s-213 219 -213 395c0 96 19.333 187 58 273l16 36l37 -16l157 -68l36 -16l-14 -36c-20.667 -50.667 -31 -98.667 -31 -144c0 -63.333 18.5 -116 55.5 -158s96.833 -74.667 179.5 -98s188.667 -35 318 -35
c161.333 0 293.833 8 397.5 24s173.834 37.333 210.501 64c7.33301 5.33301 13.833 11.833 19.5 19.5s10.667 17 15 28s7.66602 23.667 9.99902 38s3.5 30.166 3.5 47.499c0 28 -3 61.833 -9 101.5s-14.667 84.834 -26 135.501l-9 38l38 9l163 41l36 10l12 -36
c34.667 -104.667 52 -199.334 52 -284.001c0 -84 -12.833 -157 -38.5 -219s-64.5 -111 -116.5 -147c-127.333 -89.333 -372.666 -134 -735.999 -134h-3zM610.131 -285.836l143.373 142.303l14.9795 16.0488l14.9795 -16.0488l142.303 -141.233l5.34961 -5.34961
l4.2793 4.28027l143.373 142.303l14.9795 16.0488l14.9795 -16.0488l142.303 -141.233l14.9795 -14.9785l-14.9795 -16.0498l-143.373 -142.303l-14.9795 -14.9795l-14.9785 14.9795l-142.304 142.303l-5.34961 5.35059l-4.2793 -5.35059l-143.373 -142.303
l-14.9795 -14.9795l-14.9785 14.9795l-142.304 142.303l-14.9785 14.9795zM770.623 -554.393l143.373 142.303l14.9795 16.0498l14.9785 -16.0498l142.303 -141.232l14.9795 -16.0498l-14.9795 -14.9785l-143.372 -142.304l-14.9795 -14.9785l-14.9795 14.9785
l-142.303 142.304l-14.9795 14.9785z" />
    <glyph glyph-name="uniFB57" unicode="&#x67e;" horiz-adv-x="1931" arabic-form="final" 
d="M612.132 -285.837l143.373 142.303l14.9795 16.0488l14.9795 -16.0488l142.303 -141.233l5.34961 -5.34961l4.2793 4.28027l143.373 142.303l14.9795 16.0488l14.9795 -16.0488l142.303 -141.233l14.9795 -14.9785l-14.9795 -16.0498l-143.373 -142.303
l-14.9795 -14.9795l-14.9785 14.9795l-142.304 142.303l-5.34961 5.35059l-4.2793 -5.35059l-143.373 -142.303l-14.9795 -14.9795l-14.9785 14.9795l-142.304 142.303l-14.9785 14.9795zM772.624 -554.394l143.373 142.303l14.9795 16.0498l14.9785 -16.0498
l142.303 -141.232l14.9795 -16.0498l-14.9795 -14.9785l-143.372 -142.304l-14.9795 -14.9785l-14.9795 14.9785l-142.303 142.304l-14.9795 14.9785zM890 0c-270 0 -476.001 43.6641 -618.001 130.997s-213 219 -213 395c0 96 19.333 187 58 273l16 36l37 -16l157 -68
l36 -16l-14 -36c-10.667 -25.333 -18.5 -50.166 -23.5 -74.499s-7.5 -48.166 -7.5 -71.499c0 -26 3.5 -50.333 10.5 -73s17.5 -44 31.5 -64s31.833 -37.833 53.5 -53.5s47.834 -29.667 78.501 -42s65.167 -22.666 103.5 -30.999s81.833 -14.666 130.5 -18.999
s101.667 -6.5 159 -6.5c167.333 0 303 10.5 407 31.5s173 49.5 207 85.5c6.66699 7.33301 12.167 18.833 16.5 34.5s6.5 35.834 6.5 60.501v21c0 6.66699 -0.166992 12.667 -0.5 18s-0.5 10.333 -0.5 15l-6 82l-2 38l37 4l165 20l42 4l3 -41l16 -215
c3.33301 -48.667 17 -88.334 41 -119.001c10 -12.667 23.833 -22.334 41.5 -29.001s40.167 -10 67.5 -10h13c8 0 15.333 -1.33301 22 -4s12 -5.66699 16 -9s7.5 -8.5 10.5 -15.5s5.33301 -12.667 7 -17s2.83398 -11 3.50098 -20s1 -15.167 1 -18.5v-18.5v-14.5v-19
c0 -1.33301 0.166992 -7.5 0.5 -18.5s0.333008 -19 0 -24s-1 -12.667 -2 -23s-2.83301 -18.5 -5.5 -24.5s-6.16699 -12.333 -10.5 -19s-10 -11.5 -17 -14.5s-15.5 -4.5 -25.5 -4.5h-13c-67.333 0 -127.333 13 -180 39s-96 64.333 -130 115
c-130.667 -102.667 -371.334 -154 -722.001 -154h-4z" />
    <glyph glyph-name="uniFB58" unicode="&#x67e;" horiz-adv-x="673" arabic-form="initial" 
d="M69 0h-75.999c-32.667 -0 -57.167 12.333 -73.5 37s-24.5 55 -24.5 91v19c0 32.667 8.5 60.334 25.5 83.001s41.167 34 72.5 34h76c99.333 0 165 9 197 27c43.333 25.333 65 83.333 65 174c0 76 -11.667 161 -35 255l-10 39l39 9l163 41l36 10l12 -36
c33.333 -108 50 -213 50 -315c-0.666992 -176.667 -52.667 -304.334 -156 -383.001c-20 -14.667 -42.5 -27.5 -67.5 -38.5s-52.667 -19.833 -83 -26.5s-62.833 -11.667 -97.5 -15s-72.334 -5 -113.001 -5zM-40.8672 -285.837l143.373 142.303l14.9795 16.0488
l14.9795 -16.0488l142.303 -141.233l5.34961 -5.34961l4.2793 4.28027l143.373 142.303l14.9795 16.0488l14.9795 -16.0488l142.303 -141.233l14.9795 -14.9785l-14.9795 -16.0498l-143.373 -142.303l-14.9795 -14.9795l-14.9785 14.9795l-142.304 142.303l-5.34961 5.35059
l-4.2793 -5.35059l-143.373 -142.303l-14.9795 -14.9795l-14.9785 14.9795l-142.304 142.303l-14.9785 14.9795zM119.625 -554.394l143.373 142.303l14.9795 16.0498l14.9785 -16.0498l142.303 -141.232l14.9795 -16.0498l-14.9795 -14.9785l-143.372 -142.304
l-14.9795 -14.9785l-14.9795 14.9785l-142.303 142.304l-14.9795 14.9785z" />
    <glyph glyph-name="uniFB59" unicode="&#x67e;" horiz-adv-x="717" arabic-form="medial" 
d="M-40.8682 -285.837l143.373 142.303l14.9795 16.0488l14.9795 -16.0488l142.303 -141.233l5.34961 -5.34961l4.2793 4.28027l143.373 142.303l14.9795 16.0488l14.9795 -16.0488l142.303 -141.233l14.9795 -14.9785l-14.9795 -16.0498l-143.373 -142.303
l-14.9795 -14.9795l-14.9785 14.9795l-142.304 142.303l-5.34961 5.35059l-4.2793 -5.35059l-143.373 -142.303l-14.9795 -14.9795l-14.9785 14.9795l-142.304 142.303l-14.9785 14.9795zM119.624 -554.394l143.373 142.303l14.9795 16.0498l14.9785 -16.0498
l142.303 -141.232l14.9795 -16.0498l-14.9795 -14.9785l-143.372 -142.304l-14.9795 -14.9785l-14.9795 14.9785l-142.303 142.304l-14.9795 14.9785zM785 128v-15.998v-20.5c0 -5 -0.333008 -11.833 -1 -20.5s-1.66699 -15.834 -3 -21.501s-3.5 -12 -6.5 -19
s-6.66699 -12.5 -11 -16.5s-9.83301 -7.33301 -16.5 -10s-14 -4 -22 -4h-10c-123.333 0 -215.666 38 -276.999 114c-76.667 -76 -190.667 -114 -342 -114h-104c-32.667 0 -57 12.5 -73 37.5s-24 55.167 -24 90.5v19c0 21.333 3.33301 40.5 10 57.5s17.5 31.167 32.5 42.5
s33.167 17 54.5 17h99c132 0 204 33 216 99c4 21.333 6 46.666 6 75.999c0 32.667 -1 63.334 -3 92.001l-5 82l-3 38l38 4l165 20l41 4l3 -41l16 -232c4 -50.667 17.667 -87 41 -109s60.333 -33 111 -33h8c9.33301 0 17.666 -1.5 24.999 -4.5s13 -7.83301 17 -14.5
s7.5 -12.834 10.5 -18.501s5 -13.667 6 -24s1.5 -17.833 1.5 -22.5v-23.5v-18.5v-10z" />
    <glyph glyph-name="uniFB7A" unicode="&#x686;" horiz-adv-x="1366" arabic-form="isolated" 
d="M85 -105c0 188 53.6719 345.331 161.005 471.998s265.666 220.334 474.999 281.001c-124.667 50.667 -208.334 76 -251.001 76c-62.667 0 -114.334 -26 -155.001 -78l-28 -36l-20 -26l-29 14l-154 76l-39 19l23 38l16 27c45.333 74.667 100.666 131.167 165.999 169.5
s139 57.833 221 58.5c18.667 0 38 -1.16699 58 -3.5s40.333 -6 61 -11s42 -11.167 64 -18.5s44.5 -15.666 67.5 -24.999s46.5 -20 70.5 -32c203.333 -98.667 359.333 -150.334 468 -155.001l41 -2l-3 -41l-13 -174l-3 -35l-35 -2
c-57.333 -3.33301 -109.833 -8.16602 -157.5 -14.499s-90.167 -13.5 -127.5 -21.5c-213.333 -50 -371.166 -120 -473.499 -210s-153.5 -200 -153.5 -330c0 -110 39.333 -192.333 118 -247s203 -82 373 -82c138.667 0 272 30.667 400 92l46 22l11 -50l36 -179l6 -31l-28 -13
c-138.667 -67.333 -300.334 -101 -485.001 -101c-268.667 0 -464.334 66.333 -587.001 199c-93.333 100 -140 224.667 -140 374zM505.137 108.161l143.373 142.303l14.9795 16.0488l14.9795 -16.0488l142.303 -141.233l5.34961 -5.34961l4.2793 4.28027l143.373 142.303
l14.9795 16.0488l14.9795 -16.0488l142.303 -141.233l14.9795 -14.9785l-14.9795 -16.0498l-143.373 -142.303l-14.9795 -14.9795l-14.9785 14.9795l-142.304 142.303l-5.34961 5.35059l-4.2793 -5.35059l-143.373 -142.303l-14.9795 -14.9795l-14.9785 14.9795
l-142.304 142.303l-14.9785 14.9795zM665.629 -160.396l143.373 142.303l14.9795 16.0498l14.9785 -16.0498l142.303 -141.232l14.9795 -16.0498l-14.9795 -14.9785l-143.372 -142.304l-14.9795 -14.9785l-14.9795 14.9785l-142.303 142.304l-14.9795 14.9785z" />
    <glyph glyph-name="uniFB7B" unicode="&#x686;" horiz-adv-x="1386" arabic-form="final" 
d="M404.067 26.3955l127.244 126.295l13.2939 14.2441l13.2939 -14.2441l126.295 -125.345l4.74805 -4.74805l3.79883 3.79785l127.244 126.295l13.2939 14.2441l13.2939 -14.2441l126.295 -125.345l13.2939 -13.2949l-13.2939 -14.2432l-127.244 -126.295
l-13.2939 -13.2939l-13.2949 13.2939l-126.294 126.295l-4.74805 4.74707l-3.79883 -4.74707l-127.244 -126.295l-13.2939 -13.2939l-13.2949 13.2939l-126.294 126.295l-13.2949 13.2939zM546.505 -211.95l127.244 126.295l13.2939 14.2432l13.2949 -14.2432
l126.295 -125.346l13.2939 -14.2432l-13.2939 -13.2949l-127.245 -126.294l-13.2939 -13.2949l-13.2939 13.2949l-126.295 126.294l-13.2939 13.2949zM1298 698l-12.998 -174.002l-3 -34l-34 -3c-27.333 -2 -54.166 -4.33301 -80.499 -7s-51.833 -5.66699 -76.5 -9
c4 -72 25 -124.5 63 -157.5s96.667 -49.5 176 -49.5h64c7.33301 0 14 -0.833008 20 -2.5s11 -4.5 15 -8.5s7.5 -7.66699 10.5 -11s5.33301 -8.16602 7 -14.499s3.16699 -11.5 4.5 -15.5s2.16602 -9.66699 2.49902 -17s0.5 -12.5 0.5 -15.5v-15.5v-12v-24
c0 -1.33301 0.166992 -7.5 0.5 -18.5s0.333008 -19 0 -24s-1 -12.667 -2 -23s-2.83301 -18.5 -5.5 -24.5s-6.16699 -12.333 -10.5 -19s-10.166 -11.5 -17.499 -14.5s-15.666 -4.5 -24.999 -4.5h-63c-146.667 0 -260.5 36.167 -341.5 108.5s-125.167 177.5 -132.5 315.5
c-178 -50 -309.5 -117.667 -394.5 -203s-127.5 -188.666 -127.5 -309.999c0 -110 39.333 -192.333 118 -247s203 -82 373 -82c138.667 0 272 30.667 400 92l46 22l11 -50l36 -179l6 -31l-28 -13c-138.667 -67.333 -300.334 -101 -485.001 -101
c-268.667 0 -464.334 66.333 -587.001 199c-93.333 100 -140 224.667 -140 374c0 188.667 53.667 346.167 161 472.5s265.666 219.833 474.999 280.5c-124.667 50.667 -208.334 76 -251.001 76c-21.333 0 -41 -2.83301 -59 -8.5s-35 -14.167 -51 -25.5s-31 -26 -45 -44
l-28 -36l-20 -26l-29 14l-154 76l-39 19l23 38l16 27c92 152 221.333 228 388 228c23.333 0 47.5 -2 72.5 -6s50.833 -9.66699 77.5 -17s54.167 -16.666 82.5 -27.999s57.5 -24.333 87.5 -39c203.333 -98.667 359.333 -150.334 468 -155.001l41 -2z" />
    <glyph glyph-name="uniFB7C" unicode="&#x686;" horiz-adv-x="1337" arabic-form="initial" 
d="M-7 0c-32.667 0 -57.166 12.333 -73.499 37s-24.5 55 -24.5 91v19c0 32.667 8.5 60.334 25.5 83.001s41.167 34 72.5 34h60c212 0 475.667 81 791 243l-132 53c-126 50.667 -210 76 -252 76c-62.667 0 -114.334 -26 -155.001 -78l-28 -37l-20 -25l-29 14l-154 76l-39 19
l23 38l16 27c45.333 74.667 100.666 131.167 165.999 169.5s139 57.833 221 58.5c90.667 0 197.667 -30 321 -90c203.333 -98.667 359.333 -150.334 468 -155.001l38 -2v-39l-2 -173v-37l-36 -3c-72 -6 -208.667 -62 -410 -168c-291.333 -154 -557.666 -231 -798.999 -231
h-48zM373.133 -285.837l143.373 142.303l14.9795 16.0488l14.9795 -16.0488l142.303 -141.233l5.34961 -5.34961l4.2793 4.28027l143.373 142.303l14.9795 16.0488l14.9795 -16.0488l142.303 -141.233l14.9795 -14.9785l-14.9795 -16.0498l-143.373 -142.303
l-14.9795 -14.9795l-14.9785 14.9795l-142.304 142.303l-5.34961 5.35059l-4.2793 -5.35059l-143.373 -142.303l-14.9795 -14.9795l-14.9785 14.9795l-142.304 142.303l-14.9785 14.9795zM533.625 -554.394l143.373 142.303l14.9795 16.0498l14.9785 -16.0498
l142.303 -141.232l14.9795 -16.0498l-14.9795 -14.9785l-143.372 -142.304l-14.9795 -14.9785l-14.9795 14.9785l-142.303 142.304l-14.9795 14.9785z" />
    <glyph glyph-name="uniFB7D" unicode="&#x686;" horiz-adv-x="1351" arabic-form="medial" 
d="M373.132 -285.837l143.373 142.303l14.9795 16.0488l14.9795 -16.0488l142.303 -141.233l5.34961 -5.34961l4.2793 4.28027l143.373 142.303l14.9795 16.0488l14.9795 -16.0488l142.303 -141.233l14.9795 -14.9785l-14.9795 -16.0498l-143.373 -142.303
l-14.9795 -14.9795l-14.9785 14.9795l-142.304 142.303l-5.34961 5.35059l-4.2793 -5.35059l-143.373 -142.303l-14.9795 -14.9795l-14.9785 14.9795l-142.304 142.303l-14.9785 14.9795zM533.624 -554.394l143.373 142.303l14.9795 16.0498l14.9785 -16.0498
l142.303 -141.232l14.9795 -16.0498l-14.9795 -14.9785l-143.372 -142.304l-14.9795 -14.9785l-14.9795 14.9785l-142.303 142.304l-14.9795 14.9785zM844 507l-58.998 23.499l-73 29.5c-126 50.667 -210 76 -252 76c-62.667 0 -114.334 -26 -155.001 -78l-28 -37l-20 -25
l-29 14l-154 76l-39 19l23 38l16 27c45.333 74.667 100.666 131.167 165.999 169.5s139 57.833 221 58.5c90.667 0 197.667 -30 321 -90c203.333 -98.667 359.333 -150.334 468 -155.001l38 -2v-39l-2 -173v-37l-37 -3c-44 -3.33301 -99.333 -20.666 -166 -51.999
c7.33301 -24.667 29.666 -44.667 66.999 -60s93 -23 167 -23h44c6.66699 0 13 -0.833008 19 -2.5s11 -4.5 15 -8.5s7.5 -7.66699 10.5 -11s5.5 -8.16602 7.5 -14.499s3.5 -11.5 4.5 -15.5s1.66699 -9.83301 2 -17.5s0.666016 -12.834 0.999023 -15.501s0.5 -7.66699 0.5 -15
v-12v-24v-18v-24c0 -4.66699 -0.5 -12.5 -1.5 -23.5s-2.83301 -19.167 -5.5 -24.5s-6.16699 -11.5 -10.5 -18.5s-10.166 -12 -17.499 -15s-16 -4.5 -26 -4.5h-59c-76.667 0 -144 8.83301 -202 26.5s-106.167 45.167 -144.5 82.5s-64.833 84 -79.5 140l-12 -6l-11.5 -6
l-11.5 -6c-291.333 -154 -557.666 -231 -798.999 -231h-48c-32.667 0 -57.167 12.333 -73.5 37s-24.5 55 -24.5 91v19c0 32.667 8.5 60.334 25.5 83.001s41.167 34 72.5 34h60c212 0 475.667 81 791 243z" />
    <glyph glyph-name="uniFB8A" unicode="&#x698;" horiz-adv-x="890" arabic-form="isolated" 
d="M682 588c58 -132.667 87.001 -260.668 87.001 -384.001c0 -204 -62.333 -364.333 -187 -481s-307.334 -187.667 -548.001 -213l-35 -4l-8 34l-43 170l-11 45l46 5c182 18 316 62.833 402 134.5s128.667 170.834 128 297.501c0 96 -24.667 197 -74 303l-19 40l42 15
l170 59l35 13zM185.133 931.854l142.304 142.303l14.9785 14.9795l14.9795 -14.9795l143.373 -143.372l4.2793 -4.28027l5.34961 5.34961l142.304 142.303l14.9785 14.9795l14.9795 -14.9795l143.373 -143.372l14.9795 -14.9795l-14.9795 -14.9795l-142.303 -142.303
l-14.9795 -14.9795l-14.9795 14.9795l-143.373 143.373l-4.2793 4.2793l-5.34961 -5.34961l-142.303 -142.303l-14.9795 -14.9795l-14.9795 14.9795l-143.373 143.373l-14.9785 14.9785zM345.625 1200.41l142.303 142.303l14.9795 14.9795l14.9795 -14.9795
l143.372 -143.372l14.9795 -14.9795l-14.9795 -14.9795l-142.303 -142.303l-14.9785 -14.9795l-14.9795 14.9795l-143.373 143.373l-14.9795 14.9785z" />
    <glyph glyph-name="uniFB8B" unicode="&#x698;" horiz-adv-x="910" arabic-form="final" 
d="M185.132 931.854l142.304 142.303l14.9785 14.9795l14.9795 -14.9795l143.373 -143.372l4.2793 -4.28027l5.34961 5.34961l142.304 142.303l14.9785 14.9795l14.9795 -14.9795l143.373 -143.372l14.9795 -14.9795l-14.9795 -14.9795l-142.303 -142.303l-14.9795 -14.9795
l-14.9795 14.9795l-143.373 143.373l-4.2793 4.2793l-5.34961 -5.34961l-142.303 -142.303l-14.9795 -14.9795l-14.9795 14.9795l-143.373 143.373l-14.9785 14.9785zM345.624 1200.41l142.303 142.303l14.9795 14.9795l14.9795 -14.9795l143.372 -143.372l14.9795 -14.9795
l-14.9795 -14.9795l-142.303 -142.303l-14.9785 -14.9795l-14.9795 14.9795l-143.373 143.373l-14.9795 14.9785zM683 583l55.999 -192.998c13.333 -44.667 32 -76.834 56 -96.501s56 -29.5 96 -29.5h28c6.66699 0 13 -0.833008 19 -2.5s11 -4.5 15 -8.5
s7.5 -7.66699 10.5 -11s5.5 -8.16602 7.5 -14.499s3.5 -11.333 4.5 -15s1.66699 -9.5 2 -17.5s0.666016 -13.333 0.999023 -16s0.5 -7.66699 0.5 -15v-12v-24c0 -0.666992 0.166992 -6.66699 0.5 -18s0.333008 -19.5 0 -24.5s-1 -12.833 -2 -23.5
s-2.83301 -18.834 -5.5 -24.501s-6.16699 -11.834 -10.5 -18.501s-10.166 -11.5 -17.499 -14.5s-15.666 -4.5 -24.999 -4.5h-17c-64 0 -115 8 -153 24c-31.333 -149.333 -107.5 -266.833 -228.5 -352.5s-283.167 -139.5 -486.5 -161.5l-35 -4l-8 34l-43 170l-11 45l46 5
c182 18 316 62.833 402 134.5s128.667 171.167 128 298.5c0 94 -25 194.667 -75 302l-19 40l42 15l170 59l40 14z" />
    <glyph glyph-name="uniFB8E" unicode="&#x6a9;" horiz-adv-x="1878" arabic-form="isolated" 
d="M1559 727c93.333 -102 139.332 -214.333 137.999 -337c-2.66699 -132 -60.167 -230 -172.5 -294s-272.5 -96 -480.5 -96h-181c-261.333 0 -460.666 43.667 -597.999 131s-206 219 -206 395c0 96 19.333 187 58 273l16 36l37 -16l157 -68l36 -15l-14 -36
c-20.667 -52 -31 -101.667 -31 -149c0.666992 -94 44.5 -165.333 131.5 -214s224.833 -73 413.5 -73h180c72 0 134 3.83301 186 11.5s92.833 18.5 122.5 32.5s51.334 29.833 65.001 47.5s20.5 37.5 20.5 59.5c0 54 -30.333 109.333 -91 166
c-101.333 94.667 -191.333 172.667 -270 234c-42 32.667 -74.167 67.334 -96.5 104.001s-33.5 75 -33.5 115c0 51.333 14.5 95.833 43.5 133.5s69.833 66.5 122.5 86.5l694 263l54 21v-58v-181v-27l-26 -10l-609 -227c151.333 -128.667 262.666 -231.334 333.999 -308.001z
" />
    <glyph glyph-name="uniFB8F" unicode="&#x6a9;" horiz-adv-x="1954" arabic-form="final" 
d="M861 0c-260.667 0 -459.501 43.6689 -596.501 131.002s-205.5 219 -205.5 395c0 96 19.333 187 58 273l16 36l37 -16l157 -68l36 -15l-14 -36c-20.667 -52 -31 -101.667 -31 -149c0.666992 -94 44.334 -165.333 131.001 -214s224 -73 412 -73h182
c41.333 0 79.333 1.33301 114 4s65.334 6.33398 92.001 11.001s50.667 10.5 72 17.5s39.166 14.833 53.499 23.5s26.166 18.167 35.499 28.5s16.166 21 20.499 32s6.5 22.5 6.5 34.5c0 54 -30.333 109.333 -91 166c-105.333 98 -195.666 176 -270.999 234
c-86 67.333 -129 140.333 -129 219c0 52 14.333 96.667 43 134s69.667 66 123 86l693 263l54 21v-58v-181v-27l-26 -10l-608 -227c148.667 -126.667 259.667 -229.334 333 -308.001c28.667 -31.333 54.5 -66.833 77.5 -106.5s43.167 -83.834 60.5 -132.501
c27.333 -77.333 61.5 -134 102.5 -170s90.167 -54 147.5 -54h16c8 0 15.333 -1.33301 22 -4s12 -5.66699 16 -9s7.5 -8.5 10.5 -15.5s5.33301 -12.667 7 -17s2.83398 -11 3.50098 -20s1.16699 -15.167 1.5 -18.5s0.333008 -9.5 0 -18.5s-0.5 -13.833 -0.5 -14.5v-19
c0 -1.33301 0.166992 -7.5 0.5 -18.5s0.333008 -19 0 -24s-1 -12.667 -2 -23s-2.83301 -18.5 -5.5 -24.5s-6.16699 -12.333 -10.5 -19s-10 -11.5 -17 -14.5s-15.5 -4.5 -25.5 -4.5h-16c-69.333 0 -133.5 13 -192.5 39s-111.167 64 -156.5 114
c-50 -52.667 -121 -91.334 -213 -116.001s-205.667 -37 -341 -37h-182z" />
    <glyph glyph-name="uniFB90" unicode="&#x6a9;" horiz-adv-x="950" arabic-form="initial" 
d="M630 727c46.667 -50 81.666 -103.334 104.999 -160.001s34.333 -115.667 33 -177c-2 -131.333 -57.5 -229.166 -166.5 -293.499s-264.167 -96.5 -465.5 -96.5h-143c-32.667 -0 -57.167 12.333 -73.5 37s-24.5 55 -24.5 91v19c0 32.667 8.5 60.334 25.5 83.001
s41.167 34 72.5 34h142c248 0.666992 372.667 51 374 151c0 54 -30.333 109.333 -91 166l-144 129.5c-45.333 39 -87.666 73.833 -126.999 104.5c-86 67.333 -129 140.333 -129 219c0 52 14.5 96.667 43.5 134s69.833 66 122.5 86l693 263l54 21v-58v-181v-27l-26 -10
l-608 -227c148.667 -126.667 259.667 -229.334 333 -308.001z" />
    <glyph glyph-name="uniFB91" unicode="&#x6a9;" horiz-adv-x="1027" arabic-form="medial" 
d="M297 1035c148.667 -126.667 259.667 -229.336 333 -308.003c19.333 -21.333 37.5 -44.333 54.5 -69s32.333 -51.167 46 -79.5s26.167 -58.5 37.5 -90.5c27.333 -78 61.5 -134.833 102.5 -170.5s90.167 -53.5 147.5 -53.5h16c8.66699 0 16.167 -1.33301 22.5 -4
s11.666 -5.66699 15.999 -9s8 -8.5 11 -15.5s5.16699 -12.667 6.5 -17s2.33301 -11 3 -20s1.16699 -15.167 1.5 -18.5s0.333008 -9.5 0 -18.5s-0.5 -13.833 -0.5 -14.5v-19c0 -2 0.166992 -8.16699 0.5 -18.5s0.333008 -18.166 0 -23.499s-1 -13.166 -2 -23.499
s-2.83301 -18.5 -5.5 -24.5s-6 -12.333 -10 -19s-9.66699 -11.5 -17 -14.5s-16 -4.5 -26 -4.5h-16c-140.667 0 -256.667 51 -348 153c-96 -102 -274 -153 -534 -153h-143c-32.667 0 -57.167 12.333 -73.5 37s-24.5 55 -24.5 91v19c0 32.667 8.5 60.334 25.5 83.001
s41.167 34 72.5 34h142c248 0.666992 372.667 51 374 151c0 54 -30.333 109.333 -91 166l-144 129.5c-45.333 39 -87.666 73.833 -126.999 104.5c-86 67.333 -129 140.333 -129 219c0 52 14.5 96.667 43.5 134s69.833 66 122.5 86l693 263l54 21v-58v-181v-27l-26 -10z" />
    <glyph glyph-name="uniFB92" unicode="&#x6af;" horiz-adv-x="1878" arabic-form="isolated" 
d="M1559 727c93.333 -102 139.332 -214.333 137.999 -337c-2.66699 -132 -60.167 -230 -172.5 -294s-272.5 -96 -480.5 -96h-181c-261.333 0 -460.666 43.667 -597.999 131s-206 219 -206 395c0 96 19.333 187 58 273l16 36l37 -16l157 -68l36 -15l-14 -36
c-20.667 -52 -31 -101.667 -31 -149c0.666992 -94 44.5 -165.333 131.5 -214s224.833 -73 413.5 -73h180c72 0 134 3.83301 186 11.5s92.833 18.5 122.5 32.5s51.334 29.833 65.001 47.5s20.5 37.5 20.5 59.5c0 54 -30.333 109.333 -91 166
c-101.333 94.667 -191.333 172.667 -270 234c-42 32.667 -74.167 67.334 -96.5 104.001s-33.5 75 -33.5 115c0 51.333 14.5 95.833 43.5 133.5s69.833 66.5 122.5 86.5l694 263l54 21v-58v-181v-27l-26 -10l-609 -227c151.333 -128.667 262.666 -231.334 333.999 -308.001z
M1838.16 1623.62l-799.25 -308.145l-28.8887 -11.7695v31.0283v128.394v14.9795l13.9092 5.34961l799.25 308.145l28.8887 11.7695v-32.0986v-127.323v-14.9795z" />
    <glyph glyph-name="uniFB93" unicode="&#x6af;" horiz-adv-x="1954" arabic-form="final" 
d="M1838.16 1623.62l-799.25 -308.145l-28.8887 -11.7695v31.0283v128.394v14.9795l13.9092 5.34961l799.25 308.145l28.8887 11.7695v-32.0986v-127.323v-14.9795zM861 0c-260.667 0 -459.501 43.6689 -596.501 131.002s-205.5 219 -205.5 395c0 96 19.333 187 58 273
l16 36l37 -16l157 -68l36 -15l-14 -36c-20.667 -52 -31 -101.667 -31 -149c0.666992 -94 44.334 -165.333 131.001 -214s224 -73 412 -73h182c41.333 0 79.333 1.33301 114 4s65.334 6.33398 92.001 11.001s50.667 10.5 72 17.5s39.166 14.833 53.499 23.5
s26.166 18.167 35.499 28.5s16.166 21 20.499 32s6.5 22.5 6.5 34.5c0 54 -30.333 109.333 -91 166c-105.333 98 -195.666 176 -270.999 234c-86 67.333 -129 140.333 -129 219c0 52 14.333 96.667 43 134s69.667 66 123 86l693 263l54 21v-58v-181v-27l-26 -10l-608 -227
c148.667 -126.667 259.667 -229.334 333 -308.001c28.667 -31.333 54.5 -66.833 77.5 -106.5s43.167 -83.834 60.5 -132.501c27.333 -77.333 61.5 -134 102.5 -170s90.167 -54 147.5 -54h16c8 0 15.333 -1.33301 22 -4s12 -5.66699 16 -9s7.5 -8.5 10.5 -15.5
s5.33301 -12.667 7 -17s2.83398 -11 3.50098 -20s1.16699 -15.167 1.5 -18.5s0.333008 -9.5 0 -18.5s-0.5 -13.833 -0.5 -14.5v-19c0 -1.33301 0.166992 -7.5 0.5 -18.5s0.333008 -19 0 -24s-1 -12.667 -2 -23s-2.83301 -18.5 -5.5 -24.5s-6.16699 -12.333 -10.5 -19
s-10 -11.5 -17 -14.5s-15.5 -4.5 -25.5 -4.5h-16c-69.333 0 -133.5 13 -192.5 39s-111.167 64 -156.5 114c-50 -52.667 -121 -91.334 -213 -116.001s-205.667 -37 -341 -37h-182z" />
    <glyph glyph-name="uniFB94" unicode="&#x6af;" horiz-adv-x="950" arabic-form="initial" 
d="M630 727c46.667 -50 81.666 -103.334 104.999 -160.001s34.333 -115.667 33 -177c-2 -131.333 -57.5 -229.166 -166.5 -293.499s-264.167 -96.5 -465.5 -96.5h-143c-32.667 -0 -57.167 12.333 -73.5 37s-24.5 55 -24.5 91v19c0 32.667 8.5 60.334 25.5 83.001
s41.167 34 72.5 34h142c248 0.666992 372.667 51 374 151c0 54 -30.333 109.333 -91 166l-144 129.5c-45.333 39 -87.666 73.833 -126.999 104.5c-86 67.333 -129 140.333 -129 219c0 52 14.5 96.667 43.5 134s69.833 66 122.5 86l693 263l54 21v-58v-181v-27l-26 -10
l-608 -227c148.667 -126.667 259.667 -229.334 333 -308.001zM908.158 1626.62l-799.25 -308.145l-28.8887 -11.7695v31.0283v128.394v14.9795l13.9092 5.34961l799.25 308.145l28.8887 11.7695v-32.0986v-127.323v-14.9795z" />
    <glyph glyph-name="uniFB95" unicode="&#x6af;" horiz-adv-x="1027" arabic-form="medial" 
d="M908.159 1626.62l-799.25 -308.145l-28.8887 -11.7695v31.0283v128.394v14.9795l13.9092 5.34961l799.25 308.145l28.8887 11.7695v-32.0986v-127.323v-14.9795zM297 1035c148.667 -126.667 259.667 -229.336 333 -308.003c19.333 -21.333 37.5 -44.333 54.5 -69
s32.333 -51.167 46 -79.5s26.167 -58.5 37.5 -90.5c27.333 -78 61.5 -134.833 102.5 -170.5s90.167 -53.5 147.5 -53.5h16c8.66699 0 16.167 -1.33301 22.5 -4s11.666 -5.66699 15.999 -9s8 -8.5 11 -15.5s5.16699 -12.667 6.5 -17s2.33301 -11 3 -20
s1.16699 -15.167 1.5 -18.5s0.333008 -9.5 0 -18.5s-0.5 -13.833 -0.5 -14.5v-19c0 -2 0.166992 -8.16699 0.5 -18.5s0.333008 -18.166 0 -23.499s-1 -13.166 -2 -23.499s-2.83301 -18.5 -5.5 -24.5s-6 -12.333 -10 -19s-9.66699 -11.5 -17 -14.5s-16 -4.5 -26 -4.5h-16
c-140.667 0 -256.667 51 -348 153c-96 -102 -274 -153 -534 -153h-143c-32.667 0 -57.167 12.333 -73.5 37s-24.5 55 -24.5 91v19c0 32.667 8.5 60.334 25.5 83.001s41.167 34 72.5 34h142c248 0.666992 372.667 51 374 151c0 54 -30.333 109.333 -91 166l-144 129.5
c-45.333 39 -87.666 73.833 -126.999 104.5c-86 67.333 -129 140.333 -129 219c0 52 14.5 96.667 43.5 134s69.833 66 122.5 86l693 263l54 21v-58v-181v-27l-26 -10z" />
    <glyph glyph-name="uniFB9E" unicode="&#x6ba;" horiz-adv-x="1475" arabic-form="isolated" 
d="M716 -200c150 0.666992 259.998 33.832 329.998 99.499s105 166.834 105 303.501c0 122 -28.667 242 -86 360l-20 40l43 15l173 60l36 13l14 -36c67.333 -166.667 101 -317.667 101 -453c-0.666992 -130 -24.667 -243 -72 -339
c-106.667 -213.333 -317.667 -319.666 -633 -318.999c-210 0 -369.667 50.167 -479 150.5s-164.333 247.833 -165 442.5c0 147.333 34.333 304.666 103 471.999l16 37l37 -16l158 -65l37 -15l-15 -37c-54 -136.667 -80.667 -262.667 -80 -378
c0.666992 -114.667 32.834 -199.167 96.501 -253.5s163.834 -81.5 300.501 -81.5z" />
    <glyph glyph-name="uniFB9F" unicode="&#x6ba;" horiz-adv-x="1549" arabic-form="final" 
d="M1406 25c-4.66699 -37.333 -12.5 -74.167 -23.5 -110.5s-25.167 -72.5 -42.5 -108.5c-106.667 -217.333 -317.667 -326 -633 -326c-210 0 -370 50.833 -480 152.5s-165 251.167 -165 448.5c0 142 34.667 296.667 104 464l15 37l37 -15l159 -65l36 -15l-14 -37
c-54 -136.667 -81 -259 -81 -367c0 -118 31.833 -205.167 95.5 -261.5s163.834 -84.5 300.501 -84.5c149.333 0 259.333 33 330 99s106.334 168 107.001 306c0 116.667 -29 234 -87 352l-19 41l42 15l173 60l39 13l12 -39l73 -228c10.667 -31.333 28 -54.5 52 -69.5
s58.333 -22.5 103 -22.5h19c7.33301 0 14 -0.833008 20 -2.5s11 -4.5 15 -8.5s7.5 -7.66699 10.5 -11s5.33301 -8.16602 7 -14.499s3.16699 -11.5 4.5 -15.5s2.16602 -9.83301 2.49902 -17.5s0.666016 -12.834 0.999023 -15.501s0.333008 -7.66699 0 -15
s-0.5 -11.333 -0.5 -12v-24v-13c2 -76.667 -18 -115 -60 -115h-15c-53.333 -0 -99 8.33301 -137 25z" />
    <glyph glyph-name="uniFBAC" unicode="&#x6be;" horiz-adv-x="1395" arabic-form="initial" 
d="M843 674c30.667 -47.333 45.9971 -97 45.9971 -149c0 -100.667 -33 -184.334 -99 -251.001c48.667 -6 89.334 -9 122.001 -9s57.334 3 74.001 9c32 12.667 54.667 28.334 68 47.001c12.667 19.333 19.334 41 20.001 65c0.666992 91.333 -76.333 187.333 -231 288z
M549.997 840c-10 4.66699 -21.332 10.332 -33.999 16.999l-39 18l117 214l34 -17c472 -229.333 707.667 -454 707 -674c0 -50.667 -9.33301 -101.667 -28 -153c-17.333 -45.333 -42.333 -86 -75 -122c-73.333 -82 -182.333 -123 -327 -123c-109.333 0 -239 23.333 -389 70
c-161.333 -46.667 -301.666 -70 -420.999 -70h-102c-32.667 0 -57 12.333 -73 37c-16.667 24.667 -25 55 -25 91v19c0 33.333 8.33301 61 25 83c17.333 22.667 41.666 34 72.999 34h211c-54 64.667 -81 139.334 -81 224.001c0 86 32 165.667 96 239
c67.333 78.667 162.666 117 285.999 115c15.333 0 30.333 -0.666992 45 -2zM513.998 342.998c27.333 15.333 56.666 37.665 87.999 66.998c32 30.667 48 67.334 48 110.001c0 40.667 -21.667 70.334 -65 89.001c-17.333 7.33301 -38.666 11 -63.999 11
c-50.667 0 -89.667 -22.333 -117 -67c-12.667 -21.333 -19 -43.333 -19 -66c0 -57.333 33 -101.333 99 -132c9.33301 -4.66699 19.333 -8.66699 30 -12z" />
    <glyph glyph-name="uniFBAD" unicode="&#x6be;" horiz-adv-x="992" arabic-form="medial" 
d="M581 76c-34.667 -24 -89.666 -48.3311 -164.999 -72.998c22 -95.333 62 -171 120 -227c78 325.333 225.333 488 442 488h22c8 0 15.333 -1.33301 22 -4s12 -5.66699 16 -9s7.66699 -8.66602 11 -15.999c2.66699 -6.66699 4.66699 -12 6 -16
c2 -4.66699 3.33301 -11.667 4 -21c0.666992 -8.66699 1 -14.667 1 -18v-19v-14v-19v-18c0.666992 -11.333 0.666992 -19.333 0 -24c0 -5.33301 -0.333008 -13.333 -1 -24c-1.33301 -10.667 -3.33301 -18.667 -6 -24c-2.66699 -6 -6 -12.333 -10 -19
c-4.66699 -6.66699 -10.667 -11.334 -18 -14.001c-7.33301 -3.33301 -15.666 -5 -24.999 -5h-24h-14c-4 -0.666992 -8.33301 -1 -13 -1c-70.667 -6.66699 -121.334 -42 -152.001 -106c-31.333 -64 -40.666 -164.333 -27.999 -301l1 -19l-13 -13l-123 -119l-20 -19l-25 12
c-112.667 53.333 -204 127.666 -274 222.999s-118 209.666 -144 342.999h-178c-32.667 -0 -57 12.333 -73 37c-16.667 24.667 -25 55 -25 91v19c0 33.333 8.33301 61 25 83c17.333 22.667 41.666 34 72.999 34h161c17.333 275.333 74.666 465.333 171.999 570
c62.667 67.333 140 101 232 101c94 0 168.667 -33.667 224 -101c54.667 -66 81.334 -154.667 80.001 -266c-4.66699 -203.333 -98.334 -367.333 -281.001 -492zM401.001 268.002c50 11.333 95.666 39.3359 136.999 84.0029c54 57.333 81 131.333 81 222
c0 12.667 -0.5 23.667 -1.5 33s-2.66699 17.5 -5 24.5s-5.16602 12.667 -8.49902 17s-7.33301 7.83301 -12 10.5s-9.66699 4.66699 -15 6s-11.666 2 -18.999 2c-18 0.666992 -35 -5.83301 -51 -19.5s-31.167 -35.334 -45.5 -65.001s-26.833 -71.334 -37.5 -125.001
s-18.334 -116.834 -23.001 -189.501z" />
    <glyph glyph-name="uniFBE8" unicode="&#x649;" horiz-adv-x="646" arabic-form="initial" 
d="M69 0h-75.999c-32.667 -0 -57.167 12.333 -73.5 37s-24.5 55 -24.5 91v19c0 32.667 8.5 60.334 25.5 83.001s41.167 34 72.5 34h76c99.333 0 165 9 197 27c43.333 25.333 65 83.333 65 174c0 76 -11.667 161 -35 255l-10 39l39 9l163 41l36 10l12 -36
c33.333 -108 50 -213 50 -315c-0.666992 -176.667 -52.667 -304.334 -156 -383.001c-20 -14.667 -42.5 -27.5 -67.5 -38.5s-52.667 -19.833 -83 -26.5s-62.833 -11.667 -97.5 -15s-72.334 -5 -113.001 -5z" />
    <glyph glyph-name="uniFBE9" unicode="&#x649;" horiz-adv-x="717" arabic-form="medial" 
d="M785 128v-15.998v-20.5c0 -5 -0.333008 -11.833 -1 -20.5s-1.66699 -15.834 -3 -21.501s-3.5 -12 -6.5 -19s-6.66699 -12.5 -11 -16.5s-9.83301 -7.33301 -16.5 -10s-14 -4 -22 -4h-10c-123.333 0 -215.666 38 -276.999 114c-76.667 -76 -190.667 -114 -342 -114h-104
c-32.667 0 -57 12.5 -73 37.5s-24 55.167 -24 90.5v19c0 21.333 3.33301 40.5 10 57.5s17.5 31.167 32.5 42.5s33.167 17 54.5 17h99c132 0 204 33 216 99c4 21.333 6 46.666 6 75.999c0 32.667 -1 63.334 -3 92.001l-5 82l-3 38l38 4l165 20l41 4l3 -41l16 -232
c4 -50.667 17.667 -87 41 -109s60.333 -33 111 -33h8c9.33301 0 17.666 -1.5 24.999 -4.5s13 -7.83301 17 -14.5s7.5 -12.834 10.5 -18.501s5 -13.667 6 -24s1.5 -17.833 1.5 -22.5v-23.5v-18.5v-10z" />
    <glyph glyph-name="uniFBFC" unicode="&#x6cc;" horiz-adv-x="1524" arabic-form="isolated" 
d="M318 81c0 -72.667 15.0039 -132.669 45.0039 -180.002c29.333 -47.333 76.166 -83.166 140.499 -107.499s146.833 -36.833 247.5 -37.5c112.667 0 213 20.333 301 61c44 20.667 82.667 48 116 82c28 28.667 42.667 62.334 44 101.001c0 4.66699 -0.333008 7.66699 -1 9
c-2 5.33301 -14.667 8 -38 8l-113 1c-91.333 0.666992 -162 21 -212 61c-51.333 41.333 -77 100.666 -77 177.999c0 136.667 43.667 252.334 131 347.001c110.667 121.333 265.667 182 465 182h21h40v-41v-192v-40h-40h-22c-98.667 0 -179.334 -22 -242.001 -66
c-57.333 -40 -88 -90.667 -92 -152c0 -6.66699 0.666992 -10.334 2 -11.001c3.33301 -3.33301 12.666 -5 27.999 -5h119c58 0.666992 107.333 -8 148 -26c41.333 -18 73.166 -45 95.499 -81s33.5 -80 33.5 -132c0 -104 -26.333 -194.667 -79 -272s-130 -139.333 -232 -186
c-59.333 -27.333 -122.333 -47.666 -189 -60.999c-67.333 -13.333 -138 -20 -212 -20c-222 0 -391.333 48.667 -508 146s-175 241 -175 431c0 148.667 47.667 330.667 143 546l16 35l36 -15l158 -65l38 -16l-16 -37c-80 -180.667 -120 -329 -120 -445z" />
    <glyph glyph-name="uniFBFD" unicode="&#x6cc;" horiz-adv-x="1523" arabic-form="final" 
d="M1529 264c8.66699 0 16.167 -1.33301 22.5 -4s11.666 -5.66699 15.999 -9s8 -8.5 11 -15.5s5.16699 -12.667 6.5 -17s2.5 -11 3.5 -20s1.5 -15.167 1.5 -18.5v-18.5v-14.5v-19v-18v-24.5c0 -5 -0.5 -12.833 -1.5 -23.5s-2.83301 -18.667 -5.5 -24
s-6.16699 -11.5 -10.5 -18.5s-10.166 -12 -17.499 -15s-16 -4.5 -26 -4.5h-85c10 -22.667 15 -47 15 -73c-0.666992 -116.667 -67 -217.667 -199 -303c-145.333 -94.667 -316.666 -142 -513.999 -142c-222 0 -391.333 47 -508 141s-175 233 -175 417c0 148 35 298 105 450
l16 35l36 -15l158 -65l37 -15l-15 -37c-54.667 -138.667 -82 -252.334 -82 -341.001c0 -106 34.167 -184.833 102.5 -236.5s176.5 -77.5 324.5 -77.5c111.333 0 211.333 20.333 300 61c69.333 31.333 118.333 68.333 147 111c10.667 16.667 16 31.667 16 45
c0 7.33301 -1 13.333 -3 18s-6 9.33398 -12 14.001s-15.333 8.16699 -28 10.5s-29 3.5 -49 3.5h-153h-2h-2c-30 3.33301 -54.333 16.166 -73 38.499s-32.334 50.833 -41.001 85.5c-4 16.667 -6.83301 30.334 -8.5 41.001s-2.5 21 -2.5 31c0 34 12.333 55.667 37 65l7 2h7
h644z" />
    <glyph glyph-name="uniFBFE" unicode="&#x6cc;" horiz-adv-x="682" arabic-form="initial" 
d="M69 0h-75.999c-32.667 -0 -57.167 12.333 -73.5 37s-24.5 55 -24.5 91v19c0 32.667 8.5 60.334 25.5 83.001s41.167 34 72.5 34h76c99.333 0 165 9 197 27c43.333 25.333 65 83.333 65 174c0 76 -11.667 161 -35 255l-10 39l39 9l163 41l36 10l12 -36
c33.333 -108 50 -213 50 -315c-0.666992 -176.667 -52.667 -304.334 -156 -383.001c-20 -14.667 -42.5 -27.5 -67.5 -38.5s-52.667 -19.833 -83 -26.5s-62.833 -11.667 -97.5 -15s-72.334 -5 -113.001 -5zM-37.0771 -301.816l145.514 145.513l14.9785 14.9795
l14.9795 -14.9795l146.583 -146.583l1.06934 -1.06934l2.13965 2.13965l145.514 145.513l14.9785 14.9795l14.9795 -14.9795l146.583 -146.583l14.9785 -14.9785l-14.9785 -14.9795l-145.513 -145.513l-14.9795 -14.9795l-14.9795 14.9795l-146.583 146.583
l-1.06934 1.06934l-2.13965 -2.13965l-145.513 -145.513l-14.9795 -14.9795l-14.9795 14.9795l-146.583 146.583l-14.9785 14.9785z" />
    <glyph glyph-name="uniFBFF" unicode="&#x6cc;" horiz-adv-x="717" arabic-form="medial" 
d="M-37.0781 -301.816l145.514 145.513l14.9785 14.9795l14.9795 -14.9795l146.583 -146.583l1.06934 -1.06934l2.13965 2.13965l145.514 145.513l14.9785 14.9795l14.9795 -14.9795l146.583 -146.583l14.9785 -14.9785l-14.9785 -14.9795l-145.513 -145.513
l-14.9795 -14.9795l-14.9795 14.9795l-146.583 146.583l-1.06934 1.06934l-2.13965 -2.13965l-145.513 -145.513l-14.9795 -14.9795l-14.9795 14.9795l-146.583 146.583l-14.9785 14.9785zM785 128v-15.998v-20.5c0 -5 -0.333008 -11.833 -1 -20.5
s-1.66699 -15.834 -3 -21.501s-3.5 -12 -6.5 -19s-6.66699 -12.5 -11 -16.5s-9.83301 -7.33301 -16.5 -10s-14 -4 -22 -4h-10c-123.333 0 -215.666 38 -276.999 114c-76.667 -76 -190.667 -114 -342 -114h-104c-32.667 0 -57 12.5 -73 37.5s-24 55.167 -24 90.5v19
c0 21.333 3.33301 40.5 10 57.5s17.5 31.167 32.5 42.5s33.167 17 54.5 17h99c132 0 204 33 216 99c4 21.333 6 46.666 6 75.999c0 32.667 -1 63.334 -3 92.001l-5 82l-3 38l38 4l165 20l41 4l3 -41l16 -232c4 -50.667 17.667 -87 41 -109s60.333 -33 111 -33h8
c9.33301 0 17.666 -1.5 24.999 -4.5s13 -7.83301 17 -14.5s7.5 -12.834 10.5 -18.501s5 -13.667 6 -24s1.5 -17.833 1.5 -22.5v-23.5v-18.5v-10z" />
    <glyph glyph-name="uniFDFC" unicode="&#xfdfc;" horiz-adv-x="3546" arabic-form="isolated" 
d="M1073 140l3 1258v40h40h172h40v-40l-1 -1059c0 -96.667 -3 -187.667 -9 -273c-14.667 -192 -76 -337.667 -184 -437s-259 -149 -453 -149c-202 0 -355.667 51 -461 153s-157.666 251.333 -156.999 448c0 70 7 139.667 21 209c15.333 72.667 37 143.334 65 212.001l15 37
l38 -16l158 -65l36 -15l-14 -36c-42.667 -109.333 -64 -219 -64 -329c0 -117.333 29.333 -203.333 88 -258c58 -55.333 150 -83 276 -83c133.333 0 231.666 32.667 294.999 98c63.333 64.667 95.333 166.334 96 305.001zM3227 528.998c58 -132.667 87 -260.668 87 -384.001
c0 -204 -62.333 -364.333 -187 -481s-307.334 -187.667 -548 -213l-35 -4l-8 34l-43 170l-11 45l46 5c182 18 316 62.833 402 134.5s128.667 170.834 128 297.501c0 96 -24.667 197 -74 303l-19 40l42 15l170 59l35 13zM2093 -0.00292969h-76
c-32.667 0 -57.167 12.333 -73.5 37s-24.5 55 -24.5 91v19c0 32.667 8.5 60.334 25.5 83.001s41.167 34 72.5 34h76c99.333 0 165 9 197 27c43.333 25.333 65 83.333 65 174c0 76 -11.667 161 -35 255l-10 39l39 9l163 41l36 10l12 -36c33.333 -108 50 -213 50 -315
c-0.666992 -176.667 -52.667 -304.334 -156 -383.001c-20 -14.667 -42.5 -27.5 -67.5 -38.5s-52.667 -19.833 -83 -26.5s-62.833 -11.667 -97.5 -15s-72.334 -5 -113 -5zM1828.92 -266.819l145.514 145.513l14.9785 14.9795l14.9795 -14.9795l146.583 -146.583
l1.06934 -1.06934l2.13965 2.13965l145.514 145.513l14.9785 14.9795l14.9795 -14.9795l146.583 -146.583l14.9785 -14.9785l-14.9785 -14.9795l-145.514 -145.513l-14.9785 -14.9795l-14.9795 14.9795l-146.583 146.583l-1.06934 1.06934l-2.13965 -2.13965
l-145.513 -145.513l-14.9795 -14.9795l-14.9795 14.9795l-146.583 146.583l-14.9785 14.9785zM2072 128.997c0.666992 -43.333 -1 -72.002 -5 -86.002c-10 -28.667 -28.333 -43 -55 -43h-21c-140 0 -246.333 40.667 -319 122c-72.667 82 -109 199.333 -109 352v924v40h40
h174h40v-40v-922c0 -75.333 14 -129.666 42 -162.999c28.667 -32.667 73.667 -49 135 -49h18c8 0 15.167 -1.33301 21.5 -4s11.833 -5.66699 16.5 -9c4 -3.33301 7.33301 -8.66602 10 -15.999c3.33301 -6.66699 5.66602 -12.167 7 -16.5c1.33301 -4.33301 2.5 -11 3.5 -20
s1.5 -15.167 1.5 -18.5v-19v-14v-18z" />
    <glyph glyph-name="uniFE71" unicode="&#xfe71;" horiz-adv-x="791" arabic-form="medial" 
d="M499 0c-34.667 0 -61.334 12.1689 -80.001 36.502s-28 54.833 -28 91.5v19c0 22 4.16699 41.833 12.5 59.5s20.833 31.667 37.5 42s36 15.5 58 15.5h302c8 0 15.167 -1.33301 21.5 -4s11.666 -5.66699 15.999 -9s8 -8.5 11 -15.5s5.16699 -12.667 6.5 -17
s2.5 -11 3.5 -20s1.5 -15.167 1.5 -18.5v-18.5v-14.5v-19c0 -1.33301 0.166992 -7.5 0.5 -18.5s0.333008 -19 0 -24s-1 -12.833 -2 -23.5s-2.83301 -18.834 -5.5 -24.501s-6.16699 -11.834 -10.5 -18.501s-10.166 -11.5 -17.499 -14.5s-15.666 -4.5 -24.999 -4.5h-302z
M241 0.00195312c-34.667 0 -61.334 12.1689 -80.001 36.502s-28 54.833 -28 91.5v19c0 22 4.16699 41.833 12.5 59.5s20.833 31.667 37.5 42s36 15.5 58 15.5h302c8 0 15.167 -1.33301 21.5 -4s11.666 -5.66699 15.999 -9s8 -8.5 11 -15.5s5.16699 -12.667 6.5 -17
s2.5 -11 3.5 -20s1.5 -15.167 1.5 -18.5v-18.5v-14.5v-19c0 -1.33301 0.166992 -7.5 0.5 -18.5s0.333008 -19 0 -24s-1 -12.833 -2 -23.5s-2.83301 -18.834 -5.5 -24.501s-6.16699 -11.834 -10.5 -18.501s-10.166 -11.5 -17.499 -14.5s-15.666 -4.5 -24.999 -4.5h-302z
M-7 0.00390625c-34.667 0 -61.334 12.1689 -80.001 36.502s-28 54.833 -28 91.5v19c0 22 4.16699 41.833 12.5 59.5s20.833 31.667 37.5 42s36 15.5 58 15.5h302c8 0 15.167 -1.33301 21.5 -4s11.666 -5.66699 15.999 -9s8 -8.5 11 -15.5s5.16699 -12.667 6.5 -17
s2.5 -11 3.5 -20s1.5 -15.167 1.5 -18.5v-18.5v-14.5v-19c0 -1.33301 0.166992 -7.5 0.5 -18.5s0.333008 -19 0 -24s-1 -12.833 -2 -23.5s-2.83301 -18.834 -5.5 -24.501s-6.16699 -11.834 -10.5 -18.501s-10.166 -11.5 -17.499 -14.5s-15.666 -4.5 -24.999 -4.5h-302z
M26 1076.01v104v13l12 5l456 187l27 11v-30v-103v-14l-12 -5l-456 -186l-27 -11v29zM26 1288.01v104v13l12 5l456 187l27 11v-30v-103v-14l-12 -5l-456 -186l-27 -11v29z" />
    <glyph glyph-name="uniFE77" unicode="&#xfe77;" horiz-adv-x="791" arabic-form="medial" 
d="M499 0c-34.667 0 -61.334 12.1689 -80.001 36.502s-28 54.833 -28 91.5v19c0 22 4.16699 41.833 12.5 59.5s20.833 31.667 37.5 42s36 15.5 58 15.5h302c8 0 15.167 -1.33301 21.5 -4s11.666 -5.66699 15.999 -9s8 -8.5 11 -15.5s5.16699 -12.667 6.5 -17
s2.5 -11 3.5 -20s1.5 -15.167 1.5 -18.5v-18.5v-14.5v-19c0 -1.33301 0.166992 -7.5 0.5 -18.5s0.333008 -19 0 -24s-1 -12.833 -2 -23.5s-2.83301 -18.834 -5.5 -24.501s-6.16699 -11.834 -10.5 -18.501s-10.166 -11.5 -17.499 -14.5s-15.666 -4.5 -24.999 -4.5h-302z
M241 0.00195312c-34.667 0 -61.334 12.1689 -80.001 36.502s-28 54.833 -28 91.5v19c0 22 4.16699 41.833 12.5 59.5s20.833 31.667 37.5 42s36 15.5 58 15.5h302c8 0 15.167 -1.33301 21.5 -4s11.666 -5.66699 15.999 -9s8 -8.5 11 -15.5s5.16699 -12.667 6.5 -17
s2.5 -11 3.5 -20s1.5 -15.167 1.5 -18.5v-18.5v-14.5v-19c0 -1.33301 0.166992 -7.5 0.5 -18.5s0.333008 -19 0 -24s-1 -12.833 -2 -23.5s-2.83301 -18.834 -5.5 -24.501s-6.16699 -11.834 -10.5 -18.501s-10.166 -11.5 -17.499 -14.5s-15.666 -4.5 -24.999 -4.5h-302z
M-7 0.00390625c-34.667 0 -61.334 12.1689 -80.001 36.502s-28 54.833 -28 91.5v19c0 22 4.16699 41.833 12.5 59.5s20.833 31.667 37.5 42s36 15.5 58 15.5h302c8 0 15.167 -1.33301 21.5 -4s11.666 -5.66699 15.999 -9s8 -8.5 11 -15.5s5.16699 -12.667 6.5 -17
s2.5 -11 3.5 -20s1.5 -15.167 1.5 -18.5v-18.5v-14.5v-19c0 -1.33301 0.166992 -7.5 0.5 -18.5s0.333008 -19 0 -24s-1 -12.833 -2 -23.5s-2.83301 -18.834 -5.5 -24.501s-6.16699 -11.834 -10.5 -18.501s-10.166 -11.5 -17.499 -14.5s-15.666 -4.5 -24.999 -4.5h-302z
M-5 1349.01v104v13l13 5l455 186l28 12v-30v-104v-13l-13 -5l-455 -186l-28 -12v30z" />
    <glyph glyph-name="uniFE79" unicode="&#xfe79;" horiz-adv-x="791" arabic-form="medial" 
d="M499 0c-34.667 0 -61.334 12.1689 -80.001 36.502s-28 54.833 -28 91.5v19c0 22 4.16699 41.833 12.5 59.5s20.833 31.667 37.5 42s36 15.5 58 15.5h302c8 0 15.167 -1.33301 21.5 -4s11.666 -5.66699 15.999 -9s8 -8.5 11 -15.5s5.16699 -12.667 6.5 -17
s2.5 -11 3.5 -20s1.5 -15.167 1.5 -18.5v-18.5v-14.5v-19c0 -1.33301 0.166992 -7.5 0.5 -18.5s0.333008 -19 0 -24s-1 -12.833 -2 -23.5s-2.83301 -18.834 -5.5 -24.501s-6.16699 -11.834 -10.5 -18.501s-10.166 -11.5 -17.499 -14.5s-15.666 -4.5 -24.999 -4.5h-302z
M241 0.00195312c-34.667 0 -61.334 12.1689 -80.001 36.502s-28 54.833 -28 91.5v19c0 22 4.16699 41.833 12.5 59.5s20.833 31.667 37.5 42s36 15.5 58 15.5h302c8 0 15.167 -1.33301 21.5 -4s11.666 -5.66699 15.999 -9s8 -8.5 11 -15.5s5.16699 -12.667 6.5 -17
s2.5 -11 3.5 -20s1.5 -15.167 1.5 -18.5v-18.5v-14.5v-19c0 -1.33301 0.166992 -7.5 0.5 -18.5s0.333008 -19 0 -24s-1 -12.833 -2 -23.5s-2.83301 -18.834 -5.5 -24.501s-6.16699 -11.834 -10.5 -18.501s-10.166 -11.5 -17.499 -14.5s-15.666 -4.5 -24.999 -4.5h-302z
M-7 0.00390625c-34.667 0 -61.334 12.1689 -80.001 36.502s-28 54.833 -28 91.5v19c0 22 4.16699 41.833 12.5 59.5s20.833 31.667 37.5 42s36 15.5 58 15.5h302c8 0 15.167 -1.33301 21.5 -4s11.666 -5.66699 15.999 -9s8 -8.5 11 -15.5s5.16699 -12.667 6.5 -17
s2.5 -11 3.5 -20s1.5 -15.167 1.5 -18.5v-18.5v-14.5v-19c0 -1.33301 0.166992 -7.5 0.5 -18.5s0.333008 -19 0 -24s-1 -12.833 -2 -23.5s-2.83301 -18.834 -5.5 -24.501s-6.16699 -11.834 -10.5 -18.501s-10.166 -11.5 -17.499 -14.5s-15.666 -4.5 -24.999 -4.5h-302z
M532 1444.01c-20.667 0 -39.5 0.499023 -56.5 1.49902s-32.167 2.16699 -45.5 3.5l-19 3c-29.333 -39.333 -62.833 -72.666 -100.5 -99.999s-79 -48.333 -124 -63s-94.167 -23.334 -147.5 -26.001l-21 -1v21v78v19l19 1c53.333 2 100.166 11.833 140.499 29.5
s74.5 42.834 102.5 75.501c-20.667 6.66699 -42 16 -64 28c-64.667 36 -97 86.667 -97 152c0.666992 47.333 14.334 87.333 41.001 120c34.667 41.333 82 62 142 62c14.667 0 29 -1.5 43 -4.5s27.333 -7.5 40 -13.5s24.334 -13.333 35.001 -22
c12 -10 22.5 -21.167 31.5 -33.5s16.167 -25.833 21.5 -40.5c8 -21.333 12 -44.333 12 -69c-0.666992 -16.667 -2.5 -33.5 -5.5 -50.5s-7.16699 -33.833 -12.5 -50.5c23.333 -2 44.666 -2.66699 63.999 -2l21 1v-21v-78v-20h-20zM348 1584
c12 28.667 18.001 55.332 18.001 79.999c0 20.667 -6 36 -18 46c-13.333 11.333 -27.333 17 -42 17c-23.333 0.666992 -41.333 -7 -54 -23c-4 -6 -7.16699 -12.5 -9.5 -19.5s-3.5 -14.5 -3.5 -22.5c0 -10.667 4.16699 -21 12.5 -31s22.166 -19.333 41.499 -28
c12 -5.33301 30.333 -11.666 55 -18.999z" />
    <glyph glyph-name="uniFE7B" unicode="&#xfe7b;" horiz-adv-x="791" arabic-form="medial" 
d="M499 0c-34.667 0 -61.334 12.1689 -80.001 36.502s-28 54.833 -28 91.5v19c0 22 4.16699 41.833 12.5 59.5s20.833 31.667 37.5 42s36 15.5 58 15.5h302c8 0 15.167 -1.33301 21.5 -4s11.666 -5.66699 15.999 -9s8 -8.5 11 -15.5s5.16699 -12.667 6.5 -17
s2.5 -11 3.5 -20s1.5 -15.167 1.5 -18.5v-18.5v-14.5v-19c0 -1.33301 0.166992 -7.5 0.5 -18.5s0.333008 -19 0 -24s-1 -12.833 -2 -23.5s-2.83301 -18.834 -5.5 -24.501s-6.16699 -11.834 -10.5 -18.501s-10.166 -11.5 -17.499 -14.5s-15.666 -4.5 -24.999 -4.5h-302z
M241 0.00195312c-34.667 0 -61.334 12.1689 -80.001 36.502s-28 54.833 -28 91.5v19c0 22 4.16699 41.833 12.5 59.5s20.833 31.667 37.5 42s36 15.5 58 15.5h302c8 0 15.167 -1.33301 21.5 -4s11.666 -5.66699 15.999 -9s8 -8.5 11 -15.5s5.16699 -12.667 6.5 -17
s2.5 -11 3.5 -20s1.5 -15.167 1.5 -18.5v-18.5v-14.5v-19c0 -1.33301 0.166992 -7.5 0.5 -18.5s0.333008 -19 0 -24s-1 -12.833 -2 -23.5s-2.83301 -18.834 -5.5 -24.501s-6.16699 -11.834 -10.5 -18.501s-10.166 -11.5 -17.499 -14.5s-15.666 -4.5 -24.999 -4.5h-302z
M-7 0.00390625c-34.667 0 -61.334 12.1689 -80.001 36.502s-28 54.833 -28 91.5v19c0 22 4.16699 41.833 12.5 59.5s20.833 31.667 37.5 42s36 15.5 58 15.5h302c8 0 15.167 -1.33301 21.5 -4s11.666 -5.66699 15.999 -9s8 -8.5 11 -15.5s5.16699 -12.667 6.5 -17
s2.5 -11 3.5 -20s1.5 -15.167 1.5 -18.5v-18.5v-14.5v-19c0 -1.33301 0.166992 -7.5 0.5 -18.5s0.333008 -19 0 -24s-1 -12.833 -2 -23.5s-2.83301 -18.834 -5.5 -24.501s-6.16699 -11.834 -10.5 -18.501s-10.166 -11.5 -17.499 -14.5s-15.666 -4.5 -24.999 -4.5h-302z
M42 -451.994v104v13l12 5l456 187l27 11v-30v-103v-14l-12 -5l-456 -186l-27 -11v29z" />
    <glyph glyph-name="uniFE7D" unicode="&#xfe7d;" horiz-adv-x="791" arabic-form="medial" 
d="M499 0c-34.667 0 -61.334 12.1689 -80.001 36.502s-28 54.833 -28 91.5v19c0 22 4.16699 41.833 12.5 59.5s20.833 31.667 37.5 42s36 15.5 58 15.5h302c8 0 15.167 -1.33301 21.5 -4s11.666 -5.66699 15.999 -9s8 -8.5 11 -15.5s5.16699 -12.667 6.5 -17
s2.5 -11 3.5 -20s1.5 -15.167 1.5 -18.5v-18.5v-14.5v-19c0 -1.33301 0.166992 -7.5 0.5 -18.5s0.333008 -19 0 -24s-1 -12.833 -2 -23.5s-2.83301 -18.834 -5.5 -24.501s-6.16699 -11.834 -10.5 -18.501s-10.166 -11.5 -17.499 -14.5s-15.666 -4.5 -24.999 -4.5h-302z
M241 0.00195312c-34.667 0 -61.334 12.1689 -80.001 36.502s-28 54.833 -28 91.5v19c0 22 4.16699 41.833 12.5 59.5s20.833 31.667 37.5 42s36 15.5 58 15.5h302c8 0 15.167 -1.33301 21.5 -4s11.666 -5.66699 15.999 -9s8 -8.5 11 -15.5s5.16699 -12.667 6.5 -17
s2.5 -11 3.5 -20s1.5 -15.167 1.5 -18.5v-18.5v-14.5v-19c0 -1.33301 0.166992 -7.5 0.5 -18.5s0.333008 -19 0 -24s-1 -12.833 -2 -23.5s-2.83301 -18.834 -5.5 -24.501s-6.16699 -11.834 -10.5 -18.501s-10.166 -11.5 -17.499 -14.5s-15.666 -4.5 -24.999 -4.5h-302z
M-7 0.00390625c-34.667 0 -61.334 12.1689 -80.001 36.502s-28 54.833 -28 91.5v19c0 22 4.16699 41.833 12.5 59.5s20.833 31.667 37.5 42s36 15.5 58 15.5h302c8 0 15.167 -1.33301 21.5 -4s11.666 -5.66699 15.999 -9s8 -8.5 11 -15.5s5.16699 -12.667 6.5 -17
s2.5 -11 3.5 -20s1.5 -15.167 1.5 -18.5v-18.5v-14.5v-19c0 -1.33301 0.166992 -7.5 0.5 -18.5s0.333008 -19 0 -24s-1 -12.833 -2 -23.5s-2.83301 -18.834 -5.5 -24.501s-6.16699 -11.834 -10.5 -18.501s-10.166 -11.5 -17.499 -14.5s-15.666 -4.5 -24.999 -4.5h-302z
M347 1769.01c1.33301 -27.333 2.33398 -55 3.00098 -83c-0.666992 -27.333 2.83301 -46.166 10.5 -56.499s19.5 -15.5 35.5 -15.5c16.667 0 29.167 6 37.5 18s12.833 33 13.5 63c0 24 -5.33301 62 -16 114l-5 20l21 4l88 14l17 2l5 -17
c6.66699 -21.333 11.5 -42.666 14.5 -63.999s4.5 -42.333 4.5 -63c0 -70.667 -14 -125.5 -42 -164.5s-69.333 -58.5 -124 -58.5c-38 -0.666992 -71 11.333 -99 36c-28 -66.667 -81.333 -100 -160 -100c-50.667 0 -89.334 16.333 -116.001 49s-40.667 79 -42 139
c-0.666992 41.333 4 79.666 14 114.999l5 17l17 -3l79 -13l20 -3l-4 -21c-6.66699 -29.333 -9.66699 -55.333 -9 -78c0 -24 3.83301 -40.667 11.5 -50s19.834 -14 36.501 -14c21.333 0 37.333 7 48 21s16.667 38.333 18 73c1.33301 33.333 1.66602 72.666 0.999023 117.999
v20h20h77h20v-19z" />
    <glyph glyph-name="uniFE7F" unicode="&#xfe7f;" horiz-adv-x="791" arabic-form="medial" 
d="M499 0c-34.667 0 -61.334 12.1689 -80.001 36.502s-28 54.833 -28 91.5v19c0 22 4.16699 41.833 12.5 59.5s20.833 31.667 37.5 42s36 15.5 58 15.5h302c8 0 15.167 -1.33301 21.5 -4s11.666 -5.66699 15.999 -9s8 -8.5 11 -15.5s5.16699 -12.667 6.5 -17
s2.5 -11 3.5 -20s1.5 -15.167 1.5 -18.5v-18.5v-14.5v-19c0 -1.33301 0.166992 -7.5 0.5 -18.5s0.333008 -19 0 -24s-1 -12.833 -2 -23.5s-2.83301 -18.834 -5.5 -24.501s-6.16699 -11.834 -10.5 -18.501s-10.166 -11.5 -17.499 -14.5s-15.666 -4.5 -24.999 -4.5h-302z
M241 0.00195312c-34.667 0 -61.334 12.1689 -80.001 36.502s-28 54.833 -28 91.5v19c0 22 4.16699 41.833 12.5 59.5s20.833 31.667 37.5 42s36 15.5 58 15.5h302c8 0 15.167 -1.33301 21.5 -4s11.666 -5.66699 15.999 -9s8 -8.5 11 -15.5s5.16699 -12.667 6.5 -17
s2.5 -11 3.5 -20s1.5 -15.167 1.5 -18.5v-18.5v-14.5v-19c0 -1.33301 0.166992 -7.5 0.5 -18.5s0.333008 -19 0 -24s-1 -12.833 -2 -23.5s-2.83301 -18.834 -5.5 -24.501s-6.16699 -11.834 -10.5 -18.501s-10.166 -11.5 -17.499 -14.5s-15.666 -4.5 -24.999 -4.5h-302z
M-7 0.00390625c-34.667 0 -61.334 12.1689 -80.001 36.502s-28 54.833 -28 91.5v19c0 22 4.16699 41.833 12.5 59.5s20.833 31.667 37.5 42s36 15.5 58 15.5h302c8 0 15.167 -1.33301 21.5 -4s11.666 -5.66699 15.999 -9s8 -8.5 11 -15.5s5.16699 -12.667 6.5 -17
s2.5 -11 3.5 -20s1.5 -15.167 1.5 -18.5v-18.5v-14.5v-19c0 -1.33301 0.166992 -7.5 0.5 -18.5s0.333008 -19 0 -24s-1 -12.833 -2 -23.5s-2.83301 -18.834 -5.5 -24.501s-6.16699 -11.834 -10.5 -18.501s-10.166 -11.5 -17.499 -14.5s-15.666 -4.5 -24.999 -4.5h-302z
M97 1461.51c0 29.667 5.33203 57.3291 15.999 82.9961s26.334 48.834 47.001 69.501c41.333 42 92 63 152 63c30 0 57.833 -5.33301 83.5 -16s48.834 -26.334 69.501 -47.001c14 -13.333 25.667 -28 35 -44s16.333 -33.167 21 -51.5s7 -37.166 7 -56.499
c0 -60.667 -21 -111.667 -63 -153c-13.333 -14 -28.166 -25.667 -44.499 -35s-33.5 -16.333 -51.5 -21s-37 -7 -57 -7c-29.333 0 -56.833 5.33301 -82.5 16s-48.834 26.334 -69.501 47.001s-36.334 43.834 -47.001 69.501s-16 53.334 -16 83.001zM223.999 1461
c-0.666992 -26 8 -47.668 26 -65.001c17.333 -18 39 -27 65 -27c25.333 0 47 9 65 27c8.66699 8.66699 15.334 18.334 20.001 29.001s7 22.667 7 36c-0.666992 25.333 -9.66699 47 -27 65c-18 17.333 -39.667 26 -65 26c-13.333 0 -25.333 -2.16699 -36 -6.5
s-20.334 -10.833 -29.001 -19.5c-18 -18 -26.667 -39.667 -26 -65z" />
    <glyph glyph-name="uniFE80" unicode="&#x621;" horiz-adv-x="868" arabic-form="isolated" 
d="M78 52l-0.00195312 177.999v22l18 11c46.667 30.667 90.334 55.334 131.001 74.001c-86 64.667 -129 146 -129 244c0.666992 100 28 181.333 82 244c76 87.333 174.333 131 295 131c40 0 77.167 -3.66699 111.5 -11s66.333 -18.666 96 -33.999s55.834 -34.333 78.501 -57
l19 -19l-10 -25l-57 -137l-19 -47l-41 29c-46 33.333 -101.333 50 -166 50c-47.333 -0.666992 -83.666 -13.334 -108.999 -38.001c-22.667 -22 -34 -50.667 -34 -86c0 -8.66699 2.33301 -17.5 7 -26.5s12 -19 22 -30s24.167 -22.667 42.5 -35s40.166 -24.5 65.499 -36.5
l239 54l42 10l7 -42l27 -173l7 -41l-41 -5c-162.667 -19.333 -371 -99 -625 -239l-59 -33v68z" />
    <glyph glyph-name="uniFE81" unicode="&#x622;" horiz-adv-x="683" arabic-form="isolated" 
d="M249 1293.01h173h40v-35.9668v-1220.17v-35.9668h-40h-173h-40v35.9668v1220.17v35.9668h40zM250 1469c-33.333 4.66699 -65.333 -0.166992 -96 -14.5s-60.667 -38.5 -90 -72.5l-14 -17l-15 16l-102 127l-11 11l9 14c84 120 186.667 170.333 308 151l149 -24
c60.667 -10 129.667 4.66699 207 44l18 9l9 -19l66 -156l7 -16l-15 -10c-89.333 -56 -186 -76.667 -290 -62z" />
    <glyph glyph-name="uniFE82" unicode="&#x622;" horiz-adv-x="571" arabic-form="final" 
d="M250 1469c-33.333 4.66699 -65.333 -0.166992 -96 -14.5s-60.667 -38.5 -90 -72.5l-14 -17l-15 16l-102 127l-11 11l9 14c84 120 186.667 170.333 308 151l149 -24c60.667 -10 129.667 4.66699 207 44l18 9l9 -19l66 -156l7 -16l-15 -10
c-89.333 -56 -186 -76.667 -290 -62zM629 128.999c0.666992 -43.333 -0.999023 -72.002 -4.99902 -86.002c-10 -28.667 -28.333 -43 -55 -43h-21c-140 0 -246.333 40.667 -319 122c-72.667 82 -109 199.333 -109 352v714v40h40h174h40v-40v-712
c0 -75.333 14 -129.666 42 -162.999c28.667 -32.667 73.667 -49 135 -49h18c8 0 15.167 -1.33301 21.5 -4s11.833 -5.66699 16.5 -9c4 -3.33301 7.33301 -8.66602 10 -15.999c3.33301 -6.66699 5.66602 -12.167 6.99902 -16.5s2.5 -11 3.5 -20s1.5 -15.167 1.5 -18.5v-19
v-14v-18z" />
    <glyph glyph-name="uniFE83" unicode="&#x623;" horiz-adv-x="487" arabic-form="isolated" 
d="M166 1230.32h173h40v-34.168v-1159.13v-34.167h-40h-173h-40v34.167v1159.13v34.168h40zM82 1464c-34.667 39.333 -51.998 89.3311 -51.998 149.998c0 64 21.333 118.667 64 164c50 52.667 114 79 192 79c54 0 104.667 -15.333 152 -46l9 -6v-10l1 -132v-37l-31 20
c-19.333 12.667 -39 22.334 -59 29.001c-19.333 6 -38.666 9 -57.999 9c-36.667 0 -64.334 -9.33301 -83.001 -28c-14.667 -15.333 -22 -33.666 -22 -54.999c1.33301 -30.667 28.666 -55.667 81.999 -75c5.33301 -2 9.66602 -2.66699 12.999 -2l140 27l24 5v-24v-126v-16
l-16 -3l-406 -98l-25 -6v25v113v26l16 4z" />
    <glyph glyph-name="uniFE84" unicode="&#x623;" horiz-adv-x="571" arabic-form="final" 
d="M92 1464c-34.667 39.333 -51.998 89.3311 -51.998 149.998c0 64 21.333 118.667 64 164c50 52.667 114 79 192 79c54 0 104.667 -15.333 152 -46l9 -6v-10l1 -132v-37l-31 20c-19.333 12.667 -39 22.334 -59 29.001c-19.333 6 -38.666 9 -57.999 9
c-36.667 0 -64.334 -9.33301 -83.001 -28c-14.667 -15.333 -22 -33.666 -22 -54.999c1.33301 -30.667 28.666 -55.667 81.999 -75c5.33301 -2 9.66602 -2.66699 12.999 -2l140 27l24 5v-24v-126v-16l-16 -3l-406 -98l-25 -6v25v113v26l16 4zM629.002 128.998
c0.666992 -43.333 -0.999023 -72.002 -4.99902 -86.002c-10 -28.667 -28.333 -43 -55 -43h-21c-140 0 -246.333 40.667 -319 122c-72.667 82 -109 199.333 -109 352v714v40h40h174h40v-40v-712c0 -75.333 14 -129.666 42 -162.999c28.667 -32.667 73.667 -49 135 -49h18
c8 0 15.167 -1.33301 21.5 -4s11.833 -5.66699 16.5 -9c4 -3.33301 7.33301 -8.66602 10 -15.999c3.33301 -6.66699 5.66602 -12.167 6.99902 -16.5s2.5 -11 3.5 -20s1.5 -15.167 1.5 -18.5v-19v-14v-18z" />
    <glyph glyph-name="uniFE85" unicode="&#x624;" horiz-adv-x="900" arabic-form="isolated" 
d="M290 991c-34.667 39.333 -51.998 89.3311 -51.998 149.998c0 64 21.333 118.667 64 164c50 52.667 114 79 192 79c54 0 104.667 -15.333 152 -46l9 -6v-10l1 -132v-37l-31 20c-19.333 12.667 -39 22.334 -59 29.001c-19.333 6 -38.666 9 -57.999 9
c-36.667 0 -64.334 -9.33301 -83.001 -28c-14.667 -15.333 -22 -33.666 -22 -54.999c1.33301 -30.667 28.666 -55.667 81.999 -75c5.33301 -2 9.66602 -2.66699 12.999 -2l140 27l24 5v-24v-126v-16l-16 -3l-406 -98l-25 -6v25v113v26l16 4zM588.002 270.998
c-4.66699 48.667 -11.6689 90.333 -21.002 125s-20.666 62 -33.999 82s-27.833 34.5 -43.5 43.5s-33.167 13.5 -52.5 13.5c-14.667 0 -27.667 -2.66699 -39 -8s-22.166 -15 -32.499 -29s-19.5 -32.667 -27.5 -56c-10.667 -32 -16 -61.667 -16 -89
c0 -33.333 11.333 -57.833 34 -73.5s63.667 -23.5 123 -23.5c34.667 0.666992 71 5.66699 109 15zM478 -2.00293c-129.333 0 -229.168 28.834 -299.501 86.501s-105.5 142.167 -105.5 253.5c0 86.667 18.667 169 56 247c34 71.333 78.167 125.666 132.5 162.999
s116.833 56 187.5 56c51.333 0 98 -10 140 -30s78.833 -48.833 110.5 -86.5s57.834 -83.834 78.501 -138.501c42.667 -110 63.667 -233 63 -369c-1.33301 -197.333 -63.5 -352.333 -186.5 -465s-302.167 -181 -537.5 -205l-34 -3l-8 33l-43 170l-11 45l46 5
c261.333 26.667 427.333 108.334 498 245.001c-23.333 -2.66699 -41.5 -4.5 -54.5 -5.5s-23.833 -1.5 -32.5 -1.5z" />
    <glyph glyph-name="uniFE86" unicode="&#x624;" horiz-adv-x="893" arabic-form="final" 
d="M587 264c-18 180 -68 270.332 -150 270.999c-22 0 -41 -7 -57 -21s-30 -38 -42 -72c-10.667 -31.333 -16 -61 -16 -89c0 -20 4 -36.167 12 -48.5s23 -22.166 45 -29.499s52 -11 90 -11h118zM834 262.999l67.0049 0.000976562c9.33301 0 17.666 -1.5 24.999 -4.5
s13.166 -7.83301 17.499 -14.5s7.83301 -12.667 10.5 -18s4.5 -13.333 5.5 -24s1.66699 -18.334 2 -23.001s0.333008 -12.5 0 -23.5s-0.5 -16.833 -0.5 -17.5v-10c0 -3.33301 0.166992 -7.83301 0.5 -13.5s-0.166992 -16 -1.5 -31s-3.83301 -28.167 -7.5 -39.5
s-10 -21.5 -19 -30.5s-19.833 -13.5 -32.5 -13.5l-79 1c-32.667 -144 -108.5 -256.833 -227.5 -338.5s-277.833 -132.5 -476.5 -152.5l-34 -3l-8 33l-43 172l-11 44l45 5c265.333 28.667 431.666 108.334 498.999 239.001h-87c-130 0 -230.167 28.667 -300.5 86
s-105.5 141.333 -105.5 252c0 86.667 18.667 169 56 247c22.667 47.333 49.667 87.166 81 119.499s67.166 57 107.499 74s84.166 25.5 131.499 25.5c111.333 0 198.833 -46.667 262.5 -140s104.5 -227 122.5 -401zM290.005 991
c-34.667 39.333 -51.998 89.3311 -51.998 149.998c0 64 21.333 118.667 64 164c50 52.667 114 79 192 79c54 0 104.667 -15.333 152 -46l9 -6v-10l1 -132v-37l-31 20c-19.333 12.667 -39 22.334 -59 29.001c-19.333 6 -38.666 9 -57.999 9
c-36.667 0 -64.334 -9.33301 -83.001 -28c-14.667 -15.333 -22 -33.666 -22 -54.999c1.33301 -30.667 28.666 -55.667 81.999 -75c5.33301 -2 9.66602 -2.66699 12.999 -2l140 27l24 5v-24v-126v-16l-16 -3l-406 -98l-25 -6v25v113v26l16 4z" />
    <glyph glyph-name="uniFE87" unicode="&#x625;" horiz-adv-x="487" arabic-form="isolated" 
d="M87 -500c-34.667 39.333 -51.998 89.3311 -51.998 149.998c0 64 21.333 118.667 64 164c50 52.667 114 79 192 79c54 0 104.667 -15.333 152 -46l9 -6v-10l1 -132v-37l-31 20c-19.333 12.667 -39 22.334 -59 29.001c-19.333 6 -38.666 9 -57.999 9
c-36.667 0 -64.334 -9.33301 -83.001 -28c-14.667 -15.333 -22 -33.666 -22 -54.999c1.33301 -30.667 28.666 -55.667 81.999 -75c5.33301 -2 9.66602 -2.66699 12.999 -2l140 27l24 5v-24v-126v-16l-16 -3l-406 -98l-25 -6v25v113v26l16 4zM161.002 1438h173h40v-40v-1357
v-40h-40h-173h-40v40v1357v40h40z" />
    <glyph glyph-name="uniFE88" unicode="&#x625;" horiz-adv-x="561" arabic-form="final" 
d="M629 129c0.666992 -43.333 -0.999023 -72.002 -4.99902 -86.002c-10 -28.667 -28.333 -43 -55 -43h-21c-140 0 -246.333 40.667 -319 122c-72.667 82 -109 199.333 -109 352v924v40h40h174h40v-40v-922c0 -75.333 14 -129.666 42 -162.999
c28.667 -32.667 73.667 -49 135 -49h18c8 0 15.167 -1.33301 21.5 -4s11.833 -5.66699 16.5 -9c4 -3.33301 7.33301 -8.66602 10 -15.999c3.33301 -6.66699 5.66602 -12.167 6.99902 -16.5s2.5 -11 3.5 -20s1.5 -15.167 1.5 -18.5v-19v-14v-18zM156.001 -494.002
c-34.667 39.333 -51.998 89.3311 -51.998 149.998c0 64 21.333 118.667 64 164c50 52.667 114 79 192 79c54 0 104.667 -15.333 152 -46l9 -6v-10l1 -132v-37l-31 20c-19.333 12.667 -39 22.334 -59 29.001c-19.333 6 -38.666 9 -57.999 9
c-36.667 0 -64.334 -9.33301 -83.001 -28c-14.667 -15.333 -22 -33.666 -22 -54.999c1.33301 -30.667 28.666 -55.667 81.999 -75c5.33301 -2 9.66602 -2.66699 12.999 -2l140 27l24 5v-24v-126v-16l-16 -3l-406 -98l-25 -6v25v113v26l16 4z" />
    <glyph glyph-name="uniFE89" unicode="&#x626;" horiz-adv-x="1524" arabic-form="isolated" 
d="M442 891c-34.667 39.333 -51.998 89.3311 -51.998 149.998c0 64 21.333 118.667 64 164c50 52.667 114 79 192 79c54 0 104.667 -15.333 152 -46l9 -6v-10l1 -132v-37l-31 20c-19.333 12.667 -39 22.334 -59 29.001c-19.333 6 -38.666 9 -57.999 9
c-36.667 0 -64.334 -9.33301 -83.001 -28c-14.667 -15.333 -22 -33.666 -22 -54.999c1.33301 -30.667 28.666 -55.667 81.999 -75c5.33301 -2 9.66602 -2.66699 12.999 -2l140 27l24 5v-24v-126v-16l-16 -3l-406 -98l-25 -6v25v113v26l16 4zM318.002 80.998
c0 -72.667 15.0039 -132.669 45.0039 -180.002c29.333 -47.333 76.166 -83.166 140.499 -107.499s146.833 -36.833 247.5 -37.5c112.667 0 213 20.333 301 61c44 20.667 82.667 48 116 82c28 28.667 42.667 62.334 44 101.001c0 4.66699 -0.333008 7.66699 -1 9
c-2 5.33301 -14.667 8 -38 8l-113 1c-91.333 0.666992 -162 21 -212 61c-51.333 41.333 -77 100.666 -77 177.999c0 136.667 43.667 252.334 131 347.001c110.667 121.333 265.667 182 465 182h21h40v-41v-192v-40h-40h-22c-98.667 0 -179.334 -22 -242.001 -66
c-57.333 -40 -88 -90.667 -92 -152c0 -6.66699 0.666992 -10.334 2 -11.001c3.33301 -3.33301 12.666 -5 27.999 -5h119c58 0.666992 107.333 -8 148 -26c41.333 -18 73.166 -45 95.499 -81s33.5 -80 33.5 -132c0 -104 -26.333 -194.667 -79 -272s-130 -139.333 -232 -186
c-59.333 -27.333 -122.333 -47.666 -189 -60.999c-67.333 -13.333 -138 -20 -212 -20c-222 0 -391.333 48.667 -508 146s-175 241 -175 431c0 148.667 47.667 330.667 143 546l16 35l36 -15l158 -65l38 -16l-16 -37c-80 -180.667 -120 -329 -120 -445z" />
    <glyph glyph-name="uniFE8A" unicode="&#x626;" horiz-adv-x="1523" arabic-form="final" 
d="M1529 264c8.66699 0 16.167 -1.33301 22.5 -4s11.666 -5.66699 15.999 -9s8 -8.5 11 -15.5s5.16699 -12.667 6.5 -17s2.5 -11 3.5 -20s1.5 -15.167 1.5 -18.5v-18.5v-14.5v-19v-18v-24.5c0 -5 -0.5 -12.833 -1.5 -23.5s-2.83301 -18.667 -5.5 -24
s-6.16699 -11.5 -10.5 -18.5s-10.166 -12 -17.499 -15s-16 -4.5 -26 -4.5h-85c10 -22.667 15 -47 15 -73c-0.666992 -116.667 -67 -217.667 -199 -303c-145.333 -94.667 -316.666 -142 -513.999 -142c-222 0 -391.333 47 -508 141s-175 233 -175 417c0 148 35 298 105 450
l16 35l36 -15l158 -65l37 -15l-15 -37c-54.667 -138.667 -82 -252.334 -82 -341.001c0 -106 34.167 -184.833 102.5 -236.5s176.5 -77.5 324.5 -77.5c111.333 0 211.333 20.333 300 61c69.333 31.333 118.333 68.333 147 111c10.667 16.667 16 31.667 16 45
c0 7.33301 -1 13.333 -3 18s-6 9.33398 -12 14.001s-15.333 8.16699 -28 10.5s-29 3.5 -49 3.5h-153h-2h-2c-30 3.33301 -54.333 16.166 -73 38.499s-32.334 50.833 -41.001 85.5c-4 16.667 -6.83301 30.334 -8.5 41.001s-2.5 21 -2.5 31c0 34 12.333 55.667 37 65l7 2h7
h644zM491 734c-34.667 39.333 -51.998 89.3311 -51.998 149.998c0 64 21.333 118.667 64 164c50 52.667 114 79 192 79c54 0 104.667 -15.333 152 -46l9 -6v-10l1 -132v-37l-31 20c-19.333 12.667 -39 22.334 -59 29.001c-19.333 6 -38.666 9 -57.999 9
c-36.667 0 -64.334 -9.33301 -83.001 -28c-14.667 -15.333 -22 -33.666 -22 -54.999c1.33301 -30.667 28.666 -55.667 81.999 -75c5.33301 -2 9.66602 -2.66699 12.999 -2l140 27l24 5v-24v-126v-16l-16 -3l-406 -98l-25 -6v25v113v26l16 4z" />
    <glyph glyph-name="uniFE8B" unicode="&#x626;" horiz-adv-x="646" arabic-form="initial" 
d="M69 0h-75.999c-32.667 -0 -57.167 12.333 -73.5 37s-24.5 55 -24.5 91v19c0 32.667 8.5 60.334 25.5 83.001s41.167 34 72.5 34h76c99.333 0 165 9 197 27c43.333 25.333 65 83.333 65 174c0 76 -11.667 161 -35 255l-10 39l39 9l163 41l36 10l12 -36
c33.333 -108 50 -213 50 -315c-0.666992 -176.667 -52.667 -304.334 -156 -383.001c-20 -14.667 -42.5 -27.5 -67.5 -38.5s-52.667 -19.833 -83 -26.5s-62.833 -11.667 -97.5 -15s-72.334 -5 -113.001 -5zM141.001 1033c-34.667 39.333 -51.998 89.3311 -51.998 149.998
c0 64 21.333 118.667 64 164c50 52.667 114 79 192 79c54 0 104.667 -15.333 152 -46l9 -6v-10l1 -132v-37l-31 20c-19.333 12.667 -39 22.334 -59 29.001c-19.333 6 -38.666 9 -57.999 9c-36.667 0 -64.334 -9.33301 -83.001 -28c-14.667 -15.333 -22 -33.666 -22 -54.999
c1.33301 -30.667 28.666 -55.667 81.999 -75c5.33301 -2 9.66602 -2.66699 12.999 -2l140 27l24 5v-24v-126v-16l-16 -3l-406 -98l-25 -6v25v113v26l16 4z" />
    <glyph glyph-name="uniFE8C" unicode="&#x626;" horiz-adv-x="717" arabic-form="medial" 
d="M785 128v-15.998v-20.5c0 -5 -0.333008 -11.833 -1 -20.5s-1.66699 -15.834 -3 -21.501s-3.5 -12 -6.5 -19s-6.66699 -12.5 -11 -16.5s-9.83301 -7.33301 -16.5 -10s-14 -4 -22 -4h-10c-123.333 0 -215.666 38 -276.999 114c-76.667 -76 -190.667 -114 -342 -114h-104
c-32.667 0 -57 12.5 -73 37.5s-24 55.167 -24 90.5v19c0 21.333 3.33301 40.5 10 57.5s17.5 31.167 32.5 42.5s33.167 17 54.5 17h99c132 0 204 33 216 99c4 21.333 6 46.666 6 75.999c0 32.667 -1 63.334 -3 92.001l-5 82l-3 38l38 4l165 20l41 4l3 -41l16 -232
c4 -50.667 17.667 -87 41 -109s60.333 -33 111 -33h8c9.33301 0 17.666 -1.5 24.999 -4.5s13 -7.83301 17 -14.5s7.5 -12.834 10.5 -18.501s5 -13.667 6 -24s1.5 -17.833 1.5 -22.5v-23.5v-18.5v-10zM168 927.002c-34.667 39.333 -51.998 89.3311 -51.998 149.998
c0 64 21.333 118.667 64 164c50 52.667 114 79 192 79c54 0 104.667 -15.333 152 -46l9 -6v-10l1 -132v-37l-31 20c-19.333 12.667 -39 22.334 -59 29.001c-19.333 6 -38.666 9 -57.999 9c-36.667 0 -64.334 -9.33301 -83.001 -28c-14.667 -15.333 -22 -33.666 -22 -54.999
c1.33301 -30.667 28.666 -55.667 81.999 -75c5.33301 -2 9.66602 -2.66699 12.999 -2l140 27l24 5v-24v-126v-16l-16 -3l-406 -98l-25 -6v25v113v26l16 4z" />
    <glyph glyph-name="uniFE8D" unicode="&#x627;" horiz-adv-x="487" arabic-form="isolated" 
d="M161 1438h173h40v-40v-1357v-40h-40h-173h-40v40v1357v40h40z" />
    <glyph glyph-name="uniFE8E" unicode="&#x627;" horiz-adv-x="561" arabic-form="final" 
d="M629 129c0.666992 -43.333 -0.999023 -72.002 -4.99902 -86.002c-10 -28.667 -28.333 -43 -55 -43h-21c-140 0 -246.333 40.667 -319 122c-72.667 82 -109 199.333 -109 352v924v40h40h174h40v-40v-922c0 -75.333 14 -129.666 42 -162.999
c28.667 -32.667 73.667 -49 135 -49h18c8 0 15.167 -1.33301 21.5 -4s11.833 -5.66699 16.5 -9c4 -3.33301 7.33301 -8.66602 10 -15.999c3.33301 -6.66699 5.66602 -12.167 6.99902 -16.5s2.5 -11 3.5 -20s1.5 -15.167 1.5 -18.5v-19v-14v-18z" />
    <glyph glyph-name="uniFE8F" unicode="&#x628;" horiz-adv-x="1837" arabic-form="isolated" 
d="M891 0c-270 0 -476.001 43.668 -618.001 131.001s-213 219 -213 395c0 96 19.333 187 58 273l16 36l37 -16l157 -68l36 -16l-14 -36c-20.667 -50.667 -31 -98.667 -31 -144c0 -63.333 18.5 -116 55.5 -158s96.833 -74.667 179.5 -98s188.667 -35 318 -35
c161.333 0 293.833 8 397.5 24s173.834 37.333 210.501 64c7.33301 5.33301 13.833 11.833 19.5 19.5s10.667 17 15 28s7.66602 23.667 9.99902 38s3.5 30.166 3.5 47.499c0 28 -3 61.833 -9 101.5s-14.667 84.834 -26 135.501l-9 38l38 9l163 41l36 10l12 -36
c34.667 -104.667 52 -199.334 52 -284.001c0 -84 -12.833 -157 -38.5 -219s-64.5 -111 -116.5 -147c-127.333 -89.333 -372.666 -134 -735.999 -134h-3zM777.222 -301.815l145.513 145.513l14.9795 14.9795l14.9795 -14.9795l146.582 -146.583l14.9795 -14.9785
l-14.9795 -14.9795l-145.513 -145.513l-14.9785 -14.9795l-14.9795 14.9795l-146.583 146.583l-14.9785 14.9785z" />
    <glyph glyph-name="uniFE90" unicode="&#x628;" horiz-adv-x="1931" arabic-form="final" 
d="M890 0c-270 0 -476.001 43.6641 -618.001 130.997s-213 219 -213 395c0 96 19.333 187 58 273l16 36l37 -16l157 -68l36 -16l-14 -36c-10.667 -25.333 -18.5 -50.166 -23.5 -74.499s-7.5 -48.166 -7.5 -71.499c0 -26 3.5 -50.333 10.5 -73s17.5 -44 31.5 -64
s31.833 -37.833 53.5 -53.5s47.834 -29.667 78.501 -42s65.167 -22.666 103.5 -30.999s81.833 -14.666 130.5 -18.999s101.667 -6.5 159 -6.5c167.333 0 303 10.5 407 31.5s173 49.5 207 85.5c6.66699 7.33301 12.167 18.833 16.5 34.5s6.5 35.834 6.5 60.501v21
c0 6.66699 -0.166992 12.667 -0.5 18s-0.5 10.333 -0.5 15l-6 82l-2 38l37 4l165 20l42 4l3 -41l16 -215c3.33301 -48.667 17 -88.334 41 -119.001c10 -12.667 23.833 -22.334 41.5 -29.001s40.167 -10 67.5 -10h13c8 0 15.333 -1.33301 22 -4s12 -5.66699 16 -9
s7.5 -8.5 10.5 -15.5s5.33301 -12.667 7 -17s2.83398 -11 3.50098 -20s1 -15.167 1 -18.5v-18.5v-14.5v-19c0 -1.33301 0.166992 -7.5 0.5 -18.5s0.333008 -19 0 -24s-1 -12.667 -2 -23s-2.83301 -18.5 -5.5 -24.5s-6.16699 -12.333 -10.5 -19s-10 -11.5 -17 -14.5
s-15.5 -4.5 -25.5 -4.5h-13c-67.333 0 -127.333 13 -180 39s-96 64.333 -130 115c-130.667 -102.667 -371.334 -154 -722.001 -154h-4zM747.222 -301.819l145.513 145.513l14.9795 14.9795l14.9795 -14.9795l146.582 -146.583l14.9795 -14.9785l-14.9795 -14.9795
l-145.513 -145.513l-14.9785 -14.9795l-14.9795 14.9795l-146.583 146.583l-14.9785 14.9785z" />
    <glyph glyph-name="uniFE91" unicode="&#x628;" horiz-adv-x="646" arabic-form="initial" 
d="M69 0h-75.999c-32.667 -0 -57.167 12.333 -73.5 37s-24.5 55 -24.5 91v19c0 32.667 8.5 60.334 25.5 83.001s41.167 34 72.5 34h76c99.333 0 165 9 197 27c43.333 25.333 65 83.333 65 174c0 76 -11.667 161 -35 255l-10 39l39 9l163 41l36 10l12 -36
c33.333 -108 50 -213 50 -315c-0.666992 -176.667 -52.667 -304.334 -156 -383.001c-20 -14.667 -42.5 -27.5 -67.5 -38.5s-52.667 -19.833 -83 -26.5s-62.833 -11.667 -97.5 -15s-72.334 -5 -113.001 -5zM107.224 -301.816l145.513 145.513l14.9795 14.9795
l14.9795 -14.9795l146.582 -146.583l14.9795 -14.9785l-14.9795 -14.9795l-145.513 -145.513l-14.9785 -14.9795l-14.9795 14.9795l-146.583 146.583l-14.9785 14.9785z" />
    <glyph glyph-name="uniFE92" unicode="&#x628;" horiz-adv-x="717" arabic-form="medial" 
d="M785 128v-15.998v-20.5c0 -5 -0.333008 -11.833 -1 -20.5s-1.66699 -15.834 -3 -21.501s-3.5 -12 -6.5 -19s-6.66699 -12.5 -11 -16.5s-9.83301 -7.33301 -16.5 -10s-14 -4 -22 -4h-10c-123.333 0 -215.666 38 -276.999 114c-76.667 -76 -190.667 -114 -342 -114h-104
c-32.667 0 -57 12.5 -73 37.5s-24 55.167 -24 90.5v19c0 21.333 3.33301 40.5 10 57.5s17.5 31.167 32.5 42.5s33.167 17 54.5 17h99c132 0 204 33 216 99c4 21.333 6 46.666 6 75.999c0 32.667 -1 63.334 -3 92.001l-5 82l-3 38l38 4l165 20l41 4l3 -41l16 -232
c4 -50.667 17.667 -87 41 -109s60.333 -33 111 -33h8c9.33301 0 17.666 -1.5 24.999 -4.5s13 -7.83301 17 -14.5s7.5 -12.834 10.5 -18.501s5 -13.667 6 -24s1.5 -17.833 1.5 -22.5v-23.5v-18.5v-10zM146.223 -301.814l145.513 145.513l14.9795 14.9795l14.9795 -14.9795
l146.582 -146.583l14.9795 -14.9785l-14.9795 -14.9795l-145.513 -145.513l-14.9785 -14.9795l-14.9795 14.9795l-146.583 146.583l-14.9785 14.9785z" />
    <glyph glyph-name="uniFE93" unicode="&#x629;" horiz-adv-x="942" arabic-form="isolated" 
d="M463 632c-51.333 -48 -89.335 -92.3311 -114.002 -132.998s-37 -76.667 -37 -108c0 -22 2.66699 -40.833 8 -56.5s14.5 -28.834 27.5 -39.501s29.833 -18.5 50.5 -23.5s46.334 -7.5 77.001 -7.5c60.667 0 103.5 10.167 128.5 30.5s37.167 52.833 36.5 97.5
c0 27.333 -14.667 61.666 -44 102.999s-73.666 87 -132.999 137zM415.998 1028c156.667 -114 275.001 -224.168 355.001 -330.501s120 -210.166 120 -311.499c0 -140.667 -61.333 -249 -184 -325c-58.667 -37.333 -135.667 -56.333 -231 -57
c-86.667 0 -161.334 15.667 -224.001 47c-63.333 31.333 -111 75.5 -143 132.5s-48 124.5 -48 202.5c0 138.667 72.667 283.667 218 435l-12 11l-28 24l22 30l100 133l23 32zM141.921 1295.18l145.514 145.513l14.9785 14.9795l14.9795 -14.9795l146.583 -146.583
l1.06934 -1.06934l2.13965 2.13965l145.514 145.513l14.9785 14.9795l14.9795 -14.9795l146.583 -146.583l14.9785 -14.9785l-14.9785 -14.9795l-145.513 -145.513l-14.9795 -14.9795l-14.9795 14.9795l-146.583 146.583l-1.06934 1.06934l-2.13965 -2.13965
l-145.513 -145.513l-14.9795 -14.9795l-14.9795 14.9795l-146.583 146.583l-14.9785 14.9785z" />
    <glyph glyph-name="uniFE94" unicode="&#x629;" horiz-adv-x="1063" arabic-form="final" 
d="M71 446c0 208.667 170.997 369.004 512.997 481.004l-2 11l-7 38l38 8l163 34l41 8l6 -42l83 -591c6 -46 20.333 -79 43 -99s57 -30 103 -30h20c6 0 11.833 -0.833008 17.5 -2.5s10.334 -3.66699 14.001 -6s7.16699 -5.66602 10.5 -9.99902s6 -8.33301 8 -12
s3.66699 -8.33398 5 -14.001s2.33301 -10.334 3 -14.001s1.16699 -8.83398 1.5 -15.501s0.5 -11.334 0.5 -14.001v-13v-11v-24c0 -1.33301 0.166992 -7.5 0.5 -18.5s0.333008 -19 0 -24s-1 -12.833 -2 -23.5s-2.83301 -18.834 -5.5 -24.501s-6.16699 -11.834 -10.5 -18.501
s-10.166 -11.5 -17.499 -14.5s-15.666 -4.5 -24.999 -4.5h-24c-86 0 -158.5 16.667 -217.5 50s-101.5 83 -127.5 149c-74.667 -51.333 -157 -77 -247 -77c-164 0 -279 55 -345 165c-13.333 22.667 -23.333 47.334 -30 74.001s-10 55 -10 85zM622.997 679.004
c-52.667 -20 -98.333 -40.498 -137 -61.498s-69.167 -40.833 -91.5 -59.5s-38.833 -36.334 -49.5 -53.001s-16 -32.334 -16 -47.001c0 -28.667 8.5 -49.5 25.5 -62.5s48.5 -19.5 94.5 -19.5c44.667 0 89.334 13.667 134.001 41c25.333 15.333 42.666 34.833 51.999 58.5
s11 54.167 5 91.5zM270.92 1299.19l145.514 145.513l14.9785 14.9795l14.9795 -14.9795l146.583 -146.583l1.06934 -1.06934l2.13965 2.13965l145.514 145.513l14.9785 14.9795l14.9795 -14.9795l146.583 -146.583l14.9785 -14.9785l-14.9785 -14.9795l-145.513 -145.513
l-14.9795 -14.9795l-14.9795 14.9795l-146.583 146.583l-1.06934 1.06934l-2.13965 -2.13965l-145.513 -145.513l-14.9795 -14.9795l-14.9795 14.9795l-146.583 146.583l-14.9785 14.9785z" />
    <glyph glyph-name="uniFE95" unicode="&#x62a;" horiz-adv-x="1837" arabic-form="isolated" 
d="M891 0c-270 0 -476.001 43.668 -618.001 131.001s-213 219 -213 395c0 96 19.333 187 58 273l16 36l37 -16l157 -68l36 -16l-14 -36c-20.667 -50.667 -31 -98.667 -31 -144c0 -63.333 18.5 -116 55.5 -158s96.833 -74.667 179.5 -98s188.667 -35 318 -35
c161.333 0 293.833 8 397.5 24s173.834 37.333 210.501 64c7.33301 5.33301 13.833 11.833 19.5 19.5s10.667 17 15 28s7.66602 23.667 9.99902 38s3.5 30.166 3.5 47.499c0 28 -3 61.833 -9 101.5s-14.667 84.834 -26 135.501l-9 38l38 9l163 41l36 10l12 -36
c34.667 -104.667 52 -199.334 52 -284.001c0 -84 -12.833 -157 -38.5 -219s-64.5 -111 -116.5 -147c-127.333 -89.333 -372.666 -134 -735.999 -134h-3zM596.921 957.185l145.514 145.513l14.9785 14.9795l14.9795 -14.9795l146.583 -146.583l1.06934 -1.06934
l2.13965 2.13965l145.514 145.513l14.9785 14.9795l14.9795 -14.9795l146.583 -146.583l14.9785 -14.9785l-14.9785 -14.9795l-145.513 -145.513l-14.9795 -14.9795l-14.9795 14.9795l-146.583 146.583l-1.06934 1.06934l-2.13965 -2.13965l-145.513 -145.513
l-14.9795 -14.9795l-14.9795 14.9795l-146.583 146.583l-14.9785 14.9785z" />
    <glyph glyph-name="uniFE96" unicode="&#x62a;" horiz-adv-x="1931" arabic-form="final" 
d="M890 0c-270 0 -476.001 43.6641 -618.001 130.997s-213 219 -213 395c0 96 19.333 187 58 273l16 36l37 -16l157 -68l36 -16l-14 -36c-10.667 -25.333 -18.5 -50.166 -23.5 -74.499s-7.5 -48.166 -7.5 -71.499c0 -26 3.5 -50.333 10.5 -73s17.5 -44 31.5 -64
s31.833 -37.833 53.5 -53.5s47.834 -29.667 78.501 -42s65.167 -22.666 103.5 -30.999s81.833 -14.666 130.5 -18.999s101.667 -6.5 159 -6.5c167.333 0 303 10.5 407 31.5s173 49.5 207 85.5c6.66699 7.33301 12.167 18.833 16.5 34.5s6.5 35.834 6.5 60.501v21
c0 6.66699 -0.166992 12.667 -0.5 18s-0.5 10.333 -0.5 15l-6 82l-2 38l37 4l165 20l42 4l3 -41l16 -215c3.33301 -48.667 17 -88.334 41 -119.001c10 -12.667 23.833 -22.334 41.5 -29.001s40.167 -10 67.5 -10h13c8 0 15.333 -1.33301 22 -4s12 -5.66699 16 -9
s7.5 -8.5 10.5 -15.5s5.33301 -12.667 7 -17s2.83398 -11 3.50098 -20s1 -15.167 1 -18.5v-18.5v-14.5v-19c0 -1.33301 0.166992 -7.5 0.5 -18.5s0.333008 -19 0 -24s-1 -12.667 -2 -23s-2.83301 -18.5 -5.5 -24.5s-6.16699 -12.333 -10.5 -19s-10 -11.5 -17 -14.5
s-15.5 -4.5 -25.5 -4.5h-13c-67.333 0 -127.333 13 -180 39s-96 64.333 -130 115c-130.667 -102.667 -371.334 -154 -722.001 -154h-4zM619.921 957.181l145.514 145.513l14.9785 14.9795l14.9795 -14.9795l146.583 -146.583l1.06934 -1.06934l2.13965 2.13965
l145.514 145.513l14.9785 14.9795l14.9795 -14.9795l146.583 -146.583l14.9785 -14.9785l-14.9785 -14.9795l-145.513 -145.513l-14.9795 -14.9795l-14.9795 14.9795l-146.583 146.583l-1.06934 1.06934l-2.13965 -2.13965l-145.513 -145.513l-14.9795 -14.9795
l-14.9795 14.9795l-146.583 146.583l-14.9785 14.9785z" />
    <glyph glyph-name="uniFE97" unicode="&#x62a;" horiz-adv-x="709" arabic-form="initial" 
d="M69 0h-75.999c-32.667 -0 -57.167 12.333 -73.5 37s-24.5 55 -24.5 91v19c0 32.667 8.5 60.334 25.5 83.001s41.167 34 72.5 34h76c99.333 0 165 9 197 27c43.333 25.333 65 83.333 65 174c0 76 -11.667 161 -35 255l-10 39l39 9l163 41l36 10l12 -36
c33.333 -108 50 -213 50 -315c-0.666992 -176.667 -52.667 -304.334 -156 -383.001c-20 -14.667 -42.5 -27.5 -67.5 -38.5s-52.667 -19.833 -83 -26.5s-62.833 -11.667 -97.5 -15s-72.334 -5 -113.001 -5zM-21.0771 1120.18l145.514 145.513l14.9785 14.9795
l14.9795 -14.9795l146.583 -146.583l1.06934 -1.06934l2.13965 2.13965l145.514 145.513l14.9785 14.9795l14.9795 -14.9795l146.583 -146.583l14.9785 -14.9785l-14.9785 -14.9795l-145.513 -145.513l-14.9795 -14.9795l-14.9795 14.9795l-146.583 146.583
l-1.06934 1.06934l-2.13965 -2.13965l-145.513 -145.513l-14.9795 -14.9795l-14.9795 14.9795l-146.583 146.583l-14.9785 14.9785z" />
    <glyph glyph-name="uniFE98" unicode="&#x62a;" horiz-adv-x="717" arabic-form="medial" 
d="M785 128v-15.998v-20.5c0 -5 -0.333008 -11.833 -1 -20.5s-1.66699 -15.834 -3 -21.501s-3.5 -12 -6.5 -19s-6.66699 -12.5 -11 -16.5s-9.83301 -7.33301 -16.5 -10s-14 -4 -22 -4h-10c-123.333 0 -215.666 38 -276.999 114c-76.667 -76 -190.667 -114 -342 -114h-104
c-32.667 0 -57 12.5 -73 37.5s-24 55.167 -24 90.5v19c0 21.333 3.33301 40.5 10 57.5s17.5 31.167 32.5 42.5s33.167 17 54.5 17h99c132 0 204 33 216 99c4 21.333 6 46.666 6 75.999c0 32.667 -1 63.334 -3 92.001l-5 82l-3 38l38 4l165 20l41 4l3 -41l16 -232
c4 -50.667 17.667 -87 41 -109s60.333 -33 111 -33h8c9.33301 0 17.666 -1.5 24.999 -4.5s13 -7.83301 17 -14.5s7.5 -12.834 10.5 -18.501s5 -13.667 6 -24s1.5 -17.833 1.5 -22.5v-23.5v-18.5v-10zM-24.0781 1037.19l145.514 145.513l14.9785 14.9795l14.9795 -14.9795
l146.583 -146.583l1.06934 -1.06934l2.13965 2.13965l145.514 145.513l14.9785 14.9795l14.9795 -14.9795l146.583 -146.583l14.9785 -14.9785l-14.9785 -14.9795l-145.513 -145.513l-14.9795 -14.9795l-14.9795 14.9795l-146.583 146.583l-1.06934 1.06934
l-2.13965 -2.13965l-145.513 -145.513l-14.9795 -14.9795l-14.9795 14.9795l-146.583 146.583l-14.9785 14.9785z" />
    <glyph glyph-name="uniFE99" unicode="&#x62b;" horiz-adv-x="1837" arabic-form="isolated" 
d="M891 0c-270 0 -476.001 43.668 -618.001 131.001s-213 219 -213 395c0 96 19.333 187 58 273l16 36l37 -16l157 -68l36 -16l-14 -36c-20.667 -50.667 -31 -98.667 -31 -144c0 -63.333 18.5 -116 55.5 -158s96.833 -74.667 179.5 -98s188.667 -35 318 -35
c161.333 0 293.833 8 397.5 24s173.834 37.333 210.501 64c7.33301 5.33301 13.833 11.833 19.5 19.5s10.667 17 15 28s7.66602 23.667 9.99902 38s3.5 30.166 3.5 47.499c0 28 -3 61.833 -9 101.5s-14.667 84.834 -26 135.501l-9 38l38 9l163 41l36 10l12 -36
c34.667 -104.667 52 -199.334 52 -284.001c0 -84 -12.833 -157 -38.5 -219s-64.5 -111 -116.5 -147c-127.333 -89.333 -372.666 -134 -735.999 -134h-3zM600.131 894.855l142.304 142.303l14.9785 14.9795l14.9795 -14.9795l143.373 -143.372l4.2793 -4.28027
l5.34961 5.34961l142.304 142.303l14.9785 14.9795l14.9795 -14.9795l143.373 -143.372l14.9795 -14.9795l-14.9795 -14.9795l-142.303 -142.303l-14.9795 -14.9795l-14.9795 14.9795l-143.373 143.373l-4.2793 4.2793l-5.34961 -5.34961l-142.303 -142.303
l-14.9795 -14.9795l-14.9795 14.9795l-143.373 143.373l-14.9785 14.9785zM760.623 1163.41l142.303 142.303l14.9795 14.9795l14.9795 -14.9795l143.372 -143.372l14.9795 -14.9795l-14.9795 -14.9795l-142.303 -142.303l-14.9785 -14.9795l-14.9795 14.9795
l-143.373 143.373l-14.9795 14.9785z" />
    <glyph glyph-name="uniFE9A" unicode="&#x62b;" horiz-adv-x="1931" arabic-form="final" 
d="M890 0c-270 0 -476.001 43.6641 -618.001 130.997s-213 219 -213 395c0 96 19.333 187 58 273l16 36l37 -16l157 -68l36 -16l-14 -36c-10.667 -25.333 -18.5 -50.166 -23.5 -74.499s-7.5 -48.166 -7.5 -71.499c0 -26 3.5 -50.333 10.5 -73s17.5 -44 31.5 -64
s31.833 -37.833 53.5 -53.5s47.834 -29.667 78.501 -42s65.167 -22.666 103.5 -30.999s81.833 -14.666 130.5 -18.999s101.667 -6.5 159 -6.5c167.333 0 303 10.5 407 31.5s173 49.5 207 85.5c6.66699 7.33301 12.167 18.833 16.5 34.5s6.5 35.834 6.5 60.501v21
c0 6.66699 -0.166992 12.667 -0.5 18s-0.5 10.333 -0.5 15l-6 82l-2 38l37 4l165 20l42 4l3 -41l16 -215c3.33301 -48.667 17 -88.334 41 -119.001c10 -12.667 23.833 -22.334 41.5 -29.001s40.167 -10 67.5 -10h13c8 0 15.333 -1.33301 22 -4s12 -5.66699 16 -9
s7.5 -8.5 10.5 -15.5s5.33301 -12.667 7 -17s2.83398 -11 3.50098 -20s1 -15.167 1 -18.5v-18.5v-14.5v-19c0 -1.33301 0.166992 -7.5 0.5 -18.5s0.333008 -19 0 -24s-1 -12.667 -2 -23s-2.83301 -18.5 -5.5 -24.5s-6.16699 -12.333 -10.5 -19s-10 -11.5 -17 -14.5
s-15.5 -4.5 -25.5 -4.5h-13c-67.333 0 -127.333 13 -180 39s-96 64.333 -130 115c-130.667 -102.667 -371.334 -154 -722.001 -154h-4zM619.131 892.852l142.304 142.303l14.9785 14.9795l14.9795 -14.9795l143.373 -143.372l4.2793 -4.28027l5.34961 5.34961
l142.304 142.303l14.9785 14.9795l14.9795 -14.9795l143.373 -143.372l14.9795 -14.9795l-14.9795 -14.9795l-142.303 -142.303l-14.9795 -14.9795l-14.9795 14.9795l-143.373 143.373l-4.2793 4.2793l-5.34961 -5.34961l-142.303 -142.303l-14.9795 -14.9795
l-14.9795 14.9795l-143.373 143.373l-14.9785 14.9785zM779.623 1161.41l142.303 142.303l14.9795 14.9795l14.9795 -14.9795l143.372 -143.372l14.9795 -14.9795l-14.9795 -14.9795l-142.303 -142.303l-14.9785 -14.9795l-14.9795 14.9795l-143.373 143.373
l-14.9795 14.9785z" />
    <glyph glyph-name="uniFE9B" unicode="&#x62b;" horiz-adv-x="708" arabic-form="initial" 
d="M69 0h-75.999c-32.667 -0 -57.167 12.333 -73.5 37s-24.5 55 -24.5 91v19c0 32.667 8.5 60.334 25.5 83.001s41.167 34 72.5 34h76c99.333 0 165 9 197 27c43.333 25.333 65 83.333 65 174c0 76 -11.667 161 -35 255l-10 39l39 9l163 41l36 10l12 -36
c33.333 -108 50 -213 50 -315c-0.666992 -176.667 -52.667 -304.334 -156 -383.001c-20 -14.667 -42.5 -27.5 -67.5 -38.5s-52.667 -19.833 -83 -26.5s-62.833 -11.667 -97.5 -15s-72.334 -5 -113.001 -5zM-35.8672 1105.85l142.304 142.303l14.9785 14.9795
l14.9795 -14.9795l143.373 -143.372l4.2793 -4.28027l5.34961 5.34961l142.304 142.303l14.9785 14.9795l14.9795 -14.9795l143.373 -143.372l14.9795 -14.9795l-14.9795 -14.9795l-142.303 -142.303l-14.9795 -14.9795l-14.9795 14.9795l-143.373 143.373l-4.2793 4.2793
l-5.34961 -5.34961l-142.303 -142.303l-14.9795 -14.9795l-14.9795 14.9795l-143.373 143.373l-14.9785 14.9785zM124.625 1374.41l142.303 142.303l14.9795 14.9795l14.9795 -14.9795l143.372 -143.372l14.9795 -14.9795l-14.9795 -14.9795l-142.303 -142.303
l-14.9785 -14.9795l-14.9795 14.9795l-143.373 143.373l-14.9795 14.9785z" />
    <glyph glyph-name="uniFE9C" unicode="&#x62b;" horiz-adv-x="717" arabic-form="medial" 
d="M785 128v-15.998v-20.5c0 -5 -0.333008 -11.833 -1 -20.5s-1.66699 -15.834 -3 -21.501s-3.5 -12 -6.5 -19s-6.66699 -12.5 -11 -16.5s-9.83301 -7.33301 -16.5 -10s-14 -4 -22 -4h-10c-123.333 0 -215.666 38 -276.999 114c-76.667 -76 -190.667 -114 -342 -114h-104
c-32.667 0 -57 12.5 -73 37.5s-24 55.167 -24 90.5v19c0 21.333 3.33301 40.5 10 57.5s17.5 31.167 32.5 42.5s33.167 17 54.5 17h99c132 0 204 33 216 99c4 21.333 6 46.666 6 75.999c0 32.667 -1 63.334 -3 92.001l-5 82l-3 38l38 4l165 20l41 4l3 -41l16 -232
c4 -50.667 17.667 -87 41 -109s60.333 -33 111 -33h8c9.33301 0 17.666 -1.5 24.999 -4.5s13 -7.83301 17 -14.5s7.5 -12.834 10.5 -18.501s5 -13.667 6 -24s1.5 -17.833 1.5 -22.5v-23.5v-18.5v-10zM-30.8682 1008.86l142.304 142.303l14.9785 14.9795l14.9795 -14.9795
l143.373 -143.372l4.2793 -4.28027l5.34961 5.34961l142.304 142.303l14.9785 14.9795l14.9795 -14.9795l143.373 -143.372l14.9795 -14.9795l-14.9795 -14.9795l-142.303 -142.303l-14.9795 -14.9795l-14.9795 14.9795l-143.373 143.373l-4.2793 4.2793l-5.34961 -5.34961
l-142.303 -142.303l-14.9795 -14.9795l-14.9795 14.9795l-143.373 143.373l-14.9785 14.9785zM129.624 1277.41l142.303 142.303l14.9795 14.9795l14.9795 -14.9795l143.372 -143.372l14.9795 -14.9795l-14.9795 -14.9795l-142.303 -142.303l-14.9785 -14.9795
l-14.9795 14.9795l-143.373 143.373l-14.9795 14.9785z" />
    <glyph glyph-name="uniFE9D" unicode="&#x62c;" horiz-adv-x="1366" arabic-form="isolated" 
d="M85 -105c0 188 53.6719 345.331 161.005 471.998s265.666 220.334 474.999 281.001c-124.667 50.667 -208.334 76 -251.001 76c-62.667 0 -114.334 -26 -155.001 -78l-28 -36l-20 -26l-29 14l-154 76l-39 19l23 38l16 27c45.333 74.667 100.666 131.167 165.999 169.5
s139 57.833 221 58.5c18.667 0 38 -1.16699 58 -3.5s40.333 -6 61 -11s42 -11.167 64 -18.5s44.5 -15.666 67.5 -24.999s46.5 -20 70.5 -32c203.333 -98.667 359.333 -150.334 468 -155.001l41 -2l-3 -41l-13 -174l-3 -35l-35 -2
c-57.333 -3.33301 -109.833 -8.16602 -157.5 -14.499s-90.167 -13.5 -127.5 -21.5c-213.333 -50 -371.166 -120 -473.499 -210s-153.5 -200 -153.5 -330c0 -110 39.333 -192.333 118 -247s203 -82 373 -82c138.667 0 272 30.667 400 92l46 22l11 -50l36 -179l6 -31l-28 -13
c-138.667 -67.333 -300.334 -101 -485.001 -101c-268.667 0 -464.334 66.333 -587.001 199c-93.333 100 -140 224.667 -140 374zM644.228 -9.81836l145.513 145.513l14.9795 14.9795l14.9795 -14.9795l146.582 -146.583l14.9795 -14.9785l-14.9795 -14.9795
l-145.513 -145.513l-14.9785 -14.9795l-14.9795 14.9795l-146.583 146.583l-14.9785 14.9785z" />
    <glyph glyph-name="uniFE9E" unicode="&#x62c;" horiz-adv-x="1386" arabic-form="final" 
d="M1298 698l-12.998 -174.002l-3 -34l-34 -3c-27.333 -2 -54.166 -4.33301 -80.499 -7s-51.833 -5.66699 -76.5 -9c4 -72 25 -124.5 63 -157.5s96.667 -49.5 176 -49.5h64c7.33301 0 14 -0.833008 20 -2.5s11 -4.5 15 -8.5s7.5 -7.66699 10.5 -11
s5.33301 -8.16602 7 -14.499s3.16699 -11.5 4.5 -15.5s2.16602 -9.66699 2.49902 -17s0.5 -12.5 0.5 -15.5v-15.5v-12v-24c0 -1.33301 0.166992 -7.5 0.5 -18.5s0.333008 -19 0 -24s-1 -12.667 -2 -23s-2.83301 -18.5 -5.5 -24.5s-6.16699 -12.333 -10.5 -19
s-10.166 -11.5 -17.499 -14.5s-15.666 -4.5 -24.999 -4.5h-63c-146.667 0 -260.5 36.167 -341.5 108.5s-125.167 177.5 -132.5 315.5c-178 -50 -309.5 -117.667 -394.5 -203s-127.5 -188.666 -127.5 -309.999c0 -110 39.333 -192.333 118 -247s203 -82 373 -82
c138.667 0 272 30.667 400 92l46 22l11 -50l36 -179l6 -31l-28 -13c-138.667 -67.333 -300.334 -101 -485.001 -101c-268.667 0 -464.334 66.333 -587.001 199c-93.333 100 -140 224.667 -140 374c0 188.667 53.667 346.167 161 472.5s265.666 219.833 474.999 280.5
c-124.667 50.667 -208.334 76 -251.001 76c-21.333 0 -41 -2.83301 -59 -8.5s-35 -14.167 -51 -25.5s-31 -26 -45 -44l-28 -36l-20 -26l-29 14l-154 76l-39 19l23 38l16 27c92 152 221.333 228 388 228c23.333 0 47.5 -2 72.5 -6s50.833 -9.66699 77.5 -17
s54.167 -16.666 82.5 -27.999s57.5 -24.333 87.5 -39c203.333 -98.667 359.333 -150.334 468 -155.001l41 -2zM551.225 -49.8184l145.513 145.513l14.9795 14.9795l14.9795 -14.9795l146.582 -146.583l14.9795 -14.9785l-14.9795 -14.9795l-145.513 -145.513
l-14.9785 -14.9795l-14.9795 14.9795l-146.583 146.583l-14.9785 14.9785z" />
    <glyph glyph-name="uniFE9F" unicode="&#x62c;" horiz-adv-x="1337" arabic-form="initial" 
d="M546.223 -301.816l145.513 145.513l14.9795 14.9795l14.9795 -14.9795l146.582 -146.583l14.9795 -14.9785l-14.9795 -14.9795l-145.513 -145.513l-14.9785 -14.9795l-14.9795 14.9795l-146.583 146.583l-14.9785 14.9785zM-7 0c-32.667 0 -57.166 12.333 -73.499 37
s-24.5 55 -24.5 91v19c0 32.667 8.5 60.334 25.5 83.001s41.167 34 72.5 34h60c212 0 475.667 81 791 243l-132 53c-126 50.667 -210 76 -252 76c-62.667 0 -114.334 -26 -155.001 -78l-28 -37l-20 -25l-29 14l-154 76l-39 19l23 38l16 27
c45.333 74.667 100.666 131.167 165.999 169.5s139 57.833 221 58.5c90.667 0 197.667 -30 321 -90c203.333 -98.667 359.333 -150.334 468 -155.001l38 -2v-39l-2 -173v-37l-36 -3c-72 -6 -208.667 -62 -410 -168c-291.333 -154 -557.666 -231 -798.999 -231h-48z" />
    <glyph glyph-name="uniFEA0" unicode="&#x62c;" horiz-adv-x="1351" arabic-form="medial" 
d="M547.223 -301.816l145.513 145.513l14.9795 14.9795l14.9795 -14.9795l146.582 -146.583l14.9795 -14.9785l-14.9795 -14.9795l-145.513 -145.513l-14.9785 -14.9795l-14.9795 14.9795l-146.583 146.583l-14.9785 14.9785zM844 507l-58.998 23.499l-73 29.5
c-126 50.667 -210 76 -252 76c-62.667 0 -114.334 -26 -155.001 -78l-28 -37l-20 -25l-29 14l-154 76l-39 19l23 38l16 27c45.333 74.667 100.666 131.167 165.999 169.5s139 57.833 221 58.5c90.667 0 197.667 -30 321 -90c203.333 -98.667 359.333 -150.334 468 -155.001
l38 -2v-39l-2 -173v-37l-37 -3c-44 -3.33301 -99.333 -20.666 -166 -51.999c7.33301 -24.667 29.666 -44.667 66.999 -60s93 -23 167 -23h44c6.66699 0 13 -0.833008 19 -2.5s11 -4.5 15 -8.5s7.5 -7.66699 10.5 -11s5.5 -8.16602 7.5 -14.499s3.5 -11.5 4.5 -15.5
s1.66699 -9.83301 2 -17.5s0.666016 -12.834 0.999023 -15.501s0.5 -7.66699 0.5 -15v-12v-24v-18v-24c0 -4.66699 -0.5 -12.5 -1.5 -23.5s-2.83301 -19.167 -5.5 -24.5s-6.16699 -11.5 -10.5 -18.5s-10.166 -12 -17.499 -15s-16 -4.5 -26 -4.5h-59
c-76.667 0 -144 8.83301 -202 26.5s-106.167 45.167 -144.5 82.5s-64.833 84 -79.5 140l-12 -6l-11.5 -6l-11.5 -6c-291.333 -154 -557.666 -231 -798.999 -231h-48c-32.667 0 -57.167 12.333 -73.5 37s-24.5 55 -24.5 91v19c0 32.667 8.5 60.334 25.5 83.001
s41.167 34 72.5 34h60c212 0 475.667 81 791 243z" />
    <glyph glyph-name="uniFEA1" unicode="&#x62d;" horiz-adv-x="1386" arabic-form="isolated" 
d="M85 -105c0 188 53.6719 345.331 161.005 471.998s265.666 220.334 474.999 281.001c-124.667 50.667 -208.334 76 -251.001 76c-62.667 0 -114.334 -26 -155.001 -78l-28 -36l-20 -26l-29 14l-154 76l-39 19l23 38l16 27c45.333 74.667 100.666 131.167 165.999 169.5
s139 57.833 221 58.5c18.667 0 38 -1.16699 58 -3.5s40.333 -6 61 -11s42 -11.167 64 -18.5s44.5 -15.666 67.5 -24.999s46.5 -20 70.5 -32c203.333 -98.667 359.333 -150.334 468 -155.001l41 -2l-3 -41l-13 -174l-3 -35l-35 -2
c-57.333 -3.33301 -109.833 -8.16602 -157.5 -14.499s-90.167 -13.5 -127.5 -21.5c-213.333 -50 -371.166 -120 -473.499 -210s-153.5 -200 -153.5 -330c0 -110 39.333 -192.333 118 -247s203 -82 373 -82c138.667 0 272 30.667 400 92l46 22l11 -50l36 -179l6 -31l-28 -13
c-138.667 -67.333 -300.334 -101 -485.001 -101c-268.667 0 -464.334 66.333 -587.001 199c-93.333 100 -140 224.667 -140 374z" />
    <glyph glyph-name="uniFEA2" unicode="&#x62d;" horiz-adv-x="1386" arabic-form="final" 
d="M1298 698l-12.998 -174.002l-3 -34l-34 -3c-27.333 -2 -54.166 -4.33301 -80.499 -7s-51.833 -5.66699 -76.5 -9c4 -72 25 -124.5 63 -157.5s96.667 -49.5 176 -49.5h64c7.33301 0 14 -0.833008 20 -2.5s11 -4.5 15 -8.5s7.5 -7.66699 10.5 -11
s5.33301 -8.16602 7 -14.499s3.16699 -11.5 4.5 -15.5s2.16602 -9.66699 2.49902 -17s0.5 -12.5 0.5 -15.5v-15.5v-12v-24c0 -1.33301 0.166992 -7.5 0.5 -18.5s0.333008 -19 0 -24s-1 -12.667 -2 -23s-2.83301 -18.5 -5.5 -24.5s-6.16699 -12.333 -10.5 -19
s-10.166 -11.5 -17.499 -14.5s-15.666 -4.5 -24.999 -4.5h-63c-146.667 0 -260.5 36.167 -341.5 108.5s-125.167 177.5 -132.5 315.5c-178 -50 -309.5 -117.667 -394.5 -203s-127.5 -188.666 -127.5 -309.999c0 -110 39.333 -192.333 118 -247s203 -82 373 -82
c138.667 0 272 30.667 400 92l46 22l11 -50l36 -179l6 -31l-28 -13c-138.667 -67.333 -300.334 -101 -485.001 -101c-268.667 0 -464.334 66.333 -587.001 199c-93.333 100 -140 224.667 -140 374c0 188.667 53.667 346.167 161 472.5s265.666 219.833 474.999 280.5
c-124.667 50.667 -208.334 76 -251.001 76c-21.333 0 -41 -2.83301 -59 -8.5s-35 -14.167 -51 -25.5s-31 -26 -45 -44l-28 -36l-20 -26l-29 14l-154 76l-39 19l23 38l16 27c92 152 221.333 228 388 228c23.333 0 47.5 -2 72.5 -6s50.833 -9.66699 77.5 -17
s54.167 -16.666 82.5 -27.999s57.5 -24.333 87.5 -39c203.333 -98.667 359.333 -150.334 468 -155.001l41 -2z" />
    <glyph glyph-name="uniFEA3" unicode="&#x62d;" horiz-adv-x="1337" arabic-form="initial" 
d="M-7 0c-32.667 0 -57.166 12.333 -73.499 37s-24.5 55 -24.5 91v19c0 32.667 8.5 60.334 25.5 83.001s41.167 34 72.5 34h60c212 0 475.667 81 791 243l-132 53c-126 50.667 -210 76 -252 76c-62.667 0 -114.334 -26 -155.001 -78l-28 -37l-20 -25l-29 14l-154 76l-39 19
l23 38l16 27c45.333 74.667 100.666 131.167 165.999 169.5s139 57.833 221 58.5c90.667 0 197.667 -30 321 -90c203.333 -98.667 359.333 -150.334 468 -155.001l38 -2v-39l-2 -173v-37l-36 -3c-72 -6 -208.667 -62 -410 -168c-291.333 -154 -557.666 -231 -798.999 -231
h-48z" />
    <glyph glyph-name="uniFEA4" unicode="&#x62d;" horiz-adv-x="1351" arabic-form="medial" 
d="M844 507l-58.998 23.499l-73 29.5c-126 50.667 -210 76 -252 76c-62.667 0 -114.334 -26 -155.001 -78l-28 -37l-20 -25l-29 14l-154 76l-39 19l23 38l16 27c45.333 74.667 100.666 131.167 165.999 169.5s139 57.833 221 58.5c90.667 0 197.667 -30 321 -90
c203.333 -98.667 359.333 -150.334 468 -155.001l38 -2v-39l-2 -173v-37l-37 -3c-44 -3.33301 -99.333 -20.666 -166 -51.999c7.33301 -24.667 29.666 -44.667 66.999 -60s93 -23 167 -23h44c6.66699 0 13 -0.833008 19 -2.5s11 -4.5 15 -8.5s7.5 -7.66699 10.5 -11
s5.5 -8.16602 7.5 -14.499s3.5 -11.5 4.5 -15.5s1.66699 -9.83301 2 -17.5s0.666016 -12.834 0.999023 -15.501s0.5 -7.66699 0.5 -15v-12v-24v-18v-24c0 -4.66699 -0.5 -12.5 -1.5 -23.5s-2.83301 -19.167 -5.5 -24.5s-6.16699 -11.5 -10.5 -18.5s-10.166 -12 -17.499 -15
s-16 -4.5 -26 -4.5h-59c-76.667 0 -144 8.83301 -202 26.5s-106.167 45.167 -144.5 82.5s-64.833 84 -79.5 140l-12 -6l-11.5 -6l-11.5 -6c-291.333 -154 -557.666 -231 -798.999 -231h-48c-32.667 0 -57.167 12.333 -73.5 37s-24.5 55 -24.5 91v19
c0 32.667 8.5 60.334 25.5 83.001s41.167 34 72.5 34h60c212 0 475.667 81 791 243z" />
    <glyph glyph-name="uniFEA5" unicode="&#x62e;" horiz-adv-x="1386" arabic-form="isolated" 
d="M419.223 1313.18l145.513 145.513l14.9795 14.9795l14.9795 -14.9795l146.582 -146.583l14.9795 -14.9785l-14.9795 -14.9795l-145.513 -145.513l-14.9785 -14.9795l-14.9795 14.9795l-146.583 146.583l-14.9785 14.9785zM85 -105c0 188 53.6719 345.331 161.005 471.998
s265.666 220.334 474.999 281.001c-124.667 50.667 -208.334 76 -251.001 76c-62.667 0 -114.334 -26 -155.001 -78l-28 -36l-20 -26l-29 14l-154 76l-39 19l23 38l16 27c45.333 74.667 100.666 131.167 165.999 169.5s139 57.833 221 58.5c18.667 0 38 -1.16699 58 -3.5
s40.333 -6 61 -11s42 -11.167 64 -18.5s44.5 -15.666 67.5 -24.999s46.5 -20 70.5 -32c203.333 -98.667 359.333 -150.334 468 -155.001l41 -2l-3 -41l-13 -174l-3 -35l-35 -2c-57.333 -3.33301 -109.833 -8.16602 -157.5 -14.499s-90.167 -13.5 -127.5 -21.5
c-213.333 -50 -371.166 -120 -473.499 -210s-153.5 -200 -153.5 -330c0 -110 39.333 -192.333 118 -247s203 -82 373 -82c138.667 0 272 30.667 400 92l46 22l11 -50l36 -179l6 -31l-28 -13c-138.667 -67.333 -300.334 -101 -485.001 -101
c-268.667 0 -464.334 66.333 -587.001 199c-93.333 100 -140 224.667 -140 374z" />
    <glyph glyph-name="uniFEA6" unicode="&#x62e;" horiz-adv-x="1386" arabic-form="final" 
d="M419.223 1313.18l145.513 145.513l14.9795 14.9795l14.9795 -14.9795l146.582 -146.583l14.9795 -14.9785l-14.9795 -14.9795l-145.513 -145.513l-14.9785 -14.9795l-14.9795 14.9795l-146.583 146.583l-14.9785 14.9785zM1298 698l-12.998 -174.002l-3 -34l-34 -3
c-27.333 -2 -54.166 -4.33301 -80.499 -7s-51.833 -5.66699 -76.5 -9c4 -72 25 -124.5 63 -157.5s96.667 -49.5 176 -49.5h64c7.33301 0 14 -0.833008 20 -2.5s11 -4.5 15 -8.5s7.5 -7.66699 10.5 -11s5.33301 -8.16602 7 -14.499s3.16699 -11.5 4.5 -15.5
s2.16602 -9.66699 2.49902 -17s0.5 -12.5 0.5 -15.5v-15.5v-12v-24c0 -1.33301 0.166992 -7.5 0.5 -18.5s0.333008 -19 0 -24s-1 -12.667 -2 -23s-2.83301 -18.5 -5.5 -24.5s-6.16699 -12.333 -10.5 -19s-10.166 -11.5 -17.499 -14.5s-15.666 -4.5 -24.999 -4.5h-63
c-146.667 0 -260.5 36.167 -341.5 108.5s-125.167 177.5 -132.5 315.5c-178 -50 -309.5 -117.667 -394.5 -203s-127.5 -188.666 -127.5 -309.999c0 -110 39.333 -192.333 118 -247s203 -82 373 -82c138.667 0 272 30.667 400 92l46 22l11 -50l36 -179l6 -31l-28 -13
c-138.667 -67.333 -300.334 -101 -485.001 -101c-268.667 0 -464.334 66.333 -587.001 199c-93.333 100 -140 224.667 -140 374c0 188.667 53.667 346.167 161 472.5s265.666 219.833 474.999 280.5c-124.667 50.667 -208.334 76 -251.001 76
c-21.333 0 -41 -2.83301 -59 -8.5s-35 -14.167 -51 -25.5s-31 -26 -45 -44l-28 -36l-20 -26l-29 14l-154 76l-39 19l23 38l16 27c92 152 221.333 228 388 228c23.333 0 47.5 -2 72.5 -6s50.833 -9.66699 77.5 -17s54.167 -16.666 82.5 -27.999s57.5 -24.333 87.5 -39
c203.333 -98.667 359.333 -150.334 468 -155.001l41 -2z" />
    <glyph glyph-name="uniFEA7" unicode="&#x62e;" horiz-adv-x="1337" arabic-form="initial" 
d="M379.223 1260.18l145.513 145.513l14.9795 14.9795l14.9795 -14.9795l146.582 -146.583l14.9795 -14.9785l-14.9795 -14.9795l-145.513 -145.513l-14.9785 -14.9795l-14.9795 14.9795l-146.583 146.583l-14.9785 14.9785zM-7 0c-32.667 0 -57.166 12.333 -73.499 37
s-24.5 55 -24.5 91v19c0 32.667 8.5 60.334 25.5 83.001s41.167 34 72.5 34h60c212 0 475.667 81 791 243l-132 53c-126 50.667 -210 76 -252 76c-62.667 0 -114.334 -26 -155.001 -78l-28 -37l-20 -25l-29 14l-154 76l-39 19l23 38l16 27
c45.333 74.667 100.666 131.167 165.999 169.5s139 57.833 221 58.5c90.667 0 197.667 -30 321 -90c203.333 -98.667 359.333 -150.334 468 -155.001l38 -2v-39l-2 -173v-37l-36 -3c-72 -6 -208.667 -62 -410 -168c-291.333 -154 -557.666 -231 -798.999 -231h-48z" />
    <glyph glyph-name="uniFEA8" unicode="&#x62e;" horiz-adv-x="1351" arabic-form="medial" 
d="M379.223 1260.18l145.513 145.513l14.9795 14.9795l14.9795 -14.9795l146.582 -146.583l14.9795 -14.9785l-14.9795 -14.9795l-145.513 -145.513l-14.9785 -14.9795l-14.9795 14.9795l-146.583 146.583l-14.9785 14.9785zM844 507l-58.998 23.499l-73 29.5
c-126 50.667 -210 76 -252 76c-62.667 0 -114.334 -26 -155.001 -78l-28 -37l-20 -25l-29 14l-154 76l-39 19l23 38l16 27c45.333 74.667 100.666 131.167 165.999 169.5s139 57.833 221 58.5c90.667 0 197.667 -30 321 -90c203.333 -98.667 359.333 -150.334 468 -155.001
l38 -2v-39l-2 -173v-37l-37 -3c-44 -3.33301 -99.333 -20.666 -166 -51.999c7.33301 -24.667 29.666 -44.667 66.999 -60s93 -23 167 -23h44c6.66699 0 13 -0.833008 19 -2.5s11 -4.5 15 -8.5s7.5 -7.66699 10.5 -11s5.5 -8.16602 7.5 -14.499s3.5 -11.5 4.5 -15.5
s1.66699 -9.83301 2 -17.5s0.666016 -12.834 0.999023 -15.501s0.5 -7.66699 0.5 -15v-12v-24v-18v-24c0 -4.66699 -0.5 -12.5 -1.5 -23.5s-2.83301 -19.167 -5.5 -24.5s-6.16699 -11.5 -10.5 -18.5s-10.166 -12 -17.499 -15s-16 -4.5 -26 -4.5h-59
c-76.667 0 -144 8.83301 -202 26.5s-106.167 45.167 -144.5 82.5s-64.833 84 -79.5 140l-12 -6l-11.5 -6l-11.5 -6c-291.333 -154 -557.666 -231 -798.999 -231h-48c-32.667 0 -57.167 12.333 -73.5 37s-24.5 55 -24.5 91v19c0 32.667 8.5 60.334 25.5 83.001
s41.167 34 72.5 34h60c212 0 475.667 81 791 243z" />
    <glyph glyph-name="uniFEA9" unicode="&#x62f;" horiz-adv-x="994" arabic-form="isolated" 
d="M109 290c81.333 -16.667 159 -24.999 233 -24.999c220 0 330 47 330 141c0 58.667 -32.667 125 -98 199s-164.666 153 -297.999 237l-35 22l23 34l100 152l21 32l33 -20c342.667 -204 514 -421.667 514 -653c0 -54.667 -8.33301 -104 -25 -148s-41 -82 -73 -114
s-71.5 -58.833 -118.5 -80.5s-100.5 -37.834 -160.5 -48.501s-126.667 -16 -200 -16c-100.667 0 -188.334 8.33301 -263.001 25l-31 7v32v185v49z" />
    <glyph glyph-name="uniFEAA" unicode="&#x62f;" horiz-adv-x="1101" arabic-form="final" 
d="M388 1c-92 0 -189.663 9.66602 -292.996 28.999l-33 6v34v184v49l48 -10c90.667 -18.667 185 -28 283 -28c41.333 0 78.166 1.83301 110.499 5.5s58.666 8.66699 78.999 15s37 14.166 50 23.499s22.167 18.833 27.5 28.5s8 20.167 8 31.5
c0 15.333 -7.66699 46.333 -23 93s-37 103.667 -65 171l-127 300l-15 36l35 16l165 76l38 18l16 -40l198 -502c36.667 -93.333 72.667 -162.166 108 -206.499s65.666 -66.5 90.999 -66.5h20c8 0 15.167 -1.33301 21.5 -4s11.666 -5.66699 15.999 -9s8 -8.5 11 -15.5
s5.16699 -12.667 6.5 -17s2.5 -11 3.5 -20s1.5 -15.167 1.5 -18.5v-18.5v-14.5v-18c0 -24.667 -1.33301 -43.667 -4 -57c-2 -17.333 -5.33301 -30.666 -10 -39.999v-1l-1 -1c-10.667 -20 -25.667 -30 -45 -30h-20c-109.333 0 -198.333 45.667 -267 137
c-98 -90.667 -242.667 -136 -434 -136z" />
    <glyph glyph-name="uniFEAB" unicode="&#x630;" horiz-adv-x="994" arabic-form="isolated" 
d="M109 290c81.333 -16.667 159 -24.999 233 -24.999c220 0 330 47 330 141c0 58.667 -32.667 125 -98 199s-164.666 153 -297.999 237l-35 22l23 34l100 152l21 32l33 -20c342.667 -204 514 -421.667 514 -653c0 -54.667 -8.33301 -104 -25 -148s-41 -82 -73 -114
s-71.5 -58.833 -118.5 -80.5s-100.5 -37.834 -160.5 -48.501s-126.667 -16 -200 -16c-100.667 0 -188.334 8.33301 -263.001 25l-31 7v32v185v49zM226.223 1381.18l145.513 145.513l14.9795 14.9795l14.9795 -14.9795l146.582 -146.583l14.9795 -14.9785l-14.9795 -14.9795
l-145.513 -145.513l-14.9785 -14.9795l-14.9795 14.9795l-146.583 146.583l-14.9785 14.9785z" />
    <glyph glyph-name="uniFEAC" unicode="&#x630;" horiz-adv-x="1101" arabic-form="final" 
d="M388 1c-92 0 -189.663 9.66602 -292.996 28.999l-33 6v34v184v49l48 -10c90.667 -18.667 185 -28 283 -28c41.333 0 78.166 1.83301 110.499 5.5s58.666 8.66699 78.999 15s37 14.166 50 23.499s22.167 18.833 27.5 28.5s8 20.167 8 31.5
c0 15.333 -7.66699 46.333 -23 93s-37 103.667 -65 171l-127 300l-15 36l35 16l165 76l38 18l16 -40l198 -502c36.667 -93.333 72.667 -162.166 108 -206.499s65.666 -66.5 90.999 -66.5h20c8 0 15.167 -1.33301 21.5 -4s11.666 -5.66699 15.999 -9s8 -8.5 11 -15.5
s5.16699 -12.667 6.5 -17s2.5 -11 3.5 -20s1.5 -15.167 1.5 -18.5v-18.5v-14.5v-18c0 -24.667 -1.33301 -43.667 -4 -57c-2 -17.333 -5.33301 -30.666 -10 -39.999v-1l-1 -1c-10.667 -20 -25.667 -30 -45 -30h-20c-109.333 0 -198.333 45.667 -267 137
c-98 -90.667 -242.667 -136 -434 -136zM380.227 1374.18l145.513 145.513l14.9795 14.9795l14.9795 -14.9795l146.582 -146.583l14.9795 -14.9785l-14.9795 -14.9795l-145.513 -145.513l-14.9785 -14.9795l-14.9795 14.9795l-146.583 146.583l-14.9785 14.9785z" />
    <glyph glyph-name="uniFEAD" unicode="&#x631;" horiz-adv-x="826" arabic-form="isolated" 
d="M682 588c58 -132.667 87.001 -260.668 87.001 -384.001c0 -204 -62.333 -364.333 -187 -481s-307.334 -187.667 -548.001 -213l-35 -4l-8 34l-43 170l-11 45l46 5c182 18 316 62.833 402 134.5s128.667 170.834 128 297.501c0 96 -24.667 197 -74 303l-19 40l42 15
l170 59l35 13z" />
    <glyph glyph-name="uniFEAE" unicode="&#x631;" horiz-adv-x="910" arabic-form="final" 
d="M683 583l55.999 -192.998c13.333 -44.667 32 -76.834 56 -96.501s56 -29.5 96 -29.5h28c6.66699 0 13 -0.833008 19 -2.5s11 -4.5 15 -8.5s7.5 -7.66699 10.5 -11s5.5 -8.16602 7.5 -14.499s3.5 -11.333 4.5 -15s1.66699 -9.5 2 -17.5s0.666016 -13.333 0.999023 -16
s0.5 -7.66699 0.5 -15v-12v-24c0 -0.666992 0.166992 -6.66699 0.5 -18s0.333008 -19.5 0 -24.5s-1 -12.833 -2 -23.5s-2.83301 -18.834 -5.5 -24.501s-6.16699 -11.834 -10.5 -18.501s-10.166 -11.5 -17.499 -14.5s-15.666 -4.5 -24.999 -4.5h-17c-64 0 -115 8 -153 24
c-31.333 -149.333 -107.5 -266.833 -228.5 -352.5s-283.167 -139.5 -486.5 -161.5l-35 -4l-8 34l-43 170l-11 45l46 5c182 18 316 62.833 402 134.5s128.667 171.167 128 298.5c0 94 -25 194.667 -75 302l-19 40l42 15l170 59l40 14z" />
    <glyph glyph-name="uniFEAF" unicode="&#x632;" horiz-adv-x="826" arabic-form="isolated" 
d="M682 588c58 -132.667 87.001 -260.668 87.001 -384.001c0 -204 -62.333 -364.333 -187 -481s-307.334 -187.667 -548.001 -213l-35 -4l-8 34l-43 170l-11 45l46 5c182 18 316 62.833 402 134.5s128.667 170.834 128 297.501c0 96 -24.667 197 -74 303l-19 40l42 15
l170 59l35 13zM339.296 971.36l150.368 150.369l15.4795 15.4785l15.4795 -15.4785l151.474 -151.475l15.4795 -15.4795l-15.4795 -15.4795l-150.368 -150.368l-15.4795 -15.4795l-15.4785 15.4795l-151.475 151.475l-15.4795 15.4785z" />
    <glyph glyph-name="uniFEB0" unicode="&#x632;" horiz-adv-x="910" arabic-form="final" 
d="M339.295 971.361l150.368 150.369l15.4795 15.4785l15.4795 -15.4785l151.474 -151.475l15.4795 -15.4795l-15.4795 -15.4795l-150.368 -150.368l-15.4795 -15.4795l-15.4785 15.4795l-151.475 151.475l-15.4795 15.4785zM684 583l55.999 -192.998
c13.333 -44.667 32 -76.834 56 -96.501s56 -29.5 96 -29.5h28c6.66699 0 13 -0.833008 19 -2.5s11 -4.5 15 -8.5s7.5 -7.66699 10.5 -11s5.5 -8.16602 7.5 -14.499s3.5 -11.333 4.5 -15s1.66699 -9.5 2 -17.5s0.666016 -13.333 0.999023 -16s0.5 -7.66699 0.5 -15v-12v-24
c0 -0.666992 0.166992 -6.66699 0.5 -18s0.333008 -19.5 0 -24.5s-1 -12.833 -2 -23.5s-2.83301 -18.834 -5.5 -24.501s-6.16699 -11.834 -10.5 -18.501s-10.166 -11.5 -17.499 -14.5s-15.666 -4.5 -24.999 -4.5h-17c-64 0 -115 8 -153 24
c-31.333 -149.333 -107.5 -266.833 -228.5 -352.5s-283.167 -139.5 -486.5 -161.5l-35 -4l-8 34l-43 170l-11 45l46 5c182 18 316 62.833 402 134.5s128.667 171.167 128 298.5c0 94 -25 194.667 -75 302l-19 40l42 15l170 59l40 14z" />
    <glyph glyph-name="uniFEB1" unicode="&#x633;" horiz-adv-x="2506" arabic-form="isolated" 
d="M1553 0c-56 0 -105.003 9.33301 -147.003 28c-9.33301 -74 -31.333 -148 -66 -222c-104.667 -217.333 -315.667 -326 -633 -326c-210 0 -370 50.833 -480 152.5s-165 251.167 -165 448.5c0 142 34.667 296.667 104 464l15 37l37 -15l159 -65l36 -15l-14 -37
c-54 -136.667 -81 -259 -81 -367c0 -118 31.833 -205.167 95.5 -261.5s163.834 -84.5 300.501 -84.5c149.333 0 259.333 33 330 99s106.334 168 107.001 306c0 116.667 -29 234 -87 352l-19 41l42 15l173 60l39 13l12 -39l60 -185c10 -30.667 23 -55.5 39 -74.5
s35.833 -33.167 59.5 -42.5s51.834 -14 84.501 -14c56 0 95.833 11.667 119.5 35s35.167 62 34.5 116c0 54.667 -1 91.667 -3 111l-5 61l-3 39l38 4l165 19l42 5l2 -42l17 -231c2.66699 -42.667 13 -72.834 31 -90.501s47 -26.5 87 -26.5
c36.667 0.666992 63.834 13.5 81.5 38.5c17.667 25 26.167 69.167 25.5 132.5c0 16 -0.833008 33 -2.5 51s-4.16699 37.167 -7.5 57.5s-7.66602 41.833 -13 64.5c-5.33301 22.667 -11.666 46.334 -19 71.001l-11 39l39 11l171 46l37 10l12 -37
c34 -108.667 50.667 -212.667 50 -312c0 -80 -11.167 -150.5 -33.5 -211.5s-56.166 -111.5 -101.499 -151.5c-29.333 -25.333 -63 -44.333 -101 -57s-79.667 -19 -125 -19c-55.333 0 -104.333 9.16699 -147 27.5s-77 45.833 -103 82.5
c-72.667 -74 -165.334 -111 -278.001 -111z" />
    <glyph glyph-name="uniFEB2" unicode="&#x633;" horiz-adv-x="2589" arabic-form="final" 
d="M1371 399c15.333 -46.667 37.666 -80.8398 66.999 -102.507s68 -32.5 116 -32.5c36 0 64.833 4.83301 86.5 14.5s37.334 24.834 47.001 45.501s14.5 48 14.5 82c0 25.333 -0.166992 46.833 -0.5 64.5s-0.833008 30.834 -1.5 39.501l-5 82l-3 38l38 4l165 19l41 5l3 -41
l16 -232c3.33301 -44 14 -75 32 -93s46.667 -27 86 -27c14.667 0 27.667 1.5 39 4.5s21.5 8.33301 30.5 16s16.5 17.667 22.5 30s10.5 27.833 13.5 46.5s4.83301 40.334 5.5 65.001c0 14 -0.166992 28 -0.5 42s-1 27.833 -2 41.5s-1.83301 27.167 -2.5 40.5l-6 61l-3 38
l38 5l165 19l41 5l4 -41l16 -189c4 -45.333 12.167 -81.666 24.5 -108.999s28.333 -46.833 48 -58.5s43.834 -17.5 72.5 -17.5h18c8.66699 0 16.167 -1.33301 22.5 -4s11.666 -5.66699 16 -9c4.33301 -3.33301 8 -8.5 11 -15.5s5.16699 -12.667 6.5 -17s2.5 -11 3.5 -20
s1.5 -15.167 1.5 -18.5v-18.5v-14.5v-19c-0.666992 -2.66699 -0.833984 -9 -0.5 -19c0.333008 -10 0.333008 -17.833 0 -23.5s-1 -13.5 -2 -23.5s-2.83301 -18 -5.5 -24s-6 -12.333 -10 -19s-9.66699 -11.5 -17 -14.5s-16 -4.5 -26 -4.5h-16
c-117.333 0 -201.666 34.667 -252.999 104c-57.333 -69.333 -139.333 -104 -246 -104c-56.667 0 -106.834 9.16699 -150.501 27.5s-78.834 45.833 -105.501 82.5c-70 -72.667 -161 -109 -273 -109c-28 0 -54.333 2.33301 -79 7s-47.334 11.334 -68.001 20.001
c-8.66699 -73.333 -30.667 -147.333 -66 -222c-104.667 -217.333 -315.667 -326 -633 -326c-291.333 0 -485 95.667 -581 287c-42.667 87.333 -64 192 -64 314c0 142 34.667 296.667 104 464l15 37l37 -15l159 -65l36 -15l-14 -37c-54 -136.667 -81 -259 -81 -367
c0 -118 31.833 -205.167 95.5 -261.5s163.834 -84.5 300.501 -84.5c75.333 0 140.333 8.16699 195 24.5s99.834 41.333 135.501 75s62.167 75.834 79.5 126.501s26.333 111 27 181c0 38.667 -3.16699 77.334 -9.5 116.001s-15.833 77.5 -28.5 116.5
s-28.667 78.167 -48 117.5l-20 41l42 15l173 60l39 13l12 -39z" />
    <glyph glyph-name="uniFEB3" unicode="&#x633;" horiz-adv-x="1599" arabic-form="initial" 
d="M798 379c3.33301 16.667 5.00195 37.3291 5.00195 61.9961c0 10 -0.166992 19.833 -0.5 29.5s-0.833008 19.5 -1.5 29.5l-2 30l-5 61l-4 39l39 4l164 20l42 4l3 -41l16 -232c0.666992 -12.667 2.16699 -24.167 4.5 -34.5s5 -19.666 8 -27.999s7 -15.666 12 -21.999
s10.5 -11.833 16.5 -16.5s12.833 -8.33398 20.5 -11.001s16.167 -4.66699 25.5 -6s19.333 -2 30 -2c36.667 0 64 12.833 82 38.5s27 70.834 27 135.501s-14 146 -42 244l-12 39l40 11l171 46l37 10l11 -37c34.667 -109.333 51.667 -211.333 51 -306v-3v-3
c-0.666992 -163.333 -45.667 -284.333 -135 -363c-58 -50.667 -133.333 -76 -226 -76c-36.667 0 -70.5 4 -101.5 12s-59.167 20.167 -84.5 36.5s-47 36.833 -65 61.5c-71.333 -74 -164 -111 -278 -111c-128.667 0.666992 -221.334 37 -278.001 109
c-68 -72.667 -174.333 -109 -319 -109h-56c-32.667 0 -57.167 12.333 -73.5 37s-24.5 55 -24.5 91v19c0 32.667 8.5 60.334 25.5 83.001s41.167 34 72.5 34h58c62 0 108.333 9.5 139 28.5s50 47.833 58 86.5c3.33301 16.667 5 37.334 5 62.001
c0 9.33301 -0.166992 18.833 -0.5 28.5s-0.833008 19.5 -1.5 29.5l-2 31l-6 61l-3 39l38 4l165 20l42 4l3 -41l16 -232c2.66699 -42.667 15 -73.5 37 -92.5s57.667 -28.5 107 -28.5c45.333 0 79.666 9 102.999 27s39 47.333 47 88z" />
    <glyph glyph-name="uniFEB4" unicode="&#x633;" horiz-adv-x="1688" arabic-form="medial" 
d="M1054 385c2 -29.333 7.50391 -52.833 16.5039 -70.5s21.667 -30.334 38 -38.001s37.833 -11.5 64.5 -11.5c38 0 65.833 11.667 83.5 35s26.167 64.666 25.5 123.999c0 51.333 -1.33301 93.666 -4 126.999l-6 61l-3 38l38 5l165 19l41 5l4 -41l16 -189
c2.66699 -34 7.83398 -63 15.501 -87s17.667 -43.167 30 -57.5s26.666 -24.666 42.999 -30.999s35.166 -9.5 56.499 -9.5h18c8.66699 0 16.167 -1.33301 22.5 -4s11.666 -5.66699 15.999 -9s8 -8.5 11 -15.5s5.16699 -12.667 6.5 -17s2.5 -11 3.5 -20s1.5 -15.167 1.5 -18.5
s-0.166992 -9.5 -0.5 -18.5s-0.5 -13.833 -0.5 -14.5v-19c0 -41.333 -1 -66.666 -3 -75.999c-8 -34 -27 -51.333 -57 -52h-16c-118 0 -202.333 34.667 -253 104c-29.333 -35.333 -64.833 -61.5 -106.5 -78.5s-88.834 -25.5 -141.501 -25.5c-54.667 0 -103.5 9.5 -146.5 28.5
s-78.5 46.833 -106.5 83.5c-72 -74.667 -165.333 -112 -280 -112c-128.667 0.666992 -221.334 37 -278.001 109c-68 -72.667 -174.333 -109 -319 -109h-56c-32.667 0 -57.167 12.333 -73.5 37s-24.5 55 -24.5 91v19c0 32.667 8.5 60.334 25.5 83.001s41.167 34 72.5 34h58
c116 0 182 38.333 198 115c2.66699 13.333 4 34 4 62c0 27.333 -1.33301 57 -4 89l-6 61l-3 39l38 4l165 20l42 4l3 -41l16 -232c2.66699 -42.667 15 -73.5 37 -92.5s57.667 -28.5 107 -28.5c23.333 0 43.5 2.16699 60.5 6.5s31.5 11.333 43.5 21s21.833 21.5 29.5 35.5
s13.5 31.333 17.5 52c2.66699 13.333 4 34 4 62c0 29.333 -1.33301 59 -4 89l-5 61l-4 39l39 4l164 20l42 4l3 -41z" />
    <glyph glyph-name="uniFEB5" unicode="&#x634;" horiz-adv-x="2506" arabic-form="isolated" 
d="M1455.13 1015.85l142.304 142.303l14.9785 14.9795l14.9795 -14.9795l143.373 -143.372l4.2793 -4.28027l5.34961 5.34961l142.304 142.303l14.9785 14.9795l14.9795 -14.9795l143.372 -143.372l14.9805 -14.9795l-14.9805 -14.9795l-142.302 -142.303l-14.9795 -14.9795
l-14.9795 14.9795l-143.373 143.373l-4.2793 4.2793l-5.34961 -5.34961l-142.303 -142.303l-14.9795 -14.9795l-14.9795 14.9795l-143.373 143.373l-14.9785 14.9785zM1615.62 1284.41l142.303 142.303l14.9795 14.9795l14.9795 -14.9795l143.372 -143.372l14.9795 -14.9795
l-14.9795 -14.9795l-142.303 -142.303l-14.9785 -14.9795l-14.9795 14.9795l-143.373 143.373l-14.9795 14.9785zM1553 0c-56 0 -105.003 9.33301 -147.003 28c-9.33301 -74 -31.333 -148 -66 -222c-104.667 -217.333 -315.667 -326 -633 -326
c-210 0 -370 50.833 -480 152.5s-165 251.167 -165 448.5c0 142 34.667 296.667 104 464l15 37l37 -15l159 -65l36 -15l-14 -37c-54 -136.667 -81 -259 -81 -367c0 -118 31.833 -205.167 95.5 -261.5s163.834 -84.5 300.501 -84.5c149.333 0 259.333 33 330 99
s106.334 168 107.001 306c0 116.667 -29 234 -87 352l-19 41l42 15l173 60l39 13l12 -39l60 -185c10 -30.667 23 -55.5 39 -74.5s35.833 -33.167 59.5 -42.5s51.834 -14 84.501 -14c56 0 95.833 11.667 119.5 35s35.167 62 34.5 116c0 54.667 -1 91.667 -3 111l-5 61l-3 39
l38 4l165 19l42 5l2 -42l17 -231c2.66699 -42.667 13 -72.834 31 -90.501s47 -26.5 87 -26.5c36.667 0.666992 63.834 13.5 81.5 38.5c17.667 25 26.167 69.167 25.5 132.5c0 16 -0.833008 33 -2.5 51s-4.16699 37.167 -7.5 57.5s-7.66602 41.833 -13 64.5
c-5.33301 22.667 -11.666 46.334 -19 71.001l-11 39l39 11l171 46l37 10l12 -37c34 -108.667 50.667 -212.667 50 -312c0 -80 -11.167 -150.5 -33.5 -211.5s-56.166 -111.5 -101.499 -151.5c-29.333 -25.333 -63 -44.333 -101 -57s-79.667 -19 -125 -19
c-55.333 0 -104.333 9.16699 -147 27.5s-77 45.833 -103 82.5c-72.667 -74 -165.334 -111 -278.001 -111z" />
    <glyph glyph-name="uniFEB6" unicode="&#x634;" horiz-adv-x="2589" arabic-form="final" 
d="M1456.13 1015.85l142.304 142.303l14.9785 14.9795l14.9795 -14.9795l143.373 -143.372l4.2793 -4.28027l5.34961 5.34961l142.304 142.303l14.9785 14.9795l14.9795 -14.9795l143.372 -143.372l14.9805 -14.9795l-14.9805 -14.9795l-142.302 -142.303l-14.9795 -14.9795
l-14.9795 14.9795l-143.373 143.373l-4.2793 4.2793l-5.34961 -5.34961l-142.303 -142.303l-14.9795 -14.9795l-14.9795 14.9795l-143.373 143.373l-14.9785 14.9785zM1616.62 1284.41l142.303 142.303l14.9795 14.9795l14.9795 -14.9795l143.372 -143.372l14.9795 -14.9795
l-14.9795 -14.9795l-142.303 -142.303l-14.9785 -14.9795l-14.9795 14.9795l-143.373 143.373l-14.9795 14.9785zM1371 399c15.333 -46.667 37.666 -80.8398 66.999 -102.507s68 -32.5 116 -32.5c36 0 64.833 4.83301 86.5 14.5s37.334 24.834 47.001 45.501
s14.5 48 14.5 82c0 25.333 -0.166992 46.833 -0.5 64.5s-0.833008 30.834 -1.5 39.501l-5 82l-3 38l38 4l165 19l41 5l3 -41l16 -232c3.33301 -44 14 -75 32 -93s46.667 -27 86 -27c14.667 0 27.667 1.5 39 4.5s21.5 8.33301 30.5 16s16.5 17.667 22.5 30
s10.5 27.833 13.5 46.5s4.83301 40.334 5.5 65.001c0 14 -0.166992 28 -0.5 42s-1 27.833 -2 41.5s-1.83301 27.167 -2.5 40.5l-6 61l-3 38l38 5l165 19l41 5l4 -41l16 -189c4 -45.333 12.167 -81.666 24.5 -108.999s28.333 -46.833 48 -58.5s43.834 -17.5 72.5 -17.5h18
c8.66699 0 16.167 -1.33301 22.5 -4s11.666 -5.66699 16 -9c4.33301 -3.33301 8 -8.5 11 -15.5s5.16699 -12.667 6.5 -17s2.5 -11 3.5 -20s1.5 -15.167 1.5 -18.5v-18.5v-14.5v-19c-0.666992 -2.66699 -0.833984 -9 -0.5 -19c0.333008 -10 0.333008 -17.833 0 -23.5
s-1 -13.5 -2 -23.5s-2.83301 -18 -5.5 -24s-6 -12.333 -10 -19s-9.66699 -11.5 -17 -14.5s-16 -4.5 -26 -4.5h-16c-117.333 0 -201.666 34.667 -252.999 104c-57.333 -69.333 -139.333 -104 -246 -104c-56.667 0 -106.834 9.16699 -150.501 27.5
s-78.834 45.833 -105.501 82.5c-70 -72.667 -161 -109 -273 -109c-28 0 -54.333 2.33301 -79 7s-47.334 11.334 -68.001 20.001c-8.66699 -73.333 -30.667 -147.333 -66 -222c-104.667 -217.333 -315.667 -326 -633 -326c-291.333 0 -485 95.667 -581 287
c-42.667 87.333 -64 192 -64 314c0 142 34.667 296.667 104 464l15 37l37 -15l159 -65l36 -15l-14 -37c-54 -136.667 -81 -259 -81 -367c0 -118 31.833 -205.167 95.5 -261.5s163.834 -84.5 300.501 -84.5c75.333 0 140.333 8.16699 195 24.5s99.834 41.333 135.501 75
s62.167 75.834 79.5 126.501s26.333 111 27 181c0 38.667 -3.16699 77.334 -9.5 116.001s-15.833 77.5 -28.5 116.5s-28.667 78.167 -48 117.5l-20 41l42 15l173 60l39 13l12 -39z" />
    <glyph glyph-name="uniFEB7" unicode="&#x634;" horiz-adv-x="1599" arabic-form="initial" 
d="M576.132 1015.85l142.304 142.303l14.9785 14.9795l14.9795 -14.9795l143.373 -143.372l4.2793 -4.28027l5.34961 5.34961l142.304 142.303l14.9785 14.9795l14.9795 -14.9795l143.373 -143.372l14.9795 -14.9795l-14.9795 -14.9795l-142.303 -142.303l-14.9795 -14.9795
l-14.9795 14.9795l-143.373 143.373l-4.2793 4.2793l-5.34961 -5.34961l-142.303 -142.303l-14.9795 -14.9795l-14.9795 14.9795l-143.373 143.373l-14.9785 14.9785zM736.624 1284.41l142.303 142.303l14.9795 14.9795l14.9795 -14.9795l143.372 -143.372l14.9795 -14.9795
l-14.9795 -14.9795l-142.303 -142.303l-14.9785 -14.9795l-14.9795 14.9795l-143.373 143.373l-14.9795 14.9785zM798 379c3.33301 16.667 5.00195 37.3291 5.00195 61.9961c0 10 -0.166992 19.833 -0.5 29.5s-0.833008 19.5 -1.5 29.5l-2 30l-5 61l-4 39l39 4l164 20l42 4
l3 -41l16 -232c0.666992 -12.667 2.16699 -24.167 4.5 -34.5s5 -19.666 8 -27.999s7 -15.666 12 -21.999s10.5 -11.833 16.5 -16.5s12.833 -8.33398 20.5 -11.001s16.167 -4.66699 25.5 -6s19.333 -2 30 -2c36.667 0 64 12.833 82 38.5s27 70.834 27 135.501
s-14 146 -42 244l-12 39l40 11l171 46l37 10l11 -37c34.667 -109.333 51.667 -211.333 51 -306v-3v-3c-0.666992 -163.333 -45.667 -284.333 -135 -363c-58 -50.667 -133.333 -76 -226 -76c-36.667 0 -70.5 4 -101.5 12s-59.167 20.167 -84.5 36.5s-47 36.833 -65 61.5
c-71.333 -74 -164 -111 -278 -111c-128.667 0.666992 -221.334 37 -278.001 109c-68 -72.667 -174.333 -109 -319 -109h-56c-32.667 0 -57.167 12.333 -73.5 37s-24.5 55 -24.5 91v19c0 32.667 8.5 60.334 25.5 83.001s41.167 34 72.5 34h58c62 0 108.333 9.5 139 28.5
s50 47.833 58 86.5c3.33301 16.667 5 37.334 5 62.001c0 9.33301 -0.166992 18.833 -0.5 28.5s-0.833008 19.5 -1.5 29.5l-2 31l-6 61l-3 39l38 4l165 20l42 4l3 -41l16 -232c2.66699 -42.667 15 -73.5 37 -92.5s57.667 -28.5 107 -28.5c45.333 0 79.666 9 102.999 27
s39 47.333 47 88z" />
    <glyph glyph-name="uniFEB8" unicode="&#x634;" horiz-adv-x="1688" arabic-form="medial" 
d="M576.132 1015.85l142.304 142.303l14.9785 14.9795l14.9795 -14.9795l143.373 -143.372l4.2793 -4.28027l5.34961 5.34961l142.304 142.303l14.9785 14.9795l14.9795 -14.9795l143.373 -143.372l14.9795 -14.9795l-14.9795 -14.9795l-142.303 -142.303l-14.9795 -14.9795
l-14.9795 14.9795l-143.373 143.373l-4.2793 4.2793l-5.34961 -5.34961l-142.303 -142.303l-14.9795 -14.9795l-14.9795 14.9795l-143.373 143.373l-14.9785 14.9785zM736.624 1284.41l142.303 142.303l14.9795 14.9795l14.9795 -14.9795l143.372 -143.372l14.9795 -14.9795
l-14.9795 -14.9795l-142.303 -142.303l-14.9785 -14.9795l-14.9795 14.9795l-143.373 143.373l-14.9795 14.9785zM1054 385c2 -29.333 7.50391 -52.833 16.5039 -70.5s21.667 -30.334 38 -38.001s37.833 -11.5 64.5 -11.5c38 0 65.833 11.667 83.5 35
s26.167 64.666 25.5 123.999c0 51.333 -1.33301 93.666 -4 126.999l-6 61l-3 38l38 5l165 19l41 5l4 -41l16 -189c2.66699 -34 7.83398 -63 15.501 -87s17.667 -43.167 30 -57.5s26.666 -24.666 42.999 -30.999s35.166 -9.5 56.499 -9.5h18
c8.66699 0 16.167 -1.33301 22.5 -4s11.666 -5.66699 15.999 -9s8 -8.5 11 -15.5s5.16699 -12.667 6.5 -17s2.5 -11 3.5 -20s1.5 -15.167 1.5 -18.5s-0.166992 -9.5 -0.5 -18.5s-0.5 -13.833 -0.5 -14.5v-19c0 -41.333 -1 -66.666 -3 -75.999c-8 -34 -27 -51.333 -57 -52
h-16c-118 0 -202.333 34.667 -253 104c-29.333 -35.333 -64.833 -61.5 -106.5 -78.5s-88.834 -25.5 -141.501 -25.5c-54.667 0 -103.5 9.5 -146.5 28.5s-78.5 46.833 -106.5 83.5c-72 -74.667 -165.333 -112 -280 -112c-128.667 0.666992 -221.334 37 -278.001 109
c-68 -72.667 -174.333 -109 -319 -109h-56c-32.667 0 -57.167 12.333 -73.5 37s-24.5 55 -24.5 91v19c0 32.667 8.5 60.334 25.5 83.001s41.167 34 72.5 34h58c116 0 182 38.333 198 115c2.66699 13.333 4 34 4 62c0 27.333 -1.33301 57 -4 89l-6 61l-3 39l38 4l165 20l42 4
l3 -41l16 -232c2.66699 -42.667 15 -73.5 37 -92.5s57.667 -28.5 107 -28.5c23.333 0 43.5 2.16699 60.5 6.5s31.5 11.333 43.5 21s21.833 21.5 29.5 35.5s13.5 31.333 17.5 52c2.66699 13.333 4 34 4 62c0 29.333 -1.33301 59 -4 89l-5 61l-4 39l39 4l164 20l42 4l3 -41z
" />
    <glyph glyph-name="uniFEB9" unicode="&#x635;" horiz-adv-x="2607" arabic-form="isolated" 
d="M1699 264l80.001 0.000976562c178.667 0 305.667 17 381.001 51c43.333 18.667 74.5 41 93.5 67s28.833 57.667 29.5 95c0 34 -9 62.667 -27 86c-10.667 13.333 -22.334 24.666 -35 33.999c-12.667 9.33301 -27.334 16.166 -44.001 20.499s-35 6.83301 -55 7.5
c-56.667 -0.666992 -120.834 -30.667 -192.501 -90s-148.5 -149.666 -230.5 -270.999zM1722 0.000976562c-65.333 0 -124.334 3.16699 -177.001 9.5s-98.667 15.833 -138 28.5c-8 -78.667 -30.333 -156 -67 -232c-104.667 -217.333 -315.667 -326 -633 -326
c-210 0 -370 50.833 -480 152.5s-165 251.167 -165 448.5c0 142 34.667 296.667 104 464l15 37l37 -15l159 -65l36 -15l-14 -37c-54 -136.667 -81 -259 -81 -367c0 -118 31.833 -205.167 95.5 -261.5s163.834 -84.5 300.501 -84.5c149.333 0 259.333 33 330 99
s106.334 168 107.001 306c0 116.667 -29 234 -87 352l-19 41l42 15l173 60l39 13l12 -39l68 -211l5.5 -15c1.66699 -4.66699 3.5 -9 5.5 -13l6 -12c2 -4 3.83301 -7.33301 5.5 -10s3.5 -5.33398 5.5 -8.00098s3.83301 -5 5.5 -7s3.16699 -3.66699 4.5 -5
c118.667 196 236 344 352 444s232.667 149.667 350 149c76 0 143.833 -14.667 203.5 -44s109.834 -73 150.5 -131c48.667 -70.667 72.667 -148 72 -232c0 -39.333 -4.66699 -80.666 -14 -123.999c-56.667 -243.333 -309.334 -365 -758.001 -365h-51z" />
    <glyph glyph-name="uniFEBA" unicode="&#x635;" horiz-adv-x="2636" arabic-form="final" 
d="M2644 264c8.66699 0 16.167 -1.33398 22.5 -4.00098s11.666 -5.66699 15.999 -9s8 -8.5 11 -15.5s5.16699 -12.667 6.5 -17s2.5 -11 3.5 -20s1.5 -15.167 1.5 -18.5s-0.166992 -9.5 -0.5 -18.5s-0.5 -13.833 -0.5 -14.5v-19c0 -2 0.166992 -8.16699 0.5 -18.5
s0.333008 -18.333 0 -24s-0.833008 -13.5 -1.5 -23.5s-2.5 -18 -5.5 -24s-6.5 -12.333 -10.5 -19s-9.66699 -11.5 -17 -14.5s-16 -4.5 -26 -4.5h-24c-161.333 0 -280 25 -356 75c-27.333 -13.333 -58 -24.666 -92 -33.999s-71.5 -17 -112.5 -23s-85.167 -10.5 -132.5 -13.5
s-98.666 -4.5 -153.999 -4.5h-51c-65.333 0 -124.333 3.16699 -177 9.5s-98.667 15.833 -138 28.5c-8 -78.667 -30.333 -156 -67 -232c-104.667 -217.333 -316 -326 -634 -326c-209.333 0.666992 -368.833 51.5 -478.5 152.5s-164.834 249.5 -165.501 445.5
c-0.666992 142.667 34 298.334 104 467.001l15 37l37 -15l159 -65l36 -15l-14 -37c-54 -137.333 -81 -260 -81 -368c0.666992 -119.333 33.334 -207 98.001 -263s167 -83.333 307 -82c146 1.33301 253.667 34.833 323 100.5s104.333 166.5 105 302.5
c0 117.333 -29 235.333 -87 354l-19 41l42 15l173 60l39 13l12 -39l68 -215c5.33301 -16.667 11.333 -30.667 18 -42s13 -19.666 19 -24.999c226.667 374 448.667 571.667 666 593c12.667 0.666992 25.334 1 38 1c74.667 0.666992 141.834 -13.833 201.5 -43.5
c59.667 -29.667 110.167 -73.5 151.5 -131.5c16.667 -23.333 30.5 -47.833 41.5 -73.5s19.167 -52.334 24.5 -80.001s8 -56.167 8 -85.5c0 -14.667 -0.833008 -29.334 -2.5 -44.001s-4.16699 -29.167 -7.5 -43.5s-7.33301 -28.5 -12 -42.5s-10.167 -27.833 -16.5 -41.5
s-13.5 -27.167 -21.5 -40.5c16 -2 35.667 -3.5 59 -4.5s50 -1.5 80 -1.5h18zM1699 263.999h80c178 0 305 17 381 51c44 18.667 75.5 41.167 94.5 67.5s28.5 57.833 28.5 94.5c-0.666992 17.333 -3.16699 33.166 -7.5 47.499s-10.833 27.166 -19.5 38.499
c-31.333 40.667 -76 61.334 -134 62.001c-56.667 -0.666992 -121 -30.667 -193 -90s-148.667 -149.666 -230 -270.999z" />
    <glyph glyph-name="uniFEBB" unicode="&#x635;" horiz-adv-x="1690" arabic-form="initial" 
d="M782 264h80c178.667 0 305.667 17 381 51c29.333 12.667 53 27 71 43s31 33.667 39 53s12.333 41.333 13 66c0 34 -9 62.667 -27 86c-31.333 40.667 -76 61.334 -134 62.001c-37.333 -0.666992 -77.5 -13.334 -120.5 -38.001s-90.333 -64.167 -142 -118.5
s-105.167 -122.5 -160.5 -204.5zM347 122c-78.667 -81.333 -191.001 -121.998 -337.001 -121.998h-17c-32.667 0 -57.167 12.333 -73.5 37s-24.5 55 -24.5 91v19c0 33.333 8.66699 61.166 26 83.499s41.666 33.5 72.999 33.5h16c35.333 0 66 2.33301 92 7
s46.833 11.5 62.5 20.5s27.667 19.333 36 31s13.833 25.167 16.5 40.5c7.33301 38 8.33301 94 3 168l-5 82l-3 38l38 4l165 20l41 4l3 -41l18 -232c0.666992 -10 1.66699 -19.333 3 -28s2.83301 -16.5 4.5 -23.5s3.5 -13.5 5.5 -19.5s4.16699 -11.167 6.5 -15.5
s4.5 -7.83301 6.5 -10.5c78.667 128.667 156 236.167 232 322.5s153.333 152.166 232 197.499s157 67.666 235 66.999c76 0 143.833 -14.667 203.5 -44s109.834 -73 150.501 -131c48.667 -70.667 72.667 -148 72 -232c0 -39.333 -4.66699 -80.666 -14 -123.999
c-56.667 -243.333 -309.334 -365 -758.001 -365h-51c-111.333 0 -205.166 9.66699 -281.499 29s-135.166 50.333 -176.499 93z" />
    <glyph glyph-name="uniFEBC" unicode="&#x635;" horiz-adv-x="1719" arabic-form="medial" 
d="M477 406c2 -23.333 5.33496 -43.334 10.002 -60.001s10 -29 16 -37c119.333 194.667 236.833 341.334 352.5 440.001s231.834 147.667 348.501 147c152 0 269.333 -58.333 352 -175c24.667 -34.667 43.167 -72.167 55.5 -112.5s18.5 -82.5 18.5 -126.5
c0 -73.333 -19.667 -144 -59 -212c32 -4 78 -6 138 -6h18c8.66699 0 16.167 -1.33301 22.5 -4s11.666 -5.66699 15.999 -9s8 -8.5 11 -15.5s5.16699 -12.667 6.5 -17s2.33301 -11 3 -20s1.16699 -15.167 1.5 -18.5s0.333008 -9.5 0 -18.5s-0.5 -13.833 -0.5 -14.5v-19
c0 -2.66699 0.333008 -7.33398 1 -14.001c1.33301 -76 -19 -114 -61 -114h-24c-80 0 -149.5 6 -208.5 18s-108.167 31 -147.5 57c-104.667 -50 -268.334 -75 -491.001 -75h-51c-224 0 -376.333 40.667 -457 122c-80 -81.333 -192.667 -122 -338 -122h-17
c-32.667 0 -57.167 12.333 -73.5 37s-24.5 55 -24.5 91v19c0 32.667 8.5 60.334 25.5 83.001s41.167 34 72.5 34h16c47.333 0 86.166 4.33301 116.499 13s52.333 20 66 34s22.167 31.333 25.5 52c7.33301 38 8.33301 94 3 168l-5 82l-3 38l38 4l165 20l41 4l3 -41z
M782.002 263.999h80c178 0 305 17 381 51c43.333 18.667 74.5 41 93.5 67s28.833 57.667 29.5 95c0 34 -9 62.667 -27 86c-31.333 40.667 -76 61.334 -134 62.001c-37.333 -0.666992 -77.5 -13.334 -120.5 -38.001s-90.333 -64.167 -142 -118.5
s-105.167 -122.5 -160.5 -204.5z" />
    <glyph glyph-name="uniFEBD" unicode="&#x636;" horiz-adv-x="2607" arabic-form="isolated" 
d="M1941.22 1238.18l145.513 145.513l14.9795 14.9795l14.9785 -14.9795l146.584 -146.583l14.9785 -14.9785l-14.9785 -14.9795l-145.514 -145.513l-14.9785 -14.9795l-14.9795 14.9795l-146.583 146.583l-14.9785 14.9785zM1699 264l80.001 0.000976562
c178.667 0 305.667 17 381.001 51c43.333 18.667 74.5 41 93.5 67s28.833 57.667 29.5 95c0 34 -9 62.667 -27 86c-10.667 13.333 -22.334 24.666 -35 33.999c-12.667 9.33301 -27.334 16.166 -44.001 20.499s-35 6.83301 -55 7.5
c-56.667 -0.666992 -120.834 -30.667 -192.501 -90s-148.5 -149.666 -230.5 -270.999zM1722 0.000976562c-65.333 0 -124.334 3.16699 -177.001 9.5s-98.667 15.833 -138 28.5c-8 -78.667 -30.333 -156 -67 -232c-104.667 -217.333 -315.667 -326 -633 -326
c-210 0 -370 50.833 -480 152.5s-165 251.167 -165 448.5c0 142 34.667 296.667 104 464l15 37l37 -15l159 -65l36 -15l-14 -37c-54 -136.667 -81 -259 -81 -367c0 -118 31.833 -205.167 95.5 -261.5s163.834 -84.5 300.501 -84.5c149.333 0 259.333 33 330 99
s106.334 168 107.001 306c0 116.667 -29 234 -87 352l-19 41l42 15l173 60l39 13l12 -39l68 -211l5.5 -15c1.66699 -4.66699 3.5 -9 5.5 -13l6 -12c2 -4 3.83301 -7.33301 5.5 -10s3.5 -5.33398 5.5 -8.00098s3.83301 -5 5.5 -7s3.16699 -3.66699 4.5 -5
c118.667 196 236 344 352 444s232.667 149.667 350 149c76 0 143.833 -14.667 203.5 -44s109.834 -73 150.5 -131c48.667 -70.667 72.667 -148 72 -232c0 -39.333 -4.66699 -80.666 -14 -123.999c-56.667 -243.333 -309.334 -365 -758.001 -365h-51z" />
    <glyph glyph-name="uniFEBE" unicode="&#x636;" horiz-adv-x="2636" arabic-form="final" 
d="M1941.22 1238.18l145.513 145.513l14.9795 14.9795l14.9785 -14.9795l146.584 -146.583l14.9785 -14.9785l-14.9785 -14.9795l-145.514 -145.513l-14.9785 -14.9795l-14.9795 14.9795l-146.583 146.583l-14.9785 14.9785zM2644 264
c8.66699 0 16.167 -1.33398 22.5 -4.00098s11.666 -5.66699 15.999 -9s8 -8.5 11 -15.5s5.16699 -12.667 6.5 -17s2.5 -11 3.5 -20s1.5 -15.167 1.5 -18.5s-0.166992 -9.5 -0.5 -18.5s-0.5 -13.833 -0.5 -14.5v-19c0 -2 0.166992 -8.16699 0.5 -18.5s0.333008 -18.333 0 -24
s-0.833008 -13.5 -1.5 -23.5s-2.5 -18 -5.5 -24s-6.5 -12.333 -10.5 -19s-9.66699 -11.5 -17 -14.5s-16 -4.5 -26 -4.5h-24c-161.333 0 -280 25 -356 75c-27.333 -13.333 -58 -24.666 -92 -33.999s-71.5 -17 -112.5 -23s-85.167 -10.5 -132.5 -13.5
s-98.666 -4.5 -153.999 -4.5h-51c-65.333 0 -124.333 3.16699 -177 9.5s-98.667 15.833 -138 28.5c-8 -78.667 -30.333 -156 -67 -232c-104.667 -217.333 -316 -326 -634 -326c-209.333 0.666992 -368.833 51.5 -478.5 152.5s-164.834 249.5 -165.501 445.5
c-0.666992 142.667 34 298.334 104 467.001l15 37l37 -15l159 -65l36 -15l-14 -37c-54 -137.333 -81 -260 -81 -368c0.666992 -119.333 33.334 -207 98.001 -263s167 -83.333 307 -82c146 1.33301 253.667 34.833 323 100.5s104.333 166.5 105 302.5
c0 117.333 -29 235.333 -87 354l-19 41l42 15l173 60l39 13l12 -39l68 -215c5.33301 -16.667 11.333 -30.667 18 -42s13 -19.666 19 -24.999c226.667 374 448.667 571.667 666 593c12.667 0.666992 25.334 1 38 1c74.667 0.666992 141.834 -13.833 201.5 -43.5
c59.667 -29.667 110.167 -73.5 151.5 -131.5c16.667 -23.333 30.5 -47.833 41.5 -73.5s19.167 -52.334 24.5 -80.001s8 -56.167 8 -85.5c0 -14.667 -0.833008 -29.334 -2.5 -44.001s-4.16699 -29.167 -7.5 -43.5s-7.33301 -28.5 -12 -42.5s-10.167 -27.833 -16.5 -41.5
s-13.5 -27.167 -21.5 -40.5c16 -2 35.667 -3.5 59 -4.5s50 -1.5 80 -1.5h18zM1699 263.999h80c178 0 305 17 381 51c44 18.667 75.5 41.167 94.5 67.5s28.5 57.833 28.5 94.5c-0.666992 17.333 -3.16699 33.166 -7.5 47.499s-10.833 27.166 -19.5 38.499
c-31.333 40.667 -76 61.334 -134 62.001c-56.667 -0.666992 -121 -30.667 -193 -90s-148.667 -149.666 -230 -270.999z" />
    <glyph glyph-name="uniFEBF" unicode="&#x636;" horiz-adv-x="1690" arabic-form="initial" 
d="M1021.22 1238.18l145.513 145.513l14.9795 14.9795l14.9795 -14.9795l146.582 -146.583l14.9795 -14.9785l-14.9795 -14.9795l-145.513 -145.513l-14.9785 -14.9795l-14.9795 14.9795l-146.583 146.583l-14.9785 14.9785zM782 264h80c178.667 0 305.667 17 381 51
c29.333 12.667 53 27 71 43s31 33.667 39 53s12.333 41.333 13 66c0 34 -9 62.667 -27 86c-31.333 40.667 -76 61.334 -134 62.001c-37.333 -0.666992 -77.5 -13.334 -120.5 -38.001s-90.333 -64.167 -142 -118.5s-105.167 -122.5 -160.5 -204.5zM347 122
c-78.667 -81.333 -191.001 -121.998 -337.001 -121.998h-17c-32.667 0 -57.167 12.333 -73.5 37s-24.5 55 -24.5 91v19c0 33.333 8.66699 61.166 26 83.499s41.666 33.5 72.999 33.5h16c35.333 0 66 2.33301 92 7s46.833 11.5 62.5 20.5s27.667 19.333 36 31
s13.833 25.167 16.5 40.5c7.33301 38 8.33301 94 3 168l-5 82l-3 38l38 4l165 20l41 4l3 -41l18 -232c0.666992 -10 1.66699 -19.333 3 -28s2.83301 -16.5 4.5 -23.5s3.5 -13.5 5.5 -19.5s4.16699 -11.167 6.5 -15.5s4.5 -7.83301 6.5 -10.5
c78.667 128.667 156 236.167 232 322.5s153.333 152.166 232 197.499s157 67.666 235 66.999c76 0 143.833 -14.667 203.5 -44s109.834 -73 150.501 -131c48.667 -70.667 72.667 -148 72 -232c0 -39.333 -4.66699 -80.666 -14 -123.999
c-56.667 -243.333 -309.334 -365 -758.001 -365h-51c-111.333 0 -205.166 9.66699 -281.499 29s-135.166 50.333 -176.499 93z" />
    <glyph glyph-name="uniFEC0" unicode="&#x636;" horiz-adv-x="1719" arabic-form="medial" 
d="M1021.22 1238.18l145.513 145.513l14.9795 14.9795l14.9795 -14.9795l146.582 -146.583l14.9795 -14.9785l-14.9795 -14.9795l-145.513 -145.513l-14.9785 -14.9795l-14.9795 14.9795l-146.583 146.583l-14.9785 14.9785zM477 406
c2 -23.333 5.33496 -43.334 10.002 -60.001s10 -29 16 -37c119.333 194.667 236.833 341.334 352.5 440.001s231.834 147.667 348.501 147c152 0 269.333 -58.333 352 -175c24.667 -34.667 43.167 -72.167 55.5 -112.5s18.5 -82.5 18.5 -126.5
c0 -73.333 -19.667 -144 -59 -212c32 -4 78 -6 138 -6h18c8.66699 0 16.167 -1.33301 22.5 -4s11.666 -5.66699 15.999 -9s8 -8.5 11 -15.5s5.16699 -12.667 6.5 -17s2.33301 -11 3 -20s1.16699 -15.167 1.5 -18.5s0.333008 -9.5 0 -18.5s-0.5 -13.833 -0.5 -14.5v-19
c0 -2.66699 0.333008 -7.33398 1 -14.001c1.33301 -76 -19 -114 -61 -114h-24c-80 0 -149.5 6 -208.5 18s-108.167 31 -147.5 57c-104.667 -50 -268.334 -75 -491.001 -75h-51c-224 0 -376.333 40.667 -457 122c-80 -81.333 -192.667 -122 -338 -122h-17
c-32.667 0 -57.167 12.333 -73.5 37s-24.5 55 -24.5 91v19c0 32.667 8.5 60.334 25.5 83.001s41.167 34 72.5 34h16c47.333 0 86.166 4.33301 116.499 13s52.333 20 66 34s22.167 31.333 25.5 52c7.33301 38 8.33301 94 3 168l-5 82l-3 38l38 4l165 20l41 4l3 -41z
M782.002 263.999h80c178 0 305 17 381 51c43.333 18.667 74.5 41 93.5 67s28.833 57.667 29.5 95c0 34 -9 62.667 -27 86c-31.333 40.667 -76 61.334 -134 62.001c-37.333 -0.666992 -77.5 -13.334 -120.5 -38.001s-90.333 -64.167 -142 -118.5
s-105.167 -122.5 -160.5 -204.5z" />
    <glyph glyph-name="uniFEC1" unicode="&#x637;" horiz-adv-x="1490" arabic-form="isolated" 
d="M1008 896c76.667 0 144.667 -14.667 204 -44c60 -30 110 -74 150 -132c45.333 -66 68 -141.333 68 -226c0 -165.333 -66 -289 -198 -371c-132.667 -82 -324 -123 -574 -123h-557h-40v40v184v40h40h202l53 85v1050v40h40h173h40v-40v-708
c130.667 136.667 263.667 205 399 205zM664 265c175.333 0 302.334 17 381.001 51c43.333 19.333 74.666 41.833 93.999 67.5s29 56.167 29 91.5c0 23.333 -3.66699 43.666 -11 60.999s-19 33.333 -35 48c-30 27.333 -68.333 41 -115 41
c-57.333 0 -121.833 -29.667 -193.5 -89s-148.167 -149.666 -229.5 -270.999h80z" />
    <glyph glyph-name="uniFEC2" unicode="&#x637;" horiz-adv-x="1526" arabic-form="final" 
d="M583 265l81 0.000976562c176 0 303.667 17.667 383 53c21.333 9.33301 39.666 19.666 54.999 30.999s27.833 23.5 37.5 36.5s16.834 26.833 21.501 41.5s7 31 7 49c0 22.667 -4 42.667 -12 60c-6.66699 17.333 -18 33 -34 47c-10 9.33301 -20.833 17 -32.5 23
s-24.5 10.667 -38.5 14s-29.333 5 -46 5c-58 -0.666992 -122.667 -30.667 -194 -90s-147.333 -149.333 -228 -270zM658 0.000976562l-556.997 -0.00488281h-40v40v184v40h40h200l54 85v1050v40h40h174h40v-40v-707c128.667 136 261 204 397 204
c50.667 0.666992 97.667 -5.66602 141 -18.999s83.166 -33 119.499 -59s68.166 -58.667 95.499 -98c22.667 -32 39.667 -67 51 -105c6 -19.333 10.333 -39 13 -59c2.66699 -19.333 4 -39.666 4 -60.999c0 -16 -0.666992 -32 -2 -48c-2 -16 -4.33301 -31.667 -7 -47
s-6.33398 -30.666 -11.001 -45.999c-4.66699 -14 -10 -28.333 -16 -43c-6 -14 -12.667 -27.667 -20 -41c32 -4 79 -6 141 -6h18c8.66699 0 16 -1.33301 22 -4c6.66699 -2.66699 12 -5.66699 16 -9c4.66699 -3.33301 8.33398 -8.66602 11.001 -15.999
c3.33301 -6.66699 5.66602 -12 6.99902 -16c1.33301 -4.66699 2.33301 -11.667 3 -21c0.666992 -8.66699 1.33398 -14.667 2.00098 -18v-19c-0.666992 -2 -1 -6.66699 -1 -14v-19c0 -3.33301 0.333008 -8.66602 1 -15.999v-20c0 -5.33301 -0.333008 -12.333 -1 -21
s-1.66699 -15.667 -3 -21c-1.33301 -6 -3.66602 -12.333 -6.99902 -19c-2.66699 -7.33301 -6.33398 -13 -11.001 -17c-4 -4 -9.33301 -7.33301 -16 -10s-14.334 -4 -23.001 -4h-24c-168 0 -290.333 25 -367 75c-108.667 -50 -270 -75 -484 -75z" />
    <glyph glyph-name="uniFEC3" unicode="&#x637;" horiz-adv-x="1330" arabic-form="initial" 
d="M496 0l-503.002 0.00195312c-32.667 0 -57 12.333 -73 37c-16.667 24.667 -25 55 -25 91v19c0 33.333 8.33301 61 25 83c17.333 22.667 41.666 34 72.999 34h145c2.66699 3.33301 5.33398 7.33301 8.00098 12l9 15l11 17l13 20c4.66699 6.66699 9.33398 14 14.001 22
v1049v40h40h173h40v-40v-707c63.333 67.333 128.333 118.333 195 153c66 34 133.667 51 203 51c154.667 0.666992 273.334 -58 356.001 -176c22 -32 38.667 -67 50 -105c2 -6.66699 3.66699 -13.334 5 -20.001c2 -6.66699 3.66699 -13 5 -19
c1.33301 -6.66699 2.33301 -13.334 3 -20.001l2 -20l2 -20v-21c0 -240 -139 -393 -417 -459c-101.333 -24 -219.333 -36 -354 -36zM420.998 265.002l79.999 -0.000976562c176 0 304 17.333 384 52c28 12.667 51 26.834 69 42.501s31 33 39 52s12 40.167 12 63.5
c0 44.667 -15 80.667 -45 108c-15.333 14 -32.666 24.333 -51.999 31c-20 7.33301 -42 11 -66 11c-57.333 -0.666992 -121.833 -30.667 -193.5 -90s-147.5 -149.333 -227.5 -270z" />
    <glyph glyph-name="uniFEC4" unicode="&#x637;" horiz-adv-x="1354" arabic-form="medial" 
d="M421 265l79.999 0.000976562c174 0 302 17.667 384 53c42 18.667 72.5 40.667 91.5 66s28.5 55.666 28.5 90.999c0 44.667 -15 80.667 -45 108c-15.333 14 -32.666 24.333 -51.999 31c-20 7.33301 -42 11 -66 11c-57.333 -0.666992 -121.833 -30.667 -193.5 -90
s-147.5 -149.333 -227.5 -270zM495.999 0.000976562h-502.998c-32.667 0 -57 12.333 -73 37c-16.667 24.667 -25 55 -25 91v19c0 33.333 8.33301 61 25 83c17.333 22.667 41.666 34 72.999 34h146l25 39c7.33301 11.333 13.333 21 18 29l11 17v1050v40h40h173h40v-40v-707
c128.667 136 261.334 204 398.001 204c157.333 0.666992 276 -58.333 356 -177c44.667 -66 67 -140.667 67 -224c0 -82 -18.667 -157 -56 -225c30 -4 73.667 -6 131 -6h19c8 0 15.333 -1.33301 22 -4c6 -2.66699 11.333 -5.66699 16 -9c4 -3.33301 7.5 -8.5 10.5 -15.5
s5.16699 -12.5 6.5 -16.5c1.33301 -4.66699 2.66602 -11.667 3.99902 -21c0.666992 -8.66699 1 -14.667 1 -18v-18.5v-14.5v-19v-18c0.666992 -11.333 0.666992 -19.333 0 -24c0 -5.33301 -0.666992 -13.333 -2 -24c-0.666992 -10.667 -2.33398 -18.667 -5.00098 -24
c-2.66699 -6 -6 -12.333 -10 -19c-4.66699 -6.66699 -10.667 -11.334 -18 -14.001c-7.33301 -3.33301 -15.666 -5 -24.999 -5h-24c-162.667 0 -282 25 -358 75c-38.667 -16.667 -82.667 -30.667 -132 -42c-48.667 -11.333 -102 -19.666 -160 -24.999
c-58.667 -5.33301 -122.334 -8 -191.001 -8z" />
    <glyph glyph-name="uniFEC5" unicode="&#x638;" horiz-adv-x="1490" arabic-form="isolated" 
d="M1008 896c76.667 0 144.667 -14.667 204 -44c60 -30 110 -74 150 -132c45.333 -66 68 -141.333 68 -226c0 -165.333 -66 -289 -198 -371c-132.667 -82 -324 -123 -574 -123h-557h-40v40v184v40h40h202l53 85v1050v40h40h173h40v-40v-708
c130.667 136.667 263.667 205 399 205zM664 265c175.333 0 302.334 17 381.001 51c43.333 19.333 74.666 41.833 93.999 67.5s29 56.167 29 91.5c0 23.333 -3.66699 43.666 -11 60.999s-19 33.333 -35 48c-30 27.333 -68.333 41 -115 41
c-57.333 0 -121.833 -29.667 -193.5 -89s-148.167 -149.666 -229.5 -270.999h80zM839.224 1238.18l145.513 145.513l14.9795 14.9795l14.9795 -14.9795l146.582 -146.583l14.9795 -14.9785l-14.9795 -14.9795l-145.513 -145.513l-14.9785 -14.9795l-14.9795 14.9795
l-146.583 146.583l-14.9785 14.9785z" />
    <glyph glyph-name="uniFEC6" unicode="&#x638;" horiz-adv-x="1526" arabic-form="final" 
d="M839.223 1238.18l145.513 145.513l14.9795 14.9795l14.9795 -14.9795l146.582 -146.583l14.9795 -14.9785l-14.9795 -14.9795l-145.513 -145.513l-14.9785 -14.9795l-14.9795 14.9795l-146.583 146.583l-14.9785 14.9785zM583 265l81 0.000976562
c176 0 303.667 17.667 383 53c21.333 9.33301 39.666 19.666 54.999 30.999s27.833 23.5 37.5 36.5s16.834 26.833 21.501 41.5s7 31 7 49c0 22.667 -4 42.667 -12 60c-6.66699 17.333 -18 33 -34 47c-10 9.33301 -20.833 17 -32.5 23s-24.5 10.667 -38.5 14
s-29.333 5 -46 5c-58 -0.666992 -122.667 -30.667 -194 -90s-147.333 -149.333 -228 -270zM658 0.000976562l-556.997 -0.00488281h-40v40v184v40h40h200l54 85v1050v40h40h174h40v-40v-707c128.667 136 261 204 397 204c50.667 0.666992 97.667 -5.66602 141 -18.999
s83.166 -33 119.499 -59s68.166 -58.667 95.499 -98c22.667 -32 39.667 -67 51 -105c6 -19.333 10.333 -39 13 -59c2.66699 -19.333 4 -39.666 4 -60.999c0 -16 -0.666992 -32 -2 -48c-2 -16 -4.33301 -31.667 -7 -47s-6.33398 -30.666 -11.001 -45.999
c-4.66699 -14 -10 -28.333 -16 -43c-6 -14 -12.667 -27.667 -20 -41c32 -4 79 -6 141 -6h18c8.66699 0 16 -1.33301 22 -4c6.66699 -2.66699 12 -5.66699 16 -9c4.66699 -3.33301 8.33398 -8.66602 11.001 -15.999c3.33301 -6.66699 5.66602 -12 6.99902 -16
c1.33301 -4.66699 2.33301 -11.667 3 -21c0.666992 -8.66699 1.33398 -14.667 2.00098 -18v-19c-0.666992 -2 -1 -6.66699 -1 -14v-19c0 -3.33301 0.333008 -8.66602 1 -15.999v-20c0 -5.33301 -0.333008 -12.333 -1 -21s-1.66699 -15.667 -3 -21
c-1.33301 -6 -3.66602 -12.333 -6.99902 -19c-2.66699 -7.33301 -6.33398 -13 -11.001 -17c-4 -4 -9.33301 -7.33301 -16 -10s-14.334 -4 -23.001 -4h-24c-168 0 -290.333 25 -367 75c-108.667 -50 -270 -75 -484 -75z" />
    <glyph glyph-name="uniFEC7" unicode="&#x638;" horiz-adv-x="1330" arabic-form="initial" 
d="M679.223 1238.18l145.513 145.513l14.9795 14.9795l14.9795 -14.9795l146.582 -146.583l14.9795 -14.9785l-14.9795 -14.9795l-145.513 -145.513l-14.9785 -14.9795l-14.9795 14.9795l-146.583 146.583l-14.9785 14.9785zM496 0l-503.002 0.00195312
c-32.667 0 -57 12.333 -73 37c-16.667 24.667 -25 55 -25 91v19c0 33.333 8.33301 61 25 83c17.333 22.667 41.666 34 72.999 34h145c2.66699 3.33301 5.33398 7.33301 8.00098 12l9 15l11 17l13 20c4.66699 6.66699 9.33398 14 14.001 22v1049v40h40h173h40v-40v-707
c63.333 67.333 128.333 118.333 195 153c66 34 133.667 51 203 51c154.667 0.666992 273.334 -58 356.001 -176c22 -32 38.667 -67 50 -105c2 -6.66699 3.66699 -13.334 5 -20.001c2 -6.66699 3.66699 -13 5 -19c1.33301 -6.66699 2.33301 -13.334 3 -20.001l2 -20l2 -20
v-21c0 -240 -139 -393 -417 -459c-101.333 -24 -219.333 -36 -354 -36zM420.998 265.002l79.999 -0.000976562c176 0 304 17.333 384 52c28 12.667 51 26.834 69 42.501s31 33 39 52s12 40.167 12 63.5c0 44.667 -15 80.667 -45 108c-15.333 14 -32.666 24.333 -51.999 31
c-20 7.33301 -42 11 -66 11c-57.333 -0.666992 -121.833 -30.667 -193.5 -90s-147.5 -149.333 -227.5 -270z" />
    <glyph glyph-name="uniFEC8" unicode="&#x638;" horiz-adv-x="1354" arabic-form="medial" 
d="M679.223 1238.18l145.513 145.513l14.9795 14.9795l14.9795 -14.9795l146.582 -146.583l14.9795 -14.9785l-14.9795 -14.9795l-145.513 -145.513l-14.9785 -14.9795l-14.9795 14.9795l-146.583 146.583l-14.9785 14.9785zM421 265l79.999 0.000976562
c174 0 302 17.667 384 53c42 18.667 72.5 40.667 91.5 66s28.5 55.666 28.5 90.999c0 44.667 -15 80.667 -45 108c-15.333 14 -32.666 24.333 -51.999 31c-20 7.33301 -42 11 -66 11c-57.333 -0.666992 -121.833 -30.667 -193.5 -90s-147.5 -149.333 -227.5 -270z
M495.999 0.000976562h-502.998c-32.667 0 -57 12.333 -73 37c-16.667 24.667 -25 55 -25 91v19c0 33.333 8.33301 61 25 83c17.333 22.667 41.666 34 72.999 34h146l25 39c7.33301 11.333 13.333 21 18 29l11 17v1050v40h40h173h40v-40v-707
c128.667 136 261.334 204 398.001 204c157.333 0.666992 276 -58.333 356 -177c44.667 -66 67 -140.667 67 -224c0 -82 -18.667 -157 -56 -225c30 -4 73.667 -6 131 -6h19c8 0 15.333 -1.33301 22 -4c6 -2.66699 11.333 -5.66699 16 -9c4 -3.33301 7.5 -8.5 10.5 -15.5
s5.16699 -12.5 6.5 -16.5c1.33301 -4.66699 2.66602 -11.667 3.99902 -21c0.666992 -8.66699 1 -14.667 1 -18v-18.5v-14.5v-19v-18c0.666992 -11.333 0.666992 -19.333 0 -24c0 -5.33301 -0.666992 -13.333 -2 -24c-0.666992 -10.667 -2.33398 -18.667 -5.00098 -24
c-2.66699 -6 -6 -12.333 -10 -19c-4.66699 -6.66699 -10.667 -11.334 -18 -14.001c-7.33301 -3.33301 -15.666 -5 -24.999 -5h-24c-162.667 0 -282 25 -358 75c-38.667 -16.667 -82.667 -30.667 -132 -42c-48.667 -11.333 -102 -19.666 -160 -24.999
c-58.667 -5.33301 -122.334 -8 -191.001 -8z" />
    <glyph glyph-name="uniFEC9" unicode="&#x639;" horiz-adv-x="1330" arabic-form="isolated" 
d="M652 547c111.333 18 207.668 27.3359 289.001 28.0029c64 0 126.333 -3.33301 187 -10l41 -5l-6 -40l-22 -175l-5 -37l-36 2c-56.667 2 -94.667 2.66699 -114 2c-230.667 -6.66699 -400.167 -44.834 -508.5 -114.501s-162.5 -170.5 -162.5 -302.5
c0 -145.333 74 -239.666 222 -282.999c69.333 -20 155.333 -30 258 -30c132.667 0 263 30.333 391 91l46 22l11 -50l36 -179l6 -30l-28 -13c-138 -68 -296 -102 -474 -102c-233.333 0 -411.333 47.667 -534 143s-184 236.666 -184 423.999c0 128.667 28.333 240.667 85 336
s140 171.666 250 228.999c-32.667 44 -57.167 89.5 -73.5 136.5s-24.5 95.5 -24.5 145.5c0 51.333 10 102.333 30 153c20 49.333 49.667 94.666 89 135.999c75.333 80 179.666 120 312.999 120c110 0 228 -43 354 -129l28 -19l-14 -31l-67 -149l-19 -41l-38 23
c-93.333 55.333 -171.333 83 -234 83c-70.667 0 -122 -26.333 -154 -79c-16 -26 -24 -52.667 -24 -80c0 -24 6.33301 -49 19 -75c12 -24 34.333 -57.333 67 -100z" />
    <glyph glyph-name="uniFECA" unicode="&#x639;" horiz-adv-x="1187" arabic-form="final" 
d="M584 198c-179.333 -104 -268.997 -221.999 -268.997 -353.999c0 -42 7 -78.333 21 -109s36.333 -56.667 67 -78s70.5 -37.5 119.5 -48.5s107.833 -16.5 176.5 -16.5c106 0 215.667 23.333 329 70l45 18l9 -47l36 -179l7 -31l-30 -13
c-116 -52.667 -251.667 -78.667 -407 -78c-178 0.666992 -317.667 35.334 -419 104.001c-135.333 92.667 -203.666 228.667 -204.999 408c0 206 94 377 282 513c-82.667 53.333 -145.667 106.666 -189 159.999s-65 108 -65 164c0 87.333 62 158 186 212
c78 34 183.333 51 316 51c45.333 0 87.166 -1.66699 125.499 -5s73.833 -8.66602 106.5 -15.999s62 -16.666 88 -27.999c55.333 -23.333 98.166 -52.666 128.499 -87.999s45.5 -76 45.5 -122c0 -54 -24 -108.5 -72 -163.5s-119 -113.5 -213 -175.5
c93.333 -54.667 214.666 -82 363.999 -82h29c8 0 15.167 -1.33301 21.5 -4s11.666 -5.83398 15.999 -9.50098s8 -8.83398 11 -15.501s5.16699 -12.167 6.5 -16.5s2.5 -10.833 3.5 -19.5s1.5 -14.834 1.5 -18.501s-0.166992 -9.83398 -0.5 -18.501s-0.5 -13.667 -0.5 -15v-19
c0 -2 0.166992 -8.16699 0.5 -18.5s0.333008 -18.333 0 -24s-1 -13.5 -2 -23.5s-2.83301 -18 -5.5 -24s-6 -12.333 -10 -19s-9.66699 -11.5 -17 -14.5s-16 -4.5 -26 -4.5h-28c-204 0 -398.333 66 -583 198zM588.003 511.001c122.667 67.333 199.33 118.001 229.997 152.001
c-38 12.667 -113 19 -225 19c-38.667 0 -74.167 -1.16699 -106.5 -3.5s-58.166 -5.33301 -77.499 -9s-33.666 -7.83398 -42.999 -12.501c12.667 -14 38.334 -33.833 77.001 -59.5s87 -54.5 145 -86.5z" />
    <glyph glyph-name="uniFECB" unicode="&#x639;" horiz-adv-x="1068" arabic-form="initial" 
d="M837 593c-75.333 62 -149.001 93.333 -221.001 94c-9.33301 0 -18.5 -0.166992 -27.5 -0.5s-17.667 -1.16602 -26 -2.49902s-16.5 -3 -24.5 -5s-15.333 -4.33301 -22 -7c-14.667 -5.33301 -28.167 -11.833 -40.5 -19.5s-23.5 -16.167 -33.5 -25.5
c-10 -10.667 -18.667 -21.334 -26 -32.001s-13.333 -21.667 -18 -33c-10 -24 -15 -50.667 -15 -80c0 -73.333 44.333 -131.666 133 -174.999l9 -4l426 108l50 13v-52v-184v-29l-28 -9c-321.333 -100 -617.333 -150 -888 -150h-92c-32.667 0 -57.167 12.333 -73.5 37
s-24.5 55 -24.5 91v19c0 21.333 3.5 40.666 10.5 57.999s18 31.5 33 42.5s33.167 16.5 54.5 16.5h198l-1 1c-41.333 63.333 -61.666 139 -60.999 227c0.666992 118.667 33.334 218.667 98.001 300c34.667 43.333 78 79 130 107c67.333 36.667 145.666 54.667 234.999 54
c148 -0.666992 270.333 -51 367 -151l18 -19l-11 -25l-67 -150l-21 -48z" />
    <glyph glyph-name="uniFECC" unicode="&#x639;" horiz-adv-x="1151" arabic-form="medial" 
d="M841 298c70 -22.667 168 -34.0029 294 -34.0029h23c8.66699 0 16.167 -1.33301 22.5 -4s11.666 -5.66699 15.999 -9s8 -8.5 11 -15.5s5.16699 -12.667 6.5 -17s2.33301 -11 3 -20s1.16699 -15.167 1.5 -18.5s0.333008 -9.5 0 -18.5s-0.5 -13.833 -0.5 -14.5v-19
c0 -20.667 -0.666992 -38.667 -2 -54v-1l-1 -1c-2 -16.667 -5.33301 -30 -10 -40v-1l-1 -1c-10.667 -20 -26 -30 -46 -30h-23c-216.667 0 -389 44.333 -517 133c-120.667 -88.667 -321 -133 -601 -133h-24c-32.667 0 -57.167 12.333 -73.5 37s-24.5 55 -24.5 91v19
c0 32.667 8.5 60.334 25.5 83.001s41.167 34 72.5 34h27c162.667 0 282.334 11 359.001 33c-174 110 -261 221.333 -261 334c0 86.667 60.667 157 182 211c77.333 35.333 183.666 53.333 318.999 54c130.667 0.666992 237.667 -16.666 321 -51.999
c27.333 -10.667 51.5 -23.167 72.5 -37.5s39.167 -30.166 54.5 -47.499s27 -36.333 35 -57s12 -42.667 12 -66c0 -54.667 -23.167 -109.5 -69.5 -164.5s-114.166 -112.833 -203.499 -173.5zM836 606.997c-14 7.33301 -40.332 13.333 -78.999 18s-86.334 7 -143.001 7
c-30.667 0 -59.5 -0.833008 -86.5 -2.5s-49.667 -3.83398 -68 -6.50098s-33.5 -5.66699 -45.5 -9s-20.333 -6.66602 -25 -9.99902c3.33301 -6 9.33301 -13.667 18 -23c42 -44.667 110.667 -92 206 -142c88 48.667 157 98.667 207 150c6.66699 6.66699 12 12.667 16 18z" />
    <glyph glyph-name="uniFECD" unicode="&#x63a;" horiz-adv-x="1330" arabic-form="isolated" 
d="M652 547c111.333 18 207.668 27.3359 289.001 28.0029c64 0 126.333 -3.33301 187 -10l41 -5l-6 -40l-22 -175l-5 -37l-36 2c-56.667 2 -94.667 2.66699 -114 2c-230.667 -6.66699 -400.167 -44.834 -508.5 -114.501s-162.5 -170.5 -162.5 -302.5
c0 -145.333 74 -239.666 222 -282.999c69.333 -20 155.333 -30 258 -30c132.667 0 263 30.333 391 91l46 22l11 -50l36 -179l6 -30l-28 -13c-138 -68 -296 -102 -474 -102c-233.333 0 -411.333 47.667 -534 143s-184 236.666 -184 423.999c0 128.667 28.333 240.667 85 336
s140 171.666 250 228.999c-32.667 44 -57.167 89.5 -73.5 136.5s-24.5 95.5 -24.5 145.5c0 51.333 10 102.333 30 153c20 49.333 49.667 94.666 89 135.999c75.333 80 179.666 120 312.999 120c110 0 228 -43 354 -129l28 -19l-14 -31l-67 -149l-19 -41l-38 23
c-93.333 55.333 -171.333 83 -234 83c-70.667 0 -122 -26.333 -154 -79c-16 -26 -24 -52.667 -24 -80c0 -24 6.33301 -49 19 -75c12 -24 34.333 -57.333 67 -100zM544.225 1432.19l145.513 145.513l14.9795 14.9795l14.9795 -14.9795l146.582 -146.583l14.9795 -14.9785
l-14.9795 -14.9795l-145.513 -145.513l-14.9785 -14.9795l-14.9795 14.9795l-146.583 146.583l-14.9785 14.9785z" />
    <glyph glyph-name="uniFECE" unicode="&#x63a;" horiz-adv-x="1187" arabic-form="final" 
d="M584 198c-179.333 -104 -268.997 -221.999 -268.997 -353.999c0 -42 7 -78.333 21 -109s36.333 -56.667 67 -78s70.5 -37.5 119.5 -48.5s107.833 -16.5 176.5 -16.5c106 0 215.667 23.333 329 70l45 18l9 -47l36 -179l7 -31l-30 -13
c-116 -52.667 -251.667 -78.667 -407 -78c-178 0.666992 -317.667 35.334 -419 104.001c-135.333 92.667 -203.666 228.667 -204.999 408c0 206 94 377 282 513c-82.667 53.333 -145.667 106.666 -189 159.999s-65 108 -65 164c0 87.333 62 158 186 212
c78 34 183.333 51 316 51c45.333 0 87.166 -1.66699 125.499 -5s73.833 -8.66602 106.5 -15.999s62 -16.666 88 -27.999c55.333 -23.333 98.166 -52.666 128.499 -87.999s45.5 -76 45.5 -122c0 -54 -24 -108.5 -72 -163.5s-119 -113.5 -213 -175.5
c93.333 -54.667 214.666 -82 363.999 -82h29c8 0 15.167 -1.33301 21.5 -4s11.666 -5.83398 15.999 -9.50098s8 -8.83398 11 -15.501s5.16699 -12.167 6.5 -16.5s2.5 -10.833 3.5 -19.5s1.5 -14.834 1.5 -18.501s-0.166992 -9.83398 -0.5 -18.501s-0.5 -13.667 -0.5 -15v-19
c0 -2 0.166992 -8.16699 0.5 -18.5s0.333008 -18.333 0 -24s-1 -13.5 -2 -23.5s-2.83301 -18 -5.5 -24s-6 -12.333 -10 -19s-9.66699 -11.5 -17 -14.5s-16 -4.5 -26 -4.5h-28c-204 0 -398.333 66 -583 198zM588.003 511.001c122.667 67.333 199.33 118.001 229.997 152.001
c-38 12.667 -113 19 -225 19c-38.667 0 -74.167 -1.16699 -106.5 -3.5s-58.166 -5.33301 -77.499 -9s-33.666 -7.83398 -42.999 -12.501c12.667 -14 38.334 -33.833 77.001 -59.5s87 -54.5 145 -86.5zM417.222 1262.19l145.513 145.513l14.9795 14.9795l14.9795 -14.9795
l146.582 -146.583l14.9795 -14.9785l-14.9795 -14.9795l-145.513 -145.513l-14.9785 -14.9795l-14.9795 14.9795l-146.583 146.583l-14.9785 14.9785z" />
    <glyph glyph-name="uniFECF" unicode="&#x63a;" horiz-adv-x="1063" arabic-form="initial" 
d="M837 593c-75.333 62 -149.001 93.333 -221.001 94c-9.33301 0 -18.5 -0.166992 -27.5 -0.5s-17.667 -1.16602 -26 -2.49902s-16.5 -3 -24.5 -5s-15.333 -4.33301 -22 -7c-14.667 -5.33301 -28.167 -11.833 -40.5 -19.5s-23.5 -16.167 -33.5 -25.5
c-10 -10.667 -18.667 -21.334 -26 -32.001s-13.333 -21.667 -18 -33c-10 -24 -15 -50.667 -15 -80c0 -73.333 44.333 -131.666 133 -174.999l9 -4l426 108l50 13v-52v-184v-29l-28 -9c-321.333 -100 -617.333 -150 -888 -150h-92c-32.667 0 -57.167 12.333 -73.5 37
s-24.5 55 -24.5 91v19c0 21.333 3.5 40.666 10.5 57.999s18 31.5 33 42.5s33.167 16.5 54.5 16.5h198l-1 1c-41.333 63.333 -61.666 139 -60.999 227c0.666992 118.667 33.334 218.667 98.001 300c34.667 43.333 78 79 130 107c67.333 36.667 145.666 54.667 234.999 54
c148 -0.666992 270.333 -51 367 -151l18 -19l-11 -25l-67 -150l-21 -48zM408.222 1297.18l145.513 145.513l14.9795 14.9795l14.9795 -14.9795l146.582 -146.583l14.9795 -14.9785l-14.9795 -14.9795l-145.513 -145.513l-14.9785 -14.9795l-14.9795 14.9795
l-146.583 146.583l-14.9785 14.9785z" />
    <glyph glyph-name="uniFED0" unicode="&#x63a;" horiz-adv-x="1151" arabic-form="medial" 
d="M841 298c70 -22.667 168 -34.0029 294 -34.0029h23c8.66699 0 16.167 -1.33301 22.5 -4s11.666 -5.66699 15.999 -9s8 -8.5 11 -15.5s5.16699 -12.667 6.5 -17s2.33301 -11 3 -20s1.16699 -15.167 1.5 -18.5s0.333008 -9.5 0 -18.5s-0.5 -13.833 -0.5 -14.5v-19
c0 -20.667 -0.666992 -38.667 -2 -54v-1l-1 -1c-2 -16.667 -5.33301 -30 -10 -40v-1l-1 -1c-10.667 -20 -26 -30 -46 -30h-23c-216.667 0 -389 44.333 -517 133c-120.667 -88.667 -321 -133 -601 -133h-24c-32.667 0 -57.167 12.333 -73.5 37s-24.5 55 -24.5 91v19
c0 32.667 8.5 60.334 25.5 83.001s41.167 34 72.5 34h27c162.667 0 282.334 11 359.001 33c-174 110 -261 221.333 -261 334c0 86.667 60.667 157 182 211c77.333 35.333 183.666 53.333 318.999 54c130.667 0.666992 237.667 -16.666 321 -51.999
c27.333 -10.667 51.5 -23.167 72.5 -37.5s39.167 -30.166 54.5 -47.499s27 -36.333 35 -57s12 -42.667 12 -66c0 -54.667 -23.167 -109.5 -69.5 -164.5s-114.166 -112.833 -203.499 -173.5zM836 606.997c-14 7.33301 -40.332 13.333 -78.999 18s-86.334 7 -143.001 7
c-30.667 0 -59.5 -0.833008 -86.5 -2.5s-49.667 -3.83398 -68 -6.50098s-33.5 -5.66699 -45.5 -9s-20.333 -6.66602 -25 -9.99902c3.33301 -6 9.33301 -13.667 18 -23c42 -44.667 110.667 -92 206 -142c88 48.667 157 98.667 207 150c6.66699 6.66699 12 12.667 16 18z
M451.224 1240.18l145.513 145.513l14.9795 14.9795l14.9795 -14.9795l146.582 -146.583l14.9795 -14.9785l-14.9795 -14.9795l-145.513 -145.513l-14.9785 -14.9795l-14.9795 14.9795l-146.583 146.583l-14.9785 14.9785z" />
    <glyph glyph-name="uniFED1" unicode="&#x641;" horiz-adv-x="1851" arabic-form="isolated" 
d="M1212.22 1434.18l145.513 145.513l14.9795 14.9795l14.9795 -14.9795l146.582 -146.583l14.9795 -14.9785l-14.9795 -14.9795l-145.513 -145.513l-14.9785 -14.9795l-14.9795 14.9795l-146.583 146.583l-14.9785 14.9785zM1788 513
c-1.33301 -202 -52 -340.332 -152 -414.999c-18 -14 -38.667 -26.333 -62 -37s-48.666 -19.834 -75.999 -27.501s-57.166 -14 -89.499 -19s-66.5 -8.66699 -102.5 -11s-74.667 -3.5 -116 -3.5h-330c-260 0 -458.5 43.667 -595.5 131s-205.5 219 -205.5 395
c0 96 19.333 187 58 273l16 36l37 -16l157 -68l36 -15l-14 -36c-20.667 -52 -31 -101.667 -31 -149c0 -94 42.167 -165.333 126.5 -214s218.166 -73 401.499 -73h365c105.333 0 184.833 11 238.5 33s85.834 52 96.501 90c-24.667 -5.33301 -49.834 -9.33301 -75.501 -12
s-52.167 -4 -79.5 -4c-115.333 0 -205 26.333 -269 79s-97 129.667 -99 231c-0.666992 16 -0.166992 31.667 1.5 47s3.83398 30.333 6.50098 45c21.333 113.333 62.666 201.333 123.999 264c63.333 65.333 142 98 236 98c64 0 120.333 -15.667 169 -47
c62.667 -40.667 112.167 -98.5 148.5 -173.5s60.166 -166.5 71.499 -274.5c2 -22 3.66699 -43.667 5 -65s2.33301 -42 3 -62zM1267 709.001c0 -28.667 9.83398 -50.001 29.501 -64.001s55.5 -20.667 107.5 -20c41.333 0 83.333 5 126 15c-4.66699 30 -10.667 57.333 -18 82
s-15.666 47.334 -24.999 68.001c-14 30.667 -29.333 52.5 -46 65.5s-35.334 19.5 -56.001 19.5c-24.667 0 -45.834 -8 -63.501 -24s-32.5 -43.333 -44.5 -82c-6.66699 -21.333 -10 -41.333 -10 -60z" />
    <glyph glyph-name="uniFED2" unicode="&#x641;" horiz-adv-x="2025" arabic-form="final" 
d="M1369.22 1307.18l145.513 145.513l14.9795 14.9795l14.9795 -14.9795l146.582 -146.583l14.9795 -14.9785l-14.9795 -14.9795l-145.513 -145.513l-14.9785 -14.9795l-14.9795 14.9795l-146.583 146.583l-14.9785 14.9785zM1452 653
c-17.333 -16.667 -29.665 -32.502 -36.998 -47.502s-11 -28.833 -11 -41.5c0 -30.667 18 -67 54 -109c8.66699 -10 17.167 -19 25.5 -27l21.5 -20c6 -5.33301 11.5 -9.83301 16.5 -13.5s9 -6.16699 12 -7.5s5.16699 -2.33301 6.5 -3c2 0.666992 6.33301 3 13 7
s16.334 11.833 29.001 23.5s26 25.167 40 40.5c36 42 53.667 78 53 108c0.666992 6.66699 0.166992 13.334 -1.5 20.001s-4.33398 13.667 -8.00098 21s-8.33398 15 -14.001 23s-12.834 16.333 -21.501 25s-18.667 17.334 -30 26.001c-26.667 22 -48.667 33 -66 33
c-2.66699 0 -7.16699 -1.5 -13.5 -4.5s-15.833 -9.33301 -28.5 -19s-26 -21.167 -40 -34.5zM1535 120.998c-68.667 -41.333 -156 -71.8359 -262 -91.5029s-232.333 -29.5 -379 -29.5h-34c-260 0 -458.5 43.667 -595.5 131s-205.5 219 -205.5 395c0 96 19.333 187 58 273
l16 36l37 -16l157 -68l36 -16l-14 -36c-10.667 -25.333 -18.5 -50.166 -23.5 -74.499s-7.5 -48.166 -7.5 -71.499c0 -62.667 18.5 -115 55.5 -157s96.833 -74.5 179.5 -97.5s188.667 -34.5 318 -34.5c176.667 0 308 5.66699 394 17c-38.667 42.667 -67.667 88.5 -87 137.5
s-29 101.167 -29 156.5c0 130.667 71.667 245.667 215 345c53.333 37.333 112 56 176 56c20 0 39.333 -1.5 58 -4.5s36.667 -7.66699 54 -14s34 -14.166 50 -23.499c153.333 -92.667 230 -216.334 230 -371.001c0 -106 -40 -201 -120 -285
c51.333 -9.33301 114.333 -14 189 -14h32c7.33301 0 14 -0.833008 20 -2.5s11 -4.5 15 -8.5s7.66699 -7.83301 11 -11.5s5.83301 -8.66699 7.5 -15s3 -11.833 4 -16.5s1.83301 -10.667 2.5 -18s1 -12.833 1 -16.5s-0.166992 -9 -0.5 -16s-0.5 -11.167 -0.5 -12.5v-19
c0 -41.333 -1 -66.666 -3 -75.999c-8 -34 -27 -51.333 -57 -52h-30c-192.667 0 -348.667 40.333 -468 121z" />
    <glyph glyph-name="uniFED3" unicode="&#x641;" horiz-adv-x="904" arabic-form="initial" 
d="M446 372c-116.667 0 -206.998 26.499 -270.998 79.499s-96.667 130.167 -98 231.5c0 10 0.333008 20.167 1 30.5s1.66699 20.5 3 30.5s3 20 5 30c10.667 55.333 26.167 105.166 46.5 149.499s46.166 82.5 77.499 114.5c63.333 65.333 142 98 236 98
c31.333 0 61.166 -4 89.499 -12s54.833 -19.667 79.5 -35c122 -79.333 195.333 -228.333 220 -447c2 -22.667 3.66699 -44.5 5 -65.5s2 -41.833 2 -62.5c0 -202 -50.333 -340.667 -151 -416c-87.333 -65.333 -236 -98 -446 -98h-252c-32.667 0 -57.167 12.333 -73.5 37
s-24.5 55 -24.5 91v19c0 32.667 8.5 60.334 25.5 83.001s41.167 34 72.5 34h263c105.333 0 185.833 11 241.5 33s89.5 52 101.5 90c-16 -3.33301 -32.5 -6.16602 -49.5 -8.49902s-34 -4 -51 -5s-34.5 -1.5 -52.5 -1.5zM322.002 709.999
c0 -28.667 9.83301 -50.0029 29.5 -64.0029s55.5 -20.667 107.5 -20c20.667 0 41.5 1.33301 62.5 4s42.167 6.33398 63.5 11.001c-5.33301 30 -11.5 57.333 -18.5 82s-15.167 47.334 -24.5 68.001c-7.33301 16 -15 29.5 -23 40.5s-16.167 19.833 -24.5 26.5
s-17 11.334 -26 14.001s-18.833 4 -29.5 4c-24.667 0 -45.667 -8 -63 -24s-32 -43.333 -44 -82c-2.66699 -7.33301 -4.66699 -14.5 -6 -21.5s-2.33301 -13.667 -3 -20s-1 -12.5 -1 -18.5zM258.225 1434.18l145.513 145.513l14.9795 14.9795l14.9795 -14.9795
l146.582 -146.583l14.9795 -14.9785l-14.9795 -14.9795l-145.513 -145.513l-14.9785 -14.9795l-14.9795 14.9795l-146.583 146.583l-14.9785 14.9785z" />
    <glyph glyph-name="uniFED4" unicode="&#x641;" horiz-adv-x="1052" arabic-form="medial" 
d="M479 653c-16.667 -16.667 -28.8311 -32.499 -36.498 -47.499s-11.5 -28.833 -11.5 -41.5c0 -30.667 18 -67 54 -109l21.5 -23c7 -7.33301 13.333 -13.5 19 -18.5s10.834 -9.33301 15.501 -13s8.83398 -6.66699 12.501 -9l8.5 -5.5c2 -1.33301 3.66699 -2 5 -2
c0.666992 0.666992 2.16699 1.5 4.5 2.5s5.16602 2.66699 8.49902 5s7.5 5.5 12.5 9.5s10.333 8.5 16 13.5s12 11 19 18l21.5 22.5c36 42 54 78 54 108c0 11.333 -2.33301 22.666 -7 33.999s-12.834 24 -24.501 38s-26.5 28.333 -44.5 43c-26.667 22 -48.667 33 -66 33
c-1.33301 0 -3 -0.5 -5 -1.5s-4.83301 -2.33301 -8.5 -4s-7.83398 -4 -12.501 -7s-9.83398 -6.5 -15.501 -10.5s-12 -9 -19 -15s-14.167 -12.667 -21.5 -20zM562.003 120.001c-122 -80 -298 -119.999 -528 -119.999h-41c-32.667 0 -57.167 12.333 -73.5 37
s-24.5 55 -24.5 91v19c0 32.667 8.5 60.334 25.5 83.001s41.167 34 72.5 34h41c112.667 0.666992 199.667 5.66699 261 15c-79.333 85.333 -119 184 -119 296c0 66 18.333 127.833 55 185.5s90 110.834 160 159.501c53.333 37.333 112 56 176 56
c15.333 0 30 -0.833008 44 -2.5s27.833 -4.33398 41.5 -8.00098s26.834 -8 39.501 -13s25 -11.167 37 -18.5c153.333 -92.667 230 -216.334 230 -371.001c0 -106 -40 -201 -120 -285c51.333 -9.33301 114.333 -14 189 -14h32c8.66699 0 16.167 -1.33301 22.5 -4
s11.666 -5.66699 15.999 -9s8 -8.5 11 -15.5s5.16699 -12.667 6.5 -17s2.5 -11 3.5 -20s1.5 -15.167 1.5 -18.5s-0.166992 -9.5 -0.5 -18.5s-0.5 -13.833 -0.5 -14.5v-19c0 -2.66699 0.166992 -8 0.5 -16s0.5 -14.667 0.5 -20s-0.333008 -12.333 -1 -21
s-1.66699 -15.834 -3 -21.501s-3.5 -12 -6.5 -19s-6.66699 -12.5 -11 -16.5s-9.83301 -7.33301 -16.5 -10s-14.334 -4 -23.001 -4h-30c-95.333 0 -182.166 10 -260.499 30s-147.5 50 -207.5 90zM401.226 1305.19l145.513 145.513l14.9795 14.9795l14.9795 -14.9795
l146.582 -146.583l14.9795 -14.9785l-14.9795 -14.9795l-145.513 -145.513l-14.9785 -14.9795l-14.9795 14.9795l-146.583 146.583l-14.9785 14.9785z" />
    <glyph glyph-name="uniFED5" unicode="&#x642;" horiz-adv-x="1511" arabic-form="isolated" 
d="M1436 54c-26.667 -170 -99.335 -298.166 -218.002 -384.499s-279 -129.5 -481 -129.5c-144.667 0 -266.334 21.667 -365.001 65c-103.333 46.667 -181 116.667 -233 210c-51.333 92 -77.333 204.667 -78 338c-0.666992 159.333 34 313.666 104 462.999l16 35l35 -15
l159 -65l37 -15l-15 -37c-28 -69.333 -48.333 -133.666 -61 -192.999c-13.333 -58.667 -20 -113.667 -20 -165c0.666992 -83.333 15.834 -151.666 45.501 -204.999s75.334 -93.333 137.001 -120s140.834 -39.667 237.501 -39c139.333 0 246.166 24.833 320.499 74.5
s120.833 124.167 139.5 223.5c-48.667 -10 -99.334 -15.333 -152.001 -16c-116 -0.666992 -206.167 25.5 -270.5 78.5s-97.166 130.5 -98.499 232.5c0 32 3 62.333 9 91c23.333 116 64.666 204 123.999 264c62.667 65.333 141.334 98 236.001 98
c7.33301 0.666992 14.833 0.666992 22.5 0s15.334 -1.5 23.001 -2.5s15.167 -2.16699 22.5 -3.5s14.5 -3 21.5 -5s14 -4.16699 21 -6.5s13.667 -5 20 -8s12.833 -6.33301 19.5 -10s13 -7.5 19 -11.5c63.333 -40.667 113.5 -99.334 150.5 -176.001
s61.833 -170.334 74.5 -281.001c12 -102 11.333 -197 -2 -285zM918.999 418.001c0.666992 -29.333 10.833 -50.833 30.5 -64.5s55.167 -20.5 106.5 -20.5c42 0.666992 84.333 6 127 16c-10 58.667 -24.333 108.667 -43 150c-14 30.667 -29.333 52.5 -46 65.5
s-35.667 19.5 -57 19.5c-24.667 0 -45.667 -8 -63 -24s-32 -43.667 -44 -83c-2.66699 -6.66699 -4.66699 -13.5 -6 -20.5s-2.33301 -13.667 -3 -20zM701.92 1147.18l145.514 145.513l14.9785 14.9795l14.9795 -14.9795l146.583 -146.583l1.06934 -1.06934l2.13965 2.13965
l145.514 145.513l14.9785 14.9795l14.9795 -14.9795l146.583 -146.583l14.9785 -14.9785l-14.9785 -14.9795l-145.513 -145.513l-14.9795 -14.9795l-14.9795 14.9795l-146.583 146.583l-1.06934 1.06934l-2.13965 -2.13965l-145.513 -145.513l-14.9795 -14.9795
l-14.9795 14.9795l-146.583 146.583l-14.9785 14.9785z" />
    <glyph glyph-name="uniFED6" unicode="&#x642;" horiz-adv-x="1526" arabic-form="final" 
d="M738 -267c142 0 250.498 22.502 325.498 67.502s121.167 111.833 138.5 200.5h-103c-130 0 -230.167 28.667 -300.5 86s-105.5 141.333 -105.5 252c0 43.333 4.66699 85.5 14 126.5s23 81.167 41 120.5c34.667 71.333 79 125.666 133 162.999s116.667 56 188 56
c111.333 0 198.833 -46.667 262.5 -140s104.5 -227 122.5 -401h80c8 0 15.333 -1.33301 22 -4s12 -5.66699 16 -9s7.5 -8.5 10.5 -15.5s5.33301 -12.667 7 -17s2.83398 -11 3.50098 -20s1 -15.167 1 -18.5v-18.5v-14.5v-19c0 -1.33301 0.166992 -3.66602 0.5 -6.99902
s0.333008 -9.33301 0 -18s-1 -17.167 -2 -25.5s-2.83301 -17.333 -5.5 -27s-6.16699 -18.167 -10.5 -25.5s-10.166 -13.333 -17.499 -18s-15.666 -7 -24.999 -7l-83 1c-12.667 -87.333 -37.667 -163.833 -75 -229.5s-86.166 -120.334 -146.499 -164.001
s-131.5 -76.334 -213.5 -98.001s-174.333 -32.834 -277 -33.501c-144.667 0 -266.334 22 -365.001 66c-51.333 22.667 -96.666 51.5 -135.999 86.5s-72 75.833 -98 122.5c-50.667 91.333 -76.334 204 -77.001 338c-0.666992 159.333 34 314 104 464l16 34l35 -14l159 -66
l36 -15l-14 -37c-28 -69.333 -48.333 -133.666 -61 -192.999c-13.333 -58.667 -20 -113.667 -20 -165c1.33301 -124 35.666 -215.667 102.999 -275s173 -89 317 -89zM1207 265.002c-18 180 -68.001 270.333 -150.001 271c-7.33301 0 -14.166 -0.666992 -20.499 -2
s-12.5 -3.33301 -18.5 -6s-11.667 -6.5 -17 -11.5s-10.5 -10.833 -15.5 -17.5s-9.83301 -14.667 -14.5 -24s-9 -20 -13 -32c-5.33301 -16 -9.33301 -31.333 -12 -46s-4 -29 -4 -43c0 -30 10.5 -52.333 31.5 -67s59.5 -22 115.5 -22h118zM710.919 1100.19l145.514 145.513
l14.9785 14.9795l14.9795 -14.9795l146.583 -146.583l1.06934 -1.06934l2.13965 2.13965l145.514 145.513l14.9785 14.9795l14.9795 -14.9795l146.583 -146.583l14.9785 -14.9785l-14.9785 -14.9795l-145.513 -145.513l-14.9795 -14.9795l-14.9795 14.9795l-146.583 146.583
l-1.06934 1.06934l-2.13965 -2.13965l-145.513 -145.513l-14.9795 -14.9795l-14.9795 14.9795l-146.583 146.583l-14.9785 14.9785z" />
    </font>
</defs>
</svg>
