<?xml version="1.0" standalone="no"?>
<!DOCTYPE svg PUBLIC "-//W3C//DTD SVG 1.1//EN" "http://www.w3.org/Graphics/SVG/1.1/DTD/svg11.dtd" >
<svg>
<metadata>
Created by FontForge 20090914 at Mon Sep  5 06:12:51 2022
 By www-data
Copyright (c) 2003 by Bitstream, Inc. All Rights Reserved.
DejaVu changes are in public domain
Changes by Saber Rastikerdar are in public domain.
Non-Arabic(Latin) glyphs and data in extended version are imported from Roboto font under the Apache License, Version 2.0.
</metadata>
<defs>
<font id="Vazir-Light" horiz-adv-x="0" >
  <font-face 
    font-family="Vazir"
    font-weight="300"
    font-stretch="normal"
    units-per-em="2048"
    panose-1="2 11 6 3 3 8 4 2 2 4"
    ascent="1638"
    descent="-410"
    x-height="1052"
    cap-height="1441"
    bbox="-945 -943.608 3259 2347"
    underline-thickness="100"
    underline-position="-500"
    unicode-range="U+0002-U+FFFD"
  />
<missing-glyph horiz-adv-x="507" 
 />
    <glyph glyph-name="uni0622" unicode="&#x627;&#x653;" horiz-adv-x="683" 
d="M264 1279.52h143v-1265.13h-143v1265.13zM253 1496c-14.667 2 -29.3311 2.50293 -43.998 1.50293s-28.834 -3.83301 -42.501 -8.5s-27.334 -10.834 -41.001 -18.501s-26.834 -16.834 -39.501 -27.501s-25 -23 -37 -37l-92 96c76.667 107.333 169.334 152.333 278.001 135
l148 -24c64.667 -10.667 137.334 3.66602 218.001 42.999l59 -124c-82.667 -50 -171.334 -68.333 -266.001 -55z" />
    <glyph glyph-name="uni0623" unicode="&#x627;&#x654;" horiz-adv-x="487" 
d="M181 1217.51h143v-1201.84h-143v1201.84zM128 1459c-47.333 36.667 -71.002 88.333 -71.002 155c0 56.667 19 105 57 145c22.667 23.333 48.334 41 77.001 53c28 12 59.667 18 95 18c46.667 0 91 -13.333 133 -40l1 -113c-39.333 23.333 -79.333 35 -120 35
c-8.66699 0 -17 -0.666992 -25 -2c-8 -0.666992 -15.667 -2 -23 -4s-14 -4.33301 -20 -7c-6.66699 -3.33301 -12.667 -7 -18 -11c-6 -3.33301 -11.333 -7.66602 -16 -12.999c-20.667 -20.667 -30.667 -45.334 -30 -74.001c0 -6.66699 1 -13 3 -19
c1.33301 -6 3.33301 -11.667 6 -17s6.33398 -10.333 11.001 -15c4 -5.33301 8.66699 -10.333 14 -15s11.333 -9 18 -13s14 -8 22 -12l25 -10c10 -4 19.333 -5 28 -3l131 25v-110l-391 -94v107l90 21l16 4z" />
    <glyph glyph-name="afii57412" unicode="&#x648;&#x654;" horiz-adv-x="900" 
d="M336 986c-47.333 36.667 -71.002 88.333 -71.002 155c0 56.667 19 105 57 145c22.667 23.333 48.334 41 77.001 53c28 12 59.667 18 95 18c46.667 0 91 -13.333 133 -40l1 -113c-39.333 23.333 -79.333 35 -120 35c-8.66699 0 -17 -0.666992 -25 -2
c-8 -0.666992 -15.667 -2 -23 -4s-14 -4.33301 -20 -7c-6.66699 -3.33301 -12.667 -7 -18 -11c-6 -3.33301 -11.333 -7.66602 -16 -12.999c-20.667 -20.667 -30.667 -45.334 -30 -74.001c0 -6.66699 1 -13 3 -19c1.33301 -6 3.33301 -11.667 6 -17
s6.33398 -10.333 11.001 -15c4 -5.33301 8.66699 -10.333 14 -15s11.333 -9 18 -13s14 -8 22 -12l25 -10c10 -4 19.333 -5 28 -3l131 25v-110l-391 -94v107l90 21l16 4zM645.998 202.999c-7.33301 113.333 -28.1689 199.499 -62.502 258.499s-83.166 88.5 -146.499 88.5
c-71.333 0 -121.666 -43.333 -150.999 -130c-12.667 -38 -19 -73.667 -19 -107c0 -50.667 18.333 -88.667 55 -114s89 -38 157 -38c50 0.666992 102 9.33398 156 26.001l11 4v12zM477.995 12.998c-118.667 0 -206.667 23.499 -264 70.499s-86 118.5 -86 214.5
c0 78.667 16.667 153 50 223c20.667 42 44.334 77 71.001 105s56.667 48.833 90 62.5s70 20.5 110 20.5c129.333 0 222 -73 278 -219c40 -104 59.667 -220.667 59 -350c-2.66699 -327.333 -183.667 -526 -543 -596c-38 -7.33301 -77.333 -13.333 -118 -18l-36 141
c311.333 35.333 495.333 149.333 552 342l6 22l-23 -3c-12.667 -2 -24.834 -3.66699 -36.501 -5s-22.5 -2.5 -32.5 -3.5s-19 -2 -27 -3s-15.167 -1.66699 -21.5 -2s-12 -0.666016 -17 -0.999023s-8.83301 -0.5 -11.5 -0.5z" />
    <glyph glyph-name="uni0625" unicode="&#x627;&#x655;" horiz-adv-x="487" 
d="M133 -505c-47.333 36.667 -71.002 88.333 -71.002 155c0 56.667 19 105 57 145c22.667 23.333 48.334 41 77.001 53c28 12 59.667 18 95 18c46.667 0 91 -13.333 133 -40l1 -113c-39.333 23.333 -79.333 35 -120 35c-8.66699 0 -17 -0.666992 -25 -2
c-8 -0.666992 -15.667 -2 -23 -4s-14 -4.33301 -20 -7c-6.66699 -3.33301 -12.667 -7 -18 -11c-6 -3.33301 -11.333 -7.66602 -16 -12.999c-20.667 -20.667 -30.667 -45.334 -30 -74.001c0 -6.66699 1 -13 3 -19c1.33301 -6 3.33301 -11.667 6 -17
s6.33398 -10.333 11.001 -15c4 -5.33301 8.66699 -10.333 14 -15s11.333 -9 18 -13s14 -8 22 -12l25 -10c10 -4 19.333 -5 28 -3l131 25v-110l-391 -94v107l90 21l16 4zM175.998 1423h143v-1407h-143v1407z" />
    <glyph glyph-name="afii57414" unicode="&#x64a;&#x654;" horiz-adv-x="1524" 
d="M388 782c-47.333 36.667 -71.002 88.333 -71.002 155c0 56.667 19 105 57 145c22.667 23.333 48.334 41 77.001 53c28 12 59.667 18 95 18c46.667 0 91 -13.333 133 -40l1 -113c-39.333 23.333 -79.333 35 -120 35c-8.66699 0 -17 -0.666992 -25 -2
c-8 -0.666992 -15.667 -2 -23 -4s-14 -4.33301 -20 -7c-6.66699 -3.33301 -12.667 -7 -18 -11c-6 -3.33301 -11.333 -7.66602 -16 -12.999c-20.667 -20.667 -30.667 -45.334 -30 -74.001c0 -6.66699 1 -13 3 -19c1.33301 -6 3.33301 -11.667 6 -17
s6.33398 -10.333 11.001 -15c4 -5.33301 8.66699 -10.333 14 -15s11.333 -9 18 -13s14 -8 22 -12l25 -10c10 -4 19.333 -5 28 -3l131 25v-110l-391 -94v107l90 21l16 4zM262.998 40.999c0 -125.333 41.1699 -219.835 123.503 -283.502s203.833 -95.834 364.5 -96.501
c120.667 0 228.667 22.333 324 67c50.667 23.333 95 54.333 133 93c39.333 40.667 59 87 59 139c0 15.333 -4 28.5 -12 39.5s-18.833 19.167 -32.5 24.5s-29.834 8 -48.501 8l-114 1c-53.333 0 -97.333 6.83301 -132 20.5s-60.334 34 -77.001 61s-25 61.167 -25 102.5
c0 122 38.667 225.333 116 310c100 109.333 241.667 164 425 164h6v-163h-7c-36.667 0 -71.167 -2.83301 -103.5 -8.5s-62.666 -14 -90.999 -25s-54.5 -25.167 -78.5 -42.5c-37.333 -26 -65.833 -55.5 -85.5 -88.5s-29.834 -68.833 -30.501 -107.5
c0 -11.333 1.66699 -21.666 5 -30.999s8.66602 -17.333 15.999 -24c14 -11.333 35.333 -17 64 -17h119c76 0.666992 132 -14.166 168 -44.499s54 -76.833 54 -139.5c0 -186.667 -93 -322.667 -279 -408c-110.667 -50.667 -236.667 -76 -378 -76
c-211.333 0 -368.833 43.333 -472.5 130s-155.5 217.334 -155.5 392.001c0 138 44 308 132 510l131 -54c-78.667 -182 -118 -333 -118 -453z" />
    <glyph glyph-name="uni06C0" unicode="&#x647;&#x654;" horiz-adv-x="942" 
d="M188 1235c38.667 -8 75.002 -12 109.002 -12c53.333 0 98.666 4.33301 135.999 13s67 21.667 89 39c16 13.333 28.333 27.166 37 41.499s13 29.5 13 45.5c-0.666992 20.667 -15.667 31.334 -45 32.001l-100 3c-37.333 0.666992 -64.833 10.167 -82.5 28.5
s-26.5 46.5 -26.5 84.5c0 78.667 40.333 143.667 121 195c28 18 61.833 31.667 101.5 41s84.167 14.333 133.5 15l-8 -111c-49.333 -1.33301 -91.333 -6.83301 -126 -16.5s-61.834 -23.667 -81.501 -42s-31.5 -41.166 -35.5 -68.499l-1 -10l-1 -9h8l112 -3
c74 -2 117.333 -34 130 -96c12 -62.667 -9.66699 -124.667 -65 -186c-32 -34.667 -74.333 -60.834 -127 -78.501s-115.667 -26.5 -189 -26.5c-37.333 0 -77 3.33301 -119 10zM452.002 655c-130 -113.333 -195 -214.665 -195 -303.998c0 -24 3 -45.667 9 -65
s15 -36.333 27 -51s26.833 -26.834 44.5 -36.501s38 -17 61 -22s48.5 -7.5 76.5 -7.5c72 0 126.833 15.5 164.5 46.5s56.167 76.5 55.5 136.5c0 83.333 -74.667 184.666 -224 303.999l-10 8zM396.002 935.001c293.333 -216 440.002 -412.332 440.002 -588.999
c0 -120.667 -52.667 -213.667 -158 -279c-24.667 -15.333 -53.834 -27 -87.501 -35s-71.834 -12.333 -114.501 -13c-78 0 -144.667 13.667 -200 41c-106.667 53.333 -160 148.666 -160 285.999c0 133.333 77.333 275.333 232 426l12 11l-12 11l-35 30z" />
    <glyph glyph-name="fi" unicode="fi" horiz-adv-x="1074" 
d="M352 30h-149.998v939h-171v113h171v109c0 59.333 8.66699 112 26 158c9.33301 22.667 20.166 43.5 32.499 62.5s25.833 36.167 40.5 51.5c30.667 30.667 67.667 54 111 70c44 16 93.667 24 149 24c44 0 87.333 -5.66699 130 -17c41.333 -10.667 84 -23.667 128 -39
l-25 -126l-28.5 10c-9.66699 3.33301 -19.667 6.5 -30 9.5l-32.5 9.5c-40 10.667 -83 16 -129 16c-18.667 0 -36.334 -1.16699 -53.001 -3.5s-32 -5.83301 -46 -10.5s-27 -10.667 -39 -18s-22.333 -16 -31 -26c-18 -19.333 -31.333 -43.333 -40 -72s-13 -61.667 -13 -99
v-109h205v-113h-205v-939zM913.002 1067v-1052h-156v1052h156z" />
    <glyph glyph-name="uniFBA5.fina" unicode="&#xfeea;&#x654;" horiz-adv-x="1063" arabic-form="final" 
d="M342 1166c38.667 -8 75.002 -12 109.002 -12c53.333 0 98.666 4.33301 135.999 13s67 21.667 89 39c16 13.333 28.333 27.166 37 41.499s13 29.5 13 45.5c-0.666992 20.667 -15.667 31.334 -45 32.001l-100 3c-37.333 0.666992 -64.833 10.167 -82.5 28.5
s-26.5 46.5 -26.5 84.5c0 78.667 40.333 143.667 121 195c28 18 61.833 31.667 101.5 41s84.167 14.333 133.5 15l-8 -111c-49.333 -1.33301 -91.333 -6.83301 -126 -16.5s-61.834 -23.667 -81.501 -42s-31.5 -41.166 -35.5 -68.499l-1 -10l-1 -9h8l112 -3
c74 -2 117.333 -34 130 -96c12 -62.667 -9.66699 -124.667 -65 -186c-32 -34.667 -74.333 -60.834 -127 -78.501s-115.667 -26.5 -189 -26.5c-37.333 0 -77 3.33301 -119 10zM126.002 406c0 188.667 169.335 334.997 508.002 438.997l13 4l-2 13l-6 31l132 28l80 -576
c5.33301 -38 16.5 -70.167 33.5 -96.5s39.5 -46.166 67.5 -59.499s61.333 -20 100 -20h18c4.66699 -8 7 -27 7 -57v-24c0 -18.667 -0.833008 -34.5 -2.5 -47.5s-3.5 -21.5 -5.5 -25.5h-21c-88.667 0 -158.334 17.833 -209.001 53.5s-84 89.5 -100 161.5l-5 25l-19 -17
c-26 -22.667 -52.833 -41.5 -80.5 -56.5s-56.334 -26.167 -86.001 -33.5s-60.5 -11 -92.5 -11c-143.333 0 -242.666 46.333 -297.999 139c-4 6.66699 -7.66699 13.834 -11 21.501s-6.33301 15.667 -9 24s-4.83398 17 -6.50098 26s-3 18.333 -4 28s-1.5 19.834 -1.5 30.501z
M646.004 706.997c-123.333 -44.667 -216.166 -90.668 -278.499 -138.001s-93.5 -97.666 -93.5 -150.999c0 -45.333 15.167 -79.5 45.5 -102.5s73.833 -34.5 130.5 -34.5c26.667 0 53.667 4.16699 81 12.5s54.333 20.5 81 36.5c69.333 42.667 96.666 111 81.999 205l-20 133
l-5 28l-2 18l-18 -6z" />
    <glyph glyph-name="uniFDF2" unicode="&#x627;&#xfedf;&#xfee0;&#xfeea;" horiz-adv-x="2779" arabic-form="isolated" 
d="M1350 1731v386h72v-386h-72zM1416 1613c0.666992 -13.333 1.1709 -25.999 1.50391 -37.999s0.5 -24.333 0.5 -37c0 -66.667 24.667 -99.667 74 -99c12.667 0 24 2.5 34 7.5s18.167 12 24.5 21s11.166 20.167 14.499 33.5s5 28.666 5 45.999
c0 5.33301 -0.166992 11 -0.5 17s-1 12.5 -2 19.5s-2 14.5 -3 22.5s-2.33301 16.333 -4 25l-5.5 28l74 11c10 -38 15 -75.667 15 -113c0 -22 -1.33301 -42.167 -4 -60.5s-6.5 -34.666 -11.5 -48.999s-11.333 -27 -19 -38s-16.667 -20 -27 -27s-21.833 -12.333 -34.5 -16
s-27 -5.5 -43 -5.5c-40 0 -73.333 17 -100 51l-10 12l-3 -15c-19.333 -74 -67.666 -111.333 -144.999 -112c-42.667 0.666992 -74.834 14.167 -96.501 40.5s-32.834 66.833 -33.501 121.5c-0.666992 36 3 69.333 11 100l63 -10c-5.33301 -28.667 -8 -54.334 -8 -77.001
c0 -14.667 1.66699 -27.667 5 -39s8.16602 -20.833 14.499 -28.5s14.166 -13.5 23.499 -17.5s20.333 -6.33301 33 -7c11.333 0 22 1.66699 32 5s18.667 8.33301 26 15s13.5 15 18.5 25s9 21.333 12 34s4.5 26.667 4.5 42c1.33301 32 2 69.333 2 112h62zM126.004 406.001
c0 188.667 169.335 334.997 508.002 438.997l13 4l-2 13l-6 31l132 28l80 -576c5.33301 -38 16.5 -70.167 33.5 -96.5s39.5 -46.166 67.5 -59.499s61.333 -20 100 -20h18c4.66699 -8 7 -27 7 -57v-24c0 -18.667 -0.833008 -34.5 -2.5 -47.5s-3.5 -21.5 -5.5 -25.5h-21
c-88.667 0 -158.334 17.833 -209.001 53.5s-84 89.5 -100 161.5l-5 25l-19 -17c-26 -22.667 -52.833 -41.5 -80.5 -56.5s-56.334 -26.167 -86.001 -33.5s-60.5 -11 -92.5 -11c-143.333 0 -242.666 46.333 -297.999 139c-4 6.66699 -7.66699 13.834 -11 21.501
s-6.33301 15.667 -9 24s-4.83398 17 -6.50098 26s-3 18.333 -4 28s-1.5 19.834 -1.5 30.501zM646.006 706.998c-123.333 -44.667 -216.166 -90.668 -278.499 -138.001s-93.5 -97.666 -93.5 -150.999c0 -45.333 15.167 -79.5 45.5 -102.5s73.833 -34.5 130.5 -34.5
c26.667 0 53.667 4.16699 81 12.5s54.333 20.5 81 36.5c69.333 42.667 96.666 111 81.999 205l-20 133l-5 28l-2 18l-18 -6zM1084.01 14.9971h-29c-22 0 -38 5.66699 -48 17s-15 30 -15 56v19c0 14.667 2.16699 26.5 6.5 35.5s11 15.667 20 20s21.167 6.5 36.5 6.5h31
c80.667 0 141.834 22.333 183.501 67s62.5 109.667 62.5 195v738h144v-738c0 -85.333 18.333 -150.333 55 -195s91 -67 163 -67h11c1.33301 0 3.16602 -1.16699 5.49902 -3.5s4.66602 -8.5 6.99902 -18.5s3.5 -23.333 3.5 -40v-19c0 -30 -2.33301 -50.333 -7 -61
c-2 -4 -3.66699 -7 -5 -9s-2.16602 -3 -2.49902 -3h-1.5h-8c-129.333 0 -226.333 45.333 -291 136l-13 18l-12 -18c-62.667 -90.667 -161.667 -136 -297 -136zM1696.01 14.9971c-22 0 -38 5.66699 -48 17s-15 30 -15 56v19c0 14.667 2.16699 26.5 6.5 35.5s11 15.667 20 20
s21.167 6.5 36.5 6.5h58c69.333 0 121.833 19.167 157.5 57.5s53.5 94.5 53.5 168.5v937h144v-943c0 -126 -29.667 -219.833 -89 -281.5s-150 -92.5 -272 -92.5h-52zM2459.01 1423h143v-1407h-143v1407z" />
    <glyph glyph-name="uniFE70" unicode="&#x20;&#x64b;" horiz-adv-x="791" arabic-form="isolated" 
d="M53 1088v87l441 180v-87zM53 1300v87l441 180v-87z" />
    <glyph glyph-name="uniFE72" unicode="&#x20;&#x64c;" horiz-adv-x="791" arabic-form="isolated" 
d="M301 1722c-14 -16.667 -21.333 -35.998 -22 -57.998c0 -13.333 2.83301 -25.833 8.5 -37.5s13.667 -21.834 24 -30.501s23.166 -16.334 38.499 -23.001c3.33301 -1.33301 6.83301 -2.83301 10.5 -4.5s7.83398 -3.16699 12.501 -4.5s9.66699 -3 15 -5s11 -3.83301 17 -5.5
l20 -5.5l5 -2l3 5c9.33301 16 16.5 32.167 21.5 48.5s7.5 32.833 7.5 49.5c0 34 -7.5 60 -22.5 78s-37.167 27 -66.5 27c-10 0 -19.333 -1.16699 -28 -3.5s-16.667 -5.83301 -24 -10.5s-14 -10.667 -20 -18zM30 1507c4.66699 -151.333 51.999 -226.334 141.999 -225.001
c12 0 24.5 1.66699 37.5 5s25.833 8.16602 38.5 14.499s25.334 14.333 38.001 24s25.667 20.834 39 33.501c30 30 58.333 71.333 85 124l5 8l-10 3l-29 6c-65.333 14 -109.666 36.333 -132.999 67c-20 27.333 -30 56.666 -30 87.999c0 11.333 0.5 21.833 1.5 31.5
s2.66699 18.667 5 27s5.5 15.833 9.5 22.5c28 54.667 74.667 82 140 82c46 0 82.667 -13 110 -39c15.333 -14.667 26.833 -32.667 34.5 -54s11.5 -46.333 11.5 -75c0 -6 -0.333008 -12.833 -1 -20.5s-2 -16 -4 -25s-4.33301 -18.667 -7 -29s-5.66699 -21.166 -9 -32.499
l-3 -9h9l30 -2l52 -2v-63h-10.5h-9c-3 0 -5.66699 0.166992 -8 0.5s-4.5 0.5 -6.5 0.5h-5h-3l-77 8h-5l-2 -5c-30.667 -73.333 -74.667 -134.666 -132 -183.999c-52 -46 -105.667 -69 -161 -69c-58.667 0 -103.334 23.833 -134.001 71.5s-47 120.167 -49 217.5h40z" />
    <glyph glyph-name="uniFE74" unicode="&#x20;&#x64d;" horiz-adv-x="791" arabic-form="isolated" 
d="M59 -435v88l440 180v-88zM59 -223v88l440 180v-88z" />
    <glyph glyph-name="uniFE76" unicode="&#x20;&#x64e;" horiz-adv-x="791" arabic-form="isolated" 
d="M23 1360v88l440 180v-88z" />
    <glyph glyph-name="uniFE78" unicode="&#x20;&#x64f;" horiz-adv-x="791" arabic-form="isolated" 
d="M524 1472c-18.667 0 -35.333 0.333984 -50 1.00098s-28 1.66699 -40 3l-31 5h-5l-2 -4c-81.333 -114.667 -198.333 -176.667 -351 -186v63c123.333 6.66699 215.333 53 276 139l7 10l-12 2c-28 6 -57 17 -87 33c-54.667 30.667 -82 73 -82 127
c0 41.333 11.333 75.666 34 102.999c29.333 34.667 69.666 52 120.999 52c38.667 0 72.334 -11.333 101.001 -34c20.667 -16.667 35.667 -37 45 -61c6 -18 9 -38 9 -60c0 -37.333 -8.33301 -76 -25 -116l-4 -9l10 -1l20 -2c23.333 -2 45.333 -2.66699 66 -2v-63z
M366.001 1557l5.99902 14c14 32.667 21.333 63.667 22 93c-0.666992 30 -10 52.333 -28 67c-6 5.33301 -12.167 9.66602 -18.5 12.999s-13 6 -20 8s-14.167 3 -21.5 3c-32.667 0.666992 -58 -11 -76 -35c-12 -16 -18.333 -35.333 -19 -58
c0.666992 -34.667 24.334 -62.667 71.001 -84c15.333 -7.33301 40.333 -15.666 75 -24.999l6 -2z" />
    <glyph glyph-name="uniFE7A" unicode="&#x20;&#x650;" horiz-adv-x="791" arabic-form="isolated" 
d="M69 -334v87l441 180v-87z" />
    <glyph glyph-name="uniFE7C" unicode="&#x20;&#x651;" horiz-adv-x="791" arabic-form="isolated" 
d="M320 1761c0.666992 -13.333 1.1709 -25.999 1.50391 -37.999s0.5 -24.333 0.5 -37c0 -66.667 24.667 -99.667 74 -99c12.667 0 24 2.5 34 7.5s18.167 12 24.5 21s11.166 20.167 14.499 33.5s5 28.666 5 45.999c0 5.33301 -0.166992 11 -0.5 17s-1 12.5 -2 19.5
s-2 14.5 -3 22.5s-2.33301 16.333 -4 25l-5.5 28l74 11c10 -38 15 -75.667 15 -113c0 -22 -1.33301 -42.167 -4 -60.5s-6.5 -34.666 -11.5 -48.999s-11.333 -27 -19 -38s-16.667 -20 -27 -27s-21.833 -12.333 -34.5 -16s-27 -5.5 -43 -5.5c-40 0 -73.333 17 -100 51l-10 12
l-3 -15c-19.333 -74 -67.666 -111.333 -144.999 -112c-42.667 0.666992 -74.834 14.167 -96.501 40.5s-32.834 66.833 -33.501 121.5c-0.666992 36 3 69.333 11 100l63 -10c-5.33301 -28.667 -8 -54.334 -8 -77.001c0 -14.667 1.66699 -27.667 5 -39
s8.16602 -20.833 14.499 -28.5s14.166 -13.5 23.499 -17.5s20.333 -6.33301 33 -7c11.333 0 22 1.66699 32 5s18.667 8.33301 26 15s13.5 15 18.5 25s9 21.333 12 34s4.5 26.667 4.5 42c1.33301 32 2 69.333 2 112h62z" />
    <glyph glyph-name="uniFE7E" unicode="&#x20;&#x652;" horiz-adv-x="791" arabic-form="isolated" 
d="M125 1461.5c0 26.333 4.49902 50.667 13.499 73s22.5 42.5 40.5 60.5c36.667 36 81.167 54 133.5 54s96.833 -18 133.5 -54c18 -18 31.5 -38.167 40.5 -60.5s13.5 -46.5 13.5 -72.5c0 -13.333 -1.16699 -26 -3.5 -38s-5.66602 -23.667 -9.99902 -35s-10 -22 -17 -32
s-14.833 -19.667 -23.5 -29c-36.667 -36 -81.167 -54 -133.5 -54s-96.833 18 -133.5 54c-18 18.667 -31.5 39 -40.5 61s-13.5 46.167 -13.5 72.5zM195.999 1461c0 -33.333 11.667 -61.666 35 -84.999c22.667 -22.667 50.667 -34 84 -34s61.666 11.333 84.999 34
c11.333 11.333 19.833 24.166 25.5 38.499s8.5 29.833 8.5 46.5c0 33.333 -11.333 61.333 -34 84c-23.333 23.333 -51.666 35 -84.999 35s-61.333 -11.667 -84 -35c-23.333 -22.667 -35 -50.667 -35 -84z" />
    <glyph glyph-name="uniFEF5" unicode="&#xfedf;&#xfe82;" horiz-adv-x="1219" arabic-form="isolated" 
d="M214 1529c-14.667 2 -29.3311 2.50293 -43.998 1.50293s-28.834 -3.83301 -42.501 -8.5s-27.334 -10.834 -41.001 -18.501s-26.834 -16.834 -39.501 -27.501s-25 -23 -37 -37l-92 96c76.667 107.333 169.334 152.333 278.001 135l148 -24
c64.667 -10.667 137.334 3.66602 218.001 42.999l59 -124c-82.667 -50 -171.334 -68.333 -266.001 -55zM253.003 1357c174 -422 305.668 -801.334 395.001 -1138l4 -15l15 5c160.667 50.667 241 194.334 241 431.001v783h143v-784
c0 -208.667 -54.167 -364.334 -162.5 -467.001s-272.5 -154 -492.5 -154c-84 0 -153.333 4.33301 -208 13v152c109.333 -13.333 213.666 -16.666 312.999 -9.99902l19 2l-5 17c-94 324 -227.333 685.667 -400 1085z" />
    <glyph glyph-name="uniFEF6" unicode="&#xfee0;&#xfe82;" horiz-adv-x="1293" arabic-form="final" 
d="M667 209c160.667 50.667 241 194.332 241 430.999v783h143v-874c0 -253.333 75.333 -380 226 -380h23c4.66699 -8.66699 7 -29.334 7 -62.001v-19c0 -38 -2.66699 -62.333 -8 -73h-36c-154.667 0 -252.667 71.667 -294 215l-8 30l-18 -25
c-105.333 -144.667 -287.666 -217 -546.999 -217c-84 0 -153.333 4.33301 -208 13v152c107.333 -13.333 211.666 -16.666 312.999 -9.99902l19 2l-5 17c-94.667 324.667 -228 686.334 -400 1085l138 80c174 -422 305.667 -801.333 395 -1138l4 -15zM214 1529
c-14.667 2 -29.3311 2.50293 -43.998 1.50293s-28.834 -3.83301 -42.501 -8.5s-27.334 -10.834 -41.001 -18.501s-26.834 -16.834 -39.501 -27.501s-25 -23 -37 -37l-92 96c76.667 107.333 169.334 152.333 278.001 135l148 -24
c64.667 -10.667 137.334 3.66602 218.001 42.999l59 -124c-82.667 -50 -171.334 -68.333 -266.001 -55z" />
    <glyph glyph-name="uniFEF7" unicode="&#xfedf;&#xfe84;" horiz-adv-x="1219" arabic-form="isolated" 
d="M81 1535c-47.333 36.667 -71.002 88.333 -71.002 155c0 56.667 19 105 57 145c22.667 23.333 48.334 41 77.001 53c28 12 59.667 18 95 18c46.667 0 91 -13.333 133 -40l1 -113c-39.333 23.333 -79.333 35 -120 35c-8.66699 0 -17 -0.666992 -25 -2
c-8 -0.666992 -15.667 -2 -23 -4s-14 -4.33301 -20 -7c-6.66699 -3.33301 -12.667 -7 -18 -11c-6 -3.33301 -11.333 -7.66602 -16 -12.999c-20.667 -20.667 -30.667 -45.334 -30 -74.001c0 -6.66699 1 -13 3 -19c1.33301 -6 3.33301 -11.667 6 -17
s6.33398 -10.333 11.001 -15c4 -5.33301 8.66699 -10.333 14 -15s11.333 -9 18 -13s14 -8 22 -12l25 -10c10 -4 19.333 -5 28 -3l131 25v-110l-391 -94v107l90 21l16 4zM252.998 1357c174 -422 305.668 -801.334 395.001 -1138l4 -15l15 5
c160.667 50.667 241 194.334 241 431.001v783h143v-784c0 -208.667 -54.167 -364.334 -162.5 -467.001s-272.5 -154 -492.5 -154c-84 0 -153.333 4.33301 -208 13v152c109.333 -13.333 213.666 -16.666 312.999 -9.99902l19 2l-5 17c-94 324 -227.333 685.667 -400 1085z
" />
    <glyph glyph-name="uniFEF8" unicode="&#xfee0;&#xfe84;" horiz-adv-x="1293" arabic-form="final" 
d="M667 209c160.667 50.667 241 194.332 241 430.999v783h143v-874c0 -253.333 75.333 -380 226 -380h23c4.66699 -8.66699 7 -29.334 7 -62.001v-19c0 -38 -2.66699 -62.333 -8 -73h-36c-154.667 0 -252.667 71.667 -294 215l-8 30l-18 -25
c-105.333 -144.667 -287.666 -217 -546.999 -217c-84 0 -153.333 4.33301 -208 13v152c107.333 -13.333 211.666 -16.666 312.999 -9.99902l19 2l-5 17c-94.667 324.667 -228 686.334 -400 1085l138 80c174 -422 305.667 -801.333 395 -1138l4 -15zM81 1535
c-47.333 36.667 -71.002 88.333 -71.002 155c0 56.667 19 105 57 145c22.667 23.333 48.334 41 77.001 53c28 12 59.667 18 95 18c46.667 0 91 -13.333 133 -40l1 -113c-39.333 23.333 -79.333 35 -120 35c-8.66699 0 -17 -0.666992 -25 -2c-8 -0.666992 -15.667 -2 -23 -4
s-14 -4.33301 -20 -7c-6.66699 -3.33301 -12.667 -7 -18 -11c-6 -3.33301 -11.333 -7.66602 -16 -12.999c-20.667 -20.667 -30.667 -45.334 -30 -74.001c0 -6.66699 1 -13 3 -19c1.33301 -6 3.33301 -11.667 6 -17s6.33398 -10.333 11.001 -15
c4 -5.33301 8.66699 -10.333 14 -15s11.333 -9 18 -13s14 -8 22 -12l25 -10c10 -4 19.333 -5 28 -3l131 25v-110l-391 -94v107l90 21l16 4z" />
    <glyph glyph-name="uniFEF9" unicode="&#xfedf;&#xfe88;" horiz-adv-x="1219" arabic-form="isolated" 
d="M173 -497c-47.333 36.667 -71.002 88.333 -71.002 155c0 56.667 19 105 57 145c22.667 23.333 48.334 41 77.001 53c28 12 59.667 18 95 18c46.667 0 91 -13.333 133 -40l1 -113c-39.333 23.333 -79.333 35 -120 35c-8.66699 0 -17 -0.666992 -25 -2
c-8 -0.666992 -15.667 -2 -23 -4s-14 -4.33301 -20 -7c-6.66699 -3.33301 -12.667 -7 -18 -11c-6 -3.33301 -11.333 -7.66602 -16 -12.999c-20.667 -20.667 -30.667 -45.334 -30 -74.001c0 -6.66699 1 -13 3 -19c1.33301 -6 3.33301 -11.667 6 -17
s6.33398 -10.333 11.001 -15c4 -5.33301 8.66699 -10.333 14 -15s11.333 -9 18 -13s14 -8 22 -12l25 -10c10 -4 19.333 -5 28 -3l131 25v-110l-391 -94v107l90 21l16 4zM252.998 1357c174 -422 305.668 -801.334 395.001 -1138l4 -15l15 5
c160.667 50.667 241 194.334 241 431.001v783h143v-784c0 -208.667 -54.167 -364.334 -162.5 -467.001s-272.5 -154 -492.5 -154c-84 0 -153.333 4.33301 -208 13v152c109.333 -13.333 213.666 -16.666 312.999 -9.99902l19 2l-5 17c-94 324 -227.333 685.667 -400 1085z
" />
    <glyph glyph-name="uniFEFA" unicode="&#xfee0;&#xfe88;" horiz-adv-x="1293" arabic-form="final" 
d="M173 -497c-47.333 36.667 -71.002 88.333 -71.002 155c0 56.667 19 105 57 145c22.667 23.333 48.334 41 77.001 53c28 12 59.667 18 95 18c46.667 0 91 -13.333 133 -40l1 -113c-39.333 23.333 -79.333 35 -120 35c-8.66699 0 -17 -0.666992 -25 -2
c-8 -0.666992 -15.667 -2 -23 -4s-14 -4.33301 -20 -7c-6.66699 -3.33301 -12.667 -7 -18 -11c-6 -3.33301 -11.333 -7.66602 -16 -12.999c-20.667 -20.667 -30.667 -45.334 -30 -74.001c0 -6.66699 1 -13 3 -19c1.33301 -6 3.33301 -11.667 6 -17
s6.33398 -10.333 11.001 -15c4 -5.33301 8.66699 -10.333 14 -15s11.333 -9 18 -13s14 -8 22 -12l25 -10c10 -4 19.333 -5 28 -3l131 25v-110l-391 -94v107l90 21l16 4zM666.998 208.999c160.667 50.667 241 194.332 241 430.999v783h143v-874
c0 -253.333 75.333 -380 226 -380h23c4.66699 -8.66699 7 -29.334 7 -62.001v-19c0 -38 -2.66699 -62.333 -8 -73h-36c-154.667 0 -252.667 71.667 -294 215l-8 30l-18 -25c-105.333 -144.667 -287.666 -217 -546.999 -217c-84 0 -153.333 4.33301 -208 13v152
c107.333 -13.333 211.666 -16.666 312.999 -9.99902l19 2l-5 17c-94.667 324.667 -228 686.334 -400 1085l138 80c174 -422 305.667 -801.333 395 -1138l4 -15z" />
    <glyph glyph-name="uniFEFB" unicode="&#xfedf;&#xfe8e;" horiz-adv-x="1219" arabic-form="isolated" 
d="M253 1357c174 -422 305.668 -801.334 395.001 -1138l4 -15l15 5c160.667 50.667 241 194.334 241 431.001v783h143v-784c0 -208.667 -54.167 -364.334 -162.5 -467.001s-272.5 -154 -492.5 -154c-84 0 -153.333 4.33301 -208 13v152
c109.333 -13.333 213.666 -16.666 312.999 -9.99902l19 2l-5 17c-94 324 -227.333 685.667 -400 1085z" />
    <glyph glyph-name="uniFEFC" unicode="&#xfee0;&#xfe8e;" horiz-adv-x="1293" arabic-form="final" 
d="M667 209c160.667 50.667 241 194.332 241 430.999v783h143v-874c0 -253.333 75.333 -380 226 -380h23c4.66699 -8.66699 7 -29.334 7 -62.001v-19c0 -38 -2.66699 -62.333 -8 -73h-36c-154.667 0 -252.667 71.667 -294 215l-8 30l-18 -25
c-105.333 -144.667 -287.666 -217 -546.999 -217c-84 0 -153.333 4.33301 -208 13v152c107.333 -13.333 211.666 -16.666 312.999 -9.99902l19 2l-5 17c-94.667 324.667 -228 686.334 -400 1085l138 80c174 -422 305.667 -801.333 395 -1138l4 -15z" />
    <glyph glyph-name="uni0651064B" unicode="&#x64b;&#x651;" 
d="M341 1270v87l441 180v-87zM341 1482v87l441 180v-87zM608 1220c0.666992 -13.333 1.1709 -25.999 1.50391 -37.999s0.5 -24.333 0.5 -37c0 -66.667 24.667 -99.667 74 -99c12.667 0 24 2.5 34 7.5s18.167 12 24.5 21s11.166 20.167 14.499 33.5s5 28.666 5 45.999
c0 5.33301 -0.166992 11 -0.5 17s-1 12.5 -2 19.5s-2 14.5 -3 22.5s-2.33301 16.333 -4 25l-5.5 28l74 11c10 -38 15 -75.667 15 -113c0 -22 -1.33301 -42.167 -4 -60.5s-6.5 -34.666 -11.5 -48.999s-11.333 -27 -19 -38s-16.667 -20 -27 -27s-21.833 -12.333 -34.5 -16
s-27 -5.5 -43 -5.5c-40 0 -73.333 17 -100 51l-10 12l-3 -15c-19.333 -74 -67.666 -111.333 -144.999 -112c-42.667 0.666992 -74.834 14.167 -96.501 40.5s-32.834 66.833 -33.501 121.5c-0.666992 36 3 69.333 11 100l63 -10c-5.33301 -28.667 -8 -54.334 -8 -77.001
c0 -14.667 1.66699 -27.667 5 -39s8.16602 -20.833 14.499 -28.5s14.166 -13.5 23.499 -17.5s20.333 -6.33301 33 -7c11.333 0 22 1.66699 32 5s18.667 8.33301 26 15s13.5 15 18.5 25s9 21.333 12 34s4.5 26.667 4.5 42c1.33301 32 2 69.333 2 112h62z" />
    <glyph glyph-name="uni0651064C" unicode="&#x64c;&#x651;" 
d="M576 1794c-14 -16.667 -21.333 -35.998 -22 -57.998c0 -13.333 2.83301 -25.833 8.5 -37.5s13.667 -21.834 24 -30.501s23.166 -16.334 38.499 -23.001c3.33301 -1.33301 6.83301 -2.83301 10.5 -4.5s7.83398 -3.16699 12.501 -4.5s9.66699 -3 15 -5s11 -3.83301 17 -5.5
l20 -5.5l5 -2l3 5c9.33301 16 16.5 32.167 21.5 48.5s7.5 32.833 7.5 49.5c0 34 -7.5 60 -22.5 78s-37.167 27 -66.5 27c-10 0 -19.333 -1.16699 -28 -3.5s-16.667 -5.83301 -24 -10.5s-14 -10.667 -20 -18zM305 1579c4.66699 -151.333 51.999 -226.334 141.999 -225.001
c12 0 24.5 1.66699 37.5 5s25.833 8.16602 38.5 14.499s25.334 14.333 38.001 24s25.667 20.834 39 33.501c30 30 58.333 71.333 85 124l5 8l-10 3l-29 6c-65.333 14 -109.666 36.333 -132.999 67c-20 27.333 -30 56.666 -30 87.999c0 11.333 0.5 21.833 1.5 31.5
s2.66699 18.667 5 27s5.5 15.833 9.5 22.5c28 54.667 74.667 82 140 82c46 0 82.667 -13 110 -39c15.333 -14.667 26.833 -32.667 34.5 -54s11.5 -46.333 11.5 -75c0 -6 -0.333008 -12.833 -1 -20.5s-2 -16 -4 -25s-4.33301 -18.667 -7 -29s-5.66699 -21.166 -9 -32.499
l-3 -9h9l30 -2l52 -2v-63h-10.5h-9c-3 0 -5.66699 0.166992 -8 0.5s-4.5 0.5 -6.5 0.5h-5h-3l-77 8h-5l-2 -5c-30.667 -73.333 -74.667 -134.666 -132 -183.999c-52 -46 -105.667 -69 -161 -69c-58.667 0 -103.334 23.833 -134.001 71.5s-47 120.167 -49 217.5h40z
M624.999 1214c0.666992 -13.333 1.1709 -25.999 1.50391 -37.999s0.5 -24.333 0.5 -37c0 -66.667 24.667 -99.667 74 -99c12.667 0 24 2.5 34 7.5s18.167 12 24.5 21s11.166 20.167 14.499 33.5s5 28.666 5 45.999c0 5.33301 -0.166992 11 -0.5 17s-1 12.5 -2 19.5
s-2 14.5 -3 22.5s-2.33301 16.333 -4 25l-5.5 28l74 11c10 -38 15 -75.667 15 -113c0 -22 -1.33301 -42.167 -4 -60.5s-6.5 -34.666 -11.5 -48.999s-11.333 -27 -19 -38s-16.667 -20 -27 -27s-21.833 -12.333 -34.5 -16s-27 -5.5 -43 -5.5c-40 0 -73.333 17 -100 51l-10 12
l-3 -15c-19.333 -74 -67.666 -111.333 -144.999 -112c-42.667 0.666992 -74.834 14.167 -96.501 40.5s-32.834 66.833 -33.501 121.5c-0.666992 36 3 69.333 11 100l63 -10c-5.33301 -28.667 -8 -54.334 -8 -77.001c0 -14.667 1.66699 -27.667 5 -39
s8.16602 -20.833 14.499 -28.5s14.166 -13.5 23.499 -17.5s20.333 -6.33301 33 -7c11.333 0 22 1.66699 32 5s18.667 8.33301 26 15s13.5 15 18.5 25s9 21.333 12 34s4.5 26.667 4.5 42c1.33301 32 2 69.333 2 112h62z" />
    <glyph glyph-name="uni064B0651" unicode="&#x64d;&#x651;" 
d="M506 1746c0.666992 -13.333 1.1709 -25.999 1.50391 -37.999s0.5 -24.333 0.5 -37c0 -66.667 24.667 -99.667 74 -99c12.667 0 24 2.5 34 7.5s18.167 12 24.5 21s11.166 20.167 14.499 33.5s5 28.666 5 45.999c0 5.33301 -0.166992 11 -0.5 17s-1 12.5 -2 19.5
s-2 14.5 -3 22.5s-2.33301 16.333 -4 25l-5.5 28l74 11c10 -38 15 -75.667 15 -113c0 -22 -1.33301 -42.167 -4 -60.5s-6.5 -34.666 -11.5 -48.999s-11.333 -27 -19 -38s-16.667 -20 -27 -27s-21.833 -12.333 -34.5 -16s-27 -5.5 -43 -5.5c-40 0 -73.333 17 -100 51l-10 12
l-3 -15c-19.333 -74 -67.666 -111.333 -144.999 -112c-42.667 0.666992 -74.834 14.167 -96.501 40.5s-32.834 66.833 -33.501 121.5c-0.666992 36 3 69.333 11 100l63 -10c-5.33301 -28.667 -8 -54.334 -8 -77.001c0 -14.667 1.66699 -27.667 5 -39
s8.16602 -20.833 14.499 -28.5s14.166 -13.5 23.499 -17.5s20.333 -6.33301 33 -7c11.333 0 22 1.66699 32 5s18.667 8.33301 26 15s13.5 15 18.5 25s9 21.333 12 34s4.5 26.667 4.5 42c1.33301 32 2 69.333 2 112h62zM290.004 881.001v87l441 180v-87zM290.004 1093v87
l441 180v-87z" />
    <glyph glyph-name="uni0651064E" unicode="&#x64e;&#x651;" 
d="M326 1468v88l440 180v-88zM613 1428c0.666992 -13.333 1.1709 -25.999 1.50391 -37.999s0.5 -24.333 0.5 -37c0 -66.667 24.667 -99.667 74 -99c12.667 0 24 2.5 34 7.5s18.167 12 24.5 21s11.166 20.167 14.499 33.5s5 28.666 5 45.999c0 5.33301 -0.166992 11 -0.5 17
s-1 12.5 -2 19.5s-2 14.5 -3 22.5s-2.33301 16.333 -4 25l-5.5 28l74 11c10 -38 15 -75.667 15 -113c0 -22 -1.33301 -42.167 -4 -60.5s-6.5 -34.666 -11.5 -48.999s-11.333 -27 -19 -38s-16.667 -20 -27 -27s-21.833 -12.333 -34.5 -16s-27 -5.5 -43 -5.5
c-40 0 -73.333 17 -100 51l-10 12l-3 -15c-19.333 -74 -67.666 -111.333 -144.999 -112c-42.667 0.666992 -74.834 14.167 -96.501 40.5s-32.834 66.833 -33.501 121.5c-0.666992 36 3 69.333 11 100l63 -10c-5.33301 -28.667 -8 -54.334 -8 -77.001
c0 -14.667 1.66699 -27.667 5 -39s8.16602 -20.833 14.499 -28.5s14.166 -13.5 23.499 -17.5s20.333 -6.33301 33 -7c11.333 0 22 1.66699 32 5s18.667 8.33301 26 15s13.5 15 18.5 25s9 21.333 12 34s4.5 26.667 4.5 42c1.33301 32 2 69.333 2 112h62z" />
    <glyph glyph-name="uni0651064F" unicode="&#x64f;&#x651;" 
d="M801 1459c-18.667 0 -35.333 0.333984 -50 1.00098s-28 1.66699 -40 3l-31 5h-5l-2 -4c-81.333 -114.667 -198.333 -176.667 -351 -186v63c123.333 6.66699 215.333 53 276 139l7 10l-12 2c-28 6 -57 17 -87 33c-54.667 30.667 -82 73 -82 127
c0 41.333 11.333 75.666 34 102.999c29.333 34.667 69.666 52 120.999 52c38.667 0 72.334 -11.333 101.001 -34c20.667 -16.667 35.667 -37 45 -61c6 -18 9 -38 9 -60c0 -37.333 -8.33301 -76 -25 -116l-4 -9l10 -1l20 -2c23.333 -2 45.333 -2.66699 66 -2v-63z
M643.001 1544l5.99902 14c14 32.667 21.333 63.667 22 93c-0.666992 30 -10 52.333 -28 67c-6 5.33301 -12.167 9.66602 -18.5 12.999s-13 6 -20 8s-14.167 3 -21.5 3c-32.667 0.666992 -58 -11 -76 -35c-12 -16 -18.333 -35.333 -19 -58
c0.666992 -34.667 24.334 -62.667 71.001 -84c15.333 -7.33301 40.333 -15.666 75 -24.999l6 -2zM610 1221c0.666992 -13.333 1.1709 -25.999 1.50391 -37.999s0.5 -24.333 0.5 -37c0 -66.667 24.667 -99.667 74 -99c12.667 0 24 2.5 34 7.5s18.167 12 24.5 21
s11.166 20.167 14.499 33.5s5 28.666 5 45.999c0 5.33301 -0.166992 11 -0.5 17s-1 12.5 -2 19.5s-2 14.5 -3 22.5s-2.33301 16.333 -4 25l-5.5 28l74 11c10 -38 15 -75.667 15 -113c0 -22 -1.33301 -42.167 -4 -60.5s-6.5 -34.666 -11.5 -48.999s-11.333 -27 -19 -38
s-16.667 -20 -27 -27s-21.833 -12.333 -34.5 -16s-27 -5.5 -43 -5.5c-40 0 -73.333 17 -100 51l-10 12l-3 -15c-19.333 -74 -67.666 -111.333 -144.999 -112c-42.667 0.666992 -74.834 14.167 -96.501 40.5s-32.834 66.833 -33.501 121.5c-0.666992 36 3 69.333 11 100
l63 -10c-5.33301 -28.667 -8 -54.334 -8 -77.001c0 -14.667 1.66699 -27.667 5 -39s8.16602 -20.833 14.499 -28.5s14.166 -13.5 23.499 -17.5s20.333 -6.33301 33 -7c11.333 0 22 1.66699 32 5s18.667 8.33301 26 15s13.5 15 18.5 25s9 21.333 12 34s4.5 26.667 4.5 42
c1.33301 32 2 69.333 2 112h62z" />
    <glyph glyph-name="uni064E0651" unicode="&#x650;&#x651;" 
d="M598 1633c0.666992 -13.333 1.1709 -25.999 1.50391 -37.999s0.5 -24.333 0.5 -37c0 -66.667 24.667 -99.667 74 -99c12.667 0 24 2.5 34 7.5s18.167 12 24.5 21s11.166 20.167 14.499 33.5s5 28.666 5 45.999c0 5.33301 -0.166992 11 -0.5 17s-1 12.5 -2 19.5
s-2 14.5 -3 22.5s-2.33301 16.333 -4 25l-5.5 28l74 11c10 -38 15 -75.667 15 -113c0 -22 -1.33301 -42.167 -4 -60.5s-6.5 -34.666 -11.5 -48.999s-11.333 -27 -19 -38s-16.667 -20 -27 -27s-21.833 -12.333 -34.5 -16s-27 -5.5 -43 -5.5c-40 0 -73.333 17 -100 51l-10 12
l-3 -15c-19.333 -74 -67.666 -111.333 -144.999 -112c-42.667 0.666992 -74.834 14.167 -96.501 40.5s-32.834 66.833 -33.501 121.5c-0.666992 36 3 69.333 11 100l63 -10c-5.33301 -28.667 -8 -54.334 -8 -77.001c0 -14.667 1.66699 -27.667 5 -39
s8.16602 -20.833 14.499 -28.5s14.166 -13.5 23.499 -17.5s20.333 -6.33301 33 -7c11.333 0 22 1.66699 32 5s18.667 8.33301 26 15s13.5 15 18.5 25s9 21.333 12 34s4.5 26.667 4.5 42c1.33301 32 2 69.333 2 112h62zM362.004 1010v88l440 180v-88z" />
    <glyph glyph-name="uni0654064E" unicode="&#x64e;&#x654;" 
d="M332 1736v88l440 180v-88zM454 1325c-47.333 36.667 -71.002 88.333 -71.002 155c0 56.667 19 105 57 145c22.667 23.333 48.334 41 77.001 53c28 12 59.667 18 95 18c46.667 0 91 -13.333 133 -40l1 -113c-39.333 23.333 -79.333 35 -120 35
c-8.66699 0 -17 -0.666992 -25 -2c-8 -0.666992 -15.667 -2 -23 -4s-14 -4.33301 -20 -7c-6.66699 -3.33301 -12.667 -7 -18 -11c-6 -3.33301 -11.333 -7.66602 -16 -12.999c-20.667 -20.667 -30.667 -45.334 -30 -74.001c0 -6.66699 1 -13 3 -19
c1.33301 -6 3.33301 -11.667 6 -17s6.33398 -10.333 11.001 -15c4 -5.33301 8.66699 -10.333 14 -15s11.333 -9 18 -13s14 -8 22 -12l25 -10c10 -4 19.333 -5 28 -3l131 25v-110l-391 -94v107l90 21l16 4z" />
    <glyph glyph-name="uni0654064F" unicode="&#x64f;&#x654;" 
d="M779 1683c-18.667 0 -35.333 0.333984 -50 1.00098s-28 1.66699 -40 3l-31 5h-5l-2 -4c-81.333 -114.667 -198.333 -176.667 -351 -186v63c123.333 6.66699 215.333 53 276 139l7 10l-12 2c-28 6 -57 17 -87 33c-54.667 30.667 -82 73 -82 127
c0 41.333 11.333 75.666 34 102.999c29.333 34.667 69.666 52 120.999 52c38.667 0 72.334 -11.333 101.001 -34c20.667 -16.667 35.667 -37 45 -61c6 -18 9 -38 9 -60c0 -37.333 -8.33301 -76 -25 -116l-4 -9l10 -1l20 -2c23.333 -2 45.333 -2.66699 66 -2v-63z
M621.001 1768l5.99902 14c14 32.667 21.333 63.667 22 93c-0.666992 30 -10 52.333 -28 67c-6 5.33301 -12.167 9.66602 -18.5 12.999s-13 6 -20 8s-14.167 3 -21.5 3c-32.667 0.666992 -58 -11 -76 -35c-12 -16 -18.333 -35.333 -19 -58
c0.666992 -34.667 24.334 -62.667 71.001 -84c15.333 -7.33301 40.333 -15.666 75 -24.999l6 -2zM447 1107c-47.333 36.667 -71.002 88.333 -71.002 155c0 56.667 19 105 57 145c22.667 23.333 48.334 41 77.001 53c28 12 59.667 18 95 18c46.667 0 91 -13.333 133 -40
l1 -113c-39.333 23.333 -79.333 35 -120 35c-8.66699 0 -17 -0.666992 -25 -2c-8 -0.666992 -15.667 -2 -23 -4s-14 -4.33301 -20 -7c-6.66699 -3.33301 -12.667 -7 -18 -11c-6 -3.33301 -11.333 -7.66602 -16 -12.999c-20.667 -20.667 -30.667 -45.334 -30 -74.001
c0 -6.66699 1 -13 3 -19c1.33301 -6 3.33301 -11.667 6 -17s6.33398 -10.333 11.001 -15c4 -5.33301 8.66699 -10.333 14 -15s11.333 -9 18 -13s14 -8 22 -12l25 -10c10 -4 19.333 -5 28 -3l131 25v-110l-391 -94v107l90 21l16 4z" />
    <glyph glyph-name="uni066E.fina" unicode="&#x66e;" horiz-adv-x="1931" 
d="M890 15c-261.333 0 -455.997 39.3311 -583.997 117.998s-192 196.334 -192 353.001c0 82.667 15.667 161.667 47 237l131 -57c-19.333 -53.333 -29 -104.333 -29 -153c0 -229.333 207.333 -344 622 -344c350.667 0 568.667 45 654 135c25.333 26.667 38 70.667 38 132
c0 23.333 -0.666992 42.666 -2 57.999l-4 67l135 16l15 -199c4 -60 21.667 -109.667 53 -149c32 -40 82.667 -60 152 -60h11c2 -3.33301 3.66699 -10.5 5 -21.5s2 -24.5 2 -40.5v-19c0 -38 -2.66699 -62.333 -8 -73h-10c-134.667 0 -230.334 56.333 -287.001 169l-9 19
l-15 -16c-35.333 -37.333 -85.333 -68.666 -150 -93.999s-144.834 -44.666 -240.501 -57.999s-205.834 -20 -330.501 -20h-4z" />
    <glyph glyph-name="uni066F.fina" unicode="&#x66f;" horiz-adv-x="1526" 
d="M738 -362c162 0 287.168 30.1699 375.501 90.5029s138.166 150.833 149.499 271.5l1 16h-16h-149c-48 0 -90.833 3.83301 -128.5 11.5s-70.5 19 -98.5 34s-51.167 33.833 -69.5 56.5s-32 49 -41 79s-13.5 64 -13.5 102c0 78.667 16.667 153 50 223
c60 125.333 150.333 188 271 188c192.667 0 304 -175.667 334 -527l1 -14h14h114c4.66699 -8.66699 7 -29.334 7 -62.001v-19c0 -18.667 -0.833008 -34.5 -2.5 -47.5s-3.5 -21.5 -5.5 -25.5l-115 1h-13l-2 -14c-18.667 -170.667 -82.667 -298.334 -192 -383.001
s-266 -127.334 -470 -128.001c-68.667 0 -131.5 5.16699 -188.5 15.5s-108.167 25.5 -153.5 45.5c-46.667 20.667 -87.334 46.5 -122.001 77.5s-63.667 67.167 -87 108.5c-46 83.333 -69.333 187 -70 311c-0.666992 146 30 288.333 92 427l132 -54
c-13.333 -34 -24.666 -66.5 -33.999 -97.5s-17.333 -61.167 -24 -90.5c-14 -62.667 -21 -121.667 -21 -177c1.33301 -138.667 42 -243.167 122 -313.5s197.667 -105.5 353 -105.5zM1265 186.003c-15.333 242.667 -84.6689 364.333 -208.002 365
c-23.333 0 -44.666 -5 -63.999 -15s-36.166 -24.667 -50.499 -44s-26.5 -43 -36.5 -71c-4 -12.667 -7.5 -25 -10.5 -37s-5.16699 -23.833 -6.5 -35.5s-2 -23.167 -2 -34.5c0 -48 17.5 -84 52.5 -108s84.833 -36 149.5 -36h161h16z" />
    <glyph glyph-name="uni06A1.init" unicode="&#x6a1;" horiz-adv-x="914" 
d="M446 387c-105.333 0 -183.668 21.168 -235.001 63.501s-77.666 106.5 -78.999 192.5c0 28 2.66699 54.667 8 80c19.333 102.667 55.666 181.667 108.999 237c52.667 54 118.334 81 197.001 81c53.333 0 99.666 -12.667 138.999 -38
c107.333 -70 172.333 -205.667 195 -407c4.66699 -43.333 7 -84 7 -122c0 -183.333 -43 -307.333 -129 -372c-77.333 -58 -215 -87 -413 -87h-252c-14 0 -24.667 5.5 -32 16.5s-11 29.833 -11 56.5v19c0 23.333 3.5 39.5 10.5 48.5s17.833 13.5 32.5 13.5h263
c263.333 0 398.333 70.667 405 212c0 4 -0.166992 7.66699 -0.5 11s-0.5 6.66602 -0.5 9.99902l-3 18l-17 -6c-19.333 -6 -39.5 -11 -60.5 -15s-42.667 -7 -65 -9s-45.166 -3 -68.499 -3zM266.998 670.001c0 -46.667 16.667 -81.667 50 -105s80.666 -34.666 141.999 -33.999
c57.333 0 115.666 9 174.999 27l12 3l-2 13c-2.66699 19.333 -5.66699 38.166 -9 56.499s-7.16602 35.833 -11.499 52.5s-9.16602 32.5 -14.499 47.5s-11 29.5 -17 43.5c-35.333 78 -86.333 117 -153 117c-76.667 0 -130 -48.333 -160 -145c-8 -26.667 -12 -52 -12 -76z" />
    <glyph glyph-name="uni06A1.medi" unicode="&#x6a1;" horiz-adv-x="1052" 
d="M440 652c-42.667 -42.667 -64 -85.3311 -64 -127.998c0 -9.33301 1 -18.666 3 -27.999s4.83301 -18.833 8.5 -28.5s8.16699 -19.334 13.5 -29.001s11.5 -19.334 18.5 -29.001s14.833 -19.834 23.5 -30.501c52 -60 93.333 -90 124 -90c30 0 71 30 123 90
c45.333 52 68 100 68 144c0 53.333 -32 106 -96 158c-12 10 -23.667 18.167 -35 24.5s-22.5 11.333 -33.5 15s-21.833 5.5 -32.5 5.5c-30.667 0 -71 -24.667 -121 -74zM554 141.003c-113.333 -84 -286.666 -125.999 -519.999 -125.999h-41c-14 0 -24.667 5.5 -32 16.5
s-11 29.833 -11 56.5v19c0 22.667 3.5 38.667 10.5 48s17.833 14 32.5 14h41c175.333 0.666992 291 12 347 34l23 10l-19 16c-102.667 85.333 -154 187 -154 305c0 112 63.667 212.333 191 301c44.667 30.667 93 46 145 46c51.333 0 95.666 -11.333 132.999 -34
c136 -82 204 -190 204 -324c0 -111.333 -51.667 -209.333 -155 -294l-21 -17l25 -9c63.333 -22.667 155 -34 275 -34h30c4.66699 -8.66699 7 -29.334 7 -62.001v-19c0 -38 -2.66699 -62.333 -8 -73h-27c-193.333 0 -346 42 -458 126l-9 7z" />
    <glyph glyph-name="uni06A1.fina" unicode="&#x6a1;" horiz-adv-x="2025" 
d="M1413 652c-42.667 -42.667 -63.9971 -85.333 -63.9971 -128c0 -22.667 5.66699 -46 17 -70s28 -49 50 -75c26 -30 48.833 -52.5 68.5 -67.5s38.167 -22.5 55.5 -22.5c30 0 71 30 123 90c45.333 52 67.666 100 66.999 144c0.666992 53.333 -31 106 -95 158
c-37.333 30 -71 45 -101 45c-16.667 0 -34.834 -6.16699 -54.501 -18.5s-41.834 -30.833 -66.501 -55.5zM1527 142.001c-122 -84.667 -332.999 -127 -632.999 -127h-34c-251.333 0 -438.5 39.333 -561.5 118s-184.5 196.334 -184.5 353.001c0 82.667 15.667 161.667 47 237
l131 -57c-19.333 -53.333 -29 -104.333 -29 -153c0 -229.333 202.667 -344 608 -344c246 0 406.667 11.333 482 34l26 8l-21 18c-102.667 85.333 -154 187 -154 305c0 112 63.667 212.333 191 301c44.667 30.667 93 46 145 46c51.333 0 95.666 -11.333 132.999 -34
c34.667 -20.667 64.667 -43 90 -67s46.5 -49.5 63.5 -76.5s29.667 -55.5 38 -85.5s12.5 -61.667 12.5 -95c0 -111.333 -51.667 -209.333 -155 -294l-21 -17l25 -9c32 -11.333 70.833 -19.833 116.5 -25.5s98.5 -8.5 158.5 -8.5h30c4.66699 -8.66699 7 -29.334 7 -62.001v-19
c0 -9.33301 -0.166992 -18.333 -0.5 -27s-1 -16 -2 -22l-2.5 -15c-0.666992 -4 -1.66699 -7 -3 -9h-27c-193.333 0 -346 42 -458 126l-9 7z" />
    <glyph glyph-name="uni06CA.fina" unicode="&#x6ca;" horiz-adv-x="893" 
d="M437 1036l125 125l126 -126l-125 -125zM133 1036l125 125l126 -126l-125 -125zM646 185c-16 242.667 -85.335 364.333 -208.002 365c-35.333 0.666992 -65.666 -10.166 -90.999 -32.499s-45.666 -54.833 -60.999 -97.5c-12.667 -36.667 -19 -72.334 -19 -107.001
c0 -48 17.5 -84 52.5 -108s84.833 -36 149.5 -36h162h16zM797.998 167.999l99.9971 0.000976562c5.33301 -10 8 -33.333 8 -70v-10c0 -38 -2.66699 -62.333 -8 -73l-109 1h-13l-2 -12c-48 -276.667 -264 -436 -648 -478l-36 142c312.667 37.333 495.667 146.666 549 327.999
l6 19h-20h-146c-119.333 0 -207.666 23.5 -264.999 70.5s-86 117.833 -86 212.5c0 78.667 16.667 153 50 223c30.667 63.333 68.334 110.5 113.001 141.5s97.334 46.5 158.001 46.5c192.667 0 304 -175.667 334 -527l1 -14h14z" />
    <glyph glyph-name="uni06D5.fina" unicode="&#x6d5;" horiz-adv-x="1063" 
d="M126 406c0 188.667 169.335 334.997 508.002 438.997l13 4l-2 13l-6 31l132 28l80 -576c5.33301 -38 16.5 -70.167 33.5 -96.5s39.5 -46.166 67.5 -59.499s61.333 -20 100 -20h18c4.66699 -8 7 -27 7 -57v-24c0 -18.667 -0.833008 -34.5 -2.5 -47.5
s-3.5 -21.5 -5.5 -25.5h-21c-88.667 0 -158.334 17.833 -209.001 53.5s-84 89.5 -100 161.5l-5 25l-19 -17c-26 -22.667 -52.833 -41.5 -80.5 -56.5s-56.334 -26.167 -86.001 -33.5s-60.5 -11 -92.5 -11c-143.333 0 -242.666 46.333 -297.999 139
c-4 6.66699 -7.66699 13.834 -11 21.501s-6.33301 15.667 -9 24s-4.83398 17 -6.50098 26s-3 18.333 -4 28s-1.5 19.834 -1.5 30.501zM646.002 706.997c-123.333 -44.667 -216.166 -90.668 -278.499 -138.001s-93.5 -97.666 -93.5 -150.999
c0 -45.333 15.167 -79.5 45.5 -102.5s73.833 -34.5 130.5 -34.5c26.667 0 53.667 4.16699 81 12.5s54.333 20.5 81 36.5c69.333 42.667 96.666 111 81.999 205l-20 133l-5 28l-2 18l-18 -6z" />
    <glyph glyph-name="uniFB56" unicode="&#x67e;" horiz-adv-x="1837" arabic-form="isolated" 
d="M891 15c-261.333 0 -455.999 39.333 -583.999 118s-192 196.334 -192 353.001c0 82.667 15.667 161.667 47 237l131 -57c-19.333 -52.667 -29 -103.334 -29 -152.001c0 -230 202.667 -345 608 -345c337.333 0 550.666 33 639.999 99c47.333 34 71 93 71 177
c0 58 -11 136.333 -33 235l135 34c30 -94 45 -178.667 45 -254c0 -152.667 -44 -259.667 -132 -321c-118 -82.667 -352.667 -124 -704 -124h-3zM797.374 -569.373l131.604 131.604l130.533 -131.604l-131.604 -130.533zM962.146 -300.816l131.604 131.604l130.533 -130.533
l-131.604 -131.604zM636.882 -300.816l131.604 131.604l130.533 -130.533l-131.604 -131.604z" />
    <glyph glyph-name="uniFB57" unicode="&#x67e;" horiz-adv-x="1931" arabic-form="final" 
d="M799.373 -569.373l131.604 131.604l130.533 -131.604l-131.604 -130.533zM964.145 -300.816l131.604 131.604l130.533 -130.533l-131.604 -131.604zM638.881 -300.816l131.604 131.604l130.533 -130.533l-131.604 -131.604zM890 15
c-261.333 0 -455.997 39.3311 -583.997 117.998s-192 196.334 -192 353.001c0 82.667 15.667 161.667 47 237l131 -57c-19.333 -53.333 -29 -104.333 -29 -153c0 -229.333 207.333 -344 622 -344c350.667 0 568.667 45 654 135c25.333 26.667 38 70.667 38 132
c0 23.333 -0.666992 42.666 -2 57.999l-4 67l135 16l15 -199c4 -60 21.667 -109.667 53 -149c32 -40 82.667 -60 152 -60h11c2 -3.33301 3.66699 -10.5 5 -21.5s2 -24.5 2 -40.5v-19c0 -38 -2.66699 -62.333 -8 -73h-10c-134.667 0 -230.334 56.333 -287.001 169l-9 19
l-15 -16c-35.333 -37.333 -85.333 -68.666 -150 -93.999s-144.834 -44.666 -240.501 -57.999s-205.834 -20 -330.501 -20h-4z" />
    <glyph glyph-name="uniFB58" unicode="&#x67e;" horiz-adv-x="673" arabic-form="initial" 
d="M69 15l-76.001 0.000976562c-14 0 -24.667 5.5 -32 16.5s-11 29.833 -11 56.5v19c0 23.333 3.5 39.5 10.5 48.5s17.833 13.5 32.5 13.5h76c109.333 0 184 11.333 224 34c62 36 93 110 93 222c0 9.33301 -0.166992 19 -0.5 29s-0.833008 20 -1.5 30s-1.5 20.167 -2.5 30.5
s-2.33301 20.833 -4 31.5l-5 32.5c-1.66699 11 -3.5 22 -5.5 33s-4.16699 22.167 -6.5 33.5s-5.16602 22.666 -8.49902 33.999l135 34c29.333 -98 44 -193 44 -285c0 -158.667 -45 -271.667 -135 -339c-64.667 -49.333 -173.667 -74 -327 -74zM146.372 -569.372
l131.604 131.604l130.533 -131.604l-131.604 -130.533zM311.144 -300.815l131.604 131.604l130.533 -130.533l-131.604 -131.604zM-14.1201 -300.815l131.604 131.604l130.533 -130.533l-131.604 -131.604z" />
    <glyph glyph-name="uniFB59" unicode="&#x67e;" horiz-adv-x="717" arabic-form="medial" 
d="M146.373 -569.373l131.604 131.604l130.533 -131.604l-131.604 -130.533zM311.145 -300.816l131.604 131.604l130.533 -130.533l-131.604 -131.604zM-14.1191 -300.816l131.604 131.604l130.533 -130.533l-131.604 -131.604zM730 88
c0 -18.667 -0.834961 -34.499 -2.50195 -47.499s-3.5 -21.5 -5.5 -25.5h-7c-126 0 -212.333 44.333 -259 133l-12 22l-14 -20c-63.333 -90 -174.666 -135 -333.999 -135h-104c-9.33301 0 -16.833 2.16699 -22.5 6.5s-10.334 12 -14.001 23s-5.5 25.5 -5.5 43.5v19
c0 23.333 3.33301 39.5 10 48.5s17.334 13.5 32.001 13.5h99c162 0 252 48 270 144c4.66699 24.667 7 53.334 7 86.001c0 34 -1 66 -3 96l-5 67l135 16l15 -215c3.33301 -42.667 13.333 -78.334 30 -107.001s39.834 -50.334 69.501 -65.001s65.5 -22 107.5 -22h5
c5.33301 -10 8 -33.667 8 -71v-10z" />
    <glyph glyph-name="uniFB7A" unicode="&#x686;" horiz-adv-x="1366" arabic-form="isolated" 
d="M140 -145c0 191.333 58.3311 347.499 174.998 468.499s293 207.5 529 259.5l10 2l49 11l-47 18c-5.33301 2 -13.166 5.16699 -23.499 9.5s-23 9.33301 -38 15s-32.167 12.5 -51.5 20.5c-132 53.333 -223 80 -273 80c-80.667 0 -146.667 -33.333 -198 -100l-21 -26
l-128 63l8 14c80.667 133.333 194 200.333 340 201c82.667 0 181.667 -28 297 -84c100.667 -49.333 190.334 -87.333 269.001 -114s147 -42 205 -46l-11 -146c-112.667 -7.33301 -206.667 -19.666 -282 -36.999c-446 -103.333 -669 -301 -669 -593
c0 -128 46.167 -224 138.5 -288s228.166 -96 407.499 -96c140.667 0 276 29.667 406 89l30 -149c-42.667 -20 -87.834 -36.667 -135.501 -50s-97.667 -23.333 -150 -30s-107.166 -10 -164.499 -10c-252.667 0 -435 60.333 -547 181c-28 30 -51.167 62.333 -69.5 97
s-32.166 72 -41.499 112s-14 82.667 -14 128zM692.371 -215.374l131.604 131.604l130.533 -131.604l-131.604 -130.533zM857.143 53.1826l131.604 131.604l130.533 -130.533l-131.604 -131.604zM531.879 53.1826l131.604 131.604l130.533 -130.533l-131.604 -131.604z" />
    <glyph glyph-name="uniFB7B" unicode="&#x686;" horiz-adv-x="1386" arabic-form="final" 
d="M570.244 -265.244l116.799 116.799l115.85 -116.799l-116.799 -115.85zM716.48 -26.8984l116.799 116.799l115.85 -115.85l-116.799 -116.799zM427.807 -26.8984l116.799 116.799l115.85 -115.85l-116.799 -116.799zM1242 647l-11 -145.999
c-64.667 -5.33301 -125.667 -12 -183 -20l-13 -2v-13v-8c0 -95.333 25 -167.333 75 -216s123.667 -73 221 -73h61c4.66699 -8 7 -27 7 -57v-24c0 -38 -2.66699 -62.333 -8 -73h-60c-140.667 0 -245.667 33.667 -315 101s-104.333 170 -105 308v12v19l-18 -5
c-408.667 -102 -613 -295 -613 -579c0 -128 46.167 -224 138.5 -288s228.166 -96 407.499 -96c140.667 0 276 29.667 406 89l30 -149c-12.667 -6 -25.667 -11.667 -39 -17s-26.833 -10.333 -40.5 -15l-41.5 -13.5c-14 -4.33301 -28.333 -8.33301 -43 -12s-29.5 -7 -44.5 -10
s-30.167 -5.66699 -45.5 -8s-31 -4.5 -47 -6.5s-32.167 -3.5 -48.5 -4.5s-33 -1.83301 -50 -2.5s-33.833 -1 -50.5 -1c-252.667 0 -435 60.333 -547 181c-83.333 90 -125 202.333 -125 337c0 191.333 58.333 347.5 175 468.5s293 207.5 529 259.5l10 2l49 11l-47 18
c-5.33301 2 -13.166 5.16699 -23.499 9.5s-23 9.33301 -38 15s-32.167 12.5 -51.5 20.5c-132 53.333 -223 80 -273 80c-80.667 0 -146.667 -33.333 -198 -100l-21 -26l-128 63l8 14c81.333 134 195 201 341 201c82 0 180.667 -28 296 -84
c67.333 -32.667 129.5 -60.334 186.5 -83.001s109.5 -40.5 157.5 -53.5s91.333 -20.833 130 -23.5z" />
    <glyph glyph-name="uniFB7C" unicode="&#x686;" horiz-adv-x="1337" arabic-form="initial" 
d="M-7 15c-14 0 -24.668 5.50098 -32.001 16.501s-11 29.833 -11 56.5v19c0 23.333 3.5 39.5 10.5 48.5s17.833 13.5 32.5 13.5h60c222.667 0 497 84.333 823 253l74 38l34 17l-37 10c-8 2.66699 -30.333 11.167 -67 25.5l-148 58.5
c-66.667 26.667 -122.167 46.667 -166.5 60s-79.5 20 -105.5 20c-40 0 -76.667 -8.33301 -110 -25s-62.666 -41.667 -87.999 -75l-21 -26l-128 63l8 14c16.667 26.667 34.334 50.667 53.001 72s38.667 40.166 60 56.499s44 29.833 68 40.5s49.167 18.667 75.5 24
s54.166 8 83.499 8c82.667 0 181.667 -28 297 -84c201.333 -98.667 359.666 -152 474.999 -160l-2 -147c-16.667 -2 -35.5 -6.16699 -56.5 -12.5s-44.167 -14.333 -69.5 -24s-53 -21.167 -83 -34.5l-96.5 -45c-34.333 -16.667 -71.166 -35.667 -110.499 -57
c-284 -149.333 -542 -224 -774 -224h-48zM560.372 -569.372l131.604 131.604l130.533 -131.604l-131.604 -130.533zM725.144 -300.815l131.604 131.604l130.533 -130.533l-131.604 -131.604zM399.88 -300.815l131.604 131.604l130.533 -130.533l-131.604 -131.604z" />
    <glyph glyph-name="uniFB7D" unicode="&#x686;" horiz-adv-x="1351" arabic-form="medial" 
d="M560.373 -569.373l131.604 131.604l130.533 -131.604l-131.604 -130.533zM725.145 -300.816l131.604 131.604l130.533 -130.533l-131.604 -131.604zM399.881 -300.816l131.604 131.604l130.533 -130.533l-131.604 -131.604zM947 487
c-15.333 4 -87.001 32.001 -215.001 84.001c-66.667 26.667 -122.167 46.667 -166.5 60s-79.5 20 -105.5 20c-40 0 -76.667 -8.33301 -110 -25s-62.666 -41.667 -87.999 -75l-21 -26l-128 63l8 14c16.667 26.667 34.334 50.667 53.001 72s38.667 40.166 60 56.499
s44 29.833 68 40.5s49.167 18.667 75.5 24s54.166 8 83.499 8c82.667 0 181.667 -28 297 -84c201.333 -98.667 359.666 -152 474.999 -160l-2 -146c-54.667 -7.33301 -121 -30.666 -199 -69.999l-8 -4v-9c2.66699 -107.333 100.334 -161 293.001 -161h41
c5.33301 -8 8 -27 8 -57v-24c0 -38 -2.66699 -62.333 -8 -73h-57c-119.333 0 -210.333 21.167 -273 63.5s-99 106.166 -109 191.499l-3 21l-19 -9c-8.66699 -4.66699 -17.5 -9.16699 -26.5 -13.5s-18.167 -9 -27.5 -14l-28 -15.5c-284 -149.333 -542 -224 -774 -224h-48
c-14 0 -24.667 5.5 -32 16.5s-11 29.833 -11 56.5v19c0 23.333 3.5 39.5 10.5 48.5s17.833 13.5 32.5 13.5h60c222.667 0 497 84.333 823 253l74 38l35 18z" />
    <glyph glyph-name="uniFB8A" unicode="&#x698;" horiz-adv-x="890" arabic-form="isolated" 
d="M637 513c12.667 -30.667 23.832 -60.833 33.499 -90.5s17.834 -59 24.501 -88s11.5 -57.667 14.5 -86s4.5 -56.5 4.5 -84.5c0 -188 -55.833 -334.833 -167.5 -440.5s-280.167 -171.5 -505.5 -197.5l-35 141c186 20.667 326.333 71.5 421 152.5s141.667 191.833 141 332.5
c0 99.333 -24.333 203 -73 311zM372.371 1125.43l130.533 130.534l131.604 -131.604l-130.533 -130.534zM537.143 856.876l130.533 130.534l131.604 -131.604l-130.533 -130.533zM211.879 856.876l130.533 130.534l131.604 -131.604l-130.533 -130.533z" />
    <glyph glyph-name="uniFB8B" unicode="&#x698;" horiz-adv-x="910" arabic-form="final" 
d="M372.373 1125.43l130.533 130.534l131.604 -131.604l-130.533 -130.534zM537.145 856.875l130.533 130.534l131.604 -131.604l-130.533 -130.533zM211.881 856.875l130.533 130.534l131.604 -131.604l-130.533 -130.533zM634 512l52.999 -178c32 -110 100 -165 204 -165
h25c2 -3.33301 3.83301 -10 5.5 -20s2.5 -22.333 2.5 -37v-24c0 -38.667 -2.66699 -63 -8 -73h-14c-45.333 0 -82.166 4.16699 -110.499 12.5s-55.5 29.833 -81.5 64.5l-5 -37c-12 -102 -44.333 -189.5 -97 -262.5s-126.167 -131.667 -220.5 -176
s-209.833 -74.5 -346.5 -90.5l-35 141c186 20.667 326.333 71.667 421 153s141.667 192.333 141 333c0 98 -24.667 201.333 -74 310z" />
    <glyph glyph-name="uniFB8E" unicode="&#x6a9;" horiz-adv-x="1878" arabic-form="isolated" 
d="M1518 649c84 -90.667 125.334 -189.999 124.001 -297.999c-4.66699 -224 -204 -336 -598 -336h-181c-252.667 0 -440.667 39.333 -564 118s-185 196.334 -185 353.001c0 82.667 15.667 161.667 47 237l131 -57c-19.333 -54 -29 -105.667 -29 -155
c0.666992 -114.667 51.667 -200.334 153 -257.001s250.333 -85 447 -85h180c300 0 449.667 68.667 449 206c0 69.333 -36 138 -108 206l-99.5 90l-91 79l-83.5 69c-72.667 56 -109 114.333 -109 175c0 79.333 43.667 135.666 131 168.999l673 255v-148l-663 -247l-24 -9
l19 -17l123 -105l105 -93c32 -28.667 60.667 -55.5 86 -80.5s47.666 -48.167 66.999 -69.5z" />
    <glyph glyph-name="uniFB8F" unicode="&#x6a9;" horiz-adv-x="1954" arabic-form="final" 
d="M861 15c-251.333 0 -438.669 39.3359 -562.002 118.003s-185 196.334 -185 353.001c0 82.667 15.667 161.667 47 237l131 -57c-19.333 -54 -29 -105.667 -29 -155c0.666992 -114.667 51.5 -200.334 152.5 -257.001s249.5 -85 445.5 -85h182
c298.667 0 448.334 68.667 449.001 206c0 69.333 -36.333 138 -109 206c-106 98.667 -197.333 178 -274 238c-24.667 19.333 -45 38.666 -61 57.999s-27.833 38.833 -35.5 58.5s-11.5 39.167 -11.5 58.5c0 79.333 43.333 135.666 130 168.999l673 255v-148l-663 -247l-24 -9
l20 -17c174 -145.333 301 -261.333 381 -348c52 -56 94 -129 126 -219c61.333 -174 162 -261 302 -261h14c4.66699 -8.66699 7 -29.334 7 -62.001v-19c0 -38 -2.66699 -62.333 -8 -73h-13c-139.333 0 -251.666 57 -336.999 171l-13 17l-12 -18
c-72.667 -113.333 -253 -170 -541 -170h-182z" />
    <glyph glyph-name="uniFB90" unicode="&#x6a9;" horiz-adv-x="950" arabic-form="initial" 
d="M590 649c84 -90.667 125 -189.997 123 -297.997c-4 -224 -196.333 -336 -577 -336h-143c-14 0 -24.667 5.5 -32 16.5s-11 29.833 -11 56.5v19c0 23.333 3.5 39.5 10.5 48.5s17.833 13.5 32.5 13.5h142c285.333 0 428.333 68.667 429 206c0 69.333 -36.333 138 -109 206
c-102 95.333 -193.333 174.666 -274 237.999c-24.667 19.333 -45 38.666 -61 57.999s-27.833 38.833 -35.5 58.5s-11.5 39.167 -11.5 58.5c0 79.333 43.333 135.666 130 168.999l673 255v-148l-663 -247l-24 -9l20 -17c174 -145.333 301 -261.333 381 -348z" />
    <glyph glyph-name="uniFB91" unicode="&#x6a9;" horiz-adv-x="1027" arabic-form="medial" 
d="M209 997c174 -145.333 300.998 -261.329 380.998 -347.996c52.667 -56.667 94.667 -129.667 126 -219c60.667 -174 161.334 -261 302.001 -261h14c2 -3.33301 3.66699 -10.5 5 -21.5s2 -24.5 2 -40.5v-19c0 -38 -2.66699 -62.333 -8 -73h-13
c-35.333 0 -68.666 3.5 -99.999 10.5s-61 17.667 -89 32s-54.333 32.166 -79 53.499s-47.667 46.333 -69 75l-13 17l-12 -18c-72.667 -113.333 -246 -170 -520 -170h-143c-14 0 -24.667 5.5 -32 16.5s-11 29.833 -11 56.5v19c0 23.333 3.5 39.5 10.5 48.5
s17.833 13.5 32.5 13.5h142c285.333 0 428.333 68.667 429 206c0 69.333 -36.333 138 -109 206c-102 95.333 -193.333 174.666 -274 237.999c-24.667 19.333 -45 38.666 -61 57.999s-27.833 38.833 -35.5 58.5s-11.5 39.167 -11.5 58.5c0 79.333 43.333 135.666 130 168.999
l673 255v-148l-663 -247l-24 -9z" />
    <glyph glyph-name="uniFB92" unicode="&#x6af;" horiz-adv-x="1878" arabic-form="isolated" 
d="M1518 649c84 -90.667 125.334 -189.999 124.001 -297.999c-4.66699 -224 -204 -336 -598 -336h-181c-252.667 0 -440.667 39.333 -564 118s-185 196.334 -185 353.001c0 82.667 15.667 161.667 47 237l131 -57c-19.333 -54 -29 -105.667 -29 -155
c0.666992 -114.667 51.667 -200.334 153 -257.001s250.333 -85 447 -85h180c300 0 449.667 68.667 449 206c0 69.333 -36 138 -108 206l-99.5 90l-91 79l-83.5 69c-72.667 56 -109 114.333 -109 175c0 79.333 43.667 135.666 131 168.999l673 255v-148l-663 -247l-24 -9
l19 -17l123 -105l105 -93c32 -28.667 60.667 -55.5 86 -80.5s47.666 -48.167 66.999 -69.5zM1795.36 1563.7l-755.382 -292.096v111.274l755.382 292.096v-111.274z" />
    <glyph glyph-name="uniFB93" unicode="&#x6af;" horiz-adv-x="1954" arabic-form="final" 
d="M1795.36 1563.7l-755.382 -292.096v111.274l755.382 292.096v-111.274zM861 15c-251.333 0 -438.669 39.3359 -562.002 118.003s-185 196.334 -185 353.001c0 82.667 15.667 161.667 47 237l131 -57c-19.333 -54 -29 -105.667 -29 -155
c0.666992 -114.667 51.5 -200.334 152.5 -257.001s249.5 -85 445.5 -85h182c298.667 0 448.334 68.667 449.001 206c0 69.333 -36.333 138 -109 206c-106 98.667 -197.333 178 -274 238c-24.667 19.333 -45 38.666 -61 57.999s-27.833 38.833 -35.5 58.5
s-11.5 39.167 -11.5 58.5c0 79.333 43.333 135.666 130 168.999l673 255v-148l-663 -247l-24 -9l20 -17c174 -145.333 301 -261.333 381 -348c52 -56 94 -129 126 -219c61.333 -174 162 -261 302 -261h14c4.66699 -8.66699 7 -29.334 7 -62.001v-19
c0 -38 -2.66699 -62.333 -8 -73h-13c-139.333 0 -251.666 57 -336.999 171l-13 17l-12 -18c-72.667 -113.333 -253 -170 -541 -170h-182z" />
    <glyph glyph-name="uniFB94" unicode="&#x6af;" horiz-adv-x="950" arabic-form="initial" 
d="M590 649c84 -90.667 125 -189.997 123 -297.997c-4 -224 -196.333 -336 -577 -336h-143c-14 0 -24.667 5.5 -32 16.5s-11 29.833 -11 56.5v19c0 23.333 3.5 39.5 10.5 48.5s17.833 13.5 32.5 13.5h142c285.333 0 428.333 68.667 429 206c0 69.333 -36.333 138 -109 206
c-102 95.333 -193.333 174.666 -274 237.999c-24.667 19.333 -45 38.666 -61 57.999s-27.833 38.833 -35.5 58.5s-11.5 39.167 -11.5 58.5c0 79.333 43.333 135.666 130 168.999l673 255v-148l-663 -247l-24 -9l20 -17c174 -145.333 301 -261.333 381 -348zM865.361 1566.7
l-755.382 -292.096v111.274l755.382 292.096v-111.274z" />
    <glyph glyph-name="uniFB95" unicode="&#x6af;" horiz-adv-x="1027" arabic-form="medial" 
d="M865.361 1566.7l-755.382 -292.096v111.274l755.382 292.096v-111.274zM209 997c174 -145.333 300.998 -261.329 380.998 -347.996c52.667 -56.667 94.667 -129.667 126 -219c60.667 -174 161.334 -261 302.001 -261h14c2 -3.33301 3.66699 -10.5 5 -21.5
s2 -24.5 2 -40.5v-19c0 -38 -2.66699 -62.333 -8 -73h-13c-35.333 0 -68.666 3.5 -99.999 10.5s-61 17.667 -89 32s-54.333 32.166 -79 53.499s-47.667 46.333 -69 75l-13 17l-12 -18c-72.667 -113.333 -246 -170 -520 -170h-143c-14 0 -24.667 5.5 -32 16.5
s-11 29.833 -11 56.5v19c0 23.333 3.5 39.5 10.5 48.5s17.833 13.5 32.5 13.5h142c285.333 0 428.333 68.667 429 206c0 69.333 -36.333 138 -109 206c-102 95.333 -193.333 174.666 -274 237.999c-24.667 19.333 -45 38.666 -61 57.999s-27.833 38.833 -35.5 58.5
s-11.5 39.167 -11.5 58.5c0 79.333 43.333 135.666 130 168.999l673 255v-148l-663 -247l-24 -9z" />
    <glyph glyph-name="uniFB9E" unicode="&#x6ba;" horiz-adv-x="1475" arabic-form="isolated" 
d="M716 -295c162 0.666992 284.333 39.498 367 116.498s123.667 190.833 123 341.5c0 125.333 -28 248 -84 368l144 51c60.667 -155.333 91 -295.333 91 -420c-0.666992 -121.333 -22.667 -226 -66 -314c-96.667 -193.333 -291.334 -289.666 -584.001 -288.999
c-198 0 -345.5 44.5 -442.5 133.5s-145.833 223.833 -146.5 404.5c0 136 31.333 281.667 94 437l131 -54c-53.333 -138 -79.666 -266.333 -78.999 -385c0.666992 -129.333 39.167 -226.666 115.5 -291.999s188.5 -98 336.5 -98z" />
    <glyph glyph-name="uniFB9F" unicode="&#x6ba;" horiz-adv-x="1549" arabic-form="final" 
d="M1355 56c-0.666992 -90 -22.334 -178.667 -65.001 -266c-96 -196.667 -290.333 -295 -583 -295c-393.333 0 -590 182 -590 546c0 130.667 31.333 274 94 430l131 -54c-52.667 -138 -79 -262.667 -79 -374c0 -132.667 38 -232.667 114 -300s188.333 -101 337 -101
c162 0 284.333 38.667 367 116s124.334 192 125.001 344c0 120 -28.333 240.333 -85 361l143 50l68 -214c9.33301 -28.667 23.5 -52.667 42.5 -72s42.167 -33.833 69.5 -43.5s59 -14.5 95 -14.5h17c4.66699 -8 7 -27 7 -57v-24c0 -38 -2.66699 -62.333 -8 -73h-12
c-72 0 -126.333 17.333 -163 52l-25 24v-35z" />
    <glyph glyph-name="uniFBAC" unicode="&#x6be;" horiz-adv-x="1395" arabic-form="initial" 
d="M95 15l-101.999 -0.000976562c-14 0 -24.667 5.5 -32 16.5s-11 29.833 -11 56.5v19c0 23.333 3.5 39.5 10.5 48.5s17.833 13.5 32.5 13.5h265h50h47l-39 27c-13.333 9.33301 -25.333 18.833 -36 28.5s-20 19.167 -28 28.5
c-49.333 56.667 -73.666 119.334 -72.999 188.001c0 38.667 6.66699 75.5 20 110.5s33.666 68.167 60.999 99.5c66.667 77.333 151.667 116 255 116c95.333 0 174.666 -30 237.999 -90c53.333 -50 80.333 -114 81 -192c0 -115.333 -50.333 -203.666 -151 -264.999l-35 -22
l41 -6c108 -15.333 178 -23 210 -23c24 0 45 1.16699 63 3.5s33.667 6.16602 47 11.499c39.333 15.333 69 37.5 89 66.5s30.333 63.833 31 104.5c0.666992 84.667 -46.333 170.334 -141 257.001s-236 175.667 -424 267l72 128c432 -212.667 646 -430 642 -652
c-0.666992 -47.333 -8.16699 -90.5 -22.5 -129.5s-35.833 -74.167 -64.5 -105.5c-62 -69.333 -159.333 -104 -292 -104c-102.667 -0.666992 -229 22.666 -379 69.999l-4 2l-4 -2c-160.667 -47.333 -299.667 -71 -417 -71zM631.001 321.999c48.667 46 74 97.666 76 154.999
c0 38.667 -11 70 -33 94c-38.667 42.667 -88.667 64 -150 64c-18.667 0 -36 -2 -52 -6s-31 -10 -45 -18s-26.833 -17.833 -38.5 -29.5s-22.167 -25.167 -31.5 -40.5c-17.333 -29.333 -26.333 -64 -27 -104c0 -46.667 22 -89.667 66 -129c20 -18 41.667 -32.333 65 -43
c8 -4 16.5 -7.66699 25.5 -11s18.167 -6 27.5 -8l5 -1l5 2c10 4.66699 20.333 10.334 31 17.001c28.667 18 54 37.333 76 58z" />
    <glyph glyph-name="uniFBAD" unicode="&#x6be;" horiz-adv-x="992" arabic-form="medial" 
d="M588 -345c0.666992 173.333 33.333 302.334 98 387.001s162 127 292 127h19c5.33301 -8.66699 8 -29.334 8 -62.001v-19c0 -38 -2.66699 -62.333 -8 -73h-21h-7h-5.5c-1.66699 0 -3.5 -0.166992 -5.5 -0.5s-4 -0.5 -6 -0.5h-6c-90.667 -8 -155.167 -51 -193.5 -129
s-51.5 -188.333 -39.5 -331l-110 -106c-212 104 -339.667 288.667 -383 554l-3 13h-12h-212c-14 0 -24.667 5.5 -32 16.5s-11 29.833 -11 56.5v19c0 23.333 3.5 39.5 10.5 48.5s17.833 13.5 32.5 13.5h199h14l1 14c13.333 282.667 66.333 474 159 574
c26 28 55 48.833 87 62.5s67 20.5 105 20.5c76.667 0 137.334 -27 182.001 -81c45.333 -54.667 67.666 -131.667 66.999 -231c-2 -128.667 -48.333 -246 -139 -352c-86.667 -102.667 -187 -156.667 -301 -162l-17 -1l3 -17c27.333 -162 98 -280 212 -354l23 -15v28z
M358.999 168.001c82.667 2 155.999 37.332 219.999 105.999c63.333 68 95 154.667 95 260c0 46 -9.66699 81.833 -29 107.5s-47.666 39.167 -84.999 40.5c-67.333 2 -118.333 -39.167 -153 -123.5s-55.667 -209.166 -63 -374.499l-1 -17z" />
    <glyph glyph-name="uniFBE8" unicode="&#x649;" horiz-adv-x="646" arabic-form="initial" 
d="M69 15l-76.001 0.000976562c-14 0 -24.667 5.5 -32 16.5s-11 29.833 -11 56.5v19c0 23.333 3.5 39.5 10.5 48.5s17.833 13.5 32.5 13.5h76c109.333 0 184 11.333 224 34c62 36 93 110 93 222c0 9.33301 -0.166992 19 -0.5 29s-0.833008 20 -1.5 30s-1.5 20.167 -2.5 30.5
s-2.33301 20.833 -4 31.5l-5 32.5c-1.66699 11 -3.5 22 -5.5 33s-4.16699 22.167 -6.5 33.5s-5.16602 22.666 -8.49902 33.999l135 34c29.333 -98 44 -193 44 -285c0 -158.667 -45 -271.667 -135 -339c-64.667 -49.333 -173.667 -74 -327 -74z" />
    <glyph glyph-name="uniFBE9" unicode="&#x649;" horiz-adv-x="717" arabic-form="medial" 
d="M730 88c0 -18.667 -0.834961 -34.499 -2.50195 -47.499s-3.5 -21.5 -5.5 -25.5h-7c-126 0 -212.333 44.333 -259 133l-12 22l-14 -20c-63.333 -90 -174.666 -135 -333.999 -135h-104c-9.33301 0 -16.833 2.16699 -22.5 6.5s-10.334 12 -14.001 23s-5.5 25.5 -5.5 43.5v19
c0 23.333 3.33301 39.5 10 48.5s17.334 13.5 32.001 13.5h99c162 0 252 48 270 144c4.66699 24.667 7 53.334 7 86.001c0 34 -1 66 -3 96l-5 67l135 16l15 -215c3.33301 -42.667 13.333 -78.334 30 -107.001s39.834 -50.334 69.501 -65.001s65.5 -22 107.5 -22h5
c5.33301 -10 8 -33.667 8 -71v-10z" />
    <glyph glyph-name="uniFBFC" unicode="&#x6cc;" horiz-adv-x="1524" arabic-form="isolated" 
d="M263 41c0 -125.333 41.1699 -219.835 123.503 -283.502s203.833 -95.834 364.5 -96.501c120.667 0 228.667 22.333 324 67c50.667 23.333 95 54.333 133 93c39.333 40.667 59 87 59 139c0 15.333 -4 28.5 -12 39.5s-18.833 19.167 -32.5 24.5s-29.834 8 -48.501 8l-114 1
c-53.333 0 -97.333 6.83301 -132 20.5s-60.334 34 -77.001 61s-25 61.167 -25 102.5c0 122 38.667 225.333 116 310c100 109.333 241.667 164 425 164h6v-163h-7c-36.667 0 -71.167 -2.83301 -103.5 -8.5s-62.666 -14 -90.999 -25s-54.5 -25.167 -78.5 -42.5
c-37.333 -26 -65.833 -55.5 -85.5 -88.5s-29.834 -68.833 -30.501 -107.5c0 -11.333 1.66699 -21.666 5 -30.999s8.66602 -17.333 15.999 -24c14 -11.333 35.333 -17 64 -17h119c76 0.666992 132 -14.166 168 -44.499s54 -76.833 54 -139.5
c0 -186.667 -93 -322.667 -279 -408c-110.667 -50.667 -236.667 -76 -378 -76c-211.333 0 -368.833 43.333 -472.5 130s-155.5 217.334 -155.5 392.001c0 138 44 308 132 510l131 -54c-78.667 -182 -118 -333 -118 -453z" />
    <glyph glyph-name="uniFBFD" unicode="&#x6cc;" horiz-adv-x="1523" arabic-form="final" 
d="M1527 169c2 -3.33301 3.83496 -10.498 5.50195 -21.498s2.5 -24.5 2.5 -40.5v-19c0 -38 -2.66699 -62.333 -8 -73h-140h-25h-43l34 -27c8.66699 -6.66699 16.167 -13.667 22.5 -21s11.666 -15.333 15.999 -24s7.5 -17.667 9.5 -27s3 -19 3 -29
c0 -48 -14.333 -93.333 -43 -136s-72.334 -83 -131.001 -121c-136 -88.667 -297.333 -133 -484 -133c-211.333 0 -368.833 41.667 -472.5 125s-155.5 209.333 -155.5 378c0 135.333 31.333 273.333 94 414l132 -54c-54 -139.333 -81 -255.333 -81 -348
c0 -122.667 40.833 -214.834 122.5 -276.501s201.5 -92.5 359.5 -92.5c119.333 0 227 22 323 66c78.667 35.333 135 79 169 131c17.333 26 26 51 26 75c0 59.333 -39.333 92.666 -118 99.999c-9.33301 0.666992 -19 1 -29 1h-152c-15.333 2 -28.5 9.5 -39.5 22.5
s-19.5 32.833 -25.5 59.5c-6.66699 27.333 -10 47 -10 59l1 12h637z" />
    <glyph glyph-name="uniFBFE" unicode="&#x6cc;" horiz-adv-x="682" arabic-form="initial" 
d="M69 15l-76.001 0.000976562c-14 0 -24.667 5.5 -32 16.5s-11 29.833 -11 56.5v19c0 23.333 3.5 39.5 10.5 48.5s17.833 13.5 32.5 13.5h76c109.333 0 184 11.333 224 34c62 36 93 110 93 222c0 9.33301 -0.166992 19 -0.5 29s-0.833008 20 -1.5 30s-1.5 20.167 -2.5 30.5
s-2.33301 20.833 -4 31.5l-5 32.5c-1.66699 11 -3.5 22 -5.5 33s-4.16699 22.167 -6.5 33.5s-5.16602 22.666 -8.49902 33.999l135 34c29.333 -98 44 -193 44 -285c0 -158.667 -45 -271.667 -135 -339c-64.667 -49.333 -173.667 -74 -327 -74zM314.934 -316.795
l133.743 133.743l134.813 -134.812l-133.743 -133.743zM-10.3301 -316.795l133.743 133.743l134.813 -134.812l-133.743 -133.743z" />
    <glyph glyph-name="uniFBFF" unicode="&#x6cc;" horiz-adv-x="717" arabic-form="medial" 
d="M314.935 -316.796l133.743 133.743l134.813 -134.812l-133.743 -133.743zM-10.3291 -316.796l133.743 133.743l134.813 -134.812l-133.743 -133.743zM730 88c0 -18.667 -0.834961 -34.499 -2.50195 -47.499s-3.5 -21.5 -5.5 -25.5h-7c-126 0 -212.333 44.333 -259 133
l-12 22l-14 -20c-63.333 -90 -174.666 -135 -333.999 -135h-104c-9.33301 0 -16.833 2.16699 -22.5 6.5s-10.334 12 -14.001 23s-5.5 25.5 -5.5 43.5v19c0 23.333 3.33301 39.5 10 48.5s17.334 13.5 32.001 13.5h99c162 0 252 48 270 144c4.66699 24.667 7 53.334 7 86.001
c0 34 -1 66 -3 96l-5 67l135 16l15 -215c3.33301 -42.667 13.333 -78.334 30 -107.001s39.834 -50.334 69.501 -65.001s65.5 -22 107.5 -22h5c5.33301 -10 8 -33.667 8 -71v-10z" />
    <glyph glyph-name="uniFDFC" unicode="&#xfdfc;" horiz-adv-x="3546" arabic-form="isolated" 
d="M1128 100l2.99707 1323h142l-1 -1124c0 -96 -3 -185.667 -9 -269c-6.66699 -90 -23.667 -168.5 -51 -235.5s-65.166 -122.667 -113.499 -167s-107.166 -77.5 -176.499 -99.5s-149.666 -33 -240.999 -33c-190 0 -331.5 45.167 -424.5 135.5
s-139.167 227.166 -138.5 410.499c0 33.333 1.66699 66.333 5 99s8.33301 65.334 15 98.001c13.333 63.333 32.333 126.333 57 189l131 -54c-42 -111.333 -63 -223 -63 -335c0 -130.667 35.333 -229.334 106 -296.001s175 -100 313 -100c98 0 180 17.167 246 51.5
s115.667 85.5 149 153.5s50.333 152.333 51 253zM3182 454.001c12.667 -30.667 23.833 -60.833 33.499 -90.5c9.66699 -29.667 17.834 -59 24.501 -88s11.5 -57.667 14.5 -86s4.5 -56.5 4.5 -84.5c0 -188 -55.833 -334.833 -167.5 -440.5s-280.167 -171.5 -505.5 -197.5
l-35 141c186 20.667 326.333 71.5 421 152.5s141.667 191.833 141 332.5c0 99.333 -24.333 203 -73 311zM2093 15.002l-76 0.000976562c-14 0 -24.667 5.5 -32 16.5s-11 29.833 -11 56.5v19c0 23.333 3.5 39.5 10.5 48.5s17.833 13.5 32.5 13.5h76
c109.333 0 184 11.333 224 34c62 36 93 110 93 222c0 9.33301 -0.166992 19 -0.5 29s-0.833008 20 -1.5 30s-1.5 20.167 -2.5 30.5s-2.33301 20.833 -4 31.5l-5 32.5c-1.66699 11 -3.5 22 -5.5 33s-4.16699 22.167 -6.5 33.5s-5.16602 22.666 -8.5 33.999l135 34
c29.333 -98 44 -193 44 -285c0 -158.667 -45 -271.667 -135 -339c-64.667 -49.333 -173.667 -74 -327 -74zM2180.93 -281.793l133.743 133.743l134.813 -134.812l-133.743 -133.743zM1855.67 -281.793l133.743 133.743l134.813 -134.812l-133.743 -133.743zM2017 88.0029
c0.666992 -38.667 -1.99805 -62.999 -7.99805 -72.999h-18c-125.333 0 -218.833 34.5 -280.5 103.5s-92.5 174.167 -92.5 315.5v989h144v-987c0 -57.333 8.66699 -106 26 -146s43.166 -70.167 77.499 -90.5s77.166 -30.5 128.499 -30.5h15
c5.33301 -8.66699 8 -29.334 8 -62.001v-19z" />
    <glyph glyph-name="uniFE71" unicode="&#xfe71;" horiz-adv-x="791" arabic-form="medial" 
d="M499 15c-12 0 -21.833 2.33301 -29.5 7s-13.5 12.334 -17.5 23.001s-6 25 -6 43v19c0 22.667 4.16699 38.667 12.5 48s21.833 14 40.5 14h299c5.33301 -8.66699 8 -29.334 8 -62.001v-19c0 -18.667 -0.833008 -34.5 -2.5 -47.5s-3.5 -21.5 -5.5 -25.5h-299zM241 15
c-12 0 -21.833 2.33301 -29.5 7s-13.5 12.334 -17.5 23.001s-6 25 -6 43v19c0 22.667 4.16699 38.667 12.5 48s21.833 14 40.5 14h299c5.33301 -8.66699 8 -29.334 8 -62.001v-19c0 -18.667 -0.833008 -34.5 -2.5 -47.5s-3.5 -21.5 -5.5 -25.5h-299zM-7 15
c-12 0 -21.833 2.33301 -29.5 7s-13.5 12.334 -17.5 23.001s-6 25 -6 43v19c0 22.667 4.16699 38.667 12.5 48s21.833 14 40.5 14h299c5.33301 -8.66699 8 -29.334 8 -62.001v-19c0 -18.667 -0.833008 -34.5 -2.5 -47.5s-3.5 -21.5 -5.5 -25.5h-299zM53 1088v87l441 180v-87
zM53 1300v87l441 180v-87z" />
    <glyph glyph-name="uniFE77" unicode="&#xfe77;" horiz-adv-x="791" arabic-form="medial" 
d="M499 15c-12 0 -21.833 2.33301 -29.5 7s-13.5 12.334 -17.5 23.001s-6 25 -6 43v19c0 22.667 4.16699 38.667 12.5 48s21.833 14 40.5 14h299c5.33301 -8.66699 8 -29.334 8 -62.001v-19c0 -18.667 -0.833008 -34.5 -2.5 -47.5s-3.5 -21.5 -5.5 -25.5h-299zM241 15
c-12 0 -21.833 2.33301 -29.5 7s-13.5 12.334 -17.5 23.001s-6 25 -6 43v19c0 22.667 4.16699 38.667 12.5 48s21.833 14 40.5 14h299c5.33301 -8.66699 8 -29.334 8 -62.001v-19c0 -18.667 -0.833008 -34.5 -2.5 -47.5s-3.5 -21.5 -5.5 -25.5h-299zM-7 15
c-12 0 -21.833 2.33301 -29.5 7s-13.5 12.334 -17.5 23.001s-6 25 -6 43v19c0 22.667 4.16699 38.667 12.5 48s21.833 14 40.5 14h299c5.33301 -8.66699 8 -29.334 8 -62.001v-19c0 -18.667 -0.833008 -34.5 -2.5 -47.5s-3.5 -21.5 -5.5 -25.5h-299zM23 1360v88l440 180v-88
z" />
    <glyph glyph-name="uniFE79" unicode="&#xfe79;" horiz-adv-x="791" arabic-form="medial" 
d="M499 15c-12 0 -21.833 2.33301 -29.5 7s-13.5 12.334 -17.5 23.001s-6 25 -6 43v19c0 22.667 4.16699 38.667 12.5 48s21.833 14 40.5 14h299c5.33301 -8.66699 8 -29.334 8 -62.001v-19c0 -18.667 -0.833008 -34.5 -2.5 -47.5s-3.5 -21.5 -5.5 -25.5h-299zM241 15
c-12 0 -21.833 2.33301 -29.5 7s-13.5 12.334 -17.5 23.001s-6 25 -6 43v19c0 22.667 4.16699 38.667 12.5 48s21.833 14 40.5 14h299c5.33301 -8.66699 8 -29.334 8 -62.001v-19c0 -18.667 -0.833008 -34.5 -2.5 -47.5s-3.5 -21.5 -5.5 -25.5h-299zM-7 15
c-12 0 -21.833 2.33301 -29.5 7s-13.5 12.334 -17.5 23.001s-6 25 -6 43v19c0 22.667 4.16699 38.667 12.5 48s21.833 14 40.5 14h299c5.33301 -8.66699 8 -29.334 8 -62.001v-19c0 -18.667 -0.833008 -34.5 -2.5 -47.5s-3.5 -21.5 -5.5 -25.5h-299zM524 1472
c-18.667 0 -35.333 0.333984 -50 1.00098s-28 1.66699 -40 3l-31 5h-5l-2 -4c-81.333 -114.667 -198.333 -176.667 -351 -186v63c123.333 6.66699 215.333 53 276 139l7 10l-12 2c-28 6 -57 17 -87 33c-54.667 30.667 -82 73 -82 127c0 41.333 11.333 75.666 34 102.999
c29.333 34.667 69.666 52 120.999 52c38.667 0 72.334 -11.333 101.001 -34c20.667 -16.667 35.667 -37 45 -61c6 -18 9 -38 9 -60c0 -37.333 -8.33301 -76 -25 -116l-4 -9l10 -1l20 -2c23.333 -2 45.333 -2.66699 66 -2v-63zM366.001 1557l5.99902 14
c14 32.667 21.333 63.667 22 93c-0.666992 30 -10 52.333 -28 67c-6 5.33301 -12.167 9.66602 -18.5 12.999s-13 6 -20 8s-14.167 3 -21.5 3c-32.667 0.666992 -58 -11 -76 -35c-12 -16 -18.333 -35.333 -19 -58c0.666992 -34.667 24.334 -62.667 71.001 -84
c15.333 -7.33301 40.333 -15.666 75 -24.999l6 -2z" />
    <glyph glyph-name="uniFE7B" unicode="&#xfe7b;" horiz-adv-x="791" arabic-form="medial" 
d="M499 15c-12 0 -21.833 2.33301 -29.5 7s-13.5 12.334 -17.5 23.001s-6 25 -6 43v19c0 22.667 4.16699 38.667 12.5 48s21.833 14 40.5 14h299c5.33301 -8.66699 8 -29.334 8 -62.001v-19c0 -18.667 -0.833008 -34.5 -2.5 -47.5s-3.5 -21.5 -5.5 -25.5h-299zM241 15
c-12 0 -21.833 2.33301 -29.5 7s-13.5 12.334 -17.5 23.001s-6 25 -6 43v19c0 22.667 4.16699 38.667 12.5 48s21.833 14 40.5 14h299c5.33301 -8.66699 8 -29.334 8 -62.001v-19c0 -18.667 -0.833008 -34.5 -2.5 -47.5s-3.5 -21.5 -5.5 -25.5h-299zM-7 15
c-12 0 -21.833 2.33301 -29.5 7s-13.5 12.334 -17.5 23.001s-6 25 -6 43v19c0 22.667 4.16699 38.667 12.5 48s21.833 14 40.5 14h299c5.33301 -8.66699 8 -29.334 8 -62.001v-19c0 -18.667 -0.833008 -34.5 -2.5 -47.5s-3.5 -21.5 -5.5 -25.5h-299zM69 -440v87l441 180v-87
z" />
    <glyph glyph-name="uniFE7D" unicode="&#xfe7d;" horiz-adv-x="791" arabic-form="medial" 
d="M499 15c-12 0 -21.833 2.33301 -29.5 7s-13.5 12.334 -17.5 23.001s-6 25 -6 43v19c0 22.667 4.16699 38.667 12.5 48s21.833 14 40.5 14h299c5.33301 -8.66699 8 -29.334 8 -62.001v-19c0 -18.667 -0.833008 -34.5 -2.5 -47.5s-3.5 -21.5 -5.5 -25.5h-299zM241 15
c-12 0 -21.833 2.33301 -29.5 7s-13.5 12.334 -17.5 23.001s-6 25 -6 43v19c0 22.667 4.16699 38.667 12.5 48s21.833 14 40.5 14h299c5.33301 -8.66699 8 -29.334 8 -62.001v-19c0 -18.667 -0.833008 -34.5 -2.5 -47.5s-3.5 -21.5 -5.5 -25.5h-299zM-7 15
c-12 0 -21.833 2.33301 -29.5 7s-13.5 12.334 -17.5 23.001s-6 25 -6 43v19c0 22.667 4.16699 38.667 12.5 48s21.833 14 40.5 14h299c5.33301 -8.66699 8 -29.334 8 -62.001v-19c0 -18.667 -0.833008 -34.5 -2.5 -47.5s-3.5 -21.5 -5.5 -25.5h-299zM320 1761
c0.666992 -13.333 1.1709 -25.999 1.50391 -37.999s0.5 -24.333 0.5 -37c0 -66.667 24.667 -99.667 74 -99c12.667 0 24 2.5 34 7.5s18.167 12 24.5 21s11.166 20.167 14.499 33.5s5 28.666 5 45.999c0 5.33301 -0.166992 11 -0.5 17s-1 12.5 -2 19.5s-2 14.5 -3 22.5
s-2.33301 16.333 -4 25l-5.5 28l74 11c10 -38 15 -75.667 15 -113c0 -22 -1.33301 -42.167 -4 -60.5s-6.5 -34.666 -11.5 -48.999s-11.333 -27 -19 -38s-16.667 -20 -27 -27s-21.833 -12.333 -34.5 -16s-27 -5.5 -43 -5.5c-40 0 -73.333 17 -100 51l-10 12l-3 -15
c-19.333 -74 -67.666 -111.333 -144.999 -112c-42.667 0.666992 -74.834 14.167 -96.501 40.5s-32.834 66.833 -33.501 121.5c-0.666992 36 3 69.333 11 100l63 -10c-5.33301 -28.667 -8 -54.334 -8 -77.001c0 -14.667 1.66699 -27.667 5 -39s8.16602 -20.833 14.499 -28.5
s14.166 -13.5 23.499 -17.5s20.333 -6.33301 33 -7c11.333 0 22 1.66699 32 5s18.667 8.33301 26 15s13.5 15 18.5 25s9 21.333 12 34s4.5 26.667 4.5 42c1.33301 32 2 69.333 2 112h62z" />
    <glyph glyph-name="uniFE7F" unicode="&#xfe7f;" horiz-adv-x="791" arabic-form="medial" 
d="M499 15c-12 0 -21.833 2.33301 -29.5 7s-13.5 12.334 -17.5 23.001s-6 25 -6 43v19c0 22.667 4.16699 38.667 12.5 48s21.833 14 40.5 14h299c5.33301 -8.66699 8 -29.334 8 -62.001v-19c0 -18.667 -0.833008 -34.5 -2.5 -47.5s-3.5 -21.5 -5.5 -25.5h-299zM241 15
c-12 0 -21.833 2.33301 -29.5 7s-13.5 12.334 -17.5 23.001s-6 25 -6 43v19c0 22.667 4.16699 38.667 12.5 48s21.833 14 40.5 14h299c5.33301 -8.66699 8 -29.334 8 -62.001v-19c0 -18.667 -0.833008 -34.5 -2.5 -47.5s-3.5 -21.5 -5.5 -25.5h-299zM-7 15
c-12 0 -21.833 2.33301 -29.5 7s-13.5 12.334 -17.5 23.001s-6 25 -6 43v19c0 22.667 4.16699 38.667 12.5 48s21.833 14 40.5 14h299c5.33301 -8.66699 8 -29.334 8 -62.001v-19c0 -18.667 -0.833008 -34.5 -2.5 -47.5s-3.5 -21.5 -5.5 -25.5h-299zM125 1461.5
c0 26.333 4.49902 50.667 13.499 73s22.5 42.5 40.5 60.5c36.667 36 81.167 54 133.5 54s96.833 -18 133.5 -54c18 -18 31.5 -38.167 40.5 -60.5s13.5 -46.5 13.5 -72.5c0 -13.333 -1.16699 -26 -3.5 -38s-5.66602 -23.667 -9.99902 -35s-10 -22 -17 -32
s-14.833 -19.667 -23.5 -29c-36.667 -36 -81.167 -54 -133.5 -54s-96.833 18 -133.5 54c-18 18.667 -31.5 39 -40.5 61s-13.5 46.167 -13.5 72.5zM195.999 1461c0 -33.333 11.667 -61.666 35 -84.999c22.667 -22.667 50.667 -34 84 -34s61.666 11.333 84.999 34
c11.333 11.333 19.833 24.166 25.5 38.499s8.5 29.833 8.5 46.5c0 33.333 -11.333 61.333 -34 84c-23.333 23.333 -51.666 35 -84.999 35s-61.333 -11.667 -84 -35c-23.333 -22.667 -35 -50.667 -35 -84z" />
    <glyph glyph-name="uniFE80" unicode="&#x621;" horiz-adv-x="868" arabic-form="isolated" 
d="M133 37l-0.00195312 145c70 44.667 132.667 75 188 91l36 11l-33 17c-114 59.333 -171 139.333 -171 240c0 21.333 1.5 41.833 4.5 61.5s7.33301 38.167 13 55.5s12.834 33.5 21.501 48.5s18.334 29.167 29.001 42.5c32.667 37.333 70.167 65.333 112.5 84
s89.5 28 141.5 28c26 0 50.667 -1.66699 74 -5s45 -8.33301 65 -15s38.333 -15 55 -25s32 -21.333 46 -34l-46 -111c-26 16 -54.167 28.167 -84.5 36.5s-62.833 12.5 -97.5 12.5c-62 -0.666992 -111.333 -18.667 -148 -54c-16.667 -16 -29.167 -34.5 -37.5 -55.5
s-12.5 -44.167 -12.5 -69.5c0 -34.667 15.333 -67.167 46 -97.5s75.667 -58.833 135 -85.5l5 -2l5 1l237 53l23 -141c-162.667 -22.667 -365 -100 -607 -232z" />
    <glyph glyph-name="uniFE81" unicode="&#x622;" horiz-adv-x="683" arabic-form="isolated" 
d="M264 1279.52h143v-1265.13h-143v1265.13zM253 1496c-14.667 2 -29.3311 2.50293 -43.998 1.50293s-28.834 -3.83301 -42.501 -8.5s-27.334 -10.834 -41.001 -18.501s-26.834 -16.834 -39.501 -27.501s-25 -23 -37 -37l-92 96c76.667 107.333 169.334 152.333 278.001 135
l148 -24c64.667 -10.667 137.334 3.66602 218.001 42.999l59 -124c-82.667 -50 -171.334 -68.333 -266.001 -55z" />
    <glyph glyph-name="uniFE82" unicode="&#x622;" horiz-adv-x="571" arabic-form="final" 
d="M253 1496c-14.667 2 -29.3311 2.50293 -43.998 1.50293s-28.834 -3.83301 -42.501 -8.5s-27.334 -10.834 -41.001 -18.501s-26.834 -16.834 -39.501 -27.501s-25 -23 -37 -37l-92 96c76.667 107.333 169.334 152.333 278.001 135l148 -24
c64.667 -10.667 137.334 3.66602 218.001 42.999l59 -124c-82.667 -50 -171.334 -68.333 -266.001 -55zM574.003 88.0029c0.666992 -38.667 -1.99805 -62.999 -7.99805 -72.999h-18c-125.333 0 -218.833 34.5 -280.5 103.5s-92.5 174.167 -92.5 315.5v779h144v-777
c0 -57.333 8.66699 -106 26 -146s43.166 -70.167 77.499 -90.5s77.166 -30.5 128.499 -30.5h15c5.33301 -8.66699 8 -29.334 8 -62.001v-19z" />
    <glyph glyph-name="uniFE83" unicode="&#x623;" horiz-adv-x="487" arabic-form="isolated" 
d="M181 1217.51h143v-1201.84h-143v1201.84zM128 1459c-47.333 36.667 -71.002 88.333 -71.002 155c0 56.667 19 105 57 145c22.667 23.333 48.334 41 77.001 53c28 12 59.667 18 95 18c46.667 0 91 -13.333 133 -40l1 -113c-39.333 23.333 -79.333 35 -120 35
c-8.66699 0 -17 -0.666992 -25 -2c-8 -0.666992 -15.667 -2 -23 -4s-14 -4.33301 -20 -7c-6.66699 -3.33301 -12.667 -7 -18 -11c-6 -3.33301 -11.333 -7.66602 -16 -12.999c-20.667 -20.667 -30.667 -45.334 -30 -74.001c0 -6.66699 1 -13 3 -19
c1.33301 -6 3.33301 -11.667 6 -17s6.33398 -10.333 11.001 -15c4 -5.33301 8.66699 -10.333 14 -15s11.333 -9 18 -13s14 -8 22 -12l25 -10c10 -4 19.333 -5 28 -3l131 25v-110l-391 -94v107l90 21l16 4z" />
    <glyph glyph-name="uniFE84" unicode="&#x623;" horiz-adv-x="571" arabic-form="final" 
d="M138 1459c-47.333 36.667 -71.002 88.333 -71.002 155c0 56.667 19 105 57 145c22.667 23.333 48.334 41 77.001 53c28 12 59.667 18 95 18c46.667 0 91 -13.333 133 -40l1 -113c-39.333 23.333 -79.333 35 -120 35c-8.66699 0 -17 -0.666992 -25 -2
c-8 -0.666992 -15.667 -2 -23 -4s-14 -4.33301 -20 -7c-6.66699 -3.33301 -12.667 -7 -18 -11c-6 -3.33301 -11.333 -7.66602 -16 -12.999c-20.667 -20.667 -30.667 -45.334 -30 -74.001c0 -6.66699 1 -13 3 -19c1.33301 -6 3.33301 -11.667 6 -17
s6.33398 -10.333 11.001 -15c4 -5.33301 8.66699 -10.333 14 -15s11.333 -9 18 -13s14 -8 22 -12l25 -10c10 -4 19.333 -5 28 -3l131 25v-110l-391 -94v107l90 21l16 4zM573.998 87.999c0.666992 -38.667 -1.99805 -62.999 -7.99805 -72.999h-18
c-125.333 0 -218.833 34.5 -280.5 103.5s-92.5 174.167 -92.5 315.5v779h144v-777c0 -57.333 8.66699 -106 26 -146s43.166 -70.167 77.499 -90.5s77.166 -30.5 128.499 -30.5h15c5.33301 -8.66699 8 -29.334 8 -62.001v-19z" />
    <glyph glyph-name="uniFE85" unicode="&#x624;" horiz-adv-x="900" arabic-form="isolated" 
d="M336 986c-47.333 36.667 -71.002 88.333 -71.002 155c0 56.667 19 105 57 145c22.667 23.333 48.334 41 77.001 53c28 12 59.667 18 95 18c46.667 0 91 -13.333 133 -40l1 -113c-39.333 23.333 -79.333 35 -120 35c-8.66699 0 -17 -0.666992 -25 -2
c-8 -0.666992 -15.667 -2 -23 -4s-14 -4.33301 -20 -7c-6.66699 -3.33301 -12.667 -7 -18 -11c-6 -3.33301 -11.333 -7.66602 -16 -12.999c-20.667 -20.667 -30.667 -45.334 -30 -74.001c0 -6.66699 1 -13 3 -19c1.33301 -6 3.33301 -11.667 6 -17
s6.33398 -10.333 11.001 -15c4 -5.33301 8.66699 -10.333 14 -15s11.333 -9 18 -13s14 -8 22 -12l25 -10c10 -4 19.333 -5 28 -3l131 25v-110l-391 -94v107l90 21l16 4zM645.998 202.999c-7.33301 113.333 -28.1689 199.499 -62.502 258.499s-83.166 88.5 -146.499 88.5
c-71.333 0 -121.666 -43.333 -150.999 -130c-12.667 -38 -19 -73.667 -19 -107c0 -50.667 18.333 -88.667 55 -114s89 -38 157 -38c50 0.666992 102 9.33398 156 26.001l11 4v12zM477.995 12.998c-118.667 0 -206.667 23.499 -264 70.499s-86 118.5 -86 214.5
c0 78.667 16.667 153 50 223c20.667 42 44.334 77 71.001 105s56.667 48.833 90 62.5s70 20.5 110 20.5c129.333 0 222 -73 278 -219c40 -104 59.667 -220.667 59 -350c-2.66699 -327.333 -183.667 -526 -543 -596c-38 -7.33301 -77.333 -13.333 -118 -18l-36 141
c311.333 35.333 495.333 149.333 552 342l6 22l-23 -3c-12.667 -2 -24.834 -3.66699 -36.501 -5s-22.5 -2.5 -32.5 -3.5s-19 -2 -27 -3s-15.167 -1.66699 -21.5 -2s-12 -0.666016 -17 -0.999023s-8.83301 -0.5 -11.5 -0.5z" />
    <glyph glyph-name="uniFE86" unicode="&#x624;" horiz-adv-x="893" arabic-form="final" 
d="M646 185c-16 242.667 -85.335 364.333 -208.002 365c-35.333 0.666992 -65.666 -10.166 -90.999 -32.499s-45.666 -54.833 -60.999 -97.5c-12.667 -36.667 -19 -72.334 -19 -107.001c0 -48 17.5 -84 52.5 -108s84.833 -36 149.5 -36h162h16zM797.998 167.999
l99.9971 0.000976562c5.33301 -10 8 -33.333 8 -70v-10c0 -38 -2.66699 -62.333 -8 -73l-109 1h-13l-2 -12c-48 -276.667 -264 -436 -648 -478l-36 142c312.667 37.333 495.667 146.666 549 327.999l6 19h-20h-146c-119.333 0 -207.666 23.5 -264.999 70.5
s-86 117.833 -86 212.5c0 78.667 16.667 153 50 223c30.667 63.333 68.334 110.5 113.001 141.5s97.334 46.5 158.001 46.5c192.667 0 304 -175.667 334 -527l1 -14h14zM335.995 986c-47.333 36.667 -71.002 88.333 -71.002 155c0 56.667 19 105 57 145
c22.667 23.333 48.334 41 77.001 53c28 12 59.667 18 95 18c46.667 0 91 -13.333 133 -40l1 -113c-39.333 23.333 -79.333 35 -120 35c-8.66699 0 -17 -0.666992 -25 -2c-8 -0.666992 -15.667 -2 -23 -4s-14 -4.33301 -20 -7c-6.66699 -3.33301 -12.667 -7 -18 -11
c-6 -3.33301 -11.333 -7.66602 -16 -12.999c-20.667 -20.667 -30.667 -45.334 -30 -74.001c0 -6.66699 1 -13 3 -19c1.33301 -6 3.33301 -11.667 6 -17s6.33398 -10.333 11.001 -15c4 -5.33301 8.66699 -10.333 14 -15s11.333 -9 18 -13s14 -8 22 -12l25 -10
c10 -4 19.333 -5 28 -3l131 25v-110l-391 -94v107l90 21l16 4z" />
    <glyph glyph-name="uniFE87" unicode="&#x625;" horiz-adv-x="487" arabic-form="isolated" 
d="M133 -505c-47.333 36.667 -71.002 88.333 -71.002 155c0 56.667 19 105 57 145c22.667 23.333 48.334 41 77.001 53c28 12 59.667 18 95 18c46.667 0 91 -13.333 133 -40l1 -113c-39.333 23.333 -79.333 35 -120 35c-8.66699 0 -17 -0.666992 -25 -2
c-8 -0.666992 -15.667 -2 -23 -4s-14 -4.33301 -20 -7c-6.66699 -3.33301 -12.667 -7 -18 -11c-6 -3.33301 -11.333 -7.66602 -16 -12.999c-20.667 -20.667 -30.667 -45.334 -30 -74.001c0 -6.66699 1 -13 3 -19c1.33301 -6 3.33301 -11.667 6 -17
s6.33398 -10.333 11.001 -15c4 -5.33301 8.66699 -10.333 14 -15s11.333 -9 18 -13s14 -8 22 -12l25 -10c10 -4 19.333 -5 28 -3l131 25v-110l-391 -94v107l90 21l16 4zM175.998 1423h143v-1407h-143v1407z" />
    <glyph glyph-name="uniFE88" unicode="&#x625;" horiz-adv-x="561" arabic-form="final" 
d="M574 88c0.666992 -38.667 -1.99805 -62.999 -7.99805 -72.999h-18c-125.333 0 -218.833 34.5 -280.5 103.5s-92.5 174.167 -92.5 315.5v989h144v-987c0 -57.333 8.66699 -106 26 -146s43.166 -70.167 77.499 -90.5s77.166 -30.5 128.499 -30.5h15
c5.33301 -8.66699 8 -29.334 8 -62.001v-19zM202.002 -498.999c-47.333 36.667 -71.002 88.333 -71.002 155c0 56.667 19 105 57 145c22.667 23.333 48.334 41 77.001 53c28 12 59.667 18 95 18c46.667 0 91 -13.333 133 -40l1 -113c-39.333 23.333 -79.333 35 -120 35
c-8.66699 0 -17 -0.666992 -25 -2c-8 -0.666992 -15.667 -2 -23 -4s-14 -4.33301 -20 -7c-6.66699 -3.33301 -12.667 -7 -18 -11c-6 -3.33301 -11.333 -7.66602 -16 -12.999c-20.667 -20.667 -30.667 -45.334 -30 -74.001c0 -6.66699 1 -13 3 -19
c1.33301 -6 3.33301 -11.667 6 -17s6.33398 -10.333 11.001 -15c4 -5.33301 8.66699 -10.333 14 -15s11.333 -9 18 -13s14 -8 22 -12l25 -10c10 -4 19.333 -5 28 -3l131 25v-110l-391 -94v107l90 21l16 4z" />
    <glyph glyph-name="uniFE89" unicode="&#x626;" horiz-adv-x="1524" arabic-form="isolated" 
d="M388 782c-47.333 36.667 -71.002 88.333 -71.002 155c0 56.667 19 105 57 145c22.667 23.333 48.334 41 77.001 53c28 12 59.667 18 95 18c46.667 0 91 -13.333 133 -40l1 -113c-39.333 23.333 -79.333 35 -120 35c-8.66699 0 -17 -0.666992 -25 -2
c-8 -0.666992 -15.667 -2 -23 -4s-14 -4.33301 -20 -7c-6.66699 -3.33301 -12.667 -7 -18 -11c-6 -3.33301 -11.333 -7.66602 -16 -12.999c-20.667 -20.667 -30.667 -45.334 -30 -74.001c0 -6.66699 1 -13 3 -19c1.33301 -6 3.33301 -11.667 6 -17
s6.33398 -10.333 11.001 -15c4 -5.33301 8.66699 -10.333 14 -15s11.333 -9 18 -13s14 -8 22 -12l25 -10c10 -4 19.333 -5 28 -3l131 25v-110l-391 -94v107l90 21l16 4zM262.998 40.999c0 -125.333 41.1699 -219.835 123.503 -283.502s203.833 -95.834 364.5 -96.501
c120.667 0 228.667 22.333 324 67c50.667 23.333 95 54.333 133 93c39.333 40.667 59 87 59 139c0 15.333 -4 28.5 -12 39.5s-18.833 19.167 -32.5 24.5s-29.834 8 -48.501 8l-114 1c-53.333 0 -97.333 6.83301 -132 20.5s-60.334 34 -77.001 61s-25 61.167 -25 102.5
c0 122 38.667 225.333 116 310c100 109.333 241.667 164 425 164h6v-163h-7c-36.667 0 -71.167 -2.83301 -103.5 -8.5s-62.666 -14 -90.999 -25s-54.5 -25.167 -78.5 -42.5c-37.333 -26 -65.833 -55.5 -85.5 -88.5s-29.834 -68.833 -30.501 -107.5
c0 -11.333 1.66699 -21.666 5 -30.999s8.66602 -17.333 15.999 -24c14 -11.333 35.333 -17 64 -17h119c76 0.666992 132 -14.166 168 -44.499s54 -76.833 54 -139.5c0 -186.667 -93 -322.667 -279 -408c-110.667 -50.667 -236.667 -76 -378 -76
c-211.333 0 -368.833 43.333 -472.5 130s-155.5 217.334 -155.5 392.001c0 138 44 308 132 510l131 -54c-78.667 -182 -118 -333 -118 -453z" />
    <glyph glyph-name="uniFE8A" unicode="&#x626;" horiz-adv-x="1523" arabic-form="final" 
d="M1527 169c2 -3.33301 3.83496 -10.498 5.50195 -21.498s2.5 -24.5 2.5 -40.5v-19c0 -38 -2.66699 -62.333 -8 -73h-140h-25h-43l34 -27c8.66699 -6.66699 16.167 -13.667 22.5 -21s11.666 -15.333 15.999 -24s7.5 -17.667 9.5 -27s3 -19 3 -29
c0 -48 -14.333 -93.333 -43 -136s-72.334 -83 -131.001 -121c-136 -88.667 -297.333 -133 -484 -133c-211.333 0 -368.833 41.667 -472.5 125s-155.5 209.333 -155.5 378c0 135.333 31.333 273.333 94 414l132 -54c-54 -139.333 -81 -255.333 -81 -348
c0 -122.667 40.833 -214.834 122.5 -276.501s201.5 -92.5 359.5 -92.5c119.333 0 227 22 323 66c78.667 35.333 135 79 169 131c17.333 26 26 51 26 75c0 59.333 -39.333 92.666 -118 99.999c-9.33301 0.666992 -19 1 -29 1h-152c-15.333 2 -28.5 9.5 -39.5 22.5
s-19.5 32.833 -25.5 59.5c-6.66699 27.333 -10 47 -10 59l1 12h637zM509.002 601.002c-47.333 36.667 -71.002 88.333 -71.002 155c0 56.667 19 105 57 145c22.667 23.333 48.334 41 77.001 53c28 12 59.667 18 95 18c46.667 0 91 -13.333 133 -40l1 -113
c-39.333 23.333 -79.333 35 -120 35c-8.66699 0 -17 -0.666992 -25 -2c-8 -0.666992 -15.667 -2 -23 -4s-14 -4.33301 -20 -7c-6.66699 -3.33301 -12.667 -7 -18 -11c-6 -3.33301 -11.333 -7.66602 -16 -12.999c-20.667 -20.667 -30.667 -45.334 -30 -74.001
c0 -6.66699 1 -13 3 -19c1.33301 -6 3.33301 -11.667 6 -17s6.33398 -10.333 11.001 -15c4 -5.33301 8.66699 -10.333 14 -15s11.333 -9 18 -13s14 -8 22 -12l25 -10c10 -4 19.333 -5 28 -3l131 25v-110l-391 -94v107l90 21l16 4z" />
    <glyph glyph-name="uniFE8B" unicode="&#x626;" horiz-adv-x="646" arabic-form="initial" 
d="M69 15l-76.001 0.000976562c-14 0 -24.667 5.5 -32 16.5s-11 29.833 -11 56.5v19c0 23.333 3.5 39.5 10.5 48.5s17.833 13.5 32.5 13.5h76c109.333 0 184 11.333 224 34c62 36 93 110 93 222c0 9.33301 -0.166992 19 -0.5 29s-0.833008 20 -1.5 30s-1.5 20.167 -2.5 30.5
s-2.33301 20.833 -4 31.5l-5 32.5c-1.66699 11 -3.5 22 -5.5 33s-4.16699 22.167 -6.5 33.5s-5.16602 22.666 -8.49902 33.999l135 34c29.333 -98 44 -193 44 -285c0 -158.667 -45 -271.667 -135 -339c-64.667 -49.333 -173.667 -74 -327 -74zM186.999 968.001
c-47.333 36.667 -71.002 88.333 -71.002 155c0 56.667 19 105 57 145c22.667 23.333 48.334 41 77.001 53c28 12 59.667 18 95 18c46.667 0 91 -13.333 133 -40l1 -113c-39.333 23.333 -79.333 35 -120 35c-8.66699 0 -17 -0.666992 -25 -2c-8 -0.666992 -15.667 -2 -23 -4
s-14 -4.33301 -20 -7c-6.66699 -3.33301 -12.667 -7 -18 -11c-6 -3.33301 -11.333 -7.66602 -16 -12.999c-20.667 -20.667 -30.667 -45.334 -30 -74.001c0 -6.66699 1 -13 3 -19c1.33301 -6 3.33301 -11.667 6 -17s6.33398 -10.333 11.001 -15
c4 -5.33301 8.66699 -10.333 14 -15s11.333 -9 18 -13s14 -8 22 -12l25 -10c10 -4 19.333 -5 28 -3l131 25v-110l-391 -94v107l90 21l16 4z" />
    <glyph glyph-name="uniFE8C" unicode="&#x626;" horiz-adv-x="717" arabic-form="medial" 
d="M730 88c0 -18.667 -0.834961 -34.499 -2.50195 -47.499s-3.5 -21.5 -5.5 -25.5h-7c-126 0 -212.333 44.333 -259 133l-12 22l-14 -20c-63.333 -90 -174.666 -135 -333.999 -135h-104c-9.33301 0 -16.833 2.16699 -22.5 6.5s-10.334 12 -14.001 23s-5.5 25.5 -5.5 43.5v19
c0 23.333 3.33301 39.5 10 48.5s17.334 13.5 32.001 13.5h99c162 0 252 48 270 144c4.66699 24.667 7 53.334 7 86.001c0 34 -1 66 -3 96l-5 67l135 16l15 -215c3.33301 -42.667 13.333 -78.334 30 -107.001s39.834 -50.334 69.501 -65.001s65.5 -22 107.5 -22h5
c5.33301 -10 8 -33.667 8 -71v-10zM213.998 862.001c-47.333 36.667 -71.002 88.333 -71.002 155c0 56.667 19 105 57 145c22.667 23.333 48.334 41 77.001 53c28 12 59.667 18 95 18c46.667 0 91 -13.333 133 -40l1 -113c-39.333 23.333 -79.333 35 -120 35
c-8.66699 0 -17 -0.666992 -25 -2c-8 -0.666992 -15.667 -2 -23 -4s-14 -4.33301 -20 -7c-6.66699 -3.33301 -12.667 -7 -18 -11c-6 -3.33301 -11.333 -7.66602 -16 -12.999c-20.667 -20.667 -30.667 -45.334 -30 -74.001c0 -6.66699 1 -13 3 -19
c1.33301 -6 3.33301 -11.667 6 -17s6.33398 -10.333 11.001 -15c4 -5.33301 8.66699 -10.333 14 -15s11.333 -9 18 -13s14 -8 22 -12l25 -10c10 -4 19.333 -5 28 -3l131 25v-110l-391 -94v107l90 21l16 4z" />
    <glyph glyph-name="uniFE8D" unicode="&#x627;" horiz-adv-x="487" arabic-form="isolated" 
d="M176 1423h143v-1407h-143v1407z" />
    <glyph glyph-name="uniFE8E" unicode="&#x627;" horiz-adv-x="561" arabic-form="final" 
d="M574 88c0.666992 -38.667 -1.99805 -62.999 -7.99805 -72.999h-18c-125.333 0 -218.833 34.5 -280.5 103.5s-92.5 174.167 -92.5 315.5v989h144v-987c0 -57.333 8.66699 -106 26 -146s43.166 -70.167 77.499 -90.5s77.166 -30.5 128.499 -30.5h15
c5.33301 -8.66699 8 -29.334 8 -62.001v-19z" />
    <glyph glyph-name="uniFE8F" unicode="&#x628;" horiz-adv-x="1837" arabic-form="isolated" 
d="M891 15c-261.333 0 -455.999 39.333 -583.999 118s-192 196.334 -192 353.001c0 82.667 15.667 161.667 47 237l131 -57c-19.333 -52.667 -29 -103.334 -29 -152.001c0 -230 202.667 -345 608 -345c337.333 0 550.666 33 639.999 99c47.333 34 71 93 71 177
c0 58 -11 136.333 -33 235l135 34c30 -94 45 -178.667 45 -254c0 -152.667 -44 -259.667 -132 -321c-118 -82.667 -352.667 -124 -704 -124h-3zM803.973 -316.796l133.743 133.743l134.813 -134.812l-133.743 -133.743z" />
    <glyph glyph-name="uniFE90" unicode="&#x628;" horiz-adv-x="1931" arabic-form="final" 
d="M890 15c-261.333 0 -455.997 39.3311 -583.997 117.998s-192 196.334 -192 353.001c0 82.667 15.667 161.667 47 237l131 -57c-19.333 -53.333 -29 -104.333 -29 -153c0 -229.333 207.333 -344 622 -344c350.667 0 568.667 45 654 135c25.333 26.667 38 70.667 38 132
c0 23.333 -0.666992 42.666 -2 57.999l-4 67l135 16l15 -199c4 -60 21.667 -109.667 53 -149c32 -40 82.667 -60 152 -60h11c2 -3.33301 3.66699 -10.5 5 -21.5s2 -24.5 2 -40.5v-19c0 -38 -2.66699 -62.333 -8 -73h-10c-134.667 0 -230.334 56.333 -287.001 169l-9 19
l-15 -16c-35.333 -37.333 -85.333 -68.666 -150 -93.999s-144.834 -44.666 -240.501 -57.999s-205.834 -20 -330.501 -20h-4zM773.975 -316.798l133.743 133.743l134.813 -134.812l-133.743 -133.743z" />
    <glyph glyph-name="uniFE91" unicode="&#x628;" horiz-adv-x="646" arabic-form="initial" 
d="M69 15l-76.001 0.000976562c-14 0 -24.667 5.5 -32 16.5s-11 29.833 -11 56.5v19c0 23.333 3.5 39.5 10.5 48.5s17.833 13.5 32.5 13.5h76c109.333 0 184 11.333 224 34c62 36 93 110 93 222c0 9.33301 -0.166992 19 -0.5 29s-0.833008 20 -1.5 30s-1.5 20.167 -2.5 30.5
s-2.33301 20.833 -4 31.5l-5 32.5c-1.66699 11 -3.5 22 -5.5 33s-4.16699 22.167 -6.5 33.5s-5.16602 22.666 -8.49902 33.999l135 34c29.333 -98 44 -193 44 -285c0 -158.667 -45 -271.667 -135 -339c-64.667 -49.333 -173.667 -74 -327 -74zM133.971 -316.795
l133.743 133.743l134.813 -134.812l-133.743 -133.743z" />
    <glyph glyph-name="uniFE92" unicode="&#x628;" horiz-adv-x="717" arabic-form="medial" 
d="M730 88c0 -18.667 -0.834961 -34.499 -2.50195 -47.499s-3.5 -21.5 -5.5 -25.5h-7c-126 0 -212.333 44.333 -259 133l-12 22l-14 -20c-63.333 -90 -174.666 -135 -333.999 -135h-104c-9.33301 0 -16.833 2.16699 -22.5 6.5s-10.334 12 -14.001 23s-5.5 25.5 -5.5 43.5v19
c0 23.333 3.33301 39.5 10 48.5s17.334 13.5 32.001 13.5h99c162 0 252 48 270 144c4.66699 24.667 7 53.334 7 86.001c0 34 -1 66 -3 96l-5 67l135 16l15 -215c3.33301 -42.667 13.333 -78.334 30 -107.001s39.834 -50.334 69.501 -65.001s65.5 -22 107.5 -22h5
c5.33301 -10 8 -33.667 8 -71v-10zM172.97 -316.795l133.743 133.743l134.813 -134.812l-133.743 -133.743z" />
    <glyph glyph-name="uniFE93" unicode="&#x629;" horiz-adv-x="942" arabic-form="isolated" 
d="M452 655c-130 -113.333 -195 -214.665 -195 -303.998c0 -24 3 -45.667 9 -65s15 -36.333 27 -51s26.833 -26.834 44.5 -36.501s38 -17 61 -22s48.5 -7.5 76.5 -7.5c72 0 126.833 15.5 164.5 46.5s56.167 76.5 55.5 136.5c0 83.333 -74.667 184.666 -224 303.999l-10 8z
M396 935.001c293.333 -216 440.002 -412.332 440.002 -588.999c0 -120.667 -52.667 -213.667 -158 -279c-24.667 -15.333 -53.834 -27 -87.501 -35s-71.834 -12.333 -114.501 -13c-78 0 -144.667 13.667 -200 41c-106.667 53.333 -160 148.666 -160 285.999
c0 133.333 77.333 275.333 232 426l12 11l-12 11l-35 30zM493.937 1260.21l133.743 133.743l134.813 -134.812l-133.743 -133.743zM168.673 1260.21l133.743 133.743l134.813 -134.812l-133.743 -133.743z" />
    <glyph glyph-name="uniFE94" unicode="&#x629;" horiz-adv-x="1063" arabic-form="final" 
d="M126 406c0 188.667 169.335 334.997 508.002 438.997l13 4l-2 13l-6 31l132 28l80 -576c5.33301 -38 16.5 -70.167 33.5 -96.5s39.5 -46.166 67.5 -59.499s61.333 -20 100 -20h18c4.66699 -8 7 -27 7 -57v-24c0 -18.667 -0.833008 -34.5 -2.5 -47.5
s-3.5 -21.5 -5.5 -25.5h-21c-88.667 0 -158.334 17.833 -209.001 53.5s-84 89.5 -100 161.5l-5 25l-19 -17c-26 -22.667 -52.833 -41.5 -80.5 -56.5s-56.334 -26.167 -86.001 -33.5s-60.5 -11 -92.5 -11c-143.333 0 -242.666 46.333 -297.999 139
c-4 6.66699 -7.66699 13.834 -11 21.501s-6.33301 15.667 -9 24s-4.83398 17 -6.50098 26s-3 18.333 -4 28s-1.5 19.834 -1.5 30.501zM646.002 706.997c-123.333 -44.667 -216.166 -90.668 -278.499 -138.001s-93.5 -97.666 -93.5 -150.999
c0 -45.333 15.167 -79.5 45.5 -102.5s73.833 -34.5 130.5 -34.5c26.667 0 53.667 4.16699 81 12.5s54.333 20.5 81 36.5c69.333 42.667 96.666 111 81.999 205l-20 133l-5 28l-2 18l-18 -6zM622.937 1224.2l133.743 133.743l134.813 -134.812l-133.743 -133.743z
M297.673 1224.2l133.743 133.743l134.813 -134.812l-133.743 -133.743z" />
    <glyph glyph-name="uniFE95" unicode="&#x62a;" horiz-adv-x="1837" arabic-form="isolated" 
d="M891 15c-261.333 0 -455.999 39.333 -583.999 118s-192 196.334 -192 353.001c0 82.667 15.667 161.667 47 237l131 -57c-19.333 -52.667 -29 -103.334 -29 -152.001c0 -230 202.667 -345 608 -345c337.333 0 550.666 33 639.999 99c47.333 34 71 93 71 177
c0 58 -11 136.333 -33 235l135 34c30 -94 45 -178.667 45 -254c0 -152.667 -44 -259.667 -132 -321c-118 -82.667 -352.667 -124 -704 -124h-3zM948.936 942.204l133.743 133.743l134.813 -134.812l-133.743 -133.743zM623.672 942.204l133.743 133.743l134.813 -134.812
l-133.743 -133.743z" />
    <glyph glyph-name="uniFE96" unicode="&#x62a;" horiz-adv-x="1931" arabic-form="final" 
d="M890 15c-261.333 0 -455.997 39.3311 -583.997 117.998s-192 196.334 -192 353.001c0 82.667 15.667 161.667 47 237l131 -57c-19.333 -53.333 -29 -104.333 -29 -153c0 -229.333 207.333 -344 622 -344c350.667 0 568.667 45 654 135c25.333 26.667 38 70.667 38 132
c0 23.333 -0.666992 42.666 -2 57.999l-4 67l135 16l15 -199c4 -60 21.667 -109.667 53 -149c32 -40 82.667 -60 152 -60h11c2 -3.33301 3.66699 -10.5 5 -21.5s2 -24.5 2 -40.5v-19c0 -38 -2.66699 -62.333 -8 -73h-10c-134.667 0 -230.334 56.333 -287.001 169l-9 19
l-15 -16c-35.333 -37.333 -85.333 -68.666 -150 -93.999s-144.834 -44.666 -240.501 -57.999s-205.834 -20 -330.501 -20h-4zM971.938 942.202l133.743 133.743l134.813 -134.812l-133.743 -133.743zM646.674 942.202l133.743 133.743l134.813 -134.812l-133.743 -133.743z
" />
    <glyph glyph-name="uniFE97" unicode="&#x62a;" horiz-adv-x="709" arabic-form="initial" 
d="M69 15l-76.001 0.000976562c-14 0 -24.667 5.5 -32 16.5s-11 29.833 -11 56.5v19c0 23.333 3.5 39.5 10.5 48.5s17.833 13.5 32.5 13.5h76c109.333 0 184 11.333 224 34c62 36 93 110 93 222c0 9.33301 -0.166992 19 -0.5 29s-0.833008 20 -1.5 30s-1.5 20.167 -2.5 30.5
s-2.33301 20.833 -4 31.5l-5 32.5c-1.66699 11 -3.5 22 -5.5 33s-4.16699 22.167 -6.5 33.5s-5.16602 22.666 -8.49902 33.999l135 34c29.333 -98 44 -193 44 -285c0 -158.667 -45 -271.667 -135 -339c-64.667 -49.333 -173.667 -74 -327 -74zM330.934 1045.21
l133.743 133.743l134.813 -134.812l-133.743 -133.743zM5.66992 1045.21l133.743 133.743l134.813 -134.812l-133.743 -133.743z" />
    <glyph glyph-name="uniFE98" unicode="&#x62a;" horiz-adv-x="717" arabic-form="medial" 
d="M730 88c0 -18.667 -0.834961 -34.499 -2.50195 -47.499s-3.5 -21.5 -5.5 -25.5h-7c-126 0 -212.333 44.333 -259 133l-12 22l-14 -20c-63.333 -90 -174.666 -135 -333.999 -135h-104c-9.33301 0 -16.833 2.16699 -22.5 6.5s-10.334 12 -14.001 23s-5.5 25.5 -5.5 43.5v19
c0 23.333 3.33301 39.5 10 48.5s17.334 13.5 32.001 13.5h99c162 0 252 48 270 144c4.66699 24.667 7 53.334 7 86.001c0 34 -1 66 -3 96l-5 67l135 16l15 -215c3.33301 -42.667 13.333 -78.334 30 -107.001s39.834 -50.334 69.501 -65.001s65.5 -22 107.5 -22h5
c5.33301 -10 8 -33.667 8 -71v-10zM327.933 962.205l133.743 133.743l134.813 -134.812l-133.743 -133.743zM2.66895 962.205l133.743 133.743l134.813 -134.812l-133.743 -133.743z" />
    <glyph glyph-name="uniFE99" unicode="&#x62b;" horiz-adv-x="1837" arabic-form="isolated" 
d="M891 15c-261.333 0 -455.999 39.333 -583.999 118s-192 196.334 -192 353.001c0 82.667 15.667 161.667 47 237l131 -57c-19.333 -52.667 -29 -103.334 -29 -152.001c0 -230 202.667 -345 608 -345c337.333 0 550.666 33 639.999 99c47.333 34 71 93 71 177
c0 58 -11 136.333 -33 235l135 34c30 -94 45 -178.667 45 -254c0 -152.667 -44 -259.667 -132 -321c-118 -82.667 -352.667 -124 -704 -124h-3zM787.374 1148.43l130.533 130.534l131.604 -131.604l-130.533 -130.534zM952.146 879.875l130.533 130.534l131.604 -131.604
l-130.533 -130.533zM626.882 879.875l130.533 130.534l131.604 -131.604l-130.533 -130.533z" />
    <glyph glyph-name="uniFE9A" unicode="&#x62b;" horiz-adv-x="1931" arabic-form="final" 
d="M890 15c-261.333 0 -455.997 39.3311 -583.997 117.998s-192 196.334 -192 353.001c0 82.667 15.667 161.667 47 237l131 -57c-19.333 -53.333 -29 -104.333 -29 -153c0 -229.333 207.333 -344 622 -344c350.667 0 568.667 45 654 135c25.333 26.667 38 70.667 38 132
c0 23.333 -0.666992 42.666 -2 57.999l-4 67l135 16l15 -199c4 -60 21.667 -109.667 53 -149c32 -40 82.667 -60 152 -60h11c2 -3.33301 3.66699 -10.5 5 -21.5s2 -24.5 2 -40.5v-19c0 -38 -2.66699 -62.333 -8 -73h-10c-134.667 0 -230.334 56.333 -287.001 169l-9 19
l-15 -16c-35.333 -37.333 -85.333 -68.666 -150 -93.999s-144.834 -44.666 -240.501 -57.999s-205.834 -20 -330.501 -20h-4zM806.376 1146.43l130.533 130.534l131.604 -131.604l-130.533 -130.534zM971.147 877.873l130.533 130.534l131.604 -131.604l-130.533 -130.533z
M645.884 877.873l130.533 130.534l131.604 -131.604l-130.533 -130.533z" />
    <glyph glyph-name="uniFE9B" unicode="&#x62b;" horiz-adv-x="708" arabic-form="initial" 
d="M69 15l-76.001 0.000976562c-14 0 -24.667 5.5 -32 16.5s-11 29.833 -11 56.5v19c0 23.333 3.5 39.5 10.5 48.5s17.833 13.5 32.5 13.5h76c109.333 0 184 11.333 224 34c62 36 93 110 93 222c0 9.33301 -0.166992 19 -0.5 29s-0.833008 20 -1.5 30s-1.5 20.167 -2.5 30.5
s-2.33301 20.833 -4 31.5l-5 32.5c-1.66699 11 -3.5 22 -5.5 33s-4.16699 22.167 -6.5 33.5s-5.16602 22.666 -8.49902 33.999l135 34c29.333 -98 44 -193 44 -285c0 -158.667 -45 -271.667 -135 -339c-64.667 -49.333 -173.667 -74 -327 -74zM151.372 1299.43
l130.533 130.534l131.604 -131.604l-130.533 -130.534zM316.144 1030.88l130.533 130.534l131.604 -131.604l-130.533 -130.533zM-9.12012 1030.88l130.533 130.534l131.604 -131.604l-130.533 -130.533z" />
    <glyph glyph-name="uniFE9C" unicode="&#x62b;" horiz-adv-x="717" arabic-form="medial" 
d="M730 88c0 -18.667 -0.834961 -34.499 -2.50195 -47.499s-3.5 -21.5 -5.5 -25.5h-7c-126 0 -212.333 44.333 -259 133l-12 22l-14 -20c-63.333 -90 -174.666 -135 -333.999 -135h-104c-9.33301 0 -16.833 2.16699 -22.5 6.5s-10.334 12 -14.001 23s-5.5 25.5 -5.5 43.5v19
c0 23.333 3.33301 39.5 10 48.5s17.334 13.5 32.001 13.5h99c162 0 252 48 270 144c4.66699 24.667 7 53.334 7 86.001c0 34 -1 66 -3 96l-5 67l135 16l15 -215c3.33301 -42.667 13.333 -78.334 30 -107.001s39.834 -50.334 69.501 -65.001s65.5 -22 107.5 -22h5
c5.33301 -10 8 -33.667 8 -71v-10zM156.371 1202.43l130.533 130.534l131.604 -131.604l-130.533 -130.534zM321.143 933.876l130.533 130.534l131.604 -131.604l-130.533 -130.533zM-4.12109 933.876l130.533 130.534l131.604 -131.604l-130.533 -130.533z" />
    <glyph glyph-name="uniFE9D" unicode="&#x62c;" horiz-adv-x="1366" arabic-form="isolated" 
d="M140 -145c0 191.333 58.3311 347.499 174.998 468.499s293 207.5 529 259.5l10 2l49 11l-47 18c-5.33301 2 -13.166 5.16699 -23.499 9.5s-23 9.33301 -38 15s-32.167 12.5 -51.5 20.5c-132 53.333 -223 80 -273 80c-80.667 0 -146.667 -33.333 -198 -100l-21 -26
l-128 63l8 14c80.667 133.333 194 200.333 340 201c82.667 0 181.667 -28 297 -84c100.667 -49.333 190.334 -87.333 269.001 -114s147 -42 205 -46l-11 -146c-112.667 -7.33301 -206.667 -19.666 -282 -36.999c-446 -103.333 -669 -301 -669 -593
c0 -128 46.167 -224 138.5 -288s228.166 -96 407.499 -96c140.667 0 276 29.667 406 89l30 -149c-42.667 -20 -87.834 -36.667 -135.501 -50s-97.667 -23.333 -150 -30s-107.166 -10 -164.499 -10c-252.667 0 -435 60.333 -547 181c-28 30 -51.167 62.333 -69.5 97
s-32.166 72 -41.499 112s-14 82.667 -14 128zM670.97 -64.7969l133.743 133.743l134.813 -134.812l-133.743 -133.743z" />
    <glyph glyph-name="uniFE9E" unicode="&#x62c;" horiz-adv-x="1386" arabic-form="final" 
d="M1242 647l-11 -145.999c-64.667 -5.33301 -125.667 -12 -183 -20l-13 -2v-13v-8c0 -95.333 25 -167.333 75 -216s123.667 -73 221 -73h61c4.66699 -8 7 -27 7 -57v-24c0 -38 -2.66699 -62.333 -8 -73h-60c-140.667 0 -245.667 33.667 -315 101s-104.333 170 -105 308v12
v19l-18 -5c-408.667 -102 -613 -295 -613 -579c0 -128 46.167 -224 138.5 -288s228.166 -96 407.499 -96c140.667 0 276 29.667 406 89l30 -149c-12.667 -6 -25.667 -11.667 -39 -17s-26.833 -10.333 -40.5 -15l-41.5 -13.5c-14 -4.33301 -28.333 -8.33301 -43 -12
s-29.5 -7 -44.5 -10s-30.167 -5.66699 -45.5 -8s-31 -4.5 -47 -6.5s-32.167 -3.5 -48.5 -4.5s-33 -1.83301 -50 -2.5s-33.833 -1 -50.5 -1c-252.667 0 -435 60.333 -547 181c-83.333 90 -125 202.333 -125 337c0 191.333 58.333 347.5 175 468.5s293 207.5 529 259.5l10 2
l49 11l-47 18c-5.33301 2 -13.166 5.16699 -23.499 9.5s-23 9.33301 -38 15s-32.167 12.5 -51.5 20.5c-132 53.333 -223 80 -273 80c-80.667 0 -146.667 -33.333 -198 -100l-21 -26l-128 63l8 14c81.333 134 195 201 341 201c82 0 180.667 -28 296 -84
c67.333 -32.667 129.5 -60.334 186.5 -83.001s109.5 -40.5 157.5 -53.5s91.333 -20.833 130 -23.5zM577.972 -104.795l133.743 133.743l134.813 -134.812l-133.743 -133.743z" />
    <glyph glyph-name="uniFE9F" unicode="&#x62c;" horiz-adv-x="1337" arabic-form="initial" 
d="M572.972 -316.796l133.743 133.743l134.813 -134.812l-133.743 -133.743zM-7 15c-14 0 -24.668 5.50098 -32.001 16.501s-11 29.833 -11 56.5v19c0 23.333 3.5 39.5 10.5 48.5s17.833 13.5 32.5 13.5h60c222.667 0 497 84.333 823 253l74 38l34 17l-37 10
c-8 2.66699 -30.333 11.167 -67 25.5l-148 58.5c-66.667 26.667 -122.167 46.667 -166.5 60s-79.5 20 -105.5 20c-40 0 -76.667 -8.33301 -110 -25s-62.666 -41.667 -87.999 -75l-21 -26l-128 63l8 14c16.667 26.667 34.334 50.667 53.001 72s38.667 40.166 60 56.499
s44 29.833 68 40.5s49.167 18.667 75.5 24s54.166 8 83.499 8c82.667 0 181.667 -28 297 -84c201.333 -98.667 359.666 -152 474.999 -160l-2 -147c-16.667 -2 -35.5 -6.16699 -56.5 -12.5s-44.167 -14.333 -69.5 -24s-53 -21.167 -83 -34.5l-96.5 -45
c-34.333 -16.667 -71.166 -35.667 -110.499 -57c-284 -149.333 -542 -224 -774 -224h-48z" />
    <glyph glyph-name="uniFEA0" unicode="&#x62c;" horiz-adv-x="1351" arabic-form="medial" 
d="M573.972 -316.796l133.743 133.743l134.813 -134.812l-133.743 -133.743zM947 487c-15.333 4 -87.001 32.001 -215.001 84.001c-66.667 26.667 -122.167 46.667 -166.5 60s-79.5 20 -105.5 20c-40 0 -76.667 -8.33301 -110 -25s-62.666 -41.667 -87.999 -75l-21 -26
l-128 63l8 14c16.667 26.667 34.334 50.667 53.001 72s38.667 40.166 60 56.499s44 29.833 68 40.5s49.167 18.667 75.5 24s54.166 8 83.499 8c82.667 0 181.667 -28 297 -84c201.333 -98.667 359.666 -152 474.999 -160l-2 -146
c-54.667 -7.33301 -121 -30.666 -199 -69.999l-8 -4v-9c2.66699 -107.333 100.334 -161 293.001 -161h41c5.33301 -8 8 -27 8 -57v-24c0 -38 -2.66699 -62.333 -8 -73h-57c-119.333 0 -210.333 21.167 -273 63.5s-99 106.166 -109 191.499l-3 21l-19 -9
c-8.66699 -4.66699 -17.5 -9.16699 -26.5 -13.5s-18.167 -9 -27.5 -14l-28 -15.5c-284 -149.333 -542 -224 -774 -224h-48c-14 0 -24.667 5.5 -32 16.5s-11 29.833 -11 56.5v19c0 23.333 3.5 39.5 10.5 48.5s17.833 13.5 32.5 13.5h60c222.667 0 497 84.333 823 253l74 38
l35 18z" />
    <glyph glyph-name="uniFEA1" unicode="&#x62d;" horiz-adv-x="1386" arabic-form="isolated" 
d="M140 -145c0 191.333 58.3311 347.499 174.998 468.499s293 207.5 529 259.5l10 2l49 11l-47 18c-5.33301 2 -13.166 5.16699 -23.499 9.5s-23 9.33301 -38 15s-32.167 12.5 -51.5 20.5c-132 53.333 -223 80 -273 80c-80.667 0 -146.667 -33.333 -198 -100l-21 -26
l-128 63l8 14c80.667 133.333 194 200.333 340 201c82.667 0 181.667 -28 297 -84c100.667 -49.333 190.334 -87.333 269.001 -114s147 -42 205 -46l-11 -146c-112.667 -7.33301 -206.667 -19.666 -282 -36.999c-446 -103.333 -669 -301 -669 -593
c0 -128 46.167 -224 138.5 -288s228.166 -96 407.499 -96c140.667 0 276 29.667 406 89l30 -149c-42.667 -20 -87.834 -36.667 -135.501 -50s-97.667 -23.333 -150 -30s-107.166 -10 -164.499 -10c-252.667 0 -435 60.333 -547 181c-28 30 -51.167 62.333 -69.5 97
s-32.166 72 -41.499 112s-14 82.667 -14 128z" />
    <glyph glyph-name="uniFEA2" unicode="&#x62d;" horiz-adv-x="1386" arabic-form="final" 
d="M1242 647l-11 -145.999c-64.667 -5.33301 -125.667 -12 -183 -20l-13 -2v-13v-8c0 -95.333 25 -167.333 75 -216s123.667 -73 221 -73h61c4.66699 -8 7 -27 7 -57v-24c0 -38 -2.66699 -62.333 -8 -73h-60c-140.667 0 -245.667 33.667 -315 101s-104.333 170 -105 308v12
v19l-18 -5c-408.667 -102 -613 -295 -613 -579c0 -128 46.167 -224 138.5 -288s228.166 -96 407.499 -96c140.667 0 276 29.667 406 89l30 -149c-12.667 -6 -25.667 -11.667 -39 -17s-26.833 -10.333 -40.5 -15l-41.5 -13.5c-14 -4.33301 -28.333 -8.33301 -43 -12
s-29.5 -7 -44.5 -10s-30.167 -5.66699 -45.5 -8s-31 -4.5 -47 -6.5s-32.167 -3.5 -48.5 -4.5s-33 -1.83301 -50 -2.5s-33.833 -1 -50.5 -1c-252.667 0 -435 60.333 -547 181c-83.333 90 -125 202.333 -125 337c0 191.333 58.333 347.5 175 468.5s293 207.5 529 259.5l10 2
l49 11l-47 18c-5.33301 2 -13.166 5.16699 -23.499 9.5s-23 9.33301 -38 15s-32.167 12.5 -51.5 20.5c-132 53.333 -223 80 -273 80c-80.667 0 -146.667 -33.333 -198 -100l-21 -26l-128 63l8 14c81.333 134 195 201 341 201c82 0 180.667 -28 296 -84
c67.333 -32.667 129.5 -60.334 186.5 -83.001s109.5 -40.5 157.5 -53.5s91.333 -20.833 130 -23.5z" />
    <glyph glyph-name="uniFEA3" unicode="&#x62d;" horiz-adv-x="1337" arabic-form="initial" 
d="M-7 15c-14 0 -24.668 5.50098 -32.001 16.501s-11 29.833 -11 56.5v19c0 23.333 3.5 39.5 10.5 48.5s17.833 13.5 32.5 13.5h60c222.667 0 497 84.333 823 253l74 38l34 17l-37 10c-8 2.66699 -30.333 11.167 -67 25.5l-148 58.5
c-66.667 26.667 -122.167 46.667 -166.5 60s-79.5 20 -105.5 20c-40 0 -76.667 -8.33301 -110 -25s-62.666 -41.667 -87.999 -75l-21 -26l-128 63l8 14c16.667 26.667 34.334 50.667 53.001 72s38.667 40.166 60 56.499s44 29.833 68 40.5s49.167 18.667 75.5 24
s54.166 8 83.499 8c82.667 0 181.667 -28 297 -84c201.333 -98.667 359.666 -152 474.999 -160l-2 -147c-16.667 -2 -35.5 -6.16699 -56.5 -12.5s-44.167 -14.333 -69.5 -24s-53 -21.167 -83 -34.5l-96.5 -45c-34.333 -16.667 -71.166 -35.667 -110.499 -57
c-284 -149.333 -542 -224 -774 -224h-48z" />
    <glyph glyph-name="uniFEA4" unicode="&#x62d;" horiz-adv-x="1351" arabic-form="medial" 
d="M947 487c-15.333 4 -87.001 32.001 -215.001 84.001c-66.667 26.667 -122.167 46.667 -166.5 60s-79.5 20 -105.5 20c-40 0 -76.667 -8.33301 -110 -25s-62.666 -41.667 -87.999 -75l-21 -26l-128 63l8 14c16.667 26.667 34.334 50.667 53.001 72
s38.667 40.166 60 56.499s44 29.833 68 40.5s49.167 18.667 75.5 24s54.166 8 83.499 8c82.667 0 181.667 -28 297 -84c201.333 -98.667 359.666 -152 474.999 -160l-2 -146c-54.667 -7.33301 -121 -30.666 -199 -69.999l-8 -4v-9
c2.66699 -107.333 100.334 -161 293.001 -161h41c5.33301 -8 8 -27 8 -57v-24c0 -38 -2.66699 -62.333 -8 -73h-57c-119.333 0 -210.333 21.167 -273 63.5s-99 106.166 -109 191.499l-3 21l-19 -9c-8.66699 -4.66699 -17.5 -9.16699 -26.5 -13.5s-18.167 -9 -27.5 -14
l-28 -15.5c-284 -149.333 -542 -224 -774 -224h-48c-14 0 -24.667 5.5 -32 16.5s-11 29.833 -11 56.5v19c0 23.333 3.5 39.5 10.5 48.5s17.833 13.5 32.5 13.5h60c222.667 0 497 84.333 823 253l74 38l35 18z" />
    <glyph glyph-name="uniFEA5" unicode="&#x62e;" horiz-adv-x="1386" arabic-form="isolated" 
d="M445.972 1238.2l133.743 133.743l134.813 -134.812l-133.743 -133.743zM140 -145c0 191.333 58.3311 347.499 174.998 468.499s293 207.5 529 259.5l10 2l49 11l-47 18c-5.33301 2 -13.166 5.16699 -23.499 9.5s-23 9.33301 -38 15s-32.167 12.5 -51.5 20.5
c-132 53.333 -223 80 -273 80c-80.667 0 -146.667 -33.333 -198 -100l-21 -26l-128 63l8 14c80.667 133.333 194 200.333 340 201c82.667 0 181.667 -28 297 -84c100.667 -49.333 190.334 -87.333 269.001 -114s147 -42 205 -46l-11 -146
c-112.667 -7.33301 -206.667 -19.666 -282 -36.999c-446 -103.333 -669 -301 -669 -593c0 -128 46.167 -224 138.5 -288s228.166 -96 407.499 -96c140.667 0 276 29.667 406 89l30 -149c-42.667 -20 -87.834 -36.667 -135.501 -50s-97.667 -23.333 -150 -30
s-107.166 -10 -164.499 -10c-252.667 0 -435 60.333 -547 181c-28 30 -51.167 62.333 -69.5 97s-32.166 72 -41.499 112s-14 82.667 -14 128z" />
    <glyph glyph-name="uniFEA6" unicode="&#x62e;" horiz-adv-x="1386" arabic-form="final" 
d="M445.972 1238.2l133.743 133.743l134.813 -134.812l-133.743 -133.743zM1242 647l-11 -145.999c-64.667 -5.33301 -125.667 -12 -183 -20l-13 -2v-13v-8c0 -95.333 25 -167.333 75 -216s123.667 -73 221 -73h61c4.66699 -8 7 -27 7 -57v-24
c0 -38 -2.66699 -62.333 -8 -73h-60c-140.667 0 -245.667 33.667 -315 101s-104.333 170 -105 308v12v19l-18 -5c-408.667 -102 -613 -295 -613 -579c0 -128 46.167 -224 138.5 -288s228.166 -96 407.499 -96c140.667 0 276 29.667 406 89l30 -149
c-12.667 -6 -25.667 -11.667 -39 -17s-26.833 -10.333 -40.5 -15l-41.5 -13.5c-14 -4.33301 -28.333 -8.33301 -43 -12s-29.5 -7 -44.5 -10s-30.167 -5.66699 -45.5 -8s-31 -4.5 -47 -6.5s-32.167 -3.5 -48.5 -4.5s-33 -1.83301 -50 -2.5s-33.833 -1 -50.5 -1
c-252.667 0 -435 60.333 -547 181c-83.333 90 -125 202.333 -125 337c0 191.333 58.333 347.5 175 468.5s293 207.5 529 259.5l10 2l49 11l-47 18c-5.33301 2 -13.166 5.16699 -23.499 9.5s-23 9.33301 -38 15s-32.167 12.5 -51.5 20.5c-132 53.333 -223 80 -273 80
c-80.667 0 -146.667 -33.333 -198 -100l-21 -26l-128 63l8 14c81.333 134 195 201 341 201c82 0 180.667 -28 296 -84c67.333 -32.667 129.5 -60.334 186.5 -83.001s109.5 -40.5 157.5 -53.5s91.333 -20.833 130 -23.5z" />
    <glyph glyph-name="uniFEA7" unicode="&#x62e;" horiz-adv-x="1337" arabic-form="initial" 
d="M405.972 1185.2l133.743 133.743l134.813 -134.812l-133.743 -133.743zM-7 15c-14 0 -24.668 5.50098 -32.001 16.501s-11 29.833 -11 56.5v19c0 23.333 3.5 39.5 10.5 48.5s17.833 13.5 32.5 13.5h60c222.667 0 497 84.333 823 253l74 38l34 17l-37 10
c-8 2.66699 -30.333 11.167 -67 25.5l-148 58.5c-66.667 26.667 -122.167 46.667 -166.5 60s-79.5 20 -105.5 20c-40 0 -76.667 -8.33301 -110 -25s-62.666 -41.667 -87.999 -75l-21 -26l-128 63l8 14c16.667 26.667 34.334 50.667 53.001 72s38.667 40.166 60 56.499
s44 29.833 68 40.5s49.167 18.667 75.5 24s54.166 8 83.499 8c82.667 0 181.667 -28 297 -84c201.333 -98.667 359.666 -152 474.999 -160l-2 -147c-16.667 -2 -35.5 -6.16699 -56.5 -12.5s-44.167 -14.333 -69.5 -24s-53 -21.167 -83 -34.5l-96.5 -45
c-34.333 -16.667 -71.166 -35.667 -110.499 -57c-284 -149.333 -542 -224 -774 -224h-48z" />
    <glyph glyph-name="uniFEA8" unicode="&#x62e;" horiz-adv-x="1351" arabic-form="medial" 
d="M405.972 1185.2l133.743 133.743l134.813 -134.812l-133.743 -133.743zM947 487c-15.333 4 -87.001 32.001 -215.001 84.001c-66.667 26.667 -122.167 46.667 -166.5 60s-79.5 20 -105.5 20c-40 0 -76.667 -8.33301 -110 -25s-62.666 -41.667 -87.999 -75l-21 -26
l-128 63l8 14c16.667 26.667 34.334 50.667 53.001 72s38.667 40.166 60 56.499s44 29.833 68 40.5s49.167 18.667 75.5 24s54.166 8 83.499 8c82.667 0 181.667 -28 297 -84c201.333 -98.667 359.666 -152 474.999 -160l-2 -146
c-54.667 -7.33301 -121 -30.666 -199 -69.999l-8 -4v-9c2.66699 -107.333 100.334 -161 293.001 -161h41c5.33301 -8 8 -27 8 -57v-24c0 -38 -2.66699 -62.333 -8 -73h-57c-119.333 0 -210.333 21.167 -273 63.5s-99 106.166 -109 191.499l-3 21l-19 -9
c-8.66699 -4.66699 -17.5 -9.16699 -26.5 -13.5s-18.167 -9 -27.5 -14l-28 -15.5c-284 -149.333 -542 -224 -774 -224h-48c-14 0 -24.667 5.5 -32 16.5s-11 29.833 -11 56.5v19c0 23.333 3.5 39.5 10.5 48.5s17.833 13.5 32.5 13.5h60c222.667 0 497 84.333 823 253l74 38
l35 18z" />
    <glyph glyph-name="uniFEA9" unicode="&#x62f;" horiz-adv-x="994" arabic-form="isolated" 
d="M116 193c78.667 -15.333 154 -23 226 -23c256.667 0 385 65.333 385 196c0 142.667 -136.333 301 -409 475l84 127c316.667 -192 475 -391.667 475 -599c0 -78 -18.833 -142.833 -56.5 -194.5s-95.167 -90.667 -172.5 -117s-175 -39.833 -293 -40.5
c-91.333 0 -171 7 -239 21v155z" />
    <glyph glyph-name="uniFEAA" unicode="&#x62f;" horiz-adv-x="1101" arabic-form="final" 
d="M388 16c-84.667 0 -174.998 8.66699 -270.998 26v154c88.667 -17.333 180.667 -26 276 -26c107.333 0 189.166 12.833 245.499 38.5s84.5 65.834 84.5 120.501c0 23.333 -7.66699 58.166 -23 104.499s-38.333 106.5 -69 180.5l-122 287l137 63l193 -488
c40 -101.333 80.5 -177.833 121.5 -229.5s83.833 -77.5 128.5 -77.5h17c5.33301 -8.66699 8 -29.334 8 -62.001v-19c0 -10.667 -0.333008 -20 -1 -28s-1.33398 -14.667 -2.00098 -20c-1.33301 -11.333 -3.33301 -19.666 -6 -24.999h-16c-105.333 0 -188.333 51 -249 153
l-11 19l-13 -17c-85.333 -102.667 -228 -154 -428 -154z" />
    <glyph glyph-name="uniFEAB" unicode="&#x630;" horiz-adv-x="994" arabic-form="isolated" 
d="M116 193c78.667 -15.333 154 -23 226 -23c256.667 0 385 65.333 385 196c0 142.667 -136.333 301 -409 475l84 127c316.667 -192 475 -391.667 475 -599c0 -78 -18.833 -142.833 -56.5 -194.5s-95.167 -90.667 -172.5 -117s-175 -39.833 -293 -40.5
c-91.333 0 -171 7 -239 21v155zM252.972 1306.2l133.743 133.743l134.813 -134.812l-133.743 -133.743z" />
    <glyph glyph-name="uniFEAC" unicode="&#x630;" horiz-adv-x="1101" arabic-form="final" 
d="M388 16c-84.667 0 -174.998 8.66699 -270.998 26v154c88.667 -17.333 180.667 -26 276 -26c107.333 0 189.166 12.833 245.499 38.5s84.5 65.834 84.5 120.501c0 23.333 -7.66699 58.166 -23 104.499s-38.333 106.5 -69 180.5l-122 287l137 63l193 -488
c40 -101.333 80.5 -177.833 121.5 -229.5s83.833 -77.5 128.5 -77.5h17c5.33301 -8.66699 8 -29.334 8 -62.001v-19c0 -10.667 -0.333008 -20 -1 -28s-1.33398 -14.667 -2.00098 -20c-1.33301 -11.333 -3.33301 -19.666 -6 -24.999h-16c-105.333 0 -188.333 51 -249 153
l-11 19l-13 -17c-85.333 -102.667 -228 -154 -428 -154zM406.974 1299.2l133.743 133.743l134.813 -134.812l-133.743 -133.743z" />
    <glyph glyph-name="uniFEAD" unicode="&#x631;" horiz-adv-x="826" arabic-form="isolated" 
d="M637 513c12.667 -30.667 23.832 -60.833 33.499 -90.5s17.834 -59 24.501 -88s11.5 -57.667 14.5 -86s4.5 -56.5 4.5 -84.5c0 -188 -55.833 -334.833 -167.5 -440.5s-280.167 -171.5 -505.5 -197.5l-35 141c186 20.667 326.333 71.5 421 152.5s141.667 191.833 141 332.5
c0 99.333 -24.333 203 -73 311z" />
    <glyph glyph-name="uniFEAE" unicode="&#x631;" horiz-adv-x="910" arabic-form="final" 
d="M634 512l52.999 -178c32 -110 100 -165 204 -165h25c2 -3.33301 3.83301 -10 5.5 -20s2.5 -22.333 2.5 -37v-24c0 -38.667 -2.66699 -63 -8 -73h-14c-45.333 0 -82.166 4.16699 -110.499 12.5s-55.5 29.833 -81.5 64.5l-5 -37c-12 -102 -44.333 -189.5 -97 -262.5
s-126.167 -131.667 -220.5 -176s-209.833 -74.5 -346.5 -90.5l-35 141c186 20.667 326.333 71.667 421 153s141.667 192.333 141 333c0 98 -24.667 201.333 -74 310z" />
    <glyph glyph-name="uniFEAF" unicode="&#x632;" horiz-adv-x="826" arabic-form="isolated" 
d="M637 513c12.667 -30.667 23.832 -60.833 33.499 -90.5s17.834 -59 24.501 -88s11.5 -57.667 14.5 -86s4.5 -56.5 4.5 -84.5c0 -188 -55.833 -334.833 -167.5 -440.5s-280.167 -171.5 -505.5 -197.5l-35 141c186 20.667 326.333 71.5 421 152.5s141.667 191.833 141 332.5
c0 99.333 -24.333 203 -73 311zM366.935 895.883l138.206 138.207l139.312 -139.312l-138.207 -138.206z" />
    <glyph glyph-name="uniFEB0" unicode="&#x632;" horiz-adv-x="910" arabic-form="final" 
d="M366.937 895.882l138.206 138.207l139.312 -139.312l-138.207 -138.206zM635 512l52.999 -178c32 -110 100 -165 204 -165h25c2 -3.33301 3.83301 -10 5.5 -20s2.5 -22.333 2.5 -37v-24c0 -38.667 -2.66699 -63 -8 -73h-14c-45.333 0 -82.166 4.16699 -110.499 12.5
s-55.5 29.833 -81.5 64.5l-5 -37c-12 -102 -44.333 -189.5 -97 -262.5s-126.167 -131.667 -220.5 -176s-209.833 -74.5 -346.5 -90.5l-35 141c186 20.667 326.333 71.667 421 153s141.667 192.333 141 333c0 98 -24.667 201.333 -74 310z" />
    <glyph glyph-name="uniFEB1" unicode="&#x633;" horiz-adv-x="2506" arabic-form="isolated" 
d="M1553 15c-36.667 0 -69.499 4.33203 -98.499 12.999s-54.167 22 -75.5 40l-24 20v-32c-0.666992 -44 -6.33398 -88.167 -17.001 -132.5s-26.667 -89.166 -48 -134.499c-94 -196 -288.333 -294 -583 -294c-99.333 0 -185.833 11.333 -259.5 34s-135 56.667 -184 102
s-85.667 102.166 -110 170.499s-36.5 148.166 -36.5 239.499c0 130.667 31.333 274 94 430l131 -54c-52.667 -138 -79 -262.667 -79 -374c0 -132.667 38 -232.667 114 -300s188.333 -101 337 -101c162 0 284.333 38.667 367 116s124.334 192 125.001 344
c0 120 -28.333 240.333 -85 361l143 50l55 -171c36 -112.667 114.667 -169 236 -169c68 0 119.833 17.5 155.5 52.5s53.167 86.167 52.5 153.5c0 56 -1 94.667 -3 116l-4 46l135 16l15 -215c3.33301 -55.333 19.833 -97.333 49.5 -126s70.834 -42.667 123.501 -42
c54 0 94.667 19.333 122 58s40.666 94.334 40 167.001c0 66.667 -13.333 148.334 -40 245.001l142 38c30 -98 44.667 -192 44 -282c0 -29.333 -1.5 -57.333 -4.5 -84s-7.66699 -51.5 -14 -74.5s-14.166 -44.333 -23.5 -64c-9.33301 -19.667 -20.166 -37.667 -32.5 -54
c-12.333 -16.333 -26.166 -31.5 -41.5 -45.5c-48 -41.333 -111.333 -62 -190 -62c-116.667 0 -193.334 43.667 -230.001 131l-10 24l-16 -21c-64.667 -90 -155.334 -135 -272.001 -135z" />
    <glyph glyph-name="uniFEB2" unicode="&#x633;" horiz-adv-x="2589" arabic-form="final" 
d="M1319 342c37.333 -115.333 115.67 -172.999 235.003 -172.999c66 0 116.333 16.833 151 50.5s52 82.5 52 146.5c0 52.667 -0.666992 88.667 -2 108l-4 67l135 16l15 -215c3.33301 -56 19.666 -98.667 48.999 -128s70.333 -44 123 -44c54.667 0 95.834 18.667 123.5 56
c27.667 37.333 41.834 91 42.5 161c0 43.333 -2 86.333 -6 129l-4 46l135 16l15 -174c2.66699 -30 7.33398 -57.333 14 -82c6.66699 -24.667 15.667 -46.5 27 -65.5s24.833 -35 40.5 -48s33.334 -22.833 53 -29.5c19.667 -6.66699 41.5 -10 65.5 -10h16
c5.33301 -8.66699 8 -29.334 8 -62.001v-19c-0.666992 -18 -1.83398 -33.667 -3.5 -47c-1.66699 -13.333 -3.5 -22 -5.5 -26h-13c-125.333 0 -203.666 44 -235 132l-12 34l-16 -32c-44.667 -89.333 -123.334 -134 -236.001 -134c-120.667 0 -199.334 44 -236.001 132l-11 25
l-15 -22c-31.333 -45.333 -69.166 -79 -113.499 -101s-95.5 -33 -153.5 -33c-74 0 -132 17.333 -174 52l-24 20v-32c-0.666992 -44 -6.33398 -88.167 -17.001 -132.5s-26.667 -89.166 -48 -134.499c-94 -196 -288.333 -294 -583 -294c-198 0 -345.833 45.167 -443.5 135.5
s-146.5 227.166 -146.5 410.499c0 130.667 31.333 274 94 430l131 -54c-52.667 -138 -79 -262.667 -79 -374c0 -132.667 38 -232.667 114 -300s188.333 -101 337 -101c108 0 198.333 17.167 271 51.5s127.5 85.833 164.5 154.5s55.833 154 56.5 256
c0 119.333 -28.333 239 -85 359l143 50z" />
    <glyph glyph-name="uniFEB3" unicode="&#x633;" horiz-adv-x="1599" arabic-form="initial" 
d="M852 328c4 20.667 5.99902 44.998 5.99902 72.998c0 30.667 -1.33301 62 -4 94l-4 46l134 16l15 -215c4 -56 20.667 -98.667 50 -128s70.333 -44 123 -44c54 0 94.667 19.667 122 59s41 96 41 170c0 66.667 -13.333 148.334 -40 245.001l142 38
c30 -98.667 44.667 -190.667 44 -276v-5c0 -74.667 -9.83301 -138.667 -29.5 -192s-48.834 -97 -87.501 -131c-15.333 -13.333 -32.5 -24.666 -51.5 -33.999s-40 -16.333 -63 -21s-47.833 -7 -74.5 -7c-59.333 0 -108 10.833 -146 32.5s-66 54.5 -84 98.5l-11 25l-15 -22
c-65.333 -90 -156.333 -135 -273 -135c-136 0.666992 -222.667 44.667 -260 132l-12 28l-15 -27c-50.667 -88.667 -154 -133 -310 -133h-56c-14 0 -24.667 5.5 -32 16.5s-11 29.833 -11 56.5v19c0 23.333 3.5 39.5 10.5 48.5s17.833 13.5 32.5 13.5h58
c144.667 0 228.334 53 251.001 159c2 10 3.5 21.167 4.5 33.5s1.5 25.5 1.5 39.5c0 28.667 -1.66699 60 -5 94l-4 46l135 16l15 -215c4 -56.667 23 -99.667 57 -129s81.333 -44 142 -44c56 0 101.333 13.5 136 40.5s57.334 66.5 68.001 118.5z" />
    <glyph glyph-name="uniFEB4" unicode="&#x633;" horiz-adv-x="1688" arabic-form="medial" 
d="M999 342c4 -56 20.833 -98.668 50.5 -128.001s70.834 -44 123.501 -44c54.667 0 95.834 18.5 123.501 55.5s41.167 89.833 40.5 158.5c0 52.667 -1.66699 96.667 -5 132l-4 46l135 16l15 -174c6.66699 -76 26.834 -134.167 60.501 -174.5s80.167 -60.5 139.5 -60.5h16
c4.66699 -8.66699 7 -29.334 7 -62.001v-19c0 -38 -2.66699 -62.333 -8 -73h-13c-126 0 -204.333 44 -235 132l-12 34l-16 -32c-44.667 -89.333 -124 -134 -238 -134c-38.667 0 -73 4.83301 -103 14.5s-55.833 24.334 -77.5 44.001s-39.834 44.5 -54.501 74.5l-11 22
l-14 -20c-65.333 -90 -156.333 -135 -273 -135c-136 0.666992 -222.667 44.667 -260 132l-12 28l-15 -27c-50.667 -88.667 -154 -133 -310 -133h-56c-14 0 -24.667 5.5 -32 16.5s-11 29.833 -11 56.5v19c0 23.333 3.5 39.5 10.5 48.5s17.833 13.5 32.5 13.5h58
c145.333 0 229.333 53 252 159c3.33301 16.667 5 41 5 73c0 14.667 -0.333008 29.834 -1 45.501s-2 31.834 -4 48.501l-4 46l135 16l15 -215c4 -56.667 23 -99.667 57 -129s81.333 -44 142 -44c28 0 53.5 3.33301 76.5 10s43.167 16.667 60.5 30s31.666 30 42.999 50
s19.666 43 24.999 69c3.33301 17.333 5 41.666 5 72.999c0 30.667 -1.33301 62 -4 94l-4 46l134 16z" />
    <glyph glyph-name="uniFEB5" unicode="&#x634;" horiz-adv-x="2506" arabic-form="isolated" 
d="M1642.37 1209.43l130.533 130.534l131.604 -131.604l-130.533 -130.534zM1807.14 940.875l130.533 130.534l131.604 -131.604l-130.533 -130.533zM1481.88 940.875l130.533 130.534l131.604 -131.604l-130.533 -130.533zM1553 15
c-36.667 0 -69.499 4.33203 -98.499 12.999s-54.167 22 -75.5 40l-24 20v-32c-0.666992 -44 -6.33398 -88.167 -17.001 -132.5s-26.667 -89.166 -48 -134.499c-94 -196 -288.333 -294 -583 -294c-99.333 0 -185.833 11.333 -259.5 34s-135 56.667 -184 102
s-85.667 102.166 -110 170.499s-36.5 148.166 -36.5 239.499c0 130.667 31.333 274 94 430l131 -54c-52.667 -138 -79 -262.667 -79 -374c0 -132.667 38 -232.667 114 -300s188.333 -101 337 -101c162 0 284.333 38.667 367 116s124.334 192 125.001 344
c0 120 -28.333 240.333 -85 361l143 50l55 -171c36 -112.667 114.667 -169 236 -169c68 0 119.833 17.5 155.5 52.5s53.167 86.167 52.5 153.5c0 56 -1 94.667 -3 116l-4 46l135 16l15 -215c3.33301 -55.333 19.833 -97.333 49.5 -126s70.834 -42.667 123.501 -42
c54 0 94.667 19.333 122 58s40.666 94.334 40 167.001c0 66.667 -13.333 148.334 -40 245.001l142 38c30 -98 44.667 -192 44 -282c0 -29.333 -1.5 -57.333 -4.5 -84s-7.66699 -51.5 -14 -74.5s-14.166 -44.333 -23.5 -64c-9.33301 -19.667 -20.166 -37.667 -32.5 -54
c-12.333 -16.333 -26.166 -31.5 -41.5 -45.5c-48 -41.333 -111.333 -62 -190 -62c-116.667 0 -193.334 43.667 -230.001 131l-10 24l-16 -21c-64.667 -90 -155.334 -135 -272.001 -135z" />
    <glyph glyph-name="uniFEB6" unicode="&#x634;" horiz-adv-x="2589" arabic-form="final" 
d="M1643.37 1209.43l130.533 130.534l131.604 -131.604l-130.533 -130.534zM1808.14 940.875l130.533 130.534l131.604 -131.604l-130.533 -130.533zM1482.88 940.875l130.533 130.534l131.604 -131.604l-130.533 -130.533zM1319 342
c37.333 -115.333 115.67 -172.999 235.003 -172.999c66 0 116.333 16.833 151 50.5s52 82.5 52 146.5c0 52.667 -0.666992 88.667 -2 108l-4 67l135 16l15 -215c3.33301 -56 19.666 -98.667 48.999 -128s70.333 -44 123 -44c54.667 0 95.834 18.667 123.5 56
c27.667 37.333 41.834 91 42.5 161c0 43.333 -2 86.333 -6 129l-4 46l135 16l15 -174c2.66699 -30 7.33398 -57.333 14 -82c6.66699 -24.667 15.667 -46.5 27 -65.5s24.833 -35 40.5 -48s33.334 -22.833 53 -29.5c19.667 -6.66699 41.5 -10 65.5 -10h16
c5.33301 -8.66699 8 -29.334 8 -62.001v-19c-0.666992 -18 -1.83398 -33.667 -3.5 -47c-1.66699 -13.333 -3.5 -22 -5.5 -26h-13c-125.333 0 -203.666 44 -235 132l-12 34l-16 -32c-44.667 -89.333 -123.334 -134 -236.001 -134c-120.667 0 -199.334 44 -236.001 132l-11 25
l-15 -22c-31.333 -45.333 -69.166 -79 -113.499 -101s-95.5 -33 -153.5 -33c-74 0 -132 17.333 -174 52l-24 20v-32c-0.666992 -44 -6.33398 -88.167 -17.001 -132.5s-26.667 -89.166 -48 -134.499c-94 -196 -288.333 -294 -583 -294c-198 0 -345.833 45.167 -443.5 135.5
s-146.5 227.166 -146.5 410.499c0 130.667 31.333 274 94 430l131 -54c-52.667 -138 -79 -262.667 -79 -374c0 -132.667 38 -232.667 114 -300s188.333 -101 337 -101c108 0 198.333 17.167 271 51.5s127.5 85.833 164.5 154.5s55.833 154 56.5 256
c0 119.333 -28.333 239 -85 359l143 50z" />
    <glyph glyph-name="uniFEB7" unicode="&#x634;" horiz-adv-x="1599" arabic-form="initial" 
d="M763.373 1209.43l130.533 130.534l131.604 -131.604l-130.533 -130.534zM928.145 940.875l130.533 130.534l131.604 -131.604l-130.533 -130.533zM602.881 940.875l130.533 130.534l131.604 -131.604l-130.533 -130.533zM852 328c4 20.667 5.99902 44.998 5.99902 72.998
c0 30.667 -1.33301 62 -4 94l-4 46l134 16l15 -215c4 -56 20.667 -98.667 50 -128s70.333 -44 123 -44c54 0 94.667 19.667 122 59s41 96 41 170c0 66.667 -13.333 148.334 -40 245.001l142 38c30 -98.667 44.667 -190.667 44 -276v-5
c0 -74.667 -9.83301 -138.667 -29.5 -192s-48.834 -97 -87.501 -131c-15.333 -13.333 -32.5 -24.666 -51.5 -33.999s-40 -16.333 -63 -21s-47.833 -7 -74.5 -7c-59.333 0 -108 10.833 -146 32.5s-66 54.5 -84 98.5l-11 25l-15 -22c-65.333 -90 -156.333 -135 -273 -135
c-136 0.666992 -222.667 44.667 -260 132l-12 28l-15 -27c-50.667 -88.667 -154 -133 -310 -133h-56c-14 0 -24.667 5.5 -32 16.5s-11 29.833 -11 56.5v19c0 23.333 3.5 39.5 10.5 48.5s17.833 13.5 32.5 13.5h58c144.667 0 228.334 53 251.001 159
c2 10 3.5 21.167 4.5 33.5s1.5 25.5 1.5 39.5c0 28.667 -1.66699 60 -5 94l-4 46l135 16l15 -215c4 -56.667 23 -99.667 57 -129s81.333 -44 142 -44c56 0 101.333 13.5 136 40.5s57.334 66.5 68.001 118.5z" />
    <glyph glyph-name="uniFEB8" unicode="&#x634;" horiz-adv-x="1688" arabic-form="medial" 
d="M763.373 1209.43l130.533 130.534l131.604 -131.604l-130.533 -130.534zM928.145 940.875l130.533 130.534l131.604 -131.604l-130.533 -130.533zM602.881 940.875l130.533 130.534l131.604 -131.604l-130.533 -130.533zM999 342c4 -56 20.833 -98.668 50.5 -128.001
s70.834 -44 123.501 -44c54.667 0 95.834 18.5 123.501 55.5s41.167 89.833 40.5 158.5c0 52.667 -1.66699 96.667 -5 132l-4 46l135 16l15 -174c6.66699 -76 26.834 -134.167 60.501 -174.5s80.167 -60.5 139.5 -60.5h16c4.66699 -8.66699 7 -29.334 7 -62.001v-19
c0 -38 -2.66699 -62.333 -8 -73h-13c-126 0 -204.333 44 -235 132l-12 34l-16 -32c-44.667 -89.333 -124 -134 -238 -134c-38.667 0 -73 4.83301 -103 14.5s-55.833 24.334 -77.5 44.001s-39.834 44.5 -54.501 74.5l-11 22l-14 -20c-65.333 -90 -156.333 -135 -273 -135
c-136 0.666992 -222.667 44.667 -260 132l-12 28l-15 -27c-50.667 -88.667 -154 -133 -310 -133h-56c-14 0 -24.667 5.5 -32 16.5s-11 29.833 -11 56.5v19c0 23.333 3.5 39.5 10.5 48.5s17.833 13.5 32.5 13.5h58c145.333 0 229.333 53 252 159c3.33301 16.667 5 41 5 73
c0 14.667 -0.333008 29.834 -1 45.501s-2 31.834 -4 48.501l-4 46l135 16l15 -215c4 -56.667 23 -99.667 57 -129s81.333 -44 142 -44c28 0 53.5 3.33301 76.5 10s43.167 16.667 60.5 30s31.666 30 42.999 50s19.666 43 24.999 69c3.33301 17.333 5 41.666 5 72.999
c0 30.667 -1.33301 62 -4 94l-4 46l134 16z" />
    <glyph glyph-name="uniFEB9" unicode="&#x635;" horiz-adv-x="2607" arabic-form="isolated" 
d="M1625 169l153.999 -0.000976562c186.667 0 321.334 18.333 404.001 55c50.667 22.667 89 51.834 115 87.501s39.333 77.5 40 125.5c0 46 -12.667 85.667 -38 119c-42.667 55.333 -102 83.333 -178 84c-150 -0.666992 -320 -150 -510 -448l-15 -23h28zM1722 14.999
c-156.667 0 -271.667 18.002 -345 54.002l-22 11v-24c-0.666992 -90 -22.334 -178.667 -65.001 -266c-94 -196.667 -288.333 -295 -583 -295c-99.333 0 -185.833 11.333 -259.5 34s-135 56.667 -184 102s-85.667 102.166 -110 170.499s-36.5 148.166 -36.5 239.499
c0 130.667 31.333 274 94 430l131 -54c-52.667 -138 -79 -262.667 -79 -374c0 -132.667 38 -232.667 114 -300s188.333 -101 337 -101c162 0 284.333 38.667 367 116s124.334 192 125.001 344c0 120 -28.333 240.333 -85 361l143 50l63 -197c24 -74 59 -113.333 105 -118
l10 -1l5 8c235.333 398 459.333 596.667 672 596c135.333 0 238.333 -50.333 309 -151c42 -61.333 62.667 -128.333 62 -201c0 -17.333 -1.16699 -35.333 -3.5 -54s-5.5 -38 -9.5 -58c-50 -214.667 -284.667 -322 -704 -322h-51z" />
    <glyph glyph-name="uniFEBA" unicode="&#x635;" horiz-adv-x="2636" arabic-form="final" 
d="M2642 169c4.66699 -8.66699 7.00391 -29.332 7.00391 -61.999v-19c0 -38 -2.66699 -62.333 -8 -73h-21c-164.667 0 -279.334 26 -344 78l-8 7l-8 -5c-94 -53.333 -256.333 -80 -487 -80h-51c-156.667 0 -271.667 18 -345 54l-22 11v-24
c-0.666992 -90 -22.334 -178.667 -65.001 -266c-94 -196.667 -288.333 -295 -583 -295c-332.667 0.666992 -524.667 130 -576 388c-9.33301 47.333 -14 99 -14 155c-0.666992 131.333 30.666 275.666 93.999 432.999l131 -54c-52.667 -138.667 -79 -263.667 -79 -375
c0.666992 -134 39.667 -234.5 117 -301.5s191.666 -99.833 342.999 -98.5c158.667 1.33301 278.667 40.5 360 117.5s122.333 190.5 123 340.5c0 40 -3.16699 80.333 -9.5 121s-15.833 81.167 -28.5 121.5s-28.334 80.5 -47.001 120.5l142 50l64 -201
c22.667 -71.333 57.667 -109.333 105 -114l10 -1l5 8c234.667 396.667 459 595.334 673 596.001c133.333 0.666992 236 -50 308 -152c21.333 -30 37.333 -62.333 48 -97s16 -71.334 16 -110.001c0 -78 -26.333 -153 -79 -225l-8 -11l10 -9
c11.333 -11.333 33.333 -18.833 66 -22.5s81 -5.5 145 -5.5h16zM1625 169.002l154 -0.000976562c185.333 0 320 18.333 404 55c104 46 155.667 117 155 213c-0.666992 46.667 -13.334 86.334 -38 119.001c-21.333 27.333 -46.833 48 -76.5 62s-63.5 21.333 -101.5 22
c-150.667 -0.666992 -320.667 -150 -510 -448l-15 -23h28z" />
    <glyph glyph-name="uniFEBB" unicode="&#x635;" horiz-adv-x="1690" arabic-form="initial" 
d="M708 169h153.998c186.667 0 321.334 18.333 404.001 55c102.667 45.333 154.334 116.333 155.001 213c0 46 -12.667 85.667 -38 119c-42.667 55.333 -102 83.333 -178 84c-30.667 -0.666992 -62.167 -7 -94.5 -19s-65 -30.167 -98 -54.5s-66.833 -54.5 -101.5 -90.5
s-70 -77.5 -106 -124.5s-72.667 -100.167 -110 -159.5l-15 -23h28zM335.998 154c-68 -92.667 -176.665 -139.003 -325.998 -139.003h-17c-14 0 -24.667 5.5 -32 16.5s-11 29.833 -11 56.5v19c0 12 1 22 3 30s4.83301 14.333 8.5 19s8.16699 8 13.5 10s11.666 3 18.999 3h16
c158 0 245 48.333 261 145c8 42 9.33301 102.333 4 181l-5 67l136 16l16 -216c7.33301 -95.333 37.666 -149.666 90.999 -162.999l11 -3l6 9c235.333 398 459.333 596.667 672 596c135.333 0 238.333 -50.333 309 -151c42 -61.333 62.667 -128.333 62 -201
c0 -11.333 -0.5 -23.166 -1.5 -35.499s-2.5 -24.833 -4.5 -37.5s-4.33301 -25.667 -7 -39c-50 -214.667 -284.667 -322 -704 -322h-51c-121.333 0 -219 11.833 -293 35.5s-124.333 57.834 -151 102.501l-11 19z" />
    <glyph glyph-name="uniFEBC" unicode="&#x635;" horiz-adv-x="1719" arabic-form="medial" 
d="M422 362c7.33301 -95.333 37.668 -149.665 91.001 -162.998l11 -3l6 9c236 398 460.667 596.667 674 596c132.667 0 235 -50.667 307 -152c21.333 -30 37.333 -62.333 48 -97s16 -71.334 16 -110.001c0 -78.667 -26.333 -153.667 -79 -225l-8 -11l10 -9
c11.333 -11.333 33.333 -18.833 66 -22.5s81 -5.5 145 -5.5h16c4.66699 -8.66699 7 -29.334 7 -62.001v-19c0 -18.667 -0.833008 -34.5 -2.5 -47.5s-3.5 -21.5 -5.5 -25.5h-21c-164.667 0 -279.334 26 -344.001 78l-8 7l-8 -5c-94 -53.333 -256.333 -80 -487 -80h-51
c-238.667 0 -386.667 46 -444 138l-12 19l-13 -18c-68 -92.667 -176.667 -139 -326 -139h-17c-14 0 -24.667 5.5 -32 16.5s-11 29.833 -11 56.5v19c0 23.333 3.5 39.5 10.5 48.5s17.833 13.5 32.5 13.5h16c158.667 0 246 48.333 262 145c8 42 9.33301 102.333 4 181l-5 67
l136 16zM708.002 169.001h153.999c185.333 0 320 18.333 404 55c102.667 45.333 154.334 116.333 155.001 213c0 46 -12.667 85.667 -38 119c-42.667 55.333 -102 83.333 -178 84c-30.667 -0.666992 -62.167 -7 -94.5 -19s-65 -30.167 -98 -54.5s-66.833 -54.5 -101.5 -90.5
s-70 -77.5 -106 -124.5s-72.667 -100.167 -110 -159.5l-15 -23h28z" />
    <glyph glyph-name="uniFEBD" unicode="&#x636;" horiz-adv-x="2607" arabic-form="isolated" 
d="M1967.97 1183.2l133.743 133.743l134.812 -134.812l-133.742 -133.743zM1625 169l153.999 -0.000976562c186.667 0 321.334 18.333 404.001 55c50.667 22.667 89 51.834 115 87.501s39.333 77.5 40 125.5c0 46 -12.667 85.667 -38 119
c-42.667 55.333 -102 83.333 -178 84c-150 -0.666992 -320 -150 -510 -448l-15 -23h28zM1722 14.999c-156.667 0 -271.667 18.002 -345 54.002l-22 11v-24c-0.666992 -90 -22.334 -178.667 -65.001 -266c-94 -196.667 -288.333 -295 -583 -295
c-99.333 0 -185.833 11.333 -259.5 34s-135 56.667 -184 102s-85.667 102.166 -110 170.499s-36.5 148.166 -36.5 239.499c0 130.667 31.333 274 94 430l131 -54c-52.667 -138 -79 -262.667 -79 -374c0 -132.667 38 -232.667 114 -300s188.333 -101 337 -101
c162 0 284.333 38.667 367 116s124.334 192 125.001 344c0 120 -28.333 240.333 -85 361l143 50l63 -197c24 -74 59 -113.333 105 -118l10 -1l5 8c235.333 398 459.333 596.667 672 596c135.333 0 238.333 -50.333 309 -151c42 -61.333 62.667 -128.333 62 -201
c0 -17.333 -1.16699 -35.333 -3.5 -54s-5.5 -38 -9.5 -58c-50 -214.667 -284.667 -322 -704 -322h-51z" />
    <glyph glyph-name="uniFEBE" unicode="&#x636;" horiz-adv-x="2636" arabic-form="final" 
d="M1967.97 1183.2l133.743 133.743l134.812 -134.812l-133.742 -133.743zM2642 169c4.66699 -8.66699 7.00391 -29.332 7.00391 -61.999v-19c0 -38 -2.66699 -62.333 -8 -73h-21c-164.667 0 -279.334 26 -344 78l-8 7l-8 -5c-94 -53.333 -256.333 -80 -487 -80h-51
c-156.667 0 -271.667 18 -345 54l-22 11v-24c-0.666992 -90 -22.334 -178.667 -65.001 -266c-94 -196.667 -288.333 -295 -583 -295c-332.667 0.666992 -524.667 130 -576 388c-9.33301 47.333 -14 99 -14 155c-0.666992 131.333 30.666 275.666 93.999 432.999l131 -54
c-52.667 -138.667 -79 -263.667 -79 -375c0.666992 -134 39.667 -234.5 117 -301.5s191.666 -99.833 342.999 -98.5c158.667 1.33301 278.667 40.5 360 117.5s122.333 190.5 123 340.5c0 40 -3.16699 80.333 -9.5 121s-15.833 81.167 -28.5 121.5
s-28.334 80.5 -47.001 120.5l142 50l64 -201c22.667 -71.333 57.667 -109.333 105 -114l10 -1l5 8c234.667 396.667 459 595.334 673 596.001c133.333 0.666992 236 -50 308 -152c21.333 -30 37.333 -62.333 48 -97s16 -71.334 16 -110.001c0 -78 -26.333 -153 -79 -225
l-8 -11l10 -9c11.333 -11.333 33.333 -18.833 66 -22.5s81 -5.5 145 -5.5h16zM1625 169.002l154 -0.000976562c185.333 0 320 18.333 404 55c104 46 155.667 117 155 213c-0.666992 46.667 -13.334 86.334 -38 119.001c-21.333 27.333 -46.833 48 -76.5 62
s-63.5 21.333 -101.5 22c-150.667 -0.666992 -320.667 -150 -510 -448l-15 -23h28z" />
    <glyph glyph-name="uniFEBF" unicode="&#x636;" horiz-adv-x="1690" arabic-form="initial" 
d="M1047.97 1183.2l133.743 133.743l134.813 -134.812l-133.743 -133.743zM708 169h153.998c186.667 0 321.334 18.333 404.001 55c102.667 45.333 154.334 116.333 155.001 213c0 46 -12.667 85.667 -38 119c-42.667 55.333 -102 83.333 -178 84
c-30.667 -0.666992 -62.167 -7 -94.5 -19s-65 -30.167 -98 -54.5s-66.833 -54.5 -101.5 -90.5s-70 -77.5 -106 -124.5s-72.667 -100.167 -110 -159.5l-15 -23h28zM335.998 154c-68 -92.667 -176.665 -139.003 -325.998 -139.003h-17c-14 0 -24.667 5.5 -32 16.5
s-11 29.833 -11 56.5v19c0 12 1 22 3 30s4.83301 14.333 8.5 19s8.16699 8 13.5 10s11.666 3 18.999 3h16c158 0 245 48.333 261 145c8 42 9.33301 102.333 4 181l-5 67l136 16l16 -216c7.33301 -95.333 37.666 -149.666 90.999 -162.999l11 -3l6 9
c235.333 398 459.333 596.667 672 596c135.333 0 238.333 -50.333 309 -151c42 -61.333 62.667 -128.333 62 -201c0 -11.333 -0.5 -23.166 -1.5 -35.499s-2.5 -24.833 -4.5 -37.5s-4.33301 -25.667 -7 -39c-50 -214.667 -284.667 -322 -704 -322h-51
c-121.333 0 -219 11.833 -293 35.5s-124.333 57.834 -151 102.501l-11 19z" />
    <glyph glyph-name="uniFEC0" unicode="&#x636;" horiz-adv-x="1719" arabic-form="medial" 
d="M1047.97 1183.2l133.743 133.743l134.813 -134.812l-133.743 -133.743zM422 362c7.33301 -95.333 37.668 -149.665 91.001 -162.998l11 -3l6 9c236 398 460.667 596.667 674 596c132.667 0 235 -50.667 307 -152c21.333 -30 37.333 -62.333 48 -97
s16 -71.334 16 -110.001c0 -78.667 -26.333 -153.667 -79 -225l-8 -11l10 -9c11.333 -11.333 33.333 -18.833 66 -22.5s81 -5.5 145 -5.5h16c4.66699 -8.66699 7 -29.334 7 -62.001v-19c0 -18.667 -0.833008 -34.5 -2.5 -47.5s-3.5 -21.5 -5.5 -25.5h-21
c-164.667 0 -279.334 26 -344.001 78l-8 7l-8 -5c-94 -53.333 -256.333 -80 -487 -80h-51c-238.667 0 -386.667 46 -444 138l-12 19l-13 -18c-68 -92.667 -176.667 -139 -326 -139h-17c-14 0 -24.667 5.5 -32 16.5s-11 29.833 -11 56.5v19c0 23.333 3.5 39.5 10.5 48.5
s17.833 13.5 32.5 13.5h16c158.667 0 246 48.333 262 145c8 42 9.33301 102.333 4 181l-5 67l136 16zM708.002 169.001h153.999c185.333 0 320 18.333 404 55c102.667 45.333 154.334 116.333 155.001 213c0 46 -12.667 85.667 -38 119c-42.667 55.333 -102 83.333 -178 84
c-30.667 -0.666992 -62.167 -7 -94.5 -19s-65 -30.167 -98 -54.5s-66.833 -54.5 -101.5 -90.5s-70 -77.5 -106 -124.5s-72.667 -100.167 -110 -159.5l-15 -23h28z" />
    <glyph glyph-name="uniFEC1" unicode="&#x637;" horiz-adv-x="1490" arabic-form="isolated" 
d="M1008 801c27.333 0 53.333 -2.00098 78 -6.00098s48 -10 70 -18s42.5 -18.167 61.5 -30.5s36.833 -26.666 53.5 -42.999s32 -34.5 46 -54.5c10 -14.667 18.5 -29.5 25.5 -44.5s13 -30.5 18 -46.5s8.66699 -32.667 11 -50s3.5 -35.333 3.5 -54
c0 -146 -59 -255.667 -177 -329s-298 -110 -540 -110h-542v154h206h2h8l5 8v1c14.667 20 38.334 57 71.001 111l3 5v5v1125h143v-880v-42l27 33c71.333 89.333 142.666 156 213.999 200s142.333 66 213 66zM664 169.999c182.667 0 317 18.667 403 56
c104 45.333 156 115 156 209c0 61.333 -21.333 111 -64 149c-40 37.333 -90.667 56 -152 56c-151.333 0 -321.333 -149 -510 -447l-14 -23h27h154z" />
    <glyph glyph-name="uniFEC2" unicode="&#x637;" horiz-adv-x="1526" arabic-form="final" 
d="M515 170l149.001 -0.000976562c92 0 171.667 4.83301 239 14.5s122.666 24.167 165.999 43.5c50 22 88 50.5 114 85.5s39.333 75.5 40 121.5c0 30.667 -5.33301 58.334 -16 83.001c-10 24.667 -26 46.667 -48 66c-40.667 37.333 -92.334 56 -155.001 56
c-77.333 -1.33301 -157.666 -39 -240.999 -113s-171 -184 -263 -330l-3 -4l-14 -23h27h5zM658.001 14.999l-542 0.00195312v154h206h2h8l5 8v1l70 111l3 4v6v1125h144v-871v-9v-43l27 34l5 7c138 172.667 278 259 420 259c68 0.666992 127.833 -11.833 179.5 -37.5
s95.5 -64.167 131.5 -115.5c10 -13.333 18.5 -27.5 25.5 -42.5s12.833 -30.5 17.5 -46.5c2.66699 -8 4.83398 -16.167 6.50098 -24.5s3.16699 -16.833 4.5 -25.5s2.33301 -17.5 3 -26.5s1 -18.167 1 -27.5c0 -22 -1.5 -43.333 -4.5 -64s-7.5 -40.667 -13.5 -60
c-12.667 -40.667 -31 -79 -55 -115l-7 -8l7 -9c9.33301 -12.667 30.166 -20.834 62.499 -24.501s82.5 -5.5 150.5 -5.5h16c4.66699 -8.66699 7 -29.334 7 -62.001v-19c0 -38 -2.66699 -62.333 -8 -73h-21c-171.333 0 -289.333 26 -354 78l-7 7l-9 -5
c-100.667 -53.333 -261 -80 -481 -80z" />
    <glyph glyph-name="uniFEC3" unicode="&#x637;" horiz-adv-x="1330" arabic-form="initial" 
d="M496 15h-503.001c-14 0 -24.667 5.5 -32 16.5s-11 29.833 -11 56.5v19c0 23.333 3.5 39.5 10.5 48.5s17.833 13.5 32.5 13.5h166h2h1l2 1l6 1l4 6l0.5 0.5l0.5 0.5c6.66699 11.333 30 48.333 70 111l3 4v6v1125h143v-871v-9v-43l27 34l5 7
c138 172.667 278.333 259 421 259c135.333 0.666992 239 -50.333 311 -153c9.33301 -13.333 17.5 -27.5 24.5 -42.5s12.833 -30.5 17.5 -46.5c10 -32 15 -66.667 15 -104c0 -97.333 -25.833 -178.5 -77.5 -243.5s-130.667 -114 -237 -147s-240.166 -49.5 -401.499 -49.5z
M352.999 170l148 0.000976562c92 0 171.667 4.66699 239 14s123 23.666 167 42.999c33.333 14.667 61.333 32.167 84 52.5s39.834 43.5 51.501 69.5s17.5 54.667 17.5 86c0 30 -5.33301 57.5 -16 82.5s-26.334 47.167 -47.001 66.5
c-3.33301 3.33301 -6.83301 6.33301 -10.5 9l-11 8c-3.66699 2.66699 -7.5 5.16699 -11.5 7.5s-8 4.5 -12 6.5l-12.5 6c-4.33301 2 -8.83301 3.66699 -13.5 5c-25.333 9.33301 -53.333 14 -84 14c-152 -2 -320.333 -149.667 -505 -443l-3 -4l-14 -23h27h6z" />
    <glyph glyph-name="uniFEC4" unicode="&#x637;" horiz-adv-x="1354" arabic-form="medial" 
d="M353 170h148.002c181.333 0 316.666 19.333 405.999 58c102 44 153 113 153 207c0 30 -5.33301 57.5 -16 82.5s-26.334 47.167 -47.001 66.5c-3.33301 3.33301 -6.83301 6.33301 -10.5 9l-11 8c-3.66699 2.66699 -7.5 5.16699 -11.5 7.5s-8 4.5 -12 6.5l-12.5 6
c-4.33301 2 -8.83301 3.66699 -13.5 5c-25.333 9.33301 -53.333 14 -84 14c-152 -2 -320.333 -149.667 -505 -443l-3 -4l-14 -23h27h6zM496.002 15l-503.007 -0.000976562c-14 0 -24.667 5.5 -32 16.5s-11 29.833 -11 56.5v19c0 23.333 3.5 39.5 10.5 48.5
s17.833 13.5 32.5 13.5h168h8l5 7c44.667 70.667 68.334 108.334 71.001 113.001l3 4v6v1125h143v-871v-9v-43l27 34l5 7c138 172.667 278.333 259 421 259c46 0.666992 88.333 -4.66602 127 -15.999s73.167 -28.333 103.5 -51s56.833 -51 79.5 -85
c38.667 -57.333 58 -122 58 -194c0 -22 -1.5 -43.333 -4.5 -64s-7.5 -40.834 -13.5 -60.501s-13.5 -38.834 -22.5 -57.501s-19.5 -36.667 -31.5 -54l-1 -2l-6 -9l7 -8v-1l1 -1c6.66699 -8.66699 19.334 -15.167 38.001 -19.5s39.834 -7 63.501 -8s56.834 -1.5 99.501 -1.5
h16c2 -3.33301 3.83301 -10.5 5.5 -21.5s2.5 -24.5 2.5 -40.5v-19c0 -38 -2.66699 -62.333 -8 -73h-21c-55.333 0 -105.166 3 -149.499 9s-82.666 14.833 -114.999 26.5s-58.833 25.834 -79.5 42.501l-8 6l-8 -4c-53.333 -26.667 -120.166 -46.667 -200.499 -60
s-173.833 -20 -280.5 -20z" />
    <glyph glyph-name="uniFEC5" unicode="&#x638;" horiz-adv-x="1490" arabic-form="isolated" 
d="M1008 801c27.333 0 53.333 -2.00098 78 -6.00098s48 -10 70 -18s42.5 -18.167 61.5 -30.5s36.833 -26.666 53.5 -42.999s32 -34.5 46 -54.5c10 -14.667 18.5 -29.5 25.5 -44.5s13 -30.5 18 -46.5s8.66699 -32.667 11 -50s3.5 -35.333 3.5 -54
c0 -146 -59 -255.667 -177 -329s-298 -110 -540 -110h-542v154h206h2h8l5 8v1c14.667 20 38.334 57 71.001 111l3 5v5v1125h143v-880v-42l27 33c71.333 89.333 142.666 156 213.999 200s142.333 66 213 66zM664 169.999c182.667 0 317 18.667 403 56
c104 45.333 156 115 156 209c0 61.333 -21.333 111 -64 149c-40 37.333 -90.667 56 -152 56c-151.333 0 -321.333 -149 -510 -447l-14 -23h27h154zM865.972 1183.2l133.743 133.743l134.813 -134.812l-133.743 -133.743z" />
    <glyph glyph-name="uniFEC6" unicode="&#x638;" horiz-adv-x="1526" arabic-form="final" 
d="M865.972 1183.2l133.743 133.743l134.813 -134.812l-133.743 -133.743zM515 170l149.001 -0.000976562c92 0 171.667 4.83301 239 14.5s122.666 24.167 165.999 43.5c50 22 88 50.5 114 85.5s39.333 75.5 40 121.5c0 30.667 -5.33301 58.334 -16 83.001
c-10 24.667 -26 46.667 -48 66c-40.667 37.333 -92.334 56 -155.001 56c-77.333 -1.33301 -157.666 -39 -240.999 -113s-171 -184 -263 -330l-3 -4l-14 -23h27h5zM658.001 14.999l-542 0.00195312v154h206h2h8l5 8v1l70 111l3 4v6v1125h144v-871v-9v-43l27 34l5 7
c138 172.667 278 259 420 259c68 0.666992 127.833 -11.833 179.5 -37.5s95.5 -64.167 131.5 -115.5c10 -13.333 18.5 -27.5 25.5 -42.5s12.833 -30.5 17.5 -46.5c2.66699 -8 4.83398 -16.167 6.50098 -24.5s3.16699 -16.833 4.5 -25.5s2.33301 -17.5 3 -26.5
s1 -18.167 1 -27.5c0 -22 -1.5 -43.333 -4.5 -64s-7.5 -40.667 -13.5 -60c-12.667 -40.667 -31 -79 -55 -115l-7 -8l7 -9c9.33301 -12.667 30.166 -20.834 62.499 -24.501s82.5 -5.5 150.5 -5.5h16c4.66699 -8.66699 7 -29.334 7 -62.001v-19c0 -38 -2.66699 -62.333 -8 -73
h-21c-171.333 0 -289.333 26 -354 78l-7 7l-9 -5c-100.667 -53.333 -261 -80 -481 -80z" />
    <glyph glyph-name="uniFEC7" unicode="&#x638;" horiz-adv-x="1330" arabic-form="initial" 
d="M705.972 1183.2l133.743 133.743l134.813 -134.812l-133.743 -133.743zM496 15h-503.001c-14 0 -24.667 5.5 -32 16.5s-11 29.833 -11 56.5v19c0 23.333 3.5 39.5 10.5 48.5s17.833 13.5 32.5 13.5h166h2h1l2 1l6 1l4 6l0.5 0.5l0.5 0.5c6.66699 11.333 30 48.333 70 111
l3 4v6v1125h143v-871v-9v-43l27 34l5 7c138 172.667 278.333 259 421 259c135.333 0.666992 239 -50.333 311 -153c9.33301 -13.333 17.5 -27.5 24.5 -42.5s12.833 -30.5 17.5 -46.5c10 -32 15 -66.667 15 -104c0 -97.333 -25.833 -178.5 -77.5 -243.5
s-130.667 -114 -237 -147s-240.166 -49.5 -401.499 -49.5zM352.999 170l148 0.000976562c92 0 171.667 4.66699 239 14s123 23.666 167 42.999c33.333 14.667 61.333 32.167 84 52.5s39.834 43.5 51.501 69.5s17.5 54.667 17.5 86c0 30 -5.33301 57.5 -16 82.5
s-26.334 47.167 -47.001 66.5c-3.33301 3.33301 -6.83301 6.33301 -10.5 9l-11 8c-3.66699 2.66699 -7.5 5.16699 -11.5 7.5s-8 4.5 -12 6.5l-12.5 6c-4.33301 2 -8.83301 3.66699 -13.5 5c-25.333 9.33301 -53.333 14 -84 14c-152 -2 -320.333 -149.667 -505 -443l-3 -4
l-14 -23h27h6z" />
    <glyph glyph-name="uniFEC8" unicode="&#x638;" horiz-adv-x="1354" arabic-form="medial" 
d="M705.972 1183.2l133.743 133.743l134.813 -134.812l-133.743 -133.743zM353 170h148.002c181.333 0 316.666 19.333 405.999 58c102 44 153 113 153 207c0 30 -5.33301 57.5 -16 82.5s-26.334 47.167 -47.001 66.5c-3.33301 3.33301 -6.83301 6.33301 -10.5 9l-11 8
c-3.66699 2.66699 -7.5 5.16699 -11.5 7.5s-8 4.5 -12 6.5l-12.5 6c-4.33301 2 -8.83301 3.66699 -13.5 5c-25.333 9.33301 -53.333 14 -84 14c-152 -2 -320.333 -149.667 -505 -443l-3 -4l-14 -23h27h6zM496.002 15l-503.007 -0.000976562c-14 0 -24.667 5.5 -32 16.5
s-11 29.833 -11 56.5v19c0 23.333 3.5 39.5 10.5 48.5s17.833 13.5 32.5 13.5h168h8l5 7c44.667 70.667 68.334 108.334 71.001 113.001l3 4v6v1125h143v-871v-9v-43l27 34l5 7c138 172.667 278.333 259 421 259c46 0.666992 88.333 -4.66602 127 -15.999
s73.167 -28.333 103.5 -51s56.833 -51 79.5 -85c38.667 -57.333 58 -122 58 -194c0 -22 -1.5 -43.333 -4.5 -64s-7.5 -40.834 -13.5 -60.501s-13.5 -38.834 -22.5 -57.501s-19.5 -36.667 -31.5 -54l-1 -2l-6 -9l7 -8v-1l1 -1c6.66699 -8.66699 19.334 -15.167 38.001 -19.5
s39.834 -7 63.501 -8s56.834 -1.5 99.501 -1.5h16c2 -3.33301 3.83301 -10.5 5.5 -21.5s2.5 -24.5 2.5 -40.5v-19c0 -38 -2.66699 -62.333 -8 -73h-21c-55.333 0 -105.166 3 -149.499 9s-82.666 14.833 -114.999 26.5s-58.833 25.834 -79.5 42.501l-8 6l-8 -4
c-53.333 -26.667 -120.166 -46.667 -200.499 -60s-173.833 -20 -280.5 -20z" />
    <glyph glyph-name="uniFEC9" unicode="&#x639;" horiz-adv-x="1330" arabic-form="isolated" 
d="M638 448c118 20.667 218.998 31.335 302.998 32.002c56.667 0 112 -2.66699 166 -8l-19 -147c-26 1.33301 -47.333 2.16602 -64 2.49902s-29.667 0.166016 -39 -0.500977c-239.333 -6.66699 -420 -49.334 -542 -128.001s-183 -193.334 -183 -344.001
c0 -122.667 45.167 -214.667 135.5 -276s223.5 -92 399.5 -92c134.667 0 267 29.667 397 89l30 -149c-127.333 -60.667 -273.666 -91 -438.999 -91c-223.333 0 -389.666 42.5 -498.999 127.5s-164 213.167 -164 384.5c0 254.667 116.333 433.667 349 537l18 8l-13 15
c-39.333 45.333 -68.666 91.833 -87.999 139.5s-29 96.834 -29 147.501c0 44 8.66699 88.333 26 133c8.66699 21.333 19.5 41.833 32.5 61.5s28.167 38.5 45.5 56.5c64 68.667 155 103 273 103c96 0 200.333 -37.667 313 -113l-56 -122c-48 27.333 -92.333 47.833 -133 61.5
s-78.667 20.5 -114 20.5c-91.333 0 -158.333 -35.333 -201 -106c-21.333 -34.667 -32 -70.667 -32 -108c0 -32 8.33301 -65 25 -99c8 -16 19.167 -34.667 33.5 -56s32.166 -45.666 53.499 -72.999l6 -7z" />
    <glyph glyph-name="uniFECA" unicode="&#x639;" horiz-adv-x="1187" arabic-form="final" 
d="M580 219c-106 -58 -185.831 -121.668 -239.498 -191.001s-80.5 -144 -80.5 -224c-0.666992 -102 36.166 -178.5 110.499 -229.5s183.833 -76.833 328.5 -77.5c108 0 219 22.333 333 67l30 -149c-107.333 -46 -232 -68.667 -374 -68
c-166.667 0.666992 -296.334 32 -389.001 94c-20 14 -38.167 28.833 -54.5 44.5s-31.166 32.334 -44.499 50.001s-25 36.5 -35 56.5s-18.333 41.167 -25 63.5s-11.667 45.833 -15 70.5s-5.33301 50.667 -6 78c0 204.667 103 372 309 502l21 13l-21 12
c-187.333 110 -281 213.333 -281 310c0 31.333 12.5 60.5 37.5 87.5s63.167 51.833 114.5 74.5c71.333 30.667 169.666 46 294.999 46c130 0 229.667 -15 299 -45c93.333 -39.333 140 -92.333 140 -159c0 -42 -25.667 -90.5 -77 -145.5s-129 -114.833 -233 -179.5l-18 -12
l17 -13c106.667 -84 255 -126 445 -126h26c2 -3.33301 3.66699 -10.5 5 -21.5s2 -24.5 2 -40.5v-19c0 -38 -2.66699 -62.333 -8 -73h-25c-200 0 -390.333 67.667 -571 203l-8 6zM595.002 411.999c98 53.333 170.168 97 216.501 131s69.166 63.333 68.499 88
c0 26 -23.667 43.5 -71 52.5s-119.333 13.5 -216 13.5c-95.333 0 -167 -5.5 -215 -16.5s-72 -31.5 -72 -61.5c0 -15.333 11.333 -33.5 34 -54.5s52.5 -43 89.5 -66s87.5 -51.833 151.5 -86.5l7 -4z" />
    <glyph glyph-name="uniFECB" unicode="&#x639;" horiz-adv-x="1068" arabic-form="initial" 
d="M857 608c-40 30.667 -80 54.0029 -120 70.0029s-80 24 -120 24c-44.667 0.666992 -84.667 -5.33301 -120 -18c-18 -6.66699 -34.833 -14.834 -50.5 -24.501s-29.834 -20.834 -42.501 -33.501c-25.333 -24.667 -44.333 -52.334 -57 -83.001s-19 -64.334 -19 -101.001
c0 -96 54.667 -171 164 -225c2 -0.666992 4.83301 -2 8.5 -4s6 -3.16699 7 -3.5s3.33301 -1.16602 7 -2.49902s6 -1.66602 7 -0.999023s3.5 1 7.5 1l417 106v-154c-312 -96 -599 -144 -861 -144h-92c-14 0 -24.667 5.5 -32 16.5s-11 29.833 -11 56.5v19
c0 16 1.66699 28.5 5 37.5s8 15.333 14 19s14 5.5 24 5.5h273h7h34l-23 26l-4 5c-4 4 -7.83301 8.16699 -11.5 12.5l-11 13.5l-11 14.5c-3.66699 5 -7.16699 10.167 -10.5 15.5c-35.333 53.333 -52.666 118.666 -51.999 195.999c0.666992 106 29.334 194.667 86.001 266
c30 37.333 67.667 68.333 113 93c59.333 32 128.666 47.667 207.999 47c16.667 0 32.667 -0.666992 48 -2s30.5 -3.33301 45.5 -6s29.5 -6 43.5 -10s27.667 -8.66699 41 -14s26.333 -11.333 39 -18s25 -14 37 -22s23.5 -16.5 34.5 -25.5s21.833 -18.833 32.5 -29.5z" />
    <glyph glyph-name="uniFECC" unicode="&#x639;" horiz-adv-x="1151" arabic-form="medial" 
d="M754 236c75.333 -44.667 202.333 -67.001 381 -67.001h21c4.66699 -8.66699 7 -29.334 7 -62.001v-19c0 -18.667 -0.666992 -34.667 -2 -48c-2 -11.333 -4 -19.666 -6 -24.999h-20c-218.667 0 -387.667 46.333 -507 139l-2 1l-9 7l-10 -7l-2 -2
c-107.333 -92 -303.333 -138 -588 -138h-24c-14 0 -24.667 5.5 -32 16.5s-11 29.833 -11 56.5v19c0 23.333 3.5 39.5 10.5 48.5s17.833 13.5 32.5 13.5h27c231.333 0 381.333 22.667 450 68l4 3l20 13l-21 12l-5 3c-196.667 111.333 -295 219 -295 323
c0 62.667 50 116.334 150 161.001c17.333 8 36.5 15 57.5 21s43.833 11 68.5 15s51.167 7 79.5 9s58.5 3.33301 90.5 4c123.333 0.666992 223.333 -15 300 -47c93.333 -39.333 140 -92 140 -158c0 -92 -101.667 -201.667 -305 -329l-5 -3l-20 -13l21 -12zM895 569.999
c0 29.333 -23.666 49.5 -70.999 60.5s-117.333 16.5 -210 16.5c-93.333 0 -163.5 -5.66699 -210.5 -17s-70.833 -32 -71.5 -62c0 -19.333 11.667 -41 35 -65c49.333 -52 128.666 -106 237.999 -162l2 -1l7 -3l7 4h1c100.667 54 179.667 110.333 237 169
c24 24.667 36 44.667 36 60z" />
    <glyph glyph-name="uniFECD" unicode="&#x63a;" horiz-adv-x="1330" arabic-form="isolated" 
d="M638 448c118 20.667 218.998 31.335 302.998 32.002c56.667 0 112 -2.66699 166 -8l-19 -147c-26 1.33301 -47.333 2.16602 -64 2.49902s-29.667 0.166016 -39 -0.500977c-239.333 -6.66699 -420 -49.334 -542 -128.001s-183 -193.334 -183 -344.001
c0 -122.667 45.167 -214.667 135.5 -276s223.5 -92 399.5 -92c134.667 0 267 29.667 397 89l30 -149c-127.333 -60.667 -273.666 -91 -438.999 -91c-223.333 0 -389.666 42.5 -498.999 127.5s-164 213.167 -164 384.5c0 254.667 116.333 433.667 349 537l18 8l-13 15
c-39.333 45.333 -68.666 91.833 -87.999 139.5s-29 96.834 -29 147.501c0 44 8.66699 88.333 26 133c8.66699 21.333 19.5 41.833 32.5 61.5s28.167 38.5 45.5 56.5c64 68.667 155 103 273 103c96 0 200.333 -37.667 313 -113l-56 -122c-48 27.333 -92.333 47.833 -133 61.5
s-78.667 20.5 -114 20.5c-91.333 0 -158.333 -35.333 -201 -106c-21.333 -34.667 -32 -70.667 -32 -108c0 -32 8.33301 -65 25 -99c8 -16 19.167 -34.667 33.5 -56s32.166 -45.666 53.499 -72.999l6 -7zM570.97 1367.21l133.743 133.743l134.813 -134.812l-133.743 -133.743
z" />
    <glyph glyph-name="uniFECE" unicode="&#x63a;" horiz-adv-x="1187" arabic-form="final" 
d="M580 219c-106 -58 -185.831 -121.668 -239.498 -191.001s-80.5 -144 -80.5 -224c-0.666992 -102 36.166 -178.5 110.499 -229.5s183.833 -76.833 328.5 -77.5c108 0 219 22.333 333 67l30 -149c-107.333 -46 -232 -68.667 -374 -68
c-166.667 0.666992 -296.334 32 -389.001 94c-20 14 -38.167 28.833 -54.5 44.5s-31.166 32.334 -44.499 50.001s-25 36.5 -35 56.5s-18.333 41.167 -25 63.5s-11.667 45.833 -15 70.5s-5.33301 50.667 -6 78c0 204.667 103 372 309 502l21 13l-21 12
c-187.333 110 -281 213.333 -281 310c0 31.333 12.5 60.5 37.5 87.5s63.167 51.833 114.5 74.5c71.333 30.667 169.666 46 294.999 46c130 0 229.667 -15 299 -45c93.333 -39.333 140 -92.333 140 -159c0 -42 -25.667 -90.5 -77 -145.5s-129 -114.833 -233 -179.5l-18 -12
l17 -13c106.667 -84 255 -126 445 -126h26c2 -3.33301 3.66699 -10.5 5 -21.5s2 -24.5 2 -40.5v-19c0 -38 -2.66699 -62.333 -8 -73h-25c-200 0 -390.333 67.667 -571 203l-8 6zM595.002 411.999c98 53.333 170.168 97 216.501 131s69.166 63.333 68.499 88
c0 26 -23.667 43.5 -71 52.5s-119.333 13.5 -216 13.5c-95.333 0 -167 -5.5 -215 -16.5s-72 -31.5 -72 -61.5c0 -15.333 11.333 -33.5 34 -54.5s52.5 -43 89.5 -66s87.5 -51.833 151.5 -86.5l7 -4zM443.975 1187.2l133.743 133.743l134.813 -134.812l-133.743 -133.743z" />
    <glyph glyph-name="uniFECF" unicode="&#x63a;" horiz-adv-x="1063" arabic-form="initial" 
d="M857 608c-40 30.667 -80 54.0029 -120 70.0029s-80 24 -120 24c-44.667 0.666992 -84.667 -5.33301 -120 -18c-18 -6.66699 -34.833 -14.834 -50.5 -24.501s-29.834 -20.834 -42.501 -33.501c-25.333 -24.667 -44.333 -52.334 -57 -83.001s-19 -64.334 -19 -101.001
c0 -96 54.667 -171 164 -225c2 -0.666992 4.83301 -2 8.5 -4s6 -3.16699 7 -3.5s3.33301 -1.16602 7 -2.49902s6 -1.66602 7 -0.999023s3.5 1 7.5 1l417 106v-154c-312 -96 -599 -144 -861 -144h-92c-14 0 -24.667 5.5 -32 16.5s-11 29.833 -11 56.5v19
c0 16 1.66699 28.5 5 37.5s8 15.333 14 19s14 5.5 24 5.5h273h7h34l-23 26l-4 5c-4 4 -7.83301 8.16699 -11.5 12.5l-11 13.5l-11 14.5c-3.66699 5 -7.16699 10.167 -10.5 15.5c-35.333 53.333 -52.666 118.666 -51.999 195.999c0.666992 106 29.334 194.667 86.001 266
c30 37.333 67.667 68.333 113 93c59.333 32 128.666 47.667 207.999 47c16.667 0 32.667 -0.666992 48 -2s30.5 -3.33301 45.5 -6s29.5 -6 43.5 -10s27.667 -8.66699 41 -14s26.333 -11.333 39 -18s25 -14 37 -22s23.5 -16.5 34.5 -25.5s21.833 -18.833 32.5 -29.5z
M434.972 1222.21l133.743 133.743l134.813 -134.812l-133.743 -133.743z" />
    <glyph glyph-name="uniFED0" unicode="&#x63a;" horiz-adv-x="1151" arabic-form="medial" 
d="M754 236c75.333 -44.667 202.333 -67.001 381 -67.001h21c4.66699 -8.66699 7 -29.334 7 -62.001v-19c0 -18.667 -0.666992 -34.667 -2 -48c-2 -11.333 -4 -19.666 -6 -24.999h-20c-218.667 0 -387.667 46.333 -507 139l-2 1l-9 7l-10 -7l-2 -2
c-107.333 -92 -303.333 -138 -588 -138h-24c-14 0 -24.667 5.5 -32 16.5s-11 29.833 -11 56.5v19c0 23.333 3.5 39.5 10.5 48.5s17.833 13.5 32.5 13.5h27c231.333 0 381.333 22.667 450 68l4 3l20 13l-21 12l-5 3c-196.667 111.333 -295 219 -295 323
c0 62.667 50 116.334 150 161.001c17.333 8 36.5 15 57.5 21s43.833 11 68.5 15s51.167 7 79.5 9s58.5 3.33301 90.5 4c123.333 0.666992 223.333 -15 300 -47c93.333 -39.333 140 -92 140 -158c0 -92 -101.667 -201.667 -305 -329l-5 -3l-20 -13l21 -12zM895 569.999
c0 29.333 -23.666 49.5 -70.999 60.5s-117.333 16.5 -210 16.5c-93.333 0 -163.5 -5.66699 -210.5 -17s-70.833 -32 -71.5 -62c0 -19.333 11.667 -41 35 -65c49.333 -52 128.666 -106 237.999 -162l2 -1l7 -3l7 4h1c100.667 54 179.667 110.333 237 169
c24 24.667 36 44.667 36 60zM477.973 1165.2l133.743 133.743l134.813 -134.812l-133.743 -133.743z" />
    <glyph glyph-name="uniFED1" unicode="&#x641;" horiz-adv-x="1851" arabic-form="isolated" 
d="M1238.97 1359.2l133.743 133.743l134.813 -134.812l-133.743 -133.743zM1733 473c-1.33301 -183.333 -44.667 -306.999 -130 -370.999c-77.333 -58 -215 -87 -413 -87h-330c-251.333 0 -438.5 39.333 -561.5 118s-184.5 196.334 -184.5 353.001
c0 82.667 15.667 161.667 47 237l131 -57c-19.333 -54 -29 -105.667 -29 -155c0 -228 194.333 -342 583 -342h365c262 0 393.667 70.667 395 212v6.5c0 2.33301 -0.166992 4.5 -0.5 6.5s-0.5 4.33301 -0.5 7l-2 18l-17 -6c-60 -18 -125 -27 -195 -27
c-52.667 0 -98.5 5.33301 -137.5 16s-71.333 26.667 -97 48s-45 48 -58 80s-19.833 69.333 -20.5 112v14c0 4.66699 0.166992 9.16699 0.5 13.5l1 13c0.333008 4.33301 0.833008 8.83301 1.5 13.5l2 13.5l2 12.5c10 51.333 24 96.666 42 135.999s40.667 73 68 101
c52 54 117.333 81 196 81c6 0 11.833 -0.166992 17.5 -0.5s11.334 -0.833008 17.001 -1.5s11.167 -1.5 16.5 -2.5s10.666 -2.16699 15.999 -3.5l15.5 -4c5 -1.33301 10 -3 15 -5s9.83301 -4.16699 14.5 -6.5l14 -7c4.66699 -2.33301 9 -4.83301 13 -7.5
c108.667 -70.667 173.667 -206.334 195 -407.001c2.66699 -22 4.5 -43 5.5 -63s1.83301 -39.667 2.5 -59zM1212 669.001c0 -46.667 16.6719 -81.6689 50.0049 -105.002s80.666 -34.666 141.999 -33.999c28.667 0 57.667 2.16699 87 6.5s58.666 11.166 87.999 20.499l12 3
l-2 13c-3.33301 26 -7.33301 50.833 -12 74.5s-10.334 46 -17.001 67s-14.334 40.5 -23.001 58.5c-17.333 38 -38.833 67 -64.5 87s-54.834 30 -87.501 30c-25.333 0 -48.5 -5.66699 -69.5 -17s-39 -27.666 -54 -48.999s-27.167 -47.666 -36.5 -78.999
c-8.66699 -26.667 -13 -52 -13 -76z" />
    <glyph glyph-name="uniFED2" unicode="&#x641;" horiz-adv-x="2025" arabic-form="final" 
d="M1395.97 1232.2l133.743 133.743l134.813 -134.812l-133.743 -133.743zM1413 652c-42.667 -42.667 -63.9971 -85.333 -63.9971 -128c0 -22.667 5.66699 -46 17 -70s28 -49 50 -75c26 -30 48.833 -52.5 68.5 -67.5s38.167 -22.5 55.5 -22.5c30 0 71 30 123 90
c45.333 52 67.666 100 66.999 144c0.666992 53.333 -31 106 -95 158c-37.333 30 -71 45 -101 45c-16.667 0 -34.834 -6.16699 -54.501 -18.5s-41.834 -30.833 -66.501 -55.5zM1527 142.001c-122 -84.667 -332.999 -127 -632.999 -127h-34
c-251.333 0 -438.5 39.333 -561.5 118s-184.5 196.334 -184.5 353.001c0 82.667 15.667 161.667 47 237l131 -57c-19.333 -53.333 -29 -104.333 -29 -153c0 -229.333 202.667 -344 608 -344c246 0 406.667 11.333 482 34l26 8l-21 18c-102.667 85.333 -154 187 -154 305
c0 112 63.667 212.333 191 301c44.667 30.667 93 46 145 46c51.333 0 95.666 -11.333 132.999 -34c34.667 -20.667 64.667 -43 90 -67s46.5 -49.5 63.5 -76.5s29.667 -55.5 38 -85.5s12.5 -61.667 12.5 -95c0 -111.333 -51.667 -209.333 -155 -294l-21 -17l25 -9
c32 -11.333 70.833 -19.833 116.5 -25.5s98.5 -8.5 158.5 -8.5h30c4.66699 -8.66699 7 -29.334 7 -62.001v-19c0 -9.33301 -0.166992 -18.333 -0.5 -27s-1 -16 -2 -22l-2.5 -15c-0.666992 -4 -1.66699 -7 -3 -9h-27c-193.333 0 -346 42 -458 126l-9 7z" />
    <glyph glyph-name="uniFED3" unicode="&#x641;" horiz-adv-x="904" arabic-form="initial" 
d="M446 387c-105.333 0 -183.668 21.168 -235.001 63.501s-77.666 106.5 -78.999 192.5c0 28 2.66699 54.667 8 80c19.333 102.667 55.666 181.667 108.999 237c52.667 54 118.334 81 197.001 81c53.333 0 99.666 -12.667 138.999 -38
c107.333 -70 172.333 -205.667 195 -407c4.66699 -43.333 7 -84 7 -122c0 -183.333 -43 -307.333 -129 -372c-77.333 -58 -215 -87 -413 -87h-252c-14 0 -24.667 5.5 -32 16.5s-11 29.833 -11 56.5v19c0 23.333 3.5 39.5 10.5 48.5s17.833 13.5 32.5 13.5h263
c263.333 0 398.333 70.667 405 212c0 4 -0.166992 7.66699 -0.5 11s-0.5 6.66602 -0.5 9.99902l-3 18l-17 -6c-19.333 -6 -39.5 -11 -60.5 -15s-42.667 -7 -65 -9s-45.166 -3 -68.499 -3zM266.998 670.001c0 -46.667 16.667 -81.667 50 -105s80.666 -34.666 141.999 -33.999
c57.333 0 115.666 9 174.999 27l12 3l-2 13c-2.66699 19.333 -5.66699 38.166 -9 56.499s-7.16602 35.833 -11.499 52.5s-9.16602 32.5 -14.499 47.5s-11 29.5 -17 43.5c-35.333 78 -86.333 117 -153 117c-76.667 0 -130 -48.333 -160 -145c-8 -26.667 -12 -52 -12 -76z
M284.97 1359.21l133.743 133.743l134.813 -134.812l-133.743 -133.743z" />
    <glyph glyph-name="uniFED4" unicode="&#x641;" horiz-adv-x="1052" arabic-form="medial" 
d="M440 652c-42.667 -42.667 -64 -85.3311 -64 -127.998c0 -9.33301 1 -18.666 3 -27.999s4.83301 -18.833 8.5 -28.5s8.16699 -19.334 13.5 -29.001s11.5 -19.334 18.5 -29.001s14.833 -19.834 23.5 -30.501c52 -60 93.333 -90 124 -90c30 0 71 30 123 90
c45.333 52 68 100 68 144c0 53.333 -32 106 -96 158c-12 10 -23.667 18.167 -35 24.5s-22.5 11.333 -33.5 15s-21.833 5.5 -32.5 5.5c-30.667 0 -71 -24.667 -121 -74zM554 141.003c-113.333 -84 -286.666 -125.999 -519.999 -125.999h-41c-14 0 -24.667 5.5 -32 16.5
s-11 29.833 -11 56.5v19c0 22.667 3.5 38.667 10.5 48s17.833 14 32.5 14h41c175.333 0.666992 291 12 347 34l23 10l-19 16c-102.667 85.333 -154 187 -154 305c0 112 63.667 212.333 191 301c44.667 30.667 93 46 145 46c51.333 0 95.666 -11.333 132.999 -34
c136 -82 204 -190 204 -324c0 -111.333 -51.667 -209.333 -155 -294l-21 -17l25 -9c63.333 -22.667 155 -34 275 -34h30c4.66699 -8.66699 7 -29.334 7 -62.001v-19c0 -38 -2.66699 -62.333 -8 -73h-27c-193.333 0 -346 42 -458 126l-9 7zM427.972 1230.21l133.743 133.743
l134.813 -134.812l-133.743 -133.743z" />
    <glyph glyph-name="uniFED5" unicode="&#x642;" horiz-adv-x="1511" arabic-form="isolated" 
d="M1382 23c-24.667 -156.667 -90.3389 -273.834 -197.006 -351.501s-256 -116.5 -448 -116.5c-68.667 0 -131.5 5 -188.5 15s-108.167 25.333 -153.5 46c-13.333 5.33301 -26.166 11.5 -38.499 18.5s-24.166 14.333 -35.499 22s-22.166 15.667 -32.499 24
s-20.333 17.166 -30 26.499s-18.667 19 -27 29s-16.333 20.5 -24 31.5s-14.5 22.5 -20.5 34.5c-16 27.333 -29.167 57.166 -39.5 89.499s-18.166 67 -23.499 104s-8 76.167 -8 117.5c-0.666992 146 30.333 288.333 93 427l131 -54c-26 -67.333 -45.333 -130 -58 -188
c-14 -62.667 -21 -121.667 -21 -177c1.33301 -139.333 42 -244.166 122 -314.499s197.667 -105.166 353 -104.499c107.333 0 198.333 14.833 273 44.5s132.834 74.334 174.501 134.001s66.167 133.5 73.5 221.5l1 4l1 22l-21 -6c-12 -3.33301 -24.167 -6.5 -36.5 -9.5
s-24.833 -5.66699 -37.5 -8s-25.5 -4.16602 -38.5 -5.49902s-26.333 -2.5 -40 -3.5s-27.5 -1.5 -41.5 -1.5c-105.333 -0.666992 -183.666 20.166 -234.999 62.499s-77.666 107.166 -78.999 194.499c0 28 2.66699 54.667 8 80c21.333 104.667 57.666 183.334 108.999 236.001
c52 54 117.667 81 197 81c10.667 0.666992 21 0.5 31 -0.5s19.833 -2.5 29.5 -4.5s19 -4.66699 28 -8s17.667 -7 26 -11s16.5 -8.66699 24.5 -14c54.667 -35.333 98.834 -87.5 132.501 -156.5s56.5 -155.833 68.5 -260.5c11.333 -97.333 10.666 -187.333 -2.00098 -270z
M863.995 378c0.666992 -47.333 17.6689 -82.668 51.002 -106.001s80.666 -34.666 141.999 -33.999c57.333 0.666992 115.333 9.66699 174 27l13 4l-2 12c-9.33301 79.333 -26.666 146.333 -51.999 201c-8.66699 18.667 -18.334 35.167 -29.001 49.5
s-22.334 26.5 -35.001 36.5s-26.5 17.667 -41.5 23s-30.833 8 -47.5 8c-76.667 0 -130 -48.333 -160 -145c-8 -26.667 -12.333 -52 -13 -76zM1053.93 1072.2l133.743 133.743l134.813 -134.812l-133.743 -133.743zM728.668 1072.2l133.743 133.743l134.813 -134.812
l-133.743 -133.743z" />
    <glyph glyph-name="uniFED6" unicode="&#x642;" horiz-adv-x="1526" arabic-form="final" 
d="M738 -362c162 0 287.168 30.1699 375.501 90.5029s138.166 150.833 149.499 271.5l1 16h-16h-149c-48 0 -90.833 3.83301 -128.5 11.5s-70.5 19 -98.5 34s-51.167 33.833 -69.5 56.5s-32 49 -41 79s-13.5 64 -13.5 102c0 78.667 16.667 153 50 223
c60 125.333 150.333 188 271 188c192.667 0 304 -175.667 334 -527l1 -14h14h114c4.66699 -8.66699 7 -29.334 7 -62.001v-19c0 -18.667 -0.833008 -34.5 -2.5 -47.5s-3.5 -21.5 -5.5 -25.5l-115 1h-13l-2 -14c-18.667 -170.667 -82.667 -298.334 -192 -383.001
s-266 -127.334 -470 -128.001c-68.667 0 -131.5 5.16699 -188.5 15.5s-108.167 25.5 -153.5 45.5c-46.667 20.667 -87.334 46.5 -122.001 77.5s-63.667 67.167 -87 108.5c-46 83.333 -69.333 187 -70 311c-0.666992 146 30 288.333 92 427l132 -54
c-13.333 -34 -24.666 -66.5 -33.999 -97.5s-17.333 -61.167 -24 -90.5c-14 -62.667 -21 -121.667 -21 -177c1.33301 -138.667 42 -243.167 122 -313.5s197.667 -105.5 353 -105.5zM1265 186.003c-15.333 242.667 -84.6689 364.333 -208.002 365
c-23.333 0 -44.666 -5 -63.999 -15s-36.166 -24.667 -50.499 -44s-26.5 -43 -36.5 -71c-4 -12.667 -7.5 -25 -10.5 -37s-5.16699 -23.833 -6.5 -35.5s-2 -23.167 -2 -34.5c0 -48 17.5 -84 52.5 -108s84.833 -36 149.5 -36h161h16zM1062.93 1025.21l133.743 133.743
l134.813 -134.812l-133.743 -133.743zM737.669 1025.21l133.743 133.743l134.813 -134.812l-133.743 -133.743z" />
    <glyph glyph-name="uniFED7" unicode="&#x642;" horiz-adv-x="907" arabic-form="initial" 
d="M446 387c-105.333 0 -183.668 21.168 -235.001 63.501s-77.666 106.5 -78.999 192.5c0 28 2.66699 54.667 8 80c19.333 102.667 55.666 181.667 108.999 237c52.667 54 118.334 81 197.001 81c53.333 0 99.666 -12.667 138.999 -38
c107.333 -70 172.333 -205.667 195 -407c4.66699 -43.333 7 -84 7 -122c0 -183.333 -43 -307.333 -129 -372c-77.333 -58 -215 -87 -413 -87h-252c-14 0 -24.667 5.5 -32 16.5s-11 29.833 -11 56.5v19c0 23.333 3.5 39.5 10.5 48.5s17.833 13.5 32.5 13.5h263
c263.333 0 398.333 70.667 405 212c0 4 -0.166992 7.66699 -0.5 11s-0.5 6.66602 -0.5 9.99902l-3 18l-17 -6c-19.333 -6 -39.5 -11 -60.5 -15s-42.667 -7 -65 -9s-45.166 -3 -68.499 -3zM266.998 670.001c0 -46.667 16.667 -81.667 50 -105s80.666 -34.666 141.999 -33.999
c57.333 0 115.666 9 174.999 27l12 3l-2 13c-2.66699 19.333 -5.66699 38.166 -9 56.499s-7.16602 35.833 -11.499 52.5s-9.16602 32.5 -14.499 47.5s-11 29.5 -17 43.5c-35.333 78 -86.333 117 -153 117c-76.667 0 -130 -48.333 -160 -145c-8 -26.667 -12 -52 -12 -76z
M449.933 1356.21l133.743 133.743l134.813 -134.812l-133.743 -133.743zM124.669 1356.21l133.743 133.743l134.813 -134.812l-133.743 -133.743z" />
    <glyph glyph-name="uniFED8" unicode="&#x642;" horiz-adv-x="1052" arabic-form="medial" 
d="M440 652c-42.667 -42.667 -64 -85.3311 -64 -127.998c0 -9.33301 1 -18.666 3 -27.999s4.83301 -18.833 8.5 -28.5s8.16699 -19.334 13.5 -29.001s11.5 -19.334 18.5 -29.001s14.833 -19.834 23.5 -30.501c52 -60 93.333 -90 124 -90c30 0 71 30 123 90
c45.333 52 68 100 68 144c0 53.333 -32 106 -96 158c-12 10 -23.667 18.167 -35 24.5s-22.5 11.333 -33.5 15s-21.833 5.5 -32.5 5.5c-30.667 0 -71 -24.667 -121 -74zM554 141.003c-113.333 -84 -286.666 -125.999 -519.999 -125.999h-41c-14 0 -24.667 5.5 -32 16.5
s-11 29.833 -11 56.5v19c0 22.667 3.5 38.667 10.5 48s17.833 14 32.5 14h41c175.333 0.666992 291 12 347 34l23 10l-19 16c-102.667 85.333 -154 187 -154 305c0 112 63.667 212.333 191 301c44.667 30.667 93 46 145 46c51.333 0 95.666 -11.333 132.999 -34
c136 -82 204 -190 204 -324c0 -111.333 -51.667 -209.333 -155 -294l-21 -17l25 -9c63.333 -22.667 155 -34 275 -34h30c4.66699 -8.66699 7 -29.334 7 -62.001v-19c0 -38 -2.66699 -62.333 -8 -73h-27c-193.333 0 -346 42 -458 126l-9 7zM581.935 1221.21l133.743 133.743
l134.813 -134.812l-133.743 -133.743zM256.671 1221.21l133.743 133.743l134.813 -134.812l-133.743 -133.743z" />
    <glyph glyph-name="uniFED9" unicode="&#x643;" horiz-adv-x="1997" arabic-form="isolated" 
d="M940 169c62.667 0 132.997 3.66992 210.997 11.0029c165.333 15.333 289.833 55.666 373.5 120.999s124.5 155.666 122.5 270.999v848h148v-846c0 -173.333 -54 -304.666 -162 -393.999c-131.333 -110 -361.666 -165 -690.999 -165c-324 0 -546.667 44.333 -668 133
c-106 77.333 -159.333 196.333 -160 357c0 20 0.833008 39.667 2.5 59s4.16699 38.166 7.5 56.499s7.5 36 12.5 53s10.833 33.5 17.5 49.5l131 -57c-15.333 -44.667 -22.666 -94.334 -21.999 -149.001c0.666992 -56.667 11.834 -106.167 33.501 -148.5
s53.834 -76.833 96.501 -103.5c101.333 -63.333 283.666 -95.333 546.999 -96zM730.997 715.003c19.333 -1.33301 37.5039 -2.66602 54.5039 -3.99902s33.167 -2.5 48.5 -3.5s30 -1.5 44 -1.5c36.667 0 68.667 1.83301 96 5.5s50.666 9.5 69.999 17.5
c13.333 5.33301 24.666 12 33.999 20s16.5 17.333 21.5 28s7.83301 22 8.5 34c0 8.66699 -0.833008 16.667 -2.5 24s-4 14.5 -7 21.5s-6.66699 13.5 -11 19.5s-9.5 11.333 -15.5 16c-22 19.333 -55 32 -99 38c-46 7.33301 -83.667 19.5 -113 36.5s-50.833 38.833 -64.5 65.5
s-20.167 58.667 -19.5 96c3.33301 126 124.333 199 363 219v-98c-84.667 -8.66699 -149.167 -23.167 -193.5 -43.5s-66.5 -48.833 -66.5 -85.5c0 -20 6.33301 -37.5 19 -52.5s30 -27.167 52 -36.5s49 -16.333 81 -21c61.333 -9.33301 106.666 -30 135.999 -62
s43.666 -76 42.999 -132c0 -74.667 -37 -132.334 -111 -173.001c-48 -26 -115.667 -39 -203 -39c-49.333 0 -104.333 4.33301 -165 13v98z" />
    <glyph glyph-name="uniFEDA" unicode="&#x643;" horiz-adv-x="2071" arabic-form="final" 
d="M731 715c19.333 -1.33301 37.5029 -2.66699 54.5029 -4s33.167 -2.5 48.5 -3.5s30 -1.5 44 -1.5c36.667 0 68.667 1.83301 96 5.5s50.666 9.5 69.999 17.5c13.333 5.33301 24.666 12 33.999 20s16.5 17.333 21.5 28s7.83301 22 8.5 34
c0 8.66699 -0.833008 16.667 -2.5 24s-4 14.5 -7 21.5s-6.66699 13.5 -11 19.5s-9.5 11.333 -15.5 16c-22 19.333 -55 32 -99 38c-46 7.33301 -83.667 19.5 -113 36.5s-50.833 38.833 -64.5 65.5s-20.167 58.667 -19.5 96c3.33301 126 124.333 199 363 219v-98
c-84.667 -8.66699 -149.167 -23.167 -193.5 -43.5s-66.5 -48.833 -66.5 -85.5c0 -20 6.33301 -37.5 19 -52.5s30 -27.167 52 -36.5s49 -16.333 81 -21c61.333 -9.33301 106.666 -30 135.999 -62s43.666 -76 42.999 -132c0 -73.333 -37 -131 -111 -173
c-48 -26 -115.667 -39 -203 -39c-12 0 -24.5 0.333008 -37.5 1s-26.5 1.5 -40.5 2.5s-28.167 2.33301 -42.5 4s-29.166 3.5 -44.499 5.5v98zM952.003 168.999c31.333 0 63.668 0.832031 97.001 2.49902s67.333 4.5 102 8.5c165.333 16.667 289.833 56 373.5 118
s124.5 146.667 122.5 254v868h148v-867c0 -125.333 21.667 -220.666 65 -285.999s108.666 -98 195.999 -98h21c0.666992 -1.33301 1.5 -3.66602 2.5 -6.99902s1.83301 -7.33301 2.5 -12s1.16699 -10.334 1.5 -17.001s0.5 -13.667 0.5 -21v-24c0 -38 -2.66699 -62.333 -8 -73
h-28c-90 0 -162.667 18 -218 54c-55.333 36.667 -94.666 91 -117.999 163l-2 6l-9 29l-18 -25l-3 -5c-24.667 -34.667 -57.834 -65.834 -99.501 -93.501s-92.5 -51.5 -152.5 -71.5c-115.333 -38 -277.333 -57 -486 -57c-324 0 -546.667 44.333 -668 133
c-35.333 25.333 -64.833 55.5 -88.5 90.5s-41.5 74.667 -53.5 119s-18 93.5 -18 147.5c0 80.667 13.333 153.334 40 218.001l131 -57c-15.333 -44.667 -22.666 -94.334 -21.999 -149.001c1.33301 -114.667 44.666 -198.667 129.999 -252
c34 -21.333 77.5 -39.166 130.5 -53.499s115 -25 186 -32s151.833 -10.5 242.5 -10.5z" />
    <glyph glyph-name="uniFEDB" unicode="&#x643;" horiz-adv-x="950" arabic-form="initial" 
d="M590 649c84 -90.667 125 -189.997 123 -297.997c-4 -224 -196.333 -336 -577 -336h-143c-14 0 -24.667 5.5 -32 16.5s-11 29.833 -11 56.5v19c0 23.333 3.5 39.5 10.5 48.5s17.833 13.5 32.5 13.5h142c285.333 0 428.333 68.667 429 206c0 69.333 -36.333 138 -109 206
c-102 95.333 -193.333 174.666 -274 237.999c-24.667 19.333 -45 38.666 -61 57.999s-27.833 38.833 -35.5 58.5s-11.5 39.167 -11.5 58.5c0 79.333 43.333 135.666 130 168.999l673 255v-148l-663 -247l-24 -9l20 -17c174 -145.333 301 -261.333 381 -348z" />
    <glyph glyph-name="uniFEDC" unicode="&#x643;" horiz-adv-x="1027" arabic-form="medial" 
d="M209 997c174 -145.333 300.998 -261.329 380.998 -347.996c52.667 -56.667 94.667 -129.667 126 -219c60.667 -174 161.334 -261 302.001 -261h14c2 -3.33301 3.66699 -10.5 5 -21.5s2 -24.5 2 -40.5v-19c0 -38 -2.66699 -62.333 -8 -73h-13
c-35.333 0 -68.666 3.5 -99.999 10.5s-61 17.667 -89 32s-54.333 32.166 -79 53.499s-47.667 46.333 -69 75l-13 17l-12 -18c-72.667 -113.333 -246 -170 -520 -170h-143c-14 0 -24.667 5.5 -32 16.5s-11 29.833 -11 56.5v19c0 23.333 3.5 39.5 10.5 48.5
s17.833 13.5 32.5 13.5h142c285.333 0 428.333 68.667 429 206c0 69.333 -36.333 138 -109 206c-102 95.333 -193.333 174.666 -274 237.999c-24.667 19.333 -45 38.666 -61 57.999s-27.833 38.833 -35.5 58.5s-11.5 39.167 -11.5 58.5c0 79.333 43.333 135.666 130 168.999
l673 255v-148l-663 -247l-24 -9z" />
    <glyph glyph-name="uniFEDD" unicode="&#x644;" horiz-adv-x="1441" arabic-form="isolated" 
d="M1128 100l2.99707 1323h142l-1 -1124c0 -96 -3 -185.667 -9 -269c-6.66699 -90 -23.667 -168.5 -51 -235.5s-65.166 -122.667 -113.499 -167s-107.166 -77.5 -176.499 -99.5s-149.666 -33 -240.999 -33c-190 0 -331.5 45.167 -424.5 135.5
s-139.167 227.166 -138.5 410.499c0 33.333 1.66699 66.333 5 99s8.33301 65.334 15 98.001c13.333 63.333 32.333 126.333 57 189l131 -54c-42 -111.333 -63 -223 -63 -335c0 -130.667 35.333 -229.334 106 -296.001s175 -100 313 -100c98 0 180 17.167 246 51.5
s115.667 85.5 149 153.5s50.333 152.333 51 253z" />
    <glyph glyph-name="uniFEDE" unicode="&#x644;" horiz-adv-x="1526" arabic-form="final" 
d="M1129 100l1.99902 1322h142l-1 -1027c0 -16.667 1 -32.334 3 -47.001s5.16699 -28.5 9.5 -41.5s9.5 -25 15.5 -36s13 -21.167 21 -30.5s17.167 -17.833 27.5 -25.5s21.5 -14.334 33.5 -20.001s24.833 -10.334 38.5 -14.001s28.334 -6.5 44.001 -8.5s32.5 -3 50.5 -3h18
c2 -3.33301 3.66699 -10 5 -20s2 -22.333 2 -37v-24c0 -38 -2.66699 -62.333 -8 -73h-22c-99.333 0 -172.333 23.667 -219 71l-25 24l-1 -34c-8 -195.333 -60.333 -341 -157 -437s-239 -144 -427 -144c-190 0 -331.5 44.833 -424.5 134.5s-139.167 225.5 -138.5 407.5
c0 68 6.66699 135 20 201c13.333 63.333 32.333 126.333 57 189l131 -54c-42 -111.333 -63 -223 -63 -335c0 -130.667 35.333 -229.334 106 -296.001s175 -100 313 -100c147.333 0 258.5 38.5 333.5 115.5s112.833 191.167 113.5 342.5z" />
    <glyph glyph-name="uniFEDF" unicode="&#x644;" horiz-adv-x="635" arabic-form="initial" 
d="M-7 15c-14 0 -24.668 5.5 -32.001 16.5s-11 29.833 -11 56.5v19c0 23.333 3.5 39.5 10.5 48.5s17.833 13.5 32.5 13.5h48c92.667 0 162.834 22.5 210.501 67.5s71.5 111.167 71.5 198.5v988h144v-994c0 -93.333 -15.667 -170.5 -47 -231.5s-78.833 -106.667 -142.5 -137
s-144.167 -45.5 -241.5 -45.5h-43z" />
    <glyph glyph-name="uniFEE0" unicode="&#x644;" horiz-adv-x="718" arabic-form="medial" 
d="M43 15l-50 0.000976562c-14 0 -24.667 5.5 -32 16.5s-11 29.833 -11 56.5v19c0 23.333 3.5 39.5 10.5 48.5s17.833 13.5 32.5 13.5h52c60.667 0 111.834 8.16699 153.501 24.5s73.5 41.166 95.5 74.499s33 74.333 33 123l5 1032h143v-1032
c0 -72.667 19.667 -127.834 59 -165.501s96.666 -56.5 171.999 -56.5h16c2.66699 -2 5 -8.5 7 -19.5s3 -25.167 3 -42.5v-19c0 -39.333 -3.33301 -63.666 -10 -72.999h-14c-138 0 -239.333 45 -304 135l-12 18l-12 -18c-62 -90 -174.333 -135 -337 -135z" />
    <glyph glyph-name="uniFEE1" unicode="&#x645;" horiz-adv-x="1242" arabic-form="isolated" 
d="M842 143c47.333 -0.666992 83.332 12.333 107.999 39s37 65 37 115c-0.666992 40.667 -8.33398 79 -23.001 115c-31.333 78 -88.666 117.667 -171.999 119c-49.333 0.666992 -92.666 -17.5 -129.999 -54.5s-69 -91.167 -95 -162.5l-3 -10l8 -7
c117.333 -102.667 207.333 -154 270 -154zM1128 309c0 -91.333 -21.9961 -166.667 -65.9961 -226c-44 -60.667 -114 -91 -210 -91c-32 0 -67.833 7.16699 -107.5 21.5s-82.834 35.5 -129.501 63.5c-32.667 20 -67.334 39.333 -104.001 58
c-24.667 12.667 -52.334 18.667 -83.001 18c-58.667 -0.666992 -101.334 -44.167 -128.001 -130.5s-39.667 -213.166 -39 -380.499c0 -62 1 -121.667 3 -179s5.33301 -111.666 10 -162.999h-150c-7.33301 121.333 -10.666 236.666 -9.99902 345.999
c2 239.333 27.667 408 77 506c50 97.333 118 152.666 204 165.999l8 1l4 8c95.333 241.333 222.666 362.333 381.999 363c103.333 0.666992 185.333 -36.333 246 -111c62 -74.667 93 -164.667 93 -270z" />
    <glyph glyph-name="uniFEE2" unicode="&#x645;" horiz-adv-x="1306" arabic-form="final" 
d="M847 144c46.667 -0.666992 81.9971 12.333 105.997 39s35.333 65 34 115c-0.666992 40.667 -9 79.334 -25 116.001c-11.333 25.333 -25.166 46.666 -41.499 63.999s-35.333 30.5 -57 39.5s-45.5 13.5 -71.5 13.5c-49.333 0.666992 -92.666 -17.5 -129.999 -54.5
s-69 -91.167 -95 -162.5l-3 -10l8 -7c116.667 -102 208.334 -153 275.001 -153zM1311 169c5.33301 -8.66699 7.99805 -29.3359 7.99805 -62.0029v-19c0 -38 -2.66699 -62.333 -8 -73h-13c-76 0 -136.333 35 -181 105l-13 20l-13 -20c-52 -86 -126.333 -128.667 -223 -128h-5
h-5c-48 0 -107.333 16.333 -178 49c-25.333 12 -70 37.667 -134 77c-41.333 24.667 -80.666 36.334 -117.999 35.001c-58.667 -1.33301 -101.334 -45.166 -128.001 -131.499s-39.667 -212.833 -39 -379.5c0 -62 1 -121.667 3 -179s5.33301 -111.666 10 -162.999h-150
c-6.66699 108.667 -10 224 -10 346c0 235.333 25.667 404 77 506c50 97.333 118 152.666 204 165.999l8 1l4 8c94.667 241.333 222.667 362.333 384 363c102 0 183.333 -38 244 -114c8 -9.33301 15.5 -19.666 22.5 -30.999s13.5 -23.5 19.5 -36.5s11.833 -26.833 17.5 -41.5
s10.834 -30.167 15.501 -46.5s8.66699 -33.5 12 -51.5c7.33301 -32 16.166 -60.333 26.499 -85s22.833 -45.667 37.5 -63s31.334 -30.333 50.001 -39s39.334 -13 62.001 -13h13z" />
    <glyph glyph-name="uniFEE3" unicode="&#x645;" horiz-adv-x="1050" arabic-form="initial" 
d="M631 142c50 0 88.333 13.001 115 39.001s40 63.667 40 113c0 45.333 -7.33301 84.666 -22 117.999c-34 78.667 -91.667 118 -173 118c-98.667 0 -174 -72.333 -226 -217l-3 -8l6 -7c91.333 -104 179 -156 263 -156zM282 153.001c-79.333 -92 -169 -138 -269 -138h-21
c-9.33301 0 -16.833 2.16699 -22.5 6.5s-10.334 12 -14.001 23s-5.5 25.5 -5.5 43.5v19c0 23.333 3.33301 39.5 10 48.5s17.334 13.5 32.001 13.5h16c58.667 0 115.667 33.333 171 100c24 28.667 50 75 78 139c85.333 187.333 195.333 281.333 330 282
c53.333 0 100.5 -9.33301 141.5 -28s76.833 -47 107.5 -85c60.667 -76 91 -165.333 91 -268c0 -99.333 -21 -174 -63 -224c-52.667 -61.333 -125.667 -92 -219 -92c-125.333 0 -239 53.333 -341 160l-11 12z" />
    <glyph glyph-name="uniFEE4" unicode="&#x645;" horiz-adv-x="1102" arabic-form="medial" 
d="M632 142c51.333 -0.666992 90.668 12.333 118.001 39s40.333 65 39 115c0 14 -1 27.5 -3 40.5s-4.83301 25.833 -8.5 38.5s-8.16699 25 -13.5 37c-34 78 -92.333 117.333 -175 118c-16.667 0 -32.5 -2 -47.5 -6s-29.5 -10.167 -43.5 -18.5s-27.167 -18.5 -39.5 -30.5
s-24 -26.167 -35 -42.5s-21.333 -34.333 -31 -54s-18.834 -41.5 -27.501 -65.5l-3 -8l6 -7c89.333 -103.333 177.333 -155.333 264 -156zM643.002 -7c-118.667 0 -231.668 53.334 -339.001 160.001l-12 12l-10 -12c-79.333 -92 -169 -138 -269 -138h-21
c-9.33301 0 -16.833 2.16699 -22.5 6.5s-10.334 12 -14.001 23s-5.5 25.5 -5.5 43.5v19c0 23.333 3.33301 39.5 10 48.5s17.334 13.5 32.001 13.5h16c66.667 0 124.334 33.667 173.001 101c24.667 33.333 50 79.666 76 138.999c84.667 186.667 194.667 280.334 330 281.001
c52 0 98.167 -9.33301 138.5 -28s75.5 -47 105.5 -85c22 -28 40.5 -59.333 55.5 -94s27.167 -72.667 36.5 -114c28 -133.333 85.333 -200 172 -200h13c4.66699 -8.66699 7 -29.334 7 -62.001v-19c0 -38 -2.66699 -62.333 -8 -73h-13c-72 0 -130.667 35 -176 105l-12 19
l-13 -19c-54 -84.667 -137.333 -127 -250 -127z" />
    <glyph glyph-name="uniFEE5" unicode="&#x646;" horiz-adv-x="1475" arabic-form="isolated" 
d="M716 -295c162 0.666992 284.333 39.498 367 116.498s123.667 190.833 123 341.5c0 125.333 -28 248 -84 368l144 51c60.667 -155.333 91 -295.333 91 -420c-0.666992 -121.333 -22.667 -226 -66 -314c-96.667 -193.333 -291.334 -289.666 -584.001 -288.999
c-198 0 -345.5 44.5 -442.5 133.5s-145.833 223.833 -146.5 404.5c0 136 31.333 281.667 94 437l131 -54c-53.333 -138 -79.666 -266.333 -78.999 -385c0.666992 -129.333 39.167 -226.666 115.5 -291.999s188.5 -98 336.5 -98zM581.972 687.202l133.743 133.743
l134.813 -134.812l-133.743 -133.743z" />
    <glyph glyph-name="uniFEE6" unicode="&#x646;" horiz-adv-x="1549" arabic-form="final" 
d="M580.972 615.204l133.743 133.743l134.813 -134.812l-133.743 -133.743zM1355 56c-0.666992 -90 -22.334 -178.667 -65.001 -266c-96 -196.667 -290.333 -295 -583 -295c-393.333 0 -590 182 -590 546c0 130.667 31.333 274 94 430l131 -54
c-52.667 -138 -79 -262.667 -79 -374c0 -132.667 38 -232.667 114 -300s188.333 -101 337 -101c162 0 284.333 38.667 367 116s124.334 192 125.001 344c0 120 -28.333 240.333 -85 361l143 50l68 -214c9.33301 -28.667 23.5 -52.667 42.5 -72s42.167 -33.833 69.5 -43.5
s59 -14.5 95 -14.5h17c4.66699 -8 7 -27 7 -57v-24c0 -38 -2.66699 -62.333 -8 -73h-12c-72 0 -126.333 17.333 -163 52l-25 24v-35z" />
    <glyph glyph-name="uniFEE7" unicode="&#x646;" horiz-adv-x="646" arabic-form="initial" 
d="M69 15l-76.001 0.000976562c-14 0 -24.667 5.5 -32 16.5s-11 29.833 -11 56.5v19c0 23.333 3.5 39.5 10.5 48.5s17.833 13.5 32.5 13.5h76c109.333 0 184 11.333 224 34c62 36 93 110 93 222c0 9.33301 -0.166992 19 -0.5 29s-0.833008 20 -1.5 30s-1.5 20.167 -2.5 30.5
s-2.33301 20.833 -4 31.5l-5 32.5c-1.66699 11 -3.5 22 -5.5 33s-4.16699 22.167 -6.5 33.5s-5.16602 22.666 -8.49902 33.999l135 34c29.333 -98 44 -193 44 -285c0 -158.667 -45 -271.667 -135 -339c-64.667 -49.333 -173.667 -74 -327 -74zM190.971 1046.21
l133.743 133.743l134.813 -134.812l-133.743 -133.743z" />
    <glyph glyph-name="uniFEE8" unicode="&#x646;" horiz-adv-x="717" arabic-form="medial" 
d="M730 88c0 -18.667 -0.834961 -34.499 -2.50195 -47.499s-3.5 -21.5 -5.5 -25.5h-7c-126 0 -212.333 44.333 -259 133l-12 22l-14 -20c-63.333 -90 -174.666 -135 -333.999 -135h-104c-9.33301 0 -16.833 2.16699 -22.5 6.5s-10.334 12 -14.001 23s-5.5 25.5 -5.5 43.5v19
c0 23.333 3.33301 39.5 10 48.5s17.334 13.5 32.001 13.5h99c162 0 252 48 270 144c4.66699 24.667 7 53.334 7 86.001c0 34 -1 66 -3 96l-5 67l135 16l15 -215c3.33301 -42.667 13.333 -78.334 30 -107.001s39.834 -50.334 69.501 -65.001s65.5 -22 107.5 -22h5
c5.33301 -10 8 -33.667 8 -71v-10zM235.97 960.205l133.743 133.743l134.813 -134.812l-133.743 -133.743z" />
    <glyph glyph-name="uniFEE9" unicode="&#x647;" horiz-adv-x="942" arabic-form="isolated" 
d="M452 655c-130 -113.333 -195 -214.665 -195 -303.998c0 -24 3 -45.667 9 -65s15 -36.333 27 -51s26.833 -26.834 44.5 -36.501s38 -17 61 -22s48.5 -7.5 76.5 -7.5c72 0 126.833 15.5 164.5 46.5s56.167 76.5 55.5 136.5c0 83.333 -74.667 184.666 -224 303.999l-10 8z
M396 935.001c293.333 -216 440.002 -412.332 440.002 -588.999c0 -120.667 -52.667 -213.667 -158 -279c-24.667 -15.333 -53.834 -27 -87.501 -35s-71.834 -12.333 -114.501 -13c-78 0 -144.667 13.667 -200 41c-106.667 53.333 -160 148.666 -160 285.999
c0 133.333 77.333 275.333 232 426l12 11l-12 11l-35 30z" />
    <glyph glyph-name="uniFEEA" unicode="&#x647;" horiz-adv-x="1063" arabic-form="final" 
d="M126 406c0 188.667 169.335 334.997 508.002 438.997l13 4l-2 13l-6 31l132 28l80 -576c5.33301 -38 16.5 -70.167 33.5 -96.5s39.5 -46.166 67.5 -59.499s61.333 -20 100 -20h18c4.66699 -8 7 -27 7 -57v-24c0 -18.667 -0.833008 -34.5 -2.5 -47.5
s-3.5 -21.5 -5.5 -25.5h-21c-88.667 0 -158.334 17.833 -209.001 53.5s-84 89.5 -100 161.5l-5 25l-19 -17c-26 -22.667 -52.833 -41.5 -80.5 -56.5s-56.334 -26.167 -86.001 -33.5s-60.5 -11 -92.5 -11c-143.333 0 -242.666 46.333 -297.999 139
c-4 6.66699 -7.66699 13.834 -11 21.501s-6.33301 15.667 -9 24s-4.83398 17 -6.50098 26s-3 18.333 -4 28s-1.5 19.834 -1.5 30.501zM646.002 706.997c-123.333 -44.667 -216.166 -90.668 -278.499 -138.001s-93.5 -97.666 -93.5 -150.999
c0 -45.333 15.167 -79.5 45.5 -102.5s73.833 -34.5 130.5 -34.5c26.667 0 53.667 4.16699 81 12.5s54.333 20.5 81 36.5c69.333 42.667 96.666 111 81.999 205l-20 133l-5 28l-2 18l-18 -6z" />
    <glyph glyph-name="uniFEEB" unicode="&#x647;" horiz-adv-x="1395" arabic-form="initial" 
d="M95 15l-101.999 -0.000976562c-14 0 -24.667 5.5 -32 16.5s-11 29.833 -11 56.5v19c0 23.333 3.5 39.5 10.5 48.5s17.833 13.5 32.5 13.5h265h50h47l-39 27c-13.333 9.33301 -25.333 18.833 -36 28.5s-20 19.167 -28 28.5
c-49.333 56.667 -73.666 119.334 -72.999 188.001c0 38.667 6.66699 75.5 20 110.5s33.666 68.167 60.999 99.5c66.667 77.333 151.667 116 255 116c95.333 0 174.666 -30 237.999 -90c53.333 -50 80.333 -114 81 -192c0 -115.333 -50.333 -203.666 -151 -264.999l-35 -22
l41 -6c108 -15.333 178 -23 210 -23c24 0 45 1.16699 63 3.5s33.667 6.16602 47 11.499c39.333 15.333 69 37.5 89 66.5s30.333 63.833 31 104.5c0.666992 84.667 -46.333 170.334 -141 257.001s-236 175.667 -424 267l72 128c432 -212.667 646 -430 642 -652
c-0.666992 -47.333 -8.16699 -90.5 -22.5 -129.5s-35.833 -74.167 -64.5 -105.5c-62 -69.333 -159.333 -104 -292 -104c-102.667 -0.666992 -229 22.666 -379 69.999l-4 2l-4 -2c-160.667 -47.333 -299.667 -71 -417 -71zM631.001 321.999c48.667 46 74 97.666 76 154.999
c0 38.667 -11 70 -33 94c-38.667 42.667 -88.667 64 -150 64c-18.667 0 -36 -2 -52 -6s-31 -10 -45 -18s-26.833 -17.833 -38.5 -29.5s-22.167 -25.167 -31.5 -40.5c-17.333 -29.333 -26.333 -64 -27 -104c0 -46.667 22 -89.667 66 -129c20 -18 41.667 -32.333 65 -43
c8 -4 16.5 -7.66699 25.5 -11s18.167 -6 27.5 -8l5 -1l5 2c10 4.66699 20.333 10.334 31 17.001c28.667 18 54 37.333 76 58z" />
    <glyph glyph-name="uniFEEC" unicode="&#x647;" horiz-adv-x="992" arabic-form="medial" 
d="M588 -345c0.666992 173.333 33.333 302.334 98 387.001s162 127 292 127h19c5.33301 -8.66699 8 -29.334 8 -62.001v-19c0 -38 -2.66699 -62.333 -8 -73h-21h-7h-5.5c-1.66699 0 -3.5 -0.166992 -5.5 -0.5s-4 -0.5 -6 -0.5h-6c-90.667 -8 -155.167 -51 -193.5 -129
s-51.5 -188.333 -39.5 -331l-110 -106c-212 104 -339.667 288.667 -383 554l-3 13h-12h-212c-14 0 -24.667 5.5 -32 16.5s-11 29.833 -11 56.5v19c0 23.333 3.5 39.5 10.5 48.5s17.833 13.5 32.5 13.5h199h14l1 14c13.333 282.667 66.333 474 159 574
c26 28 55 48.833 87 62.5s67 20.5 105 20.5c76.667 0 137.334 -27 182.001 -81c45.333 -54.667 67.666 -131.667 66.999 -231c-2 -128.667 -48.333 -246 -139 -352c-86.667 -102.667 -187 -156.667 -301 -162l-17 -1l3 -17c27.333 -162 98 -280 212 -354l23 -15v28z
M358.999 168.001c82.667 2 155.999 37.332 219.999 105.999c63.333 68 95 154.667 95 260c0 46 -9.66699 81.833 -29 107.5s-47.666 39.167 -84.999 40.5c-67.333 2 -118.333 -39.167 -153 -123.5s-55.667 -209.166 -63 -374.499l-1 -17z" />
    <glyph glyph-name="uniFEED" unicode="&#x648;" horiz-adv-x="900" arabic-form="isolated" 
d="M646 203c-7.33301 113.333 -28.1689 199.499 -62.502 258.499s-83.166 88.5 -146.499 88.5c-71.333 0 -121.666 -43.333 -150.999 -130c-12.667 -38 -19 -73.667 -19 -107c0 -50.667 18.333 -88.667 55 -114s89 -38 157 -38c50 0.666992 102 9.33398 156 26.001l11 4v12z
M477.997 12.999c-118.667 0 -206.667 23.499 -264 70.499s-86 118.5 -86 214.5c0 78.667 16.667 153 50 223c20.667 42 44.334 77 71.001 105s56.667 48.833 90 62.5s70 20.5 110 20.5c129.333 0 222 -73 278 -219c40 -104 59.667 -220.667 59 -350
c-2.66699 -327.333 -183.667 -526 -543 -596c-38 -7.33301 -77.333 -13.333 -118 -18l-36 141c311.333 35.333 495.333 149.333 552 342l6 22l-23 -3c-12.667 -2 -24.834 -3.66699 -36.501 -5s-22.5 -2.5 -32.5 -3.5s-19 -2 -27 -3s-15.167 -1.66699 -21.5 -2
s-12 -0.666016 -17 -0.999023s-8.83301 -0.5 -11.5 -0.5z" />
    <glyph glyph-name="uniFEEE" unicode="&#x648;" horiz-adv-x="893" arabic-form="final" 
d="M646 185c-16 242.667 -85.335 364.333 -208.002 365c-35.333 0.666992 -65.666 -10.166 -90.999 -32.499s-45.666 -54.833 -60.999 -97.5c-12.667 -36.667 -19 -72.334 -19 -107.001c0 -48 17.5 -84 52.5 -108s84.833 -36 149.5 -36h162h16zM797.998 167.999
l99.9971 0.000976562c5.33301 -10 8 -33.333 8 -70v-10c0 -38 -2.66699 -62.333 -8 -73l-109 1h-13l-2 -12c-48 -276.667 -264 -436 -648 -478l-36 142c312.667 37.333 495.667 146.666 549 327.999l6 19h-20h-146c-119.333 0 -207.666 23.5 -264.999 70.5
s-86 117.833 -86 212.5c0 78.667 16.667 153 50 223c30.667 63.333 68.334 110.5 113.001 141.5s97.334 46.5 158.001 46.5c192.667 0 304 -175.667 334 -527l1 -14h14z" />
    <glyph glyph-name="uniFEEF" unicode="&#x649;" horiz-adv-x="1524" arabic-form="isolated" 
d="M263 41c0 -125.333 41.1699 -219.835 123.503 -283.502s203.833 -95.834 364.5 -96.501c120.667 0 228.667 22.333 324 67c50.667 23.333 95 54.333 133 93c39.333 40.667 59 87 59 139c0 15.333 -4 28.5 -12 39.5s-18.833 19.167 -32.5 24.5s-29.834 8 -48.501 8l-114 1
c-53.333 0 -97.333 6.83301 -132 20.5s-60.334 34 -77.001 61s-25 61.167 -25 102.5c0 122 38.667 225.333 116 310c100 109.333 241.667 164 425 164h6v-163h-7c-36.667 0 -71.167 -2.83301 -103.5 -8.5s-62.666 -14 -90.999 -25s-54.5 -25.167 -78.5 -42.5
c-37.333 -26 -65.833 -55.5 -85.5 -88.5s-29.834 -68.833 -30.501 -107.5c0 -11.333 1.66699 -21.666 5 -30.999s8.66602 -17.333 15.999 -24c14 -11.333 35.333 -17 64 -17h119c76 0.666992 132 -14.166 168 -44.499s54 -76.833 54 -139.5
c0 -186.667 -93 -322.667 -279 -408c-110.667 -50.667 -236.667 -76 -378 -76c-211.333 0 -368.833 43.333 -472.5 130s-155.5 217.334 -155.5 392.001c0 138 44 308 132 510l131 -54c-78.667 -182 -118 -333 -118 -453z" />
    <glyph glyph-name="uniFEF0" unicode="&#x649;" horiz-adv-x="1523" arabic-form="final" 
d="M1527 169c2 -3.33301 3.83496 -10.498 5.50195 -21.498s2.5 -24.5 2.5 -40.5v-19c0 -38 -2.66699 -62.333 -8 -73h-140h-25h-43l34 -27c8.66699 -6.66699 16.167 -13.667 22.5 -21s11.666 -15.333 15.999 -24s7.5 -17.667 9.5 -27s3 -19 3 -29
c0 -48 -14.333 -93.333 -43 -136s-72.334 -83 -131.001 -121c-136 -88.667 -297.333 -133 -484 -133c-211.333 0 -368.833 41.667 -472.5 125s-155.5 209.333 -155.5 378c0 135.333 31.333 273.333 94 414l132 -54c-54 -139.333 -81 -255.333 -81 -348
c0 -122.667 40.833 -214.834 122.5 -276.501s201.5 -92.5 359.5 -92.5c119.333 0 227 22 323 66c78.667 35.333 135 79 169 131c17.333 26 26 51 26 75c0 59.333 -39.333 92.666 -118 99.999c-9.33301 0.666992 -19 1 -29 1h-152c-15.333 2 -28.5 9.5 -39.5 22.5
s-19.5 32.833 -25.5 59.5c-6.66699 27.333 -10 47 -10 59l1 12h637z" />
    <glyph glyph-name="uniFEF1" unicode="&#x64a;" horiz-adv-x="1524" arabic-form="isolated" 
d="M263 41c0 -125.333 41.1699 -219.835 123.503 -283.502s203.833 -95.834 364.5 -96.501c120.667 0 228.667 22.333 324 67c50.667 23.333 95 54.333 133 93c39.333 40.667 59 87 59 139c0 15.333 -4 28.5 -12 39.5s-18.833 19.167 -32.5 24.5s-29.834 8 -48.501 8l-114 1
c-53.333 0 -97.333 6.83301 -132 20.5s-60.334 34 -77.001 61s-25 61.167 -25 102.5c0 122 38.667 225.333 116 310c100 109.333 241.667 164 425 164h6v-163h-7c-36.667 0 -71.167 -2.83301 -103.5 -8.5s-62.666 -14 -90.999 -25s-54.5 -25.167 -78.5 -42.5
c-37.333 -26 -65.833 -55.5 -85.5 -88.5s-29.834 -68.833 -30.501 -107.5c0 -11.333 1.66699 -21.666 5 -30.999s8.66602 -17.333 15.999 -24c14 -11.333 35.333 -17 64 -17h119c76 0.666992 132 -14.166 168 -44.499s54 -76.833 54 -139.5
c0 -186.667 -93 -322.667 -279 -408c-110.667 -50.667 -236.667 -76 -378 -76c-211.333 0 -368.833 43.333 -472.5 130s-155.5 217.334 -155.5 392.001c0 138 44 308 132 510l131 -54c-78.667 -182 -118 -333 -118 -453zM764.938 -794.798l133.743 133.743l134.813 -134.812
l-133.743 -133.743zM439.674 -794.798l133.743 133.743l134.813 -134.812l-133.743 -133.743z" />
    <glyph glyph-name="uniFEF2" unicode="&#x64a;" horiz-adv-x="1523" arabic-form="final" 
d="M753.935 -808.796l133.743 133.743l134.813 -134.812l-133.743 -133.743zM428.671 -808.796l133.743 133.743l134.813 -134.812l-133.743 -133.743zM1527 169c2 -3.33301 3.83496 -10.498 5.50195 -21.498s2.5 -24.5 2.5 -40.5v-19c0 -38 -2.66699 -62.333 -8 -73h-140
h-25h-43l34 -27c8.66699 -6.66699 16.167 -13.667 22.5 -21s11.666 -15.333 15.999 -24s7.5 -17.667 9.5 -27s3 -19 3 -29c0 -48 -14.333 -93.333 -43 -136s-72.334 -83 -131.001 -121c-136 -88.667 -297.333 -133 -484 -133c-211.333 0 -368.833 41.667 -472.5 125
s-155.5 209.333 -155.5 378c0 135.333 31.333 273.333 94 414l132 -54c-54 -139.333 -81 -255.333 -81 -348c0 -122.667 40.833 -214.834 122.5 -276.501s201.5 -92.5 359.5 -92.5c119.333 0 227 22 323 66c78.667 35.333 135 79 169 131c17.333 26 26 51 26 75
c0 59.333 -39.333 92.666 -118 99.999c-9.33301 0.666992 -19 1 -29 1h-152c-15.333 2 -28.5 9.5 -39.5 22.5s-19.5 32.833 -25.5 59.5c-6.66699 27.333 -10 47 -10 59l1 12h637z" />
    <glyph glyph-name="uniFEF3" unicode="&#x64a;" horiz-adv-x="682" arabic-form="initial" 
d="M69 15l-76.001 0.000976562c-14 0 -24.667 5.5 -32 16.5s-11 29.833 -11 56.5v19c0 23.333 3.5 39.5 10.5 48.5s17.833 13.5 32.5 13.5h76c109.333 0 184 11.333 224 34c62 36 93 110 93 222c0 9.33301 -0.166992 19 -0.5 29s-0.833008 20 -1.5 30s-1.5 20.167 -2.5 30.5
s-2.33301 20.833 -4 31.5l-5 32.5c-1.66699 11 -3.5 22 -5.5 33s-4.16699 22.167 -6.5 33.5s-5.16602 22.666 -8.49902 33.999l135 34c29.333 -98 44 -193 44 -285c0 -158.667 -45 -271.667 -135 -339c-64.667 -49.333 -173.667 -74 -327 -74zM314.934 -316.795
l133.743 133.743l134.813 -134.812l-133.743 -133.743zM-10.3301 -316.795l133.743 133.743l134.813 -134.812l-133.743 -133.743z" />
    <glyph glyph-name="uniFEF4" unicode="&#x64a;" horiz-adv-x="717" arabic-form="medial" 
d="M314.935 -316.796l133.743 133.743l134.813 -134.812l-133.743 -133.743zM-10.3291 -316.796l133.743 133.743l134.813 -134.812l-133.743 -133.743zM730 88c0 -18.667 -0.834961 -34.499 -2.50195 -47.499s-3.5 -21.5 -5.5 -25.5h-7c-126 0 -212.333 44.333 -259 133
l-12 22l-14 -20c-63.333 -90 -174.666 -135 -333.999 -135h-104c-9.33301 0 -16.833 2.16699 -22.5 6.5s-10.334 12 -14.001 23s-5.5 25.5 -5.5 43.5v19c0 23.333 3.33301 39.5 10 48.5s17.334 13.5 32.001 13.5h99c162 0 252 48 270 144c4.66699 24.667 7 53.334 7 86.001
c0 34 -1 66 -3 96l-5 67l135 16l15 -215c3.33301 -42.667 13.333 -78.334 30 -107.001s39.834 -50.334 69.501 -65.001s65.5 -22 107.5 -22h5c5.33301 -10 8 -33.667 8 -71v-10z" />
    <glyph glyph-name=".notdef" horiz-adv-x="507" 
 />
    <glyph glyph-name="uni0002" 
 />
    <glyph glyph-name="uni0009" unicode="&#x9;" 
 />
    <glyph glyph-name="nonmarkingreturn" unicode="&#xd;" horiz-adv-x="507" 
 />
    <glyph glyph-name="space" unicode=" " horiz-adv-x="560" 
 />
    <glyph glyph-name="exclam" unicode="!" horiz-adv-x="641" 
d="M200 140c0 17.333 2.83105 32.999 8.49805 46.999s14.5 26.667 26.5 38c24 24 52.5 36 85.5 36s61.167 -11.833 84.5 -35.5s35 -52 35 -85s-11.667 -61.333 -35 -85s-51.666 -35.5 -84.999 -35.5c-6 0 -11.667 0.333008 -17 1s-10.666 1.83398 -15.999 3.50098
s-10.333 3.5 -15 5.5s-9.33398 4.5 -14.001 7.5s-9 6.16699 -13 9.5c-16.667 14 -28.667 29.667 -36 47c-3.33301 7.33301 -5.66602 14.833 -6.99902 22.5s-2 15.5 -2 23.5zM228.998 1422h186l-24 -958h-137z" />
    <glyph glyph-name="quotedbl" unicode="&#x22;" horiz-adv-x="655" 
d="M262 1401l-29 -344h-82l1 333v131h110v-120zM532 1401l-29 -344h-82l1 341v123h110v-120z" />
    <glyph glyph-name="numbersign" unicode="#" horiz-adv-x="1275" 
d="M734 425h-294l-80 -410h-113l80 410h-242v107h262l75 384h-261v109h282l82 416h113l-82 -416h294l82 416h114l-82 -416h207v-109h-228l-75 -384h228v-107h-248l-80 -410h-114zM460 532h294l75 384h-294z" />
    <glyph glyph-name="dollar" unicode="$" horiz-adv-x="1090" 
d="M806 271c13.333 31.333 19.999 66.002 19.999 104.002c0 32 -5.33301 61.667 -16 89c-10.667 26.667 -28 52 -52 76l-19 17l-20.5 16c-7 5.33301 -14.333 10.5 -22 15.5s-15.834 9.83301 -24.501 14.5c-16.667 10 -35.334 19.5 -56.001 28.5s-43.334 17.833 -68.001 26.5
c-58 19.333 -110 41.666 -156 66.999c-22.667 12.667 -44.334 26.334 -65.001 41.001s-39.667 30.334 -57 47.001c-11.333 10.667 -21.666 22.167 -30.999 34.5s-17.833 25.166 -25.5 38.499s-14.5 27.333 -20.5 42c-9.33301 21.333 -16.166 44.666 -20.499 69.999
s-6.5 52.333 -6.5 81c0 53.333 8 102 24 146s38.833 82.167 68.5 114.5s65.5 58.5 107.5 78.5c39.333 20 83.666 33.333 132.999 40l13 2v217h110v-218l12 -2c50 -7.33301 95.333 -22.333 136 -45c42 -22.667 78 -52.667 108 -90c57.333 -73.333 87.333 -173 90 -299h-154
c-1.33301 40.667 -7 78 -17 112c-11.333 39.333 -28 73.333 -50 102c-21.333 29.333 -47.333 52.166 -78 68.499s-65.667 24.5 -105 24.5c-8 0 -15.833 -0.166992 -23.5 -0.5s-15 -1 -22 -2s-14 -2.33301 -21 -4s-13.667 -3.33398 -20 -5.00098
s-12.5 -3.83398 -18.5 -6.50098c-30.667 -12 -56 -29 -76 -51s-35.333 -48.333 -46 -79c-4 -10 -7.16699 -20.5 -9.5 -31.5s-4 -22.167 -5 -33.5s-1.5 -23 -1.5 -35c0 -34 5 -64.667 15 -92s26 -52.666 48 -75.999c21.333 -22 49.666 -43 84.999 -63
c34.667 -19.333 78 -38 130 -56c29.333 -10.667 57 -21.667 83 -33s51 -23.333 75 -36c24.667 -12.667 47.167 -26.167 67.5 -40.5s38.666 -29.666 54.999 -45.999s30.833 -33.833 43.5 -52.5s23.334 -39 32.001 -61c17.333 -42.667 26 -92.334 26 -149.001
c0 -56 -8.66699 -106.333 -26 -151c-17.333 -44 -42.166 -81.833 -74.499 -113.5s-71.166 -57.167 -116.499 -76.5c-44.667 -19.333 -93.334 -32 -146.001 -38l-13 -1v-190h-109v190l-13 1c-46 4.66699 -90.667 16 -134 34c-23.333 8.66699 -45.166 19.5 -65.499 32.5
s-39.166 28.167 -56.499 45.5c-35.333 34 -63.666 77 -84.999 129c-3.33301 8 -6.33301 16.333 -9 25s-5.16699 17.667 -7.5 27s-4.5 18.833 -6.5 28.5s-3.5 19.667 -4.5 30l-3 31.5c-1 10.667 -1.5 21.667 -1.5 33h155c1.33301 -52 10 -96 26 -132
c8.66699 -20 18.834 -37.833 30.501 -53.5s24.834 -29.5 39.501 -41.5c8.66699 -7.33301 17.667 -14.166 27 -20.499s19.166 -11.833 29.499 -16.5s20.833 -8.66699 31.5 -12c32 -8.66699 64 -13 96 -13c42.667 0 80.667 5.66699 114 17c34 12 63.333 28.667 88 50
c25.333 22 45 48.333 59 79z" />
    <glyph glyph-name="percent" unicode="%" horiz-adv-x="1440" 
d="M105 1099l-0.000976562 77.002c0 39.333 6.66699 76.333 20 111c12.667 34.667 31.167 64.834 55.5 90.501s54 46.167 89 61.5s74.167 23 117.5 23c21.333 0 41.5 -1.83301 60.5 -5.5s37.167 -9.5 54.5 -17.5c10.667 -4.66699 21.167 -10.167 31.5 -16.5
s19.833 -13.166 28.5 -20.499s17 -15.333 25 -24c22.667 -26 40.334 -56.333 53.001 -91c6 -17.333 10.667 -35.166 14 -53.499s5 -37.5 5 -57.5v-77c0 -38.667 -6.33301 -75.334 -19 -110.001c-6 -17.333 -13.333 -33.5 -22 -48.5s-18.834 -28.833 -30.501 -41.5
s-24.667 -24.167 -39 -34.5s-29.833 -19.166 -46.5 -26.499c-33.333 -15.333 -71.333 -23 -114 -23c-14 0 -27.667 1 -41 3c-14 1.33301 -27.333 3.66602 -40 6.99902s-25 7.66602 -37 12.999c-34.667 15.333 -64.334 35.666 -89.001 60.999
c-12.667 12.667 -23.667 26.5 -33 41.5s-17.166 31.167 -23.499 48.5s-11.166 35.166 -14.499 53.499s-5 37.166 -5 56.499zM212.999 1176l-0.00488281 -76.999c0 -8 0.333008 -16.167 1 -24.5s1.83398 -16.333 3.50098 -24s3.83398 -15.167 6.50098 -22.5
c7.33301 -23.333 18 -44 32 -62c14.667 -18.667 33.334 -33.5 56.001 -44.5s48 -16.5 76 -16.5s52.667 5.66699 74 17c5.33301 2.66699 10.5 5.5 15.5 8.5s9.66699 6.33301 14 10s8.5 7.5 12.5 11.5s7.66699 8.33301 11 13c6.66699 9.33301 12.5 19.166 17.5 29.499
s9.16699 21.166 12.5 32.499c2 6 3.5 12 4.5 18l3 18c1 6 1.66699 12 2 18s0.5 12 0.5 18v77c0 24.667 -3.33301 48.667 -10 72c-7.33301 23.333 -17.666 44 -30.999 62c-14 18.667 -31.667 33.334 -53 44.001c-11.333 6 -23.166 10.333 -35.499 13s-25.166 4 -38.499 4
c-29.333 0 -55 -5.5 -77 -16.5s-40 -25.833 -54 -44.5c-14.667 -18 -25.334 -38.667 -32.001 -62c-7.33301 -23.333 -11 -47.333 -11 -72zM795.994 279.003l-0.000976562 77.999c0 6.66699 0.166992 13.167 0.5 19.5s0.833008 12.666 1.5 18.999s1.66699 12.5 3 18.5l4 18
c1.33301 6 2.83301 12 4.5 18s3.5 12 5.5 18c3.33301 8.66699 6.83301 17 10.5 25s7.83398 15.833 12.501 23.5s9.5 15 14.5 22s10.5 13.5 16.5 19.5c23.333 25.333 51.833 45.666 85.5 60.999s71.5 23 113.5 23c14.667 0 28.667 -1 42 -3
c14 -1.33301 27.333 -3.66602 40 -6.99902s25 -7.66602 37 -12.999c34.667 -15.333 64.334 -35.666 89.001 -60.999c12 -12.667 22.667 -26.5 32 -41.5s17 -31.167 23 -48.5c13.333 -35.333 20 -72.333 20 -111v-78c0 -39.333 -6.66699 -76.333 -20 -111
c-6 -17.333 -13.667 -33.5 -23 -48.5s-20 -28.833 -32 -41.5c-24.667 -25.333 -54.334 -45.666 -89.001 -60.999s-73.5 -23 -116.5 -23s-81.333 7.66699 -115 23s-62.5 35.666 -86.5 60.999c-12 12.667 -22.5 26.5 -31.5 41.5s-16.5 31.167 -22.5 48.5
c-12.667 34.667 -19 71.667 -19 111zM899.993 357.002l0.00292969 -77.999c0 -12.667 0.833008 -25 2.5 -37s4.16699 -23.667 7.5 -35c7.33301 -23.333 18 -44 32 -62c14 -18.667 31.667 -33.334 53 -44.001c11.333 -6 23.166 -10.333 35.499 -13s25.5 -4 39.5 -4
c9.33301 0 18.333 0.666992 27 2s17.167 3.16602 25.5 5.49902s16.166 5.5 23.499 9.5c22 10.667 40 25.334 54 44.001c14.667 18 25.334 38.667 32.001 62s10 47.333 10 72v78c0 24.667 -3.66699 48.667 -11 72c-6.66699 23.333 -17.334 44 -32.001 62
c-14 18 -32.333 32.333 -55 43c-11.333 6 -23.333 10.333 -36 13s-25.834 4 -39.501 4s-26.667 -1.33301 -39 -4s-23.833 -7 -34.5 -13c-10.667 -5.33301 -20.5 -11.666 -29.5 -18.999s-17 -15.333 -24 -24s-13 -18.334 -18 -29.001s-9.5 -21.667 -13.5 -33
c-6.66699 -23.333 -10 -47.333 -10 -72zM1093 1243l-669 -1112l-76 50l668 1112z" />
    <glyph glyph-name="ampersand" unicode="&#x26;" horiz-adv-x="1273" 
d="M116 391c0 42 6.66797 80.0039 20.001 114.004c12.667 34 31 66.333 55 97c24.667 30.667 54 60 88 88c34 28.667 71.667 57.667 113 87l13 9l-10 13c-24.667 29.333 -47 57.666 -67 84.999c-19.333 26.667 -36 53.334 -50 80.001c-14 26 -24.667 52 -32 78
s-11 52.667 -11 80s2.16699 53.166 6.5 77.499s10.5 47.166 18.5 68.499c16.667 41.333 40.167 76.333 70.5 105s66.833 50.334 109.5 65.001c21.333 8 44 13.833 68 17.5s49.333 5.5 76 5.5c26 0 50.5 -2 73.5 -6s44.667 -10 65 -18s39.166 -17.333 56.499 -28
s33.333 -22.667 48 -36c28 -26.667 49.667 -57.667 65 -93c4 -8.66699 7.33301 -17.5 10 -26.5s5 -18.167 7 -27.5s3.5 -18.833 4.5 -28.5s1.5 -19.5 1.5 -29.5c0 -16.667 -1.16699 -32.667 -3.5 -48s-5.83301 -30 -10.5 -44c-9.33301 -27.333 -22 -53.333 -38 -78
l-13.5 -18c-4.33301 -6 -9 -12 -14 -18s-10.333 -11.667 -16 -17l-17.5 -16c-12 -11.333 -24.5 -22.5 -37.5 -33.5s-26.5 -21.833 -40.5 -32.5l-123 -90l349 -417l10 20c22 42 39.333 87.667 52 137c10.667 45.333 16.667 93.333 18 144h137
c-1.33301 -76.667 -11 -147.334 -29 -212.001l-8 -25.5c-2.66699 -8.33301 -5.66699 -16.666 -9 -24.999l-10 -24.5c-3.33301 -8 -6.83301 -15.833 -10.5 -23.5s-7.66699 -15.334 -12 -23.001l-13 -22.5l-13.5 -22c-4.66699 -7.33301 -9.66699 -14.333 -15 -21l-7 -10
l195 -233h-183l-102 121l-12 -10c-24.667 -22 -51.5 -41.167 -80.5 -57.5s-59.333 -29.833 -91 -40.5s-64 -18.834 -97 -24.501s-65.5 -8.5 -97.5 -8.5c-70.667 0 -134.667 10 -192 30c-56 19.333 -103.667 46.666 -143 81.999c-13.333 11.333 -25.333 23.5 -36 36.5
s-20.5 26.833 -29.5 41.5s-17.167 30 -24.5 46c-20.667 48.667 -31 102 -31 160zM572.001 116.004c24.667 0 49.3311 2.50488 73.998 7.50488s49 12.5 73 22.5l17.5 8l17.5 8.5c6 3 11.667 6.16699 17 9.5l16.5 10.5c5.66699 3.66699 11.167 7.5 16.5 11.5l16 12l16 12.5
c5.33301 4.33301 10.333 8.83301 15 13.5l11 10l-374 446l-53 -39c-36.667 -27.333 -66 -54 -88 -80c-10.667 -12.667 -20.167 -25 -28.5 -37s-15.166 -23.667 -20.499 -35c-11.333 -22.667 -18.666 -43.334 -21.999 -62.001c-3.33301 -18 -5 -32.667 -5 -44
c0 -18.667 1.5 -36.834 4.5 -54.501s7.5 -34.834 13.5 -51.501c6.66699 -16.667 14.667 -32.334 24 -47.001s20.333 -28.334 33 -41.001c25.333 -25.333 57 -45.333 95 -60c37.333 -14 81 -21 131 -21zM389.998 1128.01c0 -39.333 11.332 -80.0049 33.999 -122.005
c21.333 -40 50.333 -82.333 87 -127l9 -11l117 82l20 14c6.66699 4.66699 13 9.33398 19 14.001s11.667 9.66699 17 15c17.333 14.667 32 30.334 44 47.001c12.667 17.333 22 36.333 28 57c2.66699 10.667 4.83398 21.834 6.50098 33.501s2.5 24.167 2.5 37.5
c0 22 -4.33301 43.333 -13 64c-8 20.667 -20.333 38.667 -37 54c-16.667 16 -36.667 28.667 -60 38c-8 3.33301 -16.333 6.16602 -25 8.49902s-17.667 4 -27 5s-19 1.5 -29 1.5c-8 0 -15.667 -0.333008 -23 -1s-14.5 -1.66699 -21.5 -3s-13.667 -3.16602 -20 -5.49902
s-12.5 -4.83301 -18.5 -7.5c-24 -11.333 -44.333 -26.666 -61 -45.999l-11.5 -16c-3.66699 -5.33301 -7 -10.666 -10 -15.999s-5.83301 -11 -8.5 -17s-5 -12.333 -7 -19c-4 -12.667 -7 -25.667 -9 -39s-3 -27 -3 -41z" />
    <glyph glyph-name="quotesingle" unicode="'" horiz-adv-x="357" 
d="M238 1425l-20 -353h-100l1 337v112h119v-96z" />
    <glyph glyph-name="parenleft" unicode="(" horiz-adv-x="700" 
d="M148 591c0 32 0.836914 63.332 2.50391 93.999s4.16699 60.667 7.5 90s7.66602 58 12.999 86c7.33301 42 16.166 82.5 26.499 121.5s21.833 76.167 34.5 111.5c25.333 71.333 54.666 136.333 87.999 195c16.667 29.333 33.5 56.833 50.5 82.5s34.5 49.834 52.5 72.501
l36 42c12 13.333 24 26 36 38l35 34c29.333 26 57.333 47 84 63l30 -95c-19.333 -14.667 -38.5 -32 -57.5 -52s-37.833 -42.667 -56.5 -68c-41.333 -53.333 -79 -119.333 -113 -198c-8 -19.333 -15.833 -39.5 -23.5 -60.5s-15 -42.833 -22 -65.5s-13.5 -46 -19.5 -70
s-11.667 -48.667 -17 -74c-21.333 -102 -32 -217 -32 -345v-14c0 -128 10.667 -243 32 -345c21.333 -102.667 48.666 -193 81.999 -271c34 -78.667 71.333 -145.334 112 -200.001c38.667 -51.333 77 -93 115 -125l-29 -86c-4.66699 2.66699 -9.16699 5.5 -13.5 8.5
l-13.5 9.5l-14 10c-4.66699 3.33301 -9.33398 7 -14.001 11l-14.5 12l-14.5 12c-36 31.333 -72 69.5 -108 114.5s-70.5 96.5 -103.5 154.5s-62.167 122.667 -87.5 194s-45.666 148.833 -60.999 232.5s-23 173.834 -23 270.501v10z" />
    </font>
</defs>
</svg>
